  0
SECTION
  2
HEADER
  9
$ACADVER
  1
AC1009
  9
$INSBASE
 10
0.0
 20
0.0
 30
0.0
  9
$EXTMIN
 10
0.0
 20
0.0
 30
0.0
  9
$EXTMAX
 10
0.0
 20
0.0
 30
0.0
  0
ENDSEC
  0
SECTION
  2
TABLES
  0
TABLE
  2
VPORT
 70
0
  0
ENDTAB
  0
TABLE
  2
LTYPE
 70
1
  0
LTYPE
  2
CONTINUOUS
 70
0
  3
Solid line
 72
65
 73
0
 40
0.0
  0
ENDTAB
  0
TABLE
  2
LAYER
 70
1
  0
LAYER
  2
0
 70
64
 62
7
  6
continuous
  0
ENDTAB
  0
TABLE
  2
STYLE
 70
1
  0
STYLE
  2
STANDARD
 70
0
 40
0
 41
1.0
 50
0.0
 71
0
 42
1
 3
ARIAL.TTF
 4

  0
ENDTAB
  0
TABLE
  2
VIEW
 70
0
  0
ENDTAB
  0
ENDSEC
  0
SECTION
  2
BLOCKS
  0
BLOCK
  8
0
  2
SHAPE2DVIEW007
 70
0
 10
0.0
 20
0.0
 30
0.0
  3
SHAPE2DVIEW007
  0
LINE
  8
0
 62
0
 10
-26.5
 20
17.0
 30
0.0
 11
-22.5
 21
17.0
 31
0.0
  0
LINE
  8
0
 62
0
 10
-22.5
 20
17.0
 30
0.0
 11
-19.5
 21
20.0
 31
0.0
  0
LINE
  8
0
 62
0
 10
-19.5
 20
20.0
 30
0.0
 11
17.5
 21
20.0
 31
0.0
  0
LINE
  8
0
 62
0
 10
17.5
 20
20.0
 30
0.0
 11
20.5
 21
17.0
 31
0.0
  0
LINE
  8
0
 62
0
 10
20.5
 20
17.0
 30
0.0
 11
24.5
 21
17.0
 31
0.0
  0
LINE
  8
0
 62
0
 10
24.5
 20
17.0
 30
0.0
 11
27.5
 21
17.0
 31
0.0
  0
LINE
  8
0
 62
0
 10
27.5
 20
17.0
 30
0.0
 11
27.5
 21
20.0
 31
0.0
  0
LINE
  8
0
 62
0
 10
27.5
 20
20.0
 30
0.0
 11
27.5
 21
30.0
 31
0.0
  0
LINE
  8
0
 62
0
 10
27.5
 20
30.0
 30
0.0
 11
24.5
 21
33.0
 31
0.0
  0
LINE
  8
0
 62
0
 10
24.5
 20
33.0
 30
0.0
 11
20.5
 21
33.0
 31
0.0
  0
LINE
  8
0
 62
0
 10
20.5
 20
33.0
 30
0.0
 11
17.5
 21
30.0
 31
0.0
  0
LINE
  8
0
 62
0
 10
17.5
 20
30.0
 30
0.0
 11
-19.5
 21
30.0
 31
0.0
  0
LINE
  8
0
 62
0
 10
-19.5
 20
30.0
 30
0.0
 11
-22.5
 21
33.0
 31
0.0
  0
LINE
  8
0
 62
0
 10
-22.5
 20
33.0
 30
0.0
 11
-26.5
 21
33.0
 31
0.0
  0
LINE
  8
0
 62
0
 10
-26.5
 20
33.0
 30
0.0
 11
-29.5
 21
30.0
 31
0.0
  0
LINE
  8
0
 62
0
 10
-29.5
 20
30.0
 30
0.0
 11
-29.5
 21
20.0
 31
0.0
  0
LINE
  8
0
 62
0
 10
-29.5
 20
17.0
 30
0.0
 11
-29.5
 21
20.0
 31
0.0
  0
LINE
  8
0
 62
0
 10
-26.5
 20
17.0
 30
0.0
 11
-29.5
 21
17.0
 31
0.0
  0
LINE
  8
0
 62
0
 10
-7.5
 20
23.5
 30
0.0
 11
7.5
 21
23.5
 31
0.0
  0
LINE
  8
0
 62
0
 10
7.5
 20
23.5
 30
0.0
 11
7.5
 21
26.0
 31
0.0
  0
LINE
  8
0
 62
0
 10
7.5
 20
26.0
 30
0.0
 11
-7.5
 21
26.0
 31
0.0
  0
LINE
  8
0
 62
0
 10
-7.5
 20
26.0
 30
0.0
 11
-7.5
 21
23.5
 31
0.0
  0
CIRCLE
  8
0
 62
0
 10
22.7
 20
28.0
 30
0.0
 40
0.25
  0
CIRCLE
  8
0
 62
0
 10
-24.5
 20
28.0
 30
0.0
 40
0.25
  0
LINE
  8
0
 62
0
 10
24.5
 20
-17.0
 30
0.0
 11
20.5
 21
-17.0
 31
0.0
  0
LINE
  8
0
 62
0
 10
20.5
 20
-17.0
 30
0.0
 11
17.5
 21
-20.0
 31
0.0
  0
LINE
  8
0
 62
0
 10
17.5
 20
-20.0
 30
0.0
 11
-19.5
 21
-20.0
 31
0.0
  0
LINE
  8
0
 62
0
 10
-19.5
 20
-20.0
 30
0.0
 11
-22.5
 21
-17.0
 31
0.0
  0
LINE
  8
0
 62
0
 10
-22.5
 20
-17.0
 30
0.0
 11
-26.5
 21
-17.0
 31
0.0
  0
LINE
  8
0
 62
0
 10
-26.5
 20
-17.0
 30
0.0
 11
-29.5
 21
-17.0
 31
0.0
  0
LINE
  8
0
 62
0
 10
-29.5
 20
-17.0
 30
0.0
 11
-29.5
 21
-20.0
 31
0.0
  0
LINE
  8
0
 62
0
 10
-29.5
 20
-20.0
 30
0.0
 11
-29.5
 21
-30.0
 31
0.0
  0
LINE
  8
0
 62
0
 10
-29.5
 20
-30.0
 30
0.0
 11
-26.5
 21
-33.0
 31
0.0
  0
LINE
  8
0
 62
0
 10
-26.5
 20
-33.0
 30
0.0
 11
-22.5
 21
-33.0
 31
0.0
  0
LINE
  8
0
 62
0
 10
-22.5
 20
-33.0
 30
0.0
 11
-19.5
 21
-30.0
 31
0.0
  0
LINE
  8
0
 62
0
 10
-19.5
 20
-30.0
 30
0.0
 11
17.5
 21
-30.0
 31
0.0
  0
LINE
  8
0
 62
0
 10
17.5
 20
-30.0
 30
0.0
 11
20.5
 21
-33.0
 31
0.0
  0
LINE
  8
0
 62
0
 10
20.5
 20
-33.0
 30
0.0
 11
24.5
 21
-33.0
 31
0.0
  0
LINE
  8
0
 62
0
 10
24.5
 20
-33.0
 30
0.0
 11
27.5
 21
-30.0
 31
0.0
  0
LINE
  8
0
 62
0
 10
27.5
 20
-30.0
 30
0.0
 11
27.5
 21
-20.0
 31
0.0
  0
LINE
  8
0
 62
0
 10
27.5
 20
-20.0
 30
0.0
 11
27.5
 21
-17.0
 31
0.0
  0
LINE
  8
0
 62
0
 10
24.5
 20
-17.0
 30
0.0
 11
27.5
 21
-17.0
 31
0.0
  0
LINE
  8
0
 62
0
 10
-7.5
 20
-26.0
 30
0.0
 11
7.5
 21
-26.0
 31
0.0
  0
LINE
  8
0
 62
0
 10
7.5
 20
-26.0
 30
0.0
 11
7.5
 21
-23.5
 31
0.0
  0
LINE
  8
0
 62
0
 10
7.5
 20
-23.5
 30
0.0
 11
-7.5
 21
-23.5
 31
0.0
  0
LINE
  8
0
 62
0
 10
-7.5
 20
-23.5
 30
0.0
 11
-7.5
 21
-26.0
 31
0.0
  0
CIRCLE
  8
0
 62
0
 10
22.7
 20
-28.0
 30
0.0
 40
0.25
  0
CIRCLE
  8
0
 62
0
 10
-24.5
 20
-28.0
 30
0.0
 40
0.25
  0
ENDBLK
  0
ENDSEC
  0
SECTION
  2
ENTITIES
  0
INSERT
  2
SHAPE2DVIEW007
  8
0
 62
0
 10
0.0
 20
0.0
 30
0.0
  0
ENDSEC
  0
EOF
