  0
SECTION
  2
HEADER
  9
$ACADVER
  1
AC1009
  9
$INSBASE
 10
0.0
 20
0.0
 30
0.0
  9
$EXTMIN
 10
0.0
 20
0.0
 30
0.0
  9
$EXTMAX
 10
0.0
 20
0.0
 30
0.0
  0
ENDSEC
  0
SECTION
  2
TABLES
  0
TABLE
  2
VPORT
 70
0
  0
ENDTAB
  0
TABLE
  2
LTYPE
 70
1
  0
LTYPE
  2
CONTINUOUS
 70
0
  3
Solid line
 72
65
 73
0
 40
0.0
  0
ENDTAB
  0
TABLE
  2
LAYER
 70
1
  0
LAYER
  2
0
 70
64
 62
7
  6
continuous
  0
ENDTAB
  0
TABLE
  2
STYLE
 70
1
  0
STYLE
  2
STANDARD
 70
0
 40
0
 41
1.0
 50
0.0
 71
0
 42
1
 3
ARIAL.TTF
 4

  0
ENDTAB
  0
TABLE
  2
VIEW
 70
0
  0
ENDTAB
  0
ENDSEC
  0
SECTION
  2
BLOCKS
  0
BLOCK
  8
0
  2
SHAPE2DVIEW009
 70
0
 10
0.0
 20
0.0
 30
0.0
  3
SHAPE2DVIEW009
  0
LINE
  8
0
 62
0
 10
64.4999985993
 20
-29.5
 30
0.0
 11
64.4999985993
 21
-7.5
 31
0.0
  0
LINE
  8
0
 62
0
 10
64.4999985993
 20
-7.5
 30
0.0
 11
61.9999985993
 21
-7.5
 31
0.0
  0
LINE
  8
0
 62
0
 10
61.9999985993
 20
-7.5
 30
0.0
 11
61.9999985993
 21
7.5
 31
0.0
  0
LINE
  8
0
 62
0
 10
61.9999985993
 20
7.5
 30
0.0
 11
64.4999985993
 21
7.5
 31
0.0
  0
LINE
  8
0
 62
0
 10
64.4999985993
 20
7.5
 30
0.0
 11
64.4999985993
 21
27.5
 31
0.0
  0
LINE
  8
0
 62
0
 10
64.4999985993
 20
27.5
 30
0.0
 11
69.4999985993
 21
27.5
 31
0.0
  0
LINE
  8
0
 62
0
 10
69.4999985993
 20
27.5
 30
0.0
 11
69.4999985993
 21
25.0
 31
0.0
  0
LINE
  8
0
 62
0
 10
69.4999985993
 20
25.0
 30
0.0
 11
74.4999985993
 21
25.0
 31
0.0
  0
LINE
  8
0
 62
0
 10
74.4999985993
 20
25.0
 30
0.0
 11
74.4999985993
 21
27.5
 31
0.0
  0
LINE
  8
0
 62
0
 10
74.4999985993
 20
27.5
 30
0.0
 11
79.4999985993
 21
27.5
 31
0.0
  0
LINE
  8
0
 62
0
 10
79.4999985993
 20
27.5
 30
0.0
 11
79.4999985993
 21
25.0
 31
0.0
  0
LINE
  8
0
 62
0
 10
79.4999985993
 20
25.0
 30
0.0
 11
84.4999985993
 21
25.0
 31
0.0
  0
LINE
  8
0
 62
0
 10
84.4999985993
 20
25.0
 30
0.0
 11
84.4999985993
 21
-27.0
 31
0.0
  0
LINE
  8
0
 62
0
 10
84.4999985993
 20
-27.0
 30
0.0
 11
79.4999985993
 21
-27.0
 31
0.0
  0
LINE
  8
0
 62
0
 10
79.4999985993
 20
-27.0
 30
0.0
 11
79.4999985993
 21
-29.5
 31
0.0
  0
LINE
  8
0
 62
0
 10
79.4999985993
 20
-29.5
 30
0.0
 11
74.4999985993
 21
-29.5
 31
0.0
  0
LINE
  8
0
 62
0
 10
74.4999985993
 20
-29.5
 30
0.0
 11
74.4999985993
 21
-27.0
 31
0.0
  0
LINE
  8
0
 62
0
 10
74.4999985993
 20
-27.0
 30
0.0
 11
69.4999985993
 21
-27.0
 31
0.0
  0
LINE
  8
0
 62
0
 10
69.4999985993
 20
-27.0
 30
0.0
 11
69.4999985993
 21
-29.5
 31
0.0
  0
LINE
  8
0
 62
0
 10
69.4999985993
 20
-29.5
 30
0.0
 11
64.4999985993
 21
-29.5
 31
0.0
  0
POLYLINE
  8
0
 62
0
 70
0
 66
1
 10
0.0
 20
0.0
 30
0.0
  0
VERTEX
  8
0
 10
74.4999985993
 20
20.0
 30
0.0
  0
VERTEX
  8
0
 10
70.590841187
 20
18.1174490093
 30
0.0
  0
VERTEX
  8
0
 10
69.6253590384
 20
13.8873953302
 30
0.0
  0
VERTEX
  8
0
 10
72.3305799037
 20
10.4951556605
 30
0.0
  0
VERTEX
  8
0
 10
76.6694172949
 20
10.4951556605
 30
0.0
  0
VERTEX
  8
0
 10
79.3746381602
 20
13.8873953302
 30
0.0
  0
VERTEX
  8
0
 10
78.4091560116
 20
18.1174490093
 30
0.0
  0
VERTEX
  8
0
 10
74.4999985993
 20
20.0
 30
0.0
  0
SEQEND
  8
0
  0
POLYLINE
  8
0
 62
0
 70
0
 66
1
 10
0.0
 20
0.0
 30
0.0
  0
VERTEX
  8
0
 10
74.4999985993
 20
-10.0
 30
0.0
  0
VERTEX
  8
0
 10
70.590841187
 20
-11.8825509907
 30
0.0
  0
VERTEX
  8
0
 10
69.6253590384
 20
-16.1126046698
 30
0.0
  0
VERTEX
  8
0
 10
72.3305799037
 20
-19.5048443395
 30
0.0
  0
VERTEX
  8
0
 10
76.6694172949
 20
-19.5048443395
 30
0.0
  0
VERTEX
  8
0
 10
79.3746381602
 20
-16.1126046698
 30
0.0
  0
VERTEX
  8
0
 10
78.4091560116
 20
-11.8825509907
 30
0.0
  0
VERTEX
  8
0
 10
74.4999985993
 20
-10.0
 30
0.0
  0
SEQEND
  8
0
  0
ENDBLK
  0
ENDSEC
  0
SECTION
  2
ENTITIES
  0
INSERT
  2
SHAPE2DVIEW009
  8
0
 62
0
 10
0.0
 20
0.0
 30
0.0
  0
ENDSEC
  0
EOF
