  0
SECTION
  2
HEADER
  9
$ACADVER
  1
AC1009
  9
$INSBASE
 10
0.0
 20
0.0
 30
0.0
  9
$EXTMIN
 10
0.0
 20
0.0
 30
0.0
  9
$EXTMAX
 10
0.0
 20
0.0
 30
0.0
  0
ENDSEC
  0
SECTION
  2
TABLES
  0
TABLE
  2
VPORT
 70
0
  0
ENDTAB
  0
TABLE
  2
LTYPE
 70
1
  0
LTYPE
  2
CONTINUOUS
 70
0
  3
Solid line
 72
65
 73
0
 40
0.0
  0
ENDTAB
  0
TABLE
  2
LAYER
 70
1
  0
LAYER
  2
0
 70
64
 62
7
  6
continuous
  0
ENDTAB
  0
TABLE
  2
STYLE
 70
1
  0
STYLE
  2
STANDARD
 70
0
 40
0
 41
1.0
 50
0.0
 71
0
 42
1
 3
ARIAL.TTF
 4

  0
ENDTAB
  0
TABLE
  2
VIEW
 70
0
  0
ENDTAB
  0
ENDSEC
  0
SECTION
  2
BLOCKS
  0
BLOCK
  8
0
  2
SHAPE2DVIEW012
 70
0
 10
0.0
 20
0.0
 30
0.0
  3
SHAPE2DVIEW012
  0
LINE
  8
0
 62
0
 10
-79.9999999997
 20
-17.0000000002
 30
0.0
 11
-84.9999999997
 21
-12.0000000002
 31
0.0
  0
LINE
  8
0
 62
0
 10
-84.9999999997
 20
-12.0000000002
 30
0.0
 11
-92.9999999997
 21
-12.0000000002
 31
0.0
  0
LINE
  8
0
 62
0
 10
-92.9999999997
 20
-12.0000000002
 30
0.0
 11
-92.9999999997
 21
-20.0000000002
 31
0.0
  0
LINE
  8
0
 62
0
 10
-92.9999999997
 20
-20.0000000002
 30
0.0
 11
-95.4999999997
 21
-20.0000000002
 31
0.0
  0
LINE
  8
0
 62
0
 10
-95.4999999997
 20
-20.0000000002
 30
0.0
 11
-95.4999999997
 21
-28.0000000002
 31
0.0
  0
LINE
  8
0
 62
0
 10
-95.4999999997
 20
-28.0000000002
 30
0.0
 11
-92.9999999997
 21
-28.0000000002
 31
0.0
  0
LINE
  8
0
 62
0
 10
-92.9999999997
 20
-28.0000000002
 30
0.0
 11
-92.9999999997
 21
-36.0000000002
 31
0.0
  0
LINE
  8
0
 62
0
 10
-92.9999999997
 20
-36.0000000002
 30
0.0
 11
-95.4999999997
 21
-36.0000000002
 31
0.0
  0
LINE
  8
0
 62
0
 10
-95.4999999997
 20
-36.0000000002
 30
0.0
 11
-95.4999999997
 21
-44.0000000002
 31
0.0
  0
LINE
  8
0
 62
0
 10
-95.4999999997
 20
-44.0000000002
 30
0.0
 11
-92.9999999997
 21
-44.0000000002
 31
0.0
  0
LINE
  8
0
 62
0
 10
-92.9999999997
 20
-44.0000000002
 30
0.0
 11
-92.9999999997
 21
-52.0000000002
 31
0.0
  0
LINE
  8
0
 62
0
 10
-92.9999999997
 20
-52.0000000002
 30
0.0
 11
-84.9999999997
 21
-52.0000000002
 31
0.0
  0
LINE
  8
0
 62
0
 10
-84.9999999997
 20
-52.0000000002
 30
0.0
 11
-79.9999999997
 21
-47.0000000002
 31
0.0
  0
LINE
  8
0
 62
0
 10
-79.9999999997
 20
-47.0000000002
 30
0.0
 11
-79.9999999997
 21
-17.0000000002
 31
0.0
  0
CIRCLE
  8
0
 62
0
 10
-82.0
 20
-44.0000000002
 30
0.0
 40
0.25
  0
CIRCLE
  8
0
 62
0
 10
-82.0
 20
-20.0
 30
0.0
 40
0.25
  0
LINE
  8
0
 62
0
 10
-80.0
 20
17.0
 30
0.0
 11
-84.9999999997
 21
12.0000000002
 31
0.0
  0
LINE
  8
0
 62
0
 10
-84.9999999997
 20
12.0000000002
 30
0.0
 11
-92.9999999997
 21
12.0000000002
 31
0.0
  0
LINE
  8
0
 62
0
 10
-92.9999999997
 20
12.0000000002
 30
0.0
 11
-92.9999999997
 21
20.0000000002
 31
0.0
  0
LINE
  8
0
 62
0
 10
-92.9999999997
 20
20.0000000002
 30
0.0
 11
-95.4999999997
 21
20.0000000002
 31
0.0
  0
LINE
  8
0
 62
0
 10
-95.4999999997
 20
20.0000000002
 30
0.0
 11
-95.4999999997
 21
28.0000000002
 31
0.0
  0
LINE
  8
0
 62
0
 10
-95.4999999997
 20
28.0000000002
 30
0.0
 11
-92.9999999997
 21
28.0000000002
 31
0.0
  0
LINE
  8
0
 62
0
 10
-92.9999999997
 20
28.0000000002
 30
0.0
 11
-92.9999999997
 21
36.0000000002
 31
0.0
  0
LINE
  8
0
 62
0
 10
-92.9999999997
 20
36.0000000002
 30
0.0
 11
-95.4999999997
 21
36.0000000002
 31
0.0
  0
LINE
  8
0
 62
0
 10
-95.4999999997
 20
36.0000000002
 30
0.0
 11
-95.4999999997
 21
44.0000000002
 31
0.0
  0
LINE
  8
0
 62
0
 10
-95.4999999997
 20
44.0000000002
 30
0.0
 11
-92.9999999997
 21
44.0000000002
 31
0.0
  0
LINE
  8
0
 62
0
 10
-92.9999999997
 20
44.0000000002
 30
0.0
 11
-92.9999999997
 21
52.0000000002
 31
0.0
  0
LINE
  8
0
 62
0
 10
-92.9999999997
 20
52.0000000002
 30
0.0
 11
-84.9999999997
 21
52.0000000002
 31
0.0
  0
LINE
  8
0
 62
0
 10
-84.9999999997
 20
52.0000000002
 30
0.0
 11
-80.0
 21
47.0000000002
 31
0.0
  0
LINE
  8
0
 62
0
 10
-80.0
 20
47.0000000002
 30
0.0
 11
-80.0
 21
17.0
 31
0.0
  0
CIRCLE
  8
0
 62
0
 10
-82.0
 20
44.0000000002
 30
0.0
 40
0.25
  0
CIRCLE
  8
0
 62
0
 10
-82.0
 20
20.0
 30
0.0
 40
0.25
  0
ENDBLK
  0
ENDSEC
  0
SECTION
  2
ENTITIES
  0
INSERT
  2
SHAPE2DVIEW012
  8
0
 62
0
 10
0.0
 20
0.0
 30
0.0
  0
ENDSEC
  0
EOF
