999
dxfrw 0.6.3
  0
SECTION
  2
HEADER
  9
$ACADVER
  1
AC1021
  9
$DWGCODEPAGE
  3
ANSI_1252
  9
$INSBASE
 10
0
 20
0
 30
0
  9
$EXTMIN
 10
-2.296212748401287e-16
 20
-5.25
 30
0
  9
$EXTMAX
 10
209.9536824
 20
257.972484
 30
0
  9
$LIMMIN
 10
0
 20
0
  9
$LIMMAX
 10
420
 20
297
  9
$ORTHOMODE
 70
    0
  9
$REGENMODE
 70
    1
  9
$FILLMODE
 70
    0
  9
$QTEXTMODE
 70
    0
  9
$MIRRTEXT
 70
    0
  9
$LTSCALE
 40
1
  9
$ATTMODE
 70
    0
  9
$TEXTSIZE
 40
2.5
  9
$TRACEWID
 40
15.68
  9
$TEXTSTYLE
  7
STANDARD
  9
$CLAYER
  8
0
  9
$CELTYPE
  6
BYLAYER
  9
$CECOLOR
 62
  256
  9
$CELTSCALE
 40
1
  9
$DISPSILH
 70
    0
  9
$DIMSCALE
 40
1
  9
$DIMASZ
 40
2.5
  9
$DIMEXO
 40
0.625
  9
$DIMDLI
 40
3.75
  9
$DIMRND
 40
0
  9
$DIMDLE
 40
0
  9
$DIMEXE
 40
1.25
  9
$DIMTP
 40
0
  9
$DIMTM
 40
0
  9
$DIMTXT
 40
2.5
  9
$DIMCEN
 40
2.5
  9
$DIMTSZ
 40
0
  9
$DIMTOL
 70
    0
  9
$DIMLIM
 70
    0
  9
$DIMTIH
 70
    0
  9
$DIMTOH
 70
    0
  9
$DIMSE1
 70
    0
  9
$DIMSE2
 70
    0
  9
$DIMTAD
 70
    1
  9
$DIMZIN
 70
    8
  9
$DIMBLK
  1

  9
$DIMASO
 70
    1
  9
$DIMSHO
 70
    1
  9
$DIMPOST
  1

  9
$DIMAPOST
  1

  9
$DIMALT
 70
    0
  9
$DIMALTD
 70
    3
  9
$DIMALTF
 40
0.03937
  9
$DIMLFAC
 40
1
  9
$DIMTOFL
 70
    1
  9
$DIMTVP
 40
0
  9
$DIMTIX
 70
    0
  9
$DIMSOXD
 70
    0
  9
$DIMSAH
 70
    0
  9
$DIMBLK1
  1

  9
$DIMBLK2
  1

  9
$DIMSTYLE
  2
Standard
  9
$DIMCLRD
 70
    0
  9
$DIMCLRE
 70
    0
  9
$DIMCLRT
 70
    0
  9
$DIMTFAC
 40
1
  9
$DIMGAP
 40
0.625
  9
$DIMJUST
 70
    0
  9
$DIMSD1
 70
    0
  9
$DIMSD2
 70
    0
  9
$DIMTOLJ
 70
    0
  9
$DIMTZIN
 70
    8
  9
$DIMALTZ
 70
    0
  9
$DIMALTTZ
 70
    0
  9
$DIMUPT
 70
    0
  9
$DIMDEC
 70
    2
  9
$DIMTDEC
 70
    2
  9
$DIMALTU
 70
    2
  9
$DIMALTTD
 70
    3
  9
$DIMTXSTY
  7
STANDARD
  9
$DIMAUNIT
 70
    0
  9
$DIMADEC
 70
    0
  9
$DIMALTRND
 40
0
  9
$DIMAZIN
 70
    0
  9
$DIMDSEP
 70
   44
  9
$DIMATFIT
 70
    3
  9
$DIMFRAC
 70
    0
  9
$DIMLDRBLK
  1
STANDARD
  9
$DIMLUNIT
 70
    2
  9
$DIMLWD
 70
   -2
  9
$DIMLWE
 70
   -2
  9
$DIMTMOVE
 70
    0
  9
$DIMFXL
 40
1
  9
$DIMFXLON
 70
    0
  9
$DIMJOGANG
 40
0.7854
  9
$DIMTFILL
 70
    0
  9
$DIMTFILLCLR
 70
    0
  9
$DIMARCSYM
 70
    0
  9
$DIMLTYPE
  6

  9
$DIMLTEX1
  6

  9
$DIMLTEX2
  6

  9
$LUNITS
 70
    2
  9
$LUPREC
 70
    4
  9
$SKETCHINC
 40
1
  9
$FILLETRAD
 40
0
  9
$AUNITS
 70
    0
  9
$AUPREC
 70
    2
  9
$MENU
  1
.
  9
$ELEVATION
 40
0
  9
$PELEVATION
 40
0
  9
$THICKNESS
 40
0
  9
$LIMCHECK
 70
    0
  9
$CHAMFERA
 40
0
  9
$CHAMFERB
 40
0
  9
$CHAMFERC
 40
0
  9
$CHAMFERD
 40
0
  9
$SKPOLY
 70
    0
  9
$USRTIMER
 70
    1
  9
$ANGBASE
 50
0
  9
$ANGDIR
 70
    0
  9
$PDMODE
 70
   34
  9
$PDSIZE
 40
0
  9
$PLINEWID
 40
0
  9
$SPLFRAME
 70
    1
  9
$SPLINETYPE
 70
    2
  9
$SPLINESEGS
 70
    8
  9
$HANDSEED
  5
20000
  9
$SURFTAB1
 70
    6
  9
$SURFTAB2
 70
    6
  9
$SURFTYPE
 70
    6
  9
$SURFU
 70
    6
  9
$SURFV
 70
    6
  9
$UCSBASE
  2

  9
$UCSNAME
  2

  9
$UCSORG
 10
0
 20
0
 30
0
  9
$UCSXDIR
 10
1
 20
0
 30
0
  9
$UCSYDIR
 10
0
 20
1
 30
0
  9
$UCSORTHOREF
  2

  9
$UCSORTHOVIEW
 70
    0
  9
$UCSORGTOP
 10
0
 20
0
 30
0
  9
$UCSORGBOTTOM
 10
0
 20
0
 30
0
  9
$UCSORGLEFT
 10
0
 20
0
 30
0
  9
$UCSORGRIGHT
 10
0
 20
0
 30
0
  9
$UCSORGFRONT
 10
0
 20
0
 30
0
  9
$UCSORGBACK
 10
0
 20
0
 30
0
  9
$PUCSBASE
  2

  9
$PUCSNAME
  2

  9
$PUCSORG
 10
0
 20
0
 30
0
  9
$PUCSXDIR
 10
1
 20
0
 30
0
  9
$PUCSYDIR
 10
0
 20
1
 30
0
  9
$PUCSORTHOREF
  2

  9
$PUCSORTHOVIEW
 70
    0
  9
$PUCSORGTOP
 10
0
 20
0
 30
0
  9
$PUCSORGBOTTOM
 10
0
 20
0
 30
0
  9
$PUCSORGLEFT
 10
0
 20
0
 30
0
  9
$PUCSORGRIGHT
 10
0
 20
0
 30
0
  9
$PUCSORGFRONT
 10
0
 20
0
 30
0
  9
$PUCSORGBACK
 10
0
 20
0
 30
0
  9
$USERI1
 70
    0
  9
$USERI2
 70
    0
  9
$USERI3
 70
    0
  9
$USERI4
 70
    0
  9
$USERI5
 70
    0
  9
$USERR1
 40
0
  9
$USERR2
 40
0
  9
$USERR3
 40
0
  9
$USERR4
 40
0
  9
$USERR5
 40
0
  9
$WORLDVIEW
 70
    1
  9
$SHADEDGE
 70
    3
  9
$SHADEDIF
 70
   70
  9
$TILEMODE
 70
    1
  9
$MAXACTVP
 70
   64
  9
$PINSBASE
 10
0
 20
0
 30
0
  9
$PLIMCHECK
 70
    0
  9
$PEXTMIN
 10
0
 20
0
 30
0
  9
$PEXTMAX
 10
0
 20
0
 30
0
  9
$SNAPSTYLE
 70
    0
  9
$PLIMMIN
 10
0
 20
0
  9
$PLIMMAX
 10
8.2677
 20
11.693
  9
$UNITMODE
 70
    0
  9
$VISRETAIN
 70
    1
  9
$PLINEGEN
 70
    0
  9
$PSLTSCALE
 70
    1
  9
$TREEDEPTH
 70
 3020
  9
$CMLSTYLE
  2
Standard
  9
$CMLJUST
 70
    0
  9
$CMLSCALE
 40
20
  9
$PROXYGRAPHICS
 70
    1
  9
$MEASUREMENT
 70
    1
  9
$CELWEIGHT
370
   -1
  9
$ENDCAPS
280
    0
  9
$JOINSTYLE
280
    0
  9
$LWDISPLAY
290
    0
  9
$INSUNITS
 70
    4
  9
$HYPERLINKBASE
  1

  9
$STYLESHEET
  1

  9
$XEDIT
290
    1
  9
$CEPSNTYPE
380
    0
  9
$PSTYLEMODE
290
    1
  9
$EXTNAMES
290
    1
  9
$PSVPSCALE
 40
1
  9
$OLESTARTUP
290
    0
  9
$SORTENTS
280
  127
  9
$INDEXCTL
280
    0
  9
$HIDETEXT
280
    1
  9
$XCLIPFRAME
290
    0
  9
$HALOGAP
280
    0
  9
$OBSCOLOR
 70
  257
  9
$OBSLTYPE
280
    0
  9
$INTERSECTIONDISPLAY
280
    0
  9
$INTERSECTIONCOLOR
 70
  257
  9
$DIMASSOC
280
    1
  9
$PROJECTNAME
  1

  9
$CAMERADISPLAY
290
    0
  9
$LENSLENGTH
 40
50
  9
$CAMERAHEIGHT
 40
0
  9
$STEPSPERSEC
 40
2
  9
$STEPSIZE
 40
50
  9
$3DDWFPREC
 40
2
  9
$PSOLWIDTH
 40
5
  9
$PSOLHEIGHT
 40
80
  9
$LOFTANG1
 40
1.570796326794897
  9
$LOFTANG2
 40
1.570796326794897
  9
$LOFTMAG1
 40
0
  9
$LOFTMAG2
 40
0
  9
$LOFTPARAM
 70
    7
  9
$LOFTNORMALS
280
    1
  9
$LATITUDE
 40
1
  9
$LONGITUDE
 40
1
  9
$NORTHDIRECTION
 40
0
  9
$TIMEZONE
 70
-8000
  9
$LIGHTGLYPHDISPLAY
280
    1
  9
$TILEMODELIGHTSYNCH
280
    1
  9
$SOLIDHIST
280
    1
  9
$SHOWHIST
280
    1
  9
$DWFFRAME
280
    2
  9
$DGNFRAME
280
    0
  9
$REALWORLDSCALE
290
    1
  9
$INTERFERECOLOR
 62
    1
  9
$CSHADOW
280
    0
  9
$SHADOWPLANELOCATION
 40
0
  0
ENDSEC
  0
SECTION
  2
CLASSES
  0
ENDSEC
  0
SECTION
  2
TABLES
  0
TABLE
  2
VPORT
  5
8
330
0
100
AcDbSymbolTable
 70
    1
  0
VPORT
  5
31
330
2
100
AcDbSymbolTableRecord
100
AcDbViewportTableRecord
  2
*ACTIVE
 70
    0
 10
0
 20
0
 11
1
 21
1
 12
137.6562500000038
 22
49.21875000000136
 13
0
 23
0
 14
10
 24
10
 15
10
 25
10
 16
0
 26
0
 36
1
 17
0
 27
0
 37
0
 40
158.1250000000044
 41
1.984189723320158
 42
50
 43
0
 44
0
 50
0
 51
0
 71
    0
 72
  100
 73
    1
 74
    3
 75
    0
 76
    1
 77
    0
 78
    0
281
    0
 65
    1
110
0
120
0
130
0
111
1
121
0
131
0
112
0
122
1
132
0
 79
    0
146
0
348
10020
 60
    7
 61
    5
292
1
282
    1
141
0
142
0
 63
  250
421
3358443
  0
ENDTAB
  0
TABLE
  2
LTYPE
  5
5
330
0
100
AcDbSymbolTable
 70
    4
  0
LTYPE
  5
14
330
5
100
AcDbSymbolTableRecord
100
AcDbLinetypeTableRecord
  2
ByBlock
 70
    0
  3

 72
   65
 73
    0
 40
0
  0
LTYPE
  5
15
330
5
100
AcDbSymbolTableRecord
100
AcDbLinetypeTableRecord
  2
ByLayer
 70
    0
  3

 72
   65
 73
    0
 40
0
  0
LTYPE
  5
16
330
5
100
AcDbSymbolTableRecord
100
AcDbLinetypeTableRecord
  2
Continuous
 70
    0
  3
Solid line
 72
   65
 73
    0
 40
0
  0
LTYPE
  5
32
330
5
100
AcDbSymbolTableRecord
100
AcDbLinetypeTableRecord
  2
DOT
 70
    0
  3
Dot . . . . . . . . . . . . . . . . . . . . . .
 72
   65
 73
    2
 40
6.35
 49
0
 74
    0
 49
-6.35
 74
    0
  0
LTYPE
  5
33
330
5
100
AcDbSymbolTableRecord
100
AcDbLinetypeTableRecord
  2
DOTTINY
 70
    0
  3
Dot (.15x) .....................................
 72
   65
 73
    2
 40
0.9525
 49
0
 74
    0
 49
-0.9525
 74
    0
  0
LTYPE
  5
34
330
5
100
AcDbSymbolTableRecord
100
AcDbLinetypeTableRecord
  2
DOT2
 70
    0
  3
Dot (.5x) .....................................
 72
   65
 73
    2
 40
3.175
 49
0
 74
    0
 49
-3.175
 74
    0
  0
LTYPE
  5
35
330
5
100
AcDbSymbolTableRecord
100
AcDbLinetypeTableRecord
  2
DOTX2
 70
    0
  3
Dot (2x) .  .  .  .  .  .  .  .  .  .  .  .  .
 72
   65
 73
    2
 40
12.7
 49
0
 74
    0
 49
-12.7
 74
    0
  0
LTYPE
  5
36
330
5
100
AcDbSymbolTableRecord
100
AcDbLinetypeTableRecord
  2
DASHED
 70
    0
  3
Dashed _ _ _ _ _ _ _ _ _ _ _ _ _ _ _ _ _
 72
   65
 73
    2
 40
19.05
 49
12.7
 74
    0
 49
-6.35
 74
    0
  0
LTYPE
  5
37
330
5
100
AcDbSymbolTableRecord
100
AcDbLinetypeTableRecord
  2
DASHEDTINY
 70
    0
  3
Dashed (.15x) _ _ _ _ _ _ _ _ _ _ _ _ _ _ _ _ _
 72
   65
 73
    2
 40
2.8575
 49
1.905
 74
    0
 49
-0.9525
 74
    0
  0
LTYPE
  5
38
330
5
100
AcDbSymbolTableRecord
100
AcDbLinetypeTableRecord
  2
DASHED2
 70
    0
  3
Dashed (.5x) _ _ _ _ _ _ _ _ _ _ _ _ _ _ _ _ _
 72
   65
 73
    2
 40
9.524999999999999
 49
6.35
 74
    0
 49
-3.175
 74
    0
  0
LTYPE
  5
39
330
5
100
AcDbSymbolTableRecord
100
AcDbLinetypeTableRecord
  2
DASHEDX2
 70
    0
  3
Dashed (2x) ____  ____  ____  ____  ____  ___
 72
   65
 73
    2
 40
38.09999999999999
 49
25.4
 74
    0
 49
-12.7
 74
    0
  0
LTYPE
  5
3A
330
5
100
AcDbSymbolTableRecord
100
AcDbLinetypeTableRecord
  2
DASHDOT
 70
    0
  3
Dash dot __ . __ . __ . __ . __ . __ . __ . __
 72
   65
 73
    4
 40
25.4
 49
12.7
 74
    0
 49
-6.35
 74
    0
 49
0
 74
    0
 49
-6.35
 74
    0
  0
LTYPE
  5
3B
330
5
100
AcDbSymbolTableRecord
100
AcDbLinetypeTableRecord
  2
DASHDOTTINY
 70
    0
  3
Dash dot (.15x) _._._._._._._._._._._._._._._.
 72
   65
 73
    4
 40
3.81
 49
1.905
 74
    0
 49
-0.9525
 74
    0
 49
0
 74
    0
 49
-0.9525
 74
    0
  0
LTYPE
  5
3C
330
5
100
AcDbSymbolTableRecord
100
AcDbLinetypeTableRecord
  2
DASHDOT2
 70
    0
  3
Dash dot (.5x) _._._._._._._._._._._._._._._.
 72
   65
 73
    4
 40
12.7
 49
6.35
 74
    0
 49
-3.175
 74
    0
 49
0
 74
    0
 49
-3.175
 74
    0
  0
LTYPE
  5
3D
330
5
100
AcDbSymbolTableRecord
100
AcDbLinetypeTableRecord
  2
DASHDOTX2
 70
    0
  3
Dash dot (2x) ____  .  ____  .  ____  .  ___
 72
   65
 73
    4
 40
50.8
 49
25.4
 74
    0
 49
-12.7
 74
    0
 49
0
 74
    0
 49
-12.7
 74
    0
  0
LTYPE
  5
3E
330
5
100
AcDbSymbolTableRecord
100
AcDbLinetypeTableRecord
  2
DIVIDE
 70
    0
  3
Divide ____ . . ____ . . ____ . . ____ . . ____
 72
   65
 73
    6
 40
31.75
 49
12.7
 74
    0
 49
-6.35
 74
    0
 49
0
 74
    0
 49
-6.35
 74
    0
 49
0
 74
    0
 49
-6.35
 74
    0
  0
LTYPE
  5
3F
330
5
100
AcDbSymbolTableRecord
100
AcDbLinetypeTableRecord
  2
DIVIDETINY
 70
    0
  3
Divide (.15x) __..__..__..__..__..__..__..__.._
 72
   65
 73
    6
 40
4.7625
 49
1.905
 74
    0
 49
-0.9525
 74
    0
 49
0
 74
    0
 49
-0.9525
 74
    0
 49
0
 74
    0
 49
-0.9525
 74
    0
  0
LTYPE
  5
40
330
5
100
AcDbSymbolTableRecord
100
AcDbLinetypeTableRecord
  2
DIVIDE2
 70
    0
  3
Divide (.5x) __..__..__..__..__..__..__..__.._
 72
   65
 73
    6
 40
15.875
 49
6.35
 74
    0
 49
-3.175
 74
    0
 49
0
 74
    0
 49
-3.175
 74
    0
 49
0
 74
    0
 49
-3.175
 74
    0
  0
LTYPE
  5
41
330
5
100
AcDbSymbolTableRecord
100
AcDbLinetypeTableRecord
  2
DIVIDEX2
 70
    0
  3
Divide (2x) ________  .  .  ________  .  .  _
 72
   65
 73
    6
 40
63.5
 49
25.4
 74
    0
 49
-12.7
 74
    0
 49
0
 74
    0
 49
-12.7
 74
    0
 49
0
 74
    0
 49
-12.7
 74
    0
  0
LTYPE
  5
42
330
5
100
AcDbSymbolTableRecord
100
AcDbLinetypeTableRecord
  2
BORDER
 70
    0
  3
Border __ __ . __ __ . __ __ . __ __ . __ __ .
 72
   65
 73
    6
 40
44.45
 49
12.7
 74
    0
 49
-6.35
 74
    0
 49
12.7
 74
    0
 49
-6.35
 74
    0
 49
0
 74
    0
 49
-6.35
 74
    0
  0
LTYPE
  5
43
330
5
100
AcDbSymbolTableRecord
100
AcDbLinetypeTableRecord
  2
BORDERTINY
 70
    0
  3
Border (.15x) __.__.__.__.__.__.__.__.__.__.__.
 72
   65
 73
    6
 40
6.6675
 49
1.905
 74
    0
 49
-0.9525
 74
    0
 49
1.905
 74
    0
 49
-0.9525
 74
    0
 49
0
 74
    0
 49
-0.9525
 74
    0
  0
LTYPE
  5
44
330
5
100
AcDbSymbolTableRecord
100
AcDbLinetypeTableRecord
  2
BORDER2
 70
    0
  3
Border (.5x) __.__.__.__.__.__.__.__.__.__.__.
 72
   65
 73
    6
 40
22.225
 49
6.35
 74
    0
 49
-3.175
 74
    0
 49
6.35
 74
    0
 49
-3.175
 74
    0
 49
0
 74
    0
 49
-3.175
 74
    0
  0
LTYPE
  5
45
330
5
100
AcDbSymbolTableRecord
100
AcDbLinetypeTableRecord
  2
BORDERX2
 70
    0
  3
Border (2x) ____  ____  .  ____  ____  .  ___
 72
   65
 73
    6
 40
88.89999999999999
 49
25.4
 74
    0
 49
-12.7
 74
    0
 49
25.4
 74
    0
 49
-12.7
 74
    0
 49
0
 74
    0
 49
-12.7
 74
    0
  0
LTYPE
  5
46
330
5
100
AcDbSymbolTableRecord
100
AcDbLinetypeTableRecord
  2
CENTER
 70
    0
  3
Center ____ _ ____ _ ____ _ ____ _ ____ _ ____
 72
   65
 73
    4
 40
50.8
 49
31.75
 74
    0
 49
-6.35
 74
    0
 49
6.35
 74
    0
 49
-6.35
 74
    0
  0
LTYPE
  5
47
330
5
100
AcDbSymbolTableRecord
100
AcDbLinetypeTableRecord
  2
CENTERTINY
 70
    0
  3
Center (.15x) ___ _ ___ _ ___ _ ___ _ ___ _ ___
 72
   65
 73
    4
 40
7.619999999999999
 49
4.7625
 74
    0
 49
-0.9525
 74
    0
 49
0.9525
 74
    0
 49
-0.9525
 74
    0
  0
LTYPE
  5
48
330
5
100
AcDbSymbolTableRecord
100
AcDbLinetypeTableRecord
  2
CENTER2
 70
    0
  3
Center (.5x) ___ _ ___ _ ___ _ ___ _ ___ _ ___
 72
   65
 73
    4
 40
28.575
 49
19.05
 74
    0
 49
-3.175
 74
    0
 49
3.175
 74
    0
 49
-3.175
 74
    0
  0
LTYPE
  5
49
330
5
100
AcDbSymbolTableRecord
100
AcDbLinetypeTableRecord
  2
CENTERX2
 70
    0
  3
Center (2x) ________  __  ________  __  _____
 72
   65
 73
    4
 40
101.6
 49
63.5
 74
    0
 49
-12.7
 74
    0
 49
12.7
 74
    0
 49
-12.7
 74
    0
  0
ENDTAB
  0
TABLE
  2
LAYER
  5
2
330
0
100
AcDbSymbolTable
 70
    1
  0
LAYER
  5
10
330
2
100
AcDbSymbolTableRecord
100
AcDbLayerTableRecord
  2
0
 70
    0
 62
    7
  6
CONTINUOUS
370
   -3
390
F
  0
ENDTAB
  0
TABLE
  2
STYLE
  5
3
330
0
100
AcDbSymbolTable
 70
    3
  0
STYLE
  5
4A
330
2
100
AcDbSymbolTableRecord
100
AcDbTextStyleTableRecord
  2
Standard
 70
    0
 40
0
 41
1
 50
0
 71
    0
 42
1
  3
txt
  4

  0
ENDTAB
  0
TABLE
  2
VIEW
  5
6
330
0
100
AcDbSymbolTable
 70
    0
  0
ENDTAB
  0
TABLE
  2
UCS
  5
7
330
0
100
AcDbSymbolTable
 70
    0
  0
ENDTAB
  0
TABLE
  2
APPID
  5
9
330
0
100
AcDbSymbolTable
 70
    1
  0
APPID
  5
12
330
9
100
AcDbSymbolTableRecord
100
AcDbRegAppTableRecord
  2
ACAD
 70
    0
  0
APPID
  5
4B
330
9
100
AcDbSymbolTableRecord
100
AcDbRegAppTableRecord
  2
LibreCad
 70
    0
  0
ENDTAB
  0
TABLE
  2
DIMSTYLE
  5
A
330
0
100
AcDbSymbolTable
 70
    1
100
AcDbDimStyleTable
 71
    1
  0
DIMSTYLE
105
4C
330
A
100
AcDbSymbolTableRecord
100
AcDbDimStyleTableRecord
  2
Standard
 70
    0
 40
1
 41
2.5
 42
0.625
 43
0.38
 44
1.25
 45
0
 46
0
 47
0
 48
0
 49
1
140
2.5
141
0.09
142
0
143
25.4
144
1
145
0
146
1
147
0.625
148
0
 71
    0
 72
    0
 73
    0
 74
    1
 75
    0
 76
    0
 77
    0
 78
    1
 79
    0
170
    0
171
    2
172
    0
173
    0
174
    0
175
    0
176
    0
177
    0
178
    0
179
    0
271
    2
272
    4
273
    2
274
    2
275
    0
276
    0
277
    2
278
    0
279
    0
280
    0
281
    0
282
    0
283
    1
284
    0
285
    0
286
    0
288
    0
289
    3
340
standard
341

371
   -2
372
   -2
  0
ENDTAB
  0
TABLE
  2
BLOCK_RECORD
  5
1
330
0
100
AcDbSymbolTable
 70
    2
  0
BLOCK_RECORD
  5
1F
330
1
100
AcDbSymbolTableRecord
100
AcDbBlockTableRecord
  2
*Model_Space
 70
    0
280
    1
281
    0
  0
BLOCK_RECORD
  5
1E
330
1
100
AcDbSymbolTableRecord
100
AcDbBlockTableRecord
  2
*Paper_Space
 70
    0
280
    1
281
    0
  0
ENDTAB
  0
ENDSEC
  0
SECTION
  2
BLOCKS
  0
BLOCK
  5
20
330
1F
100
AcDbEntity
  8
0
100
AcDbBlockBegin
  2
*Model_Space
 70
    0
 10
0
 20
0
 30
0
  3
*Model_Space
  1

  0
ENDBLK
  5
21
330
1F
100
AcDbEntity
  8
0
100
AcDbBlockEnd
  0
BLOCK
  5
1C
330
1B
100
AcDbEntity
  8
0
100
AcDbBlockBegin
  2
*Paper_Space
 70
    0
 10
0
 20
0
 30
0
  3
*Paper_Space
  1

  0
ENDBLK
  5
1D
330
1F
100
AcDbEntity
  8
0
100
AcDbBlockEnd
  0
ENDSEC
  0
SECTION
  2
ENTITIES
  0
LWPOLYLINE
  5
4D
100
AcDbEntity
  8
0
  6
ByLayer
 62
    0
370
   -1
100
AcDbPolyline
 90
    2
 70
    0
 43
0
 10
164.1005751
 20
107.2080933
 10
164.1005751
 20
87.1992429
  0
LWPOLYLINE
  5
4E
100
AcDbEntity
  8
0
  6
ByLayer
 62
    0
370
   -1
100
AcDbPolyline
 90
    2
 70
    0
 43
0
 10
164.1005751
 20
87.1992429
 10
169.1020254
 20
87.1992429
  0
LWPOLYLINE
  5
4F
100
AcDbEntity
  8
0
  6
ByLayer
 62
    0
370
   -1
100
AcDbPolyline
 90
    2
 70
    0
 43
0
 10
169.1020254
 20
87.1992429
 10
169.1020254
 20
84.8488179
  0
LWPOLYLINE
  5
50
100
AcDbEntity
  8
0
  6
ByLayer
 62
    0
370
   -1
100
AcDbPolyline
 90
    2
 70
    0
 43
0
 10
169.1020254
 20
84.8488179
 10
174.1037298
 20
84.8488179
  0
LWPOLYLINE
  5
51
100
AcDbEntity
  8
0
  6
ByLayer
 62
    0
370
   -1
100
AcDbPolyline
 90
    2
 70
    0
 43
0
 10
174.1037298
 20
84.8488179
 10
174.1037298
 20
87.1992429
  0
LWPOLYLINE
  5
52
100
AcDbEntity
  8
0
  6
ByLayer
 62
    0
370
   -1
100
AcDbPolyline
 90
    2
 70
    0
 43
0
 10
174.1037298
 20
87.1992429
 10
179.1067047
 20
87.1992429
  0
LWPOLYLINE
  5
53
100
AcDbEntity
  8
0
  6
ByLayer
 62
    0
370
   -1
100
AcDbPolyline
 90
    2
 70
    0
 43
0
 10
179.1067047
 20
87.1992429
 10
179.1067047
 20
107.2080933
  0
LWPOLYLINE
  5
54
100
AcDbEntity
  8
0
  6
ByLayer
 62
    0
370
   -1
100
AcDbPolyline
 90
    2
 70
    0
 43
0
 10
174.1037298
 20
107.2080933
 10
179.1067047
 20
107.2080933
  0
LWPOLYLINE
  5
55
100
AcDbEntity
  8
0
  6
ByLayer
 62
    0
370
   -1
100
AcDbPolyline
 90
    2
 70
    0
 43
0
 10
174.1037298
 20
107.2080933
 10
174.1037298
 20
109.5587724
  0
LWPOLYLINE
  5
56
100
AcDbEntity
  8
0
  6
ByLayer
 62
    0
370
   -1
100
AcDbPolyline
 90
    2
 70
    0
 43
0
 10
174.1037298
 20
109.5587724
 10
169.1020254
 20
109.5587724
  0
LWPOLYLINE
  5
57
100
AcDbEntity
  8
0
  6
ByLayer
 62
    0
370
   -1
100
AcDbPolyline
 90
    2
 70
    0
 43
0
 10
169.1020254
 20
109.5587724
 10
169.1020254
 20
107.2080933
  0
LWPOLYLINE
  5
58
100
AcDbEntity
  8
0
  6
ByLayer
 62
    0
370
   -1
100
AcDbPolyline
 90
    2
 70
    0
 43
0
 10
164.1005751
 20
107.2080933
 10
169.1020254
 20
107.2080933
  0
LWPOLYLINE
  5
59
100
AcDbEntity
  8
0
  6
ByLayer
 62
    0
370
   -1
100
AcDbPolyline
 90
   17
 70
    1
 43
0
 10
168.2017491
 20
102.7056954
 10
168.0835926
 20
103.29165
 10
167.7621561
 20
103.7683416
 10
167.2852104
 20
104.089524
 10
166.7007804
 20
104.2066641
 10
166.1160963
 20
104.089524
 10
165.6394047
 20
103.7683416
 10
165.3182223
 20
103.29165
 10
165.2010822
 20
102.7056954
 10
165.3182223
 20
102.1225359
 10
165.6394047
 20
101.6455902
 10
166.1160963
 20
101.3241537
 10
166.7007804
 20
101.2059972
 10
167.2852104
 20
101.3241537
 10
167.7621561
 20
101.6455902
 10
168.0835926
 20
102.1225359
 10
168.2017491
 20
102.7056954
  0
LWPOLYLINE
  5
5A
100
AcDbEntity
  8
0
  6
ByLayer
 62
    0
370
   -1
100
AcDbPolyline
 90
   17
 70
    1
 43
0
 10
168.2017491
 20
91.7018949
 10
168.0835926
 20
92.2863249
 10
167.7621561
 20
92.76352469999999
 10
167.2852104
 20
93.08597759999999
 10
166.7007804
 20
93.20311769999999
 10
166.1160963
 20
93.08597759999999
 10
165.6394047
 20
92.76352469999999
 10
165.3182223
 20
92.2863249
 10
165.2010822
 20
91.7018949
 10
165.3182223
 20
91.11873539999999
 10
165.6394047
 20
90.6417897
 10
166.1160963
 20
90.32060730000001
 10
166.7007804
 20
90.2019426
 10
167.2852104
 20
90.32060730000001
 10
167.7621561
 20
90.6417897
 10
168.0835926
 20
91.11873539999999
 10
168.2017491
 20
91.7018949
  0
LWPOLYLINE
  5
5B
100
AcDbEntity
  8
0
  6
ByLayer
 62
    0
370
   -1
100
AcDbPolyline
 90
    2
 70
    0
 43
0
 10
146.7938241
 20
87.1992429
 10
151.7955285
 20
87.1992429
  0
LWPOLYLINE
  5
5C
100
AcDbEntity
  8
0
  6
ByLayer
 62
    0
370
   -1
100
AcDbPolyline
 90
    2
 70
    0
 43
0
 10
146.7938241
 20
87.1992429
 10
146.7938241
 20
107.2080933
  0
LWPOLYLINE
  5
5D
100
AcDbEntity
  8
0
  6
ByLayer
 62
    0
370
   -1
100
AcDbPolyline
 90
    2
 70
    0
 43
0
 10
146.7938241
 20
107.2080933
 10
151.7955285
 20
107.2080933
  0
LWPOLYLINE
  5
5E
100
AcDbEntity
  8
0
  6
ByLayer
 62
    0
370
   -1
100
AcDbPolyline
 90
    2
 70
    0
 43
0
 10
151.7955285
 20
107.2080933
 10
151.7955285
 20
109.5587724
  0
LWPOLYLINE
  5
5F
100
AcDbEntity
  8
0
  6
ByLayer
 62
    0
370
   -1
100
AcDbPolyline
 90
    2
 70
    0
 43
0
 10
151.7955285
 20
109.5587724
 10
156.7969788
 20
109.5587724
  0
LWPOLYLINE
  5
60
100
AcDbEntity
  8
0
  6
ByLayer
 62
    0
370
   -1
100
AcDbPolyline
 90
    2
 70
    0
 43
0
 10
156.7969788
 20
109.5587724
 10
156.7969788
 20
107.2080933
  0
LWPOLYLINE
  5
61
100
AcDbEntity
  8
0
  6
ByLayer
 62
    0
370
   -1
100
AcDbPolyline
 90
    2
 70
    0
 43
0
 10
156.7969788
 20
107.2080933
 10
161.7999537
 20
107.2080933
  0
LWPOLYLINE
  5
62
100
AcDbEntity
  8
0
  6
ByLayer
 62
    0
370
   -1
100
AcDbPolyline
 90
    2
 70
    0
 43
0
 10
161.7999537
 20
107.2080933
 10
161.7999537
 20
87.1992429
  0
LWPOLYLINE
  5
63
100
AcDbEntity
  8
0
  6
ByLayer
 62
    0
370
   -1
100
AcDbPolyline
 90
    2
 70
    0
 43
0
 10
156.7969788
 20
87.1992429
 10
161.7999537
 20
87.1992429
  0
LWPOLYLINE
  5
64
100
AcDbEntity
  8
0
  6
ByLayer
 62
    0
370
   -1
100
AcDbPolyline
 90
    2
 70
    0
 43
0
 10
156.7969788
 20
84.8488179
 10
156.7969788
 20
87.1992429
  0
LWPOLYLINE
  5
65
100
AcDbEntity
  8
0
  6
ByLayer
 62
    0
370
   -1
100
AcDbPolyline
 90
    2
 70
    0
 43
0
 10
151.7955285
 20
84.8488179
 10
156.7969788
 20
84.8488179
  0
LWPOLYLINE
  5
66
100
AcDbEntity
  8
0
  6
ByLayer
 62
    0
370
   -1
100
AcDbPolyline
 90
    2
 70
    0
 43
0
 10
151.7955285
 20
87.1992429
 10
151.7955285
 20
84.8488179
  0
LWPOLYLINE
  5
67
100
AcDbEntity
  8
0
  6
ByLayer
 62
    0
370
   -1
100
AcDbPolyline
 90
   17
 70
    1
 43
0
 10
160.2987309
 20
102.7056954
 10
160.1800662
 20
103.29165
 10
159.8588838
 20
103.7683416
 10
159.381684
 20
104.089524
 10
158.7987786
 20
104.2066641
 10
158.212824
 20
104.089524
 10
157.7358783
 20
103.7683416
 10
157.4146959
 20
103.29165
 10
157.2975558
 20
102.7056954
 10
157.4146959
 20
102.1225359
 10
157.7358783
 20
101.6455902
 10
158.212824
 20
101.3241537
 10
158.7987786
 20
101.2059972
 10
159.381684
 20
101.3241537
 10
159.8588838
 20
101.6455902
 10
160.1800662
 20
102.1225359
 10
160.2987309
 20
102.7056954
  0
LWPOLYLINE
  5
68
100
AcDbEntity
  8
0
  6
ByLayer
 62
    0
370
   -1
100
AcDbPolyline
 90
   17
 70
    1
 43
0
 10
160.2987309
 20
91.7018949
 10
160.1800662
 20
92.2863249
 10
159.8588838
 20
92.76352469999999
 10
159.381684
 20
93.08597759999999
 10
158.7987786
 20
93.20311769999999
 10
158.212824
 20
93.08597759999999
 10
157.7358783
 20
92.76352469999999
 10
157.4146959
 20
92.2863249
 10
157.2975558
 20
91.7018949
 10
157.4146959
 20
91.11873539999999
 10
157.7358783
 20
90.6417897
 10
158.212824
 20
90.32060730000001
 10
158.7987786
 20
90.2019426
 10
159.381684
 20
90.32060730000001
 10
159.8588838
 20
90.6417897
 10
160.1800662
 20
91.11873539999999
 10
160.2987309
 20
91.7018949
  0
LWPOLYLINE
  5
69
100
AcDbEntity
  8
0
  6
ByLayer
 62
    0
370
   -1
100
AcDbPolyline
 90
    2
 70
    0
 43
0
 10
129.1414971
 20
107.2080933
 10
129.1414971
 20
87.1992429
  0
LWPOLYLINE
  5
6A
100
AcDbEntity
  8
0
  6
ByLayer
 62
    0
370
   -1
100
AcDbPolyline
 90
    2
 70
    0
 43
0
 10
129.1414971
 20
87.1992429
 10
134.1429474
 20
87.1992429
  0
LWPOLYLINE
  5
6B
100
AcDbEntity
  8
0
  6
ByLayer
 62
    0
370
   -1
100
AcDbPolyline
 90
    2
 70
    0
 43
0
 10
134.1429474
 20
84.8488179
 10
134.1429474
 20
87.1992429
  0
LWPOLYLINE
  5
6C
100
AcDbEntity
  8
0
  6
ByLayer
 62
    0
370
   -1
100
AcDbPolyline
 90
    2
 70
    0
 43
0
 10
139.1443977
 20
84.8488179
 10
134.1429474
 20
84.8488179
  0
LWPOLYLINE
  5
6D
100
AcDbEntity
  8
0
  6
ByLayer
 62
    0
370
   -1
100
AcDbPolyline
 90
    2
 70
    0
 43
0
 10
139.1443977
 20
87.1992429
 10
139.1443977
 20
84.8488179
  0
LWPOLYLINE
  5
6E
100
AcDbEntity
  8
0
  6
ByLayer
 62
    0
370
   -1
100
AcDbPolyline
 90
    2
 70
    0
 43
0
 10
139.1443977
 20
87.1992429
 10
144.1471185
 20
87.1992429
  0
LWPOLYLINE
  5
6F
100
AcDbEntity
  8
0
  6
ByLayer
 62
    0
370
   -1
100
AcDbPolyline
 90
    2
 70
    0
 43
0
 10
144.1471185
 20
107.2080933
 10
144.1471185
 20
87.1992429
  0
LWPOLYLINE
  5
70
100
AcDbEntity
  8
0
  6
ByLayer
 62
    0
370
   -1
100
AcDbPolyline
 90
    2
 70
    0
 43
0
 10
139.1443977
 20
107.2080933
 10
144.1471185
 20
107.2080933
  0
LWPOLYLINE
  5
71
100
AcDbEntity
  8
0
  6
ByLayer
 62
    0
370
   -1
100
AcDbPolyline
 90
    2
 70
    0
 43
0
 10
139.1443977
 20
109.5587724
 10
139.1443977
 20
107.2080933
  0
LWPOLYLINE
  5
72
100
AcDbEntity
  8
0
  6
ByLayer
 62
    0
370
   -1
100
AcDbPolyline
 90
    2
 70
    0
 43
0
 10
134.1429474
 20
109.5587724
 10
139.1443977
 20
109.5587724
  0
LWPOLYLINE
  5
73
100
AcDbEntity
  8
0
  6
ByLayer
 62
    0
370
   -1
100
AcDbPolyline
 90
    2
 70
    0
 43
0
 10
134.1429474
 20
107.2080933
 10
134.1429474
 20
109.5587724
  0
LWPOLYLINE
  5
74
100
AcDbEntity
  8
0
  6
ByLayer
 62
    0
370
   -1
100
AcDbPolyline
 90
    2
 70
    0
 43
0
 10
129.1414971
 20
107.2080933
 10
134.1429474
 20
107.2080933
  0
LWPOLYLINE
  5
75
100
AcDbEntity
  8
0
  6
ByLayer
 62
    0
370
   -1
100
AcDbPolyline
 90
   17
 70
    1
 43
0
 10
133.5420009
 20
91.7018949
 10
133.4233362
 20
92.2863249
 10
133.1018997
 20
92.76352469999999
 10
132.624954
 20
93.08597759999999
 10
132.0420486
 20
93.20311769999999
 10
131.4571104
 20
93.08597759999999
 10
130.9804188
 20
92.76352469999999
 10
130.6579659
 20
92.2863249
 10
130.5405717
 20
91.7018949
 10
130.6579659
 20
91.11873539999999
 10
130.9804188
 20
90.6417897
 10
131.4571104
 20
90.32060730000001
 10
132.0420486
 20
90.2019426
 10
132.624954
 20
90.32060730000001
 10
133.1018997
 20
90.6417897
 10
133.4233362
 20
91.11873539999999
 10
133.5420009
 20
91.7018949
  0
LWPOLYLINE
  5
76
100
AcDbEntity
  8
0
  6
ByLayer
 62
    0
370
   -1
100
AcDbPolyline
 90
   17
 70
    1
 43
0
 10
133.5420009
 20
102.7056954
 10
133.4233362
 20
103.29165
 10
133.1018997
 20
103.7683416
 10
132.624954
 20
104.089524
 10
132.0420486
 20
104.2066641
 10
131.4571104
 20
104.089524
 10
130.9804188
 20
103.7683416
 10
130.6579659
 20
103.29165
 10
130.5405717
 20
102.7056954
 10
130.6579659
 20
102.1225359
 10
130.9804188
 20
101.6455902
 10
131.4571104
 20
101.3241537
 10
132.0420486
 20
101.2059972
 10
132.624954
 20
101.3241537
 10
133.1018997
 20
101.6455902
 10
133.4233362
 20
102.1225359
 10
133.5420009
 20
102.7056954
  0
LWPOLYLINE
  5
77
100
AcDbEntity
  8
0
  6
ByLayer
 62
    0
370
   -1
100
AcDbPolyline
 90
    2
 70
    0
 43
0
 10
111.8332215
 20
87.1992429
 10
111.8332215
 20
107.2080933
  0
LWPOLYLINE
  5
78
100
AcDbEntity
  8
0
  6
ByLayer
 62
    0
370
   -1
100
AcDbPolyline
 90
    2
 70
    0
 43
0
 10
111.8332215
 20
107.2080933
 10
116.8361964
 20
107.2080933
  0
LWPOLYLINE
  5
79
100
AcDbEntity
  8
0
  6
ByLayer
 62
    0
370
   -1
100
AcDbPolyline
 90
    2
 70
    0
 43
0
 10
116.8361964
 20
107.2080933
 10
116.8361964
 20
109.5587724
  0
LWPOLYLINE
  5
7A
100
AcDbEntity
  8
0
  6
ByLayer
 62
    0
370
   -1
100
AcDbPolyline
 90
    2
 70
    0
 43
0
 10
116.8361964
 20
109.5587724
 10
121.8373926
 20
109.5587724
  0
LWPOLYLINE
  5
7B
100
AcDbEntity
  8
0
  6
ByLayer
 62
    0
370
   -1
100
AcDbPolyline
 90
    2
 70
    0
 43
0
 10
121.8373926
 20
109.5587724
 10
121.8373926
 20
107.2080933
  0
LWPOLYLINE
  5
7C
100
AcDbEntity
  8
0
  6
ByLayer
 62
    0
370
   -1
100
AcDbPolyline
 90
    2
 70
    0
 43
0
 10
121.8373926
 20
107.2080933
 10
126.8403675
 20
107.2080933
  0
LWPOLYLINE
  5
7D
100
AcDbEntity
  8
0
  6
ByLayer
 62
    0
370
   -1
100
AcDbPolyline
 90
    2
 70
    0
 43
0
 10
126.8403675
 20
107.2080933
 10
126.8403675
 20
87.1992429
  0
LWPOLYLINE
  5
7E
100
AcDbEntity
  8
0
  6
ByLayer
 62
    0
370
   -1
100
AcDbPolyline
 90
    2
 70
    0
 43
0
 10
121.8373926
 20
87.1992429
 10
126.8403675
 20
87.1992429
  0
LWPOLYLINE
  5
7F
100
AcDbEntity
  8
0
  6
ByLayer
 62
    0
370
   -1
100
AcDbPolyline
 90
    2
 70
    0
 43
0
 10
121.8373926
 20
87.1992429
 10
121.8373926
 20
84.8488179
  0
LWPOLYLINE
  5
80
100
AcDbEntity
  8
0
  6
ByLayer
 62
    0
370
   -1
100
AcDbPolyline
 90
    2
 70
    0
 43
0
 10
121.8373926
 20
84.8488179
 10
116.8361964
 20
84.8488179
  0
LWPOLYLINE
  5
81
100
AcDbEntity
  8
0
  6
ByLayer
 62
    0
370
   -1
100
AcDbPolyline
 90
    2
 70
    0
 43
0
 10
116.8361964
 20
84.8488179
 10
116.8361964
 20
87.1992429
  0
LWPOLYLINE
  5
82
100
AcDbEntity
  8
0
  6
ByLayer
 62
    0
370
   -1
100
AcDbPolyline
 90
    2
 70
    0
 43
0
 10
111.8332215
 20
87.1992429
 10
116.8361964
 20
87.1992429
  0
LWPOLYLINE
  5
83
100
AcDbEntity
  8
0
  6
ByLayer
 62
    0
370
   -1
100
AcDbPolyline
 90
   17
 70
    1
 43
0
 10
125.639745
 20
91.7018949
 10
125.5210803
 20
92.2863249
 10
125.1986274
 20
92.76352469999999
 10
124.7214276
 20
93.08597759999999
 10
124.1385222
 20
93.20311769999999
 10
123.5540922
 20
93.08597759999999
 10
123.0768924
 20
92.76352469999999
 10
122.75571
 20
92.2863249
 10
122.6385699
 20
91.7018949
 10
122.75571
 20
91.11873539999999
 10
123.0768924
 20
90.6417897
 10
123.5540922
 20
90.32060730000001
 10
124.1385222
 20
90.2019426
 10
124.7214276
 20
90.32060730000001
 10
125.1986274
 20
90.6417897
 10
125.5210803
 20
91.11873539999999
 10
125.639745
 20
91.7018949
  0
LWPOLYLINE
  5
84
100
AcDbEntity
  8
0
  6
ByLayer
 62
    0
370
   -1
100
AcDbPolyline
 90
   17
 70
    1
 43
0
 10
125.639745
 20
102.7056954
 10
125.5210803
 20
103.29165
 10
125.1986274
 20
103.7683416
 10
124.7214276
 20
104.089524
 10
124.1385222
 20
104.2066641
 10
123.5540922
 20
104.089524
 10
123.0768924
 20
103.7683416
 10
122.75571
 20
103.29165
 10
122.6385699
 20
102.7056954
 10
122.75571
 20
102.1225359
 10
123.0768924
 20
101.6455902
 10
123.5540922
 20
101.3241537
 10
124.1385222
 20
101.2059972
 10
124.7214276
 20
101.3241537
 10
125.1986274
 20
101.6455902
 10
125.5210803
 20
102.1225359
 10
125.639745
 20
102.7056954
  0
LWPOLYLINE
  5
85
100
AcDbEntity
  8
0
  6
ByLayer
 62
    0
370
   -1
100
AcDbPolyline
 90
    2
 70
    0
 43
0
 10
123.6503961
 20
249.2682885
 10
123.6503961
 20
201.2492328
  0
LWPOLYLINE
  5
86
100
AcDbEntity
  8
0
  6
ByLayer
 62
    0
370
   -1
100
AcDbPolyline
 90
    2
 70
    0
 43
0
 10
123.6503961
 20
201.2492328
 10
126.6515712
 20
198.2480577
  0
LWPOLYLINE
  5
87
100
AcDbEntity
  8
0
  6
ByLayer
 62
    0
370
   -1
100
AcDbPolyline
 90
    2
 70
    0
 43
0
 10
126.6515712
 20
198.2480577
 10
203.5323213
 20
198.2480577
  0
LWPOLYLINE
  5
88
100
AcDbEntity
  8
0
  6
ByLayer
 62
    0
370
   -1
100
AcDbPolyline
 90
    2
 70
    0
 43
0
 10
203.5323213
 20
198.2480577
 10
206.5334964
 20
201.2492328
  0
LWPOLYLINE
  5
89
100
AcDbEntity
  8
0
  6
ByLayer
 62
    0
370
   -1
100
AcDbPolyline
 90
    2
 70
    0
 43
0
 10
206.5334964
 20
201.2492328
 10
206.5334964
 20
215.2544625
  0
LWPOLYLINE
  5
8A
100
AcDbEntity
  8
0
  6
ByLayer
 62
    0
370
   -1
100
AcDbPolyline
 90
    2
 70
    0
 43
0
 10
206.5334964
 20
215.2544625
 10
204.1830714
 20
215.2544625
  0
LWPOLYLINE
  5
8B
100
AcDbEntity
  8
0
  6
ByLayer
 62
    0
370
   -1
100
AcDbPolyline
 90
    2
 70
    0
 43
0
 10
204.1830714
 20
215.2544625
 10
204.1830714
 20
235.2630588
  0
LWPOLYLINE
  5
8C
100
AcDbEntity
  8
0
  6
ByLayer
 62
    0
370
   -1
100
AcDbPolyline
 90
    2
 70
    0
 43
0
 10
204.1830714
 20
235.2630588
 10
206.5334964
 20
235.2630588
  0
LWPOLYLINE
  5
8D
100
AcDbEntity
  8
0
  6
ByLayer
 62
    0
370
   -1
100
AcDbPolyline
 90
    2
 70
    0
 43
0
 10
206.5334964
 20
235.2630588
 10
206.5334964
 20
249.2682885
  0
LWPOLYLINE
  5
8E
100
AcDbEntity
  8
0
  6
ByLayer
 62
    0
370
   -1
100
AcDbPolyline
 90
    2
 70
    0
 43
0
 10
206.5334964
 20
249.2682885
 10
203.5323213
 20
252.2694636
  0
LWPOLYLINE
  5
8F
100
AcDbEntity
  8
0
  6
ByLayer
 62
    0
370
   -1
100
AcDbPolyline
 90
    2
 70
    0
 43
0
 10
203.5323213
 20
252.2694636
 10
126.6515712
 20
252.2694636
  0
LWPOLYLINE
  5
90
100
AcDbEntity
  8
0
  6
ByLayer
 62
    0
370
   -1
100
AcDbPolyline
 90
    2
 70
    0
 43
0
 10
126.6515712
 20
252.2694636
 10
123.6503961
 20
249.2682885
  0
LWPOLYLINE
  5
91
100
AcDbEntity
  8
0
  6
ByLayer
 62
    0
370
   -1
100
AcDbPolyline
 90
    2
 70
    0
 43
0
 10
171.0199722
 20
215.2544625
 10
186.0255936
 20
215.2544625
  0
LWPOLYLINE
  5
92
100
AcDbEntity
  8
0
  6
ByLayer
 62
    0
370
   -1
100
AcDbPolyline
 90
    2
 70
    0
 43
0
 10
186.0255936
 20
215.2544625
 10
186.0255936
 20
212.9040375
  0
LWPOLYLINE
  5
93
100
AcDbEntity
  8
0
  6
ByLayer
 62
    0
370
   -1
100
AcDbPolyline
 90
    2
 70
    0
 43
0
 10
186.0255936
 20
212.9040375
 10
171.0199722
 20
212.9040375
  0
LWPOLYLINE
  5
94
100
AcDbEntity
  8
0
  6
ByLayer
 62
    0
370
   -1
100
AcDbPolyline
 90
    2
 70
    0
 43
0
 10
171.0199722
 20
212.9040375
 10
171.0199722
 20
215.2544625
  0
LWPOLYLINE
  5
95
100
AcDbEntity
  8
0
  6
ByLayer
 62
    0
370
   -1
100
AcDbPolyline
 90
    2
 70
    0
 43
0
 10
141.0082212
 20
215.2544625
 10
156.0138426
 20
215.2544625
  0
LWPOLYLINE
  5
96
100
AcDbEntity
  8
0
  6
ByLayer
 62
    0
370
   -1
100
AcDbPolyline
 90
    2
 70
    0
 43
0
 10
156.0138426
 20
215.2544625
 10
156.0138426
 20
212.9040375
  0
LWPOLYLINE
  5
97
100
AcDbEntity
  8
0
  6
ByLayer
 62
    0
370
   -1
100
AcDbPolyline
 90
    2
 70
    0
 43
0
 10
156.0138426
 20
212.9040375
 10
141.0082212
 20
212.9040375
  0
LWPOLYLINE
  5
98
100
AcDbEntity
  8
0
  6
ByLayer
 62
    0
370
   -1
100
AcDbPolyline
 90
    2
 70
    0
 43
0
 10
141.0082212
 20
212.9040375
 10
141.0082212
 20
215.2544625
  0
LWPOLYLINE
  5
99
100
AcDbEntity
  8
0
  6
ByLayer
 62
    0
370
   -1
100
AcDbPolyline
 90
    2
 70
    0
 43
0
 10
171.0199722
 20
237.6134838
 10
186.0255936
 20
237.6134838
  0
LWPOLYLINE
  5
9A
100
AcDbEntity
  8
0
  6
ByLayer
 62
    0
370
   -1
100
AcDbPolyline
 90
    2
 70
    0
 43
0
 10
186.0255936
 20
237.6134838
 10
186.0255936
 20
235.2630588
  0
LWPOLYLINE
  5
9B
100
AcDbEntity
  8
0
  6
ByLayer
 62
    0
370
   -1
100
AcDbPolyline
 90
    2
 70
    0
 43
0
 10
186.0255936
 20
235.2630588
 10
171.0199722
 20
235.2630588
  0
LWPOLYLINE
  5
9C
100
AcDbEntity
  8
0
  6
ByLayer
 62
    0
370
   -1
100
AcDbPolyline
 90
    2
 70
    0
 43
0
 10
171.0199722
 20
235.2630588
 10
171.0199722
 20
237.6134838
  0
LWPOLYLINE
  5
9D
100
AcDbEntity
  8
0
  6
ByLayer
 62
    0
370
   -1
100
AcDbPolyline
 90
    2
 70
    0
 43
0
 10
141.0082212
 20
237.6134838
 10
156.0138426
 20
237.6134838
  0
LWPOLYLINE
  5
9E
100
AcDbEntity
  8
0
  6
ByLayer
 62
    0
370
   -1
100
AcDbPolyline
 90
    2
 70
    0
 43
0
 10
156.0138426
 20
237.6134838
 10
156.0138426
 20
235.2630588
  0
LWPOLYLINE
  5
9F
100
AcDbEntity
  8
0
  6
ByLayer
 62
    0
370
   -1
100
AcDbPolyline
 90
    2
 70
    0
 43
0
 10
156.0138426
 20
235.2630588
 10
141.0082212
 20
235.2630588
  0
LWPOLYLINE
  5
A0
100
AcDbEntity
  8
0
  6
ByLayer
 62
    0
370
   -1
100
AcDbPolyline
 90
    2
 70
    0
 43
0
 10
141.0082212
 20
235.2630588
 10
141.0082212
 20
237.6134838
  0
LWPOLYLINE
  5
A1
100
AcDbEntity
  8
0
  6
ByLayer
 62
    0
370
   -1
100
AcDbPolyline
 90
    2
 70
    0
 43
0
 10
178.3471998
 20
19.64063409
 10
178.3471998
 20
44.3503599
  0
LWPOLYLINE
  5
A2
100
AcDbEntity
  8
0
  6
ByLayer
 62
    0
370
   -1
100
AcDbPolyline
 90
    2
 70
    0
 43
0
 10
178.3471998
 20
44.3503599
 10
161.7407484
 20
44.3503599
  0
LWPOLYLINE
  5
A3
100
AcDbEntity
  8
0
  6
ByLayer
 62
    0
370
   -1
100
AcDbPolyline
 90
    2
 70
    0
 43
0
 10
161.7407484
 20
44.3503599
 10
161.7407484
 20
41.9984103
  0
LWPOLYLINE
  5
A4
100
AcDbEntity
  8
0
  6
ByLayer
 62
    0
370
   -1
100
AcDbPolyline
 90
    2
 70
    0
 43
0
 10
161.7407484
 20
41.9984103
 10
146.7346188
 20
41.9984103
  0
LWPOLYLINE
  5
A5
100
AcDbEntity
  8
0
  6
ByLayer
 62
    0
370
   -1
100
AcDbPolyline
 90
    2
 70
    0
 43
0
 10
146.7346188
 20
41.9984103
 10
146.7346188
 20
44.3503599
  0
LWPOLYLINE
  5
A6
100
AcDbEntity
  8
0
  6
ByLayer
 62
    0
370
   -1
100
AcDbPolyline
 90
    2
 70
    0
 43
0
 10
146.7346188
 20
44.3503599
 10
131.7289974
 20
44.3503599
  0
LWPOLYLINE
  5
A7
100
AcDbEntity
  8
0
  6
ByLayer
 62
    0
370
   -1
100
AcDbPolyline
 90
    2
 70
    0
 43
0
 10
131.7289974
 20
44.3503599
 10
131.7289974
 20
41.9984103
  0
LWPOLYLINE
  5
A8
100
AcDbEntity
  8
0
  6
ByLayer
 62
    0
370
   -1
100
AcDbPolyline
 90
    2
 70
    0
 43
0
 10
131.7289974
 20
41.9984103
 10
116.7228678
 20
41.9984103
  0
LWPOLYLINE
  5
A9
100
AcDbEntity
  8
0
  6
ByLayer
 62
    0
370
   -1
100
AcDbPolyline
 90
    2
 70
    0
 43
0
 10
116.7228678
 20
41.9984103
 10
116.7228678
 20
21.99110991
  0
LWPOLYLINE
  5
AA
100
AcDbEntity
  8
0
  6
ByLayer
 62
    0
370
   -1
100
AcDbPolyline
 90
    2
 70
    0
 43
0
 10
116.7228678
 20
21.99110991
 10
131.7289974
 20
21.99110991
  0
LWPOLYLINE
  5
AB
100
AcDbEntity
  8
0
  6
ByLayer
 62
    0
370
   -1
100
AcDbPolyline
 90
    2
 70
    0
 43
0
 10
131.7289974
 20
21.99110991
 10
131.7289974
 20
19.64063409
  0
LWPOLYLINE
  5
AC
100
AcDbEntity
  8
0
  6
ByLayer
 62
    0
370
   -1
100
AcDbPolyline
 90
    2
 70
    0
 43
0
 10
131.7289974
 20
19.64063409
 10
146.7346188
 20
19.64063409
  0
LWPOLYLINE
  5
AD
100
AcDbEntity
  8
0
  6
ByLayer
 62
    0
370
   -1
100
AcDbPolyline
 90
    2
 70
    0
 43
0
 10
146.7346188
 20
19.64063409
 10
146.7346188
 20
21.99110991
  0
LWPOLYLINE
  5
AE
100
AcDbEntity
  8
0
  6
ByLayer
 62
    0
370
   -1
100
AcDbPolyline
 90
    2
 70
    0
 43
0
 10
146.7346188
 20
21.99110991
 10
161.7407484
 20
21.99110991
  0
LWPOLYLINE
  5
AF
100
AcDbEntity
  8
0
  6
ByLayer
 62
    0
370
   -1
100
AcDbPolyline
 90
    2
 70
    0
 43
0
 10
161.7407484
 20
21.99110991
 10
161.7407484
 20
19.64063409
  0
LWPOLYLINE
  5
B0
100
AcDbEntity
  8
0
  6
ByLayer
 62
    0
370
   -1
100
AcDbPolyline
 90
    2
 70
    0
 43
0
 10
161.7407484
 20
19.64063409
 10
178.3471998
 20
19.64063409
  0
LWPOLYLINE
  5
B1
100
AcDbEntity
  8
0
  6
ByLayer
 62
    0
370
   -1
100
AcDbPolyline
 90
   17
 70
    1
 43
0
 10
146.3351736
 20
31.9955097
 10
145.7047515
 20
35.1110298
 10
143.9900847
 20
37.6545708
 10
141.4465437
 20
39.3697458
 10
138.3322941
 20
39.9981351
 10
135.2155035
 20
39.3697458
 10
132.6719625
 20
37.6545708
 10
130.9567875
 20
35.1110298
 10
130.3281441
 20
31.9955097
 10
130.9567875
 20
28.8799896
 10
132.6719625
 20
26.3364486
 10
135.2155035
 20
24.62145147
 10
138.3322941
 20
23.99146134
 10
141.4465437
 20
24.62145147
 10
143.9900847
 20
26.3364486
 10
145.7047515
 20
28.8799896
 10
146.3351736
 20
31.9955097
  0
LWPOLYLINE
  5
B2
100
AcDbEntity
  8
0
  6
ByLayer
 62
    0
370
   -1
100
AcDbPolyline
 90
   17
 70
    1
 43
0
 10
176.3469246
 20
31.9955097
 10
175.7165025
 20
35.1110298
 10
174.0015816
 20
37.6545708
 10
171.4582947
 20
39.3697458
 10
168.3440451
 20
39.9981351
 10
165.2270004
 20
39.3697458
 10
162.6837135
 20
37.6545708
 10
160.9685385
 20
35.1110298
 10
160.3398951
 20
31.9955097
 10
160.9685385
 20
28.8799896
 10
162.6837135
 20
26.3364486
 10
165.2270004
 20
24.62145147
 10
168.3440451
 20
23.99146134
 10
171.4582947
 20
24.62145147
 10
174.0015816
 20
26.3364486
 10
175.7165025
 20
28.8799896
 10
176.3469246
 20
31.9955097
  0
LWPOLYLINE
  5
B3
100
AcDbEntity
  8
0
  6
ByLayer
 62
    0
370
   -1
100
AcDbPolyline
 90
    2
 70
    0
 43
0
 10
45.2463165
 20
159.2907162
 10
37.2421665
 20
159.2907162
  0
LWPOLYLINE
  5
B4
100
AcDbEntity
  8
0
  6
ByLayer
 62
    0
370
   -1
100
AcDbPolyline
 90
    2
 70
    0
 43
0
 10
37.2421665
 20
159.2907162
 10
37.2421665
 20
151.2868203
  0
LWPOLYLINE
  5
B5
100
AcDbEntity
  8
0
  6
ByLayer
 62
    0
370
   -1
100
AcDbPolyline
 90
    2
 70
    0
 43
0
 10
37.2421665
 20
151.2868203
 10
40.2433416
 20
148.2856452
  0
LWPOLYLINE
  5
B6
100
AcDbEntity
  8
0
  6
ByLayer
 62
    0
370
   -1
100
AcDbPolyline
 90
    2
 70
    0
 43
0
 10
40.2433416
 20
148.2856452
 10
70.2550926
 20
148.2856452
  0
LWPOLYLINE
  5
B7
100
AcDbEntity
  8
0
  6
ByLayer
 62
    0
370
   -1
100
AcDbPolyline
 90
    2
 70
    0
 43
0
 10
70.2550926
 20
148.2856452
 10
73.2562677
 20
151.2868203
  0
LWPOLYLINE
  5
B8
100
AcDbEntity
  8
0
  6
ByLayer
 62
    0
370
   -1
100
AcDbPolyline
 90
    2
 70
    0
 43
0
 10
73.2562677
 20
151.2868203
 10
73.2562677
 20
159.2907162
  0
LWPOLYLINE
  5
B9
100
AcDbEntity
  8
0
  6
ByLayer
 62
    0
370
   -1
100
AcDbPolyline
 90
    2
 70
    0
 43
0
 10
73.2562677
 20
159.2907162
 10
65.2536423
 20
159.2907162
  0
LWPOLYLINE
  5
BA
100
AcDbEntity
  8
0
  6
ByLayer
 62
    0
370
   -1
100
AcDbPolyline
 90
    2
 70
    0
 43
0
 10
65.2536423
 20
159.2907162
 10
65.2536423
 20
161.6413953
  0
LWPOLYLINE
  5
BB
100
AcDbEntity
  8
0
  6
ByLayer
 62
    0
370
   -1
100
AcDbPolyline
 90
    2
 70
    0
 43
0
 10
65.2536423
 20
161.6413953
 10
65.2536423
 20
181.6487211
  0
LWPOLYLINE
  5
BC
100
AcDbEntity
  8
0
  6
ByLayer
 62
    0
370
   -1
100
AcDbPolyline
 90
    2
 70
    0
 43
0
 10
65.2536423
 20
181.6487211
 10
65.2536423
 20
184.0004166
  0
LWPOLYLINE
  5
BD
100
AcDbEntity
  8
0
  6
ByLayer
 62
    0
370
   -1
100
AcDbPolyline
 90
    2
 70
    0
 43
0
 10
65.2536423
 20
184.0004166
 10
73.2562677
 20
184.0004166
  0
LWPOLYLINE
  5
BE
100
AcDbEntity
  8
0
  6
ByLayer
 62
    0
370
   -1
100
AcDbPolyline
 90
    2
 70
    0
 43
0
 10
73.2562677
 20
184.0004166
 10
73.2562677
 20
192.0032961
  0
LWPOLYLINE
  5
BF
100
AcDbEntity
  8
0
  6
ByLayer
 62
    0
370
   -1
100
AcDbPolyline
 90
    2
 70
    0
 43
0
 10
73.2562677
 20
192.0032961
 10
70.2550926
 20
195.0044712
  0
LWPOLYLINE
  5
C0
100
AcDbEntity
  8
0
  6
ByLayer
 62
    0
370
   -1
100
AcDbPolyline
 90
    2
 70
    0
 43
0
 10
70.2550926
 20
195.0044712
 10
40.2433416
 20
195.0044712
  0
LWPOLYLINE
  5
C1
100
AcDbEntity
  8
0
  6
ByLayer
 62
    0
370
   -1
100
AcDbPolyline
 90
    2
 70
    0
 43
0
 10
40.2433416
 20
195.0044712
 10
37.2421665
 20
192.0032961
  0
LWPOLYLINE
  5
C2
100
AcDbEntity
  8
0
  6
ByLayer
 62
    0
370
   -1
100
AcDbPolyline
 90
    2
 70
    0
 43
0
 10
37.2421665
 20
192.0032961
 10
37.2421665
 20
184.0004166
  0
LWPOLYLINE
  5
C3
100
AcDbEntity
  8
0
  6
ByLayer
 62
    0
370
   -1
100
AcDbPolyline
 90
    2
 70
    0
 43
0
 10
37.2421665
 20
184.0004166
 10
45.2463165
 20
184.0004166
  0
LWPOLYLINE
  5
C4
100
AcDbEntity
  8
0
  6
ByLayer
 62
    0
370
   -1
100
AcDbPolyline
 90
    2
 70
    0
 43
0
 10
45.2463165
 20
181.6487211
 10
45.2463165
 20
184.0004166
  0
LWPOLYLINE
  5
C5
100
AcDbEntity
  8
0
  6
ByLayer
 62
    0
370
   -1
100
AcDbPolyline
 90
    2
 70
    0
 43
0
 10
45.2463165
 20
161.6413953
 10
45.2463165
 20
181.6487211
  0
LWPOLYLINE
  5
C6
100
AcDbEntity
  8
0
  6
ByLayer
 62
    0
370
   -1
100
AcDbPolyline
 90
    2
 70
    0
 43
0
 10
45.2463165
 20
159.2907162
 10
45.2463165
 20
161.6413953
  0
LWPOLYLINE
  5
C7
100
AcDbEntity
  8
0
  6
ByLayer
 62
    0
370
   -1
100
AcDbPolyline
 90
    2
 70
    0
 43
0
 10
60.2524461
 20
161.6413953
 10
60.2524461
 20
181.6487211
  0
LWPOLYLINE
  5
C8
100
AcDbEntity
  8
0
  6
ByLayer
 62
    0
370
   -1
100
AcDbPolyline
 90
    2
 70
    0
 43
0
 10
60.2524461
 20
181.6487211
 10
50.2480209
 20
181.6487211
  0
LWPOLYLINE
  5
C9
100
AcDbEntity
  8
0
  6
ByLayer
 62
    0
370
   -1
100
AcDbPolyline
 90
    2
 70
    0
 43
0
 10
50.2480209
 20
181.6487211
 10
50.2480209
 20
161.6413953
  0
LWPOLYLINE
  5
CA
100
AcDbEntity
  8
0
  6
ByLayer
 62
    0
370
   -1
100
AcDbPolyline
 90
    2
 70
    0
 43
0
 10
50.2480209
 20
161.6413953
 10
60.2524461
 20
161.6413953
  0
LWPOLYLINE
  5
CB
100
AcDbEntity
  8
0
  6
ByLayer
 62
    0
370
   -1
100
AcDbPolyline
 90
    5
 70
    1
 43
0
 10
68.5043436
 20
153.2886201
 10
68.25481739999999
 20
153.5381463
 10
68.0052912
 20
153.2886201
 10
68.25481739999999
 20
153.0378234
 10
68.5043436
 20
153.2886201
  0
LWPOLYLINE
  5
CC
100
AcDbEntity
  8
0
  6
ByLayer
 62
    0
370
   -1
100
AcDbPolyline
 90
    5
 70
    1
 43
0
 10
42.4946676
 20
153.2886201
 10
42.2451414
 20
153.5381463
 10
41.9943447
 20
153.2886201
 10
42.2451414
 20
153.0378234
 10
42.4946676
 20
153.2886201
  0
LWPOLYLINE
  5
CD
100
AcDbEntity
  8
0
  6
ByLayer
 62
    0
370
   -1
100
AcDbPolyline
 90
    5
 70
    1
 43
0
 10
42.4946676
 20
190.0030209
 10
42.2451414
 20
190.2525471
 10
41.9943447
 20
190.0030209
 10
42.2451414
 20
189.7519701
 10
42.4946676
 20
190.0030209
  0
LWPOLYLINE
  5
CE
100
AcDbEntity
  8
0
  6
ByLayer
 62
    0
370
   -1
100
AcDbPolyline
 90
    5
 70
    1
 43
0
 10
68.5043436
 20
190.0030209
 10
68.25481739999999
 20
190.2525471
 10
68.0052912
 20
190.0030209
 10
68.25481739999999
 20
189.7519701
 10
68.5043436
 20
190.0030209
  0
LWPOLYLINE
  5
CF
100
AcDbEntity
  8
0
  6
ByLayer
 62
    0
370
   -1
100
AcDbPolyline
 90
    2
 70
    0
 43
0
 10
112.4631354
 20
150.7036608
 10
112.4631354
 20
139.1995374
  0
LWPOLYLINE
  5
D0
100
AcDbEntity
  8
0
  6
ByLayer
 62
    0
370
   -1
100
AcDbPolyline
 90
    2
 70
    0
 43
0
 10
112.4631354
 20
139.1995374
 10
114.8135604
 20
139.1995374
  0
LWPOLYLINE
  5
D1
100
AcDbEntity
  8
0
  6
ByLayer
 62
    0
370
   -1
100
AcDbPolyline
 90
    2
 70
    0
 43
0
 10
114.8135604
 20
139.1995374
 10
114.8135604
 20
124.1934078
  0
LWPOLYLINE
  5
D2
100
AcDbEntity
  8
0
  6
ByLayer
 62
    0
370
   -1
100
AcDbPolyline
 90
    2
 70
    0
 43
0
 10
114.8135604
 20
124.1934078
 10
118.3153125
 20
124.1934078
  0
LWPOLYLINE
  5
D3
100
AcDbEntity
  8
0
  6
ByLayer
 62
    0
370
   -1
100
AcDbPolyline
 90
    2
 70
    0
 43
0
 10
118.3153125
 20
124.1934078
 10
122.3173875
 20
128.1954828
  0
LWPOLYLINE
  5
D4
100
AcDbEntity
  8
0
  6
ByLayer
 62
    0
370
   -1
100
AcDbPolyline
 90
    2
 70
    0
 43
0
 10
122.3173875
 20
128.1954828
 10
127.3188378
 20
128.1954828
  0
LWPOLYLINE
  5
D5
100
AcDbEntity
  8
0
  6
ByLayer
 62
    0
370
   -1
100
AcDbPolyline
 90
    2
 70
    0
 43
0
 10
127.3188378
 20
128.1954828
 10
131.3209128
 20
124.1934078
  0
LWPOLYLINE
  5
D6
100
AcDbEntity
  8
0
  6
ByLayer
 62
    0
370
   -1
100
AcDbPolyline
 90
    2
 70
    0
 43
0
 10
131.3209128
 20
124.1934078
 10
134.8224108
 20
124.1934078
  0
LWPOLYLINE
  5
D7
100
AcDbEntity
  8
0
  6
ByLayer
 62
    0
370
   -1
100
AcDbPolyline
 90
    2
 70
    0
 43
0
 10
134.8224108
 20
124.1934078
 10
134.8224108
 20
139.1995374
  0
LWPOLYLINE
  5
D8
100
AcDbEntity
  8
0
  6
ByLayer
 62
    0
370
   -1
100
AcDbPolyline
 90
    2
 70
    0
 43
0
 10
134.8224108
 20
139.1995374
 10
137.1730899
 20
139.1995374
  0
LWPOLYLINE
  5
D9
100
AcDbEntity
  8
0
  6
ByLayer
 62
    0
370
   -1
100
AcDbPolyline
 90
    2
 70
    0
 43
0
 10
137.1730899
 20
139.1995374
 10
137.1730899
 20
150.7036608
  0
LWPOLYLINE
  5
DA
100
AcDbEntity
  8
0
  6
ByLayer
 62
    0
370
   -1
100
AcDbPolyline
 90
    2
 70
    0
 43
0
 10
137.1730899
 20
150.7036608
 10
134.1719148
 20
153.7048359
  0
LWPOLYLINE
  5
DB
100
AcDbEntity
  8
0
  6
ByLayer
 62
    0
370
   -1
100
AcDbPolyline
 90
    2
 70
    0
 43
0
 10
134.1719148
 20
153.7048359
 10
115.4645646
 20
153.7048359
  0
LWPOLYLINE
  5
DC
100
AcDbEntity
  8
0
  6
ByLayer
 62
    0
370
   -1
100
AcDbPolyline
 90
    2
 70
    0
 43
0
 10
115.4645646
 20
153.7048359
 10
112.4631354
 20
150.7036608
  0
LWPOLYLINE
  5
DD
100
AcDbEntity
  8
0
  6
ByLayer
 62
    0
370
   -1
100
AcDbPolyline
 90
    5
 70
    1
 43
0
 10
130.8205899
 20
148.4536053
 10
131.0701161
 20
148.7031315
 10
130.8205899
 20
148.9531659
 10
130.5710637
 20
148.7031315
 10
130.8205899
 20
148.4536053
  0
LWPOLYLINE
  5
DE
100
AcDbEntity
  8
0
  6
ByLayer
 62
    0
370
   -1
100
AcDbPolyline
 90
    5
 70
    1
 43
0
 10
118.8156354
 20
148.4536053
 10
119.0651616
 20
148.7031315
 10
118.8156354
 20
148.9531659
 10
118.5663633
 20
148.7031315
 10
118.8156354
 20
148.4536053
  0
LWPOLYLINE
  5
DF
100
AcDbEntity
  8
0
  6
ByLayer
 62
    0
370
   -1
100
AcDbPolyline
 90
    2
 70
    0
 43
0
 10
29.5719039
 20
34.4244516
 10
35.1842106
 20
19.62548973
  0
LWPOLYLINE
  5
E0
100
AcDbEntity
  8
0
  6
ByLayer
 62
    0
370
   -1
100
AcDbPolyline
 90
    9
 70
    0
 43
0
 10
35.1842106
 20
19.62548973
 10
35.5051389
 20
17.66650578
 10
35.0670705
 20
15.79851504
 10
33.9599568
 20
14.23384347
 10
32.2793394
 20
13.175085
 10
30.319212
 20
12.85253046
 10
28.4525934
 20
13.29090378
 10
26.8865751
 20
14.39791584
 10
25.8290109
 20
16.07838078
  0
LWPOLYLINE
  5
E1
100
AcDbEntity
  8
0
  6
ByLayer
 62
    0
370
   -1
100
AcDbPolyline
 90
    2
 70
    0
 43
0
 10
25.8290109
 20
16.07838078
 10
16.31827659
 20
40.9769283
  0
LWPOLYLINE
  5
E2
100
AcDbEntity
  8
0
  6
ByLayer
 62
    0
370
   -1
100
AcDbPolyline
 90
    3
 70
    0
 43
0
 10
16.31827659
 20
40.9769283
 10
15.49938852
 20
45.862509
 10
16.31827659
 20
50.7483438
  0
LWPOLYLINE
  5
E3
100
AcDbEntity
  8
0
  6
ByLayer
 62
    0
370
   -1
100
AcDbPolyline
 90
    2
 70
    0
 43
0
 10
16.31827659
 20
50.7483438
 10
25.8290109
 20
75.6470946
  0
LWPOLYLINE
  5
E4
100
AcDbEntity
  8
0
  6
ByLayer
 62
    0
370
   -1
100
AcDbPolyline
 90
    9
 70
    0
 43
0
 10
25.8290109
 20
75.6470946
 10
26.8865751
 20
77.3287284
 10
28.4525934
 20
78.4358421
 10
30.319212
 20
78.8741646
 10
32.2793394
 20
78.5501871
 10
33.9599568
 20
77.4926229
 10
35.0670705
 20
75.9268587
 10
35.5051389
 20
74.0602401
 10
35.1842106
 20
72.0998586
  0
LWPOLYLINE
  5
E5
100
AcDbEntity
  8
0
  6
ByLayer
 62
    0
370
   -1
100
AcDbPolyline
 90
    2
 70
    0
 43
0
 10
29.5719039
 20
57.3005664
 10
35.1842106
 20
72.0998586
  0
LWPOLYLINE
  5
E6
100
AcDbEntity
  8
0
  6
ByLayer
 62
    0
370
   -1
100
AcDbPolyline
 90
    7
 70
    0
 43
0
 10
33.3079362
 20
51.8648592
 10
32.3415939
 20
51.98352390000001
 10
31.4441127
 20
52.3255425
 10
30.6541158
 20
52.8716034
 10
30.0102264
 20
53.60061630000001
 10
29.3335581
 20
55.3968492
 10
29.5719039
 20
57.3005664
  0
LWPOLYLINE
  5
E7
100
AcDbEntity
  8
0
  6
ByLayer
 62
    0
370
   -1
100
AcDbPolyline
 90
    2
 70
    0
 43
0
 10
39.8108634
 20
51.8648592
 10
33.3079362
 20
51.8648592
  0
LWPOLYLINE
  5
E8
100
AcDbEntity
  8
0
  6
ByLayer
 62
    0
370
   -1
100
AcDbPolyline
 90
    9
 70
    0
 43
0
 10
39.8108634
 20
51.8648592
 10
42.1460424
 20
51.3935037
 10
44.0538252
 20
50.1069954
 10
45.3403335
 20
48.1992126
 10
45.8132136
 20
45.862509
 10
45.3403335
 20
43.52733
 10
44.0538252
 20
41.6195472
 10
42.1460424
 20
40.33303890000001
 10
39.8108634
 20
39.8601588
  0
LWPOLYLINE
  5
E9
100
AcDbEntity
  8
0
  6
ByLayer
 62
    0
370
   -1
100
AcDbPolyline
 90
    2
 70
    0
 43
0
 10
39.8108634
 20
39.8601588
 10
33.3079362
 20
39.8601588
  0
LWPOLYLINE
  5
EA
100
AcDbEntity
  8
0
  6
ByLayer
 62
    0
370
   -1
100
AcDbPolyline
 90
    7
 70
    0
 43
0
 10
29.5719039
 20
34.4244516
 10
29.3335581
 20
36.3296934
 10
30.0102264
 20
38.1246558
 10
30.6541158
 20
38.8554474
 10
31.4441127
 20
39.3999837
 10
32.3415939
 20
39.7430187
 10
33.3079362
 20
39.8601588
  0
LWPOLYLINE
  5
EB
100
AcDbEntity
  8
0
  6
ByLayer
 62
    0
370
   -1
100
AcDbPolyline
 90
    9
 70
    1
 43
0
 10
31.5073836
 20
45.862509
 10
31.2138981
 20
46.5711939
 10
30.5064837
 20
46.8634089
 10
29.7980529
 20
46.5711939
 10
29.5058379
 20
45.862509
 10
29.7980529
 20
45.1553487
 10
30.5064837
 20
44.8616091
 10
31.2138981
 20
45.1553487
 10
31.5073836
 20
45.862509
  0
LWPOLYLINE
  5
EC
100
AcDbEntity
  8
0
  6
ByLayer
 62
    0
370
   -1
100
AcDbPolyline
 90
    5
 70
    1
 43
0
 10
30.7575345
 20
73.8739848
 10
30.5064837
 20
74.12351100000001
 10
30.2572116
 20
73.8739848
 10
30.5064837
 20
73.622934
 10
30.7575345
 20
73.8739848
  0
LWPOLYLINE
  5
ED
100
AcDbEntity
  8
0
  6
ByLayer
 62
    0
370
   -1
100
AcDbPolyline
 90
    5
 70
    1
 43
0
 10
30.7575345
 20
17.85123648
 10
30.5064837
 20
18.10216023
 10
30.2572116
 20
17.85123648
 10
30.5064837
 20
17.60171028
 10
30.7575345
 20
17.85123648
  0
LWPOLYLINE
  5
EE
100
AcDbEntity
  8
0
  6
ByLayer
 62
    0
370
   -1
100
AcDbPolyline
 90
    2
 70
    0
 43
0
 10
2.107850976
 20
51.8648592
 10
2.107850976
 20
75.87426000000001
  0
LWPOLYLINE
  5
EF
100
AcDbEntity
  8
0
  6
ByLayer
 62
    0
370
   -1
100
AcDbPolyline
 90
    2
 70
    0
 43
0
 10
2.107850976
 20
75.87426000000001
 10
5.10903624
 20
78.8754351
  0
LWPOLYLINE
  5
F0
100
AcDbEntity
  8
0
  6
ByLayer
 62
    0
370
   -1
100
AcDbPolyline
 90
    2
 70
    0
 43
0
 10
5.10903624
 20
78.8754351
 10
9.11103501
 20
78.8754351
  0
LWPOLYLINE
  5
F1
100
AcDbEntity
  8
0
  6
ByLayer
 62
    0
370
   -1
100
AcDbPolyline
 90
    2
 70
    0
 43
0
 10
9.11103501
 20
78.8754351
 10
12.11221011
 20
75.87426000000001
  0
LWPOLYLINE
  5
F2
100
AcDbEntity
  8
0
  6
ByLayer
 62
    0
370
   -1
100
AcDbPolyline
 90
    2
 70
    0
 43
0
 10
12.11221011
 20
75.87426000000001
 10
12.11221011
 20
51.8648592
  0
LWPOLYLINE
  5
F3
100
AcDbEntity
  8
0
  6
ByLayer
 62
    0
370
   -1
100
AcDbPolyline
 90
    9
 70
    0
 43
0
 10
12.11221011
 20
51.8648592
 10
11.73172077
 20
49.9499616
 10
10.64953428
 20
48.3249921
 10
9.02418363
 20
47.239731
 10
7.11070899
 20
46.8578187
 10
5.19451548
 20
47.239731
 10
3.57053697
 20
48.3249921
 10
2.486960553
 20
49.9499616
 10
2.107850976
 20
51.8648592
  0
LWPOLYLINE
  5
F4
100
AcDbEntity
  8
0
  6
ByLayer
 62
    0
370
   -1
100
AcDbPolyline
 90
    5
 70
    1
 43
0
 10
7.360260599999999
 20
51.8648592
 10
7.11070899
 20
52.1143854
 10
6.85981065
 20
51.8648592
 10
7.11070899
 20
51.6155871
 10
7.360260599999999
 20
51.8648592
  0
LWPOLYLINE
  5
F5
100
AcDbEntity
  8
0
  6
ByLayer
 62
    0
370
   -1
100
AcDbPolyline
 90
    5
 70
    1
 43
0
 10
7.360260599999999
 20
73.8739848
 10
7.11070899
 20
74.12351100000001
 10
6.85981065
 20
73.8739848
 10
7.11070899
 20
73.622934
 10
7.360260599999999
 20
73.8739848
  0
LWPOLYLINE
  5
F6
100
AcDbEntity
  8
0
  6
ByLayer
 62
    0
370
   -1
100
AcDbPolyline
 90
    2
 70
    0
 43
0
 10
2.107850976
 20
39.8601588
 10
2.107850976
 20
15.85093587
  0
LWPOLYLINE
  5
F7
100
AcDbEntity
  8
0
  6
ByLayer
 62
    0
370
   -1
100
AcDbPolyline
 90
    2
 70
    0
 43
0
 10
2.107850976
 20
15.85093587
 10
5.10903624
 20
12.84976077
  0
LWPOLYLINE
  5
F8
100
AcDbEntity
  8
0
  6
ByLayer
 62
    0
370
   -1
100
AcDbPolyline
 90
    2
 70
    0
 43
0
 10
5.10903624
 20
12.84976077
 10
9.11103501
 20
12.84976077
  0
LWPOLYLINE
  5
F9
100
AcDbEntity
  8
0
  6
ByLayer
 62
    0
370
   -1
100
AcDbPolyline
 90
    2
 70
    0
 43
0
 10
9.11103501
 20
12.84976077
 10
12.11221011
 20
15.85093587
  0
LWPOLYLINE
  5
FA
100
AcDbEntity
  8
0
  6
ByLayer
 62
    0
370
   -1
100
AcDbPolyline
 90
    2
 70
    0
 43
0
 10
12.11221011
 20
15.85093587
 10
12.11221011
 20
39.8601588
  0
LWPOLYLINE
  5
FB
100
AcDbEntity
  8
0
  6
ByLayer
 62
    0
370
   -1
100
AcDbPolyline
 90
    9
 70
    0
 43
0
 10
2.107850976
 20
39.8601588
 10
2.486960553
 20
41.776581
 10
3.57053697
 20
43.4005341
 10
5.19451548
 20
44.4868116
 10
7.11070899
 20
44.8674534
 10
9.02418363
 20
44.4868116
 10
10.64953428
 20
43.4005341
 10
11.73172077
 20
41.776581
 10
12.11221011
 20
39.8601588
  0
LWPOLYLINE
  5
FC
100
AcDbEntity
  8
0
  6
ByLayer
 62
    0
370
   -1
100
AcDbPolyline
 90
    5
 70
    1
 43
0
 10
7.360260599999999
 20
39.8601588
 10
7.11070899
 20
40.109685
 10
6.85981065
 20
39.8601588
 10
7.11070899
 20
39.6106326
 10
7.360260599999999
 20
39.8601588
  0
LWPOLYLINE
  5
FD
100
AcDbEntity
  8
0
  6
ByLayer
 62
    0
370
   -1
100
AcDbPolyline
 90
    5
 70
    1
 43
0
 10
7.360260599999999
 20
17.85123648
 10
7.11070899
 20
18.10216023
 10
6.85981065
 20
17.85123648
 10
7.11070899
 20
17.60171028
 10
7.360260599999999
 20
17.85123648
  0
LWPOLYLINE
  5
FE
100
AcDbEntity
  8
0
  6
ByLayer
 62
    0
370
   -1
100
AcDbPolyline
 90
    2
 70
    0
 43
0
 10
124.3257939
 20
66.07565579999999
 10
128.3278689
 20
66.07565579999999
  0
LWPOLYLINE
  5
FF
100
AcDbEntity
  8
0
  6
ByLayer
 62
    0
370
   -1
100
AcDbPolyline
 90
    2
 70
    0
 43
0
 10
128.3278689
 20
66.07565579999999
 10
131.329044
 20
69.07632270000001
  0
LWPOLYLINE
  5
100
100
AcDbEntity
  8
0
  6
ByLayer
 62
    0
370
   -1
100
AcDbPolyline
 90
    2
 70
    0
 43
0
 10
131.329044
 20
69.07632270000001
 10
168.3440451
 20
69.07632270000001
  0
LWPOLYLINE
  5
101
100
AcDbEntity
  8
0
  6
ByLayer
 62
    0
370
   -1
100
AcDbPolyline
 90
    2
 70
    0
 43
0
 10
168.3440451
 20
69.07632270000001
 10
171.3452202
 20
66.07565579999999
  0
LWPOLYLINE
  5
102
100
AcDbEntity
  8
0
  6
ByLayer
 62
    0
370
   -1
100
AcDbPolyline
 90
    2
 70
    0
 43
0
 10
171.3452202
 20
66.07565579999999
 10
175.3460247
 20
66.07565579999999
  0
LWPOLYLINE
  5
103
100
AcDbEntity
  8
0
  6
ByLayer
 62
    0
370
   -1
100
AcDbPolyline
 90
    2
 70
    0
 43
0
 10
175.3460247
 20
66.07565579999999
 10
178.3471998
 20
66.07565579999999
  0
LWPOLYLINE
  5
104
100
AcDbEntity
  8
0
  6
ByLayer
 62
    0
370
   -1
100
AcDbPolyline
 90
    2
 70
    0
 43
0
 10
178.3471998
 20
66.07565579999999
 10
178.3471998
 20
69.07632270000001
  0
LWPOLYLINE
  5
105
100
AcDbEntity
  8
0
  6
ByLayer
 62
    0
370
   -1
100
AcDbPolyline
 90
    2
 70
    0
 43
0
 10
178.3471998
 20
69.07632270000001
 10
178.3471998
 20
79.0794774
  0
LWPOLYLINE
  5
106
100
AcDbEntity
  8
0
  6
ByLayer
 62
    0
370
   -1
100
AcDbPolyline
 90
    2
 70
    0
 43
0
 10
178.3471998
 20
79.0794774
 10
175.3460247
 20
82.0806525
  0
LWPOLYLINE
  5
107
100
AcDbEntity
  8
0
  6
ByLayer
 62
    0
370
   -1
100
AcDbPolyline
 90
    2
 70
    0
 43
0
 10
175.3460247
 20
82.0806525
 10
171.3452202
 20
82.0806525
  0
LWPOLYLINE
  5
108
100
AcDbEntity
  8
0
  6
ByLayer
 62
    0
370
   -1
100
AcDbPolyline
 90
    2
 70
    0
 43
0
 10
171.3452202
 20
82.0806525
 10
168.3440451
 20
82.0806525
  0
LWPOLYLINE
  5
109
100
AcDbEntity
  8
0
  6
ByLayer
 62
    0
370
   -1
100
AcDbPolyline
 90
    2
 70
    0
 43
0
 10
131.329044
 20
82.0806525
 10
168.3440451
 20
82.0806525
  0
LWPOLYLINE
  5
10A
100
AcDbEntity
  8
0
  6
ByLayer
 62
    0
370
   -1
100
AcDbPolyline
 90
    2
 70
    0
 43
0
 10
131.329044
 20
82.0806525
 10
128.3278689
 20
82.0806525
  0
LWPOLYLINE
  5
10B
100
AcDbEntity
  8
0
  6
ByLayer
 62
    0
370
   -1
100
AcDbPolyline
 90
    2
 70
    0
 43
0
 10
128.3278689
 20
82.0806525
 10
124.3257939
 20
82.0806525
  0
LWPOLYLINE
  5
10C
100
AcDbEntity
  8
0
  6
ByLayer
 62
    0
370
   -1
100
AcDbPolyline
 90
    2
 70
    0
 43
0
 10
124.3257939
 20
82.0806525
 10
121.3246188
 20
79.0794774
  0
LWPOLYLINE
  5
10D
100
AcDbEntity
  8
0
  6
ByLayer
 62
    0
370
   -1
100
AcDbPolyline
 90
    2
 70
    0
 43
0
 10
121.3246188
 20
79.0794774
 10
121.3246188
 20
69.07632270000001
  0
LWPOLYLINE
  5
10E
100
AcDbEntity
  8
0
  6
ByLayer
 62
    0
370
   -1
100
AcDbPolyline
 90
    2
 70
    0
 43
0
 10
121.3246188
 20
66.07565579999999
 10
121.3246188
 20
69.07632270000001
  0
LWPOLYLINE
  5
10F
100
AcDbEntity
  8
0
  6
ByLayer
 62
    0
370
   -1
100
AcDbPolyline
 90
    2
 70
    0
 43
0
 10
124.3257939
 20
66.07565579999999
 10
121.3246188
 20
66.07565579999999
  0
LWPOLYLINE
  5
110
100
AcDbEntity
  8
0
  6
ByLayer
 62
    0
370
   -1
100
AcDbPolyline
 90
    2
 70
    0
 43
0
 10
143.3339985
 20
72.5780748
 10
158.3396199
 20
72.5780748
  0
LWPOLYLINE
  5
111
100
AcDbEntity
  8
0
  6
ByLayer
 62
    0
370
   -1
100
AcDbPolyline
 90
    2
 70
    0
 43
0
 10
158.3396199
 20
72.5780748
 10
158.3396199
 20
74.92875389999999
  0
LWPOLYLINE
  5
112
100
AcDbEntity
  8
0
  6
ByLayer
 62
    0
370
   -1
100
AcDbPolyline
 90
    2
 70
    0
 43
0
 10
158.3396199
 20
74.92875389999999
 10
143.3339985
 20
74.92875389999999
  0
LWPOLYLINE
  5
113
100
AcDbEntity
  8
0
  6
ByLayer
 62
    0
370
   -1
100
AcDbPolyline
 90
    2
 70
    0
 43
0
 10
143.3339985
 20
74.92875389999999
 10
143.3339985
 20
72.5780748
  0
LWPOLYLINE
  5
114
100
AcDbEntity
  8
0
  6
ByLayer
 62
    0
370
   -1
100
AcDbPolyline
 90
    5
 70
    1
 43
0
 10
173.7962688
 20
77.0792022
 10
173.5454721
 20
77.32999889999999
 10
173.2959459
 20
77.0792022
 10
173.5454721
 20
76.82967600000001
 10
173.7962688
 20
77.0792022
  0
LWPOLYLINE
  5
115
100
AcDbEntity
  8
0
  6
ByLayer
 62
    0
370
   -1
100
AcDbPolyline
 90
    5
 70
    1
 43
0
 10
126.5771199
 20
77.0792022
 10
126.3275937
 20
77.32999889999999
 10
126.0765429
 20
77.0792022
 10
126.3275937
 20
76.82967600000001
 10
126.5771199
 20
77.0792022
  0
LWPOLYLINE
  5
116
100
AcDbEntity
  8
0
  6
ByLayer
 62
    0
370
   -1
100
AcDbPolyline
 90
    2
 70
    0
 43
0
 10
175.3460247
 20
62.7654951
 10
171.3452202
 20
62.7654951
  0
LWPOLYLINE
  5
117
100
AcDbEntity
  8
0
  6
ByLayer
 62
    0
370
   -1
100
AcDbPolyline
 90
    2
 70
    0
 43
0
 10
171.3452202
 20
62.7654951
 10
168.3440451
 20
59.76432
  0
LWPOLYLINE
  5
118
100
AcDbEntity
  8
0
  6
ByLayer
 62
    0
370
   -1
100
AcDbPolyline
 90
    2
 70
    0
 43
0
 10
168.3440451
 20
59.76432
 10
131.329044
 20
59.76432
  0
LWPOLYLINE
  5
119
100
AcDbEntity
  8
0
  6
ByLayer
 62
    0
370
   -1
100
AcDbPolyline
 90
    2
 70
    0
 43
0
 10
131.329044
 20
59.76432
 10
128.3278689
 20
62.7654951
  0
LWPOLYLINE
  5
11A
100
AcDbEntity
  8
0
  6
ByLayer
 62
    0
370
   -1
100
AcDbPolyline
 90
    2
 70
    0
 43
0
 10
128.3278689
 20
62.7654951
 10
124.3257939
 20
62.7654951
  0
LWPOLYLINE
  5
11B
100
AcDbEntity
  8
0
  6
ByLayer
 62
    0
370
   -1
100
AcDbPolyline
 90
    2
 70
    0
 43
0
 10
124.3257939
 20
62.7654951
 10
121.3246188
 20
62.7654951
  0
LWPOLYLINE
  5
11C
100
AcDbEntity
  8
0
  6
ByLayer
 62
    0
370
   -1
100
AcDbPolyline
 90
    2
 70
    0
 43
0
 10
121.3246188
 20
62.7654951
 10
121.3246188
 20
59.76432
  0
LWPOLYLINE
  5
11D
100
AcDbEntity
  8
0
  6
ByLayer
 62
    0
370
   -1
100
AcDbPolyline
 90
    2
 70
    0
 43
0
 10
121.3246188
 20
59.76432
 10
121.3246188
 20
49.7598948
  0
LWPOLYLINE
  5
11E
100
AcDbEntity
  8
0
  6
ByLayer
 62
    0
370
   -1
100
AcDbPolyline
 90
    2
 70
    0
 43
0
 10
121.3246188
 20
49.7598948
 10
124.3257939
 20
46.7587197
  0
LWPOLYLINE
  5
11F
100
AcDbEntity
  8
0
  6
ByLayer
 62
    0
370
   -1
100
AcDbPolyline
 90
    2
 70
    0
 43
0
 10
124.3257939
 20
46.7587197
 10
128.3278689
 20
46.7587197
  0
LWPOLYLINE
  5
120
100
AcDbEntity
  8
0
  6
ByLayer
 62
    0
370
   -1
100
AcDbPolyline
 90
    2
 70
    0
 43
0
 10
128.3278689
 20
46.7587197
 10
131.329044
 20
46.7587197
  0
LWPOLYLINE
  5
121
100
AcDbEntity
  8
0
  6
ByLayer
 62
    0
370
   -1
100
AcDbPolyline
 90
    2
 70
    0
 43
0
 10
168.3440451
 20
46.7587197
 10
131.329044
 20
46.7587197
  0
LWPOLYLINE
  5
122
100
AcDbEntity
  8
0
  6
ByLayer
 62
    0
370
   -1
100
AcDbPolyline
 90
    2
 70
    0
 43
0
 10
168.3440451
 20
46.7587197
 10
171.3452202
 20
46.7587197
  0
LWPOLYLINE
  5
123
100
AcDbEntity
  8
0
  6
ByLayer
 62
    0
370
   -1
100
AcDbPolyline
 90
    2
 70
    0
 43
0
 10
171.3452202
 20
46.7587197
 10
175.3460247
 20
46.7587197
  0
LWPOLYLINE
  5
124
100
AcDbEntity
  8
0
  6
ByLayer
 62
    0
370
   -1
100
AcDbPolyline
 90
    2
 70
    0
 43
0
 10
175.3460247
 20
46.7587197
 10
178.3471998
 20
49.7598948
  0
LWPOLYLINE
  5
125
100
AcDbEntity
  8
0
  6
ByLayer
 62
    0
370
   -1
100
AcDbPolyline
 90
    2
 70
    0
 43
0
 10
178.3471998
 20
49.7598948
 10
178.3471998
 20
59.76432
  0
LWPOLYLINE
  5
126
100
AcDbEntity
  8
0
  6
ByLayer
 62
    0
370
   -1
100
AcDbPolyline
 90
    2
 70
    0
 43
0
 10
178.3471998
 20
59.76432
 10
178.3471998
 20
62.7654951
  0
LWPOLYLINE
  5
127
100
AcDbEntity
  8
0
  6
ByLayer
 62
    0
370
   -1
100
AcDbPolyline
 90
    2
 70
    0
 43
0
 10
175.3460247
 20
62.7654951
 10
178.3471998
 20
62.7654951
  0
LWPOLYLINE
  5
128
100
AcDbEntity
  8
0
  6
ByLayer
 62
    0
370
   -1
100
AcDbPolyline
 90
    2
 70
    0
 43
0
 10
143.3339985
 20
53.9121429
 10
158.3396199
 20
53.9121429
  0
LWPOLYLINE
  5
129
100
AcDbEntity
  8
0
  6
ByLayer
 62
    0
370
   -1
100
AcDbPolyline
 90
    2
 70
    0
 43
0
 10
158.3396199
 20
53.9121429
 10
158.3396199
 20
56.2625679
  0
LWPOLYLINE
  5
12A
100
AcDbEntity
  8
0
  6
ByLayer
 62
    0
370
   -1
100
AcDbPolyline
 90
    2
 70
    0
 43
0
 10
158.3396199
 20
56.2625679
 10
143.3339985
 20
56.2625679
  0
LWPOLYLINE
  5
12B
100
AcDbEntity
  8
0
  6
ByLayer
 62
    0
370
   -1
100
AcDbPolyline
 90
    2
 70
    0
 43
0
 10
143.3339985
 20
56.2625679
 10
143.3339985
 20
53.9121429
  0
LWPOLYLINE
  5
12C
100
AcDbEntity
  8
0
  6
ByLayer
 62
    0
370
   -1
100
AcDbPolyline
 90
    5
 70
    1
 43
0
 10
173.7962688
 20
51.7616946
 10
173.5454721
 20
52.0112208
 10
173.2959459
 20
51.7616946
 10
173.5454721
 20
51.5106438
 10
173.7962688
 20
51.7616946
  0
LWPOLYLINE
  5
12D
100
AcDbEntity
  8
0
  6
ByLayer
 62
    0
370
   -1
100
AcDbPolyline
 90
    5
 70
    1
 43
0
 10
126.5771199
 20
51.7616946
 10
126.3275937
 20
52.0112208
 10
126.0765429
 20
51.7616946
 10
126.3275937
 20
51.5106438
 10
126.5771199
 20
51.7616946
  0
LWPOLYLINE
  5
12E
100
AcDbEntity
  8
0
  6
ByLayer
 62
    0
370
   -1
100
AcDbPolyline
 90
    2
 70
    0
 43
0
 10
123.617109
 20
196.8116304
 10
114.764265
 20
196.8116304
  0
LWPOLYLINE
  5
12F
100
AcDbEntity
  8
0
  6
ByLayer
 62
    0
370
   -1
100
AcDbPolyline
 90
    2
 70
    0
 43
0
 10
114.764265
 20
196.8116304
 10
114.764265
 20
191.8101801
  0
LWPOLYLINE
  5
130
100
AcDbEntity
  8
0
  6
ByLayer
 62
    0
370
   -1
100
AcDbPolyline
 90
    2
 70
    0
 43
0
 10
114.764265
 20
191.8101801
 10
117.11469
 20
191.8101801
  0
LWPOLYLINE
  5
131
100
AcDbEntity
  8
0
  6
ByLayer
 62
    0
370
   -1
100
AcDbPolyline
 90
    2
 70
    0
 43
0
 10
117.11469
 20
191.8101801
 10
117.11469
 20
186.8087298
  0
LWPOLYLINE
  5
132
100
AcDbEntity
  8
0
  6
ByLayer
 62
    0
370
   -1
100
AcDbPolyline
 90
    2
 70
    0
 43
0
 10
117.11469
 20
186.8087298
 10
114.764265
 20
186.8087298
  0
LWPOLYLINE
  5
133
100
AcDbEntity
  8
0
  6
ByLayer
 62
    0
370
   -1
100
AcDbPolyline
 90
    2
 70
    0
 43
0
 10
114.764265
 20
186.8087298
 10
114.764265
 20
181.8057549
  0
LWPOLYLINE
  5
134
100
AcDbEntity
  8
0
  6
ByLayer
 62
    0
370
   -1
100
AcDbPolyline
 90
    2
 70
    0
 43
0
 10
114.764265
 20
181.8057549
 10
117.11469
 20
181.8057549
  0
LWPOLYLINE
  5
135
100
AcDbEntity
  8
0
  6
ByLayer
 62
    0
370
   -1
100
AcDbPolyline
 90
    2
 70
    0
 43
0
 10
117.11469
 20
181.8057549
 10
117.11469
 20
176.8043046
  0
LWPOLYLINE
  5
136
100
AcDbEntity
  8
0
  6
ByLayer
 62
    0
370
   -1
100
AcDbPolyline
 90
    2
 70
    0
 43
0
 10
117.11469
 20
176.8043046
 10
123.617109
 20
176.8043046
  0
LWPOLYLINE
  5
137
100
AcDbEntity
  8
0
  6
ByLayer
 62
    0
370
   -1
100
AcDbPolyline
 90
    2
 70
    0
 43
0
 10
123.617109
 20
176.8043046
 10
123.617109
 20
196.8116304
  0
LWPOLYLINE
  5
138
100
AcDbEntity
  8
0
  6
ByLayer
 62
    0
370
   -1
100
AcDbPolyline
 90
    5
 70
    1
 43
0
 10
120.6164421
 20
193.5609291
 10
120.8669847
 20
193.8104553
 10
120.6164421
 20
194.0615061
 10
120.3669159
 20
193.8104553
 10
120.6164421
 20
193.5609291
  0
LWPOLYLINE
  5
139
100
AcDbEntity
  8
0
  6
ByLayer
 62
    0
370
   -1
100
AcDbPolyline
 90
    2
 70
    0
 43
0
 10
132.3713622
 20
176.8043046
 10
132.3713622
 20
181.8057549
  0
LWPOLYLINE
  5
13A
100
AcDbEntity
  8
0
  6
ByLayer
 62
    0
370
   -1
100
AcDbPolyline
 90
    2
 70
    0
 43
0
 10
132.3713622
 20
181.8057549
 10
134.7217872
 20
181.8057549
  0
LWPOLYLINE
  5
13B
100
AcDbEntity
  8
0
  6
ByLayer
 62
    0
370
   -1
100
AcDbPolyline
 90
    2
 70
    0
 43
0
 10
134.7217872
 20
181.8057549
 10
134.7217872
 20
186.8087298
  0
LWPOLYLINE
  5
13C
100
AcDbEntity
  8
0
  6
ByLayer
 62
    0
370
   -1
100
AcDbPolyline
 90
    2
 70
    0
 43
0
 10
134.7217872
 20
186.8087298
 10
132.3713622
 20
186.8087298
  0
LWPOLYLINE
  5
13D
100
AcDbEntity
  8
0
  6
ByLayer
 62
    0
370
   -1
100
AcDbPolyline
 90
    2
 70
    0
 43
0
 10
132.3713622
 20
186.8087298
 10
132.3713622
 20
191.8101801
  0
LWPOLYLINE
  5
13E
100
AcDbEntity
  8
0
  6
ByLayer
 62
    0
370
   -1
100
AcDbPolyline
 90
    2
 70
    0
 43
0
 10
132.3713622
 20
191.8101801
 10
134.7217872
 20
191.8101801
  0
LWPOLYLINE
  5
13F
100
AcDbEntity
  8
0
  6
ByLayer
 62
    0
370
   -1
100
AcDbPolyline
 90
    2
 70
    0
 43
0
 10
134.7217872
 20
191.8101801
 10
134.7217872
 20
196.8116304
  0
LWPOLYLINE
  5
140
100
AcDbEntity
  8
0
  6
ByLayer
 62
    0
370
   -1
100
AcDbPolyline
 90
    2
 70
    0
 43
0
 10
134.7217872
 20
196.8116304
 10
125.868435
 20
196.8116304
  0
LWPOLYLINE
  5
141
100
AcDbEntity
  8
0
  6
ByLayer
 62
    0
370
   -1
100
AcDbPolyline
 90
    2
 70
    0
 43
0
 10
125.868435
 20
176.8043046
 10
125.868435
 20
196.8116304
  0
LWPOLYLINE
  5
142
100
AcDbEntity
  8
0
  6
ByLayer
 62
    0
370
   -1
100
AcDbPolyline
 90
    2
 70
    0
 43
0
 10
125.868435
 20
176.8043046
 10
132.3713622
 20
176.8043046
  0
LWPOLYLINE
  5
143
100
AcDbEntity
  8
0
  6
ByLayer
 62
    0
370
   -1
100
AcDbPolyline
 90
    5
 70
    1
 43
0
 10
128.8696101
 20
193.5609291
 10
129.1191363
 20
193.8104553
 10
128.8696101
 20
194.0615061
 10
128.6200839
 20
193.8104553
 10
128.8696101
 20
193.5609291
  0
LWPOLYLINE
  5
144
100
AcDbEntity
  8
0
  6
ByLayer
 62
    0
370
   -1
100
AcDbPolyline
 90
    2
 70
    0
 43
0
 10
123.617109
 20
175.2161796
 10
123.617109
 20
155.2088538
  0
LWPOLYLINE
  5
145
100
AcDbEntity
  8
0
  6
ByLayer
 62
    0
370
   -1
100
AcDbPolyline
 90
    2
 70
    0
 43
0
 10
123.617109
 20
155.2088538
 10
114.764265
 20
155.2088538
  0
LWPOLYLINE
  5
146
100
AcDbEntity
  8
0
  6
ByLayer
 62
    0
370
   -1
100
AcDbPolyline
 90
    2
 70
    0
 43
0
 10
114.764265
 20
155.2088538
 10
114.764265
 20
160.2103041
  0
LWPOLYLINE
  5
147
100
AcDbEntity
  8
0
  6
ByLayer
 62
    0
370
   -1
100
AcDbPolyline
 90
    2
 70
    0
 43
0
 10
114.764265
 20
160.2103041
 10
117.11469
 20
160.2103041
  0
LWPOLYLINE
  5
148
100
AcDbEntity
  8
0
  6
ByLayer
 62
    0
370
   -1
100
AcDbPolyline
 90
    2
 70
    0
 43
0
 10
117.11469
 20
160.2103041
 10
117.11469
 20
165.2120085
  0
LWPOLYLINE
  5
149
100
AcDbEntity
  8
0
  6
ByLayer
 62
    0
370
   -1
100
AcDbPolyline
 90
    2
 70
    0
 43
0
 10
117.11469
 20
165.2120085
 10
114.764265
 20
165.2120085
  0
LWPOLYLINE
  5
14A
100
AcDbEntity
  8
0
  6
ByLayer
 62
    0
370
   -1
100
AcDbPolyline
 90
    2
 70
    0
 43
0
 10
114.764265
 20
165.2120085
 10
114.764265
 20
170.2149834
  0
LWPOLYLINE
  5
14B
100
AcDbEntity
  8
0
  6
ByLayer
 62
    0
370
   -1
100
AcDbPolyline
 90
    2
 70
    0
 43
0
 10
114.764265
 20
170.2149834
 10
117.11469
 20
170.2149834
  0
LWPOLYLINE
  5
14C
100
AcDbEntity
  8
0
  6
ByLayer
 62
    0
370
   -1
100
AcDbPolyline
 90
    2
 70
    0
 43
0
 10
117.11469
 20
170.2149834
 10
117.11469
 20
175.2161796
  0
LWPOLYLINE
  5
14D
100
AcDbEntity
  8
0
  6
ByLayer
 62
    0
370
   -1
100
AcDbPolyline
 90
    2
 70
    0
 43
0
 10
117.11469
 20
175.2161796
 10
123.617109
 20
175.2161796
  0
LWPOLYLINE
  5
14E
100
AcDbEntity
  8
0
  6
ByLayer
 62
    0
370
   -1
100
AcDbPolyline
 90
    5
 70
    1
 43
0
 10
120.6164421
 20
157.9592322
 10
120.8669847
 20
158.2100289
 10
120.6164421
 20
158.4595551
 10
120.3669159
 20
158.2100289
 10
120.6164421
 20
157.9592322
  0
LWPOLYLINE
  5
14F
100
AcDbEntity
  8
0
  6
ByLayer
 62
    0
370
   -1
100
AcDbPolyline
 90
    2
 70
    0
 43
0
 10
132.3713622
 20
175.2161796
 10
132.3713622
 20
170.2149834
  0
LWPOLYLINE
  5
150
100
AcDbEntity
  8
0
  6
ByLayer
 62
    0
370
   -1
100
AcDbPolyline
 90
    2
 70
    0
 43
0
 10
132.3713622
 20
170.2149834
 10
134.7217872
 20
170.2149834
  0
LWPOLYLINE
  5
151
100
AcDbEntity
  8
0
  6
ByLayer
 62
    0
370
   -1
100
AcDbPolyline
 90
    2
 70
    0
 43
0
 10
134.7217872
 20
170.2149834
 10
134.7217872
 20
165.2120085
  0
LWPOLYLINE
  5
152
100
AcDbEntity
  8
0
  6
ByLayer
 62
    0
370
   -1
100
AcDbPolyline
 90
    2
 70
    0
 43
0
 10
134.7217872
 20
165.2120085
 10
132.3713622
 20
165.2120085
  0
LWPOLYLINE
  5
153
100
AcDbEntity
  8
0
  6
ByLayer
 62
    0
370
   -1
100
AcDbPolyline
 90
    2
 70
    0
 43
0
 10
132.3713622
 20
165.2120085
 10
132.3713622
 20
160.2103041
  0
LWPOLYLINE
  5
154
100
AcDbEntity
  8
0
  6
ByLayer
 62
    0
370
   -1
100
AcDbPolyline
 90
    2
 70
    0
 43
0
 10
132.3713622
 20
160.2103041
 10
134.7217872
 20
160.2103041
  0
LWPOLYLINE
  5
155
100
AcDbEntity
  8
0
  6
ByLayer
 62
    0
370
   -1
100
AcDbPolyline
 90
    2
 70
    0
 43
0
 10
134.7217872
 20
160.2103041
 10
134.7217872
 20
155.2088538
  0
LWPOLYLINE
  5
156
100
AcDbEntity
  8
0
  6
ByLayer
 62
    0
370
   -1
100
AcDbPolyline
 90
    2
 70
    0
 43
0
 10
134.7217872
 20
155.2088538
 10
125.868435
 20
155.2088538
  0
LWPOLYLINE
  5
157
100
AcDbEntity
  8
0
  6
ByLayer
 62
    0
370
   -1
100
AcDbPolyline
 90
    2
 70
    0
 43
0
 10
125.868435
 20
155.2088538
 10
125.868435
 20
175.2161796
  0
LWPOLYLINE
  5
158
100
AcDbEntity
  8
0
  6
ByLayer
 62
    0
370
   -1
100
AcDbPolyline
 90
    2
 70
    0
 43
0
 10
125.868435
 20
175.2161796
 10
132.3713622
 20
175.2161796
  0
LWPOLYLINE
  5
159
100
AcDbEntity
  8
0
  6
ByLayer
 62
    0
370
   -1
100
AcDbPolyline
 90
    5
 70
    1
 43
0
 10
128.8696101
 20
157.9592322
 10
129.1191363
 20
158.2100289
 10
128.8696101
 20
158.4595551
 10
128.6200839
 20
158.2100289
 10
128.8696101
 20
157.9592322
  0
LWPOLYLINE
  5
15A
100
AcDbEntity
  8
0
  6
ByLayer
 62
    0
370
   -1
100
AcDbPolyline
 90
    2
 70
    0
 43
0
 10
84.6241935
 20
67.03615380000001
 10
79.6224891
 20
62.0331789
  0
LWPOLYLINE
  5
15B
100
AcDbEntity
  8
0
  6
ByLayer
 62
    0
370
   -1
100
AcDbPolyline
 90
    2
 70
    0
 43
0
 10
79.6224891
 20
62.0331789
 10
79.6224891
 20
54.0308076
  0
LWPOLYLINE
  5
15C
100
AcDbEntity
  8
0
  6
ByLayer
 62
    0
370
   -1
100
AcDbPolyline
 90
    2
 70
    0
 43
0
 10
79.6224891
 20
54.0308076
 10
87.6253686
 20
54.0308076
  0
LWPOLYLINE
  5
15D
100
AcDbEntity
  8
0
  6
ByLayer
 62
    0
370
   -1
100
AcDbPolyline
 90
    2
 70
    0
 43
0
 10
87.6253686
 20
54.0308076
 10
87.6253686
 20
51.68038259999999
  0
LWPOLYLINE
  5
15E
100
AcDbEntity
  8
0
  6
ByLayer
 62
    0
370
   -1
100
AcDbPolyline
 90
    2
 70
    0
 43
0
 10
87.6253686
 20
51.68038259999999
 10
95.627994
 20
51.68038259999999
  0
LWPOLYLINE
  5
15F
100
AcDbEntity
  8
0
  6
ByLayer
 62
    0
370
   -1
100
AcDbPolyline
 90
    2
 70
    0
 43
0
 10
95.627994
 20
51.68038259999999
 10
95.627994
 20
54.0308076
  0
LWPOLYLINE
  5
160
100
AcDbEntity
  8
0
  6
ByLayer
 62
    0
370
   -1
100
AcDbPolyline
 90
    2
 70
    0
 43
0
 10
95.627994
 20
54.0308076
 10
103.632144
 20
54.0308076
  0
LWPOLYLINE
  5
161
100
AcDbEntity
  8
0
  6
ByLayer
 62
    0
370
   -1
100
AcDbPolyline
 90
    2
 70
    0
 43
0
 10
103.632144
 20
54.0308076
 10
103.632144
 20
51.68038259999999
  0
LWPOLYLINE
  5
162
100
AcDbEntity
  8
0
  6
ByLayer
 62
    0
370
   -1
100
AcDbPolyline
 90
    2
 70
    0
 43
0
 10
103.632144
 20
51.68038259999999
 10
111.6345153
 20
51.68038259999999
  0
LWPOLYLINE
  5
163
100
AcDbEntity
  8
0
  6
ByLayer
 62
    0
370
   -1
100
AcDbPolyline
 90
    2
 70
    0
 43
0
 10
111.6345153
 20
51.68038259999999
 10
111.6345153
 20
54.0308076
  0
LWPOLYLINE
  5
164
100
AcDbEntity
  8
0
  6
ByLayer
 62
    0
370
   -1
100
AcDbPolyline
 90
    2
 70
    0
 43
0
 10
111.6345153
 20
54.0308076
 10
119.6373948
 20
54.0308076
  0
LWPOLYLINE
  5
165
100
AcDbEntity
  8
0
  6
ByLayer
 62
    0
370
   -1
100
AcDbPolyline
 90
    2
 70
    0
 43
0
 10
119.6373948
 20
54.0308076
 10
119.6373948
 20
62.0331789
  0
LWPOLYLINE
  5
166
100
AcDbEntity
  8
0
  6
ByLayer
 62
    0
370
   -1
100
AcDbPolyline
 90
    2
 70
    0
 43
0
 10
119.6373948
 20
62.0331789
 10
114.6356904
 20
67.03615380000001
  0
LWPOLYLINE
  5
167
100
AcDbEntity
  8
0
  6
ByLayer
 62
    0
370
   -1
100
AcDbPolyline
 90
    2
 70
    0
 43
0
 10
114.6356904
 20
67.03615380000001
 10
84.6241935
 20
67.03615380000001
  0
LWPOLYLINE
  5
168
100
AcDbEntity
  8
0
  6
ByLayer
 62
    0
370
   -1
100
AcDbPolyline
 90
    5
 70
    1
 43
0
 10
111.6345153
 20
65.28540479999999
 10
111.3849891
 20
65.03435400000001
 10
111.6345153
 20
64.7848278
 10
111.8840415
 20
65.03435400000001
 10
111.6345153
 20
65.28540479999999
  0
LWPOLYLINE
  5
169
100
AcDbEntity
  8
0
  6
ByLayer
 62
    0
370
   -1
100
AcDbPolyline
 90
    5
 70
    1
 43
0
 10
87.6253686
 20
65.28540479999999
 10
87.3758424
 20
65.03435400000001
 10
87.6253686
 20
64.7848278
 10
87.87489479999999
 20
65.03435400000001
 10
87.6253686
 20
65.28540479999999
  0
LWPOLYLINE
  5
16A
100
AcDbEntity
  8
0
  6
ByLayer
 62
    0
370
   -1
100
AcDbPolyline
 90
    2
 70
    0
 43
0
 10
71.78528279999999
 20
67.03615380000001
 10
76.7882577
 20
62.0331789
  0
LWPOLYLINE
  5
16B
100
AcDbEntity
  8
0
  6
ByLayer
 62
    0
370
   -1
100
AcDbPolyline
 90
    2
 70
    0
 43
0
 10
76.7882577
 20
62.0331789
 10
76.7882577
 20
54.0308076
  0
LWPOLYLINE
  5
16C
100
AcDbEntity
  8
0
  6
ByLayer
 62
    0
370
   -1
100
AcDbPolyline
 90
    2
 70
    0
 43
0
 10
76.7882577
 20
54.0308076
 10
68.78410770000001
 20
54.0308076
  0
LWPOLYLINE
  5
16D
100
AcDbEntity
  8
0
  6
ByLayer
 62
    0
370
   -1
100
AcDbPolyline
 90
    2
 70
    0
 43
0
 10
68.78410770000001
 20
54.0308076
 10
68.78410770000001
 20
51.68038259999999
  0
LWPOLYLINE
  5
16E
100
AcDbEntity
  8
0
  6
ByLayer
 62
    0
370
   -1
100
AcDbPolyline
 90
    2
 70
    0
 43
0
 10
68.78410770000001
 20
51.68038259999999
 10
60.78173640000001
 20
51.68038259999999
  0
LWPOLYLINE
  5
16F
100
AcDbEntity
  8
0
  6
ByLayer
 62
    0
370
   -1
100
AcDbPolyline
 90
    2
 70
    0
 43
0
 10
60.78173640000001
 20
51.68038259999999
 10
60.78173640000001
 20
54.0308076
  0
LWPOLYLINE
  5
170
100
AcDbEntity
  8
0
  6
ByLayer
 62
    0
370
   -1
100
AcDbPolyline
 90
    2
 70
    0
 43
0
 10
60.78173640000001
 20
54.0308076
 10
52.7775864
 20
54.0308076
  0
LWPOLYLINE
  5
171
100
AcDbEntity
  8
0
  6
ByLayer
 62
    0
370
   -1
100
AcDbPolyline
 90
    2
 70
    0
 43
0
 10
52.7775864
 20
54.0308076
 10
52.7775864
 20
51.68038259999999
  0
LWPOLYLINE
  5
172
100
AcDbEntity
  8
0
  6
ByLayer
 62
    0
370
   -1
100
AcDbPolyline
 90
    2
 70
    0
 43
0
 10
52.7775864
 20
51.68038259999999
 10
44.774961
 20
51.68038259999999
  0
LWPOLYLINE
  5
173
100
AcDbEntity
  8
0
  6
ByLayer
 62
    0
370
   -1
100
AcDbPolyline
 90
    2
 70
    0
 43
0
 10
44.774961
 20
51.68038259999999
 10
44.774961
 20
54.0308076
  0
LWPOLYLINE
  5
174
100
AcDbEntity
  8
0
  6
ByLayer
 62
    0
370
   -1
100
AcDbPolyline
 90
    2
 70
    0
 43
0
 10
44.774961
 20
54.0308076
 10
36.7720815
 20
54.0308076
  0
LWPOLYLINE
  5
175
100
AcDbEntity
  8
0
  6
ByLayer
 62
    0
370
   -1
100
AcDbPolyline
 90
    2
 70
    0
 43
0
 10
36.7720815
 20
54.0308076
 10
36.7720815
 20
62.0331789
  0
LWPOLYLINE
  5
176
100
AcDbEntity
  8
0
  6
ByLayer
 62
    0
370
   -1
100
AcDbPolyline
 90
    2
 70
    0
 43
0
 10
36.7720815
 20
62.0331789
 10
41.7737859
 20
67.03615380000001
  0
LWPOLYLINE
  5
177
100
AcDbEntity
  8
0
  6
ByLayer
 62
    0
370
   -1
100
AcDbPolyline
 90
    2
 70
    0
 43
0
 10
41.7737859
 20
67.03615380000001
 10
71.78528279999999
 20
67.03615380000001
  0
LWPOLYLINE
  5
178
100
AcDbEntity
  8
0
  6
ByLayer
 62
    0
370
   -1
100
AcDbPolyline
 90
    5
 70
    1
 43
0
 10
44.774961
 20
65.28540479999999
 10
44.5254348
 20
65.03435400000001
 10
44.774961
 20
64.7848278
 10
45.0257577
 20
65.03435400000001
 10
44.774961
 20
65.28540479999999
  0
LWPOLYLINE
  5
179
100
AcDbEntity
  8
0
  6
ByLayer
 62
    0
370
   -1
100
AcDbPolyline
 90
    5
 70
    1
 43
0
 10
68.78410770000001
 20
65.28540479999999
 10
68.5345815
 20
65.03435400000001
 10
68.78410770000001
 20
64.7848278
 10
69.03515849999999
 20
65.03435400000001
 10
68.78410770000001
 20
65.28540479999999
  0
LWPOLYLINE
  5
17A
100
AcDbEntity
  8
0
  6
ByLayer
 62
    0
370
   -1
100
AcDbPolyline
 90
    2
 70
    0
 43
0
 10
84.6241935
 20
70.7416941
 10
79.6224891
 20
75.74339850000001
  0
LWPOLYLINE
  5
17B
100
AcDbEntity
  8
0
  6
ByLayer
 62
    0
370
   -1
100
AcDbPolyline
 90
    2
 70
    0
 43
0
 10
79.6224891
 20
75.74339850000001
 10
79.6224891
 20
83.74602390000001
  0
LWPOLYLINE
  5
17C
100
AcDbEntity
  8
0
  6
ByLayer
 62
    0
370
   -1
100
AcDbPolyline
 90
    2
 70
    0
 43
0
 10
79.6224891
 20
83.74602390000001
 10
87.6253686
 20
83.74602390000001
  0
LWPOLYLINE
  5
17D
100
AcDbEntity
  8
0
  6
ByLayer
 62
    0
370
   -1
100
AcDbPolyline
 90
    2
 70
    0
 43
0
 10
87.6253686
 20
83.74602390000001
 10
87.6253686
 20
86.09797349999999
  0
LWPOLYLINE
  5
17E
100
AcDbEntity
  8
0
  6
ByLayer
 62
    0
370
   -1
100
AcDbPolyline
 90
    2
 70
    0
 43
0
 10
87.6253686
 20
86.09797349999999
 10
95.627994
 20
86.09797349999999
  0
LWPOLYLINE
  5
17F
100
AcDbEntity
  8
0
  6
ByLayer
 62
    0
370
   -1
100
AcDbPolyline
 90
    2
 70
    0
 43
0
 10
95.627994
 20
86.09797349999999
 10
95.627994
 20
83.74602390000001
  0
LWPOLYLINE
  5
180
100
AcDbEntity
  8
0
  6
ByLayer
 62
    0
370
   -1
100
AcDbPolyline
 90
    2
 70
    0
 43
0
 10
95.627994
 20
83.74602390000001
 10
103.632144
 20
83.74602390000001
  0
LWPOLYLINE
  5
181
100
AcDbEntity
  8
0
  6
ByLayer
 62
    0
370
   -1
100
AcDbPolyline
 90
    2
 70
    0
 43
0
 10
103.632144
 20
83.74602390000001
 10
103.632144
 20
86.09797349999999
  0
LWPOLYLINE
  5
182
100
AcDbEntity
  8
0
  6
ByLayer
 62
    0
370
   -1
100
AcDbPolyline
 90
    2
 70
    0
 43
0
 10
103.632144
 20
86.09797349999999
 10
111.6345153
 20
86.09797349999999
  0
LWPOLYLINE
  5
183
100
AcDbEntity
  8
0
  6
ByLayer
 62
    0
370
   -1
100
AcDbPolyline
 90
    2
 70
    0
 43
0
 10
111.6345153
 20
86.09797349999999
 10
111.6345153
 20
83.74602390000001
  0
LWPOLYLINE
  5
184
100
AcDbEntity
  8
0
  6
ByLayer
 62
    0
370
   -1
100
AcDbPolyline
 90
    2
 70
    0
 43
0
 10
111.6345153
 20
83.74602390000001
 10
119.6373948
 20
83.74602390000001
  0
LWPOLYLINE
  5
185
100
AcDbEntity
  8
0
  6
ByLayer
 62
    0
370
   -1
100
AcDbPolyline
 90
    2
 70
    0
 43
0
 10
119.6373948
 20
83.74602390000001
 10
119.6373948
 20
75.74339850000001
  0
LWPOLYLINE
  5
186
100
AcDbEntity
  8
0
  6
ByLayer
 62
    0
370
   -1
100
AcDbPolyline
 90
    2
 70
    0
 43
0
 10
119.6373948
 20
75.74339850000001
 10
114.6356904
 20
70.7416941
  0
LWPOLYLINE
  5
187
100
AcDbEntity
  8
0
  6
ByLayer
 62
    0
370
   -1
100
AcDbPolyline
 90
    2
 70
    0
 43
0
 10
114.6356904
 20
70.7416941
 10
84.6241935
 20
70.7416941
  0
LWPOLYLINE
  5
188
100
AcDbEntity
  8
0
  6
ByLayer
 62
    0
370
   -1
100
AcDbPolyline
 90
    5
 70
    1
 43
0
 10
111.6345153
 20
72.99174960000001
 10
111.3849891
 20
72.7422234
 10
111.6345153
 20
72.49269720000001
 10
111.8840415
 20
72.7422234
 10
111.6345153
 20
72.99174960000001
  0
LWPOLYLINE
  5
189
100
AcDbEntity
  8
0
  6
ByLayer
 62
    0
370
   -1
100
AcDbPolyline
 90
    5
 70
    1
 43
0
 10
87.6253686
 20
72.99174960000001
 10
87.3758424
 20
72.7422234
 10
87.6253686
 20
72.49269720000001
 10
87.87489479999999
 20
72.7422234
 10
87.6253686
 20
72.99174960000001
  0
LWPOLYLINE
  5
18A
100
AcDbEntity
  8
0
  6
ByLayer
 62
    0
370
   -1
100
AcDbPolyline
 90
    2
 70
    0
 43
0
 10
71.78528279999999
 20
70.7416941
 10
76.7882577
 20
75.74339850000001
  0
LWPOLYLINE
  5
18B
100
AcDbEntity
  8
0
  6
ByLayer
 62
    0
370
   -1
100
AcDbPolyline
 90
    2
 70
    0
 43
0
 10
76.7882577
 20
75.74339850000001
 10
76.7882577
 20
83.74602390000001
  0
LWPOLYLINE
  5
18C
100
AcDbEntity
  8
0
  6
ByLayer
 62
    0
370
   -1
100
AcDbPolyline
 90
    2
 70
    0
 43
0
 10
76.7882577
 20
83.74602390000001
 10
68.78410770000001
 20
83.74602390000001
  0
LWPOLYLINE
  5
18D
100
AcDbEntity
  8
0
  6
ByLayer
 62
    0
370
   -1
100
AcDbPolyline
 90
    2
 70
    0
 43
0
 10
68.78410770000001
 20
83.74602390000001
 10
68.78410770000001
 20
86.09797349999999
  0
LWPOLYLINE
  5
18E
100
AcDbEntity
  8
0
  6
ByLayer
 62
    0
370
   -1
100
AcDbPolyline
 90
    2
 70
    0
 43
0
 10
68.78410770000001
 20
86.09797349999999
 10
60.78173640000001
 20
86.09797349999999
  0
LWPOLYLINE
  5
18F
100
AcDbEntity
  8
0
  6
ByLayer
 62
    0
370
   -1
100
AcDbPolyline
 90
    2
 70
    0
 43
0
 10
60.78173640000001
 20
86.09797349999999
 10
60.78173640000001
 20
83.74602390000001
  0
LWPOLYLINE
  5
190
100
AcDbEntity
  8
0
  6
ByLayer
 62
    0
370
   -1
100
AcDbPolyline
 90
    2
 70
    0
 43
0
 10
60.78173640000001
 20
83.74602390000001
 10
52.7775864
 20
83.74602390000001
  0
LWPOLYLINE
  5
191
100
AcDbEntity
  8
0
  6
ByLayer
 62
    0
370
   -1
100
AcDbPolyline
 90
    2
 70
    0
 43
0
 10
52.7775864
 20
83.74602390000001
 10
52.7775864
 20
86.09797349999999
  0
LWPOLYLINE
  5
192
100
AcDbEntity
  8
0
  6
ByLayer
 62
    0
370
   -1
100
AcDbPolyline
 90
    2
 70
    0
 43
0
 10
52.7775864
 20
86.09797349999999
 10
44.774961
 20
86.09797349999999
  0
LWPOLYLINE
  5
193
100
AcDbEntity
  8
0
  6
ByLayer
 62
    0
370
   -1
100
AcDbPolyline
 90
    2
 70
    0
 43
0
 10
44.774961
 20
86.09797349999999
 10
44.774961
 20
83.74602390000001
  0
LWPOLYLINE
  5
194
100
AcDbEntity
  8
0
  6
ByLayer
 62
    0
370
   -1
100
AcDbPolyline
 90
    2
 70
    0
 43
0
 10
44.774961
 20
83.74602390000001
 10
36.7720815
 20
83.74602390000001
  0
LWPOLYLINE
  5
195
100
AcDbEntity
  8
0
  6
ByLayer
 62
    0
370
   -1
100
AcDbPolyline
 90
    2
 70
    0
 43
0
 10
36.7720815
 20
83.74602390000001
 10
36.7720815
 20
75.74339850000001
  0
LWPOLYLINE
  5
196
100
AcDbEntity
  8
0
  6
ByLayer
 62
    0
370
   -1
100
AcDbPolyline
 90
    2
 70
    0
 43
0
 10
36.7720815
 20
75.74339850000001
 10
41.7737859
 20
70.7416941
  0
LWPOLYLINE
  5
197
100
AcDbEntity
  8
0
  6
ByLayer
 62
    0
370
   -1
100
AcDbPolyline
 90
    2
 70
    0
 43
0
 10
41.7737859
 20
70.7416941
 10
71.78528279999999
 20
70.7416941
  0
LWPOLYLINE
  5
198
100
AcDbEntity
  8
0
  6
ByLayer
 62
    0
370
   -1
100
AcDbPolyline
 90
    5
 70
    1
 43
0
 10
44.774961
 20
72.99174960000001
 10
44.5254348
 20
72.7422234
 10
44.774961
 20
72.49269720000001
 10
45.0257577
 20
72.7422234
 10
44.774961
 20
72.99174960000001
  0
LWPOLYLINE
  5
199
100
AcDbEntity
  8
0
  6
ByLayer
 62
    0
370
   -1
100
AcDbPolyline
 90
    5
 70
    1
 43
0
 10
68.78410770000001
 20
72.99174960000001
 10
68.5345815
 20
72.7422234
 10
68.78410770000001
 20
72.49269720000001
 10
69.03515849999999
 20
72.7422234
 10
68.78410770000001
 20
72.99174960000001
  0
LWPOLYLINE
  5
19A
100
AcDbEntity
  8
0
  6
ByLayer
 62
    0
370
   -1
100
AcDbPolyline
 90
    2
 70
    0
 43
0
 10
144.2215698
 20
155.0556315
 10
201.9441963
 20
155.0556315
  0
LWPOLYLINE
  5
19B
100
AcDbEntity
  8
0
  6
ByLayer
 62
    0
370
   -1
100
AcDbPolyline
 90
    2
 70
    0
 43
0
 10
201.9441963
 20
155.0556315
 10
206.9456466
 20
160.0573359
  0
LWPOLYLINE
  5
19C
100
AcDbEntity
  8
0
  6
ByLayer
 62
    0
370
   -1
100
AcDbPolyline
 90
    2
 70
    0
 43
0
 10
206.9456466
 20
160.0573359
 10
206.9456466
 20
190.0688328
  0
LWPOLYLINE
  5
19D
100
AcDbEntity
  8
0
  6
ByLayer
 62
    0
370
   -1
100
AcDbPolyline
 90
    2
 70
    0
 43
0
 10
206.9456466
 20
190.0688328
 10
201.9441963
 20
195.0718077
  0
LWPOLYLINE
  5
19E
100
AcDbEntity
  8
0
  6
ByLayer
 62
    0
370
   -1
100
AcDbPolyline
 90
    2
 70
    0
 43
0
 10
201.9441963
 20
195.0718077
 10
144.2215698
 20
195.0718077
  0
LWPOLYLINE
  5
19F
100
AcDbEntity
  8
0
  6
ByLayer
 62
    0
370
   -1
100
AcDbPolyline
 90
    2
 70
    0
 43
0
 10
144.2215698
 20
195.0718077
 10
139.2198654
 20
190.0688328
  0
LWPOLYLINE
  5
1A0
100
AcDbEntity
  8
0
  6
ByLayer
 62
    0
370
   -1
100
AcDbPolyline
 90
    2
 70
    0
 43
0
 10
139.2198654
 20
190.0688328
 10
139.2198654
 20
160.0573359
  0
LWPOLYLINE
  5
1A1
100
AcDbEntity
  8
0
  6
ByLayer
 62
    0
370
   -1
100
AcDbPolyline
 90
    2
 70
    0
 43
0
 10
139.2198654
 20
160.0573359
 10
144.2215698
 20
155.0556315
  0
LWPOLYLINE
  5
1A2
100
AcDbEntity
  8
0
  6
ByLayer
 62
    0
370
   -1
100
AcDbPolyline
 90
    2
 70
    0
 43
0
 10
201.5940465
 20
179.0652864
 10
203.9444715
 20
179.0652864
  0
LWPOLYLINE
  5
1A3
100
AcDbEntity
  8
0
  6
ByLayer
 62
    0
370
   -1
100
AcDbPolyline
 90
    2
 70
    0
 43
0
 10
203.9444715
 20
179.0652864
 10
203.9444715
 20
187.0681659
  0
LWPOLYLINE
  5
1A4
100
AcDbEntity
  8
0
  6
ByLayer
 62
    0
370
   -1
100
AcDbPolyline
 90
    2
 70
    0
 43
0
 10
203.9444715
 20
187.0681659
 10
201.5940465
 20
187.0681659
  0
LWPOLYLINE
  5
1A5
100
AcDbEntity
  8
0
  6
ByLayer
 62
    0
370
   -1
100
AcDbPolyline
 90
    2
 70
    0
 43
0
 10
201.5940465
 20
187.0681659
 10
201.5940465
 20
179.0652864
  0
LWPOLYLINE
  5
1A6
100
AcDbEntity
  8
0
  6
ByLayer
 62
    0
370
   -1
100
AcDbPolyline
 90
    2
 70
    0
 43
0
 10
201.5940465
 20
163.058511
 10
203.9444715
 20
163.058511
  0
LWPOLYLINE
  5
1A7
100
AcDbEntity
  8
0
  6
ByLayer
 62
    0
370
   -1
100
AcDbPolyline
 90
    2
 70
    0
 43
0
 10
203.9444715
 20
163.058511
 10
203.9444715
 20
171.062661
  0
LWPOLYLINE
  5
1A8
100
AcDbEntity
  8
0
  6
ByLayer
 62
    0
370
   -1
100
AcDbPolyline
 90
    2
 70
    0
 43
0
 10
203.9444715
 20
171.062661
 10
201.5940465
 20
171.062661
  0
LWPOLYLINE
  5
1A9
100
AcDbEntity
  8
0
  6
ByLayer
 62
    0
370
   -1
100
AcDbPolyline
 90
    2
 70
    0
 43
0
 10
201.5940465
 20
171.062661
 10
201.5940465
 20
163.058511
  0
LWPOLYLINE
  5
1AA
100
AcDbEntity
  8
0
  6
ByLayer
 62
    0
370
   -1
100
AcDbPolyline
 90
    2
 70
    0
 43
0
 10
142.2212946
 20
179.0652864
 10
144.5717196
 20
179.0652864
  0
LWPOLYLINE
  5
1AB
100
AcDbEntity
  8
0
  6
ByLayer
 62
    0
370
   -1
100
AcDbPolyline
 90
    2
 70
    0
 43
0
 10
144.5717196
 20
179.0652864
 10
144.5717196
 20
187.0681659
  0
LWPOLYLINE
  5
1AC
100
AcDbEntity
  8
0
  6
ByLayer
 62
    0
370
   -1
100
AcDbPolyline
 90
    2
 70
    0
 43
0
 10
144.5717196
 20
187.0681659
 10
142.2212946
 20
187.0681659
  0
LWPOLYLINE
  5
1AD
100
AcDbEntity
  8
0
  6
ByLayer
 62
    0
370
   -1
100
AcDbPolyline
 90
    2
 70
    0
 43
0
 10
142.2212946
 20
187.0681659
 10
142.2212946
 20
179.0652864
  0
LWPOLYLINE
  5
1AE
100
AcDbEntity
  8
0
  6
ByLayer
 62
    0
370
   -1
100
AcDbPolyline
 90
    2
 70
    0
 43
0
 10
142.2212946
 20
163.058511
 10
144.5717196
 20
163.058511
  0
LWPOLYLINE
  5
1AF
100
AcDbEntity
  8
0
  6
ByLayer
 62
    0
370
   -1
100
AcDbPolyline
 90
    2
 70
    0
 43
0
 10
144.5717196
 20
163.058511
 10
144.5717196
 20
171.062661
  0
LWPOLYLINE
  5
1B0
100
AcDbEntity
  8
0
  6
ByLayer
 62
    0
370
   -1
100
AcDbPolyline
 90
    2
 70
    0
 43
0
 10
144.5717196
 20
171.062661
 10
142.2212946
 20
171.062661
  0
LWPOLYLINE
  5
1B1
100
AcDbEntity
  8
0
  6
ByLayer
 62
    0
370
   -1
100
AcDbPolyline
 90
    2
 70
    0
 43
0
 10
142.2212946
 20
171.062661
 10
142.2212946
 20
163.058511
  0
LWPOLYLINE
  5
1B2
100
AcDbEntity
  8
0
  6
ByLayer
 62
    0
370
   -1
100
AcDbPolyline
 90
    2
 70
    0
 43
0
 10
144.2215698
 20
111.6761877
 10
201.9441963
 20
111.6761877
  0
LWPOLYLINE
  5
1B3
100
AcDbEntity
  8
0
  6
ByLayer
 62
    0
370
   -1
100
AcDbPolyline
 90
    2
 70
    0
 43
0
 10
201.9441963
 20
111.6761877
 10
206.9456466
 20
116.6789085
  0
LWPOLYLINE
  5
1B4
100
AcDbEntity
  8
0
  6
ByLayer
 62
    0
370
   -1
100
AcDbPolyline
 90
    2
 70
    0
 43
0
 10
206.9456466
 20
116.6789085
 10
206.9456466
 20
146.6904054
  0
LWPOLYLINE
  5
1B5
100
AcDbEntity
  8
0
  6
ByLayer
 62
    0
370
   -1
100
AcDbPolyline
 90
    2
 70
    0
 43
0
 10
206.9456466
 20
146.6904054
 10
201.9441963
 20
151.6921098
  0
LWPOLYLINE
  5
1B6
100
AcDbEntity
  8
0
  6
ByLayer
 62
    0
370
   -1
100
AcDbPolyline
 90
    2
 70
    0
 43
0
 10
201.9441963
 20
151.6921098
 10
144.2215698
 20
151.6921098
  0
LWPOLYLINE
  5
1B7
100
AcDbEntity
  8
0
  6
ByLayer
 62
    0
370
   -1
100
AcDbPolyline
 90
    2
 70
    0
 43
0
 10
144.2215698
 20
151.6921098
 10
139.2198654
 20
146.6904054
  0
LWPOLYLINE
  5
1B8
100
AcDbEntity
  8
0
  6
ByLayer
 62
    0
370
   -1
100
AcDbPolyline
 90
    2
 70
    0
 43
0
 10
139.2198654
 20
146.6904054
 10
139.2198654
 20
116.6789085
  0
LWPOLYLINE
  5
1B9
100
AcDbEntity
  8
0
  6
ByLayer
 62
    0
370
   -1
100
AcDbPolyline
 90
    2
 70
    0
 43
0
 10
139.2198654
 20
116.6789085
 10
144.2215698
 20
111.6761877
  0
LWPOLYLINE
  5
1BA
100
AcDbEntity
  8
0
  6
ByLayer
 62
    0
370
   -1
100
AcDbPolyline
 90
    2
 70
    0
 43
0
 10
201.5940465
 20
135.6855885
 10
203.9444715
 20
135.6855885
  0
LWPOLYLINE
  5
1BB
100
AcDbEntity
  8
0
  6
ByLayer
 62
    0
370
   -1
100
AcDbPolyline
 90
    2
 70
    0
 43
0
 10
203.9444715
 20
135.6855885
 10
203.9444715
 20
143.6892303
  0
LWPOLYLINE
  5
1BC
100
AcDbEntity
  8
0
  6
ByLayer
 62
    0
370
   -1
100
AcDbPolyline
 90
    2
 70
    0
 43
0
 10
203.9444715
 20
143.6892303
 10
201.5940465
 20
143.6892303
  0
LWPOLYLINE
  5
1BD
100
AcDbEntity
  8
0
  6
ByLayer
 62
    0
370
   -1
100
AcDbPolyline
 90
    2
 70
    0
 43
0
 10
201.5940465
 20
143.6892303
 10
201.5940465
 20
135.6855885
  0
LWPOLYLINE
  5
1BE
100
AcDbEntity
  8
0
  6
ByLayer
 62
    0
370
   -1
100
AcDbPolyline
 90
    2
 70
    0
 43
0
 10
201.5940465
 20
119.6800836
 10
203.9444715
 20
119.6800836
  0
LWPOLYLINE
  5
1BF
100
AcDbEntity
  8
0
  6
ByLayer
 62
    0
370
   -1
100
AcDbPolyline
 90
    2
 70
    0
 43
0
 10
203.9444715
 20
119.6800836
 10
203.9444715
 20
127.682709
  0
LWPOLYLINE
  5
1C0
100
AcDbEntity
  8
0
  6
ByLayer
 62
    0
370
   -1
100
AcDbPolyline
 90
    2
 70
    0
 43
0
 10
203.9444715
 20
127.682709
 10
201.5940465
 20
127.682709
  0
LWPOLYLINE
  5
1C1
100
AcDbEntity
  8
0
  6
ByLayer
 62
    0
370
   -1
100
AcDbPolyline
 90
    2
 70
    0
 43
0
 10
201.5940465
 20
127.682709
 10
201.5940465
 20
119.6800836
  0
LWPOLYLINE
  5
1C2
100
AcDbEntity
  8
0
  6
ByLayer
 62
    0
370
   -1
100
AcDbPolyline
 90
    2
 70
    0
 43
0
 10
142.2212946
 20
135.6855885
 10
144.5717196
 20
135.6855885
  0
LWPOLYLINE
  5
1C3
100
AcDbEntity
  8
0
  6
ByLayer
 62
    0
370
   -1
100
AcDbPolyline
 90
    2
 70
    0
 43
0
 10
144.5717196
 20
135.6855885
 10
144.5717196
 20
143.6892303
  0
LWPOLYLINE
  5
1C4
100
AcDbEntity
  8
0
  6
ByLayer
 62
    0
370
   -1
100
AcDbPolyline
 90
    2
 70
    0
 43
0
 10
144.5717196
 20
143.6892303
 10
142.2212946
 20
143.6892303
  0
LWPOLYLINE
  5
1C5
100
AcDbEntity
  8
0
  6
ByLayer
 62
    0
370
   -1
100
AcDbPolyline
 90
    2
 70
    0
 43
0
 10
142.2212946
 20
143.6892303
 10
142.2212946
 20
135.6855885
  0
LWPOLYLINE
  5
1C6
100
AcDbEntity
  8
0
  6
ByLayer
 62
    0
370
   -1
100
AcDbPolyline
 90
    2
 70
    0
 43
0
 10
142.2212946
 20
119.6800836
 10
144.5717196
 20
119.6800836
  0
LWPOLYLINE
  5
1C7
100
AcDbEntity
  8
0
  6
ByLayer
 62
    0
370
   -1
100
AcDbPolyline
 90
    2
 70
    0
 43
0
 10
144.5717196
 20
119.6800836
 10
144.5717196
 20
127.682709
  0
LWPOLYLINE
  5
1C8
100
AcDbEntity
  8
0
  6
ByLayer
 62
    0
370
   -1
100
AcDbPolyline
 90
    2
 70
    0
 43
0
 10
144.5717196
 20
127.682709
 10
142.2212946
 20
127.682709
  0
LWPOLYLINE
  5
1C9
100
AcDbEntity
  8
0
  6
ByLayer
 62
    0
370
   -1
100
AcDbPolyline
 90
    2
 70
    0
 43
0
 10
142.2212946
 20
127.682709
 10
142.2212946
 20
119.6800836
  0
LWPOLYLINE
  5
1CA
100
AcDbEntity
  8
0
  6
ByLayer
 62
    0
370
   -1
100
AcDbPolyline
 90
    9
 70
    0
 43
0
 10
180.9651921
 20
8.90701812
 10
181.4101212
 20
6.566198099999999
 10
182.6757933
 20
4.64446521
 10
184.5683301
 20
3.33615513
 10
186.8996976
 20
2.83850028
 10
189.2407209
 20
3.285157260000001
 10
191.1637497
 20
4.54930476
 10
192.470586
 20
6.44349321
 10
192.9696384
 20
8.77328529
  0
LWPOLYLINE
  5
1CB
100
AcDbEntity
  8
0
  6
ByLayer
 62
    0
370
   -1
100
AcDbPolyline
 90
    2
 70
    0
 43
0
 10
192.9696384
 20
8.77328529
 10
193.1060901
 20
102.3679965
  0
LWPOLYLINE
  5
1CC
100
AcDbEntity
  8
0
  6
ByLayer
 62
    0
370
   -1
100
AcDbPolyline
 90
   17
 70
    0
 43
0
 10
193.1060901
 20
102.3679965
 10
193.0054665
 20
103.5493074
 10
192.6786939
 20
104.6757327
 10
192.1397478
 20
105.7180509
 10
191.400825
 20
106.6414503
 10
190.4939421
 20
107.4037503
 10
189.4666158
 20
107.9678523
 10
188.3483217
 20
108.3220677
 10
187.1710764
 20
108.4516587
 10
185.9912901
 20
108.34824
 10
184.8661353
 20
108.0199428
 10
183.8255958
 20
107.4782016
 10
182.9032128
 20
106.7354673
 10
182.1419292
 20
105.8265516
 10
181.5813846
 20
104.7982089
 10
181.2297102
 20
103.6788984
 10
181.1026602
 20
102.501399
  0
LWPOLYLINE
  5
1CD
100
AcDbEntity
  8
0
  6
ByLayer
 62
    0
370
   -1
100
AcDbPolyline
 90
    2
 70
    0
 43
0
 10
180.9651921
 20
8.90701812
 10
181.1026602
 20
102.501399
  0
LWPOLYLINE
  5
1CE
100
AcDbEntity
  8
0
  6
ByLayer
 62
    0
370
   -1
100
AcDbPolyline
 90
    5
 70
    1
 43
0
 10
187.0264935
 20
102.1969872
 10
187.3423398
 20
102.3568161
 10
187.1825109
 20
102.6726624
 10
186.8666646
 20
102.5128335
 10
187.0264935
 20
102.1969872
  0
LWPOLYLINE
  5
1CF
100
AcDbEntity
  8
0
  6
ByLayer
 62
    0
370
   -1
100
AcDbPolyline
 90
    5
 70
    1
 43
0
 10
186.8887713
 20
8.6023014
 10
187.2043635
 20
8.76225735
 10
187.0445346
 20
9.077976600000001
 10
186.7289424
 20
8.91799524
 10
186.8887713
 20
8.6023014
  0
LWPOLYLINE
  5
1D0
100
AcDbEntity
  8
0
  6
ByLayer
 62
    0
370
   -1
100
AcDbPolyline
 90
    9
 70
    0
 43
0
 10
195.1724313
 20
8.76916887
 10
195.6742788
 20
6.44209566
 10
196.9839102
 20
4.55344659
 10
198.9056685
 20
3.29344092
 10
201.2451672
 20
2.84952822
 10
203.572215
 20
3.34858062
 10
205.4637354
 20
4.65546774
 10
206.7278829
 20
6.57445635
 10
207.1758612
 20
8.912532089999999
  0
LWPOLYLINE
  5
1D1
100
AcDbEntity
  8
0
  6
ByLayer
 62
    0
370
   -1
100
AcDbPolyline
 90
    2
 70
    0
 43
0
 10
207.1758612
 20
8.912532089999999
 10
206.9580975
 20
102.5072433
  0
LWPOLYLINE
  5
1D2
100
AcDbEntity
  8
0
  6
ByLayer
 62
    0
370
   -1
100
AcDbPolyline
 90
    9
 70
    0
 43
0
 10
206.9580975
 20
102.5072433
 10
206.4577746
 20
104.8383567
 10
205.1494137
 20
106.7298771
 10
203.2248603
 20
107.9940246
 10
200.8840911
 20
108.4364127
 10
198.5527236
 20
107.9373603
 10
196.6614573
 20
106.6292535
 10
195.3973098
 20
104.7062247
 10
194.9546676
 20
102.3639309
  0
LWPOLYLINE
  5
1D3
100
AcDbEntity
  8
0
  6
ByLayer
 62
    0
370
   -1
100
AcDbPolyline
 90
    2
 70
    0
 43
0
 10
195.1724313
 20
8.76916887
 10
194.9546676
 20
102.3639309
  0
LWPOLYLINE
  5
1D4
100
AcDbEntity
  8
0
  6
ByLayer
 62
    0
370
   -1
100
AcDbPolyline
 90
    5
 70
    1
 43
0
 10
201.0345183
 20
102.1969872
 10
201.1943472
 20
102.5128335
 10
200.8785009
 20
102.6726624
 10
200.7184179
 20
102.3568161
 10
201.0345183
 20
102.1969872
  0
LWPOLYLINE
  5
1D5
100
AcDbEntity
  8
0
  6
ByLayer
 62
    0
370
   -1
100
AcDbPolyline
 90
    5
 70
    1
 43
0
 10
201.2520279
 20
8.60235222
 10
201.4121109
 20
8.918020650000001
 10
201.0965187
 20
9.077976600000001
 10
200.9361816
 20
8.76225735
 10
201.2520279
 20
8.60235222
  0
LWPOLYLINE
  5
1D6
100
AcDbEntity
  8
0
  6
ByLayer
 62
    0
370
   -1
100
AcDbPolyline
 90
    5
 70
    1
 43
0
 10
0.1295866803
 20
257.972484
 10
209.9536824
 20
257.972484
 10
209.9536824
 20
0.1295866803
 10
0.1295866803
 20
0.1295866803
 10
0.1295866803
 20
257.972484
  0
LWPOLYLINE
  5
1D7
100
AcDbEntity
  8
0
  6
ByLayer
 62
    0
370
   -1
100
AcDbPolyline
 90
    2
 70
    0
 43
0
 10
107.265774
 20
239.0156076
 10
107.265774
 20
253.0838541
  0
LWPOLYLINE
  5
1D8
100
AcDbEntity
  8
0
  6
ByLayer
 62
    0
370
   -1
100
AcDbPolyline
 90
    2
 70
    0
 43
0
 10
107.265774
 20
253.0838541
 10
91.79159220000001
 20
253.0838541
  0
LWPOLYLINE
  5
1D9
100
AcDbEntity
  8
0
  6
ByLayer
 62
    0
370
   -1
100
AcDbPolyline
 90
    2
 70
    0
 43
0
 10
91.79159220000001
 20
253.0838541
 10
91.79159220000001
 20
255.289188
  0
LWPOLYLINE
  5
1DA
100
AcDbEntity
  8
0
  6
ByLayer
 62
    0
370
   -1
100
AcDbPolyline
 90
    2
 70
    0
 43
0
 10
91.79159220000001
 20
255.289188
 10
77.7228375
 20
255.289188
  0
LWPOLYLINE
  5
1DB
100
AcDbEntity
  8
0
  6
ByLayer
 62
    0
370
   -1
100
AcDbPolyline
 90
    2
 70
    0
 43
0
 10
77.7228375
 20
255.289188
 10
77.7228375
 20
253.0838541
  0
LWPOLYLINE
  5
1DC
100
AcDbEntity
  8
0
  6
ByLayer
 62
    0
370
   -1
100
AcDbPolyline
 90
    2
 70
    0
 43
0
 10
77.7228375
 20
253.0838541
 10
63.6558615
 20
253.0838541
  0
LWPOLYLINE
  5
1DD
100
AcDbEntity
  8
0
  6
ByLayer
 62
    0
370
   -1
100
AcDbPolyline
 90
    2
 70
    0
 43
0
 10
63.6558615
 20
253.0838541
 10
63.6558615
 20
255.289188
  0
LWPOLYLINE
  5
1DE
100
AcDbEntity
  8
0
  6
ByLayer
 62
    0
370
   -1
100
AcDbPolyline
 90
    2
 70
    0
 43
0
 10
63.6558615
 20
255.289188
 10
49.587615
 20
255.289188
  0
LWPOLYLINE
  5
1DF
100
AcDbEntity
  8
0
  6
ByLayer
 62
    0
370
   -1
100
AcDbPolyline
 90
    2
 70
    0
 43
0
 10
49.587615
 20
255.289188
 10
40.7401071
 20
246.5194347
  0
LWPOLYLINE
  5
1E0
100
AcDbEntity
  8
0
  6
ByLayer
 62
    0
370
   -1
100
AcDbPolyline
 90
    2
 70
    0
 43
0
 10
40.7401071
 20
246.5194347
 10
33.2375505
 20
246.5194347
  0
LWPOLYLINE
  5
1E1
100
AcDbEntity
  8
0
  6
ByLayer
 62
    0
370
   -1
100
AcDbPolyline
 90
    2
 70
    0
 43
0
 10
33.2375505
 20
246.5194347
 10
33.2375505
 20
244.314609
  0
LWPOLYLINE
  5
1E2
100
AcDbEntity
  8
0
  6
ByLayer
 62
    0
370
   -1
100
AcDbPolyline
 90
    2
 70
    0
 43
0
 10
33.2375505
 20
244.314609
 10
14.47922784
 20
244.314609
  0
LWPOLYLINE
  5
1E3
100
AcDbEntity
  8
0
  6
ByLayer
 62
    0
370
   -1
100
AcDbPolyline
 90
    2
 70
    0
 43
0
 10
14.47922784
 20
244.314609
 10
14.47922784
 20
246.5194347
  0
LWPOLYLINE
  5
1E4
100
AcDbEntity
  8
0
  6
ByLayer
 62
    0
370
   -1
100
AcDbPolyline
 90
    2
 70
    0
 43
0
 10
14.47922784
 20
246.5194347
 10
4.02268251
 20
246.5194347
  0
LWPOLYLINE
  5
1E5
100
AcDbEntity
  8
0
  6
ByLayer
 62
    0
370
   -1
100
AcDbPolyline
 90
    2
 70
    0
 43
0
 10
4.02268251
 20
246.5194347
 10
4.02268251
 20
235.7331438
  0
LWPOLYLINE
  5
1E6
100
AcDbEntity
  8
0
  6
ByLayer
 62
    0
370
   -1
100
AcDbPolyline
 90
    2
 70
    0
 43
0
 10
4.02268251
 20
235.7331438
 10
1.818347223
 20
235.7331438
  0
LWPOLYLINE
  5
1E7
100
AcDbEntity
  8
0
  6
ByLayer
 62
    0
370
   -1
100
AcDbPolyline
 90
    2
 70
    0
 43
0
 10
1.818347223
 20
235.7331438
 10
1.818347223
 20
221.6661678
  0
LWPOLYLINE
  5
1E8
100
AcDbEntity
  8
0
  6
ByLayer
 62
    0
370
   -1
100
AcDbPolyline
 90
    2
 70
    0
 43
0
 10
1.818347223
 20
221.6661678
 10
10.25938914
 20
211.3486914
  0
LWPOLYLINE
  5
1E9
100
AcDbEntity
  8
0
  6
ByLayer
 62
    0
370
   -1
100
AcDbPolyline
 90
    2
 70
    0
 43
0
 10
10.25938914
 20
211.3486914
 10
10.25938914
 20
180.3998196
  0
LWPOLYLINE
  5
1EA
100
AcDbEntity
  8
0
  6
ByLayer
 62
    0
370
   -1
100
AcDbPolyline
 90
    2
 70
    0
 43
0
 10
10.25938914
 20
180.3998196
 10
13.07308926
 20
177.5859162
  0
LWPOLYLINE
  5
1EB
100
AcDbEntity
  8
0
  6
ByLayer
 62
    0
370
   -1
100
AcDbPolyline
 90
    2
 70
    0
 43
0
 10
13.07308926
 20
177.5859162
 10
26.202792
 20
177.5859162
  0
LWPOLYLINE
  5
1EC
100
AcDbEntity
  8
0
  6
ByLayer
 62
    0
370
   -1
100
AcDbPolyline
 90
    2
 70
    0
 43
0
 10
26.202792
 20
177.5859162
 10
39.7402236
 20
201.0329937
  0
LWPOLYLINE
  5
1ED
100
AcDbEntity
  8
0
  6
ByLayer
 62
    0
370
   -1
100
AcDbPolyline
 90
    2
 70
    0
 43
0
 10
39.7402236
 20
201.0329937
 10
67.8757002
 20
201.0329937
  0
LWPOLYLINE
  5
1EE
100
AcDbEntity
  8
0
  6
ByLayer
 62
    0
370
   -1
100
AcDbPolyline
 90
    2
 70
    0
 43
0
 10
67.8757002
 20
201.0329937
 10
91.3227777
 20
177.5859162
  0
LWPOLYLINE
  5
1EF
100
AcDbEntity
  8
0
  6
ByLayer
 62
    0
370
   -1
100
AcDbPolyline
 90
    2
 70
    0
 43
0
 10
91.3227777
 20
177.5859162
 10
107.265774
 20
177.5859162
  0
LWPOLYLINE
  5
1F0
100
AcDbEntity
  8
0
  6
ByLayer
 62
    0
370
   -1
100
AcDbPolyline
 90
    2
 70
    0
 43
0
 10
107.265774
 20
177.5859162
 10
107.265774
 20
196.8116304
  0
LWPOLYLINE
  5
1F1
100
AcDbEntity
  8
0
  6
ByLayer
 62
    0
370
   -1
100
AcDbPolyline
 90
    2
 70
    0
 43
0
 10
109.4705997
 20
196.8116304
 10
107.265774
 20
196.8116304
  0
LWPOLYLINE
  5
1F2
100
AcDbEntity
  8
0
  6
ByLayer
 62
    0
370
   -1
100
AcDbPolyline
 90
    2
 70
    0
 43
0
 10
109.4705997
 20
210.880131
 10
109.4705997
 20
196.8116304
  0
LWPOLYLINE
  5
1F3
100
AcDbEntity
  8
0
  6
ByLayer
 62
    0
370
   -1
100
AcDbPolyline
 90
    2
 70
    0
 43
0
 10
107.265774
 20
210.880131
 10
109.4705997
 20
210.880131
  0
LWPOLYLINE
  5
1F4
100
AcDbEntity
  8
0
  6
ByLayer
 62
    0
370
   -1
100
AcDbPolyline
 90
    2
 70
    0
 43
0
 10
107.265774
 20
210.880131
 10
107.265774
 20
224.9483775
  0
LWPOLYLINE
  5
1F5
100
AcDbEntity
  8
0
  6
ByLayer
 62
    0
370
   -1
100
AcDbPolyline
 90
    2
 70
    0
 43
0
 10
109.4705997
 20
224.9483775
 10
107.265774
 20
224.9483775
  0
LWPOLYLINE
  5
1F6
100
AcDbEntity
  8
0
  6
ByLayer
 62
    0
370
   -1
100
AcDbPolyline
 90
    2
 70
    0
 43
0
 10
109.4705997
 20
239.0156076
 10
109.4705997
 20
224.9483775
  0
LWPOLYLINE
  5
1F7
100
AcDbEntity
  8
0
  6
ByLayer
 62
    0
370
   -1
100
AcDbPolyline
 90
    2
 70
    0
 43
0
 10
107.265774
 20
239.0156076
 10
109.4705997
 20
239.0156076
  0
LWPOLYLINE
  5
1F8
100
AcDbEntity
  8
0
  6
ByLayer
 62
    0
370
   -1
100
AcDbPolyline
 90
  115
 70
    1
 43
0
 10
75.9103422
 20
212.2863204
 10
76.8395859
 20
212.3124927
 10
77.7670509
 20
212.3897391
 10
78.68816340000001
 20
212.5180596
 10
79.6021611
 20
212.6959296
 10
80.5034538
 20
212.9246196
 10
81.39153329999999
 20
213.2015886
 10
82.26284220000001
 20
213.5283612
 10
83.1145854
 20
213.9021423
 10
83.94447599999999
 20
214.3208991
 10
84.7512435
 20
214.7869185
 10
85.53006000000001
 20
215.2958808
 10
86.27863859999999
 20
215.8470237
 10
86.9967252
 20
216.4385685
 10
87.6817788
 20
217.0684824
 10
88.3297338
 20
217.7344785
 10
88.9421148
 20
218.4360486
 10
89.5128234
 20
219.1706517
 10
90.0436383
 20
219.9344763
 10
90.5302398
 20
220.7275224
 10
90.9723738
 20
221.5462326
 10
91.3695321
 20
222.3873036
 10
91.719936
 20
223.2487026
 10
92.0215527
 20
224.1296673
 10
92.2753986
 20
225.0243534
 10
92.4779163
 20
225.933015
 10
92.6311386
 20
226.8495537
 10
92.73455730000001
 20
227.7744777
 10
92.78537730000001
 20
228.7037214
 10
92.78537730000001
 20
229.6344897
 10
92.73455730000001
 20
230.5622088
 10
92.6311386
 20
231.4871328
 10
92.4779163
 20
232.4051961
 10
92.2753986
 20
233.3125872
 10
92.0215527
 20
234.2085438
 10
91.719936
 20
235.0879839
 10
91.3695321
 20
235.9493829
 10
90.9723738
 20
236.7904539
 10
90.5302398
 20
237.6091641
 10
90.0436383
 20
238.4022102
 10
89.5128234
 20
239.1660348
 10
88.9421148
 20
239.9006379
 10
88.3297338
 20
240.6024621
 10
87.6817788
 20
241.2697287
 10
86.9967252
 20
241.8996426
 10
86.27863859999999
 20
242.4906792
 10
85.53006000000001
 20
243.0410598
 10
84.7512435
 20
243.5495139
 10
83.94447599999999
 20
244.0157874
 10
83.1145854
 20
244.4360688
 10
82.26284220000001
 20
244.8098499
 10
81.39153329999999
 20
245.1350979
 10
80.5034538
 20
245.4135915
 10
79.6021611
 20
245.641011
 10
78.68816340000001
 20
245.8201515
 10
77.7670509
 20
245.9482179
 10
76.8395859
 20
246.0241938
 10
75.9103422
 20
246.0503661
 10
74.97957390000001
 20
246.0241938
 10
74.0531253
 20
245.9482179
 10
73.1309964
 20
245.8201515
 10
72.21826919999999
 20
245.641011
 10
71.31672239999999
 20
245.4135915
 10
70.4291511
 20
245.1350979
 10
69.55784220000001
 20
244.8098499
 10
68.7058449
 20
244.4360688
 10
67.8757002
 20
244.0157874
 10
67.0694409
 20
243.5495139
 10
66.29037030000001
 20
243.0410598
 10
65.5405212
 20
242.4906792
 10
64.8237051
 20
241.8996426
 10
64.1383974
 20
241.2697287
 10
63.4889178
 20
240.6024621
 10
62.8785696
 20
239.9006379
 10
62.307861
 20
239.1660348
 10
61.7770461
 20
238.4022102
 10
61.29044459999999
 20
237.6091641
 10
60.8478024
 20
236.7904539
 10
60.45064410000001
 20
235.9493829
 10
60.1007484
 20
235.0879839
 10
59.7986235
 20
234.2085438
 10
59.54528579999999
 20
233.3125872
 10
59.3412435
 20
232.4051961
 10
59.1880212
 20
231.4871328
 10
59.0861271
 20
230.5622088
 10
59.03479890000001
 20
229.6344897
 10
59.03479890000001
 20
228.7037214
 10
59.0861271
 20
227.7744777
 10
59.1880212
 20
226.8495537
 10
59.3412435
 20
225.933015
 10
59.54528579999999
 20
225.0243534
 10
59.7986235
 20
224.1296673
 10
60.1007484
 20
223.2487026
 10
60.45064410000001
 20
222.3873036
 10
60.8478024
 20
221.5462326
 10
61.29044459999999
 20
220.7275224
 10
61.7770461
 20
219.9344763
 10
62.307861
 20
219.1706517
 10
62.8785696
 20
218.4360486
 10
63.4889178
 20
217.7344785
 10
64.1383974
 20
217.0684824
 10
64.8237051
 20
216.4385685
 10
65.5405212
 20
215.8470237
 10
66.29037030000001
 20
215.2958808
 10
67.0694409
 20
214.7869185
 10
67.8757002
 20
214.3208991
 10
68.7058449
 20
213.9021423
 10
69.55784220000001
 20
213.5283612
 10
70.4291511
 20
213.2015886
 10
71.31672239999999
 20
212.9246196
 10
72.21826919999999
 20
212.6959296
 10
73.1309964
 20
212.5180596
 10
74.0531253
 20
212.3897391
 10
74.97957390000001
 20
212.3124927
 10
75.9103422
 20
212.2863204
  0
LWPOLYLINE
  5
1F9
100
AcDbEntity
  8
0
  6
ByLayer
 62
    0
370
   -1
100
AcDbPolyline
 90
   58
 70
    1
 43
0
 10
42.1473129
 20
220.7275224
 10
43.0752861
 20
220.7783424
 10
43.9918248
 20
220.9328352
 10
44.8877814
 20
221.1849024
 10
45.7496886
 20
221.5353063
 10
46.5671283
 20
221.9774403
 10
47.3306988
 20
222.5069847
 10
48.0327771
 20
223.1178411
 10
48.662691
 20
223.8028947
 10
49.2125634
 20
224.5514733
 10
49.6785828
 20
225.3567162
 10
50.0521098
 20
226.2087135
 10
50.3290788
 20
227.0962848
 10
50.5069488
 20
228.0087579
 10
50.5841952
 20
228.9352065
 10
50.5580229
 20
229.8659748
 10
50.4309729
 20
230.7865791
 10
50.2022829
 20
231.68838
 10
49.8770349
 20
232.5596889
 10
49.4567535
 20
233.3893254
 10
48.9477912
 20
234.1673796
 10
48.3567546
 20
234.8854662
 10
47.6907585
 20
235.5334212
 10
46.9559013
 20
236.1054003
 10
46.1646339
 20
236.5922559
 10
45.3235629
 20
236.9891601
 10
44.4441228
 20
237.2910309
 10
43.5354612
 20
237.4935486
 10
42.6118077
 20
237.5969673
 10
41.6812935
 20
237.5969673
 10
40.75764
 20
237.4935486
 10
39.8507571
 20
237.2910309
 10
38.9697924
 20
236.9891601
 10
38.1287214
 20
236.5922559
 10
37.337454
 20
236.1054003
 10
36.6028509
 20
235.5334212
 10
35.9368548
 20
234.8854662
 10
35.34531
 20
234.1673796
 10
34.8366018
 20
233.3893254
 10
34.4163204
 20
232.5596889
 10
34.0908183
 20
231.68838
 10
33.8621283
 20
230.7865791
 10
33.7353324
 20
229.8659748
 10
33.70916010000001
 20
228.9352065
 10
33.7861524
 20
228.0087579
 10
33.9640224
 20
227.0962848
 10
34.2412455
 20
226.2087135
 10
34.6147725
 20
225.3567162
 10
35.0807919
 20
224.5514733
 10
35.6309184
 20
223.8028947
 10
36.2608323
 20
223.1178411
 10
36.9624024
 20
222.5069847
 10
37.7259729
 20
221.9774403
 10
38.5436667
 20
221.5353063
 10
39.4053198
 20
221.1849024
 10
40.3012764
 20
220.9328352
 10
41.2183233
 20
220.7783424
 10
42.1473129
 20
220.7275224
  0
LWPOLYLINE
  5
1FA
100
AcDbEntity
  8
0
  6
ByLayer
 62
    0
370
   -1
100
AcDbPolyline
 90
    2
 70
    0
 43
0
 10
50.5869903
 20
211.6769886
 10
50.5869903
 20
209.4739416
  0
LWPOLYLINE
  5
1FB
100
AcDbEntity
  8
0
  6
ByLayer
 62
    0
370
   -1
100
AcDbPolyline
 90
    2
 70
    0
 43
0
 10
50.5869903
 20
209.4739416
 10
45.8985912
 20
209.4739416
  0
LWPOLYLINE
  5
1FC
100
AcDbEntity
  8
0
  6
ByLayer
 62
    0
370
   -1
100
AcDbPolyline
 90
    2
 70
    0
 43
0
 10
45.8985912
 20
209.4739416
 10
45.8985912
 20
211.6769886
  0
LWPOLYLINE
  5
1FD
100
AcDbEntity
  8
0
  6
ByLayer
 62
    0
370
   -1
100
AcDbPolyline
 90
    2
 70
    0
 43
0
 10
45.8985912
 20
211.6769886
 10
50.5869903
 20
211.6769886
  0
LWPOLYLINE
  5
1FE
100
AcDbEntity
  8
0
  6
ByLayer
 62
    0
370
   -1
100
AcDbPolyline
 90
    2
 70
    0
 43
0
 10
18.65358264
 20
238.8283359
 10
18.65358264
 20
234.1394286
  0
LWPOLYLINE
  5
1FF
100
AcDbEntity
  8
0
  6
ByLayer
 62
    0
370
   -1
100
AcDbPolyline
 90
    2
 70
    0
 43
0
 10
18.65358264
 20
234.1394286
 10
16.44923973
 20
234.1394286
  0
LWPOLYLINE
  5
200
100
AcDbEntity
  8
0
  6
ByLayer
 62
    0
370
   -1
100
AcDbPolyline
 90
    2
 70
    0
 43
0
 10
16.44923973
 20
234.1394286
 10
16.44923973
 20
238.8283359
  0
LWPOLYLINE
  5
201
100
AcDbEntity
  8
0
  6
ByLayer
 62
    0
370
   -1
100
AcDbPolyline
 90
    2
 70
    0
 43
0
 10
16.44923973
 20
238.8283359
 10
18.65358264
 20
238.8283359
  0
LWPOLYLINE
  5
202
100
AcDbEntity
  8
0
  6
ByLayer
 62
    0
370
   -1
100
AcDbPolyline
 90
    2
 70
    0
 43
0
 10
18.65358264
 20
186.8707302
 10
18.65358264
 20
182.1808065
  0
LWPOLYLINE
  5
203
100
AcDbEntity
  8
0
  6
ByLayer
 62
    0
370
   -1
100
AcDbPolyline
 90
    2
 70
    0
 43
0
 10
18.65358264
 20
182.1808065
 10
16.44923973
 20
182.1808065
  0
LWPOLYLINE
  5
204
100
AcDbEntity
  8
0
  6
ByLayer
 62
    0
370
   -1
100
AcDbPolyline
 90
    2
 70
    0
 43
0
 10
16.44923973
 20
182.1808065
 10
16.44923973
 20
186.8707302
  0
LWPOLYLINE
  5
205
100
AcDbEntity
  8
0
  6
ByLayer
 62
    0
370
   -1
100
AcDbPolyline
 90
    2
 70
    0
 43
0
 10
16.44923973
 20
186.8707302
 10
18.65358264
 20
186.8707302
  0
LWPOLYLINE
  5
206
100
AcDbEntity
  8
0
  6
ByLayer
 62
    0
370
   -1
100
AcDbPolyline
 90
    2
 70
    0
 43
0
 10
102.5456124
 20
211.6769886
 10
102.5456124
 20
209.4739416
  0
LWPOLYLINE
  5
207
100
AcDbEntity
  8
0
  6
ByLayer
 62
    0
370
   -1
100
AcDbPolyline
 90
    2
 70
    0
 43
0
 10
102.5456124
 20
209.4739416
 10
97.8556887
 20
209.4739416
  0
LWPOLYLINE
  5
208
100
AcDbEntity
  8
0
  6
ByLayer
 62
    0
370
   -1
100
AcDbPolyline
 90
    2
 70
    0
 43
0
 10
97.8556887
 20
209.4739416
 10
97.8556887
 20
211.6769886
  0
LWPOLYLINE
  5
209
100
AcDbEntity
  8
0
  6
ByLayer
 62
    0
370
   -1
100
AcDbPolyline
 90
    2
 70
    0
 43
0
 10
97.8556887
 20
211.6769886
 10
102.5456124
 20
211.6769886
  0
LWPOLYLINE
  5
20A
100
AcDbEntity
  8
0
  6
ByLayer
 62
    0
370
   -1
100
AcDbPolyline
 90
    2
 70
    0
 43
0
 10
107.265774
 20
103.4502084
 10
107.265774
 20
89.3817078
  0
LWPOLYLINE
  5
20B
100
AcDbEntity
  8
0
  6
ByLayer
 62
    0
370
   -1
100
AcDbPolyline
 90
    2
 70
    0
 43
0
 10
107.265774
 20
89.3817078
 10
91.79159220000001
 20
89.3817078
  0
LWPOLYLINE
  5
20C
100
AcDbEntity
  8
0
  6
ByLayer
 62
    0
370
   -1
100
AcDbPolyline
 90
    2
 70
    0
 43
0
 10
91.79159220000001
 20
89.3817078
 10
91.79159220000001
 20
87.1784067
  0
LWPOLYLINE
  5
20D
100
AcDbEntity
  8
0
  6
ByLayer
 62
    0
370
   -1
100
AcDbPolyline
 90
    2
 70
    0
 43
0
 10
91.79159220000001
 20
87.1784067
 10
77.7228375
 20
87.1784067
  0
LWPOLYLINE
  5
20E
100
AcDbEntity
  8
0
  6
ByLayer
 62
    0
370
   -1
100
AcDbPolyline
 90
    2
 70
    0
 43
0
 10
77.7228375
 20
87.1784067
 10
77.7228375
 20
89.3817078
  0
LWPOLYLINE
  5
20F
100
AcDbEntity
  8
0
  6
ByLayer
 62
    0
370
   -1
100
AcDbPolyline
 90
    2
 70
    0
 43
0
 10
77.7228375
 20
89.3817078
 10
63.6558615
 20
89.3817078
  0
LWPOLYLINE
  5
210
100
AcDbEntity
  8
0
  6
ByLayer
 62
    0
370
   -1
100
AcDbPolyline
 90
    2
 70
    0
 43
0
 10
63.6558615
 20
89.3817078
 10
63.6558615
 20
87.1784067
  0
LWPOLYLINE
  5
211
100
AcDbEntity
  8
0
  6
ByLayer
 62
    0
370
   -1
100
AcDbPolyline
 90
    2
 70
    0
 43
0
 10
63.6558615
 20
87.1784067
 10
49.587615
 20
87.1784067
  0
LWPOLYLINE
  5
212
100
AcDbEntity
  8
0
  6
ByLayer
 62
    0
370
   -1
100
AcDbPolyline
 90
    2
 70
    0
 43
0
 10
49.587615
 20
87.1784067
 10
40.7401071
 20
95.94790590000001
  0
LWPOLYLINE
  5
213
100
AcDbEntity
  8
0
  6
ByLayer
 62
    0
370
   -1
100
AcDbPolyline
 90
    2
 70
    0
 43
0
 10
40.7401071
 20
95.94790590000001
 10
33.2375505
 20
95.94790590000001
  0
LWPOLYLINE
  5
214
100
AcDbEntity
  8
0
  6
ByLayer
 62
    0
370
   -1
100
AcDbPolyline
 90
    2
 70
    0
 43
0
 10
33.2375505
 20
95.94790590000001
 10
33.2375505
 20
98.1506988
  0
LWPOLYLINE
  5
215
100
AcDbEntity
  8
0
  6
ByLayer
 62
    0
370
   -1
100
AcDbPolyline
 90
    2
 70
    0
 43
0
 10
33.2375505
 20
98.1506988
 10
14.47922784
 20
98.1506988
  0
LWPOLYLINE
  5
216
100
AcDbEntity
  8
0
  6
ByLayer
 62
    0
370
   -1
100
AcDbPolyline
 90
    2
 70
    0
 43
0
 10
14.47922784
 20
98.1506988
 10
14.47922784
 20
95.94790590000001
  0
LWPOLYLINE
  5
217
100
AcDbEntity
  8
0
  6
ByLayer
 62
    0
370
   -1
100
AcDbPolyline
 90
    2
 70
    0
 43
0
 10
14.47922784
 20
95.94790590000001
 10
4.02268251
 20
95.94790590000001
  0
LWPOLYLINE
  5
218
100
AcDbEntity
  8
0
  6
ByLayer
 62
    0
370
   -1
100
AcDbPolyline
 90
    2
 70
    0
 43
0
 10
4.02268251
 20
95.94790590000001
 10
4.02268251
 20
106.7326722
  0
LWPOLYLINE
  5
219
100
AcDbEntity
  8
0
  6
ByLayer
 62
    0
370
   -1
100
AcDbPolyline
 90
    2
 70
    0
 43
0
 10
4.02268251
 20
106.7326722
 10
1.818347223
 20
106.7326722
  0
LWPOLYLINE
  5
21A
100
AcDbEntity
  8
0
  6
ByLayer
 62
    0
370
   -1
100
AcDbPolyline
 90
    2
 70
    0
 43
0
 10
1.818347223
 20
106.7326722
 10
1.818347223
 20
120.8009187
  0
LWPOLYLINE
  5
21B
100
AcDbEntity
  8
0
  6
ByLayer
 62
    0
370
   -1
100
AcDbPolyline
 90
    2
 70
    0
 43
0
 10
1.818347223
 20
120.8009187
 10
10.25938914
 20
131.1166164
  0
LWPOLYLINE
  5
21C
100
AcDbEntity
  8
0
  6
ByLayer
 62
    0
370
   -1
100
AcDbPolyline
 90
    2
 70
    0
 43
0
 10
10.25938914
 20
131.1166164
 10
10.25938914
 20
162.067521
  0
LWPOLYLINE
  5
21D
100
AcDbEntity
  8
0
  6
ByLayer
 62
    0
370
   -1
100
AcDbPolyline
 90
    2
 70
    0
 43
0
 10
10.25938914
 20
162.067521
 10
13.07308926
 20
164.8809162
  0
LWPOLYLINE
  5
21E
100
AcDbEntity
  8
0
  6
ByLayer
 62
    0
370
   -1
100
AcDbPolyline
 90
    2
 70
    0
 43
0
 10
13.07308926
 20
164.8809162
 10
26.202792
 20
164.8809162
  0
LWPOLYLINE
  5
21F
100
AcDbEntity
  8
0
  6
ByLayer
 62
    0
370
   -1
100
AcDbPolyline
 90
    2
 70
    0
 43
0
 10
26.202792
 20
164.8809162
 10
39.7402236
 20
141.4340928
  0
LWPOLYLINE
  5
220
100
AcDbEntity
  8
0
  6
ByLayer
 62
    0
370
   -1
100
AcDbPolyline
 90
    2
 70
    0
 43
0
 10
39.7402236
 20
141.4340928
 10
67.8757002
 20
141.4340928
  0
LWPOLYLINE
  5
221
100
AcDbEntity
  8
0
  6
ByLayer
 62
    0
370
   -1
100
AcDbPolyline
 90
    2
 70
    0
 43
0
 10
67.8757002
 20
141.4340928
 10
91.3227777
 20
164.8809162
  0
LWPOLYLINE
  5
222
100
AcDbEntity
  8
0
  6
ByLayer
 62
    0
370
   -1
100
AcDbPolyline
 90
    2
 70
    0
 43
0
 10
91.3227777
 20
164.8809162
 10
107.265774
 20
164.8809162
  0
LWPOLYLINE
  5
223
100
AcDbEntity
  8
0
  6
ByLayer
 62
    0
370
   -1
100
AcDbPolyline
 90
    2
 70
    0
 43
0
 10
107.265774
 20
164.8809162
 10
107.265774
 20
145.6539315
  0
LWPOLYLINE
  5
224
100
AcDbEntity
  8
0
  6
ByLayer
 62
    0
370
   -1
100
AcDbPolyline
 90
    2
 70
    0
 43
0
 10
109.4705997
 20
145.6539315
 10
107.265774
 20
145.6539315
  0
LWPOLYLINE
  5
225
100
AcDbEntity
  8
0
  6
ByLayer
 62
    0
370
   -1
100
AcDbPolyline
 90
    2
 70
    0
 43
0
 10
109.4705997
 20
131.5867014
 10
109.4705997
 20
145.6539315
  0
LWPOLYLINE
  5
226
100
AcDbEntity
  8
0
  6
ByLayer
 62
    0
370
   -1
100
AcDbPolyline
 90
    2
 70
    0
 43
0
 10
107.265774
 20
131.5867014
 10
109.4705997
 20
131.5867014
  0
LWPOLYLINE
  5
227
100
AcDbEntity
  8
0
  6
ByLayer
 62
    0
370
   -1
100
AcDbPolyline
 90
    2
 70
    0
 43
0
 10
107.265774
 20
131.5867014
 10
107.265774
 20
117.5184549
  0
LWPOLYLINE
  5
228
100
AcDbEntity
  8
0
  6
ByLayer
 62
    0
370
   -1
100
AcDbPolyline
 90
    2
 70
    0
 43
0
 10
109.4705997
 20
117.5184549
 10
107.265774
 20
117.5184549
  0
LWPOLYLINE
  5
229
100
AcDbEntity
  8
0
  6
ByLayer
 62
    0
370
   -1
100
AcDbPolyline
 90
    2
 70
    0
 43
0
 10
109.4705997
 20
103.4502084
 10
109.4705997
 20
117.5184549
  0
LWPOLYLINE
  5
22A
100
AcDbEntity
  8
0
  6
ByLayer
 62
    0
370
   -1
100
AcDbPolyline
 90
    2
 70
    0
 43
0
 10
107.265774
 20
103.4502084
 10
109.4705997
 20
103.4502084
  0
LWPOLYLINE
  5
22B
100
AcDbEntity
  8
0
  6
ByLayer
 62
    0
370
   -1
100
AcDbPolyline
 90
  115
 70
    1
 43
0
 10
75.9103422
 20
130.1792415
 10
76.8395859
 20
130.1545938
 10
77.7670509
 20
130.0773474
 10
78.68816340000001
 20
129.949281
 10
79.6021611
 20
129.771411
 10
80.5034538
 20
129.542721
 10
81.39153329999999
 20
129.2652438
 10
82.26284220000001
 20
128.9387253
 10
83.1145854
 20
128.5651983
 10
83.94447599999999
 20
128.1446628
 10
84.7512435
 20
127.6799139
 10
85.53006000000001
 20
127.1714598
 10
86.27863859999999
 20
126.6198087
 10
86.9967252
 20
126.0282639
 10
87.6817788
 20
125.39835
 10
88.3297338
 20
124.7313375
 10
88.9421148
 20
124.0295133
 10
89.5128234
 20
123.2959266
 10
90.0436383
 20
122.5308315
 10
90.5302398
 20
121.7382936
 10
90.9723738
 20
120.9208539
 10
91.3695321
 20
120.0797829
 10
91.719936
 20
119.2171134
 10
92.0215527
 20
118.3374192
 10
92.2753986
 20
117.442479
 10
92.4779163
 20
116.5340715
 10
92.6311386
 20
115.6162623
 10
92.73455730000001
 20
114.6923547
 10
92.78537730000001
 20
113.7633651
 10
92.78537730000001
 20
112.8328509
 10
92.73455730000001
 20
111.9036072
 10
92.6311386
 20
110.9799537
 10
92.4779163
 20
110.0616363
 10
92.2753986
 20
109.1532288
 10
92.0215527
 20
108.2585427
 10
91.719936
 20
107.3791026
 10
91.3695321
 20
106.5159249
 10
90.9723738
 20
105.6753621
 10
90.5302398
 20
104.8576683
 10
90.0436383
 20
104.0648763
 10
89.5128234
 20
103.2997812
 10
88.9421148
 20
102.5664486
 10
88.3297338
 20
101.8648785
 10
87.6817788
 20
101.1973578
 10
86.9967252
 20
100.5674439
 10
86.27863859999999
 20
99.97589909999999
 10
85.53006000000001
 20
99.4247562
 10
84.7512435
 20
98.91579390000001
 10
83.94447599999999
 20
98.4512991
 10
83.1145854
 20
98.0307636
 10
82.26284220000001
 20
97.6572366
 10
81.39153329999999
 20
97.33046400000001
 10
80.5034538
 20
97.053495
 10
79.6021611
 20
96.82455090000001
 10
78.68816340000001
 20
96.646935
 10
77.7670509
 20
96.51836039999999
 10
76.8395859
 20
96.4416222
 10
75.9103422
 20
96.41646630000001
 10
74.97957390000001
 20
96.4416222
 10
74.0531253
 20
96.51836039999999
 10
73.1309964
 20
96.646935
 10
72.21826919999999
 20
96.82455090000001
 10
71.31672239999999
 20
97.053495
 10
70.4291511
 20
97.33046400000001
 10
69.55784220000001
 20
97.6572366
 10
68.7058449
 20
98.0307636
 10
67.8757002
 20
98.4512991
 10
67.0694409
 20
98.91579390000001
 10
66.29037030000001
 20
99.4247562
 10
65.5405212
 20
99.97589909999999
 10
64.8237051
 20
100.5674439
 10
64.1383974
 20
101.1973578
 10
63.4889178
 20
101.8648785
 10
62.8785696
 20
102.5664486
 10
62.307861
 20
103.2997812
 10
61.7770461
 20
104.0648763
 10
61.29044459999999
 20
104.8576683
 10
60.8478024
 20
105.6753621
 10
60.45064410000001
 20
106.5159249
 10
60.1007484
 20
107.3791026
 10
59.7986235
 20
108.2585427
 10
59.54528579999999
 20
109.1532288
 10
59.3412435
 20
110.0616363
 10
59.1880212
 20
110.9799537
 10
59.0861271
 20
111.9036072
 10
59.03479890000001
 20
112.8328509
 10
59.03479890000001
 20
113.7633651
 10
59.0861271
 20
114.6923547
 10
59.1880212
 20
115.6162623
 10
59.3412435
 20
116.5340715
 10
59.54528579999999
 20
117.442479
 10
59.7986235
 20
118.3374192
 10
60.1007484
 20
119.2171134
 10
60.45064410000001
 20
120.0797829
 10
60.8478024
 20
120.9208539
 10
61.29044459999999
 20
121.7382936
 10
61.7770461
 20
122.5308315
 10
62.307861
 20
123.2959266
 10
62.8785696
 20
124.0295133
 10
63.4889178
 20
124.7313375
 10
64.1383974
 20
125.39835
 10
64.8237051
 20
126.0282639
 10
65.5405212
 20
126.6198087
 10
66.29037030000001
 20
127.1714598
 10
67.0694409
 20
127.6799139
 10
67.8757002
 20
128.1446628
 10
68.7058449
 20
128.5651983
 10
69.55784220000001
 20
128.9387253
 10
70.4291511
 20
129.2652438
 10
71.31672239999999
 20
129.542721
 10
72.21826919999999
 20
129.771411
 10
73.1309964
 20
129.949281
 10
74.0531253
 20
130.0773474
 10
74.97957390000001
 20
130.1545938
 10
75.9103422
 20
130.1792415
  0
LWPOLYLINE
  5
22C
100
AcDbEntity
  8
0
  6
ByLayer
 62
    0
370
   -1
100
AcDbPolyline
 90
   58
 70
    1
 43
0
 10
42.1473129
 20
121.7382936
 10
43.0752861
 20
121.6874736
 10
43.9918248
 20
121.5342513
 10
44.8877814
 20
121.28193
 10
45.7496886
 20
120.9317802
 10
46.5671283
 20
120.4893921
 10
47.3306988
 20
119.9585772
 10
48.0327771
 20
119.3479749
 10
48.662691
 20
118.6639377
 10
49.2125634
 20
117.9140886
 10
49.6785828
 20
117.1090998
 10
50.0521098
 20
116.2571025
 10
50.3290788
 20
115.3705476
 10
50.5069488
 20
114.4578204
 10
50.5841952
 20
113.5301013
 10
50.5580229
 20
112.6011117
 10
50.4309729
 20
111.6802533
 10
50.2022829
 20
110.7787065
 10
49.8770349
 20
109.9073976
 10
49.4567535
 20
109.0772529
 10
48.9477912
 20
108.2984364
 10
48.3567546
 20
107.5816203
 10
47.6907585
 20
106.9323948
 10
46.9559013
 20
106.3616862
 10
46.1646339
 20
105.8750847
 10
45.3235629
 20
105.4779264
 10
44.4441228
 20
105.1763097
 10
43.5354612
 20
104.9720133
 10
42.6118077
 20
104.8698651
 10
41.6812935
 20
104.8698651
 10
40.75764
 20
104.9720133
 10
39.8507571
 20
105.1763097
 10
38.9697924
 20
105.4779264
 10
38.1287214
 20
105.8750847
 10
37.337454
 20
106.3616862
 10
36.6028509
 20
106.9323948
 10
35.9368548
 20
107.5816203
 10
35.34531
 20
108.2984364
 10
34.8366018
 20
109.0772529
 10
34.4163204
 20
109.9073976
 10
34.0908183
 20
110.7787065
 10
33.8621283
 20
111.6802533
 10
33.7353324
 20
112.6011117
 10
33.70916010000001
 20
113.5301013
 10
33.7861524
 20
114.4578204
 10
33.9640224
 20
115.3705476
 10
34.2412455
 20
116.2571025
 10
34.6147725
 20
117.1090998
 10
35.0807919
 20
117.9140886
 10
35.6309184
 20
118.6639377
 10
36.2608323
 20
119.3479749
 10
36.9624024
 20
119.9585772
 10
37.7259729
 20
120.4893921
 10
38.5436667
 20
120.9317802
 10
39.4053198
 20
121.28193
 10
40.3012764
 20
121.5342513
 10
41.2183233
 20
121.6874736
 10
42.1473129
 20
121.7382936
  0
LWPOLYLINE
  5
22D
100
AcDbEntity
  8
0
  6
ByLayer
 62
    0
370
   -1
100
AcDbPolyline
 90
    2
 70
    0
 43
0
 10
18.65358264
 20
103.6374801
 10
18.65358264
 20
108.3274038
  0
LWPOLYLINE
  5
22E
100
AcDbEntity
  8
0
  6
ByLayer
 62
    0
370
   -1
100
AcDbPolyline
 90
    2
 70
    0
 43
0
 10
18.65358264
 20
108.3274038
 10
16.44923973
 20
108.3274038
  0
LWPOLYLINE
  5
22F
100
AcDbEntity
  8
0
  6
ByLayer
 62
    0
370
   -1
100
AcDbPolyline
 90
    2
 70
    0
 43
0
 10
16.44923973
 20
108.3274038
 10
16.44923973
 20
103.6374801
  0
LWPOLYLINE
  5
230
100
AcDbEntity
  8
0
  6
ByLayer
 62
    0
370
   -1
100
AcDbPolyline
 90
    2
 70
    0
 43
0
 10
16.44923973
 20
103.6374801
 10
18.65358264
 20
103.6374801
  0
LWPOLYLINE
  5
231
100
AcDbEntity
  8
0
  6
ByLayer
 62
    0
370
   -1
100
AcDbPolyline
 90
    2
 70
    0
 43
0
 10
50.5869903
 20
130.7888274
 10
50.5869903
 20
132.9931449
  0
LWPOLYLINE
  5
232
100
AcDbEntity
  8
0
  6
ByLayer
 62
    0
370
   -1
100
AcDbPolyline
 90
    2
 70
    0
 43
0
 10
50.5869903
 20
132.9931449
 10
45.8985912
 20
132.9931449
  0
LWPOLYLINE
  5
233
100
AcDbEntity
  8
0
  6
ByLayer
 62
    0
370
   -1
100
AcDbPolyline
 90
    2
 70
    0
 43
0
 10
45.8985912
 20
132.9931449
 10
45.8985912
 20
130.7888274
  0
LWPOLYLINE
  5
234
100
AcDbEntity
  8
0
  6
ByLayer
 62
    0
370
   -1
100
AcDbPolyline
 90
    2
 70
    0
 43
0
 10
45.8985912
 20
130.7888274
 10
50.5869903
 20
130.7888274
  0
LWPOLYLINE
  5
235
100
AcDbEntity
  8
0
  6
ByLayer
 62
    0
370
   -1
100
AcDbPolyline
 90
    2
 70
    0
 43
0
 10
18.65358264
 20
155.5963563
 10
18.65358264
 20
160.2847554
  0
LWPOLYLINE
  5
236
100
AcDbEntity
  8
0
  6
ByLayer
 62
    0
370
   -1
100
AcDbPolyline
 90
    2
 70
    0
 43
0
 10
18.65358264
 20
160.2847554
 10
16.44923973
 20
160.2847554
  0
LWPOLYLINE
  5
237
100
AcDbEntity
  8
0
  6
ByLayer
 62
    0
370
   -1
100
AcDbPolyline
 90
    2
 70
    0
 43
0
 10
16.44923973
 20
160.2847554
 10
16.44923973
 20
155.5963563
  0
LWPOLYLINE
  5
238
100
AcDbEntity
  8
0
  6
ByLayer
 62
    0
370
   -1
100
AcDbPolyline
 90
    2
 70
    0
 43
0
 10
16.44923973
 20
155.5963563
 10
18.65358264
 20
155.5963563
  0
LWPOLYLINE
  5
239
100
AcDbEntity
  8
0
  6
ByLayer
 62
    0
370
   -1
100
AcDbPolyline
 90
    2
 70
    0
 43
0
 10
102.5456124
 20
130.7888274
 10
102.5456124
 20
132.9931449
  0
LWPOLYLINE
  5
23A
100
AcDbEntity
  8
0
  6
ByLayer
 62
    0
370
   -1
100
AcDbPolyline
 90
    2
 70
    0
 43
0
 10
102.5456124
 20
132.9931449
 10
97.8556887
 20
132.9931449
  0
LWPOLYLINE
  5
23B
100
AcDbEntity
  8
0
  6
ByLayer
 62
    0
370
   -1
100
AcDbPolyline
 90
    2
 70
    0
 43
0
 10
97.8556887
 20
132.9931449
 10
97.8556887
 20
130.7888274
  0
LWPOLYLINE
  5
23C
100
AcDbEntity
  8
0
  6
ByLayer
 62
    0
370
   -1
100
AcDbPolyline
 90
    2
 70
    0
 43
0
 10
97.8556887
 20
130.7888274
 10
102.5456124
 20
130.7888274
  0
LWPOLYLINE
  5
23D
100
AcDbEntity
  8
0
  6
ByLayer
 62
    0
370
   -1
100
AcDbPolyline
 90
    2
 70
    0
 43
0
 10
108.7258326
 20
29.3251728
 10
88.0926585
 20
29.3251728
  0
LWPOLYLINE
  5
23E
100
AcDbEntity
  8
0
  6
ByLayer
 62
    0
370
   -1
100
AcDbPolyline
 90
    2
 70
    0
 43
0
 10
88.0926585
 20
29.3251728
 10
88.0926585
 20
27.1221258
  0
LWPOLYLINE
  5
23F
100
AcDbEntity
  8
0
  6
ByLayer
 62
    0
370
   -1
100
AcDbPolyline
 90
    2
 70
    0
 43
0
 10
88.0926585
 20
27.1221258
 10
74.02415790000001
 20
27.1221258
  0
LWPOLYLINE
  5
240
100
AcDbEntity
  8
0
  6
ByLayer
 62
    0
370
   -1
100
AcDbPolyline
 90
    2
 70
    0
 43
0
 10
74.02415790000001
 20
27.1221258
 10
74.02415790000001
 20
29.3251728
  0
LWPOLYLINE
  5
241
100
AcDbEntity
  8
0
  6
ByLayer
 62
    0
370
   -1
100
AcDbPolyline
 90
    2
 70
    0
 43
0
 10
74.02415790000001
 20
29.3251728
 10
55.2675123
 20
29.3251728
  0
LWPOLYLINE
  5
242
100
AcDbEntity
  8
0
  6
ByLayer
 62
    0
370
   -1
100
AcDbPolyline
 90
    2
 70
    0
 43
0
 10
55.2675123
 20
29.3251728
 10
55.2675123
 20
34.0150965
  0
LWPOLYLINE
  5
243
100
AcDbEntity
  8
0
  6
ByLayer
 62
    0
370
   -1
100
AcDbPolyline
 90
    2
 70
    0
 43
0
 10
55.2675123
 20
34.0150965
 10
57.47182979999999
 20
34.0150965
  0
LWPOLYLINE
  5
244
100
AcDbEntity
  8
0
  6
ByLayer
 62
    0
370
   -1
100
AcDbPolyline
 90
    2
 70
    0
 43
0
 10
57.47182979999999
 20
34.0150965
 10
57.47182979999999
 20
38.7050202
  0
LWPOLYLINE
  5
245
100
AcDbEntity
  8
0
  6
ByLayer
 62
    0
370
   -1
100
AcDbPolyline
 90
    2
 70
    0
 43
0
 10
57.47182979999999
 20
38.7050202
 10
55.2675123
 20
38.7050202
  0
LWPOLYLINE
  5
246
100
AcDbEntity
  8
0
  6
ByLayer
 62
    0
370
   -1
100
AcDbPolyline
 90
    2
 70
    0
 43
0
 10
55.2675123
 20
38.7050202
 10
55.2675123
 20
43.3936734
  0
LWPOLYLINE
  5
247
100
AcDbEntity
  8
0
  6
ByLayer
 62
    0
370
   -1
100
AcDbPolyline
 90
    2
 70
    0
 43
0
 10
55.2675123
 20
43.3936734
 10
57.47182979999999
 20
43.3936734
  0
LWPOLYLINE
  5
248
100
AcDbEntity
  8
0
  6
ByLayer
 62
    0
370
   -1
100
AcDbPolyline
 90
    2
 70
    0
 43
0
 10
57.47182979999999
 20
43.3936734
 10
57.47182979999999
 20
48.0835971
  0
LWPOLYLINE
  5
249
100
AcDbEntity
  8
0
  6
ByLayer
 62
    0
370
   -1
100
AcDbPolyline
 90
    2
 70
    0
 43
0
 10
57.47182979999999
 20
48.0835971
 10
106.5215151
 20
48.0835971
  0
LWPOLYLINE
  5
24A
100
AcDbEntity
  8
0
  6
ByLayer
 62
    0
370
   -1
100
AcDbPolyline
 90
    2
 70
    0
 43
0
 10
106.5215151
 20
48.0835971
 10
106.5215151
 20
43.3936734
  0
LWPOLYLINE
  5
24B
100
AcDbEntity
  8
0
  6
ByLayer
 62
    0
370
   -1
100
AcDbPolyline
 90
    2
 70
    0
 43
0
 10
106.5215151
 20
43.3936734
 10
108.7258326
 20
43.3936734
  0
LWPOLYLINE
  5
24C
100
AcDbEntity
  8
0
  6
ByLayer
 62
    0
370
   -1
100
AcDbPolyline
 90
    2
 70
    0
 43
0
 10
108.7258326
 20
43.3936734
 10
108.7258326
 20
38.7050202
  0
LWPOLYLINE
  5
24D
100
AcDbEntity
  8
0
  6
ByLayer
 62
    0
370
   -1
100
AcDbPolyline
 90
    2
 70
    0
 43
0
 10
108.7258326
 20
38.7050202
 10
106.5215151
 20
38.7050202
  0
LWPOLYLINE
  5
24E
100
AcDbEntity
  8
0
  6
ByLayer
 62
    0
370
   -1
100
AcDbPolyline
 90
    2
 70
    0
 43
0
 10
106.5215151
 20
38.7050202
 10
106.5215151
 20
34.0150965
  0
LWPOLYLINE
  5
24F
100
AcDbEntity
  8
0
  6
ByLayer
 62
    0
370
   -1
100
AcDbPolyline
 90
    2
 70
    0
 43
0
 10
106.5215151
 20
34.0150965
 10
108.7258326
 20
34.0150965
  0
LWPOLYLINE
  5
250
100
AcDbEntity
  8
0
  6
ByLayer
 62
    0
370
   -1
100
AcDbPolyline
 90
    2
 70
    0
 43
0
 10
108.7258326
 20
34.0150965
 10
108.7258326
 20
29.3251728
  0
LWPOLYLINE
  5
251
100
AcDbEntity
  8
0
  6
ByLayer
 62
    0
370
   -1
100
AcDbPolyline
 90
   33
 70
    1
 43
0
 10
66.9906699
 20
38.7050202
 10
67.0803672
 20
37.7894979
 10
67.3476804
 20
36.9100578
 10
67.7809209
 20
36.0994788
 10
68.3638263
 20
35.3879988
 10
69.07530630000001
 20
34.8050934
 10
69.88563119999999
 20
34.372107
 10
70.76532540000001
 20
34.1047938
 10
71.679069
 20
34.0150965
 10
72.5945913
 20
34.1047938
 10
73.4740314
 20
34.372107
 10
74.28461039999999
 20
34.8050934
 10
74.9960904
 20
35.3879988
 10
75.57924990000001
 20
36.0994788
 10
76.0122363
 20
36.9100578
 10
76.27980359999999
 20
37.7894979
 10
76.36950090000001
 20
38.7050202
 10
76.27980359999999
 20
39.6190179
 10
76.0122363
 20
40.4987121
 10
75.57924990000001
 20
41.3092911
 10
74.9960904
 20
42.02026290000001
 10
74.28461039999999
 20
42.6036765
 10
73.4740314
 20
43.0364088
 10
72.5945913
 20
43.3039761
 10
71.679069
 20
43.3936734
 10
70.76532540000001
 20
43.3039761
 10
69.88563119999999
 20
43.0364088
 10
69.07530630000001
 20
42.6036765
 10
68.3638263
 20
42.02026290000001
 10
67.7809209
 20
41.3092911
 10
67.3476804
 20
40.4987121
 10
67.0803672
 20
39.6190179
 10
66.9906699
 20
38.7050202
  0
LWPOLYLINE
  5
252
100
AcDbEntity
  8
0
  6
ByLayer
 62
    0
370
   -1
100
AcDbPolyline
 90
   33
 70
    1
 43
0
 10
85.7478237
 20
38.7050202
 10
85.8387915
 20
37.7894979
 10
86.10458009999999
 20
36.9100578
 10
86.5375665
 20
36.0994788
 10
87.12072599999999
 20
35.3879988
 10
87.832206
 20
34.8050934
 10
88.642785
 20
34.372107
 10
89.5222251
 20
34.1047938
 10
90.43774740000001
 20
34.0150965
 10
91.3517451
 20
34.1047938
 10
92.2311852
 20
34.372107
 10
93.0432888
 20
34.8050934
 10
93.75299010000001
 20
35.3879988
 10
94.33640370000001
 20
36.0994788
 10
94.769136
 20
36.9100578
 10
95.0367033
 20
37.7894979
 10
95.1261465
 20
38.7050202
 10
95.0367033
 20
39.6190179
 10
94.769136
 20
40.4987121
 10
94.33640370000001
 20
41.3092911
 10
93.75299010000001
 20
42.02026290000001
 10
93.0432888
 20
42.6036765
 10
92.2311852
 20
43.0364088
 10
91.3517451
 20
43.3039761
 10
90.43774740000001
 20
43.3936734
 10
89.5222251
 20
43.3039761
 10
88.642785
 20
43.0364088
 10
87.832206
 20
42.6036765
 10
87.12072599999999
 20
42.02026290000001
 10
86.5375665
 20
41.3092911
 10
86.10458009999999
 20
40.4987121
 10
85.8387915
 20
39.6190179
 10
85.7478237
 20
38.7050202
  0
LWPOLYLINE
  5
253
100
AcDbEntity
  8
0
  6
ByLayer
 62
    0
370
   -1
100
AcDbPolyline
 90
    2
 70
    0
 43
0
 10
53.39098379999999
 20
22.88721897
 10
74.02415790000001
 20
22.88721897
  0
LWPOLYLINE
  5
254
100
AcDbEntity
  8
0
  6
ByLayer
 62
    0
370
   -1
100
AcDbPolyline
 90
    2
 70
    0
 43
0
 10
74.02415790000001
 20
22.88721897
 10
74.02415790000001
 20
25.09018974
  0
LWPOLYLINE
  5
255
100
AcDbEntity
  8
0
  6
ByLayer
 62
    0
370
   -1
100
AcDbPolyline
 90
    2
 70
    0
 43
0
 10
74.02415790000001
 20
25.09018974
 10
88.0926585
 20
25.09018974
  0
LWPOLYLINE
  5
256
100
AcDbEntity
  8
0
  6
ByLayer
 62
    0
370
   -1
100
AcDbPolyline
 90
    2
 70
    0
 43
0
 10
88.0926585
 20
25.09018974
 10
88.0926585
 20
22.88721897
  0
LWPOLYLINE
  5
257
100
AcDbEntity
  8
0
  6
ByLayer
 62
    0
370
   -1
100
AcDbPolyline
 90
    2
 70
    0
 43
0
 10
88.0926585
 20
22.88721897
 10
106.8498123
 20
22.88721897
  0
LWPOLYLINE
  5
258
100
AcDbEntity
  8
0
  6
ByLayer
 62
    0
370
   -1
100
AcDbPolyline
 90
    2
 70
    0
 43
0
 10
106.8498123
 20
22.88721897
 10
106.8498123
 20
18.19726986
  0
LWPOLYLINE
  5
259
100
AcDbEntity
  8
0
  6
ByLayer
 62
    0
370
   -1
100
AcDbPolyline
 90
    2
 70
    0
 43
0
 10
106.8498123
 20
18.19726986
 10
104.6467653
 20
18.19726986
  0
LWPOLYLINE
  5
25A
100
AcDbEntity
  8
0
  6
ByLayer
 62
    0
370
   -1
100
AcDbPolyline
 90
    2
 70
    0
 43
0
 10
104.6467653
 20
18.19726986
 10
104.6467653
 20
13.50732075
  0
LWPOLYLINE
  5
25B
100
AcDbEntity
  8
0
  6
ByLayer
 62
    0
370
   -1
100
AcDbPolyline
 90
    2
 70
    0
 43
0
 10
104.6467653
 20
13.50732075
 10
106.8498123
 20
13.50732075
  0
LWPOLYLINE
  5
25C
100
AcDbEntity
  8
0
  6
ByLayer
 62
    0
370
   -1
100
AcDbPolyline
 90
    2
 70
    0
 43
0
 10
106.8498123
 20
13.50732075
 10
106.8498123
 20
8.8187946
  0
LWPOLYLINE
  5
25D
100
AcDbEntity
  8
0
  6
ByLayer
 62
    0
370
   -1
100
AcDbPolyline
 90
    2
 70
    0
 43
0
 10
106.8498123
 20
8.8187946
 10
104.6467653
 20
8.8187946
  0
LWPOLYLINE
  5
25E
100
AcDbEntity
  8
0
  6
ByLayer
 62
    0
370
   -1
100
AcDbPolyline
 90
    2
 70
    0
 43
0
 10
104.6467653
 20
8.8187946
 10
104.6467653
 20
4.12884549
  0
LWPOLYLINE
  5
25F
100
AcDbEntity
  8
0
  6
ByLayer
 62
    0
370
   -1
100
AcDbPolyline
 90
    2
 70
    0
 43
0
 10
104.6467653
 20
4.12884549
 10
55.5953013
 20
4.12884549
  0
LWPOLYLINE
  5
260
100
AcDbEntity
  8
0
  6
ByLayer
 62
    0
370
   -1
100
AcDbPolyline
 90
    2
 70
    0
 43
0
 10
55.5953013
 20
4.12884549
 10
55.5953013
 20
8.8187946
  0
LWPOLYLINE
  5
261
100
AcDbEntity
  8
0
  6
ByLayer
 62
    0
370
   -1
100
AcDbPolyline
 90
    2
 70
    0
 43
0
 10
55.5953013
 20
8.8187946
 10
53.39098379999999
 20
8.8187946
  0
LWPOLYLINE
  5
262
100
AcDbEntity
  8
0
  6
ByLayer
 62
    0
370
   -1
100
AcDbPolyline
 90
    2
 70
    0
 43
0
 10
53.39098379999999
 20
8.8187946
 10
53.39098379999999
 20
13.50732075
  0
LWPOLYLINE
  5
263
100
AcDbEntity
  8
0
  6
ByLayer
 62
    0
370
   -1
100
AcDbPolyline
 90
    2
 70
    0
 43
0
 10
53.39098379999999
 20
13.50732075
 10
55.5953013
 20
13.50732075
  0
LWPOLYLINE
  5
264
100
AcDbEntity
  8
0
  6
ByLayer
 62
    0
370
   -1
100
AcDbPolyline
 90
    2
 70
    0
 43
0
 10
55.5953013
 20
13.50732075
 10
55.5953013
 20
18.19726986
  0
LWPOLYLINE
  5
265
100
AcDbEntity
  8
0
  6
ByLayer
 62
    0
370
   -1
100
AcDbPolyline
 90
    2
 70
    0
 43
0
 10
55.5953013
 20
18.19726986
 10
53.39098379999999
 20
18.19726986
  0
LWPOLYLINE
  5
266
100
AcDbEntity
  8
0
  6
ByLayer
 62
    0
370
   -1
100
AcDbPolyline
 90
    2
 70
    0
 43
0
 10
53.39098379999999
 20
18.19726986
 10
53.39098379999999
 20
22.88721897
  0
LWPOLYLINE
  5
267
100
AcDbEntity
  8
0
  6
ByLayer
 62
    0
370
   -1
100
AcDbPolyline
 90
   33
 70
    1
 43
0
 10
95.1261465
 20
13.50732075
 10
95.0367033
 20
14.422716
 10
94.769136
 20
15.30225774
 10
94.33640370000001
 20
16.11286215
 10
93.75299010000001
 20
16.8242151
 10
93.0432888
 20
17.40732378
 10
92.2311852
 20
17.84020854
 10
91.3517451
 20
18.10764879
 10
90.43774740000001
 20
18.19726986
 10
89.5222251
 20
18.10764879
 10
88.642785
 20
17.84020854
 10
87.832206
 20
17.40732378
 10
87.12072599999999
 20
16.8242151
 10
86.5375665
 20
16.11286215
 10
86.10458009999999
 20
15.30225774
 10
85.8387915
 20
14.422716
 10
85.7478237
 20
13.50732075
 10
85.8387915
 20
12.59334846
 10
86.10458009999999
 20
11.71380672
 10
86.5375665
 20
10.9031769
 10
87.12072599999999
 20
10.19184936
 10
87.832206
 20
9.608715270000001
 10
88.642785
 20
9.175830510000001
 10
89.5222251
 20
8.908390260000001
 10
90.43774740000001
 20
8.8187946
 10
91.3517451
 20
8.908390260000001
 10
92.2311852
 20
9.175830510000001
 10
93.0432888
 20
9.608715270000001
 10
93.75299010000001
 20
10.19184936
 10
94.33640370000001
 20
10.9031769
 10
94.769136
 20
11.71380672
 10
95.0367033
 20
12.59334846
 10
95.1261465
 20
13.50732075
  0
LWPOLYLINE
  5
268
100
AcDbEntity
  8
0
  6
ByLayer
 62
    0
370
   -1
100
AcDbPolyline
 90
   33
 70
    1
 43
0
 10
76.36950090000001
 20
13.50732075
 10
76.27980359999999
 20
14.422716
 10
76.0122363
 20
15.30225774
 10
75.57924990000001
 20
16.11286215
 10
74.9960904
 20
16.8242151
 10
74.28461039999999
 20
17.40732378
 10
73.4740314
 20
17.84020854
 10
72.5945913
 20
18.10764879
 10
71.679069
 20
18.19726986
 10
70.76532540000001
 20
18.10764879
 10
69.88563119999999
 20
17.84020854
 10
69.07530630000001
 20
17.40732378
 10
68.3638263
 20
16.8242151
 10
67.7809209
 20
16.11286215
 10
67.3476804
 20
15.30225774
 10
67.0803672
 20
14.422716
 10
66.9906699
 20
13.50732075
 10
67.0803672
 20
12.59334846
 10
67.3476804
 20
11.71380672
 10
67.7809209
 20
10.9031769
 10
68.3638263
 20
10.19184936
 10
69.07530630000001
 20
9.608715270000001
 10
69.88563119999999
 20
9.175830510000001
 10
70.76532540000001
 20
8.908390260000001
 10
71.679069
 20
8.8187946
 10
72.5945913
 20
8.908390260000001
 10
73.4740314
 20
9.175830510000001
 10
74.28461039999999
 20
9.608715270000001
 10
74.9960904
 20
10.19184936
 10
75.57924990000001
 20
10.9031769
 10
76.0122363
 20
11.71380672
 10
76.27980359999999
 20
12.59334846
 10
76.36950090000001
 20
13.50732075
  0
ENDSEC
  0
SECTION
  2
OBJECTS
  0
DICTIONARY
  5
C
330
0
100
AcDbDictionary
281
    1
  3
ACAD_GROUP
350
D
  0
DICTIONARY
  5
D
330
C
100
AcDbDictionary
281
    1
  0
ENDSEC
  0
EOF
