999
dxfrw 0.6.3
  0
SECTION
  2
HEADER
  9
$ACADVER
  1
AC1021
  9
$DWGCODEPAGE
  3
ANSI_1252
  9
$INSBASE
 10
0
 20
0
 30
0
  9
$EXTMIN
 10
-635.7
 20
-152
 30
0
  9
$EXTMAX
 10
187.7837559936
 20
52
 30
0
  9
$LIMMIN
 10
0
 20
0
  9
$LIMMAX
 10
420
 20
297
  9
$ORTHOMODE
 70
    0
  9
$REGENMODE
 70
    1
  9
$FILLMODE
 70
    1
  9
$QTEXTMODE
 70
    0
  9
$MIRRTEXT
 70
    0
  9
$LTSCALE
 40
1
  9
$ATTMODE
 70
    0
  9
$TEXTSIZE
 40
2.5
  9
$TRACEWID
 40
15.68
  9
$TEXTSTYLE
  7
STANDARD
  9
$CLAYER
  8
0
  9
$CELTYPE
  6
BYLAYER
  9
$CECOLOR
 62
  256
  9
$CELTSCALE
 40
1
  9
$DISPSILH
 70
    0
  9
$DIMSCALE
 40
1
  9
$DIMASZ
 40
2.5
  9
$DIMEXO
 40
0.625
  9
$DIMDLI
 40
3.75
  9
$DIMRND
 40
0
  9
$DIMDLE
 40
0
  9
$DIMEXE
 40
1.25
  9
$DIMTP
 40
0
  9
$DIMTM
 40
0
  9
$DIMTXT
 40
2.5
  9
$DIMCEN
 40
2.5
  9
$DIMTSZ
 40
0
  9
$DIMTOL
 70
    0
  9
$DIMLIM
 70
    0
  9
$DIMTIH
 70
    0
  9
$DIMTOH
 70
    0
  9
$DIMSE1
 70
    0
  9
$DIMSE2
 70
    0
  9
$DIMTAD
 70
    1
  9
$DIMZIN
 70
    1
  9
$DIMBLK
  1

  9
$DIMASO
 70
    1
  9
$DIMSHO
 70
    1
  9
$DIMPOST
  1

  9
$DIMAPOST
  1

  9
$DIMALT
 70
    0
  9
$DIMALTD
 70
    3
  9
$DIMALTF
 40
0.03937
  9
$DIMLFAC
 40
1
  9
$DIMTOFL
 70
    1
  9
$DIMTVP
 40
0
  9
$DIMTIX
 70
    0
  9
$DIMSOXD
 70
    0
  9
$DIMSAH
 70
    0
  9
$DIMBLK1
  1

  9
$DIMBLK2
  1

  9
$DIMSTYLE
  2
Standard
  9
$DIMCLRD
 70
    0
  9
$DIMCLRE
 70
    0
  9
$DIMCLRT
 70
    0
  9
$DIMTFAC
 40
1
  9
$DIMGAP
 40
0.625
  9
$DIMJUST
 70
    0
  9
$DIMSD1
 70
    0
  9
$DIMSD2
 70
    0
  9
$DIMTOLJ
 70
    0
  9
$DIMTZIN
 70
    8
  9
$DIMALTZ
 70
    0
  9
$DIMALTTZ
 70
    0
  9
$DIMUPT
 70
    0
  9
$DIMDEC
 70
    4
  9
$DIMTDEC
 70
    2
  9
$DIMALTU
 70
    2
  9
$DIMALTTD
 70
    3
  9
$DIMTXSTY
  7
standard
  9
$DIMAUNIT
 70
    0
  9
$DIMADEC
 70
    2
  9
$DIMALTRND
 40
0
  9
$DIMAZIN
 70
    0
  9
$DIMDSEP
 70
    0
  9
$DIMATFIT
 70
    3
  9
$DIMFRAC
 70
    0
  9
$DIMLDRBLK
  1
STANDARD
  9
$DIMLUNIT
 70
    2
  9
$DIMLWD
 70
   -2
  9
$DIMLWE
 70
   -2
  9
$DIMTMOVE
 70
    0
  9
$DIMFXL
 40
1
  9
$DIMFXLON
 70
    0
  9
$DIMJOGANG
 40
0.7854
  9
$DIMTFILL
 70
    0
  9
$DIMTFILLCLR
 70
    0
  9
$DIMARCSYM
 70
    0
  9
$DIMLTYPE
  6

  9
$DIMLTEX1
  6

  9
$DIMLTEX2
  6

  9
$LUNITS
 70
    2
  9
$LUPREC
 70
    4
  9
$SKETCHINC
 40
1
  9
$FILLETRAD
 40
0
  9
$AUNITS
 70
    0
  9
$AUPREC
 70
    2
  9
$MENU
  1
.
  9
$ELEVATION
 40
0
  9
$PELEVATION
 40
0
  9
$THICKNESS
 40
0
  9
$LIMCHECK
 70
    0
  9
$CHAMFERA
 40
0
  9
$CHAMFERB
 40
0
  9
$CHAMFERC
 40
0
  9
$CHAMFERD
 40
0
  9
$SKPOLY
 70
    0
  9
$USRTIMER
 70
    1
  9
$ANGBASE
 50
0
  9
$ANGDIR
 70
    0
  9
$PDMODE
 70
   34
  9
$PDSIZE
 40
0
  9
$PLINEWID
 40
0
  9
$SPLFRAME
 70
    0
  9
$SPLINETYPE
 70
    2
  9
$SPLINESEGS
 70
    8
  9
$HANDSEED
  5
20000
  9
$SURFTAB1
 70
    6
  9
$SURFTAB2
 70
    6
  9
$SURFTYPE
 70
    6
  9
$SURFU
 70
    6
  9
$SURFV
 70
    6
  9
$UCSBASE
  2

  9
$UCSNAME
  2

  9
$UCSORG
 10
0
 20
0
 30
0
  9
$UCSXDIR
 10
1
 20
0
 30
0
  9
$UCSYDIR
 10
0
 20
1
 30
0
  9
$UCSORTHOREF
  2

  9
$UCSORTHOVIEW
 70
    0
  9
$UCSORGTOP
 10
0
 20
0
 30
0
  9
$UCSORGBOTTOM
 10
0
 20
0
 30
0
  9
$UCSORGLEFT
 10
0
 20
0
 30
0
  9
$UCSORGRIGHT
 10
0
 20
0
 30
0
  9
$UCSORGFRONT
 10
0
 20
0
 30
0
  9
$UCSORGBACK
 10
0
 20
0
 30
0
  9
$PUCSBASE
  2

  9
$PUCSNAME
  2

  9
$PUCSORG
 10
0
 20
0
 30
0
  9
$PUCSXDIR
 10
1
 20
0
 30
0
  9
$PUCSYDIR
 10
0
 20
1
 30
0
  9
$PUCSORTHOREF
  2

  9
$PUCSORTHOVIEW
 70
    0
  9
$PUCSORGTOP
 10
0
 20
0
 30
0
  9
$PUCSORGBOTTOM
 10
0
 20
0
 30
0
  9
$PUCSORGLEFT
 10
0
 20
0
 30
0
  9
$PUCSORGRIGHT
 10
0
 20
0
 30
0
  9
$PUCSORGFRONT
 10
0
 20
0
 30
0
  9
$PUCSORGBACK
 10
0
 20
0
 30
0
  9
$USERI1
 70
    0
  9
$USERI2
 70
    0
  9
$USERI3
 70
    0
  9
$USERI4
 70
    0
  9
$USERI5
 70
    0
  9
$USERR1
 40
0
  9
$USERR2
 40
0
  9
$USERR3
 40
0
  9
$USERR4
 40
0
  9
$USERR5
 40
0
  9
$WORLDVIEW
 70
    1
  9
$SHADEDGE
 70
    3
  9
$SHADEDIF
 70
   70
  9
$TILEMODE
 70
    1
  9
$MAXACTVP
 70
   64
  9
$PINSBASE
 10
0
 20
0
 30
0
  9
$PLIMCHECK
 70
    0
  9
$PEXTMIN
 10
0
 20
0
 30
0
  9
$PEXTMAX
 10
0
 20
0
 30
0
  9
$GRIDMODE
 70
    1
  9
$SNAPSTYLE
 70
    0
  9
$GRIDUNIT
 10
1
 20
1
  9
$PLIMMIN
 10
0
 20
0
  9
$PLIMMAX
 10
8.2677
 20
11.693
  9
$UNITMODE
 70
    0
  9
$VISRETAIN
 70
    1
  9
$PLINEGEN
 70
    0
  9
$PSLTSCALE
 70
    1
  9
$TREEDEPTH
 70
 3020
  9
$CMLSTYLE
  2
Standard
  9
$CMLJUST
 70
    0
  9
$CMLSCALE
 40
20
  9
$PROXYGRAPHICS
 70
    1
  9
$MEASUREMENT
 70
    1
  9
$CELWEIGHT
370
   -1
  9
$ENDCAPS
280
    0
  9
$JOINSTYLE
280
    0
  9
$LWDISPLAY
290
    0
  9
$INSUNITS
 70
    4
  9
$HYPERLINKBASE
  1

  9
$STYLESHEET
  1

  9
$XEDIT
290
    1
  9
$CEPSNTYPE
380
    0
  9
$PSTYLEMODE
290
    1
  9
$EXTNAMES
290
    1
  9
$PSVPSCALE
 40
1
  9
$OLESTARTUP
290
    0
  9
$SORTENTS
280
  127
  9
$INDEXCTL
280
    0
  9
$HIDETEXT
280
    1
  9
$XCLIPFRAME
290
    0
  9
$HALOGAP
280
    0
  9
$OBSCOLOR
 70
  257
  9
$OBSLTYPE
280
    0
  9
$INTERSECTIONDISPLAY
280
    0
  9
$INTERSECTIONCOLOR
 70
  257
  9
$DIMASSOC
280
    1
  9
$PROJECTNAME
  1

  9
$CAMERADISPLAY
290
    0
  9
$LENSLENGTH
 40
50
  9
$CAMERAHEIGHT
 40
0
  9
$STEPSPERSEC
 40
2
  9
$STEPSIZE
 40
50
  9
$3DDWFPREC
 40
2
  9
$PSOLWIDTH
 40
5
  9
$PSOLHEIGHT
 40
80
  9
$LOFTANG1
 40
1.570796326794897
  9
$LOFTANG2
 40
1.570796326794897
  9
$LOFTMAG1
 40
0
  9
$LOFTMAG2
 40
0
  9
$LOFTPARAM
 70
    7
  9
$LOFTNORMALS
280
    1
  9
$LATITUDE
 40
1
  9
$LONGITUDE
 40
1
  9
$NORTHDIRECTION
 40
0
  9
$TIMEZONE
 70
-8000
  9
$LIGHTGLYPHDISPLAY
280
    1
  9
$TILEMODELIGHTSYNCH
280
    1
  9
$SOLIDHIST
280
    1
  9
$SHOWHIST
280
    1
  9
$DWFFRAME
280
    2
  9
$DGNFRAME
280
    0
  9
$REALWORLDSCALE
290
    1
  9
$INTERFERECOLOR
 62
    1
  9
$CSHADOW
280
    0
  9
$SHADOWPLANELOCATION
 40
0
  0
ENDSEC
  0
SECTION
  2
CLASSES
  0
ENDSEC
  0
SECTION
  2
TABLES
  0
TABLE
  2
VPORT
  5
8
330
0
100
AcDbSymbolTable
 70
    1
  0
VPORT
  5
31
330
2
100
AcDbSymbolTableRecord
100
AcDbViewportTableRecord
  2
*ACTIVE
 70
    0
 10
0
 20
0
 11
1
 21
1
 12
142.2882080078135
 22
57.9833984375004
 13
0
 23
0
 14
10
 24
10
 15
1
 25
1
 16
0
 26
0
 36
1
 17
0
 27
0
 37
0
 40
386.0473632812527
 41
1.984189723320158
 42
50
 43
0
 44
0
 50
0
 51
0
 71
    0
 72
  100
 73
    1
 74
    3
 75
    0
 76
    1
 77
    0
 78
    0
281
    0
 65
    1
110
0
120
0
130
0
111
1
121
0
131
0
112
0
122
1
132
0
 79
    0
146
0
348
10020
 60
    3
 61
    5
292
1
282
    1
141
0
142
0
 63
  250
421
3358443
  0
ENDTAB
  0
TABLE
  2
LTYPE
  5
5
330
0
100
AcDbSymbolTable
 70
    4
  0
LTYPE
  5
14
330
5
100
AcDbSymbolTableRecord
100
AcDbLinetypeTableRecord
  2
ByBlock
 70
    0
  3

 72
   65
 73
    0
 40
0
  0
LTYPE
  5
15
330
5
100
AcDbSymbolTableRecord
100
AcDbLinetypeTableRecord
  2
ByLayer
 70
    0
  3

 72
   65
 73
    0
 40
0
  0
LTYPE
  5
16
330
5
100
AcDbSymbolTableRecord
100
AcDbLinetypeTableRecord
  2
Continuous
 70
    0
  3
Solid line
 72
   65
 73
    0
 40
0
  0
LTYPE
  5
32
330
5
100
AcDbSymbolTableRecord
100
AcDbLinetypeTableRecord
  2
DOT
 70
    0
  3
Dot . . . . . . . . . . . . . . . . . . . . . .
 72
   65
 73
    2
 40
6.35
 49
0
 74
    0
 49
-6.35
 74
    0
  0
LTYPE
  5
33
330
5
100
AcDbSymbolTableRecord
100
AcDbLinetypeTableRecord
  2
DOTTINY
 70
    0
  3
Dot (.15x) .....................................
 72
   65
 73
    2
 40
0.9525
 49
0
 74
    0
 49
-0.9525
 74
    0
  0
LTYPE
  5
34
330
5
100
AcDbSymbolTableRecord
100
AcDbLinetypeTableRecord
  2
DOT2
 70
    0
  3
Dot (.5x) .....................................
 72
   65
 73
    2
 40
3.175
 49
0
 74
    0
 49
-3.175
 74
    0
  0
LTYPE
  5
35
330
5
100
AcDbSymbolTableRecord
100
AcDbLinetypeTableRecord
  2
DOTX2
 70
    0
  3
Dot (2x) .  .  .  .  .  .  .  .  .  .  .  .  .
 72
   65
 73
    2
 40
12.7
 49
0
 74
    0
 49
-12.7
 74
    0
  0
LTYPE
  5
36
330
5
100
AcDbSymbolTableRecord
100
AcDbLinetypeTableRecord
  2
DASHED
 70
    0
  3
Dashed _ _ _ _ _ _ _ _ _ _ _ _ _ _ _ _ _
 72
   65
 73
    2
 40
19.05
 49
12.7
 74
    0
 49
-6.35
 74
    0
  0
LTYPE
  5
37
330
5
100
AcDbSymbolTableRecord
100
AcDbLinetypeTableRecord
  2
DASHEDTINY
 70
    0
  3
Dashed (.15x) _ _ _ _ _ _ _ _ _ _ _ _ _ _ _ _ _
 72
   65
 73
    2
 40
2.8575
 49
1.905
 74
    0
 49
-0.9525
 74
    0
  0
LTYPE
  5
38
330
5
100
AcDbSymbolTableRecord
100
AcDbLinetypeTableRecord
  2
DASHED2
 70
    0
  3
Dashed (.5x) _ _ _ _ _ _ _ _ _ _ _ _ _ _ _ _ _
 72
   65
 73
    2
 40
9.524999999999999
 49
6.35
 74
    0
 49
-3.175
 74
    0
  0
LTYPE
  5
39
330
5
100
AcDbSymbolTableRecord
100
AcDbLinetypeTableRecord
  2
DASHEDX2
 70
    0
  3
Dashed (2x) ____  ____  ____  ____  ____  ___
 72
   65
 73
    2
 40
38.09999999999999
 49
25.4
 74
    0
 49
-12.7
 74
    0
  0
LTYPE
  5
3A
330
5
100
AcDbSymbolTableRecord
100
AcDbLinetypeTableRecord
  2
DASHDOT
 70
    0
  3
Dash dot __ . __ . __ . __ . __ . __ . __ . __
 72
   65
 73
    4
 40
25.4
 49
12.7
 74
    0
 49
-6.35
 74
    0
 49
0
 74
    0
 49
-6.35
 74
    0
  0
LTYPE
  5
3B
330
5
100
AcDbSymbolTableRecord
100
AcDbLinetypeTableRecord
  2
DASHDOTTINY
 70
    0
  3
Dash dot (.15x) _._._._._._._._._._._._._._._.
 72
   65
 73
    4
 40
3.81
 49
1.905
 74
    0
 49
-0.9525
 74
    0
 49
0
 74
    0
 49
-0.9525
 74
    0
  0
LTYPE
  5
3C
330
5
100
AcDbSymbolTableRecord
100
AcDbLinetypeTableRecord
  2
DASHDOT2
 70
    0
  3
Dash dot (.5x) _._._._._._._._._._._._._._._.
 72
   65
 73
    4
 40
12.7
 49
6.35
 74
    0
 49
-3.175
 74
    0
 49
0
 74
    0
 49
-3.175
 74
    0
  0
LTYPE
  5
3D
330
5
100
AcDbSymbolTableRecord
100
AcDbLinetypeTableRecord
  2
DASHDOTX2
 70
    0
  3
Dash dot (2x) ____  .  ____  .  ____  .  ___
 72
   65
 73
    4
 40
50.8
 49
25.4
 74
    0
 49
-12.7
 74
    0
 49
0
 74
    0
 49
-12.7
 74
    0
  0
LTYPE
  5
3E
330
5
100
AcDbSymbolTableRecord
100
AcDbLinetypeTableRecord
  2
DIVIDE
 70
    0
  3
Divide ____ . . ____ . . ____ . . ____ . . ____
 72
   65
 73
    6
 40
31.75
 49
12.7
 74
    0
 49
-6.35
 74
    0
 49
0
 74
    0
 49
-6.35
 74
    0
 49
0
 74
    0
 49
-6.35
 74
    0
  0
LTYPE
  5
3F
330
5
100
AcDbSymbolTableRecord
100
AcDbLinetypeTableRecord
  2
DIVIDETINY
 70
    0
  3
Divide (.15x) __..__..__..__..__..__..__..__.._
 72
   65
 73
    6
 40
4.7625
 49
1.905
 74
    0
 49
-0.9525
 74
    0
 49
0
 74
    0
 49
-0.9525
 74
    0
 49
0
 74
    0
 49
-0.9525
 74
    0
  0
LTYPE
  5
40
330
5
100
AcDbSymbolTableRecord
100
AcDbLinetypeTableRecord
  2
DIVIDE2
 70
    0
  3
Divide (.5x) __..__..__..__..__..__..__..__.._
 72
   65
 73
    6
 40
15.875
 49
6.35
 74
    0
 49
-3.175
 74
    0
 49
0
 74
    0
 49
-3.175
 74
    0
 49
0
 74
    0
 49
-3.175
 74
    0
  0
LTYPE
  5
41
330
5
100
AcDbSymbolTableRecord
100
AcDbLinetypeTableRecord
  2
DIVIDEX2
 70
    0
  3
Divide (2x) ________  .  .  ________  .  .  _
 72
   65
 73
    6
 40
63.5
 49
25.4
 74
    0
 49
-12.7
 74
    0
 49
0
 74
    0
 49
-12.7
 74
    0
 49
0
 74
    0
 49
-12.7
 74
    0
  0
LTYPE
  5
42
330
5
100
AcDbSymbolTableRecord
100
AcDbLinetypeTableRecord
  2
BORDER
 70
    0
  3
Border __ __ . __ __ . __ __ . __ __ . __ __ .
 72
   65
 73
    6
 40
44.45
 49
12.7
 74
    0
 49
-6.35
 74
    0
 49
12.7
 74
    0
 49
-6.35
 74
    0
 49
0
 74
    0
 49
-6.35
 74
    0
  0
LTYPE
  5
43
330
5
100
AcDbSymbolTableRecord
100
AcDbLinetypeTableRecord
  2
BORDERTINY
 70
    0
  3
Border (.15x) __.__.__.__.__.__.__.__.__.__.__.
 72
   65
 73
    6
 40
6.6675
 49
1.905
 74
    0
 49
-0.9525
 74
    0
 49
1.905
 74
    0
 49
-0.9525
 74
    0
 49
0
 74
    0
 49
-0.9525
 74
    0
  0
LTYPE
  5
44
330
5
100
AcDbSymbolTableRecord
100
AcDbLinetypeTableRecord
  2
BORDER2
 70
    0
  3
Border (.5x) __.__.__.__.__.__.__.__.__.__.__.
 72
   65
 73
    6
 40
22.225
 49
6.35
 74
    0
 49
-3.175
 74
    0
 49
6.35
 74
    0
 49
-3.175
 74
    0
 49
0
 74
    0
 49
-3.175
 74
    0
  0
LTYPE
  5
45
330
5
100
AcDbSymbolTableRecord
100
AcDbLinetypeTableRecord
  2
BORDERX2
 70
    0
  3
Border (2x) ____  ____  .  ____  ____  .  ___
 72
   65
 73
    6
 40
88.89999999999999
 49
25.4
 74
    0
 49
-12.7
 74
    0
 49
25.4
 74
    0
 49
-12.7
 74
    0
 49
0
 74
    0
 49
-12.7
 74
    0
  0
LTYPE
  5
46
330
5
100
AcDbSymbolTableRecord
100
AcDbLinetypeTableRecord
  2
CENTER
 70
    0
  3
Center ____ _ ____ _ ____ _ ____ _ ____ _ ____
 72
   65
 73
    4
 40
50.8
 49
31.75
 74
    0
 49
-6.35
 74
    0
 49
6.35
 74
    0
 49
-6.35
 74
    0
  0
LTYPE
  5
47
330
5
100
AcDbSymbolTableRecord
100
AcDbLinetypeTableRecord
  2
CENTERTINY
 70
    0
  3
Center (.15x) ___ _ ___ _ ___ _ ___ _ ___ _ ___
 72
   65
 73
    4
 40
7.619999999999999
 49
4.7625
 74
    0
 49
-0.9525
 74
    0
 49
0.9525
 74
    0
 49
-0.9525
 74
    0
  0
LTYPE
  5
48
330
5
100
AcDbSymbolTableRecord
100
AcDbLinetypeTableRecord
  2
CENTER2
 70
    0
  3
Center (.5x) ___ _ ___ _ ___ _ ___ _ ___ _ ___
 72
   65
 73
    4
 40
28.575
 49
19.05
 74
    0
 49
-3.175
 74
    0
 49
3.175
 74
    0
 49
-3.175
 74
    0
  0
LTYPE
  5
49
330
5
100
AcDbSymbolTableRecord
100
AcDbLinetypeTableRecord
  2
CENTERX2
 70
    0
  3
Center (2x) ________  __  ________  __  _____
 72
   65
 73
    4
 40
101.6
 49
63.5
 74
    0
 49
-12.7
 74
    0
 49
12.7
 74
    0
 49
-12.7
 74
    0
  0
ENDTAB
  0
TABLE
  2
LAYER
  5
2
330
0
100
AcDbSymbolTable
 70
    1
  0
LAYER
  5
10
330
2
100
AcDbSymbolTableRecord
100
AcDbLayerTableRecord
  2
0
 70
    0
 62
    7
  6
CONTINUOUS
370
   -3
390
F
  0
LAYER
  5
4A
330
2
100
AcDbSymbolTableRecord
100
AcDbLayerTableRecord
  2
dxf_2mm35
 70
    0
 62
    7
  6
CONTINUOUS
370
   -3
390
F
  0
ENDTAB
  0
TABLE
  2
STYLE
  5
3
330
0
100
AcDbSymbolTable
 70
    3
  0
STYLE
  5
4B
330
2
100
AcDbSymbolTableRecord
100
AcDbTextStyleTableRecord
  2
Standard
 70
    0
 40
0
 41
1
 50
0
 71
    0
 42
1
  3
txt
  4

  0
ENDTAB
  0
TABLE
  2
VIEW
  5
6
330
0
100
AcDbSymbolTable
 70
    0
  0
ENDTAB
  0
TABLE
  2
UCS
  5
7
330
0
100
AcDbSymbolTable
 70
    0
  0
ENDTAB
  0
TABLE
  2
APPID
  5
9
330
0
100
AcDbSymbolTable
 70
    1
  0
APPID
  5
12
330
9
100
AcDbSymbolTableRecord
100
AcDbRegAppTableRecord
  2
ACAD
 70
    0
  0
APPID
  5
4C
330
9
100
AcDbSymbolTableRecord
100
AcDbRegAppTableRecord
  2
LibreCad
 70
    0
  0
ENDTAB
  0
TABLE
  2
DIMSTYLE
  5
A
330
0
100
AcDbSymbolTable
 70
    1
100
AcDbDimStyleTable
 71
    1
  0
DIMSTYLE
105
4D
330
A
100
AcDbSymbolTableRecord
100
AcDbDimStyleTableRecord
  2
Standard
 70
    0
 40
1
 41
2.5
 42
0.625
 43
0.38
 44
1.25
 45
0
 46
0
 47
0
 48
0
 49
1
140
2.5
141
0.09
142
0
143
25.4
144
1
145
0
146
1
147
0.625
148
0
 71
    0
 72
    0
 73
    0
 74
    1
 75
    0
 76
    0
 77
    0
 78
    1
 79
    0
170
    0
171
    2
172
    0
173
    0
174
    0
175
    0
176
    0
177
    0
178
    0
179
    2
271
    4
272
    4
273
    2
274
    2
275
    0
276
    0
277
    2
278
    0
279
    0
280
    0
281
    0
282
    0
283
    1
284
    0
285
    0
286
    0
288
    0
289
    3
340
standard
341

371
   -2
372
   -2
  0
ENDTAB
  0
TABLE
  2
BLOCK_RECORD
  5
1
330
0
100
AcDbSymbolTable
 70
    2
  0
BLOCK_RECORD
  5
1F
330
1
100
AcDbSymbolTableRecord
100
AcDbBlockTableRecord
  2
*Model_Space
 70
    0
280
    1
281
    0
  0
BLOCK_RECORD
  5
1E
330
1
100
AcDbSymbolTableRecord
100
AcDbBlockTableRecord
  2
*Paper_Space
 70
    0
280
    1
281
    0
  0
BLOCK_RECORD
  5
4E
330
1
100
AcDbSymbolTableRecord
100
AcDbBlockTableRecord
  2
SHAPE2DVIEW018
 70
    0
280
    1
281
    0
  0
BLOCK_RECORD
  5
51
330
1
100
AcDbSymbolTableRecord
100
AcDbBlockTableRecord
  2
SHAPE2DVIEW019
 70
    0
280
    1
281
    0
  0
BLOCK_RECORD
  5
54
330
1
100
AcDbSymbolTableRecord
100
AcDbBlockTableRecord
  2
p201
 70
    0
280
    1
281
    0
  0
BLOCK_RECORD
  5
57
330
1
100
AcDbSymbolTableRecord
100
AcDbBlockTableRecord
  2
SHAPE2DVIEW020
 70
    0
280
    1
281
    0
  0
BLOCK_RECORD
  5
5A
330
1
100
AcDbSymbolTableRecord
100
AcDbBlockTableRecord
  2
p202
 70
    0
280
    1
281
    0
  0
BLOCK_RECORD
  5
5D
330
1
100
AcDbSymbolTableRecord
100
AcDbBlockTableRecord
  2
SHAPE2DVIEW021
 70
    0
280
    1
281
    0
  0
BLOCK_RECORD
  5
60
330
1
100
AcDbSymbolTableRecord
100
AcDbBlockTableRecord
  2
p203
 70
    0
280
    1
281
    0
  0
BLOCK_RECORD
  5
63
330
1
100
AcDbSymbolTableRecord
100
AcDbBlockTableRecord
  2
SHAPE2DVIEW022
 70
    0
280
    1
281
    0
  0
BLOCK_RECORD
  5
66
330
1
100
AcDbSymbolTableRecord
100
AcDbBlockTableRecord
  2
p204
 70
    0
280
    1
281
    0
  0
BLOCK_RECORD
  5
69
330
1
100
AcDbSymbolTableRecord
100
AcDbBlockTableRecord
  2
SHAPE2DVIEW023
 70
    0
280
    1
281
    0
  0
BLOCK_RECORD
  5
6C
330
1
100
AcDbSymbolTableRecord
100
AcDbBlockTableRecord
  2
p205
 70
    0
280
    1
281
    0
  0
BLOCK_RECORD
  5
6F
330
1
100
AcDbSymbolTableRecord
100
AcDbBlockTableRecord
  2
SHAPE2DVIEW024
 70
    0
280
    1
281
    0
  0
BLOCK_RECORD
  5
72
330
1
100
AcDbSymbolTableRecord
100
AcDbBlockTableRecord
  2
p206
 70
    0
280
    1
281
    0
  0
BLOCK_RECORD
  5
75
330
1
100
AcDbSymbolTableRecord
100
AcDbBlockTableRecord
  2
SHAPE2DVIEW025
 70
    0
280
    1
281
    0
  0
BLOCK_RECORD
  5
78
330
1
100
AcDbSymbolTableRecord
100
AcDbBlockTableRecord
  2
p207
 70
    0
280
    1
281
    0
  0
BLOCK_RECORD
  5
7B
330
1
100
AcDbSymbolTableRecord
100
AcDbBlockTableRecord
  2
SHAPE2DVIEW026
 70
    0
280
    1
281
    0
  0
BLOCK_RECORD
  5
7E
330
1
100
AcDbSymbolTableRecord
100
AcDbBlockTableRecord
  2
p208
 70
    0
280
    1
281
    0
  0
BLOCK_RECORD
  5
81
330
1
100
AcDbSymbolTableRecord
100
AcDbBlockTableRecord
  2
SHAPE2DVIEW027
 70
    0
280
    1
281
    0
  0
BLOCK_RECORD
  5
84
330
1
100
AcDbSymbolTableRecord
100
AcDbBlockTableRecord
  2
p209
 70
    0
280
    1
281
    0
  0
BLOCK_RECORD
  5
87
330
1
100
AcDbSymbolTableRecord
100
AcDbBlockTableRecord
  2
SHAPE2DVIEW028
 70
    0
280
    1
281
    0
  0
BLOCK_RECORD
  5
8A
330
1
100
AcDbSymbolTableRecord
100
AcDbBlockTableRecord
  2
p210
 70
    0
280
    1
281
    0
  0
BLOCK_RECORD
  5
8D
330
1
100
AcDbSymbolTableRecord
100
AcDbBlockTableRecord
  2
SHAPE2DVIEW029
 70
    0
280
    1
281
    0
  0
BLOCK_RECORD
  5
90
330
1
100
AcDbSymbolTableRecord
100
AcDbBlockTableRecord
  2
p211
 70
    0
280
    1
281
    0
  0
BLOCK_RECORD
  5
93
330
1
100
AcDbSymbolTableRecord
100
AcDbBlockTableRecord
  2
SHAPE2DVIEW030
 70
    0
280
    1
281
    0
  0
BLOCK_RECORD
  5
96
330
1
100
AcDbSymbolTableRecord
100
AcDbBlockTableRecord
  2
p212
 70
    0
280
    1
281
    0
  0
BLOCK_RECORD
  5
99
330
1
100
AcDbSymbolTableRecord
100
AcDbBlockTableRecord
  2
SHAPE2DVIEW031
 70
    0
280
    1
281
    0
  0
BLOCK_RECORD
  5
9C
330
1
100
AcDbSymbolTableRecord
100
AcDbBlockTableRecord
  2
p213
 70
    0
280
    1
281
    0
  0
BLOCK_RECORD
  5
9F
330
1
100
AcDbSymbolTableRecord
100
AcDbBlockTableRecord
  2
SHAPE2DVIEW032
 70
    0
280
    1
281
    0
  0
BLOCK_RECORD
  5
A2
330
1
100
AcDbSymbolTableRecord
100
AcDbBlockTableRecord
  2
p214
 70
    0
280
    1
281
    0
  0
BLOCK_RECORD
  5
A5
330
1
100
AcDbSymbolTableRecord
100
AcDbBlockTableRecord
  2
SHAPE2DVIEW033
 70
    0
280
    1
281
    0
  0
BLOCK_RECORD
  5
A8
330
1
100
AcDbSymbolTableRecord
100
AcDbBlockTableRecord
  2
p215
 70
    0
280
    1
281
    0
  0
BLOCK_RECORD
  5
AB
330
1
100
AcDbSymbolTableRecord
100
AcDbBlockTableRecord
  2
SHAPE2DVIEW034
 70
    0
280
    1
281
    0
  0
BLOCK_RECORD
  5
AE
330
1
100
AcDbSymbolTableRecord
100
AcDbBlockTableRecord
  2
p216
 70
    0
280
    1
281
    0
  0
BLOCK_RECORD
  5
B1
330
1
100
AcDbSymbolTableRecord
100
AcDbBlockTableRecord
  2
SHAPE2DVIEW035
 70
    0
280
    1
281
    0
  0
BLOCK_RECORD
  5
B4
330
1
100
AcDbSymbolTableRecord
100
AcDbBlockTableRecord
  2
p218
 70
    0
280
    1
281
    0
  0
ENDTAB
  0
ENDSEC
  0
SECTION
  2
BLOCKS
  0
BLOCK
  5
20
330
1F
100
AcDbEntity
  8
0
100
AcDbBlockBegin
  2
*Model_Space
 70
    0
 10
0
 20
0
 30
0
  3
*Model_Space
  1

  0
ENDBLK
  5
21
330
1F
100
AcDbEntity
  8
0
100
AcDbBlockEnd
  0
BLOCK
  5
1C
330
1B
100
AcDbEntity
  8
0
100
AcDbBlockBegin
  2
*Paper_Space
 70
    0
 10
0
 20
0
 30
0
  3
*Paper_Space
  1

  0
ENDBLK
  5
1D
330
1F
100
AcDbEntity
  8
0
100
AcDbBlockEnd
  0
BLOCK
  5
4F
330
4E
100
AcDbEntity
  8
0
100
AcDbBlockBegin
  2
SHAPE2DVIEW018
 70
    0
 10
0
 20
0
  3
SHAPE2DVIEW018
  1

  0
LINE
  5
B7
100
AcDbEntity
  8
0
  6
ByLayer
 62
    0
370
   -1
100
AcDbLine
 10
40.4
 20
10
 11
40.4
 21
-10
  0
LINE
  5
B8
100
AcDbEntity
  8
dxf_2mm35
  6
ByLayer
 62
    0
370
   -1
100
AcDbLine
 10
40.4
 20
-10
 11
45.4
 21
-10
  0
LINE
  5
B9
100
AcDbEntity
  8
dxf_2mm35
  6
ByLayer
 62
    0
370
   -1
100
AcDbLine
 10
45.4
 20
-10
 11
45.4
 21
-12.35
  0
LINE
  5
BA
100
AcDbEntity
  8
dxf_2mm35
  6
ByLayer
 62
    0
370
   -1
100
AcDbLine
 10
45.4
 20
-12.35
 11
50.4
 21
-12.35
  0
LINE
  5
BB
100
AcDbEntity
  8
dxf_2mm35
  6
ByLayer
 62
    0
370
   -1
100
AcDbLine
 10
50.4
 20
-12.35
 11
50.4
 21
-10
  0
LINE
  5
BC
100
AcDbEntity
  8
dxf_2mm35
  6
ByLayer
 62
    0
370
   -1
100
AcDbLine
 10
50.4
 20
-10
 11
55.4
 21
-10
  0
LINE
  5
BD
100
AcDbEntity
  8
dxf_2mm35
  6
ByLayer
 62
    0
370
   -1
100
AcDbLine
 10
55.4
 20
-10
 11
55.4
 21
10
  0
LINE
  5
BE
100
AcDbEntity
  8
dxf_2mm35
  6
ByLayer
 62
    0
370
   -1
100
AcDbLine
 10
50.4
 20
10
 11
55.4
 21
10
  0
LINE
  5
BF
100
AcDbEntity
  8
dxf_2mm35
  6
ByLayer
 62
    0
370
   -1
100
AcDbLine
 10
50.4
 20
10
 11
50.4
 21
12.35
  0
LINE
  5
C0
100
AcDbEntity
  8
dxf_2mm35
  6
ByLayer
 62
    0
370
   -1
100
AcDbLine
 10
50.4
 20
12.35
 11
45.4
 21
12.35
  0
LINE
  5
C1
100
AcDbEntity
  8
dxf_2mm35
  6
ByLayer
 62
    0
370
   -1
100
AcDbLine
 10
45.4
 20
12.35
 11
45.4
 21
10
  0
LINE
  5
C2
100
AcDbEntity
  8
dxf_2mm35
  6
ByLayer
 62
    0
370
   -1
100
AcDbLine
 10
40.4
 20
10
 11
45.4
 21
10
  0
CIRCLE
  5
C3
100
AcDbEntity
  8
dxf_2mm35
  6
ByLayer
 62
    0
370
   -1
100
AcDbCircle
 10
43
 20
5.5
 40
1.5
  0
CIRCLE
  5
C4
100
AcDbEntity
  8
dxf_2mm35
  6
ByLayer
 62
    0
370
   -1
100
AcDbCircle
 10
43
 20
-5.5
 40
1.5
  0
LINE
  5
C5
100
AcDbEntity
  8
dxf_2mm35
  6
ByLayer
 62
    0
370
   -1
100
AcDbLine
 10
-15
 20
-10
 11
-10
 21
-10
  0
LINE
  5
C6
100
AcDbEntity
  8
dxf_2mm35
  6
ByLayer
 62
    0
370
   -1
100
AcDbLine
 10
-15
 20
-10
 11
-15
 21
10
  0
LINE
  5
C7
100
AcDbEntity
  8
dxf_2mm35
  6
ByLayer
 62
    0
370
   -1
100
AcDbLine
 10
-15
 20
10
 11
-10
 21
10
  0
LINE
  5
C8
100
AcDbEntity
  8
dxf_2mm35
  6
ByLayer
 62
    0
370
   -1
100
AcDbLine
 10
-10
 20
10
 11
-10
 21
12.35
  0
LINE
  5
C9
100
AcDbEntity
  8
dxf_2mm35
  6
ByLayer
 62
    0
370
   -1
100
AcDbLine
 10
-10
 20
12.35
 11
-5
 21
12.35
  0
LINE
  5
CA
100
AcDbEntity
  8
dxf_2mm35
  6
ByLayer
 62
    0
370
   -1
100
AcDbLine
 10
-5
 20
12.35
 11
-5
 21
10
  0
LINE
  5
CB
100
AcDbEntity
  8
dxf_2mm35
  6
ByLayer
 62
    0
370
   -1
100
AcDbLine
 10
-5
 20
10
 11
0
 21
10
  0
LINE
  5
CC
100
AcDbEntity
  8
dxf_2mm35
  6
ByLayer
 62
    0
370
   -1
100
AcDbLine
 10
-1.04360964315e-15
 20
10
 11
-1.04360964315e-15
 21
-10
  0
LINE
  5
CD
100
AcDbEntity
  8
dxf_2mm35
  6
ByLayer
 62
    0
370
   -1
100
AcDbLine
 10
-5
 20
-10
 11
0
 21
-10
  0
LINE
  5
CE
100
AcDbEntity
  8
dxf_2mm35
  6
ByLayer
 62
    0
370
   -1
100
AcDbLine
 10
-5
 20
-12.35
 11
-5
 21
-10
  0
LINE
  5
CF
100
AcDbEntity
  8
dxf_2mm35
  6
ByLayer
 62
    0
370
   -1
100
AcDbLine
 10
-10
 20
-12.35
 11
-5
 21
-12.35
  0
LINE
  5
D0
100
AcDbEntity
  8
dxf_2mm35
  6
ByLayer
 62
    0
370
   -1
100
AcDbLine
 10
-10
 20
-10
 11
-10
 21
-12.35
  0
CIRCLE
  5
D1
100
AcDbEntity
  8
dxf_2mm35
  6
ByLayer
 62
    0
370
   -1
100
AcDbCircle
 10
-3
 20
5.5
 40
1.5
  0
CIRCLE
  5
D2
100
AcDbEntity
  8
dxf_2mm35
  6
ByLayer
 62
    0
370
   -1
100
AcDbCircle
 10
-3
 20
-5.5
 40
1.5
  0
ENDBLK
  5
50
330
4E
100
AcDbEntity
  8
0
100
AcDbBlockEnd
  0
BLOCK
  5
52
330
51
100
AcDbEntity
  8
0
100
AcDbBlockBegin
  2
SHAPE2DVIEW019
 70
    0
 10
0
 20
0
  3
SHAPE2DVIEW019
  1

  0
LINE
  5
D3
100
AcDbEntity
  8
0
  6
ByLayer
 62
    0
370
   -1
100
AcDbLine
 10
32.1
 20
10
 11
32.1
 21
-10
  0
LINE
  5
D4
100
AcDbEntity
  8
dxf_2mm35
  6
ByLayer
 62
    0
370
   -1
100
AcDbLine
 10
32.1
 20
-10
 11
37.1
 21
-10
  0
LINE
  5
D5
100
AcDbEntity
  8
dxf_2mm35
  6
ByLayer
 62
    0
370
   -1
100
AcDbLine
 10
37.1
 20
-12.35
 11
37.1
 21
-10
  0
LINE
  5
D6
100
AcDbEntity
  8
dxf_2mm35
  6
ByLayer
 62
    0
370
   -1
100
AcDbLine
 10
42.1
 20
-12.35
 11
37.1
 21
-12.35
  0
LINE
  5
D7
100
AcDbEntity
  8
dxf_2mm35
  6
ByLayer
 62
    0
370
   -1
100
AcDbLine
 10
42.1
 20
-10
 11
42.1
 21
-12.35
  0
LINE
  5
D8
100
AcDbEntity
  8
dxf_2mm35
  6
ByLayer
 62
    0
370
   -1
100
AcDbLine
 10
42.1
 20
-10
 11
47.1
 21
-10
  0
LINE
  5
D9
100
AcDbEntity
  8
dxf_2mm35
  6
ByLayer
 62
    0
370
   -1
100
AcDbLine
 10
47.1
 20
10
 11
47.1
 21
-10
  0
LINE
  5
DA
100
AcDbEntity
  8
dxf_2mm35
  6
ByLayer
 62
    0
370
   -1
100
AcDbLine
 10
42.1
 20
10
 11
47.1
 21
10
  0
LINE
  5
DB
100
AcDbEntity
  8
dxf_2mm35
  6
ByLayer
 62
    0
370
   -1
100
AcDbLine
 10
42.1
 20
12.35
 11
42.1
 21
10
  0
LINE
  5
DC
100
AcDbEntity
  8
dxf_2mm35
  6
ByLayer
 62
    0
370
   -1
100
AcDbLine
 10
37.1
 20
12.35
 11
42.1
 21
12.35
  0
LINE
  5
DD
100
AcDbEntity
  8
dxf_2mm35
  6
ByLayer
 62
    0
370
   -1
100
AcDbLine
 10
37.1
 20
10
 11
37.1
 21
12.35
  0
LINE
  5
DE
100
AcDbEntity
  8
dxf_2mm35
  6
ByLayer
 62
    0
370
   -1
100
AcDbLine
 10
32.1
 20
10
 11
37.1
 21
10
  0
CIRCLE
  5
DF
100
AcDbEntity
  8
dxf_2mm35
  6
ByLayer
 62
    0
370
   -1
100
AcDbCircle
 10
35
 20
-5.5
 40
1.5
  0
CIRCLE
  5
E0
100
AcDbEntity
  8
dxf_2mm35
  6
ByLayer
 62
    0
370
   -1
100
AcDbCircle
 10
35
 20
5.5
 40
1.5
  0
LINE
  5
E1
100
AcDbEntity
  8
dxf_2mm35
  6
ByLayer
 62
    0
370
   -1
100
AcDbLine
 10
-23.3
 20
-10
 11
-23.3
 21
10
  0
LINE
  5
E2
100
AcDbEntity
  8
dxf_2mm35
  6
ByLayer
 62
    0
370
   -1
100
AcDbLine
 10
-23.3
 20
10
 11
-18.3
 21
10
  0
LINE
  5
E3
100
AcDbEntity
  8
dxf_2mm35
  6
ByLayer
 62
    0
370
   -1
100
AcDbLine
 10
-18.3
 20
10
 11
-18.3
 21
12.35
  0
LINE
  5
E4
100
AcDbEntity
  8
dxf_2mm35
  6
ByLayer
 62
    0
370
   -1
100
AcDbLine
 10
-18.3
 20
12.35
 11
-13.3
 21
12.35
  0
LINE
  5
E5
100
AcDbEntity
  8
dxf_2mm35
  6
ByLayer
 62
    0
370
   -1
100
AcDbLine
 10
-13.3
 20
12.35
 11
-13.3
 21
10
  0
LINE
  5
E6
100
AcDbEntity
  8
dxf_2mm35
  6
ByLayer
 62
    0
370
   -1
100
AcDbLine
 10
-13.3
 20
10
 11
-8.300000000000001
 21
10
  0
LINE
  5
E7
100
AcDbEntity
  8
dxf_2mm35
  6
ByLayer
 62
    0
370
   -1
100
AcDbLine
 10
-8.300000000000001
 20
10
 11
-8.300000000000001
 21
-10
  0
LINE
  5
E8
100
AcDbEntity
  8
dxf_2mm35
  6
ByLayer
 62
    0
370
   -1
100
AcDbLine
 10
-13.3
 20
-10
 11
-8.300000000000001
 21
-10
  0
LINE
  5
E9
100
AcDbEntity
  8
dxf_2mm35
  6
ByLayer
 62
    0
370
   -1
100
AcDbLine
 10
-13.3
 20
-10
 11
-13.3
 21
-12.35
  0
LINE
  5
EA
100
AcDbEntity
  8
dxf_2mm35
  6
ByLayer
 62
    0
370
   -1
100
AcDbLine
 10
-13.3
 20
-12.35
 11
-18.3
 21
-12.35
  0
LINE
  5
EB
100
AcDbEntity
  8
dxf_2mm35
  6
ByLayer
 62
    0
370
   -1
100
AcDbLine
 10
-18.3
 20
-12.35
 11
-18.3
 21
-10
  0
LINE
  5
EC
100
AcDbEntity
  8
dxf_2mm35
  6
ByLayer
 62
    0
370
   -1
100
AcDbLine
 10
-23.3
 20
-10
 11
-18.3
 21
-10
  0
CIRCLE
  5
ED
100
AcDbEntity
  8
dxf_2mm35
  6
ByLayer
 62
    0
370
   -1
100
AcDbCircle
 10
-11
 20
-5.5
 40
1.5
  0
CIRCLE
  5
EE
100
AcDbEntity
  8
dxf_2mm35
  6
ByLayer
 62
    0
370
   -1
100
AcDbCircle
 10
-11
 20
5.5
 40
1.5
  0
ENDBLK
  5
53
330
51
100
AcDbEntity
  8
0
100
AcDbBlockEnd
  0
BLOCK
  5
55
330
54
100
AcDbEntity
  8
0
100
AcDbBlockBegin
  2
p201
 70
    0
 10
0
 20
0
  3
p201
  1

  0
INSERT
  5
EF
100
AcDbEntity
  8
dxf_2mm35
  6
ByLayer
 62
    0
370
   -1
100
AcDbBlockReference
  2
SHAPE2DVIEW019
 10
0
 20
0
 30
0
 41
1
 42
1
 43
0
 50
0
 70
    1
 71
    1
 44
0
 45
0
  0
ENDBLK
  5
56
330
54
100
AcDbEntity
  8
0
100
AcDbBlockEnd
  0
BLOCK
  5
58
330
57
100
AcDbEntity
  8
0
100
AcDbBlockBegin
  2
SHAPE2DVIEW020
 70
    0
 10
0
 20
0
  3
SHAPE2DVIEW020
  1

  0
LINE
  5
F0
100
AcDbEntity
  8
0
  6
ByLayer
 62
    0
370
   -1
100
AcDbLine
 10
-55.4337559936
 20
-18.5
 11
-55.4337559936
 21
-33.5
  0
LINE
  5
F1
100
AcDbEntity
  8
dxf_2mm35
  6
ByLayer
 62
    0
370
   -1
100
AcDbLine
 10
-55.4337559936
 20
-33.5
 11
-38.9337559936
 21
-33.5
  0
LINE
  5
F2
100
AcDbEntity
  8
dxf_2mm35
  6
ByLayer
 62
    0
370
   -1
100
AcDbLine
 10
-38.9337559936
 20
-33.5
 11
-38.9337559936
 21
-35.85
  0
LINE
  5
F3
100
AcDbEntity
  8
dxf_2mm35
  6
ByLayer
 62
    0
370
   -1
100
AcDbLine
 10
-38.9337559936
 20
-35.85
 11
-23.9337559936
 21
-35.85
  0
LINE
  5
F4
100
AcDbEntity
  8
dxf_2mm35
  6
ByLayer
 62
    0
370
   -1
100
AcDbLine
 10
-23.9337559936
 20
-35.85
 11
-23.9337559936
 21
-33.5
  0
LINE
  5
F5
100
AcDbEntity
  8
dxf_2mm35
  6
ByLayer
 62
    0
370
   -1
100
AcDbLine
 10
-23.9337559936
 20
-33.5
 11
-8.933755993589999
 21
-33.5
  0
LINE
  5
F6
100
AcDbEntity
  8
dxf_2mm35
  6
ByLayer
 62
    0
370
   -1
100
AcDbLine
 10
-8.933755993589999
 20
-33.5
 11
-8.933755993589999
 21
-35.85
  0
LINE
  5
F7
100
AcDbEntity
  8
dxf_2mm35
  6
ByLayer
 62
    0
370
   -1
100
AcDbLine
 10
-8.933755993589999
 20
-35.85
 11
6.06624400641
 21
-35.85
  0
LINE
  5
F8
100
AcDbEntity
  8
dxf_2mm35
  6
ByLayer
 62
    0
370
   -1
100
AcDbLine
 10
6.06624400641
 20
-35.85
 11
15.5000007361
 21
-26.5
  0
LINE
  5
F9
100
AcDbEntity
  8
dxf_2mm35
  6
ByLayer
 62
    0
370
   -1
100
AcDbLine
 10
15.5000007361
 20
-26.5
 11
23.5000007361
 21
-26.5
  0
LINE
  5
FA
100
AcDbEntity
  8
dxf_2mm35
  6
ByLayer
 62
    0
370
   -1
100
AcDbLine
 10
23.5000007361
 20
-26.5
 11
23.5000007361
 21
-24.15
  0
LINE
  5
FB
100
AcDbEntity
  8
dxf_2mm35
  6
ByLayer
 62
    0
370
   -1
100
AcDbLine
 10
23.5000007361
 20
-24.15
 11
43.5000007361
 21
-24.15
  0
LINE
  5
FC
100
AcDbEntity
  8
dxf_2mm35
  6
ByLayer
 62
    0
370
   -1
100
AcDbLine
 10
43.5000007361
 20
-24.15
 11
43.5000007361
 21
-26.5
  0
LINE
  5
FD
100
AcDbEntity
  8
dxf_2mm35
  6
ByLayer
 62
    0
370
   -1
100
AcDbLine
 10
43.5000007361
 20
-26.5
 11
54.6500007361
 21
-26.5
  0
LINE
  5
FE
100
AcDbEntity
  8
dxf_2mm35
  6
ByLayer
 62
    0
370
   -1
100
AcDbLine
 10
54.6500007361
 20
-26.5
 11
54.6500007361
 21
-15
  0
LINE
  5
FF
100
AcDbEntity
  8
dxf_2mm35
  6
ByLayer
 62
    0
370
   -1
100
AcDbLine
 10
54.6500007361
 20
-15
 11
57.0000007361
 21
-15
  0
LINE
  5
100
100
AcDbEntity
  8
dxf_2mm35
  6
ByLayer
 62
    0
370
   -1
100
AcDbLine
 10
57.0000007361
 20
-15
 11
57.0000007361
 21
3.5527136788e-15
  0
LINE
  5
101
100
AcDbEntity
  8
dxf_2mm35
  6
ByLayer
 62
    0
370
   -1
100
AcDbLine
 10
57.0000007361
 20
0
 11
48.0000007361
 21
11
  0
LINE
  5
102
100
AcDbEntity
  8
dxf_2mm35
  6
ByLayer
 62
    0
370
   -1
100
AcDbLine
 10
48.0000007361
 20
11
 11
48.0000007361
 21
44
  0
LINE
  5
103
100
AcDbEntity
  8
dxf_2mm35
  6
ByLayer
 62
    0
370
   -1
100
AcDbLine
 10
48.0000007361
 20
44
 11
45.0000007361
 21
47
  0
LINE
  5
104
100
AcDbEntity
  8
dxf_2mm35
  6
ByLayer
 62
    0
370
   -1
100
AcDbLine
 10
45.0000007361
 20
47
 11
31.0000007361
 21
47
  0
LINE
  5
105
100
AcDbEntity
  8
dxf_2mm35
  6
ByLayer
 62
    0
370
   -1
100
AcDbLine
 10
31.0000007361
 20
47
 11
16.5662440064
 21
22
  0
LINE
  5
106
100
AcDbEntity
  8
dxf_2mm35
  6
ByLayer
 62
    0
370
   -1
100
AcDbLine
 10
16.5662440064
 20
22
 11
-13.4337559936
 21
22
  0
LINE
  5
107
100
AcDbEntity
  8
dxf_2mm35
  6
ByLayer
 62
    0
370
   -1
100
AcDbLine
 10
-13.4337559936
 20
22
 11
-38.4337559936
 21
47
  0
LINE
  5
108
100
AcDbEntity
  8
dxf_2mm35
  6
ByLayer
 62
    0
370
   -1
100
AcDbLine
 10
-38.4337559936
 20
47
 11
-55.4337559936
 21
47
  0
LINE
  5
109
100
AcDbEntity
  8
dxf_2mm35
  6
ByLayer
 62
    0
370
   -1
100
AcDbLine
 10
-55.4337559936
 20
47
 11
-55.4337559936
 21
26.5
  0
LINE
  5
10A
100
AcDbEntity
  8
dxf_2mm35
  6
ByLayer
 62
    0
370
   -1
100
AcDbLine
 10
-57.7837559936
 20
26.5
 11
-55.4337559936
 21
26.5
  0
LINE
  5
10B
100
AcDbEntity
  8
dxf_2mm35
  6
ByLayer
 62
    0
370
   -1
100
AcDbLine
 10
-57.7837559936
 20
11.5
 11
-57.7837559936
 21
26.5
  0
LINE
  5
10C
100
AcDbEntity
  8
dxf_2mm35
  6
ByLayer
 62
    0
370
   -1
100
AcDbLine
 10
-55.4337559936
 20
11.5
 11
-57.7837559936
 21
11.5
  0
LINE
  5
10D
100
AcDbEntity
  8
dxf_2mm35
  6
ByLayer
 62
    0
370
   -1
100
AcDbLine
 10
-55.4337559936
 20
11.5
 11
-55.4337559936
 21
-3.5
  0
LINE
  5
10E
100
AcDbEntity
  8
dxf_2mm35
  6
ByLayer
 62
    0
370
   -1
100
AcDbLine
 10
-57.7837559936
 20
-3.5
 11
-55.4337559936
 21
-3.5
  0
LINE
  5
10F
100
AcDbEntity
  8
dxf_2mm35
  6
ByLayer
 62
    0
370
   -1
100
AcDbLine
 10
-57.7837559936
 20
-18.5
 11
-57.7837559936
 21
-3.5
  0
LINE
  5
110
100
AcDbEntity
  8
dxf_2mm35
  6
ByLayer
 62
    0
370
   -1
100
AcDbLine
 10
-55.4337559936
 20
-18.5
 11
-57.7837559936
 21
-18.5
  0
LWPOLYLINE
  5
111
100
AcDbEntity
  8
dxf_2mm35
  6
ByLayer
 62
    0
370
   -1
100
AcDbPolyline
 90
   24
 70
    0
 43
0
 10
-21.9999992639
 20
10
 10
-26.8563411447
 20
9.33251117226
 10
-31.3525103645
 20
7.37954928184
 10
-35.1550466209
 20
4.28595657794
 10
-37.9819331951
 20
0.281170679161
 10
-39.6235128422
 20
-4.33779176505
 10
-39.9580371093
 20
-9.228363440560001
 10
-38.960695862
 20
-14.0278330191
 10
-36.7054573381
 20
-18.3802457981
 10
-33.3595822618
 20
-21.9628032327
 10
-29.1712188811
 20
-24.5098034271
 10
-24.4509989476
 20
-25.8323470287
 10
-19.5489995802
 20
-25.8323470287
 10
-14.8287796467
 20
-24.5098034271
 10
-10.640416266
 20
-21.9628032327
 10
-7.29454118969
 20
-18.3802457981
 10
-5.03930266574
 20
-14.0278330191
 10
-4.04196141845
 20
-9.228363440560001
 10
-4.3764856856
 20
-4.33779176505
 10
-6.01806533264
 20
0.281170679161
 10
-8.84495190688
 20
4.28595657794
 10
-12.6474881632
 20
7.37954928184
 10
-17.1436573831
 20
9.33251117226
 10
-21.9999992639
 20
10
  0
LWPOLYLINE
  5
112
100
AcDbEntity
  8
dxf_2mm35
  6
ByLayer
 62
    0
370
   -1
100
AcDbPolyline
 90
   13
 70
    0
 43
0
 10
14.0000007361
 20
1
 10
9.500000736120001
 20
-0.20577136594
 10
6.20577210206
 20
-3.5
 10
5.00000073612
 20
-8
 10
6.20577210206
 20
-12.5
 10
9.500000736120001
 20
-15.7942286341
 10
14.0000007361
 20
-17
 10
18.5000007361
 20
-15.7942286341
 10
21.7942293702
 20
-12.5
 10
23.0000007361
 20
-8
 10
21.7942293702
 20
-3.5
 10
18.5000007361
 20
-0.20577136594
 10
14.0000007361
 20
1
  0
LINE
  5
113
100
AcDbEntity
  8
dxf_2mm35
  6
ByLayer
 62
    0
370
   -1
100
AcDbLine
 10
5.00000073612
 20
10.65
 11
5.00000073612
 21
13
  0
LINE
  5
114
100
AcDbEntity
  8
dxf_2mm35
  6
ByLayer
 62
    0
370
   -1
100
AcDbLine
 10
5.00000073612
 20
13
 11
10.0000007361
 21
13
  0
LINE
  5
115
100
AcDbEntity
  8
dxf_2mm35
  6
ByLayer
 62
    0
370
   -1
100
AcDbLine
 10
10.0000007361
 20
13
 11
10.0000007361
 21
10.65
  0
LINE
  5
116
100
AcDbEntity
  8
dxf_2mm35
  6
ByLayer
 62
    0
370
   -1
100
AcDbLine
 10
10.0000007361
 20
10.65
 11
5.00000073612
 21
10.65
  0
LINE
  5
117
100
AcDbEntity
  8
dxf_2mm35
  6
ByLayer
 62
    0
370
   -1
100
AcDbLine
 10
39.0500007361
 20
-18.3
 11
39.0500007361
 21
-13.3
  0
LINE
  5
118
100
AcDbEntity
  8
dxf_2mm35
  6
ByLayer
 62
    0
370
   -1
100
AcDbLine
 10
39.0500007361
 20
-13.3
 11
41.4000007361
 21
-13.3
  0
LINE
  5
119
100
AcDbEntity
  8
dxf_2mm35
  6
ByLayer
 62
    0
370
   -1
100
AcDbLine
 10
41.4000007361
 20
-13.3
 11
41.4000007361
 21
-18.3
  0
LINE
  5
11A
100
AcDbEntity
  8
dxf_2mm35
  6
ByLayer
 62
    0
370
   -1
100
AcDbLine
 10
41.4000007361
 20
-18.3
 11
39.0500007361
 21
-18.3
  0
LINE
  5
11B
100
AcDbEntity
  8
dxf_2mm35
  6
ByLayer
 62
    0
370
   -1
100
AcDbLine
 10
39.0500007361
 20
37.1
 11
39.0500007361
 21
42.1
  0
LINE
  5
11C
100
AcDbEntity
  8
dxf_2mm35
  6
ByLayer
 62
    0
370
   -1
100
AcDbLine
 10
39.0500007361
 20
42.1
 11
41.4000007361
 21
42.1
  0
LINE
  5
11D
100
AcDbEntity
  8
dxf_2mm35
  6
ByLayer
 62
    0
370
   -1
100
AcDbLine
 10
41.4000007361
 20
42.1
 11
41.4000007361
 21
37.1
  0
LINE
  5
11E
100
AcDbEntity
  8
dxf_2mm35
  6
ByLayer
 62
    0
370
   -1
100
AcDbLine
 10
41.4000007361
 20
37.1
 11
39.0500007361
 21
37.1
  0
LINE
  5
11F
100
AcDbEntity
  8
dxf_2mm35
  6
ByLayer
 62
    0
370
   -1
100
AcDbLine
 10
-50.3999992639
 20
10.65
 11
-50.3999992639
 21
13
  0
LINE
  5
120
100
AcDbEntity
  8
dxf_2mm35
  6
ByLayer
 62
    0
370
   -1
100
AcDbLine
 10
-50.3999992639
 20
13
 11
-45.3999992639
 21
13
  0
LINE
  5
121
100
AcDbEntity
  8
dxf_2mm35
  6
ByLayer
 62
    0
370
   -1
100
AcDbLine
 10
-45.3999992639
 20
13
 11
-45.3999992639
 21
10.65
  0
LINE
  5
122
100
AcDbEntity
  8
dxf_2mm35
  6
ByLayer
 62
    0
370
   -1
100
AcDbLine
 10
-45.3999992639
 20
10.65
 11
-50.3999992639
 21
10.65
  0
ENDBLK
  5
59
330
57
100
AcDbEntity
  8
0
100
AcDbBlockEnd
  0
BLOCK
  5
5B
330
5A
100
AcDbEntity
  8
0
100
AcDbBlockBegin
  2
p202
 70
    0
 10
0
 20
0
  3
p202
  1

  0
INSERT
  5
123
100
AcDbEntity
  8
dxf_2mm35
  6
ByLayer
 62
    0
370
   -1
100
AcDbBlockReference
  2
SHAPE2DVIEW020
 10
0
 20
0
 30
0
 41
1
 42
1
 43
0
 50
0
 70
    1
 71
    1
 44
0
 45
0
  0
ENDBLK
  5
5C
330
5A
100
AcDbEntity
  8
0
100
AcDbBlockEnd
  0
BLOCK
  5
5E
330
5D
100
AcDbEntity
  8
0
100
AcDbBlockBegin
  2
SHAPE2DVIEW021
 70
    0
 10
0
 20
0
  3
SHAPE2DVIEW021
  1

  0
LINE
  5
124
100
AcDbEntity
  8
0
  6
ByLayer
 62
    0
370
   -1
100
AcDbLine
 10
55.4337559936
 20
-18.5
 11
55.4337559936
 21
-33.5
  0
LINE
  5
125
100
AcDbEntity
  8
dxf_2mm35
  6
ByLayer
 62
    0
370
   -1
100
AcDbLine
 10
55.4337559936
 20
-33.5
 11
38.9337559936
 21
-33.5
  0
LINE
  5
126
100
AcDbEntity
  8
dxf_2mm35
  6
ByLayer
 62
    0
370
   -1
100
AcDbLine
 10
38.9337559936
 20
-33.5
 11
38.9337559936
 21
-35.85
  0
LINE
  5
127
100
AcDbEntity
  8
dxf_2mm35
  6
ByLayer
 62
    0
370
   -1
100
AcDbLine
 10
38.9337559936
 20
-35.85
 11
23.9337559936
 21
-35.85
  0
LINE
  5
128
100
AcDbEntity
  8
dxf_2mm35
  6
ByLayer
 62
    0
370
   -1
100
AcDbLine
 10
23.9337559936
 20
-35.85
 11
23.9337559936
 21
-33.5
  0
LINE
  5
129
100
AcDbEntity
  8
dxf_2mm35
  6
ByLayer
 62
    0
370
   -1
100
AcDbLine
 10
23.9337559936
 20
-33.5
 11
8.93375599362
 21
-33.5
  0
LINE
  5
12A
100
AcDbEntity
  8
dxf_2mm35
  6
ByLayer
 62
    0
370
   -1
100
AcDbLine
 10
8.93375599362
 20
-33.5
 11
8.93375599362
 21
-35.85
  0
LINE
  5
12B
100
AcDbEntity
  8
dxf_2mm35
  6
ByLayer
 62
    0
370
   -1
100
AcDbLine
 10
8.93375599362
 20
-35.85
 11
-6.06624400638
 21
-35.85
  0
LINE
  5
12C
100
AcDbEntity
  8
dxf_2mm35
  6
ByLayer
 62
    0
370
   -1
100
AcDbLine
 10
-6.06624400638
 20
-35.85
 11
-15.5000007361
 21
-26.5
  0
LINE
  5
12D
100
AcDbEntity
  8
dxf_2mm35
  6
ByLayer
 62
    0
370
   -1
100
AcDbLine
 10
-15.5000007361
 20
-26.5
 11
-23.5000007361
 21
-26.5
  0
LINE
  5
12E
100
AcDbEntity
  8
dxf_2mm35
  6
ByLayer
 62
    0
370
   -1
100
AcDbLine
 10
-23.5000007361
 20
-26.5
 11
-23.5000007361
 21
-24.15
  0
LINE
  5
12F
100
AcDbEntity
  8
dxf_2mm35
  6
ByLayer
 62
    0
370
   -1
100
AcDbLine
 10
-23.5000007361
 20
-24.15
 11
-43.5000007361
 21
-24.15
  0
LINE
  5
130
100
AcDbEntity
  8
dxf_2mm35
  6
ByLayer
 62
    0
370
   -1
100
AcDbLine
 10
-43.5000007361
 20
-24.15
 11
-43.5000007361
 21
-26.5
  0
LINE
  5
131
100
AcDbEntity
  8
dxf_2mm35
  6
ByLayer
 62
    0
370
   -1
100
AcDbLine
 10
-43.5000007361
 20
-26.5
 11
-54.6500007361
 21
-26.5
  0
LINE
  5
132
100
AcDbEntity
  8
dxf_2mm35
  6
ByLayer
 62
    0
370
   -1
100
AcDbLine
 10
-54.6500007361
 20
-26.5
 11
-54.6500007361
 21
-15
  0
LINE
  5
133
100
AcDbEntity
  8
dxf_2mm35
  6
ByLayer
 62
    0
370
   -1
100
AcDbLine
 10
-54.6500007361
 20
-15
 11
-57.0000007361
 21
-15
  0
LINE
  5
134
100
AcDbEntity
  8
dxf_2mm35
  6
ByLayer
 62
    0
370
   -1
100
AcDbLine
 10
-57.0000007361
 20
-15
 11
-57.0000007361
 21
3.5527136788e-15
  0
LINE
  5
135
100
AcDbEntity
  8
dxf_2mm35
  6
ByLayer
 62
    0
370
   -1
100
AcDbLine
 10
-57.0000007361
 20
0
 11
-48.0000007361
 21
11
  0
LINE
  5
136
100
AcDbEntity
  8
dxf_2mm35
  6
ByLayer
 62
    0
370
   -1
100
AcDbLine
 10
-48.0000007361
 20
11
 11
-48.0000007361
 21
44
  0
LINE
  5
137
100
AcDbEntity
  8
dxf_2mm35
  6
ByLayer
 62
    0
370
   -1
100
AcDbLine
 10
-48.0000007361
 20
44
 11
-45.0000007361
 21
47
  0
LINE
  5
138
100
AcDbEntity
  8
dxf_2mm35
  6
ByLayer
 62
    0
370
   -1
100
AcDbLine
 10
-45.0000007361
 20
47
 11
-31.0000007361
 21
47
  0
LINE
  5
139
100
AcDbEntity
  8
dxf_2mm35
  6
ByLayer
 62
    0
370
   -1
100
AcDbLine
 10
-31.0000007361
 20
47
 11
-16.5662440064
 21
22
  0
LINE
  5
13A
100
AcDbEntity
  8
dxf_2mm35
  6
ByLayer
 62
    0
370
   -1
100
AcDbLine
 10
-16.5662440064
 20
22
 11
13.4337559936
 21
22
  0
LINE
  5
13B
100
AcDbEntity
  8
dxf_2mm35
  6
ByLayer
 62
    0
370
   -1
100
AcDbLine
 10
13.4337559936
 20
22
 11
38.4337559936
 21
47
  0
LINE
  5
13C
100
AcDbEntity
  8
dxf_2mm35
  6
ByLayer
 62
    0
370
   -1
100
AcDbLine
 10
38.4337559936
 20
47
 11
55.4337559936
 21
47
  0
LINE
  5
13D
100
AcDbEntity
  8
dxf_2mm35
  6
ByLayer
 62
    0
370
   -1
100
AcDbLine
 10
55.4337559936
 20
47
 11
55.4337559936
 21
26.5
  0
LINE
  5
13E
100
AcDbEntity
  8
dxf_2mm35
  6
ByLayer
 62
    0
370
   -1
100
AcDbLine
 10
57.7837559936
 20
26.5
 11
55.4337559936
 21
26.5
  0
LINE
  5
13F
100
AcDbEntity
  8
dxf_2mm35
  6
ByLayer
 62
    0
370
   -1
100
AcDbLine
 10
57.7837559936
 20
11.5
 11
57.7837559936
 21
26.5
  0
LINE
  5
140
100
AcDbEntity
  8
dxf_2mm35
  6
ByLayer
 62
    0
370
   -1
100
AcDbLine
 10
55.4337559936
 20
11.5
 11
57.7837559936
 21
11.5
  0
LINE
  5
141
100
AcDbEntity
  8
dxf_2mm35
  6
ByLayer
 62
    0
370
   -1
100
AcDbLine
 10
55.4337559936
 20
11.5
 11
55.4337559936
 21
-3.5
  0
LINE
  5
142
100
AcDbEntity
  8
dxf_2mm35
  6
ByLayer
 62
    0
370
   -1
100
AcDbLine
 10
57.7837559936
 20
-3.5
 11
55.4337559936
 21
-3.5
  0
LINE
  5
143
100
AcDbEntity
  8
dxf_2mm35
  6
ByLayer
 62
    0
370
   -1
100
AcDbLine
 10
57.7837559936
 20
-18.5
 11
57.7837559936
 21
-3.5
  0
LINE
  5
144
100
AcDbEntity
  8
dxf_2mm35
  6
ByLayer
 62
    0
370
   -1
100
AcDbLine
 10
55.4337559936
 20
-18.5
 11
57.7837559936
 21
-18.5
  0
LWPOLYLINE
  5
145
100
AcDbEntity
  8
dxf_2mm35
  6
ByLayer
 62
    0
370
   -1
100
AcDbPolyline
 90
   24
 70
    0
 43
0
 10
21.9999992639
 20
10
 10
26.8563411447
 20
9.33251117226
 10
31.3525103645
 20
7.37954928184
 10
35.1550466209
 20
4.28595657794
 10
37.9819331951
 20
0.281170679161
 10
39.6235128422
 20
-4.33779176505
 10
39.9580371093
 20
-9.228363440560001
 10
38.960695862
 20
-14.0278330191
 10
36.7054573381
 20
-18.3802457981
 10
33.3595822618
 20
-21.9628032327
 10
29.1712188811
 20
-24.5098034271
 10
24.4509989476
 20
-25.8323470287
 10
19.5489995802
 20
-25.8323470287
 10
14.8287796467
 20
-24.5098034271
 10
10.640416266
 20
-21.9628032327
 10
7.29454118969
 20
-18.3802457981
 10
5.03930266574
 20
-14.0278330191
 10
4.04196141845
 20
-9.228363440560001
 10
4.3764856856
 20
-4.33779176505
 10
6.01806533264
 20
0.281170679161
 10
8.84495190688
 20
4.28595657794
 10
12.6474881632
 20
7.37954928184
 10
17.1436573831
 20
9.33251117226
 10
21.9999992639
 20
10
  0
LWPOLYLINE
  5
146
100
AcDbEntity
  8
dxf_2mm35
  6
ByLayer
 62
    0
370
   -1
100
AcDbPolyline
 90
   13
 70
    0
 43
0
 10
-14.0000007361
 20
1
 10
-9.500000736120001
 20
-0.20577136594
 10
-6.20577210206
 20
-3.5
 10
-5.00000073612
 20
-8
 10
-6.20577210206
 20
-12.5
 10
-9.500000736120001
 20
-15.7942286341
 10
-14.0000007361
 20
-17
 10
-18.5000007361
 20
-15.7942286341
 10
-21.7942293702
 20
-12.5
 10
-23.0000007361
 20
-8
 10
-21.7942293702
 20
-3.5
 10
-18.5000007361
 20
-0.20577136594
 10
-14.0000007361
 20
1
  0
LINE
  5
147
100
AcDbEntity
  8
dxf_2mm35
  6
ByLayer
 62
    0
370
   -1
100
AcDbLine
 10
-39.0500007361
 20
-18.3
 11
-39.0500007361
 21
-13.3
  0
LINE
  5
148
100
AcDbEntity
  8
dxf_2mm35
  6
ByLayer
 62
    0
370
   -1
100
AcDbLine
 10
-39.0500007361
 20
-13.3
 11
-41.4000007361
 21
-13.3
  0
LINE
  5
149
100
AcDbEntity
  8
dxf_2mm35
  6
ByLayer
 62
    0
370
   -1
100
AcDbLine
 10
-41.4000007361
 20
-13.3
 11
-41.4000007361
 21
-18.3
  0
LINE
  5
14A
100
AcDbEntity
  8
dxf_2mm35
  6
ByLayer
 62
    0
370
   -1
100
AcDbLine
 10
-41.4000007361
 20
-18.3
 11
-39.0500007361
 21
-18.3
  0
LINE
  5
14B
100
AcDbEntity
  8
dxf_2mm35
  6
ByLayer
 62
    0
370
   -1
100
AcDbLine
 10
-5.00000073612
 20
10.65
 11
-5.00000073612
 21
13
  0
LINE
  5
14C
100
AcDbEntity
  8
dxf_2mm35
  6
ByLayer
 62
    0
370
   -1
100
AcDbLine
 10
-5.00000073612
 20
13
 11
-10.0000007361
 21
13
  0
LINE
  5
14D
100
AcDbEntity
  8
dxf_2mm35
  6
ByLayer
 62
    0
370
   -1
100
AcDbLine
 10
-10.0000007361
 20
13
 11
-10.0000007361
 21
10.65
  0
LINE
  5
14E
100
AcDbEntity
  8
dxf_2mm35
  6
ByLayer
 62
    0
370
   -1
100
AcDbLine
 10
-10.0000007361
 20
10.65
 11
-5.00000073612
 21
10.65
  0
LINE
  5
14F
100
AcDbEntity
  8
dxf_2mm35
  6
ByLayer
 62
    0
370
   -1
100
AcDbLine
 10
-39.0500007361
 20
37.1
 11
-39.0500007361
 21
42.1
  0
LINE
  5
150
100
AcDbEntity
  8
dxf_2mm35
  6
ByLayer
 62
    0
370
   -1
100
AcDbLine
 10
-39.0500007361
 20
42.1
 11
-41.4000007361
 21
42.1
  0
LINE
  5
151
100
AcDbEntity
  8
dxf_2mm35
  6
ByLayer
 62
    0
370
   -1
100
AcDbLine
 10
-41.4000007361
 20
42.1
 11
-41.4000007361
 21
37.1
  0
LINE
  5
152
100
AcDbEntity
  8
dxf_2mm35
  6
ByLayer
 62
    0
370
   -1
100
AcDbLine
 10
-41.4000007361
 20
37.1
 11
-39.0500007361
 21
37.1
  0
LINE
  5
153
100
AcDbEntity
  8
dxf_2mm35
  6
ByLayer
 62
    0
370
   -1
100
AcDbLine
 10
50.3999992639
 20
10.65
 11
50.3999992639
 21
13
  0
LINE
  5
154
100
AcDbEntity
  8
dxf_2mm35
  6
ByLayer
 62
    0
370
   -1
100
AcDbLine
 10
50.3999992639
 20
13
 11
45.3999992639
 21
13
  0
LINE
  5
155
100
AcDbEntity
  8
dxf_2mm35
  6
ByLayer
 62
    0
370
   -1
100
AcDbLine
 10
45.3999992639
 20
13
 11
45.3999992639
 21
10.65
  0
LINE
  5
156
100
AcDbEntity
  8
dxf_2mm35
  6
ByLayer
 62
    0
370
   -1
100
AcDbLine
 10
45.3999992639
 20
10.65
 11
50.3999992639
 21
10.65
  0
ENDBLK
  5
5F
330
5D
100
AcDbEntity
  8
0
100
AcDbBlockEnd
  0
BLOCK
  5
61
330
60
100
AcDbEntity
  8
0
100
AcDbBlockBegin
  2
p203
 70
    0
 10
0
 20
0
  3
p203
  1

  0
INSERT
  5
157
100
AcDbEntity
  8
dxf_2mm35
  6
ByLayer
 62
    0
370
   -1
100
AcDbBlockReference
  2
SHAPE2DVIEW021
 10
0
 20
0
 30
0
 41
1
 42
1
 43
0
 50
0
 70
    1
 71
    1
 44
0
 45
0
  0
ENDBLK
  5
62
330
60
100
AcDbEntity
  8
0
100
AcDbBlockEnd
  0
BLOCK
  5
64
330
63
100
AcDbEntity
  8
0
100
AcDbBlockBegin
  2
SHAPE2DVIEW022
 70
    0
 10
0
 20
0
  3
SHAPE2DVIEW022
  1

  0
LINE
  5
158
100
AcDbEntity
  8
0
  6
ByLayer
 62
    0
370
   -1
100
AcDbLine
 10
-35.85
 20
24
 11
-35.85
 21
-24
  0
LINE
  5
159
100
AcDbEntity
  8
dxf_2mm35
  6
ByLayer
 62
    0
370
   -1
100
AcDbLine
 10
-35.85
 20
-24
 11
-32.85
 21
-27
  0
LINE
  5
15A
100
AcDbEntity
  8
dxf_2mm35
  6
ByLayer
 62
    0
370
   -1
100
AcDbLine
 10
-32.85
 20
-27
 11
44
 21
-27
  0
LINE
  5
15B
100
AcDbEntity
  8
dxf_2mm35
  6
ByLayer
 62
    0
370
   -1
100
AcDbLine
 10
44
 20
-27
 11
47
 21
-24
  0
LINE
  5
15C
100
AcDbEntity
  8
dxf_2mm35
  6
ByLayer
 62
    0
370
   -1
100
AcDbLine
 10
47
 20
-24
 11
47
 21
-10
  0
LINE
  5
15D
100
AcDbEntity
  8
dxf_2mm35
  6
ByLayer
 62
    0
370
   -1
100
AcDbLine
 10
47
 20
-10
 11
44.65
 21
-10
  0
LINE
  5
15E
100
AcDbEntity
  8
dxf_2mm35
  6
ByLayer
 62
    0
370
   -1
100
AcDbLine
 10
44.65
 20
-10
 11
44.65
 21
10
  0
LINE
  5
15F
100
AcDbEntity
  8
dxf_2mm35
  6
ByLayer
 62
    0
370
   -1
100
AcDbLine
 10
44.65
 20
10
 11
47
 21
10
  0
LINE
  5
160
100
AcDbEntity
  8
dxf_2mm35
  6
ByLayer
 62
    0
370
   -1
100
AcDbLine
 10
47
 20
10
 11
47
 21
24
  0
LINE
  5
161
100
AcDbEntity
  8
dxf_2mm35
  6
ByLayer
 62
    0
370
   -1
100
AcDbLine
 10
47
 20
24
 11
44
 21
27
  0
LINE
  5
162
100
AcDbEntity
  8
dxf_2mm35
  6
ByLayer
 62
    0
370
   -1
100
AcDbLine
 10
44
 20
27
 11
-32.85
 21
27
  0
LINE
  5
163
100
AcDbEntity
  8
dxf_2mm35
  6
ByLayer
 62
    0
370
   -1
100
AcDbLine
 10
-32.85
 20
27
 11
-35.85
 21
24
  0
LINE
  5
164
100
AcDbEntity
  8
dxf_2mm35
  6
ByLayer
 62
    0
370
   -1
100
AcDbLine
 10
11.5
 20
-10
 11
26.5
 21
-10
  0
LINE
  5
165
100
AcDbEntity
  8
dxf_2mm35
  6
ByLayer
 62
    0
370
   -1
100
AcDbLine
 10
26.5
 20
-10
 11
26.5
 21
-12.35
  0
LINE
  5
166
100
AcDbEntity
  8
dxf_2mm35
  6
ByLayer
 62
    0
370
   -1
100
AcDbLine
 10
26.5
 20
-12.35
 11
11.5
 21
-12.35
  0
LINE
  5
167
100
AcDbEntity
  8
dxf_2mm35
  6
ByLayer
 62
    0
370
   -1
100
AcDbLine
 10
11.5
 20
-12.35
 11
11.5
 21
-10
  0
LINE
  5
168
100
AcDbEntity
  8
dxf_2mm35
  6
ByLayer
 62
    0
370
   -1
100
AcDbLine
 10
-18.5
 20
-10
 11
-3.5
 21
-10
  0
LINE
  5
169
100
AcDbEntity
  8
dxf_2mm35
  6
ByLayer
 62
    0
370
   -1
100
AcDbLine
 10
-3.5
 20
-10
 11
-3.5
 21
-12.35
  0
LINE
  5
16A
100
AcDbEntity
  8
dxf_2mm35
  6
ByLayer
 62
    0
370
   -1
100
AcDbLine
 10
-3.5
 20
-12.35
 11
-18.5
 21
-12.35
  0
LINE
  5
16B
100
AcDbEntity
  8
dxf_2mm35
  6
ByLayer
 62
    0
370
   -1
100
AcDbLine
 10
-18.5
 20
-12.35
 11
-18.5
 21
-10
  0
LINE
  5
16C
100
AcDbEntity
  8
dxf_2mm35
  6
ByLayer
 62
    0
370
   -1
100
AcDbLine
 10
11.5
 20
12.35
 11
26.5
 21
12.35
  0
LINE
  5
16D
100
AcDbEntity
  8
dxf_2mm35
  6
ByLayer
 62
    0
370
   -1
100
AcDbLine
 10
26.5
 20
12.35
 11
26.5
 21
10
  0
LINE
  5
16E
100
AcDbEntity
  8
dxf_2mm35
  6
ByLayer
 62
    0
370
   -1
100
AcDbLine
 10
26.5
 20
10
 11
11.5
 21
10
  0
LINE
  5
16F
100
AcDbEntity
  8
dxf_2mm35
  6
ByLayer
 62
    0
370
   -1
100
AcDbLine
 10
11.5
 20
10
 11
11.5
 21
12.35
  0
LINE
  5
170
100
AcDbEntity
  8
dxf_2mm35
  6
ByLayer
 62
    0
370
   -1
100
AcDbLine
 10
-18.5
 20
12.35
 11
-3.5
 21
12.35
  0
LINE
  5
171
100
AcDbEntity
  8
dxf_2mm35
  6
ByLayer
 62
    0
370
   -1
100
AcDbLine
 10
-3.5
 20
12.35
 11
-3.5
 21
10
  0
LINE
  5
172
100
AcDbEntity
  8
dxf_2mm35
  6
ByLayer
 62
    0
370
   -1
100
AcDbLine
 10
-3.5
 20
10
 11
-18.5
 21
10
  0
LINE
  5
173
100
AcDbEntity
  8
dxf_2mm35
  6
ByLayer
 62
    0
370
   -1
100
AcDbLine
 10
-18.5
 20
10
 11
-18.5
 21
12.35
  0
ENDBLK
  5
65
330
63
100
AcDbEntity
  8
0
100
AcDbBlockEnd
  0
BLOCK
  5
67
330
66
100
AcDbEntity
  8
0
100
AcDbBlockBegin
  2
p204
 70
    0
 10
0
 20
0
  3
p204
  1

  0
INSERT
  5
174
100
AcDbEntity
  8
dxf_2mm35
  6
ByLayer
 62
    0
370
   -1
100
AcDbBlockReference
  2
SHAPE2DVIEW022
 10
0
 20
0
 30
0
 41
1
 42
1
 43
0
 50
0
 70
    1
 71
    1
 44
0
 45
0
  0
ENDBLK
  5
68
330
66
100
AcDbEntity
  8
0
100
AcDbBlockEnd
  0
BLOCK
  5
6A
330
69
100
AcDbEntity
  8
0
100
AcDbBlockBegin
  2
SHAPE2DVIEW023
 70
    0
 10
0
 20
0
  3
SHAPE2DVIEW023
  1

  0
LINE
  5
175
100
AcDbEntity
  8
0
  6
ByLayer
 62
    0
370
   -1
100
AcDbLine
 10
55.5
 20
-12.35
 11
55.5
 21
12.35
  0
LINE
  5
176
100
AcDbEntity
  8
dxf_2mm35
  6
ByLayer
 62
    0
370
   -1
100
AcDbLine
 10
55.5
 20
12.35
 11
38.9
 21
12.35
  0
LINE
  5
177
100
AcDbEntity
  8
dxf_2mm35
  6
ByLayer
 62
    0
370
   -1
100
AcDbLine
 10
38.9
 20
12.35
 11
38.9
 21
10
  0
LINE
  5
178
100
AcDbEntity
  8
dxf_2mm35
  6
ByLayer
 62
    0
370
   -1
100
AcDbLine
 10
38.9
 20
10
 11
23.9
 21
10
  0
LINE
  5
179
100
AcDbEntity
  8
dxf_2mm35
  6
ByLayer
 62
    0
370
   -1
100
AcDbLine
 10
23.9
 20
10
 11
23.9
 21
12.35
  0
LINE
  5
17A
100
AcDbEntity
  8
dxf_2mm35
  6
ByLayer
 62
    0
370
   -1
100
AcDbLine
 10
23.9
 20
12.35
 11
8.9
 21
12.35
  0
LINE
  5
17B
100
AcDbEntity
  8
dxf_2mm35
  6
ByLayer
 62
    0
370
   -1
100
AcDbLine
 10
8.9
 20
12.35
 11
8.9
 21
10
  0
LINE
  5
17C
100
AcDbEntity
  8
dxf_2mm35
  6
ByLayer
 62
    0
370
   -1
100
AcDbLine
 10
8.9
 20
10
 11
-6.1
 21
10
  0
LINE
  5
17D
100
AcDbEntity
  8
dxf_2mm35
  6
ByLayer
 62
    0
370
   -1
100
AcDbLine
 10
-6.1
 20
10
 11
-6.1
 21
-10
  0
LINE
  5
17E
100
AcDbEntity
  8
dxf_2mm35
  6
ByLayer
 62
    0
370
   -1
100
AcDbLine
 10
-6.1
 20
-10
 11
8.9
 21
-10
  0
LINE
  5
17F
100
AcDbEntity
  8
dxf_2mm35
  6
ByLayer
 62
    0
370
   -1
100
AcDbLine
 10
8.9
 20
-10
 11
8.9
 21
-12.35
  0
LINE
  5
180
100
AcDbEntity
  8
dxf_2mm35
  6
ByLayer
 62
    0
370
   -1
100
AcDbLine
 10
8.9
 20
-12.35
 11
23.9
 21
-12.35
  0
LINE
  5
181
100
AcDbEntity
  8
dxf_2mm35
  6
ByLayer
 62
    0
370
   -1
100
AcDbLine
 10
23.9
 20
-12.35
 11
23.9
 21
-10
  0
LINE
  5
182
100
AcDbEntity
  8
dxf_2mm35
  6
ByLayer
 62
    0
370
   -1
100
AcDbLine
 10
23.9
 20
-10
 11
38.9
 21
-10
  0
LINE
  5
183
100
AcDbEntity
  8
dxf_2mm35
  6
ByLayer
 62
    0
370
   -1
100
AcDbLine
 10
38.9
 20
-10
 11
38.9
 21
-12.35
  0
LINE
  5
184
100
AcDbEntity
  8
dxf_2mm35
  6
ByLayer
 62
    0
370
   -1
100
AcDbLine
 10
38.9
 20
-12.35
 11
55.5
 21
-12.35
  0
CIRCLE
  5
185
100
AcDbEntity
  8
dxf_2mm35
  6
ByLayer
 62
    0
370
   -1
100
AcDbCircle
 10
15.5
 20
-1.72084568817e-15
 40
8
  0
CIRCLE
  5
186
100
AcDbEntity
  8
dxf_2mm35
  6
ByLayer
 62
    0
370
   -1
100
AcDbCircle
 10
45.5
 20
-5.05151476204e-15
 40
8
  0
ENDBLK
  5
6B
330
69
100
AcDbEntity
  8
0
100
AcDbBlockEnd
  0
BLOCK
  5
6D
330
6C
100
AcDbEntity
  8
0
100
AcDbBlockBegin
  2
p205
 70
    0
 10
0
 20
0
  3
p205
  1

  0
INSERT
  5
187
100
AcDbEntity
  8
dxf_2mm35
  6
ByLayer
 62
    0
370
   -1
100
AcDbBlockReference
  2
SHAPE2DVIEW023
 10
0
 20
0
 30
0
 41
1
 42
1
 43
0
 50
0
 70
    1
 71
    1
 44
0
 45
0
  0
ENDBLK
  5
6E
330
6C
100
AcDbEntity
  8
0
100
AcDbBlockEnd
  0
BLOCK
  5
70
330
6F
100
AcDbEntity
  8
0
100
AcDbBlockBegin
  2
SHAPE2DVIEW024
 70
    0
 10
0
 20
0
  3
SHAPE2DVIEW024
  1

  0
LINE
  5
188
100
AcDbEntity
  8
0
  6
ByLayer
 62
    0
370
   -1
100
AcDbLine
 10
-43.5
 20
-12.35
 11
-51.5
 21
-12.35
  0
LINE
  5
189
100
AcDbEntity
  8
dxf_2mm35
  6
ByLayer
 62
    0
370
   -1
100
AcDbLine
 10
-51.5
 20
-12.35
 11
-51.5
 21
-20.35
  0
LINE
  5
18A
100
AcDbEntity
  8
dxf_2mm35
  6
ByLayer
 62
    0
370
   -1
100
AcDbLine
 10
-51.5
 20
-20.35
 11
-48.5
 21
-23.35
  0
LINE
  5
18B
100
AcDbEntity
  8
dxf_2mm35
  6
ByLayer
 62
    0
370
   -1
100
AcDbLine
 10
-48.5
 20
-23.35
 11
-18.5
 21
-23.35
  0
LINE
  5
18C
100
AcDbEntity
  8
dxf_2mm35
  6
ByLayer
 62
    0
370
   -1
100
AcDbLine
 10
-18.5
 20
-23.35
 11
-15.5
 21
-20.35
  0
LINE
  5
18D
100
AcDbEntity
  8
dxf_2mm35
  6
ByLayer
 62
    0
370
   -1
100
AcDbLine
 10
-15.5
 20
-20.35
 11
-15.5
 21
-12.35
  0
LINE
  5
18E
100
AcDbEntity
  8
dxf_2mm35
  6
ByLayer
 62
    0
370
   -1
100
AcDbLine
 10
-15.5
 20
-12.35
 11
-23.5
 21
-12.35
  0
LINE
  5
18F
100
AcDbEntity
  8
dxf_2mm35
  6
ByLayer
 62
    0
370
   -1
100
AcDbLine
 10
-23.5
 20
-12.35
 11
-23.5
 21
-10
  0
LINE
  5
190
100
AcDbEntity
  8
dxf_2mm35
  6
ByLayer
 62
    0
370
   -1
100
AcDbLine
 10
-23.5
 20
-10
 11
-23.5
 21
10
  0
LINE
  5
191
100
AcDbEntity
  8
dxf_2mm35
  6
ByLayer
 62
    0
370
   -1
100
AcDbLine
 10
-23.5
 20
10
 11
-23.5
 21
12.35
  0
LINE
  5
192
100
AcDbEntity
  8
dxf_2mm35
  6
ByLayer
 62
    0
370
   -1
100
AcDbLine
 10
-23.5
 20
12.35
 11
-15.5
 21
12.35
  0
LINE
  5
193
100
AcDbEntity
  8
dxf_2mm35
  6
ByLayer
 62
    0
370
   -1
100
AcDbLine
 10
-15.5
 20
12.35
 11
-15.5
 21
20.35
  0
LINE
  5
194
100
AcDbEntity
  8
dxf_2mm35
  6
ByLayer
 62
    0
370
   -1
100
AcDbLine
 10
-15.5
 20
20.35
 11
-18.5
 21
23.35
  0
LINE
  5
195
100
AcDbEntity
  8
dxf_2mm35
  6
ByLayer
 62
    0
370
   -1
100
AcDbLine
 10
-18.5
 20
23.35
 11
-48.5
 21
23.35
  0
LINE
  5
196
100
AcDbEntity
  8
dxf_2mm35
  6
ByLayer
 62
    0
370
   -1
100
AcDbLine
 10
-48.5
 20
23.35
 11
-51.5
 21
20.35
  0
LINE
  5
197
100
AcDbEntity
  8
dxf_2mm35
  6
ByLayer
 62
    0
370
   -1
100
AcDbLine
 10
-51.5
 20
20.35
 11
-51.5
 21
12.35
  0
LINE
  5
198
100
AcDbEntity
  8
dxf_2mm35
  6
ByLayer
 62
    0
370
   -1
100
AcDbLine
 10
-51.5
 20
12.35
 11
-43.5
 21
12.35
  0
LINE
  5
199
100
AcDbEntity
  8
dxf_2mm35
  6
ByLayer
 62
    0
370
   -1
100
AcDbLine
 10
-43.5
 20
10
 11
-43.5
 21
12.35
  0
LINE
  5
19A
100
AcDbEntity
  8
dxf_2mm35
  6
ByLayer
 62
    0
370
   -1
100
AcDbLine
 10
-43.5
 20
-10
 11
-43.5
 21
10
  0
LINE
  5
19B
100
AcDbEntity
  8
dxf_2mm35
  6
ByLayer
 62
    0
370
   -1
100
AcDbLine
 10
-43.5
 20
-12.35
 11
-43.5
 21
-10
  0
LINE
  5
19C
100
AcDbEntity
  8
dxf_2mm35
  6
ByLayer
 62
    0
370
   -1
100
AcDbLine
 10
-28.5
 20
-10
 11
-28.5
 21
10
  0
LINE
  5
19D
100
AcDbEntity
  8
dxf_2mm35
  6
ByLayer
 62
    0
370
   -1
100
AcDbLine
 10
-28.5
 20
10
 11
-38.5
 21
10
  0
LINE
  5
19E
100
AcDbEntity
  8
dxf_2mm35
  6
ByLayer
 62
    0
370
   -1
100
AcDbLine
 10
-38.5
 20
10
 11
-38.5
 21
-10
  0
LINE
  5
19F
100
AcDbEntity
  8
dxf_2mm35
  6
ByLayer
 62
    0
370
   -1
100
AcDbLine
 10
-38.5
 20
-10
 11
-28.5
 21
-10
  0
CIRCLE
  5
1A0
100
AcDbEntity
  8
dxf_2mm35
  6
ByLayer
 62
    0
370
   -1
100
AcDbCircle
 10
-20.5
 20
-18.35
 40
0.25
  0
CIRCLE
  5
1A1
100
AcDbEntity
  8
dxf_2mm35
  6
ByLayer
 62
    0
370
   -1
100
AcDbCircle
 10
-46.5
 20
-18.35
 40
0.25
  0
CIRCLE
  5
1A2
100
AcDbEntity
  8
dxf_2mm35
  6
ByLayer
 62
    0
370
   -1
100
AcDbCircle
 10
-46.5
 20
18.35
 40
0.25
  0
CIRCLE
  5
1A3
100
AcDbEntity
  8
dxf_2mm35
  6
ByLayer
 62
    0
370
   -1
100
AcDbCircle
 10
-20.5
 20
18.35
 40
0.25
  0
ENDBLK
  5
71
330
6F
100
AcDbEntity
  8
0
100
AcDbBlockEnd
  0
BLOCK
  5
73
330
72
100
AcDbEntity
  8
0
100
AcDbBlockBegin
  2
p206
 70
    0
 10
0
 20
0
  3
p206
  1

  0
INSERT
  5
1A4
100
AcDbEntity
  8
dxf_2mm35
  6
ByLayer
 62
    0
370
   -1
100
AcDbBlockReference
  2
SHAPE2DVIEW024
 10
0
 20
0
 30
0
 41
1
 42
1
 43
0
 50
0
 70
    1
 71
    1
 44
0
 45
0
  0
ENDBLK
  5
74
330
72
100
AcDbEntity
  8
0
100
AcDbBlockEnd
  0
BLOCK
  5
76
330
75
100
AcDbEntity
  8
0
100
AcDbBlockBegin
  2
SHAPE2DVIEW025
 70
    0
 10
0
 20
0
  3
SHAPE2DVIEW025
  1

  0
LINE
  5
1A5
100
AcDbEntity
  8
0
  6
ByLayer
 62
    0
370
   -1
100
AcDbLine
 10
-26.5
 20
-12.35
 11
-15
 21
-12.35
  0
LINE
  5
1A6
100
AcDbEntity
  8
dxf_2mm35
  6
ByLayer
 62
    0
370
   -1
100
AcDbLine
 10
-15
 20
-12.35
 11
-15
 21
-10
  0
LINE
  5
1A7
100
AcDbEntity
  8
dxf_2mm35
  6
ByLayer
 62
    0
370
   -1
100
AcDbLine
 10
-15
 20
-10
 11
0
 21
-10
  0
LINE
  5
1A8
100
AcDbEntity
  8
dxf_2mm35
  6
ByLayer
 62
    0
370
   -1
100
AcDbLine
 10
0
 20
-10
 11
0
 21
-6.5
  0
LINE
  5
1A9
100
AcDbEntity
  8
dxf_2mm35
  6
ByLayer
 62
    0
370
   -1
100
AcDbLine
 10
0
 20
-6.5
 11
-4
 21
-2.5
  0
LINE
  5
1AA
100
AcDbEntity
  8
dxf_2mm35
  6
ByLayer
 62
    0
370
   -1
100
AcDbLine
 10
-4
 20
-2.5
 11
-4
 21
2.5
  0
LINE
  5
1AB
100
AcDbEntity
  8
dxf_2mm35
  6
ByLayer
 62
    0
370
   -1
100
AcDbLine
 10
-4
 20
2.5
 11
0
 21
6.5
  0
LINE
  5
1AC
100
AcDbEntity
  8
dxf_2mm35
  6
ByLayer
 62
    0
370
   -1
100
AcDbLine
 10
0
 20
6.5
 11
0
 21
10
  0
LINE
  5
1AD
100
AcDbEntity
  8
dxf_2mm35
  6
ByLayer
 62
    0
370
   -1
100
AcDbLine
 10
0
 20
10
 11
-15
 21
10
  0
LINE
  5
1AE
100
AcDbEntity
  8
dxf_2mm35
  6
ByLayer
 62
    0
370
   -1
100
AcDbLine
 10
-15
 20
10
 11
-15
 21
12.35
  0
LINE
  5
1AF
100
AcDbEntity
  8
dxf_2mm35
  6
ByLayer
 62
    0
370
   -1
100
AcDbLine
 10
-15
 20
12.35
 11
-26.5
 21
12.35
  0
LINE
  5
1B0
100
AcDbEntity
  8
dxf_2mm35
  6
ByLayer
 62
    0
370
   -1
100
AcDbLine
 10
-26.5
 20
12.35
 11
-29.5
 21
9.349999999990001
  0
LINE
  5
1B1
100
AcDbEntity
  8
dxf_2mm35
  6
ByLayer
 62
    0
370
   -1
100
AcDbLine
 10
-29.5
 20
9.349999999990001
 11
-29.5
 21
-9.350000000010001
  0
LINE
  5
1B2
100
AcDbEntity
  8
dxf_2mm35
  6
ByLayer
 62
    0
370
   -1
100
AcDbLine
 10
-29.5
 20
-9.350000000010001
 11
-26.5
 21
-12.35
  0
CIRCLE
  5
1B3
100
AcDbEntity
  8
dxf_2mm35
  6
ByLayer
 62
    0
370
   -1
100
AcDbCircle
 10
-24.5
 20
6
 40
0.25
  0
CIRCLE
  5
1B4
100
AcDbEntity
  8
dxf_2mm35
  6
ByLayer
 62
    0
370
   -1
100
AcDbCircle
 10
-24.5
 20
-6
 40
0.25
  0
ENDBLK
  5
77
330
75
100
AcDbEntity
  8
0
100
AcDbBlockEnd
  0
BLOCK
  5
79
330
78
100
AcDbEntity
  8
0
100
AcDbBlockBegin
  2
p207
 70
    0
 10
0
 20
0
  3
p207
  1

  0
INSERT
  5
1B5
100
AcDbEntity
  8
dxf_2mm35
  6
ByLayer
 62
    0
370
   -1
100
AcDbBlockReference
  2
SHAPE2DVIEW025
 10
0
 20
0
 30
0
 41
1
 42
1
 43
0
 50
0
 70
    1
 71
    1
 44
0
 45
0
  0
ENDBLK
  5
7A
330
78
100
AcDbEntity
  8
0
100
AcDbBlockEnd
  0
BLOCK
  5
7C
330
7B
100
AcDbEntity
  8
0
100
AcDbBlockBegin
  2
SHAPE2DVIEW026
 70
    0
 10
0
 20
0
  3
SHAPE2DVIEW026
  1

  0
LINE
  5
1B6
100
AcDbEntity
  8
0
  6
ByLayer
 62
    0
370
   -1
100
AcDbLine
 10
21.765678294
 20
-11.4334717982
 11
27.3751985362
 21
-26.2272849503
  0
ARC
  5
1B7
100
AcDbEntity
  8
dxf_2mm35
  6
ByLayer
 62
    0
370
   -1
100
AcDbCircle
 10
22.7
 20
-28
 40
5
100
AcDbArc
 50
-159.234560879
 51
20.7654391209
  0
LINE
  5
1B8
100
AcDbEntity
  8
dxf_2mm35
  6
ByLayer
 62
    0
370
   -1
100
AcDbLine
 10
18.0248014638
 20
-29.7727150497
 11
8.51722136601
 21
-4.88352231686
  0
ARC
  5
1B9
100
AcDbEntity
  8
dxf_2mm35
  6
ByLayer
 62
    0
370
   -1
100
AcDbCircle
 10
22.7
 20
0
 40
15
100
AcDbArc
 50
161
 51
-161
  0
LINE
  5
1BA
100
AcDbEntity
  8
dxf_2mm35
  6
ByLayer
 62
    0
370
   -1
100
AcDbLine
 10
8.51722136601
 20
4.88352231686
 11
18.0248014638
 21
29.7727150497
  0
ARC
  5
1BB
100
AcDbEntity
  8
dxf_2mm35
  6
ByLayer
 62
    0
370
   -1
100
AcDbCircle
 10
22.7
 20
28
 40
5
100
AcDbArc
 50
-20.7654391209
 51
159.234560879
  0
LINE
  5
1BC
100
AcDbEntity
  8
dxf_2mm35
  6
ByLayer
 62
    0
370
   -1
100
AcDbLine
 10
21.765678294
 20
11.4334717982
 11
27.3751985362
 21
26.2272849503
  0
ARC
  5
1BD
100
AcDbEntity
  8
dxf_2mm35
  6
ByLayer
 62
    0
370
   -1
100
AcDbCircle
 10
25.5
 20
10
 40
4
100
AcDbArc
 50
159
 51
-90
  0
LINE
  5
1BE
100
AcDbEntity
  8
dxf_2mm35
  6
ByLayer
 62
    0
370
   -1
100
AcDbLine
 10
32
 20
6
 11
25.5
 21
6
  0
ARC
  5
1BF
100
AcDbEntity
  8
dxf_2mm35
  6
ByLayer
 62
    0
370
   -1
100
AcDbCircle
 10
32
 20
0
 40
6
100
AcDbArc
 50
-90
 51
90
  0
LINE
  5
1C0
100
AcDbEntity
  8
dxf_2mm35
  6
ByLayer
 62
    0
370
   -1
100
AcDbLine
 10
32
 20
-6
 11
25.5
 21
-6
  0
ARC
  5
1C1
100
AcDbEntity
  8
dxf_2mm35
  6
ByLayer
 62
    0
370
   -1
100
AcDbCircle
 10
25.5
 20
-10
 40
4
100
AcDbArc
 50
90
 51
-159
  0
CIRCLE
  5
1C2
100
AcDbEntity
  8
dxf_2mm35
  6
ByLayer
 62
    0
370
   -1
100
AcDbCircle
 10
22.7
 20
0
 40
1
  0
CIRCLE
  5
1C3
100
AcDbEntity
  8
dxf_2mm35
  6
ByLayer
 62
    0
370
   -1
100
AcDbCircle
 10
22.7
 20
28
 40
0.25
  0
CIRCLE
  5
1C4
100
AcDbEntity
  8
dxf_2mm35
  6
ByLayer
 62
    0
370
   -1
100
AcDbCircle
 10
22.7
 20
-28
 40
0.25
  0
LINE
  5
1C5
100
AcDbEntity
  8
dxf_2mm35
  6
ByLayer
 62
    0
370
   -1
100
AcDbLine
 10
-29.5
 20
6
 11
-29.5
 21
30
  0
LINE
  5
1C6
100
AcDbEntity
  8
dxf_2mm35
  6
ByLayer
 62
    0
370
   -1
100
AcDbLine
 10
-29.5
 20
30
 11
-26.5
 21
33
  0
LINE
  5
1C7
100
AcDbEntity
  8
dxf_2mm35
  6
ByLayer
 62
    0
370
   -1
100
AcDbLine
 10
-26.5
 20
33
 11
-22.5
 21
33
  0
LINE
  5
1C8
100
AcDbEntity
  8
dxf_2mm35
  6
ByLayer
 62
    0
370
   -1
100
AcDbLine
 10
-22.5
 20
33
 11
-19.5
 21
30
  0
LINE
  5
1C9
100
AcDbEntity
  8
dxf_2mm35
  6
ByLayer
 62
    0
370
   -1
100
AcDbLine
 10
-19.5
 20
30
 11
-19.5
 21
6
  0
ARC
  5
1CA
100
AcDbEntity
  8
dxf_2mm35
  6
ByLayer
 62
    0
370
   -1
100
AcDbCircle
 10
-24.5
 20
6
 40
5
100
AcDbArc
 50
180
 51
-0
  0
CIRCLE
  5
1CB
100
AcDbEntity
  8
dxf_2mm35
  6
ByLayer
 62
    0
370
   -1
100
AcDbCircle
 10
-24.5
 20
6
 40
0.25
  0
CIRCLE
  5
1CC
100
AcDbEntity
  8
dxf_2mm35
  6
ByLayer
 62
    0
370
   -1
100
AcDbCircle
 10
-24.5
 20
28
 40
0.25
  0
LINE
  5
1CD
100
AcDbEntity
  8
dxf_2mm35
  6
ByLayer
 62
    0
370
   -1
100
AcDbLine
 10
-29.5
 20
-6
 11
-29.5
 21
-30
  0
LINE
  5
1CE
100
AcDbEntity
  8
dxf_2mm35
  6
ByLayer
 62
    0
370
   -1
100
AcDbLine
 10
-29.5
 20
-30
 11
-26.5
 21
-33
  0
LINE
  5
1CF
100
AcDbEntity
  8
dxf_2mm35
  6
ByLayer
 62
    0
370
   -1
100
AcDbLine
 10
-26.5
 20
-33
 11
-22.5
 21
-33
  0
LINE
  5
1D0
100
AcDbEntity
  8
dxf_2mm35
  6
ByLayer
 62
    0
370
   -1
100
AcDbLine
 10
-22.5
 20
-33
 11
-19.5
 21
-30
  0
LINE
  5
1D1
100
AcDbEntity
  8
dxf_2mm35
  6
ByLayer
 62
    0
370
   -1
100
AcDbLine
 10
-19.5
 20
-30
 11
-19.5
 21
-6
  0
ARC
  5
1D2
100
AcDbEntity
  8
dxf_2mm35
  6
ByLayer
 62
    0
370
   -1
100
AcDbCircle
 10
-24.5
 20
-6
 40
5
100
AcDbArc
 50
-0
 51
180
  0
CIRCLE
  5
1D3
100
AcDbEntity
  8
dxf_2mm35
  6
ByLayer
 62
    0
370
   -1
100
AcDbCircle
 10
-24.5
 20
-6
 40
0.25
  0
CIRCLE
  5
1D4
100
AcDbEntity
  8
dxf_2mm35
  6
ByLayer
 62
    0
370
   -1
100
AcDbCircle
 10
-24.5
 20
-28
 40
0.25
  0
ENDBLK
  5
7D
330
7B
100
AcDbEntity
  8
0
100
AcDbBlockEnd
  0
BLOCK
  5
7F
330
7E
100
AcDbEntity
  8
0
100
AcDbBlockBegin
  2
p208
 70
    0
 10
0
 20
0
  3
p208
  1

  0
INSERT
  5
1D5
100
AcDbEntity
  8
dxf_2mm35
  6
ByLayer
 62
    0
370
   -1
100
AcDbBlockReference
  2
SHAPE2DVIEW026
 10
0
 20
0
 30
0
 41
1
 42
1
 43
0
 50
0
 70
    1
 71
    1
 44
0
 45
0
  0
ENDBLK
  5
80
330
7E
100
AcDbEntity
  8
0
100
AcDbBlockEnd
  0
BLOCK
  5
82
330
81
100
AcDbEntity
  8
0
100
AcDbBlockBegin
  2
SHAPE2DVIEW027
 70
    0
 10
0
 20
0
  3
SHAPE2DVIEW027
  1

  0
LINE
  5
1D6
100
AcDbEntity
  8
0
  6
ByLayer
 62
    0
370
   -1
100
AcDbLine
 10
-26.5
 20
17
 11
-22.5
 21
17
  0
LINE
  5
1D7
100
AcDbEntity
  8
dxf_2mm35
  6
ByLayer
 62
    0
370
   -1
100
AcDbLine
 10
-22.5
 20
17
 11
-19.5
 21
20
  0
LINE
  5
1D8
100
AcDbEntity
  8
dxf_2mm35
  6
ByLayer
 62
    0
370
   -1
100
AcDbLine
 10
-19.5
 20
20
 11
17.5
 21
20
  0
LINE
  5
1D9
100
AcDbEntity
  8
dxf_2mm35
  6
ByLayer
 62
    0
370
   -1
100
AcDbLine
 10
17.5
 20
20
 11
20.5
 21
17
  0
LINE
  5
1DA
100
AcDbEntity
  8
dxf_2mm35
  6
ByLayer
 62
    0
370
   -1
100
AcDbLine
 10
20.5
 20
17
 11
24.5
 21
17
  0
LINE
  5
1DB
100
AcDbEntity
  8
dxf_2mm35
  6
ByLayer
 62
    0
370
   -1
100
AcDbLine
 10
24.5
 20
17
 11
27.5
 21
17
  0
LINE
  5
1DC
100
AcDbEntity
  8
dxf_2mm35
  6
ByLayer
 62
    0
370
   -1
100
AcDbLine
 10
27.5
 20
17
 11
27.5
 21
20
  0
LINE
  5
1DD
100
AcDbEntity
  8
dxf_2mm35
  6
ByLayer
 62
    0
370
   -1
100
AcDbLine
 10
27.5
 20
20
 11
27.5
 21
30
  0
LINE
  5
1DE
100
AcDbEntity
  8
dxf_2mm35
  6
ByLayer
 62
    0
370
   -1
100
AcDbLine
 10
27.5
 20
30
 11
24.5
 21
33
  0
LINE
  5
1DF
100
AcDbEntity
  8
dxf_2mm35
  6
ByLayer
 62
    0
370
   -1
100
AcDbLine
 10
24.5
 20
33
 11
20.5
 21
33
  0
LINE
  5
1E0
100
AcDbEntity
  8
dxf_2mm35
  6
ByLayer
 62
    0
370
   -1
100
AcDbLine
 10
20.5
 20
33
 11
17.5
 21
33
  0
LINE
  5
1E1
100
AcDbEntity
  8
dxf_2mm35
  6
ByLayer
 62
    0
370
   -1
100
AcDbLine
 10
-19.5
 20
33
 11
17.5
 21
33
  0
LINE
  5
1E2
100
AcDbEntity
  8
dxf_2mm35
  6
ByLayer
 62
    0
370
   -1
100
AcDbLine
 10
-19.5
 20
33
 11
-22.5
 21
33
  0
LINE
  5
1E3
100
AcDbEntity
  8
dxf_2mm35
  6
ByLayer
 62
    0
370
   -1
100
AcDbLine
 10
-22.5
 20
33
 11
-26.5
 21
33
  0
LINE
  5
1E4
100
AcDbEntity
  8
dxf_2mm35
  6
ByLayer
 62
    0
370
   -1
100
AcDbLine
 10
-26.5
 20
33
 11
-29.5
 21
30
  0
LINE
  5
1E5
100
AcDbEntity
  8
dxf_2mm35
  6
ByLayer
 62
    0
370
   -1
100
AcDbLine
 10
-29.5
 20
30
 11
-29.5
 21
20
  0
LINE
  5
1E6
100
AcDbEntity
  8
dxf_2mm35
  6
ByLayer
 62
    0
370
   -1
100
AcDbLine
 10
-29.5
 20
17
 11
-29.5
 21
20
  0
LINE
  5
1E7
100
AcDbEntity
  8
dxf_2mm35
  6
ByLayer
 62
    0
370
   -1
100
AcDbLine
 10
-26.5
 20
17
 11
-29.5
 21
17
  0
LINE
  5
1E8
100
AcDbEntity
  8
dxf_2mm35
  6
ByLayer
 62
    0
370
   -1
100
AcDbLine
 10
-7.5
 20
23.5
 11
7.5
 21
23.5
  0
LINE
  5
1E9
100
AcDbEntity
  8
dxf_2mm35
  6
ByLayer
 62
    0
370
   -1
100
AcDbLine
 10
7.5
 20
23.5
 11
7.5
 21
25.85
  0
LINE
  5
1EA
100
AcDbEntity
  8
dxf_2mm35
  6
ByLayer
 62
    0
370
   -1
100
AcDbLine
 10
7.5
 20
25.85
 11
-7.5
 21
25.85
  0
LINE
  5
1EB
100
AcDbEntity
  8
dxf_2mm35
  6
ByLayer
 62
    0
370
   -1
100
AcDbLine
 10
-7.5
 20
25.85
 11
-7.5
 21
23.5
  0
CIRCLE
  5
1EC
100
AcDbEntity
  8
dxf_2mm35
  6
ByLayer
 62
    0
370
   -1
100
AcDbCircle
 10
22.7
 20
28
 40
0.25
  0
CIRCLE
  5
1ED
100
AcDbEntity
  8
dxf_2mm35
  6
ByLayer
 62
    0
370
   -1
100
AcDbCircle
 10
-24.5
 20
28
 40
0.25
  0
LINE
  5
1EE
100
AcDbEntity
  8
dxf_2mm35
  6
ByLayer
 62
    0
370
   -1
100
AcDbLine
 10
24.5
 20
-17
 11
20.5
 21
-17
  0
LINE
  5
1EF
100
AcDbEntity
  8
dxf_2mm35
  6
ByLayer
 62
    0
370
   -1
100
AcDbLine
 10
20.5
 20
-17
 11
17.5
 21
-20
  0
LINE
  5
1F0
100
AcDbEntity
  8
dxf_2mm35
  6
ByLayer
 62
    0
370
   -1
100
AcDbLine
 10
17.5
 20
-20
 11
-19.5
 21
-20
  0
LINE
  5
1F1
100
AcDbEntity
  8
dxf_2mm35
  6
ByLayer
 62
    0
370
   -1
100
AcDbLine
 10
-19.5
 20
-20
 11
-22.5
 21
-17
  0
LINE
  5
1F2
100
AcDbEntity
  8
dxf_2mm35
  6
ByLayer
 62
    0
370
   -1
100
AcDbLine
 10
-22.5
 20
-17
 11
-26.5
 21
-17
  0
LINE
  5
1F3
100
AcDbEntity
  8
dxf_2mm35
  6
ByLayer
 62
    0
370
   -1
100
AcDbLine
 10
-26.5
 20
-17
 11
-29.5
 21
-17
  0
LINE
  5
1F4
100
AcDbEntity
  8
dxf_2mm35
  6
ByLayer
 62
    0
370
   -1
100
AcDbLine
 10
-29.5
 20
-17
 11
-29.5
 21
-20
  0
LINE
  5
1F5
100
AcDbEntity
  8
dxf_2mm35
  6
ByLayer
 62
    0
370
   -1
100
AcDbLine
 10
-29.5
 20
-20
 11
-29.5
 21
-30
  0
LINE
  5
1F6
100
AcDbEntity
  8
dxf_2mm35
  6
ByLayer
 62
    0
370
   -1
100
AcDbLine
 10
-29.5
 20
-30
 11
-26.5
 21
-33
  0
LINE
  5
1F7
100
AcDbEntity
  8
dxf_2mm35
  6
ByLayer
 62
    0
370
   -1
100
AcDbLine
 10
-26.5
 20
-33
 11
-22.5
 21
-33
  0
LINE
  5
1F8
100
AcDbEntity
  8
dxf_2mm35
  6
ByLayer
 62
    0
370
   -1
100
AcDbLine
 10
-22.5
 20
-33
 11
-19.5
 21
-33
  0
LINE
  5
1F9
100
AcDbEntity
  8
dxf_2mm35
  6
ByLayer
 62
    0
370
   -1
100
AcDbLine
 10
17.5
 20
-33
 11
-19.5
 21
-33
  0
LINE
  5
1FA
100
AcDbEntity
  8
dxf_2mm35
  6
ByLayer
 62
    0
370
   -1
100
AcDbLine
 10
17.5
 20
-33
 11
20.5
 21
-33
  0
LINE
  5
1FB
100
AcDbEntity
  8
dxf_2mm35
  6
ByLayer
 62
    0
370
   -1
100
AcDbLine
 10
20.5
 20
-33
 11
24.5
 21
-33
  0
LINE
  5
1FC
100
AcDbEntity
  8
dxf_2mm35
  6
ByLayer
 62
    0
370
   -1
100
AcDbLine
 10
24.5
 20
-33
 11
27.5
 21
-30
  0
LINE
  5
1FD
100
AcDbEntity
  8
dxf_2mm35
  6
ByLayer
 62
    0
370
   -1
100
AcDbLine
 10
27.5
 20
-30
 11
27.5
 21
-20
  0
LINE
  5
1FE
100
AcDbEntity
  8
dxf_2mm35
  6
ByLayer
 62
    0
370
   -1
100
AcDbLine
 10
27.5
 20
-20
 11
27.5
 21
-17
  0
LINE
  5
1FF
100
AcDbEntity
  8
dxf_2mm35
  6
ByLayer
 62
    0
370
   -1
100
AcDbLine
 10
24.5
 20
-17
 11
27.5
 21
-17
  0
LINE
  5
200
100
AcDbEntity
  8
dxf_2mm35
  6
ByLayer
 62
    0
370
   -1
100
AcDbLine
 10
-7.5
 20
-25.85
 11
7.5
 21
-25.85
  0
LINE
  5
201
100
AcDbEntity
  8
dxf_2mm35
  6
ByLayer
 62
    0
370
   -1
100
AcDbLine
 10
7.5
 20
-25.85
 11
7.5
 21
-23.5
  0
LINE
  5
202
100
AcDbEntity
  8
dxf_2mm35
  6
ByLayer
 62
    0
370
   -1
100
AcDbLine
 10
7.5
 20
-23.5
 11
-7.5
 21
-23.5
  0
LINE
  5
203
100
AcDbEntity
  8
dxf_2mm35
  6
ByLayer
 62
    0
370
   -1
100
AcDbLine
 10
-7.5
 20
-23.5
 11
-7.5
 21
-25.85
  0
CIRCLE
  5
204
100
AcDbEntity
  8
dxf_2mm35
  6
ByLayer
 62
    0
370
   -1
100
AcDbCircle
 10
22.7
 20
-28
 40
0.25
  0
CIRCLE
  5
205
100
AcDbEntity
  8
dxf_2mm35
  6
ByLayer
 62
    0
370
   -1
100
AcDbCircle
 10
-24.5
 20
-28
 40
0.25
  0
ENDBLK
  5
83
330
81
100
AcDbEntity
  8
0
100
AcDbBlockEnd
  0
BLOCK
  5
85
330
84
100
AcDbEntity
  8
0
100
AcDbBlockBegin
  2
p209
 70
    0
 10
0
 20
0
  3
p209
  1

  0
INSERT
  5
206
100
AcDbEntity
  8
dxf_2mm35
  6
ByLayer
 62
    0
370
   -1
100
AcDbBlockReference
  2
SHAPE2DVIEW027
 10
0
 20
0
 30
0
 41
1
 42
1
 43
0
 50
0
 70
    1
 71
    1
 44
0
 45
0
  0
ENDBLK
  5
86
330
84
100
AcDbEntity
  8
0
100
AcDbBlockEnd
  0
BLOCK
  5
88
330
87
100
AcDbEntity
  8
0
100
AcDbBlockBegin
  2
SHAPE2DVIEW028
 70
    0
 10
0
 20
0
  3
SHAPE2DVIEW028
  1

  0
LINE
  5
207
100
AcDbEntity
  8
0
  6
ByLayer
 62
    0
370
   -1
100
AcDbLine
 10
61.7000015408
 20
-29.5
 11
61.7000015408
 21
-7.5
  0
LINE
  5
208
100
AcDbEntity
  8
dxf_2mm35
  6
ByLayer
 62
    0
370
   -1
100
AcDbLine
 10
61.7000015408
 20
-7.5
 11
59.3500015408
 21
-7.5
  0
LINE
  5
209
100
AcDbEntity
  8
dxf_2mm35
  6
ByLayer
 62
    0
370
   -1
100
AcDbLine
 10
59.3500015408
 20
-7.5
 11
59.3500015408
 21
7.5
  0
LINE
  5
20A
100
AcDbEntity
  8
dxf_2mm35
  6
ByLayer
 62
    0
370
   -1
100
AcDbLine
 10
59.3500015408
 20
7.5
 11
61.7000015408
 21
7.5
  0
LINE
  5
20B
100
AcDbEntity
  8
dxf_2mm35
  6
ByLayer
 62
    0
370
   -1
100
AcDbLine
 10
61.7000015408
 20
7.5
 11
61.7000015408
 21
27.5
  0
LINE
  5
20C
100
AcDbEntity
  8
dxf_2mm35
  6
ByLayer
 62
    0
370
   -1
100
AcDbLine
 10
61.7000015408
 20
27.5
 11
66.7000015408
 21
27.5
  0
LINE
  5
20D
100
AcDbEntity
  8
dxf_2mm35
  6
ByLayer
 62
    0
370
   -1
100
AcDbLine
 10
66.7000015408
 20
27.5
 11
66.7000015408
 21
25.15
  0
LINE
  5
20E
100
AcDbEntity
  8
dxf_2mm35
  6
ByLayer
 62
    0
370
   -1
100
AcDbLine
 10
66.7000015408
 20
25.15
 11
71.7000015408
 21
25.15
  0
LINE
  5
20F
100
AcDbEntity
  8
dxf_2mm35
  6
ByLayer
 62
    0
370
   -1
100
AcDbLine
 10
71.7000015408
 20
25.15
 11
71.7000015408
 21
27.5
  0
LINE
  5
210
100
AcDbEntity
  8
dxf_2mm35
  6
ByLayer
 62
    0
370
   -1
100
AcDbLine
 10
71.7000015408
 20
27.5
 11
76.7000015408
 21
27.5
  0
LINE
  5
211
100
AcDbEntity
  8
dxf_2mm35
  6
ByLayer
 62
    0
370
   -1
100
AcDbLine
 10
76.7000015408
 20
27.5
 11
76.7000015408
 21
25.15
  0
LINE
  5
212
100
AcDbEntity
  8
dxf_2mm35
  6
ByLayer
 62
    0
370
   -1
100
AcDbLine
 10
76.7000015408
 20
25.15
 11
81.7000015408
 21
25.15
  0
LINE
  5
213
100
AcDbEntity
  8
dxf_2mm35
  6
ByLayer
 62
    0
370
   -1
100
AcDbLine
 10
81.7000015408
 20
25.15
 11
81.7000015408
 21
-27.15
  0
LINE
  5
214
100
AcDbEntity
  8
dxf_2mm35
  6
ByLayer
 62
    0
370
   -1
100
AcDbLine
 10
81.7000015408
 20
-27.15
 11
76.7000015408
 21
-27.15
  0
LINE
  5
215
100
AcDbEntity
  8
dxf_2mm35
  6
ByLayer
 62
    0
370
   -1
100
AcDbLine
 10
76.7000015408
 20
-27.15
 11
76.7000015408
 21
-29.5
  0
LINE
  5
216
100
AcDbEntity
  8
dxf_2mm35
  6
ByLayer
 62
    0
370
   -1
100
AcDbLine
 10
76.7000015408
 20
-29.5
 11
71.7000015408
 21
-29.5
  0
LINE
  5
217
100
AcDbEntity
  8
dxf_2mm35
  6
ByLayer
 62
    0
370
   -1
100
AcDbLine
 10
71.7000015408
 20
-29.5
 11
71.7000015408
 21
-27.15
  0
LINE
  5
218
100
AcDbEntity
  8
dxf_2mm35
  6
ByLayer
 62
    0
370
   -1
100
AcDbLine
 10
71.7000015408
 20
-27.15
 11
66.7000015408
 21
-27.15
  0
LINE
  5
219
100
AcDbEntity
  8
dxf_2mm35
  6
ByLayer
 62
    0
370
   -1
100
AcDbLine
 10
66.7000015408
 20
-27.15
 11
66.7000015408
 21
-29.5
  0
LINE
  5
21A
100
AcDbEntity
  8
dxf_2mm35
  6
ByLayer
 62
    0
370
   -1
100
AcDbLine
 10
66.7000015408
 20
-29.5
 11
61.7000015408
 21
-29.5
  0
LWPOLYLINE
  5
21B
100
AcDbEntity
  8
dxf_2mm35
  6
ByLayer
 62
    0
370
   -1
100
AcDbPolyline
 90
    8
 70
    0
 43
0
 10
71.7000015408
 20
15
 10
67.7908441284
 20
13.1174490093
 10
66.82536197989999
 20
8.88739533022
 10
69.5305828452
 20
5.49515566049
 10
73.8694202364
 20
5.49515566049
 10
76.5746411017
 20
8.88739533022
 10
75.60915895310001
 20
13.1174490093
 10
71.7000015408
 20
15
  0
LWPOLYLINE
  5
21C
100
AcDbEntity
  8
dxf_2mm35
  6
ByLayer
 62
    0
370
   -1
100
AcDbPolyline
 90
    8
 70
    0
 43
0
 10
71.7000015408
 20
-5
 10
67.7908441284
 20
-6.88255099071
 10
66.82536197989999
 20
-11.1126046698
 10
69.5305828452
 20
-14.5048443395
 10
73.8694202364
 20
-14.5048443395
 10
76.5746411017
 20
-11.1126046698
 10
75.60915895310001
 20
-6.88255099071
 10
71.7000015408
 20
-5
  0
ENDBLK
  5
89
330
87
100
AcDbEntity
  8
0
100
AcDbBlockEnd
  0
BLOCK
  5
8B
330
8A
100
AcDbEntity
  8
0
100
AcDbBlockBegin
  2
p210
 70
    0
 10
0
 20
0
  3
p210
  1

  0
INSERT
  5
21D
100
AcDbEntity
  8
dxf_2mm35
  6
ByLayer
 62
    0
370
   -1
100
AcDbBlockReference
  2
SHAPE2DVIEW028
 10
0
 20
0
 30
0
 41
1
 42
1
 43
0
 50
0
 70
    1
 71
    1
 44
0
 45
0
  0
ENDBLK
  5
8C
330
8A
100
AcDbEntity
  8
0
100
AcDbBlockEnd
  0
BLOCK
  5
8E
330
8D
100
AcDbEntity
  8
0
100
AcDbBlockBegin
  2
SHAPE2DVIEW029
 70
    0
 10
0
 20
0
  3
SHAPE2DVIEW029
  1

  0
LINE
  5
21E
100
AcDbEntity
  8
0
  6
ByLayer
 62
    0
370
   -1
100
AcDbLine
 10
-61.7000015408
 20
-29.5
 11
-61.7000015408
 21
-7.5
  0
LINE
  5
21F
100
AcDbEntity
  8
dxf_2mm35
  6
ByLayer
 62
    0
370
   -1
100
AcDbLine
 10
-61.7000015408
 20
-7.5
 11
-59.3500015408
 21
-7.5
  0
LINE
  5
220
100
AcDbEntity
  8
dxf_2mm35
  6
ByLayer
 62
    0
370
   -1
100
AcDbLine
 10
-59.3500015408
 20
-7.5
 11
-59.3500015408
 21
7.5
  0
LINE
  5
221
100
AcDbEntity
  8
dxf_2mm35
  6
ByLayer
 62
    0
370
   -1
100
AcDbLine
 10
-59.3500015408
 20
7.5
 11
-61.7000015408
 21
7.5
  0
LINE
  5
222
100
AcDbEntity
  8
dxf_2mm35
  6
ByLayer
 62
    0
370
   -1
100
AcDbLine
 10
-61.7000015408
 20
7.5
 11
-61.7000015408
 21
27.5
  0
LINE
  5
223
100
AcDbEntity
  8
dxf_2mm35
  6
ByLayer
 62
    0
370
   -1
100
AcDbLine
 10
-61.7000015408
 20
27.5
 11
-66.7000015408
 21
27.5
  0
LINE
  5
224
100
AcDbEntity
  8
dxf_2mm35
  6
ByLayer
 62
    0
370
   -1
100
AcDbLine
 10
-66.7000015408
 20
27.5
 11
-66.7000015408
 21
25.15
  0
LINE
  5
225
100
AcDbEntity
  8
dxf_2mm35
  6
ByLayer
 62
    0
370
   -1
100
AcDbLine
 10
-66.7000015408
 20
25.15
 11
-71.7000015408
 21
25.15
  0
LINE
  5
226
100
AcDbEntity
  8
dxf_2mm35
  6
ByLayer
 62
    0
370
   -1
100
AcDbLine
 10
-71.7000015408
 20
25.15
 11
-71.7000015408
 21
27.5
  0
LINE
  5
227
100
AcDbEntity
  8
dxf_2mm35
  6
ByLayer
 62
    0
370
   -1
100
AcDbLine
 10
-71.7000015408
 20
27.5
 11
-76.7000015408
 21
27.5
  0
LINE
  5
228
100
AcDbEntity
  8
dxf_2mm35
  6
ByLayer
 62
    0
370
   -1
100
AcDbLine
 10
-76.7000015408
 20
27.5
 11
-76.7000015408
 21
25.15
  0
LINE
  5
229
100
AcDbEntity
  8
dxf_2mm35
  6
ByLayer
 62
    0
370
   -1
100
AcDbLine
 10
-76.7000015408
 20
25.15
 11
-81.7000015408
 21
25.15
  0
LINE
  5
22A
100
AcDbEntity
  8
dxf_2mm35
  6
ByLayer
 62
    0
370
   -1
100
AcDbLine
 10
-81.7000015408
 20
25.15
 11
-81.7000015408
 21
-27.15
  0
LINE
  5
22B
100
AcDbEntity
  8
dxf_2mm35
  6
ByLayer
 62
    0
370
   -1
100
AcDbLine
 10
-81.7000015408
 20
-27.15
 11
-76.7000015408
 21
-27.15
  0
LINE
  5
22C
100
AcDbEntity
  8
dxf_2mm35
  6
ByLayer
 62
    0
370
   -1
100
AcDbLine
 10
-76.7000015408
 20
-27.15
 11
-76.7000015408
 21
-29.5
  0
LINE
  5
22D
100
AcDbEntity
  8
dxf_2mm35
  6
ByLayer
 62
    0
370
   -1
100
AcDbLine
 10
-76.7000015408
 20
-29.5
 11
-71.7000015408
 21
-29.5
  0
LINE
  5
22E
100
AcDbEntity
  8
dxf_2mm35
  6
ByLayer
 62
    0
370
   -1
100
AcDbLine
 10
-71.7000015408
 20
-29.5
 11
-71.7000015408
 21
-27.15
  0
LINE
  5
22F
100
AcDbEntity
  8
dxf_2mm35
  6
ByLayer
 62
    0
370
   -1
100
AcDbLine
 10
-71.7000015408
 20
-27.15
 11
-66.7000015408
 21
-27.15
  0
LINE
  5
230
100
AcDbEntity
  8
dxf_2mm35
  6
ByLayer
 62
    0
370
   -1
100
AcDbLine
 10
-66.7000015408
 20
-27.15
 11
-66.7000015408
 21
-29.5
  0
LINE
  5
231
100
AcDbEntity
  8
dxf_2mm35
  6
ByLayer
 62
    0
370
   -1
100
AcDbLine
 10
-66.7000015408
 20
-29.5
 11
-61.7000015408
 21
-29.5
  0
LWPOLYLINE
  5
232
100
AcDbEntity
  8
dxf_2mm35
  6
ByLayer
 62
    0
370
   -1
100
AcDbPolyline
 90
    8
 70
    0
 43
0
 10
-71.7000015408
 20
15
 10
-67.7908441284
 20
13.1174490093
 10
-66.82536197989999
 20
8.88739533022
 10
-69.5305828452
 20
5.49515566049
 10
-73.8694202364
 20
5.49515566049
 10
-76.5746411017
 20
8.88739533022
 10
-75.60915895310001
 20
13.1174490093
 10
-71.7000015408
 20
15
  0
LWPOLYLINE
  5
233
100
AcDbEntity
  8
dxf_2mm35
  6
ByLayer
 62
    0
370
   -1
100
AcDbPolyline
 90
    8
 70
    0
 43
0
 10
-71.7000015408
 20
-5
 10
-67.7908441284
 20
-6.88255099071
 10
-66.82536197989999
 20
-11.1126046698
 10
-69.5305828452
 20
-14.5048443395
 10
-73.8694202364
 20
-14.5048443395
 10
-76.5746411017
 20
-11.1126046698
 10
-75.60915895310001
 20
-6.88255099071
 10
-71.7000015408
 20
-5
  0
ENDBLK
  5
8F
330
8D
100
AcDbEntity
  8
0
100
AcDbBlockEnd
  0
BLOCK
  5
91
330
90
100
AcDbEntity
  8
0
100
AcDbBlockBegin
  2
p211
 70
    0
 10
0
 20
0
  3
p211
  1

  0
INSERT
  5
234
100
AcDbEntity
  8
dxf_2mm35
  6
ByLayer
 62
    0
370
   -1
100
AcDbBlockReference
  2
SHAPE2DVIEW029
 10
0
 20
0
 30
0
 41
1
 42
1
 43
0
 50
0
 70
    1
 71
    1
 44
0
 45
0
  0
ENDBLK
  5
92
330
90
100
AcDbEntity
  8
0
100
AcDbBlockEnd
  0
BLOCK
  5
94
330
93
100
AcDbEntity
  8
0
100
AcDbBlockBegin
  2
SHAPE2DVIEW030
 70
    0
 10
0
 20
0
  3
SHAPE2DVIEW030
  1

  0
LINE
  5
235
100
AcDbEntity
  8
0
  6
ByLayer
 62
    0
370
   -1
100
AcDbLine
 10
-81.7
 20
-17
 11
-81.7
 21
-25.85
  0
LINE
  5
236
100
AcDbEntity
  8
dxf_2mm35
  6
ByLayer
 62
    0
370
   -1
100
AcDbLine
 10
-81.7
 20
-25.85
 11
-76.7
 21
-25.85
  0
LINE
  5
237
100
AcDbEntity
  8
dxf_2mm35
  6
ByLayer
 62
    0
370
   -1
100
AcDbLine
 10
-76.7
 20
-25.85
 11
-76.7
 21
-23.5
  0
LINE
  5
238
100
AcDbEntity
  8
dxf_2mm35
  6
ByLayer
 62
    0
370
   -1
100
AcDbLine
 10
-76.7
 20
-23.5
 11
-71.7
 21
-23.5
  0
LINE
  5
239
100
AcDbEntity
  8
dxf_2mm35
  6
ByLayer
 62
    0
370
   -1
100
AcDbLine
 10
-71.7
 20
-23.5
 11
-71.7
 21
-25.85
  0
LINE
  5
23A
100
AcDbEntity
  8
dxf_2mm35
  6
ByLayer
 62
    0
370
   -1
100
AcDbLine
 10
-71.7
 20
-25.85
 11
-66.7
 21
-25.85
  0
LINE
  5
23B
100
AcDbEntity
  8
dxf_2mm35
  6
ByLayer
 62
    0
370
   -1
100
AcDbLine
 10
-66.7
 20
-25.85
 11
-66.7
 21
-23.5
  0
LINE
  5
23C
100
AcDbEntity
  8
dxf_2mm35
  6
ByLayer
 62
    0
370
   -1
100
AcDbLine
 10
-66.7
 20
-23.5
 11
-61.7
 21
-23.5
  0
LINE
  5
23D
100
AcDbEntity
  8
dxf_2mm35
  6
ByLayer
 62
    0
370
   -1
100
AcDbLine
 10
-61.7
 20
-23.5
 11
-61.7
 21
-17
  0
LINE
  5
23E
100
AcDbEntity
  8
dxf_2mm35
  6
ByLayer
 62
    0
370
   -1
100
AcDbLine
 10
-61.7
 20
-17
 11
-81.7
 21
-17
  0
CIRCLE
  5
23F
100
AcDbEntity
  8
dxf_2mm35
  6
ByLayer
 62
    0
370
   -1
100
AcDbCircle
 10
-78.7
 20
-20
 40
0.25
  0
LINE
  5
240
100
AcDbEntity
  8
dxf_2mm35
  6
ByLayer
 62
    0
370
   -1
100
AcDbLine
 10
-61.7
 20
23.5
 11
-66.7
 21
23.5
  0
LINE
  5
241
100
AcDbEntity
  8
dxf_2mm35
  6
ByLayer
 62
    0
370
   -1
100
AcDbLine
 10
-66.7
 20
23.5
 11
-66.7
 21
25.85
  0
LINE
  5
242
100
AcDbEntity
  8
dxf_2mm35
  6
ByLayer
 62
    0
370
   -1
100
AcDbLine
 10
-66.7
 20
25.85
 11
-71.7
 21
25.85
  0
LINE
  5
243
100
AcDbEntity
  8
dxf_2mm35
  6
ByLayer
 62
    0
370
   -1
100
AcDbLine
 10
-71.7
 20
25.85
 11
-71.7
 21
23.5
  0
LINE
  5
244
100
AcDbEntity
  8
dxf_2mm35
  6
ByLayer
 62
    0
370
   -1
100
AcDbLine
 10
-71.7
 20
23.5
 11
-76.7
 21
23.5
  0
LINE
  5
245
100
AcDbEntity
  8
dxf_2mm35
  6
ByLayer
 62
    0
370
   -1
100
AcDbLine
 10
-76.7
 20
23.5
 11
-76.7
 21
25.85
  0
LINE
  5
246
100
AcDbEntity
  8
dxf_2mm35
  6
ByLayer
 62
    0
370
   -1
100
AcDbLine
 10
-76.7
 20
25.85
 11
-81.7
 21
25.85
  0
LINE
  5
247
100
AcDbEntity
  8
dxf_2mm35
  6
ByLayer
 62
    0
370
   -1
100
AcDbLine
 10
-81.7
 20
25.85
 11
-81.7
 21
17
  0
LINE
  5
248
100
AcDbEntity
  8
dxf_2mm35
  6
ByLayer
 62
    0
370
   -1
100
AcDbLine
 10
-61.7
 20
17
 11
-81.7
 21
17
  0
LINE
  5
249
100
AcDbEntity
  8
dxf_2mm35
  6
ByLayer
 62
    0
370
   -1
100
AcDbLine
 10
-61.7
 20
17
 11
-61.7
 21
23.5
  0
CIRCLE
  5
24A
100
AcDbEntity
  8
dxf_2mm35
  6
ByLayer
 62
    0
370
   -1
100
AcDbCircle
 10
-78.7
 20
20
 40
0.25
  0
ENDBLK
  5
95
330
93
100
AcDbEntity
  8
0
100
AcDbBlockEnd
  0
BLOCK
  5
97
330
96
100
AcDbEntity
  8
0
100
AcDbBlockBegin
  2
p212
 70
    0
 10
0
 20
0
  3
p212
  1

  0
INSERT
  5
24B
100
AcDbEntity
  8
dxf_2mm35
  6
ByLayer
 62
    0
370
   -1
100
AcDbBlockReference
  2
SHAPE2DVIEW030
 10
0
 20
0
 30
0
 41
1
 42
1
 43
0
 50
0
 70
    1
 71
    1
 44
0
 45
0
  0
ENDBLK
  5
98
330
96
100
AcDbEntity
  8
0
100
AcDbBlockEnd
  0
BLOCK
  5
9A
330
99
100
AcDbEntity
  8
0
100
AcDbBlockBegin
  2
SHAPE2DVIEW031
 70
    0
 10
0
 20
0
  3
SHAPE2DVIEW031
  1

  0
LINE
  5
24C
100
AcDbEntity
  8
0
  6
ByLayer
 62
    0
370
   -1
100
AcDbLine
 10
61.7
 20
-17
 11
81.7
 21
-17
  0
LINE
  5
24D
100
AcDbEntity
  8
dxf_2mm35
  6
ByLayer
 62
    0
370
   -1
100
AcDbLine
 10
81.7
 20
-17
 11
81.7
 21
-25.85
  0
LINE
  5
24E
100
AcDbEntity
  8
dxf_2mm35
  6
ByLayer
 62
    0
370
   -1
100
AcDbLine
 10
81.7
 20
-25.85
 11
76.7
 21
-25.85
  0
LINE
  5
24F
100
AcDbEntity
  8
dxf_2mm35
  6
ByLayer
 62
    0
370
   -1
100
AcDbLine
 10
76.7
 20
-25.85
 11
76.7
 21
-23.5
  0
LINE
  5
250
100
AcDbEntity
  8
dxf_2mm35
  6
ByLayer
 62
    0
370
   -1
100
AcDbLine
 10
76.7
 20
-23.5
 11
71.7
 21
-23.5
  0
LINE
  5
251
100
AcDbEntity
  8
dxf_2mm35
  6
ByLayer
 62
    0
370
   -1
100
AcDbLine
 10
71.7
 20
-23.5
 11
71.7
 21
-25.85
  0
LINE
  5
252
100
AcDbEntity
  8
dxf_2mm35
  6
ByLayer
 62
    0
370
   -1
100
AcDbLine
 10
71.7
 20
-25.85
 11
66.7
 21
-25.85
  0
LINE
  5
253
100
AcDbEntity
  8
dxf_2mm35
  6
ByLayer
 62
    0
370
   -1
100
AcDbLine
 10
66.7
 20
-25.85
 11
66.7
 21
-23.5
  0
LINE
  5
254
100
AcDbEntity
  8
dxf_2mm35
  6
ByLayer
 62
    0
370
   -1
100
AcDbLine
 10
66.7
 20
-23.5
 11
61.7
 21
-23.5
  0
LINE
  5
255
100
AcDbEntity
  8
dxf_2mm35
  6
ByLayer
 62
    0
370
   -1
100
AcDbLine
 10
61.7
 20
-23.5
 11
61.7
 21
-17
  0
CIRCLE
  5
256
100
AcDbEntity
  8
dxf_2mm35
  6
ByLayer
 62
    0
370
   -1
100
AcDbCircle
 10
78.7
 20
-20
 40
0.25
  0
LINE
  5
257
100
AcDbEntity
  8
dxf_2mm35
  6
ByLayer
 62
    0
370
   -1
100
AcDbLine
 10
61.7
 20
23.5
 11
66.7
 21
23.5
  0
LINE
  5
258
100
AcDbEntity
  8
dxf_2mm35
  6
ByLayer
 62
    0
370
   -1
100
AcDbLine
 10
66.7
 20
23.5
 11
66.7
 21
25.85
  0
LINE
  5
259
100
AcDbEntity
  8
dxf_2mm35
  6
ByLayer
 62
    0
370
   -1
100
AcDbLine
 10
66.7
 20
25.85
 11
71.7
 21
25.85
  0
LINE
  5
25A
100
AcDbEntity
  8
dxf_2mm35
  6
ByLayer
 62
    0
370
   -1
100
AcDbLine
 10
71.7
 20
25.85
 11
71.7
 21
23.5
  0
LINE
  5
25B
100
AcDbEntity
  8
dxf_2mm35
  6
ByLayer
 62
    0
370
   -1
100
AcDbLine
 10
71.7
 20
23.5
 11
76.7
 21
23.5
  0
LINE
  5
25C
100
AcDbEntity
  8
dxf_2mm35
  6
ByLayer
 62
    0
370
   -1
100
AcDbLine
 10
76.7
 20
23.5
 11
76.7
 21
25.85
  0
LINE
  5
25D
100
AcDbEntity
  8
dxf_2mm35
  6
ByLayer
 62
    0
370
   -1
100
AcDbLine
 10
76.7
 20
25.85
 11
81.7
 21
25.85
  0
LINE
  5
25E
100
AcDbEntity
  8
dxf_2mm35
  6
ByLayer
 62
    0
370
   -1
100
AcDbLine
 10
81.7
 20
25.85
 11
81.7
 21
17
  0
LINE
  5
25F
100
AcDbEntity
  8
dxf_2mm35
  6
ByLayer
 62
    0
370
   -1
100
AcDbLine
 10
81.7
 20
17
 11
61.7
 21
17
  0
LINE
  5
260
100
AcDbEntity
  8
dxf_2mm35
  6
ByLayer
 62
    0
370
   -1
100
AcDbLine
 10
61.7
 20
17
 11
61.7
 21
23.5
  0
CIRCLE
  5
261
100
AcDbEntity
  8
dxf_2mm35
  6
ByLayer
 62
    0
370
   -1
100
AcDbCircle
 10
78.7
 20
20
 40
0.25
  0
ENDBLK
  5
9B
330
99
100
AcDbEntity
  8
0
100
AcDbBlockEnd
  0
BLOCK
  5
9D
330
9C
100
AcDbEntity
  8
0
100
AcDbBlockBegin
  2
p213
 70
    0
 10
0
 20
0
  3
p213
  1

  0
INSERT
  5
262
100
AcDbEntity
  8
dxf_2mm35
  6
ByLayer
 62
    0
370
   -1
100
AcDbBlockReference
  2
SHAPE2DVIEW031
 10
0
 20
0
 30
0
 41
1
 42
1
 43
0
 50
0
 70
    1
 71
    1
 44
0
 45
0
  0
ENDBLK
  5
9E
330
9C
100
AcDbEntity
  8
0
100
AcDbBlockEnd
  0
BLOCK
  5
A0
330
9F
100
AcDbEntity
  8
0
100
AcDbBlockBegin
  2
SHAPE2DVIEW032
 70
    0
 10
0
 20
0
  3
SHAPE2DVIEW032
  1

  0
LINE
  5
263
100
AcDbEntity
  8
0
  6
ByLayer
 62
    0
370
   -1
100
AcDbLine
 10
-77.69999999949999
 20
-17
 11
-82.69999999949999
 21
-12
  0
LINE
  5
264
100
AcDbEntity
  8
dxf_2mm35
  6
ByLayer
 62
    0
370
   -1
100
AcDbLine
 10
-82.69999999949999
 20
-12
 11
-90.69999999949999
 21
-12
  0
LINE
  5
265
100
AcDbEntity
  8
dxf_2mm35
  6
ByLayer
 62
    0
370
   -1
100
AcDbLine
 10
-90.69999999949999
 20
-12
 11
-90.69999999949999
 21
-20
  0
LINE
  5
266
100
AcDbEntity
  8
dxf_2mm35
  6
ByLayer
 62
    0
370
   -1
100
AcDbLine
 10
-90.69999999949999
 20
-20
 11
-93.0499999995
 21
-20
  0
LINE
  5
267
100
AcDbEntity
  8
dxf_2mm35
  6
ByLayer
 62
    0
370
   -1
100
AcDbLine
 10
-93.0499999995
 20
-20
 11
-93.0499999995
 21
-28
  0
LINE
  5
268
100
AcDbEntity
  8
dxf_2mm35
  6
ByLayer
 62
    0
370
   -1
100
AcDbLine
 10
-93.0499999995
 20
-28
 11
-90.69999999949999
 21
-28
  0
LINE
  5
269
100
AcDbEntity
  8
dxf_2mm35
  6
ByLayer
 62
    0
370
   -1
100
AcDbLine
 10
-90.69999999949999
 20
-28
 11
-90.69999999949999
 21
-36
  0
LINE
  5
26A
100
AcDbEntity
  8
dxf_2mm35
  6
ByLayer
 62
    0
370
   -1
100
AcDbLine
 10
-90.69999999949999
 20
-36
 11
-93.0499999995
 21
-36
  0
LINE
  5
26B
100
AcDbEntity
  8
dxf_2mm35
  6
ByLayer
 62
    0
370
   -1
100
AcDbLine
 10
-93.0499999995
 20
-36
 11
-93.0499999995
 21
-44
  0
LINE
  5
26C
100
AcDbEntity
  8
dxf_2mm35
  6
ByLayer
 62
    0
370
   -1
100
AcDbLine
 10
-93.0499999995
 20
-44
 11
-90.69999999949999
 21
-44
  0
LINE
  5
26D
100
AcDbEntity
  8
dxf_2mm35
  6
ByLayer
 62
    0
370
   -1
100
AcDbLine
 10
-90.69999999949999
 20
-44
 11
-90.69999999949999
 21
-52
  0
LINE
  5
26E
100
AcDbEntity
  8
dxf_2mm35
  6
ByLayer
 62
    0
370
   -1
100
AcDbLine
 10
-90.69999999949999
 20
-52
 11
-82.69999999949999
 21
-52
  0
LINE
  5
26F
100
AcDbEntity
  8
dxf_2mm35
  6
ByLayer
 62
    0
370
   -1
100
AcDbLine
 10
-82.69999999949999
 20
-52
 11
-77.69999999949999
 21
-47
  0
LINE
  5
270
100
AcDbEntity
  8
dxf_2mm35
  6
ByLayer
 62
    0
370
   -1
100
AcDbLine
 10
-77.69999999949999
 20
-47
 11
-77.69999999949999
 21
-17
  0
CIRCLE
  5
271
100
AcDbEntity
  8
dxf_2mm35
  6
ByLayer
 62
    0
370
   -1
100
AcDbCircle
 10
-79.7
 20
-44
 40
0.25
  0
CIRCLE
  5
272
100
AcDbEntity
  8
dxf_2mm35
  6
ByLayer
 62
    0
370
   -1
100
AcDbCircle
 10
-79.7
 20
-20
 40
0.25
  0
LINE
  5
273
100
AcDbEntity
  8
dxf_2mm35
  6
ByLayer
 62
    0
370
   -1
100
AcDbLine
 10
-77.7
 20
17
 11
-82.69999999949999
 21
12
  0
LINE
  5
274
100
AcDbEntity
  8
dxf_2mm35
  6
ByLayer
 62
    0
370
   -1
100
AcDbLine
 10
-82.69999999949999
 20
12
 11
-90.69999999949999
 21
12
  0
LINE
  5
275
100
AcDbEntity
  8
dxf_2mm35
  6
ByLayer
 62
    0
370
   -1
100
AcDbLine
 10
-90.69999999949999
 20
12
 11
-90.69999999949999
 21
20
  0
LINE
  5
276
100
AcDbEntity
  8
dxf_2mm35
  6
ByLayer
 62
    0
370
   -1
100
AcDbLine
 10
-90.69999999949999
 20
20
 11
-93.0499999995
 21
20
  0
LINE
  5
277
100
AcDbEntity
  8
dxf_2mm35
  6
ByLayer
 62
    0
370
   -1
100
AcDbLine
 10
-93.0499999995
 20
20
 11
-93.0499999995
 21
28
  0
LINE
  5
278
100
AcDbEntity
  8
dxf_2mm35
  6
ByLayer
 62
    0
370
   -1
100
AcDbLine
 10
-93.0499999995
 20
28
 11
-90.69999999949999
 21
28
  0
LINE
  5
279
100
AcDbEntity
  8
dxf_2mm35
  6
ByLayer
 62
    0
370
   -1
100
AcDbLine
 10
-90.69999999949999
 20
28
 11
-90.69999999949999
 21
36
  0
LINE
  5
27A
100
AcDbEntity
  8
dxf_2mm35
  6
ByLayer
 62
    0
370
   -1
100
AcDbLine
 10
-90.69999999949999
 20
36
 11
-93.0499999995
 21
36
  0
LINE
  5
27B
100
AcDbEntity
  8
dxf_2mm35
  6
ByLayer
 62
    0
370
   -1
100
AcDbLine
 10
-93.0499999995
 20
36
 11
-93.0499999995
 21
44
  0
LINE
  5
27C
100
AcDbEntity
  8
dxf_2mm35
  6
ByLayer
 62
    0
370
   -1
100
AcDbLine
 10
-93.0499999995
 20
44
 11
-90.69999999949999
 21
44
  0
LINE
  5
27D
100
AcDbEntity
  8
dxf_2mm35
  6
ByLayer
 62
    0
370
   -1
100
AcDbLine
 10
-90.69999999949999
 20
44
 11
-90.69999999949999
 21
52
  0
LINE
  5
27E
100
AcDbEntity
  8
dxf_2mm35
  6
ByLayer
 62
    0
370
   -1
100
AcDbLine
 10
-90.69999999949999
 20
52
 11
-82.69999999949999
 21
52
  0
LINE
  5
27F
100
AcDbEntity
  8
dxf_2mm35
  6
ByLayer
 62
    0
370
   -1
100
AcDbLine
 10
-82.69999999949999
 20
52
 11
-77.7
 21
47
  0
LINE
  5
280
100
AcDbEntity
  8
dxf_2mm35
  6
ByLayer
 62
    0
370
   -1
100
AcDbLine
 10
-77.7
 20
47
 11
-77.7
 21
17
  0
CIRCLE
  5
281
100
AcDbEntity
  8
dxf_2mm35
  6
ByLayer
 62
    0
370
   -1
100
AcDbCircle
 10
-79.7
 20
44
 40
0.25
  0
CIRCLE
  5
282
100
AcDbEntity
  8
dxf_2mm35
  6
ByLayer
 62
    0
370
   -1
100
AcDbCircle
 10
-79.7
 20
20
 40
0.25
  0
ENDBLK
  5
A1
330
9F
100
AcDbEntity
  8
0
100
AcDbBlockEnd
  0
BLOCK
  5
A3
330
A2
100
AcDbEntity
  8
0
100
AcDbBlockBegin
  2
p214
 70
    0
 10
0
 20
0
  3
p214
  1

  0
INSERT
  5
283
100
AcDbEntity
  8
dxf_2mm35
  6
ByLayer
 62
    0
370
   -1
100
AcDbBlockReference
  2
SHAPE2DVIEW032
 10
0
 20
0
 30
0
 41
1
 42
1
 43
0
 50
0
 70
    1
 71
    1
 44
0
 45
0
  0
ENDBLK
  5
A4
330
A2
100
AcDbEntity
  8
0
100
AcDbBlockEnd
  0
BLOCK
  5
A6
330
A5
100
AcDbEntity
  8
0
100
AcDbBlockBegin
  2
SHAPE2DVIEW033
 70
    0
 10
0
 20
0
  3
SHAPE2DVIEW033
  1

  0
LINE
  5
284
100
AcDbEntity
  8
0
  6
ByLayer
 62
    0
370
   -1
100
AcDbLine
 10
77.69999999949999
 20
-17
 11
82.69999999949999
 21
-12
  0
LINE
  5
285
100
AcDbEntity
  8
dxf_2mm35
  6
ByLayer
 62
    0
370
   -1
100
AcDbLine
 10
82.69999999949999
 20
-12
 11
90.69999999949999
 21
-12
  0
LINE
  5
286
100
AcDbEntity
  8
dxf_2mm35
  6
ByLayer
 62
    0
370
   -1
100
AcDbLine
 10
90.69999999949999
 20
-12
 11
90.69999999949999
 21
-20
  0
LINE
  5
287
100
AcDbEntity
  8
dxf_2mm35
  6
ByLayer
 62
    0
370
   -1
100
AcDbLine
 10
90.69999999949999
 20
-20
 11
93.0499999995
 21
-20
  0
LINE
  5
288
100
AcDbEntity
  8
dxf_2mm35
  6
ByLayer
 62
    0
370
   -1
100
AcDbLine
 10
93.0499999995
 20
-20
 11
93.0499999995
 21
-28
  0
LINE
  5
289
100
AcDbEntity
  8
dxf_2mm35
  6
ByLayer
 62
    0
370
   -1
100
AcDbLine
 10
93.0499999995
 20
-28
 11
90.69999999949999
 21
-28
  0
LINE
  5
28A
100
AcDbEntity
  8
dxf_2mm35
  6
ByLayer
 62
    0
370
   -1
100
AcDbLine
 10
90.69999999949999
 20
-28
 11
90.69999999949999
 21
-36
  0
LINE
  5
28B
100
AcDbEntity
  8
dxf_2mm35
  6
ByLayer
 62
    0
370
   -1
100
AcDbLine
 10
90.69999999949999
 20
-36
 11
93.0499999995
 21
-36
  0
LINE
  5
28C
100
AcDbEntity
  8
dxf_2mm35
  6
ByLayer
 62
    0
370
   -1
100
AcDbLine
 10
93.0499999995
 20
-36
 11
93.0499999995
 21
-44
  0
LINE
  5
28D
100
AcDbEntity
  8
dxf_2mm35
  6
ByLayer
 62
    0
370
   -1
100
AcDbLine
 10
93.0499999995
 20
-44
 11
90.69999999949999
 21
-44
  0
LINE
  5
28E
100
AcDbEntity
  8
dxf_2mm35
  6
ByLayer
 62
    0
370
   -1
100
AcDbLine
 10
90.69999999949999
 20
-44
 11
90.69999999949999
 21
-52
  0
LINE
  5
28F
100
AcDbEntity
  8
dxf_2mm35
  6
ByLayer
 62
    0
370
   -1
100
AcDbLine
 10
90.69999999949999
 20
-52
 11
82.69999999949999
 21
-52
  0
LINE
  5
290
100
AcDbEntity
  8
dxf_2mm35
  6
ByLayer
 62
    0
370
   -1
100
AcDbLine
 10
82.69999999949999
 20
-52
 11
77.69999999949999
 21
-47
  0
LINE
  5
291
100
AcDbEntity
  8
dxf_2mm35
  6
ByLayer
 62
    0
370
   -1
100
AcDbLine
 10
77.69999999949999
 20
-47
 11
77.69999999949999
 21
-17
  0
CIRCLE
  5
292
100
AcDbEntity
  8
dxf_2mm35
  6
ByLayer
 62
    0
370
   -1
100
AcDbCircle
 10
79.7
 20
-44
 40
0.25
  0
CIRCLE
  5
293
100
AcDbEntity
  8
dxf_2mm35
  6
ByLayer
 62
    0
370
   -1
100
AcDbCircle
 10
79.7
 20
-20
 40
0.25
  0
LINE
  5
294
100
AcDbEntity
  8
dxf_2mm35
  6
ByLayer
 62
    0
370
   -1
100
AcDbLine
 10
77.7
 20
17
 11
82.69999999949999
 21
12
  0
LINE
  5
295
100
AcDbEntity
  8
dxf_2mm35
  6
ByLayer
 62
    0
370
   -1
100
AcDbLine
 10
82.69999999949999
 20
12
 11
90.69999999949999
 21
12
  0
LINE
  5
296
100
AcDbEntity
  8
dxf_2mm35
  6
ByLayer
 62
    0
370
   -1
100
AcDbLine
 10
90.69999999949999
 20
12
 11
90.69999999949999
 21
20
  0
LINE
  5
297
100
AcDbEntity
  8
dxf_2mm35
  6
ByLayer
 62
    0
370
   -1
100
AcDbLine
 10
90.69999999949999
 20
20
 11
93.0499999995
 21
20
  0
LINE
  5
298
100
AcDbEntity
  8
dxf_2mm35
  6
ByLayer
 62
    0
370
   -1
100
AcDbLine
 10
93.0499999995
 20
20
 11
93.0499999995
 21
28
  0
LINE
  5
299
100
AcDbEntity
  8
dxf_2mm35
  6
ByLayer
 62
    0
370
   -1
100
AcDbLine
 10
93.0499999995
 20
28
 11
90.69999999949999
 21
28
  0
LINE
  5
29A
100
AcDbEntity
  8
dxf_2mm35
  6
ByLayer
 62
    0
370
   -1
100
AcDbLine
 10
90.69999999949999
 20
28
 11
90.69999999949999
 21
36
  0
LINE
  5
29B
100
AcDbEntity
  8
dxf_2mm35
  6
ByLayer
 62
    0
370
   -1
100
AcDbLine
 10
90.69999999949999
 20
36
 11
93.0499999995
 21
36
  0
LINE
  5
29C
100
AcDbEntity
  8
dxf_2mm35
  6
ByLayer
 62
    0
370
   -1
100
AcDbLine
 10
93.0499999995
 20
36
 11
93.0499999995
 21
44
  0
LINE
  5
29D
100
AcDbEntity
  8
dxf_2mm35
  6
ByLayer
 62
    0
370
   -1
100
AcDbLine
 10
93.0499999995
 20
44
 11
90.69999999949999
 21
44
  0
LINE
  5
29E
100
AcDbEntity
  8
dxf_2mm35
  6
ByLayer
 62
    0
370
   -1
100
AcDbLine
 10
90.69999999949999
 20
44
 11
90.69999999949999
 21
52
  0
LINE
  5
29F
100
AcDbEntity
  8
dxf_2mm35
  6
ByLayer
 62
    0
370
   -1
100
AcDbLine
 10
90.69999999949999
 20
52
 11
82.69999999949999
 21
52
  0
LINE
  5
2A0
100
AcDbEntity
  8
dxf_2mm35
  6
ByLayer
 62
    0
370
   -1
100
AcDbLine
 10
82.69999999949999
 20
52
 11
77.7
 21
47
  0
LINE
  5
2A1
100
AcDbEntity
  8
dxf_2mm35
  6
ByLayer
 62
    0
370
   -1
100
AcDbLine
 10
77.7
 20
47
 11
77.7
 21
17
  0
CIRCLE
  5
2A2
100
AcDbEntity
  8
dxf_2mm35
  6
ByLayer
 62
    0
370
   -1
100
AcDbCircle
 10
79.7
 20
44
 40
0.25
  0
CIRCLE
  5
2A3
100
AcDbEntity
  8
dxf_2mm35
  6
ByLayer
 62
    0
370
   -1
100
AcDbCircle
 10
79.7
 20
20
 40
0.25
  0
ENDBLK
  5
A7
330
A5
100
AcDbEntity
  8
0
100
AcDbBlockEnd
  0
BLOCK
  5
A9
330
A8
100
AcDbEntity
  8
0
100
AcDbBlockBegin
  2
p215
 70
    0
 10
0
 20
0
  3
p215
  1

  0
INSERT
  5
2A4
100
AcDbEntity
  8
dxf_2mm35
  6
ByLayer
 62
    0
370
   -1
100
AcDbBlockReference
  2
SHAPE2DVIEW033
 10
0
 20
0
 30
0
 41
1
 42
1
 43
0
 50
0
 70
    1
 71
    1
 44
0
 45
0
  0
ENDBLK
  5
AA
330
A8
100
AcDbEntity
  8
0
100
AcDbBlockEnd
  0
BLOCK
  5
AC
330
AB
100
AcDbEntity
  8
0
100
AcDbBlockBegin
  2
SHAPE2DVIEW034
 70
    0
 10
0
 20
0
  3
SHAPE2DVIEW034
  1

  0
LINE
  5
2A5
100
AcDbEntity
  8
0
  6
ByLayer
 62
    0
370
   -1
100
AcDbLine
 10
-29.85
 20
12
 11
27.85
 21
12
  0
LINE
  5
2A6
100
AcDbEntity
  8
dxf_2mm35
  6
ByLayer
 62
    0
370
   -1
100
AcDbLine
 10
27.85
 20
12
 11
32.85
 21
17
  0
LINE
  5
2A7
100
AcDbEntity
  8
dxf_2mm35
  6
ByLayer
 62
    0
370
   -1
100
AcDbLine
 10
32.85
 20
17
 11
32.85
 21
47
  0
LINE
  5
2A8
100
AcDbEntity
  8
dxf_2mm35
  6
ByLayer
 62
    0
370
   -1
100
AcDbLine
 10
32.85
 20
47
 11
27.85
 21
52
  0
LINE
  5
2A9
100
AcDbEntity
  8
dxf_2mm35
  6
ByLayer
 62
    0
370
   -1
100
AcDbLine
 10
27.85
 20
52
 11
-29.85
 21
52
  0
LINE
  5
2AA
100
AcDbEntity
  8
dxf_2mm35
  6
ByLayer
 62
    0
370
   -1
100
AcDbLine
 10
-29.85
 20
52
 11
-34.85
 21
47
  0
LINE
  5
2AB
100
AcDbEntity
  8
dxf_2mm35
  6
ByLayer
 62
    0
370
   -1
100
AcDbLine
 10
-34.85
 20
47
 11
-34.85
 21
17
  0
LINE
  5
2AC
100
AcDbEntity
  8
dxf_2mm35
  6
ByLayer
 62
    0
370
   -1
100
AcDbLine
 10
-34.85
 20
17
 11
-29.85
 21
12
  0
LINE
  5
2AD
100
AcDbEntity
  8
dxf_2mm35
  6
ByLayer
 62
    0
370
   -1
100
AcDbLine
 10
27.5
 20
36
 11
29.85
 21
36
  0
LINE
  5
2AE
100
AcDbEntity
  8
dxf_2mm35
  6
ByLayer
 62
    0
370
   -1
100
AcDbLine
 10
29.85
 20
36
 11
29.85
 21
44
  0
LINE
  5
2AF
100
AcDbEntity
  8
dxf_2mm35
  6
ByLayer
 62
    0
370
   -1
100
AcDbLine
 10
29.85
 20
44
 11
27.5
 21
44
  0
LINE
  5
2B0
100
AcDbEntity
  8
dxf_2mm35
  6
ByLayer
 62
    0
370
   -1
100
AcDbLine
 10
27.5
 20
44
 11
27.5
 21
36
  0
LINE
  5
2B1
100
AcDbEntity
  8
dxf_2mm35
  6
ByLayer
 62
    0
370
   -1
100
AcDbLine
 10
27.5
 20
20
 11
29.85
 21
20
  0
LINE
  5
2B2
100
AcDbEntity
  8
dxf_2mm35
  6
ByLayer
 62
    0
370
   -1
100
AcDbLine
 10
29.85
 20
20
 11
29.85
 21
28
  0
LINE
  5
2B3
100
AcDbEntity
  8
dxf_2mm35
  6
ByLayer
 62
    0
370
   -1
100
AcDbLine
 10
29.85
 20
28
 11
27.5
 21
28
  0
LINE
  5
2B4
100
AcDbEntity
  8
dxf_2mm35
  6
ByLayer
 62
    0
370
   -1
100
AcDbLine
 10
27.5
 20
28
 11
27.5
 21
20
  0
LINE
  5
2B5
100
AcDbEntity
  8
dxf_2mm35
  6
ByLayer
 62
    0
370
   -1
100
AcDbLine
 10
-31.85
 20
36
 11
-29.5
 21
36
  0
LINE
  5
2B6
100
AcDbEntity
  8
dxf_2mm35
  6
ByLayer
 62
    0
370
   -1
100
AcDbLine
 10
-29.5
 20
36
 11
-29.5
 21
44
  0
LINE
  5
2B7
100
AcDbEntity
  8
dxf_2mm35
  6
ByLayer
 62
    0
370
   -1
100
AcDbLine
 10
-29.5
 20
44
 11
-31.85
 21
44
  0
LINE
  5
2B8
100
AcDbEntity
  8
dxf_2mm35
  6
ByLayer
 62
    0
370
   -1
100
AcDbLine
 10
-31.85
 20
44
 11
-31.85
 21
36
  0
LINE
  5
2B9
100
AcDbEntity
  8
dxf_2mm35
  6
ByLayer
 62
    0
370
   -1
100
AcDbLine
 10
-31.85
 20
20
 11
-29.5
 21
20
  0
LINE
  5
2BA
100
AcDbEntity
  8
dxf_2mm35
  6
ByLayer
 62
    0
370
   -1
100
AcDbLine
 10
-29.5
 20
20
 11
-29.5
 21
28
  0
LINE
  5
2BB
100
AcDbEntity
  8
dxf_2mm35
  6
ByLayer
 62
    0
370
   -1
100
AcDbLine
 10
-29.5
 20
28
 11
-31.85
 21
28
  0
LINE
  5
2BC
100
AcDbEntity
  8
dxf_2mm35
  6
ByLayer
 62
    0
370
   -1
100
AcDbLine
 10
-31.85
 20
28
 11
-31.85
 21
20
  0
LINE
  5
2BD
100
AcDbEntity
  8
dxf_2mm35
  6
ByLayer
 62
    0
370
   -1
100
AcDbLine
 10
-29.85
 20
-52
 11
27.85
 21
-52
  0
LINE
  5
2BE
100
AcDbEntity
  8
dxf_2mm35
  6
ByLayer
 62
    0
370
   -1
100
AcDbLine
 10
27.85
 20
-52
 11
32.85
 21
-47
  0
LINE
  5
2BF
100
AcDbEntity
  8
dxf_2mm35
  6
ByLayer
 62
    0
370
   -1
100
AcDbLine
 10
32.85
 20
-47
 11
32.85
 21
-17
  0
LINE
  5
2C0
100
AcDbEntity
  8
dxf_2mm35
  6
ByLayer
 62
    0
370
   -1
100
AcDbLine
 10
32.85
 20
-17
 11
27.85
 21
-12
  0
LINE
  5
2C1
100
AcDbEntity
  8
dxf_2mm35
  6
ByLayer
 62
    0
370
   -1
100
AcDbLine
 10
27.85
 20
-12
 11
-29.85
 21
-12
  0
LINE
  5
2C2
100
AcDbEntity
  8
dxf_2mm35
  6
ByLayer
 62
    0
370
   -1
100
AcDbLine
 10
-29.85
 20
-12
 11
-34.85
 21
-17
  0
LINE
  5
2C3
100
AcDbEntity
  8
dxf_2mm35
  6
ByLayer
 62
    0
370
   -1
100
AcDbLine
 10
-34.85
 20
-17
 11
-34.85
 21
-47
  0
LINE
  5
2C4
100
AcDbEntity
  8
dxf_2mm35
  6
ByLayer
 62
    0
370
   -1
100
AcDbLine
 10
-34.85
 20
-47
 11
-29.85
 21
-52
  0
LINE
  5
2C5
100
AcDbEntity
  8
dxf_2mm35
  6
ByLayer
 62
    0
370
   -1
100
AcDbLine
 10
27.5
 20
-28
 11
29.85
 21
-28
  0
LINE
  5
2C6
100
AcDbEntity
  8
dxf_2mm35
  6
ByLayer
 62
    0
370
   -1
100
AcDbLine
 10
29.85
 20
-28
 11
29.85
 21
-20
  0
LINE
  5
2C7
100
AcDbEntity
  8
dxf_2mm35
  6
ByLayer
 62
    0
370
   -1
100
AcDbLine
 10
29.85
 20
-20
 11
27.5
 21
-20
  0
LINE
  5
2C8
100
AcDbEntity
  8
dxf_2mm35
  6
ByLayer
 62
    0
370
   -1
100
AcDbLine
 10
27.5
 20
-20
 11
27.5
 21
-28
  0
LINE
  5
2C9
100
AcDbEntity
  8
dxf_2mm35
  6
ByLayer
 62
    0
370
   -1
100
AcDbLine
 10
27.5
 20
-44
 11
29.85
 21
-44
  0
LINE
  5
2CA
100
AcDbEntity
  8
dxf_2mm35
  6
ByLayer
 62
    0
370
   -1
100
AcDbLine
 10
29.85
 20
-44
 11
29.85
 21
-36
  0
LINE
  5
2CB
100
AcDbEntity
  8
dxf_2mm35
  6
ByLayer
 62
    0
370
   -1
100
AcDbLine
 10
29.85
 20
-36
 11
27.5
 21
-36
  0
LINE
  5
2CC
100
AcDbEntity
  8
dxf_2mm35
  6
ByLayer
 62
    0
370
   -1
100
AcDbLine
 10
27.5
 20
-36
 11
27.5
 21
-44
  0
LINE
  5
2CD
100
AcDbEntity
  8
dxf_2mm35
  6
ByLayer
 62
    0
370
   -1
100
AcDbLine
 10
-31.85
 20
-28
 11
-29.5
 21
-28
  0
LINE
  5
2CE
100
AcDbEntity
  8
dxf_2mm35
  6
ByLayer
 62
    0
370
   -1
100
AcDbLine
 10
-29.5
 20
-28
 11
-29.5
 21
-20
  0
LINE
  5
2CF
100
AcDbEntity
  8
dxf_2mm35
  6
ByLayer
 62
    0
370
   -1
100
AcDbLine
 10
-29.5
 20
-20
 11
-31.85
 21
-20
  0
LINE
  5
2D0
100
AcDbEntity
  8
dxf_2mm35
  6
ByLayer
 62
    0
370
   -1
100
AcDbLine
 10
-31.85
 20
-20
 11
-31.85
 21
-28
  0
LINE
  5
2D1
100
AcDbEntity
  8
dxf_2mm35
  6
ByLayer
 62
    0
370
   -1
100
AcDbLine
 10
-31.85
 20
-44
 11
-29.5
 21
-44
  0
LINE
  5
2D2
100
AcDbEntity
  8
dxf_2mm35
  6
ByLayer
 62
    0
370
   -1
100
AcDbLine
 10
-29.5
 20
-44
 11
-29.5
 21
-36
  0
LINE
  5
2D3
100
AcDbEntity
  8
dxf_2mm35
  6
ByLayer
 62
    0
370
   -1
100
AcDbLine
 10
-29.5
 20
-36
 11
-31.85
 21
-36
  0
LINE
  5
2D4
100
AcDbEntity
  8
dxf_2mm35
  6
ByLayer
 62
    0
370
   -1
100
AcDbLine
 10
-31.85
 20
-36
 11
-31.85
 21
-44
  0
ENDBLK
  5
AD
330
AB
100
AcDbEntity
  8
0
100
AcDbBlockEnd
  0
BLOCK
  5
AF
330
AE
100
AcDbEntity
  8
0
100
AcDbBlockBegin
  2
p216
 70
    0
 10
0
 20
0
  3
p216
  1

  0
INSERT
  5
2D5
100
AcDbEntity
  8
dxf_2mm35
  6
ByLayer
 62
    0
370
   -1
100
AcDbBlockReference
  2
SHAPE2DVIEW034
 10
0
 20
0
 30
0
 41
1
 42
1
 43
0
 50
0
 70
    1
 71
    1
 44
0
 45
0
  0
ENDBLK
  5
B0
330
AE
100
AcDbEntity
  8
0
100
AcDbBlockEnd
  0
BLOCK
  5
B2
330
B1
100
AcDbEntity
  8
0
100
AcDbBlockBegin
  2
SHAPE2DVIEW035
 70
    0
 10
0
 20
0
  3
SHAPE2DVIEW035
  1

  0
ARC
  5
2D6
100
AcDbEntity
  8
0
  6
ByLayer
 62
    0
370
   -1
100
AcDbCircle
 10
9.25
 20
-15
 40
6
100
AcDbArc
 50
-72.4951403454
 51
107.504859655
  0
LINE
  5
2D7
100
AcDbEntity
  8
dxf_2mm35
  6
ByLayer
 62
    0
370
   -1
100
AcDbLine
 10
7.44527986115
 20
-9.277851345829999
 11
-81.5047201389
 21
-38.2778513458
  0
ARC
  5
2D8
100
AcDbEntity
  8
dxf_2mm35
  6
ByLayer
 62
    0
370
   -1
100
AcDbCircle
 10
-79.7
 20
-44
 40
6
100
AcDbArc
 50
107.504859655
 51
-72.4951403454
  0
LINE
  5
2D9
100
AcDbEntity
  8
dxf_2mm35
  6
ByLayer
 62
    0
370
   -1
100
AcDbLine
 10
11.0547201389
 20
-20.7221486542
 11
-77.89527986109999
 21
-49.7221486542
  0
CIRCLE
  5
2DA
100
AcDbEntity
  8
dxf_2mm35
  6
ByLayer
 62
    0
370
   -1
100
AcDbCircle
 10
-79.7
 20
-44
 40
0.25
  0
CIRCLE
  5
2DB
100
AcDbEntity
  8
dxf_2mm35
  6
ByLayer
 62
    0
370
   -1
100
AcDbCircle
 10
9.25
 20
-15
 40
0.25
  0
ARC
  5
2DC
100
AcDbEntity
  8
dxf_2mm35
  6
ByLayer
 62
    0
370
   -1
100
AcDbCircle
 10
9.25
 20
15
 40
6
100
AcDbArc
 50
-107.504859655
 51
72.4951403454
  0
LINE
  5
2DD
100
AcDbEntity
  8
dxf_2mm35
  6
ByLayer
 62
    0
370
   -1
100
AcDbLine
 10
11.0547201389
 20
20.7221486542
 11
-77.89527986109999
 21
49.7221486542
  0
ARC
  5
2DE
100
AcDbEntity
  8
dxf_2mm35
  6
ByLayer
 62
    0
370
   -1
100
AcDbCircle
 10
-79.7
 20
44
 40
6
100
AcDbArc
 50
72.4951403454
 51
-107.504859655
  0
LINE
  5
2DF
100
AcDbEntity
  8
dxf_2mm35
  6
ByLayer
 62
    0
370
   -1
100
AcDbLine
 10
7.44527986115
 20
9.277851345829999
 11
-81.5047201389
 21
38.2778513458
  0
CIRCLE
  5
2E0
100
AcDbEntity
  8
dxf_2mm35
  6
ByLayer
 62
    0
370
   -1
100
AcDbCircle
 10
-79.7
 20
44
 40
0.25
  0
CIRCLE
  5
2E1
100
AcDbEntity
  8
dxf_2mm35
  6
ByLayer
 62
    0
370
   -1
100
AcDbCircle
 10
9.25
 20
15
 40
0.25
  0
ENDBLK
  5
B3
330
B1
100
AcDbEntity
  8
0
100
AcDbBlockEnd
  0
BLOCK
  5
B5
330
B4
100
AcDbEntity
  8
0
100
AcDbBlockBegin
  2
p218
 70
    0
 10
0
 20
0
  3
p218
  1

  0
INSERT
  5
2E2
100
AcDbEntity
  8
dxf_2mm35
  6
ByLayer
 62
    0
370
   -1
100
AcDbBlockReference
  2
SHAPE2DVIEW035
 10
0
 20
0
 30
0
 41
1
 42
1
 43
0
 50
0
 70
    1
 71
    1
 44
0
 45
0
  0
ENDBLK
  5
B6
330
B4
100
AcDbEntity
  8
0
100
AcDbBlockEnd
  0
ENDSEC
  0
SECTION
  2
ENTITIES
  0
INSERT
  5
2E3
100
AcDbEntity
  8
0
  6
ByLayer
 62
  256
370
   -1
100
AcDbBlockReference
  2
p201
 10
23.3
 20
30
 30
0
 41
1
 42
1
 43
0
 50
0
 70
    1
 71
    1
 44
0
 45
0
  0
INSERT
  5
2E4
100
AcDbEntity
  8
dxf_2mm35
  6
ByLayer
 62
    0
370
   -1
100
AcDbBlockReference
  2
SHAPE2DVIEW018
 10
15
 20
0
 30
0
 41
1
 42
1
 43
0
 50
0
 70
    1
 71
    1
 44
0
 45
0
  0
INSERT
  5
2E5
100
AcDbEntity
  8
0
  6
ByLayer
 62
  256
370
   -1
100
AcDbBlockReference
  2
p202
 10
-60
 20
0
 30
0
 41
1
 42
1
 43
0
 50
0
 70
    1
 71
    1
 44
0
 45
0
  0
INSERT
  5
2E6
100
AcDbEntity
  8
0
  6
ByLayer
 62
  256
370
   -1
100
AcDbBlockReference
  2
p203
 10
130
 20
0
 30
0
 41
1
 42
1
 43
0
 50
0
 70
    1
 71
    1
 44
0
 45
0
  0
INSERT
  5
2E7
100
AcDbEntity
  8
0
  6
ByLayer
 62
  256
370
   -1
100
AcDbBlockReference
  2
p204
 10
0
 20
-100
 30
0
 41
1
 42
1
 43
0
 50
0
 70
    1
 71
    1
 44
0
 45
0
  0
INSERT
  5
2E8
100
AcDbEntity
  8
0
  6
ByLayer
 62
  256
370
   -1
100
AcDbBlockReference
  2
p206
 10
-114.4337559936
 20
0
 30
0
 41
1
 42
1
 43
0
 50
0
 70
    1
 71
    1
 44
0
 45
0
  0
INSERT
  5
2E9
100
AcDbEntity
  8
0
  6
ByLayer
 62
  256
370
   -1
100
AcDbBlockReference
  2
p207
 10
-170
 20
0
 30
0
 41
1
 42
1
 43
0
 50
0
 70
    1
 71
    1
 44
0
 45
0
  0
INSERT
  5
2EA
100
AcDbEntity
  8
0
  6
ByLayer
 62
  256
370
   -1
100
AcDbBlockReference
  2
p208
 10
-240
 20
0
 30
0
 41
1
 42
1
 43
0
 50
0
 70
    1
 71
    1
 44
0
 45
0
  0
INSERT
  5
2EB
100
AcDbEntity
  8
0
  6
ByLayer
 62
  256
370
   -1
100
AcDbBlockReference
  2
p210
 10
0
 20
-100
 30
0
 41
1
 42
1
 43
0
 50
0
 70
    1
 71
    1
 44
0
 45
0
  0
INSERT
  5
2EC
100
AcDbEntity
  8
0
  6
ByLayer
 62
  256
370
   -1
100
AcDbBlockReference
  2
p218
 10
-550
 20
0
 30
0
 41
1
 42
1
 43
0
 50
0
 70
    1
 71
    1
 44
0
 45
0
  0
INSERT
  5
2ED
100
AcDbEntity
  8
0
  6
ByLayer
 62
  256
370
   -1
100
AcDbBlockReference
  2
p211
 10
20
 20
-100
 30
0
 41
1
 42
1
 43
0
 50
0
 70
    1
 71
    1
 44
0
 45
0
  0
INSERT
  5
2EE
100
AcDbEntity
  8
0
  6
ByLayer
 62
  256
370
   -1
100
AcDbBlockReference
  2
p216
 10
-170
 20
-100
 30
0
 41
1
 42
1
 43
0
 50
0
 70
    1
 71
    1
 44
0
 45
0
  0
INSERT
  5
2EF
100
AcDbEntity
  8
0
  6
ByLayer
 62
  256
370
   -1
100
AcDbBlockReference
  2
p214
 10
-130
 20
-100
 30
0
 41
1
 42
1
 43
0
 50
0
 70
    1
 71
    1
 44
0
 45
0
  0
INSERT
  5
2F0
100
AcDbEntity
  8
0
  6
ByLayer
 62
  256
370
   -1
100
AcDbBlockReference
  2
p215
 10
-330
 20
-100
 30
0
 41
1
 42
1
 43
0
 50
0
 70
    1
 71
    1
 44
0
 45
0
  0
INSERT
  5
2F1
100
AcDbEntity
  8
0
  6
ByLayer
 62
  256
370
   -1
100
AcDbBlockReference
  2
p205
 10
34.34314575050762
 20
-10
 30
0
 41
1
 42
1
 43
0
 50
90
 70
    1
 71
    1
 44
0
 45
0
  0
INSERT
  5
2F2
100
AcDbEntity
  8
0
  6
ByLayer
 62
  256
370
   -1
100
AcDbBlockReference
  2
p209
 10
-100
 20
-100
 30
0
 41
1
 42
1
 43
0
 50
0
 70
    1
 71
    1
 44
0
 45
0
  0
INSERT
  5
2F3
100
AcDbEntity
  8
0
  6
ByLayer
 62
  256
370
   -1
100
AcDbBlockReference
  2
p212
 10
200
 20
-100
 30
0
 41
1
 42
1
 43
0
 50
0
 70
    1
 71
    1
 44
0
 45
0
  0
INSERT
  5
2F4
100
AcDbEntity
  8
0
  6
ByLayer
 62
  256
370
   -1
100
AcDbBlockReference
  2
p213
 10
30
 20
-100
 30
0
 41
1
 42
1
 43
0
 50
0
 70
    1
 71
    1
 44
0
 45
0
  0
ENDSEC
  0
SECTION
  2
OBJECTS
  0
DICTIONARY
  5
C
330
0
100
AcDbDictionary
281
    1
  3
ACAD_GROUP
350
D
  0
DICTIONARY
  5
D
330
C
100
AcDbDictionary
281
    1
  0
ENDSEC
  0
EOF
