  0
SECTION
  2
HEADER
  9
$ACADVER
  1
AC1009
  9
$INSBASE
 10
0.0
 20
0.0
 30
0.0
  9
$EXTMIN
 10
0.0
 20
0.0
 30
0.0
  9
$EXTMAX
 10
0.0
 20
0.0
 30
0.0
  0
ENDSEC
  0
SECTION
  2
TABLES
  0
TABLE
  2
VPORT
 70
0
  0
ENDTAB
  0
TABLE
  2
LTYPE
 70
1
  0
LTYPE
  2
CONTINUOUS
 70
0
  3
Solid line
 72
65
 73
0
 40
0.0
  0
ENDTAB
  0
TABLE
  2
LAYER
 70
1
  0
LAYER
  2
0
 70
64
 62
7
  6
continuous
  0
ENDTAB
  0
TABLE
  2
STYLE
 70
1
  0
STYLE
  2
STANDARD
 70
0
 40
0
 41
1.0
 50
0.0
 71
0
 42
1
 3
ARIAL.TTF
 4

  0
ENDTAB
  0
TABLE
  2
VIEW
 70
0
  0
ENDTAB
  0
ENDSEC
  0
SECTION
  2
BLOCKS
  0
BLOCK
  8
dxf_2mm35
  2
SHAPE2DVIEW020
 70
0
 10
0.0
 20
0.0
 30
0.0
  3
SHAPE2DVIEW020
  0
LINE
  8
dxf_2mm35
 62
0
 10
-55.4337559936
 20
-18.5
 30
0.0
 11
-55.4337559936
 21
-33.5
 31
0.0
  0
LINE
  8
dxf_2mm35
 62
0
 10
-55.4337559936
 20
-33.5
 30
0.0
 11
-38.9337559936
 21
-33.5
 31
0.0
  0
LINE
  8
dxf_2mm35
 62
0
 10
-38.9337559936
 20
-33.5
 30
0.0
 11
-38.9337559936
 21
-35.85
 31
0.0
  0
LINE
  8
dxf_2mm35
 62
0
 10
-38.9337559936
 20
-35.85
 30
0.0
 11
-23.9337559936
 21
-35.85
 31
0.0
  0
LINE
  8
dxf_2mm35
 62
0
 10
-23.9337559936
 20
-35.85
 30
0.0
 11
-23.9337559936
 21
-33.5
 31
0.0
  0
LINE
  8
dxf_2mm35
 62
0
 10
-23.9337559936
 20
-33.5
 30
0.0
 11
-8.93375599359
 21
-33.5
 31
0.0
  0
LINE
  8
dxf_2mm35
 62
0
 10
-8.93375599359
 20
-33.5
 30
0.0
 11
-8.93375599359
 21
-35.85
 31
0.0
  0
LINE
  8
dxf_2mm35
 62
0
 10
-8.93375599359
 20
-35.85
 30
0.0
 11
6.06624400641
 21
-35.85
 31
0.0
  0
LINE
  8
dxf_2mm35
 62
0
 10
6.06624400641
 20
-35.85
 30
0.0
 11
15.5000007361
 21
-26.5
 31
0.0
  0
LINE
  8
dxf_2mm35
 62
0
 10
15.5000007361
 20
-26.5
 30
0.0
 11
23.5000007361
 21
-26.5
 31
0.0
  0
LINE
  8
dxf_2mm35
 62
0
 10
23.5000007361
 20
-26.5
 30
0.0
 11
23.5000007361
 21
-24.15
 31
0.0
  0
LINE
  8
dxf_2mm35
 62
0
 10
23.5000007361
 20
-24.15
 30
0.0
 11
43.5000007361
 21
-24.15
 31
0.0
  0
LINE
  8
dxf_2mm35
 62
0
 10
43.5000007361
 20
-24.15
 30
0.0
 11
43.5000007361
 21
-26.5
 31
0.0
  0
LINE
  8
dxf_2mm35
 62
0
 10
43.5000007361
 20
-26.5
 30
0.0
 11
54.6500007361
 21
-26.5
 31
0.0
  0
LINE
  8
dxf_2mm35
 62
0
 10
54.6500007361
 20
-26.5
 30
0.0
 11
54.6500007361
 21
-15.0
 31
0.0
  0
LINE
  8
dxf_2mm35
 62
0
 10
54.6500007361
 20
-15.0
 30
0.0
 11
57.0000007361
 21
-15.0
 31
0.0
  0
LINE
  8
dxf_2mm35
 62
0
 10
57.0000007361
 20
-15.0
 30
0.0
 11
57.0000007361
 21
3.5527136788e-15
 31
0.0
  0
LINE
  8
dxf_2mm35
 62
0
 10
57.0000007361
 20
0.0
 30
0.0
 11
48.0000007361
 21
11.0
 31
0.0
  0
LINE
  8
dxf_2mm35
 62
0
 10
48.0000007361
 20
11.0
 30
0.0
 11
48.0000007361
 21
44.0
 31
0.0
  0
LINE
  8
dxf_2mm35
 62
0
 10
48.0000007361
 20
44.0
 30
0.0
 11
45.0000007361
 21
47.0
 31
0.0
  0
LINE
  8
dxf_2mm35
 62
0
 10
45.0000007361
 20
47.0
 30
0.0
 11
31.0000007361
 21
47.0
 31
0.0
  0
LINE
  8
dxf_2mm35
 62
0
 10
31.0000007361
 20
47.0
 30
0.0
 11
16.5662440064
 21
22.0
 31
0.0
  0
LINE
  8
dxf_2mm35
 62
0
 10
16.5662440064
 20
22.0
 30
0.0
 11
-13.4337559936
 21
22.0
 31
0.0
  0
LINE
  8
dxf_2mm35
 62
0
 10
-13.4337559936
 20
22.0
 30
0.0
 11
-38.4337559936
 21
47.0
 31
0.0
  0
LINE
  8
dxf_2mm35
 62
0
 10
-38.4337559936
 20
47.0
 30
0.0
 11
-55.4337559936
 21
47.0
 31
0.0
  0
LINE
  8
dxf_2mm35
 62
0
 10
-55.4337559936
 20
47.0
 30
0.0
 11
-55.4337559936
 21
26.5
 31
0.0
  0
LINE
  8
dxf_2mm35
 62
0
 10
-57.7837559936
 20
26.5
 30
0.0
 11
-55.4337559936
 21
26.5
 31
0.0
  0
LINE
  8
dxf_2mm35
 62
0
 10
-57.7837559936
 20
11.5
 30
0.0
 11
-57.7837559936
 21
26.5
 31
0.0
  0
LINE
  8
dxf_2mm35
 62
0
 10
-55.4337559936
 20
11.5
 30
0.0
 11
-57.7837559936
 21
11.5
 31
0.0
  0
LINE
  8
dxf_2mm35
 62
0
 10
-55.4337559936
 20
11.5
 30
0.0
 11
-55.4337559936
 21
-3.5
 31
0.0
  0
LINE
  8
dxf_2mm35
 62
0
 10
-57.7837559936
 20
-3.5
 30
0.0
 11
-55.4337559936
 21
-3.5
 31
0.0
  0
LINE
  8
dxf_2mm35
 62
0
 10
-57.7837559936
 20
-18.5
 30
0.0
 11
-57.7837559936
 21
-3.5
 31
0.0
  0
LINE
  8
dxf_2mm35
 62
0
 10
-55.4337559936
 20
-18.5
 30
0.0
 11
-57.7837559936
 21
-18.5
 31
0.0
  0
POLYLINE
  8
dxf_2mm35
 62
0
 70
0
 66
1
 10
0.0
 20
0.0
 30
0.0
  0
VERTEX
  8
dxf_2mm35
 10
-21.9999992639
 20
10.0
 30
0.0
  0
VERTEX
  8
dxf_2mm35
 10
-26.8563411447
 20
9.33251117226
 30
0.0
  0
VERTEX
  8
dxf_2mm35
 10
-31.3525103645
 20
7.37954928184
 30
0.0
  0
VERTEX
  8
dxf_2mm35
 10
-35.1550466209
 20
4.28595657794
 30
0.0
  0
VERTEX
  8
dxf_2mm35
 10
-37.9819331951
 20
0.281170679161
 30
0.0
  0
VERTEX
  8
dxf_2mm35
 10
-39.6235128422
 20
-4.33779176505
 30
0.0
  0
VERTEX
  8
dxf_2mm35
 10
-39.9580371093
 20
-9.22836344056
 30
0.0
  0
VERTEX
  8
dxf_2mm35
 10
-38.960695862
 20
-14.0278330191
 30
0.0
  0
VERTEX
  8
dxf_2mm35
 10
-36.7054573381
 20
-18.3802457981
 30
0.0
  0
VERTEX
  8
dxf_2mm35
 10
-33.3595822618
 20
-21.9628032327
 30
0.0
  0
VERTEX
  8
dxf_2mm35
 10
-29.1712188811
 20
-24.5098034271
 30
0.0
  0
VERTEX
  8
dxf_2mm35
 10
-24.4509989476
 20
-25.8323470287
 30
0.0
  0
VERTEX
  8
dxf_2mm35
 10
-19.5489995802
 20
-25.8323470287
 30
0.0
  0
VERTEX
  8
dxf_2mm35
 10
-14.8287796467
 20
-24.5098034271
 30
0.0
  0
VERTEX
  8
dxf_2mm35
 10
-10.640416266
 20
-21.9628032327
 30
0.0
  0
VERTEX
  8
dxf_2mm35
 10
-7.29454118969
 20
-18.3802457981
 30
0.0
  0
VERTEX
  8
dxf_2mm35
 10
-5.03930266574
 20
-14.0278330191
 30
0.0
  0
VERTEX
  8
dxf_2mm35
 10
-4.04196141845
 20
-9.22836344056
 30
0.0
  0
VERTEX
  8
dxf_2mm35
 10
-4.3764856856
 20
-4.33779176505
 30
0.0
  0
VERTEX
  8
dxf_2mm35
 10
-6.01806533264
 20
0.281170679161
 30
0.0
  0
VERTEX
  8
dxf_2mm35
 10
-8.84495190688
 20
4.28595657794
 30
0.0
  0
VERTEX
  8
dxf_2mm35
 10
-12.6474881632
 20
7.37954928184
 30
0.0
  0
VERTEX
  8
dxf_2mm35
 10
-17.1436573831
 20
9.33251117226
 30
0.0
  0
VERTEX
  8
dxf_2mm35
 10
-21.9999992639
 20
10.0
 30
0.0
  0
SEQEND
  8
dxf_2mm35
  0
POLYLINE
  8
dxf_2mm35
 62
0
 70
0
 66
1
 10
0.0
 20
0.0
 30
0.0
  0
VERTEX
  8
dxf_2mm35
 10
14.0000007361
 20
1.0
 30
0.0
  0
VERTEX
  8
dxf_2mm35
 10
9.50000073612
 20
-0.20577136594
 30
0.0
  0
VERTEX
  8
dxf_2mm35
 10
6.20577210206
 20
-3.5
 30
0.0
  0
VERTEX
  8
dxf_2mm35
 10
5.00000073612
 20
-8.0
 30
0.0
  0
VERTEX
  8
dxf_2mm35
 10
6.20577210206
 20
-12.5
 30
0.0
  0
VERTEX
  8
dxf_2mm35
 10
9.50000073612
 20
-15.7942286341
 30
0.0
  0
VERTEX
  8
dxf_2mm35
 10
14.0000007361
 20
-17.0
 30
0.0
  0
VERTEX
  8
dxf_2mm35
 10
18.5000007361
 20
-15.7942286341
 30
0.0
  0
VERTEX
  8
dxf_2mm35
 10
21.7942293702
 20
-12.5
 30
0.0
  0
VERTEX
  8
dxf_2mm35
 10
23.0000007361
 20
-8.0
 30
0.0
  0
VERTEX
  8
dxf_2mm35
 10
21.7942293702
 20
-3.5
 30
0.0
  0
VERTEX
  8
dxf_2mm35
 10
18.5000007361
 20
-0.20577136594
 30
0.0
  0
VERTEX
  8
dxf_2mm35
 10
14.0000007361
 20
1.0
 30
0.0
  0
SEQEND
  8
dxf_2mm35
  0
LINE
  8
dxf_2mm35
 62
0
 10
5.00000073612
 20
10.65
 30
0.0
 11
5.00000073612
 21
13.0
 31
0.0
  0
LINE
  8
dxf_2mm35
 62
0
 10
5.00000073612
 20
13.0
 30
0.0
 11
10.0000007361
 21
13.0
 31
0.0
  0
LINE
  8
dxf_2mm35
 62
0
 10
10.0000007361
 20
13.0
 30
0.0
 11
10.0000007361
 21
10.65
 31
0.0
  0
LINE
  8
dxf_2mm35
 62
0
 10
10.0000007361
 20
10.65
 30
0.0
 11
5.00000073612
 21
10.65
 31
0.0
  0
LINE
  8
dxf_2mm35
 62
0
 10
39.0500007361
 20
-18.3
 30
0.0
 11
39.0500007361
 21
-13.3
 31
0.0
  0
LINE
  8
dxf_2mm35
 62
0
 10
39.0500007361
 20
-13.3
 30
0.0
 11
41.4000007361
 21
-13.3
 31
0.0
  0
LINE
  8
dxf_2mm35
 62
0
 10
41.4000007361
 20
-13.3
 30
0.0
 11
41.4000007361
 21
-18.3
 31
0.0
  0
LINE
  8
dxf_2mm35
 62
0
 10
41.4000007361
 20
-18.3
 30
0.0
 11
39.0500007361
 21
-18.3
 31
0.0
  0
LINE
  8
dxf_2mm35
 62
0
 10
39.0500007361
 20
37.1
 30
0.0
 11
39.0500007361
 21
42.1
 31
0.0
  0
LINE
  8
dxf_2mm35
 62
0
 10
39.0500007361
 20
42.1
 30
0.0
 11
41.4000007361
 21
42.1
 31
0.0
  0
LINE
  8
dxf_2mm35
 62
0
 10
41.4000007361
 20
42.1
 30
0.0
 11
41.4000007361
 21
37.1
 31
0.0
  0
LINE
  8
dxf_2mm35
 62
0
 10
41.4000007361
 20
37.1
 30
0.0
 11
39.0500007361
 21
37.1
 31
0.0
  0
LINE
  8
dxf_2mm35
 62
0
 10
-50.3999992639
 20
10.65
 30
0.0
 11
-50.3999992639
 21
13.0
 31
0.0
  0
LINE
  8
dxf_2mm35
 62
0
 10
-50.3999992639
 20
13.0
 30
0.0
 11
-45.3999992639
 21
13.0
 31
0.0
  0
LINE
  8
dxf_2mm35
 62
0
 10
-45.3999992639
 20
13.0
 30
0.0
 11
-45.3999992639
 21
10.65
 31
0.0
  0
LINE
  8
dxf_2mm35
 62
0
 10
-45.3999992639
 20
10.65
 30
0.0
 11
-50.3999992639
 21
10.65
 31
0.0
  0
ENDBLK
  0
ENDSEC
  0
SECTION
  2
ENTITIES
  0
INSERT
  2
SHAPE2DVIEW020
  8
dxf_2mm35
 62
0
 10
0.0
 20
0.0
 30
0.0
  0
ENDSEC
  0
EOF
