  0
SECTION
  2
HEADER
  9
$ACADVER
  1
AC1009
  9
$INSBASE
 10
0.0
 20
0.0
 30
0.0
  9
$EXTMIN
 10
0.0
 20
0.0
 30
0.0
  9
$EXTMAX
 10
0.0
 20
0.0
 30
0.0
  0
ENDSEC
  0
SECTION
  2
TABLES
  0
TABLE
  2
VPORT
 70
0
  0
ENDTAB
  0
TABLE
  2
LTYPE
 70
1
  0
LTYPE
  2
CONTINUOUS
 70
0
  3
Solid line
 72
65
 73
0
 40
0.0
  0
ENDTAB
  0
TABLE
  2
LAYER
 70
1
  0
LAYER
  2
0
 70
64
 62
7
  6
continuous
  0
ENDTAB
  0
TABLE
  2
STYLE
 70
1
  0
STYLE
  2
STANDARD
 70
0
 40
0
 41
1.0
 50
0.0
 71
0
 42
1
 3
ARIAL.TTF
 4

  0
ENDTAB
  0
TABLE
  2
VIEW
 70
0
  0
ENDTAB
  0
ENDSEC
  0
SECTION
  2
BLOCKS
  0
BLOCK
  8
dxf_2mm35
  2
SHAPE2DVIEW022
 70
0
 10
0.0
 20
0.0
 30
0.0
  3
SHAPE2DVIEW022
  0
LINE
  8
dxf_2mm35
 62
0
 10
-35.85
 20
24.0
 30
0.0
 11
-35.85
 21
-24.0
 31
0.0
  0
LINE
  8
dxf_2mm35
 62
0
 10
-35.85
 20
-24.0
 30
0.0
 11
-32.85
 21
-27.0
 31
0.0
  0
LINE
  8
dxf_2mm35
 62
0
 10
-32.85
 20
-27.0
 30
0.0
 11
44.0
 21
-27.0
 31
0.0
  0
LINE
  8
dxf_2mm35
 62
0
 10
44.0
 20
-27.0
 30
0.0
 11
47.0
 21
-24.0
 31
0.0
  0
LINE
  8
dxf_2mm35
 62
0
 10
47.0
 20
-24.0
 30
0.0
 11
47.0
 21
-10.0
 31
0.0
  0
LINE
  8
dxf_2mm35
 62
0
 10
47.0
 20
-10.0
 30
0.0
 11
44.65
 21
-10.0
 31
0.0
  0
LINE
  8
dxf_2mm35
 62
0
 10
44.65
 20
-10.0
 30
0.0
 11
44.65
 21
10.0
 31
0.0
  0
LINE
  8
dxf_2mm35
 62
0
 10
44.65
 20
10.0
 30
0.0
 11
47.0
 21
10.0
 31
0.0
  0
LINE
  8
dxf_2mm35
 62
0
 10
47.0
 20
10.0
 30
0.0
 11
47.0
 21
24.0
 31
0.0
  0
LINE
  8
dxf_2mm35
 62
0
 10
47.0
 20
24.0
 30
0.0
 11
44.0
 21
27.0
 31
0.0
  0
LINE
  8
dxf_2mm35
 62
0
 10
44.0
 20
27.0
 30
0.0
 11
-32.85
 21
27.0
 31
0.0
  0
LINE
  8
dxf_2mm35
 62
0
 10
-32.85
 20
27.0
 30
0.0
 11
-35.85
 21
24.0
 31
0.0
  0
LINE
  8
dxf_2mm35
 62
0
 10
11.5
 20
-10.0
 30
0.0
 11
26.5
 21
-10.0
 31
0.0
  0
LINE
  8
dxf_2mm35
 62
0
 10
26.5
 20
-10.0
 30
0.0
 11
26.5
 21
-12.35
 31
0.0
  0
LINE
  8
dxf_2mm35
 62
0
 10
26.5
 20
-12.35
 30
0.0
 11
11.5
 21
-12.35
 31
0.0
  0
LINE
  8
dxf_2mm35
 62
0
 10
11.5
 20
-12.35
 30
0.0
 11
11.5
 21
-10.0
 31
0.0
  0
LINE
  8
dxf_2mm35
 62
0
 10
-18.5
 20
-10.0
 30
0.0
 11
-3.5
 21
-10.0
 31
0.0
  0
LINE
  8
dxf_2mm35
 62
0
 10
-3.5
 20
-10.0
 30
0.0
 11
-3.5
 21
-12.35
 31
0.0
  0
LINE
  8
dxf_2mm35
 62
0
 10
-3.5
 20
-12.35
 30
0.0
 11
-18.5
 21
-12.35
 31
0.0
  0
LINE
  8
dxf_2mm35
 62
0
 10
-18.5
 20
-12.35
 30
0.0
 11
-18.5
 21
-10.0
 31
0.0
  0
LINE
  8
dxf_2mm35
 62
0
 10
11.5
 20
12.35
 30
0.0
 11
26.5
 21
12.35
 31
0.0
  0
LINE
  8
dxf_2mm35
 62
0
 10
26.5
 20
12.35
 30
0.0
 11
26.5
 21
10.0
 31
0.0
  0
LINE
  8
dxf_2mm35
 62
0
 10
26.5
 20
10.0
 30
0.0
 11
11.5
 21
10.0
 31
0.0
  0
LINE
  8
dxf_2mm35
 62
0
 10
11.5
 20
10.0
 30
0.0
 11
11.5
 21
12.35
 31
0.0
  0
LINE
  8
dxf_2mm35
 62
0
 10
-18.5
 20
12.35
 30
0.0
 11
-3.5
 21
12.35
 31
0.0
  0
LINE
  8
dxf_2mm35
 62
0
 10
-3.5
 20
12.35
 30
0.0
 11
-3.5
 21
10.0
 31
0.0
  0
LINE
  8
dxf_2mm35
 62
0
 10
-3.5
 20
10.0
 30
0.0
 11
-18.5
 21
10.0
 31
0.0
  0
LINE
  8
dxf_2mm35
 62
0
 10
-18.5
 20
10.0
 30
0.0
 11
-18.5
 21
12.35
 31
0.0
  0
ENDBLK
  0
ENDSEC
  0
SECTION
  2
ENTITIES
  0
INSERT
  2
SHAPE2DVIEW022
  8
dxf_2mm35
 62
0
 10
0.0
 20
0.0
 30
0.0
  0
ENDSEC
  0
EOF
