  0
SECTION
  2
HEADER
  9
$ACADVER
  1
AC1009
  9
$INSBASE
 10
0.0
 20
0.0
 30
0.0
  9
$EXTMIN
 10
0.0
 20
0.0
 30
0.0
  9
$EXTMAX
 10
0.0
 20
0.0
 30
0.0
  0
ENDSEC
  0
SECTION
  2
TABLES
  0
TABLE
  2
VPORT
 70
0
  0
ENDTAB
  0
TABLE
  2
LTYPE
 70
1
  0
LTYPE
  2
CONTINUOUS
 70
0
  3
Solid line
 72
65
 73
0
 40
0.0
  0
ENDTAB
  0
TABLE
  2
LAYER
 70
1
  0
LAYER
  2
0
 70
64
 62
7
  6
continuous
  0
ENDTAB
  0
TABLE
  2
STYLE
 70
1
  0
STYLE
  2
STANDARD
 70
0
 40
0
 41
1.0
 50
0.0
 71
0
 42
1
 3
ARIAL.TTF
 4

  0
ENDTAB
  0
TABLE
  2
VIEW
 70
0
  0
ENDTAB
  0
ENDSEC
  0
SECTION
  2
BLOCKS
  0
BLOCK
  8
dxf_2mm35
  2
SHAPE2DVIEW029
 70
0
 10
0.0
 20
0.0
 30
0.0
  3
SHAPE2DVIEW029
  0
LINE
  8
dxf_2mm35
 62
0
 10
-61.7000015408
 20
-29.5
 30
0.0
 11
-61.7000015408
 21
-7.5
 31
0.0
  0
LINE
  8
dxf_2mm35
 62
0
 10
-61.7000015408
 20
-7.5
 30
0.0
 11
-59.3500015408
 21
-7.5
 31
0.0
  0
LINE
  8
dxf_2mm35
 62
0
 10
-59.3500015408
 20
-7.5
 30
0.0
 11
-59.3500015408
 21
7.5
 31
0.0
  0
LINE
  8
dxf_2mm35
 62
0
 10
-59.3500015408
 20
7.5
 30
0.0
 11
-61.7000015408
 21
7.5
 31
0.0
  0
LINE
  8
dxf_2mm35
 62
0
 10
-61.7000015408
 20
7.5
 30
0.0
 11
-61.7000015408
 21
27.5
 31
0.0
  0
LINE
  8
dxf_2mm35
 62
0
 10
-61.7000015408
 20
27.5
 30
0.0
 11
-66.7000015408
 21
27.5
 31
0.0
  0
LINE
  8
dxf_2mm35
 62
0
 10
-66.7000015408
 20
27.5
 30
0.0
 11
-66.7000015408
 21
25.15
 31
0.0
  0
LINE
  8
dxf_2mm35
 62
0
 10
-66.7000015408
 20
25.15
 30
0.0
 11
-71.7000015408
 21
25.15
 31
0.0
  0
LINE
  8
dxf_2mm35
 62
0
 10
-71.7000015408
 20
25.15
 30
0.0
 11
-71.7000015408
 21
27.5
 31
0.0
  0
LINE
  8
dxf_2mm35
 62
0
 10
-71.7000015408
 20
27.5
 30
0.0
 11
-76.7000015408
 21
27.5
 31
0.0
  0
LINE
  8
dxf_2mm35
 62
0
 10
-76.7000015408
 20
27.5
 30
0.0
 11
-76.7000015408
 21
25.15
 31
0.0
  0
LINE
  8
dxf_2mm35
 62
0
 10
-76.7000015408
 20
25.15
 30
0.0
 11
-81.7000015408
 21
25.15
 31
0.0
  0
LINE
  8
dxf_2mm35
 62
0
 10
-81.7000015408
 20
25.15
 30
0.0
 11
-81.7000015408
 21
-27.15
 31
0.0
  0
LINE
  8
dxf_2mm35
 62
0
 10
-81.7000015408
 20
-27.15
 30
0.0
 11
-76.7000015408
 21
-27.15
 31
0.0
  0
LINE
  8
dxf_2mm35
 62
0
 10
-76.7000015408
 20
-27.15
 30
0.0
 11
-76.7000015408
 21
-29.5
 31
0.0
  0
LINE
  8
dxf_2mm35
 62
0
 10
-76.7000015408
 20
-29.5
 30
0.0
 11
-71.7000015408
 21
-29.5
 31
0.0
  0
LINE
  8
dxf_2mm35
 62
0
 10
-71.7000015408
 20
-29.5
 30
0.0
 11
-71.7000015408
 21
-27.15
 31
0.0
  0
LINE
  8
dxf_2mm35
 62
0
 10
-71.7000015408
 20
-27.15
 30
0.0
 11
-66.7000015408
 21
-27.15
 31
0.0
  0
LINE
  8
dxf_2mm35
 62
0
 10
-66.7000015408
 20
-27.15
 30
0.0
 11
-66.7000015408
 21
-29.5
 31
0.0
  0
LINE
  8
dxf_2mm35
 62
0
 10
-66.7000015408
 20
-29.5
 30
0.0
 11
-61.7000015408
 21
-29.5
 31
0.0
  0
POLYLINE
  8
dxf_2mm35
 62
0
 70
0
 66
1
 10
0.0
 20
0.0
 30
0.0
  0
VERTEX
  8
dxf_2mm35
 10
-71.7000015408
 20
15.0
 30
0.0
  0
VERTEX
  8
dxf_2mm35
 10
-70.7245499307
 20
14.903926402
 30
0.0
  0
VERTEX
  8
dxf_2mm35
 10
-69.786584379
 20
14.6193976626
 30
0.0
  0
VERTEX
  8
dxf_2mm35
 10
-68.9221503757
 20
14.1573480615
 30
0.0
  0
VERTEX
  8
dxf_2mm35
 10
-68.1644676349
 20
13.5355339059
 30
0.0
  0
VERTEX
  8
dxf_2mm35
 10
-67.5426534793
 20
12.7778511651
 30
0.0
  0
VERTEX
  8
dxf_2mm35
 10
-67.0806038782
 20
11.9134171618
 30
0.0
  0
VERTEX
  8
dxf_2mm35
 10
-66.7960751388
 20
10.9754516101
 30
0.0
  0
VERTEX
  8
dxf_2mm35
 10
-66.7000015408
 20
10.0
 30
0.0
  0
VERTEX
  8
dxf_2mm35
 10
-66.7960751388
 20
9.02454838992
 30
0.0
  0
VERTEX
  8
dxf_2mm35
 10
-67.0806038782
 20
8.08658283817
 30
0.0
  0
VERTEX
  8
dxf_2mm35
 10
-67.5426534793
 20
7.2221488349
 30
0.0
  0
VERTEX
  8
dxf_2mm35
 10
-68.1644676349
 20
6.46446609407
 30
0.0
  0
VERTEX
  8
dxf_2mm35
 10
-68.9221503757
 20
5.84265193849
 30
0.0
  0
VERTEX
  8
dxf_2mm35
 10
-69.786584379
 20
5.38060233744
 30
0.0
  0
VERTEX
  8
dxf_2mm35
 10
-70.7245499307
 20
5.09607359798
 30
0.0
  0
VERTEX
  8
dxf_2mm35
 10
-71.7000015408
 20
5.0
 30
0.0
  0
VERTEX
  8
dxf_2mm35
 10
-72.6754531509
 20
5.09607359798
 30
0.0
  0
VERTEX
  8
dxf_2mm35
 10
-73.6134187026
 20
5.38060233744
 30
0.0
  0
VERTEX
  8
dxf_2mm35
 10
-74.4778527059
 20
5.84265193849
 30
0.0
  0
VERTEX
  8
dxf_2mm35
 10
-75.2355354467
 20
6.46446609407
 30
0.0
  0
VERTEX
  8
dxf_2mm35
 10
-75.8573496023
 20
7.2221488349
 30
0.0
  0
VERTEX
  8
dxf_2mm35
 10
-76.3193992033
 20
8.08658283817
 30
0.0
  0
VERTEX
  8
dxf_2mm35
 10
-76.6039279428
 20
9.02454838992
 30
0.0
  0
VERTEX
  8
dxf_2mm35
 10
-76.7000015408
 20
10.0
 30
0.0
  0
VERTEX
  8
dxf_2mm35
 10
-76.6039279428
 20
10.9754516101
 30
0.0
  0
VERTEX
  8
dxf_2mm35
 10
-76.3193992033
 20
11.9134171618
 30
0.0
  0
VERTEX
  8
dxf_2mm35
 10
-75.8573496023
 20
12.7778511651
 30
0.0
  0
VERTEX
  8
dxf_2mm35
 10
-75.2355354467
 20
13.5355339059
 30
0.0
  0
VERTEX
  8
dxf_2mm35
 10
-74.4778527059
 20
14.1573480615
 30
0.0
  0
VERTEX
  8
dxf_2mm35
 10
-73.6134187026
 20
14.6193976626
 30
0.0
  0
VERTEX
  8
dxf_2mm35
 10
-72.6754531509
 20
14.903926402
 30
0.0
  0
VERTEX
  8
dxf_2mm35
 10
-71.7000015408
 20
15.0
 30
0.0
  0
SEQEND
  8
dxf_2mm35
  0
POLYLINE
  8
dxf_2mm35
 62
0
 70
0
 66
1
 10
0.0
 20
0.0
 30
0.0
  0
VERTEX
  8
dxf_2mm35
 10
-71.7000015408
 20
-5.0
 30
0.0
  0
VERTEX
  8
dxf_2mm35
 10
-70.7245499307
 20
-5.09607359798
 30
0.0
  0
VERTEX
  8
dxf_2mm35
 10
-69.786584379
 20
-5.38060233744
 30
0.0
  0
VERTEX
  8
dxf_2mm35
 10
-68.9221503757
 20
-5.84265193849
 30
0.0
  0
VERTEX
  8
dxf_2mm35
 10
-68.1644676349
 20
-6.46446609407
 30
0.0
  0
VERTEX
  8
dxf_2mm35
 10
-67.5426534793
 20
-7.2221488349
 30
0.0
  0
VERTEX
  8
dxf_2mm35
 10
-67.0806038782
 20
-8.08658283817
 30
0.0
  0
VERTEX
  8
dxf_2mm35
 10
-66.7960751388
 20
-9.02454838992
 30
0.0
  0
VERTEX
  8
dxf_2mm35
 10
-66.7000015408
 20
-10.0
 30
0.0
  0
VERTEX
  8
dxf_2mm35
 10
-66.7960751388
 20
-10.9754516101
 30
0.0
  0
VERTEX
  8
dxf_2mm35
 10
-67.0806038782
 20
-11.9134171618
 30
0.0
  0
VERTEX
  8
dxf_2mm35
 10
-67.5426534793
 20
-12.7778511651
 30
0.0
  0
VERTEX
  8
dxf_2mm35
 10
-68.1644676349
 20
-13.5355339059
 30
0.0
  0
VERTEX
  8
dxf_2mm35
 10
-68.9221503757
 20
-14.1573480615
 30
0.0
  0
VERTEX
  8
dxf_2mm35
 10
-69.786584379
 20
-14.6193976626
 30
0.0
  0
VERTEX
  8
dxf_2mm35
 10
-70.7245499307
 20
-14.903926402
 30
0.0
  0
VERTEX
  8
dxf_2mm35
 10
-71.7000015408
 20
-15.0
 30
0.0
  0
VERTEX
  8
dxf_2mm35
 10
-72.6754531509
 20
-14.903926402
 30
0.0
  0
VERTEX
  8
dxf_2mm35
 10
-73.6134187026
 20
-14.6193976626
 30
0.0
  0
VERTEX
  8
dxf_2mm35
 10
-74.4778527059
 20
-14.1573480615
 30
0.0
  0
VERTEX
  8
dxf_2mm35
 10
-75.2355354467
 20
-13.5355339059
 30
0.0
  0
VERTEX
  8
dxf_2mm35
 10
-75.8573496023
 20
-12.7778511651
 30
0.0
  0
VERTEX
  8
dxf_2mm35
 10
-76.3193992033
 20
-11.9134171618
 30
0.0
  0
VERTEX
  8
dxf_2mm35
 10
-76.6039279428
 20
-10.9754516101
 30
0.0
  0
VERTEX
  8
dxf_2mm35
 10
-76.7000015408
 20
-10.0
 30
0.0
  0
VERTEX
  8
dxf_2mm35
 10
-76.6039279428
 20
-9.02454838992
 30
0.0
  0
VERTEX
  8
dxf_2mm35
 10
-76.3193992033
 20
-8.08658283817
 30
0.0
  0
VERTEX
  8
dxf_2mm35
 10
-75.8573496023
 20
-7.2221488349
 30
0.0
  0
VERTEX
  8
dxf_2mm35
 10
-75.2355354467
 20
-6.46446609407
 30
0.0
  0
VERTEX
  8
dxf_2mm35
 10
-74.4778527059
 20
-5.84265193849
 30
0.0
  0
VERTEX
  8
dxf_2mm35
 10
-73.6134187026
 20
-5.38060233744
 30
0.0
  0
VERTEX
  8
dxf_2mm35
 10
-72.6754531509
 20
-5.09607359798
 30
0.0
  0
VERTEX
  8
dxf_2mm35
 10
-71.7000015408
 20
-5.0
 30
0.0
  0
SEQEND
  8
dxf_2mm35
  0
ENDBLK
  0
ENDSEC
  0
SECTION
  2
ENTITIES
  0
INSERT
  2
SHAPE2DVIEW029
  8
dxf_2mm35
 62
0
 10
0.0
 20
0.0
 30
0.0
  0
ENDSEC
  0
EOF
