  0
SECTION
  2
HEADER
  9
$ACADVER
  1
AC1009
  9
$INSBASE
 10
0.0
 20
0.0
 30
0.0
  9
$EXTMIN
 10
0.0
 20
0.0
 30
0.0
  9
$EXTMAX
 10
0.0
 20
0.0
 30
0.0
  0
ENDSEC
  0
SECTION
  2
TABLES
  0
TABLE
  2
VPORT
 70
0
  0
ENDTAB
  0
TABLE
  2
LTYPE
 70
1
  0
LTYPE
  2
CONTINUOUS
 70
0
  3
Solid line
 72
65
 73
0
 40
0.0
  0
ENDTAB
  0
TABLE
  2
LAYER
 70
1
  0
LAYER
  2
0
 70
64
 62
7
  6
continuous
  0
ENDTAB
  0
TABLE
  2
STYLE
 70
1
  0
STYLE
  2
STANDARD
 70
0
 40
0
 41
1.0
 50
0.0
 71
0
 42
1
 3
ARIAL.TTF
 4

  0
ENDTAB
  0
TABLE
  2
VIEW
 70
0
  0
ENDTAB
  0
ENDSEC
  0
SECTION
  2
BLOCKS
  0
BLOCK
  8
0
  2
SHAPE2DVIEW018
 70
0
 10
0.0
 20
0.0
 30
0.0
  3
SHAPE2DVIEW018
  0
LINE
  8
0
 62
0
 10
-55.4337559847
 20
-18.5
 30
0.0
 11
-55.4337559847
 21
-33.5
 31
0.0
  0
LINE
  8
0
 62
0
 10
-55.4337559847
 20
-33.5
 30
0.0
 11
-38.9337559847
 21
-33.5
 31
0.0
  0
LINE
  8
0
 62
0
 10
-38.9337559847
 20
-33.5
 30
0.0
 11
-38.9337559847
 21
-36.0
 31
0.0
  0
LINE
  8
0
 62
0
 10
-38.9337559847
 20
-36.0
 30
0.0
 11
-23.9337559847
 21
-36.0
 31
0.0
  0
LINE
  8
0
 62
0
 10
-23.9337559847
 20
-36.0
 30
0.0
 11
-23.9337559847
 21
-33.5
 31
0.0
  0
LINE
  8
0
 62
0
 10
-23.9337559847
 20
-33.5
 30
0.0
 11
-8.93375598465
 21
-33.5
 31
0.0
  0
LINE
  8
0
 62
0
 10
-8.93375598465
 20
-33.5
 30
0.0
 11
-8.93375598465
 21
-36.0
 31
0.0
  0
LINE
  8
0
 62
0
 10
-8.93375598465
 20
-36.0
 30
0.0
 11
6.06624401535
 21
-36.0
 31
0.0
  0
LINE
  8
0
 62
0
 10
6.06624401535
 20
-36.0
 30
0.0
 11
15.5000007451
 21
-26.5
 31
0.0
  0
LINE
  8
0
 62
0
 10
15.5000007451
 20
-26.5
 30
0.0
 11
23.5000007451
 21
-26.5
 31
0.0
  0
LINE
  8
0
 62
0
 10
23.5000007451
 20
-26.5
 30
0.0
 11
23.5000007451
 21
-24.0
 31
0.0
  0
LINE
  8
0
 62
0
 10
23.5000007451
 20
-24.0
 30
0.0
 11
43.5000007451
 21
-24.0
 31
0.0
  0
LINE
  8
0
 62
0
 10
43.5000007451
 20
-24.0
 30
0.0
 11
43.5000007451
 21
-26.5
 31
0.0
  0
LINE
  8
0
 62
0
 10
43.5000007451
 20
-26.5
 30
0.0
 11
56.5000007451
 21
-26.5
 31
0.0
  0
LINE
  8
0
 62
0
 10
56.5000007451
 20
-26.5
 30
0.0
 11
56.5000007451
 21
-15.0
 31
0.0
  0
LINE
  8
0
 62
0
 10
56.5000007451
 20
-15.0
 30
0.0
 11
59.0000007451
 21
-15.0
 31
0.0
  0
LINE
  8
0
 62
0
 10
59.0000007451
 20
-15.0
 30
0.0
 11
59.0000007451
 21
0.0
 31
0.0
  0
LINE
  8
0
 62
0
 10
59.0000007451
 20
0.0
 30
0.0
 11
48.0000007451
 21
11.0
 31
0.0
  0
LINE
  8
0
 62
0
 10
48.0000007451
 20
11.0
 30
0.0
 11
48.0000007451
 21
44.0
 31
0.0
  0
LINE
  8
0
 62
0
 10
48.0000007451
 20
44.0
 30
0.0
 11
45.0000007451
 21
47.0
 31
0.0
  0
LINE
  8
0
 62
0
 10
45.0000007451
 20
47.0
 30
0.0
 11
31.0000007451
 21
47.0
 31
0.0
  0
LINE
  8
0
 62
0
 10
31.0000007451
 20
47.0
 30
0.0
 11
16.5662440153
 21
22.0
 31
0.0
  0
LINE
  8
0
 62
0
 10
16.5662440153
 20
22.0
 30
0.0
 11
-13.4337559847
 21
22.0
 31
0.0
  0
LINE
  8
0
 62
0
 10
-13.4337559847
 20
22.0
 30
0.0
 11
-38.4337559847
 21
47.0
 31
0.0
  0
LINE
  8
0
 62
0
 10
-38.4337559847
 20
47.0
 30
0.0
 11
-55.4337559847
 21
47.0
 31
0.0
  0
LINE
  8
0
 62
0
 10
-55.4337559847
 20
47.0
 30
0.0
 11
-55.4337559847
 21
26.5
 31
0.0
  0
LINE
  8
0
 62
0
 10
-57.9337559847
 20
26.5
 30
0.0
 11
-55.4337559847
 21
26.5
 31
0.0
  0
LINE
  8
0
 62
0
 10
-57.9337559847
 20
11.5
 30
0.0
 11
-57.9337559847
 21
26.5
 31
0.0
  0
LINE
  8
0
 62
0
 10
-55.4337559847
 20
11.5
 30
0.0
 11
-57.9337559847
 21
11.5
 31
0.0
  0
LINE
  8
0
 62
0
 10
-55.4337559847
 20
11.5
 30
0.0
 11
-55.4337559847
 21
-3.5
 31
0.0
  0
LINE
  8
0
 62
0
 10
-57.9337559847
 20
-3.5
 30
0.0
 11
-55.4337559847
 21
-3.5
 31
0.0
  0
LINE
  8
0
 62
0
 10
-57.9337559847
 20
-18.5
 30
0.0
 11
-57.9337559847
 21
-3.5
 31
0.0
  0
LINE
  8
0
 62
0
 10
-55.4337559847
 20
-18.5
 30
0.0
 11
-57.9337559847
 21
-18.5
 31
0.0
  0
POLYLINE
  8
0
 62
0
 70
0
 66
1
 10
0.0
 20
0.0
 30
0.0
  0
VERTEX
  8
0
 10
-21.9999992549
 20
10.0
 30
0.0
  0
VERTEX
  8
0
 10
-26.8563411358
 20
9.33251117226
 30
0.0
  0
VERTEX
  8
0
 10
-31.3525103556
 20
7.37954928184
 30
0.0
  0
VERTEX
  8
0
 10
-35.1550466119
 20
4.28595657794
 30
0.0
  0
VERTEX
  8
0
 10
-37.9819331862
 20
0.281170679161
 30
0.0
  0
VERTEX
  8
0
 10
-39.6235128332
 20
-4.33779176505
 30
0.0
  0
VERTEX
  8
0
 10
-39.9580371004
 20
-9.22836344056
 30
0.0
  0
VERTEX
  8
0
 10
-38.9606958531
 20
-14.0278330191
 30
0.0
  0
VERTEX
  8
0
 10
-36.7054573291
 20
-18.3802457981
 30
0.0
  0
VERTEX
  8
0
 10
-33.3595822528
 20
-21.9628032327
 30
0.0
  0
VERTEX
  8
0
 10
-29.1712188722
 20
-24.5098034271
 30
0.0
  0
VERTEX
  8
0
 10
-24.4509989387
 20
-25.8323470287
 30
0.0
  0
VERTEX
  8
0
 10
-19.5489995712
 20
-25.8323470287
 30
0.0
  0
VERTEX
  8
0
 10
-14.8287796377
 20
-24.5098034271
 30
0.0
  0
VERTEX
  8
0
 10
-10.6404162571
 20
-21.9628032327
 30
0.0
  0
VERTEX
  8
0
 10
-7.29454118075
 20
-18.3802457981
 30
0.0
  0
VERTEX
  8
0
 10
-5.0393026568
 20
-14.0278330191
 30
0.0
  0
VERTEX
  8
0
 10
-4.04196140951
 20
-9.22836344056
 30
0.0
  0
VERTEX
  8
0
 10
-4.37648567666
 20
-4.33779176505
 30
0.0
  0
VERTEX
  8
0
 10
-6.0180653237
 20
0.281170679161
 30
0.0
  0
VERTEX
  8
0
 10
-8.84495189794
 20
4.28595657794
 30
0.0
  0
VERTEX
  8
0
 10
-12.6474881543
 20
7.37954928184
 30
0.0
  0
VERTEX
  8
0
 10
-17.1436573741
 20
9.33251117226
 30
0.0
  0
VERTEX
  8
0
 10
-21.9999992549
 20
10.0
 30
0.0
  0
SEQEND
  8
0
  0
POLYLINE
  8
0
 62
0
 70
0
 66
1
 10
0.0
 20
0.0
 30
0.0
  0
VERTEX
  8
0
 10
14.0000007451
 20
1.0
 30
0.0
  0
VERTEX
  8
0
 10
9.50000074506
 20
-0.20577136594
 30
0.0
  0
VERTEX
  8
0
 10
6.205772111
 20
-3.5
 30
0.0
  0
VERTEX
  8
0
 10
5.00000074506
 20
-8.0
 30
0.0
  0
VERTEX
  8
0
 10
6.205772111
 20
-12.5
 30
0.0
  0
VERTEX
  8
0
 10
9.50000074506
 20
-15.7942286341
 30
0.0
  0
VERTEX
  8
0
 10
14.0000007451
 20
-17.0
 30
0.0
  0
VERTEX
  8
0
 10
18.5000007451
 20
-15.7942286341
 30
0.0
  0
VERTEX
  8
0
 10
21.7942293791
 20
-12.5
 30
0.0
  0
VERTEX
  8
0
 10
23.0000007451
 20
-8.0
 30
0.0
  0
VERTEX
  8
0
 10
21.7942293791
 20
-3.5
 30
0.0
  0
VERTEX
  8
0
 10
18.5000007451
 20
-0.20577136594
 30
0.0
  0
VERTEX
  8
0
 10
14.0000007451
 20
1.0
 30
0.0
  0
SEQEND
  8
0
  0
LINE
  8
0
 62
0
 10
5.00000074506
 20
10.0
 30
0.0
 11
5.00000074506
 21
12.5
 31
0.0
  0
LINE
  8
0
 62
0
 10
5.00000074506
 20
12.5
 30
0.0
 11
10.0000007451
 21
12.5
 31
0.0
  0
LINE
  8
0
 62
0
 10
10.0000007451
 20
12.5
 30
0.0
 11
10.0000007451
 21
10.0
 31
0.0
  0
LINE
  8
0
 62
0
 10
10.0000007451
 20
10.0
 30
0.0
 11
5.00000074506
 21
10.0
 31
0.0
  0
LINE
  8
0
 62
0
 10
38.4000007451
 20
-18.3
 30
0.0
 11
38.4000007451
 21
-13.3
 31
0.0
  0
LINE
  8
0
 62
0
 10
38.4000007451
 20
-13.3
 30
0.0
 11
40.9000007451
 21
-13.3
 31
0.0
  0
LINE
  8
0
 62
0
 10
40.9000007451
 20
-13.3
 30
0.0
 11
40.9000007451
 21
-18.3
 31
0.0
  0
LINE
  8
0
 62
0
 10
40.9000007451
 20
-18.3
 30
0.0
 11
38.4000007451
 21
-18.3
 31
0.0
  0
LINE
  8
0
 62
0
 10
38.4000007451
 20
37.1
 30
0.0
 11
38.4000007451
 21
42.1
 31
0.0
  0
LINE
  8
0
 62
0
 10
38.4000007451
 20
42.1
 30
0.0
 11
40.9000007451
 21
42.1
 31
0.0
  0
LINE
  8
0
 62
0
 10
40.9000007451
 20
42.1
 30
0.0
 11
40.9000007451
 21
37.1
 31
0.0
  0
LINE
  8
0
 62
0
 10
40.9000007451
 20
37.1
 30
0.0
 11
38.4000007451
 21
37.1
 31
0.0
  0
LINE
  8
0
 62
0
 10
-50.3999992549
 20
10.0
 30
0.0
 11
-50.3999992549
 21
12.5
 31
0.0
  0
LINE
  8
0
 62
0
 10
-50.3999992549
 20
12.5
 30
0.0
 11
-45.3999992549
 21
12.5
 31
0.0
  0
LINE
  8
0
 62
0
 10
-45.3999992549
 20
12.5
 30
0.0
 11
-45.3999992549
 21
10.0
 31
0.0
  0
LINE
  8
0
 62
0
 10
-45.3999992549
 20
10.0
 30
0.0
 11
-50.3999992549
 21
10.0
 31
0.0
  0
ENDBLK
  0
ENDSEC
  0
SECTION
  2
ENTITIES
  0
INSERT
  2
SHAPE2DVIEW018
  8
0
 62
0
 10
0.0
 20
0.0
 30
0.0
  0
ENDSEC
  0
EOF
