  0
SECTION
  2
HEADER
  9
$ACADVER
  1
AC1009
  9
$INSBASE
 10
0.0
 20
0.0
 30
0.0
  9
$EXTMIN
 10
0.0
 20
0.0
 30
0.0
  9
$EXTMAX
 10
0.0
 20
0.0
 30
0.0
  0
ENDSEC
  0
SECTION
  2
TABLES
  0
TABLE
  2
VPORT
 70
0
  0
ENDTAB
  0
TABLE
  2
LTYPE
 70
1
  0
LTYPE
  2
CONTINUOUS
 70
0
  3
Solid line
 72
65
 73
0
 40
0.0
  0
ENDTAB
  0
TABLE
  2
LAYER
 70
1
  0
LAYER
  2
0
 70
64
 62
7
  6
continuous
  0
ENDTAB
  0
TABLE
  2
STYLE
 70
1
  0
STYLE
  2
STANDARD
 70
0
 40
0
 41
1.0
 50
0.0
 71
0
 42
1
 3
ARIAL.TTF
 4

  0
ENDTAB
  0
TABLE
  2
VIEW
 70
0
  0
ENDTAB
  0
ENDSEC
  0
SECTION
  2
BLOCKS
  0
BLOCK
  8
0
  2
SHAPE2DVIEW001
 70
0
 10
0.0
 20
0.0
 30
0.0
  3
SHAPE2DVIEW001
  0
LINE
  8
0
 62
0
 10
-55.4337573258
 20
-18.5
 30
0.0
 11
-55.4337573258
 21
-33.5
 31
0.0
  0
LINE
  8
0
 62
0
 10
-55.4337573258
 20
-33.5
 30
0.0
 11
-38.9337573258
 21
-33.5
 31
0.0
  0
LINE
  8
0
 62
0
 10
-38.9337573258
 20
-33.5
 30
0.0
 11
-38.9337573258
 21
-36.0
 31
0.0
  0
LINE
  8
0
 62
0
 10
-38.9337573258
 20
-36.0
 30
0.0
 11
-23.9337573258
 21
-36.0
 31
0.0
  0
LINE
  8
0
 62
0
 10
-23.9337573258
 20
-36.0
 30
0.0
 11
-23.9337573258
 21
-33.5
 31
0.0
  0
LINE
  8
0
 62
0
 10
-23.9337573258
 20
-33.5
 30
0.0
 11
-8.93375732578
 21
-33.5
 31
0.0
  0
LINE
  8
0
 62
0
 10
-8.93375732578
 20
-33.5
 30
0.0
 11
-8.93375732578
 21
-36.0
 31
0.0
  0
LINE
  8
0
 62
0
 10
-8.93375732578
 20
-36.0
 30
0.0
 11
6.06624267422
 21
-36.0
 31
0.0
  0
LINE
  8
0
 62
0
 10
6.06624267422
 20
-36.0
 30
0.0
 11
15.499999404
 21
-26.5
 31
0.0
  0
LINE
  8
0
 62
0
 10
15.499999404
 20
-26.5
 30
0.0
 11
23.499999404
 21
-26.5
 31
0.0
  0
LINE
  8
0
 62
0
 10
23.499999404
 20
-26.5
 30
0.0
 11
23.499999404
 21
-24.0
 31
0.0
  0
LINE
  8
0
 62
0
 10
23.499999404
 20
-24.0
 30
0.0
 11
43.499999404
 21
-24.0
 31
0.0
  0
LINE
  8
0
 62
0
 10
43.499999404
 20
-24.0
 30
0.0
 11
43.499999404
 21
-26.5
 31
0.0
  0
LINE
  8
0
 62
0
 10
43.499999404
 20
-26.5
 30
0.0
 11
56.499999404
 21
-26.5
 31
0.0
  0
LINE
  8
0
 62
0
 10
56.499999404
 20
-26.5
 30
0.0
 11
56.499999404
 21
-15.0
 31
0.0
  0
LINE
  8
0
 62
0
 10
56.499999404
 20
-15.0
 30
0.0
 11
58.999999404
 21
-15.0
 31
0.0
  0
LINE
  8
0
 62
0
 10
58.999999404
 20
-15.0
 30
0.0
 11
58.999999404
 21
0.0
 31
0.0
  0
LINE
  8
0
 62
0
 10
58.999999404
 20
0.0
 30
0.0
 11
47.999999404
 21
11.0
 31
0.0
  0
LINE
  8
0
 62
0
 10
47.999999404
 20
11.0
 30
0.0
 11
47.999999404
 21
44.0
 31
0.0
  0
LINE
  8
0
 62
0
 10
47.999999404
 20
44.0
 30
0.0
 11
44.999999404
 21
47.0
 31
0.0
  0
LINE
  8
0
 62
0
 10
44.999999404
 20
47.0
 30
0.0
 11
30.999999404
 21
47.0
 31
0.0
  0
LINE
  8
0
 62
0
 10
30.999999404
 20
47.0
 30
0.0
 11
16.5662426742
 21
22.0
 31
0.0
  0
LINE
  8
0
 62
0
 10
16.5662426742
 20
22.0
 30
0.0
 11
-13.4337573258
 21
22.0
 31
0.0
  0
LINE
  8
0
 62
0
 10
-13.4337573258
 20
22.0
 30
0.0
 11
-38.4337573258
 21
47.0
 31
0.0
  0
LINE
  8
0
 62
0
 10
-38.4337573258
 20
47.0
 30
0.0
 11
-55.4337573258
 21
47.0
 31
0.0
  0
LINE
  8
0
 62
0
 10
-55.4337573258
 20
47.0
 30
0.0
 11
-55.4337573258
 21
26.5
 31
0.0
  0
LINE
  8
0
 62
0
 10
-57.9337573258
 20
26.5
 30
0.0
 11
-55.4337573258
 21
26.5
 31
0.0
  0
LINE
  8
0
 62
0
 10
-57.9337573258
 20
11.5
 30
0.0
 11
-57.9337573258
 21
26.5
 31
0.0
  0
LINE
  8
0
 62
0
 10
-55.4337573258
 20
11.5
 30
0.0
 11
-57.9337573258
 21
11.5
 31
0.0
  0
LINE
  8
0
 62
0
 10
-55.4337573258
 20
11.5
 30
0.0
 11
-55.4337573258
 21
-3.5
 31
0.0
  0
LINE
  8
0
 62
0
 10
-57.9337573258
 20
-3.5
 30
0.0
 11
-55.4337573258
 21
-3.5
 31
0.0
  0
LINE
  8
0
 62
0
 10
-57.9337573258
 20
-18.5
 30
0.0
 11
-57.9337573258
 21
-3.5
 31
0.0
  0
LINE
  8
0
 62
0
 10
-55.4337573258
 20
-18.5
 30
0.0
 11
-57.9337573258
 21
-18.5
 31
0.0
  0
POLYLINE
  8
0
 62
0
 70
0
 66
1
 10
0.0
 20
0.0
 30
0.0
  0
VERTEX
  8
0
 10
-22.000000596
 20
10.0
 30
0.0
  0
VERTEX
  8
0
 10
-26.8563424769
 20
9.33251117226
 30
0.0
  0
VERTEX
  8
0
 10
-31.3525116967
 20
7.37954928184
 30
0.0
  0
VERTEX
  8
0
 10
-35.1550479531
 20
4.28595657794
 30
0.0
  0
VERTEX
  8
0
 10
-37.9819345273
 20
0.281170679161
 30
0.0
  0
VERTEX
  8
0
 10
-39.6235141743
 20
-4.33779176505
 30
0.0
  0
VERTEX
  8
0
 10
-39.9580384415
 20
-9.22836344056
 30
0.0
  0
VERTEX
  8
0
 10
-38.9606971942
 20
-14.0278330191
 30
0.0
  0
VERTEX
  8
0
 10
-36.7054586702
 20
-18.3802457981
 30
0.0
  0
VERTEX
  8
0
 10
-33.3595835939
 20
-21.9628032327
 30
0.0
  0
VERTEX
  8
0
 10
-29.1712202133
 20
-24.5098034271
 30
0.0
  0
VERTEX
  8
0
 10
-24.4510002798
 20
-25.8323470287
 30
0.0
  0
VERTEX
  8
0
 10
-19.5490009123
 20
-25.8323470287
 30
0.0
  0
VERTEX
  8
0
 10
-14.8287809788
 20
-24.5098034271
 30
0.0
  0
VERTEX
  8
0
 10
-10.6404175982
 20
-21.9628032327
 30
0.0
  0
VERTEX
  8
0
 10
-7.29454252186
 20
-18.3802457981
 30
0.0
  0
VERTEX
  8
0
 10
-5.03930399791
 20
-14.0278330191
 30
0.0
  0
VERTEX
  8
0
 10
-4.04196275062
 20
-9.22836344056
 30
0.0
  0
VERTEX
  8
0
 10
-4.37648701776
 20
-4.33779176505
 30
0.0
  0
VERTEX
  8
0
 10
-6.0180666648
 20
0.281170679161
 30
0.0
  0
VERTEX
  8
0
 10
-8.84495323904
 20
4.28595657794
 30
0.0
  0
VERTEX
  8
0
 10
-12.6474894954
 20
7.37954928184
 30
0.0
  0
VERTEX
  8
0
 10
-17.1436587152
 20
9.33251117226
 30
0.0
  0
VERTEX
  8
0
 10
-22.000000596
 20
10.0
 30
0.0
  0
SEQEND
  8
0
  0
POLYLINE
  8
0
 62
0
 70
0
 66
1
 10
0.0
 20
0.0
 30
0.0
  0
VERTEX
  8
0
 10
13.999999404
 20
1.0
 30
0.0
  0
VERTEX
  8
0
 10
9.49999940395
 20
-0.20577136594
 30
0.0
  0
VERTEX
  8
0
 10
6.20577076989
 20
-3.5
 30
0.0
  0
VERTEX
  8
0
 10
4.99999940395
 20
-8.0
 30
0.0
  0
VERTEX
  8
0
 10
6.20577076989
 20
-12.5
 30
0.0
  0
VERTEX
  8
0
 10
9.49999940395
 20
-15.7942286341
 30
0.0
  0
VERTEX
  8
0
 10
13.999999404
 20
-17.0
 30
0.0
  0
VERTEX
  8
0
 10
18.499999404
 20
-15.7942286341
 30
0.0
  0
VERTEX
  8
0
 10
21.794228038
 20
-12.5
 30
0.0
  0
VERTEX
  8
0
 10
22.999999404
 20
-8.0
 30
0.0
  0
VERTEX
  8
0
 10
21.794228038
 20
-3.5
 30
0.0
  0
VERTEX
  8
0
 10
18.499999404
 20
-0.20577136594
 30
0.0
  0
VERTEX
  8
0
 10
13.999999404
 20
1.0
 30
0.0
  0
SEQEND
  8
0
  0
LINE
  8
0
 62
0
 10
38.399999404
 20
-18.3
 30
0.0
 11
38.399999404
 21
-13.3
 31
0.0
  0
LINE
  8
0
 62
0
 10
38.399999404
 20
-13.3
 30
0.0
 11
40.899999404
 21
-13.3
 31
0.0
  0
LINE
  8
0
 62
0
 10
40.899999404
 20
-13.3
 30
0.0
 11
40.899999404
 21
-18.3
 31
0.0
  0
LINE
  8
0
 62
0
 10
40.899999404
 20
-18.3
 30
0.0
 11
38.399999404
 21
-18.3
 31
0.0
  0
LINE
  8
0
 62
0
 10
4.99999940395
 20
10.0
 30
0.0
 11
4.99999940395
 21
12.5
 31
0.0
  0
LINE
  8
0
 62
0
 10
4.99999940395
 20
12.5
 30
0.0
 11
9.99999940395
 21
12.5
 31
0.0
  0
LINE
  8
0
 62
0
 10
9.99999940395
 20
12.5
 30
0.0
 11
9.99999940395
 21
10.0
 31
0.0
  0
LINE
  8
0
 62
0
 10
9.99999940395
 20
10.0
 30
0.0
 11
4.99999940395
 21
10.0
 31
0.0
  0
LINE
  8
0
 62
0
 10
38.399999404
 20
37.1
 30
0.0
 11
38.399999404
 21
42.1
 31
0.0
  0
LINE
  8
0
 62
0
 10
38.399999404
 20
42.1
 30
0.0
 11
40.899999404
 21
42.1
 31
0.0
  0
LINE
  8
0
 62
0
 10
40.899999404
 20
42.1
 30
0.0
 11
40.899999404
 21
37.1
 31
0.0
  0
LINE
  8
0
 62
0
 10
40.899999404
 20
37.1
 30
0.0
 11
38.399999404
 21
37.1
 31
0.0
  0
LINE
  8
0
 62
0
 10
-50.400000596
 20
10.0
 30
0.0
 11
-50.400000596
 21
12.5
 31
0.0
  0
LINE
  8
0
 62
0
 10
-50.400000596
 20
12.5
 30
0.0
 11
-45.400000596
 21
12.5
 31
0.0
  0
LINE
  8
0
 62
0
 10
-45.400000596
 20
12.5
 30
0.0
 11
-45.400000596
 21
10.0
 31
0.0
  0
LINE
  8
0
 62
0
 10
-45.400000596
 20
10.0
 30
0.0
 11
-50.400000596
 21
10.0
 31
0.0
  0
ENDBLK
  0
ENDSEC
  0
SECTION
  2
ENTITIES
  0
INSERT
  2
SHAPE2DVIEW001
  8
0
 62
0
 10
0.0
 20
0.0
 30
0.0
  0
ENDSEC
  0
EOF
