  0
SECTION
  2
HEADER
  9
$ACADVER
  1
AC1009
  9
$INSBASE
 10
0.0
 20
0.0
 30
0.0
  9
$EXTMIN
 10
0.0
 20
0.0
 30
0.0
  9
$EXTMAX
 10
0.0
 20
0.0
 30
0.0
  0
ENDSEC
  0
SECTION
  2
TABLES
  0
TABLE
  2
VPORT
 70
0
  0
ENDTAB
  0
TABLE
  2
LTYPE
 70
1
  0
LTYPE
  2
CONTINUOUS
 70
0
  3
Solid line
 72
65
 73
0
 40
0.0
  0
ENDTAB
  0
TABLE
  2
LAYER
 70
1
  0
LAYER
  2
0
 70
64
 62
7
  6
continuous
  0
ENDTAB
  0
TABLE
  2
STYLE
 70
1
  0
STYLE
  2
STANDARD
 70
0
 40
0
 41
1.0
 50
0.0
 71
0
 42
1
 3
ARIAL.TTF
 4

  0
ENDTAB
  0
TABLE
  2
VIEW
 70
0
  0
ENDTAB
  0
ENDSEC
  0
SECTION
  2
BLOCKS
  0
BLOCK
  8
0
  2
SHAPE2DVIEW006
 70
0
 10
0.0
 20
0.0
 30
0.0
  3
SHAPE2DVIEW006
  0
LINE
  8
0
 62
0
 10
21.765678294
 20
-11.4334717982
 30
0.0
 11
27.3751985362
 21
-26.2272849503
 31
0.0
  0
ARC
  8
0
 62
0
 10
22.7
 20
-28.0
 30
0.0
 40
5.0
 50
-159.234560879
 51
20.7654391209
  0
LINE
  8
0
 62
0
 10
18.0248014638
 20
-29.7727150497
 30
0.0
 11
8.51722136601
 21
-4.88352231686
 31
0.0
  0
ARC
  8
0
 62
0
 10
22.7
 20
0.0
 30
0.0
 40
15.0
 50
161.0
 51
-161.0
  0
LINE
  8
0
 62
0
 10
8.51722136601
 20
4.88352231686
 30
0.0
 11
18.0248014638
 21
29.7727150497
 31
0.0
  0
ARC
  8
0
 62
0
 10
22.7
 20
28.0
 30
0.0
 40
5.0
 50
-20.7654391209
 51
159.234560879
  0
LINE
  8
0
 62
0
 10
21.765678294
 20
11.4334717982
 30
0.0
 11
27.3751985362
 21
26.2272849503
 31
0.0
  0
ARC
  8
0
 62
0
 10
25.5
 20
10.0
 30
0.0
 40
4.0
 50
159.0
 51
-90.0
  0
LINE
  8
0
 62
0
 10
32.0
 20
6.0
 30
0.0
 11
25.5
 21
6.0
 31
0.0
  0
ARC
  8
0
 62
0
 10
32.0
 20
0.0
 30
0.0
 40
6.0
 50
-90.0
 51
90.0
  0
LINE
  8
0
 62
0
 10
32.0
 20
-6.0
 30
0.0
 11
25.5
 21
-6.0
 31
0.0
  0
ARC
  8
0
 62
0
 10
25.5
 20
-10.0
 30
0.0
 40
4.0
 50
90.0
 51
-159.0
  0
CIRCLE
  8
0
 62
0
 10
22.7
 20
0.0
 30
0.0
 40
1.0
  0
CIRCLE
  8
0
 62
0
 10
22.7
 20
28.0
 30
0.0
 40
0.25
  0
CIRCLE
  8
0
 62
0
 10
22.7
 20
-28.0
 30
0.0
 40
0.25
  0
LINE
  8
0
 62
0
 10
-29.5
 20
6.0
 30
0.0
 11
-29.5
 21
30.0
 31
0.0
  0
LINE
  8
0
 62
0
 10
-29.5
 20
30.0
 30
0.0
 11
-26.5
 21
33.0
 31
0.0
  0
LINE
  8
0
 62
0
 10
-26.5
 20
33.0
 30
0.0
 11
-22.5
 21
33.0
 31
0.0
  0
LINE
  8
0
 62
0
 10
-22.5
 20
33.0
 30
0.0
 11
-19.5
 21
30.0
 31
0.0
  0
LINE
  8
0
 62
0
 10
-19.5
 20
30.0
 30
0.0
 11
-19.5
 21
6.0
 31
0.0
  0
ARC
  8
0
 62
0
 10
-24.5
 20
6.0
 30
0.0
 40
5.0
 50
180.0
 51
-0.0
  0
CIRCLE
  8
0
 62
0
 10
-24.5
 20
6.0
 30
0.0
 40
0.25
  0
CIRCLE
  8
0
 62
0
 10
-24.5
 20
28.0
 30
0.0
 40
0.25
  0
LINE
  8
0
 62
0
 10
-29.5
 20
-6.0
 30
0.0
 11
-29.5
 21
-30.0
 31
0.0
  0
LINE
  8
0
 62
0
 10
-29.5
 20
-30.0
 30
0.0
 11
-26.5
 21
-33.0
 31
0.0
  0
LINE
  8
0
 62
0
 10
-26.5
 20
-33.0
 30
0.0
 11
-22.5
 21
-33.0
 31
0.0
  0
LINE
  8
0
 62
0
 10
-22.5
 20
-33.0
 30
0.0
 11
-19.5
 21
-30.0
 31
0.0
  0
LINE
  8
0
 62
0
 10
-19.5
 20
-30.0
 30
0.0
 11
-19.5
 21
-6.0
 31
0.0
  0
ARC
  8
0
 62
0
 10
-24.5
 20
-6.0
 30
0.0
 40
5.0
 50
-0.0
 51
180.0
  0
CIRCLE
  8
0
 62
0
 10
-24.5
 20
-6.0
 30
0.0
 40
0.25
  0
CIRCLE
  8
0
 62
0
 10
-24.5
 20
-28.0
 30
0.0
 40
0.25
  0
ENDBLK
  0
ENDSEC
  0
SECTION
  2
ENTITIES
  0
INSERT
  2
SHAPE2DVIEW006
  8
0
 62
0
 10
0.0
 20
0.0
 30
0.0
  0
ENDSEC
  0
EOF
