<?xml version="1.0" encoding="UTF-8" standalone="no"?>
<svg
   xmlns:dc="http://purl.org/dc/elements/1.1/"
   xmlns:cc="http://creativecommons.org/ns#"
   xmlns:rdf="http://www.w3.org/1999/02/22-rdf-syntax-ns#"
   xmlns:svg="http://www.w3.org/2000/svg"
   xmlns="http://www.w3.org/2000/svg"
   id="svg42"
   viewBox="0 0 2548.8899 2788.9021"
   height="2788.9021mm"
   width="2548.8899mm"
   version="1.1">
  <metadata
     id="metadata46">
    <rdf:RDF>
      <cc:Work
         rdf:about="">
        <dc:format>image/svg+xml</dc:format>
        <dc:type
           rdf:resource="http://purl.org/dc/dcmitype/StillImage" />
        <dc:title></dc:title>
      </cc:Work>
    </rdf:RDF>
  </metadata>
  <!-- Working space 0 0 210 297 -->
  <defs
     id="defs12">
    <radialGradient
       r="19.570999"
       gradientTransform="matrix(0.14777,0.23089,-0.2468,0.15795,-26.318,-62.617)"
       cx="282.64999"
       cy="29.149"
       gradientUnits="userSpaceOnUse"
       id="radialGradient3661">
      <stop
         id="stop2"
         offset="0"
         stop-color="#71b2f8" />
      <stop
         id="stop4"
         offset="1"
         stop-color="#002795" />
    </radialGradient>
    <radialGradient
       r="19.570999"
       gradientTransform="matrix(0.26631,0.065024,-0.17931,0.73438,-60.668,-36.938)"
       cx="270.57999"
       cy="33.900002"
       gradientUnits="userSpaceOnUse"
       id="radialGradient3817">
      <stop
         id="stop7"
         offset="0"
         stop-color="#ff6d0f" />
      <stop
         id="stop9"
         offset="1"
         stop-color="#ff1000" />
    </radialGradient>
  </defs>
  <!-- Set display:none to hide FreeCAD Logo -->
  <g
     transform="matrix(0,-25.4,25.4,0,1274.445,549.25715)"
     id="Ortho_0_0">
    <g
       style="fill:none;stroke:#000000;stroke-width:0.34999999;stroke-linecap:butt;stroke-linejoin:miter"
       id="g39"
       transform="scale(1,-1)">
      <path
         d="M 15.4493,50 H -82"
         id="1" />
      <path
         id="path20"
         d="m -82,50 a 6,6 0 0 1 0,-12" />
      <path
         d="M -82,38 H 15.4493"
         id="3" />
      <path
         id="path23"
         d="m 15.4493,38 a 6,6 0 0 1 0,12" />
      <circle
         id="circle25"
         r="0.5"
         cy="44"
         cx="15.4493" />
      <circle
         id="circle27"
         r="0.5"
         cy="44"
         cx="-82" />
      <path
         d="M 15.4493,-38 H -82"
         id="7" />
      <path
         id="path30"
         d="m -82,-38 a 6,6 0 0 1 0,-12" />
      <path
         d="M -82,-50 H 15.4493"
         id="9" />
      <path
         id="path33"
         d="m 15.4493,-50 a 6,6 0 0 1 0,12" />
      <circle
         id="circle35"
         r="0.5"
         cy="-44"
         cx="15.4493" />
      <circle
         id="circle37"
         r="0.5"
         cy="-44"
         cx="-82" />
    </g>
  </g>
</svg>
