<?xml version="1.0" encoding="UTF-8" standalone="no"?>
<svg
   xmlns:dc="http://purl.org/dc/elements/1.1/"
   xmlns:cc="http://creativecommons.org/ns#"
   xmlns:rdf="http://www.w3.org/1999/02/22-rdf-syntax-ns#"
   xmlns:svg="http://www.w3.org/2000/svg"
   xmlns="http://www.w3.org/2000/svg"
   id="svg38"
   viewBox="0 0 923.28998 313.69061"
   height="313.69061mm"
   width="923.28998mm"
   version="1.1">
  <metadata
     id="metadata42">
    <rdf:RDF>
      <cc:Work
         rdf:about="">
        <dc:format>image/svg+xml</dc:format>
        <dc:type
           rdf:resource="http://purl.org/dc/dcmitype/StillImage" />
        <dc:title></dc:title>
      </cc:Work>
    </rdf:RDF>
  </metadata>
  <!-- Working space 0 0 210 297 -->
  <defs
     id="defs12">
    <radialGradient
       r="19.570999"
       gradientTransform="matrix(0.14777,0.23089,-0.2468,0.15795,-26.318,-62.617)"
       cx="282.64999"
       cy="29.149"
       gradientUnits="userSpaceOnUse"
       id="radialGradient3661">
      <stop
         id="stop2"
         offset="0"
         stop-color="#71b2f8" />
      <stop
         id="stop4"
         offset="1"
         stop-color="#002795" />
    </radialGradient>
    <radialGradient
       r="19.570999"
       gradientTransform="matrix(0.26631,0.065024,-0.17931,0.73438,-60.668,-36.938)"
       cx="270.57999"
       cy="33.900002"
       gradientUnits="userSpaceOnUse"
       id="radialGradient3817">
      <stop
         id="stop7"
         offset="0"
         stop-color="#ff6d0f" />
      <stop
         id="stop9"
         offset="1"
         stop-color="#ff1000" />
    </radialGradient>
  </defs>
  <!-- Set display:none to hide FreeCAD Logo -->
  <g
     transform="matrix(0,-25.399955,25.399955,0,461.645,391.79553)"
     id="Ortho_0_0">
    <g
       style="fill:none;stroke:#000000;stroke-width:0.34999999;stroke-linecap:butt;stroke-linejoin:miter"
       id="g35"
       transform="scale(1,-1)">
      <path
         id="path19"
         d="m 11.1865,16.5 a 2,2 0 0 1 -3.873,0" />
      <path
         d="M 7.3135,16.5 3.42855,1.45283"
         id="2" />
      <path
         id="path22"
         d="m 3.42855,1.45283 a 6,6 0 0 1 0,-2.90566" />
      <path
         d="M 7.3135,-16.5 3.42855,-1.45283"
         id="4" />
      <path
         id="path25"
         d="m 7.3135,-16.5 a 2,2 0 0 1 3.873,0" />
      <path
         d="M 15.0715,-1.45283 11.1865,-16.5"
         id="6" />
      <path
         id="path28"
         d="m 15.0715,-1.45283 a 6,6 0 0 1 0,2.90566" />
      <path
         d="M 11.1865,16.5 15.0715,1.45283"
         id="8" />
      <circle
         id="circle31"
         r="0.5"
         cy="16"
         cx="9.25" />
      <circle
         id="circle33"
         r="0.5"
         cy="-16"
         cx="9.25" />
    </g>
  </g>
</svg>
