999
dxfrw 0.6.3
  0
SECTION
  2
HEADER
  9
$ACADVER
  1
AC1021
  9
$DWGCODEPAGE
  3
ANSI_1252
  9
$INSBASE
 10
0
 20
0
 30
0
  9
$EXTMIN
 10
-0.174978
 20
-0.174978
 30
0
  9
$EXTMAX
 10
100.349977923
 20
109.832093577
 30
0
  9
$LIMMIN
 10
0
 20
0
  9
$LIMMAX
 10
420
 20
297
  9
$ORTHOMODE
 70
    0
  9
$REGENMODE
 70
    1
  9
$FILLMODE
 70
    0
  9
$QTEXTMODE
 70
    0
  9
$MIRRTEXT
 70
    0
  9
$LTSCALE
 40
1
  9
$ATTMODE
 70
    0
  9
$TEXTSIZE
 40
2.5
  9
$TRACEWID
 40
15.68
  9
$TEXTSTYLE
  7
STANDARD
  9
$CLAYER
  8
0
  9
$CELTYPE
  6
BYLAYER
  9
$CECOLOR
 62
  256
  9
$CELTSCALE
 40
1
  9
$DISPSILH
 70
    0
  9
$DIMSCALE
 40
1
  9
$DIMASZ
 40
2.5
  9
$DIMEXO
 40
0.625
  9
$DIMDLI
 40
3.75
  9
$DIMRND
 40
0
  9
$DIMDLE
 40
0
  9
$DIMEXE
 40
1.25
  9
$DIMTP
 40
0
  9
$DIMTM
 40
0
  9
$DIMTXT
 40
2.5
  9
$DIMCEN
 40
2.5
  9
$DIMTSZ
 40
0
  9
$DIMTOL
 70
    0
  9
$DIMLIM
 70
    0
  9
$DIMTIH
 70
    0
  9
$DIMTOH
 70
    0
  9
$DIMSE1
 70
    0
  9
$DIMSE2
 70
    0
  9
$DIMTAD
 70
    1
  9
$DIMZIN
 70
    8
  9
$DIMBLK
  1

  9
$DIMASO
 70
    1
  9
$DIMSHO
 70
    1
  9
$DIMPOST
  1

  9
$DIMAPOST
  1

  9
$DIMALT
 70
    0
  9
$DIMALTD
 70
    3
  9
$DIMALTF
 40
0.03937
  9
$DIMLFAC
 40
1
  9
$DIMTOFL
 70
    1
  9
$DIMTVP
 40
0
  9
$DIMTIX
 70
    0
  9
$DIMSOXD
 70
    0
  9
$DIMSAH
 70
    0
  9
$DIMBLK1
  1

  9
$DIMBLK2
  1

  9
$DIMSTYLE
  2
Standard
  9
$DIMCLRD
 70
    0
  9
$DIMCLRE
 70
    0
  9
$DIMCLRT
 70
    0
  9
$DIMTFAC
 40
1
  9
$DIMGAP
 40
0.625
  9
$DIMJUST
 70
    0
  9
$DIMSD1
 70
    0
  9
$DIMSD2
 70
    0
  9
$DIMTOLJ
 70
    0
  9
$DIMTZIN
 70
    8
  9
$DIMALTZ
 70
    0
  9
$DIMALTTZ
 70
    0
  9
$DIMUPT
 70
    0
  9
$DIMDEC
 70
    2
  9
$DIMTDEC
 70
    2
  9
$DIMALTU
 70
    2
  9
$DIMALTTD
 70
    3
  9
$DIMTXSTY
  7
STANDARD
  9
$DIMAUNIT
 70
    0
  9
$DIMADEC
 70
    0
  9
$DIMALTRND
 40
0
  9
$DIMAZIN
 70
    0
  9
$DIMDSEP
 70
   44
  9
$DIMATFIT
 70
    3
  9
$DIMFRAC
 70
    0
  9
$DIMLDRBLK
  1
STANDARD
  9
$DIMLUNIT
 70
    2
  9
$DIMLWD
 70
   -2
  9
$DIMLWE
 70
   -2
  9
$DIMTMOVE
 70
    0
  9
$DIMFXL
 40
1
  9
$DIMFXLON
 70
    0
  9
$DIMJOGANG
 40
0.7854
  9
$DIMTFILL
 70
    0
  9
$DIMTFILLCLR
 70
    0
  9
$DIMARCSYM
 70
    0
  9
$DIMLTYPE
  6

  9
$DIMLTEX1
  6

  9
$DIMLTEX2
  6

  9
$LUNITS
 70
    2
  9
$LUPREC
 70
    4
  9
$SKETCHINC
 40
1
  9
$FILLETRAD
 40
0
  9
$AUNITS
 70
    0
  9
$AUPREC
 70
    2
  9
$MENU
  1
.
  9
$ELEVATION
 40
0
  9
$PELEVATION
 40
0
  9
$THICKNESS
 40
0
  9
$LIMCHECK
 70
    0
  9
$CHAMFERA
 40
0
  9
$CHAMFERB
 40
0
  9
$CHAMFERC
 40
0
  9
$CHAMFERD
 40
0
  9
$SKPOLY
 70
    0
  9
$USRTIMER
 70
    1
  9
$ANGBASE
 50
0
  9
$ANGDIR
 70
    0
  9
$PDMODE
 70
   34
  9
$PDSIZE
 40
0
  9
$PLINEWID
 40
0
  9
$SPLFRAME
 70
    1
  9
$SPLINETYPE
 70
    2
  9
$SPLINESEGS
 70
    8
  9
$HANDSEED
  5
20000
  9
$SURFTAB1
 70
    6
  9
$SURFTAB2
 70
    6
  9
$SURFTYPE
 70
    6
  9
$SURFU
 70
    6
  9
$SURFV
 70
    6
  9
$UCSBASE
  2

  9
$UCSNAME
  2

  9
$UCSORG
 10
0
 20
0
 30
0
  9
$UCSXDIR
 10
1
 20
0
 30
0
  9
$UCSYDIR
 10
0
 20
1
 30
0
  9
$UCSORTHOREF
  2

  9
$UCSORTHOVIEW
 70
    0
  9
$UCSORGTOP
 10
0
 20
0
 30
0
  9
$UCSORGBOTTOM
 10
0
 20
0
 30
0
  9
$UCSORGLEFT
 10
0
 20
0
 30
0
  9
$UCSORGRIGHT
 10
0
 20
0
 30
0
  9
$UCSORGFRONT
 10
0
 20
0
 30
0
  9
$UCSORGBACK
 10
0
 20
0
 30
0
  9
$PUCSBASE
  2

  9
$PUCSNAME
  2

  9
$PUCSORG
 10
0
 20
0
 30
0
  9
$PUCSXDIR
 10
1
 20
0
 30
0
  9
$PUCSYDIR
 10
0
 20
1
 30
0
  9
$PUCSORTHOREF
  2

  9
$PUCSORTHOVIEW
 70
    0
  9
$PUCSORGTOP
 10
0
 20
0
 30
0
  9
$PUCSORGBOTTOM
 10
0
 20
0
 30
0
  9
$PUCSORGLEFT
 10
0
 20
0
 30
0
  9
$PUCSORGRIGHT
 10
0
 20
0
 30
0
  9
$PUCSORGFRONT
 10
0
 20
0
 30
0
  9
$PUCSORGBACK
 10
0
 20
0
 30
0
  9
$USERI1
 70
    0
  9
$USERI2
 70
    0
  9
$USERI3
 70
    0
  9
$USERI4
 70
    0
  9
$USERI5
 70
    0
  9
$USERR1
 40
0
  9
$USERR2
 40
0
  9
$USERR3
 40
0
  9
$USERR4
 40
0
  9
$USERR5
 40
0
  9
$WORLDVIEW
 70
    1
  9
$SHADEDGE
 70
    3
  9
$SHADEDIF
 70
   70
  9
$TILEMODE
 70
    1
  9
$MAXACTVP
 70
   64
  9
$PINSBASE
 10
0
 20
0
 30
0
  9
$PLIMCHECK
 70
    0
  9
$PEXTMIN
 10
0
 20
0
 30
0
  9
$PEXTMAX
 10
0
 20
0
 30
0
  9
$SNAPSTYLE
 70
    0
  9
$PLIMMIN
 10
0
 20
0
  9
$PLIMMAX
 10
8.26771653543307
 20
11.6929133858268
  9
$UNITMODE
 70
    0
  9
$VISRETAIN
 70
    1
  9
$PLINEGEN
 70
    0
  9
$PSLTSCALE
 70
    1
  9
$TREEDEPTH
 70
 3020
  9
$CMLSTYLE
  2
Standard
  9
$CMLJUST
 70
    0
  9
$CMLSCALE
 40
20
  9
$PROXYGRAPHICS
 70
    1
  9
$MEASUREMENT
 70
    1
  9
$CELWEIGHT
370
   -1
  9
$ENDCAPS
280
    0
  9
$JOINSTYLE
280
    0
  9
$LWDISPLAY
290
    0
  9
$INSUNITS
 70
    4
  9
$HYPERLINKBASE
  1

  9
$STYLESHEET
  1

  9
$XEDIT
290
    1
  9
$CEPSNTYPE
380
    0
  9
$PSTYLEMODE
290
    1
  9
$EXTNAMES
290
    1
  9
$PSVPSCALE
 40
1
  9
$OLESTARTUP
290
    0
  9
$SORTENTS
280
  127
  9
$INDEXCTL
280
    0
  9
$HIDETEXT
280
    1
  9
$XCLIPFRAME
290
    0
  9
$HALOGAP
280
    0
  9
$OBSCOLOR
 70
  257
  9
$OBSLTYPE
280
    0
  9
$INTERSECTIONDISPLAY
280
    0
  9
$INTERSECTIONCOLOR
 70
  257
  9
$DIMASSOC
280
    1
  9
$PROJECTNAME
  1

  9
$CAMERADISPLAY
290
    0
  9
$LENSLENGTH
 40
50
  9
$CAMERAHEIGHT
 40
0
  9
$STEPSPERSEC
 40
2
  9
$STEPSIZE
 40
50
  9
$3DDWFPREC
 40
2
  9
$PSOLWIDTH
 40
5
  9
$PSOLHEIGHT
 40
80
  9
$LOFTANG1
 40
1.570796326794897
  9
$LOFTANG2
 40
1.570796326794897
  9
$LOFTMAG1
 40
0
  9
$LOFTMAG2
 40
0
  9
$LOFTPARAM
 70
    7
  9
$LOFTNORMALS
280
    1
  9
$LATITUDE
 40
1
  9
$LONGITUDE
 40
1
  9
$NORTHDIRECTION
 40
0
  9
$TIMEZONE
 70
-8000
  9
$LIGHTGLYPHDISPLAY
280
    1
  9
$TILEMODELIGHTSYNCH
280
    1
  9
$SOLIDHIST
280
    1
  9
$SHOWHIST
280
    1
  9
$DWFFRAME
280
    2
  9
$DGNFRAME
280
    0
  9
$REALWORLDSCALE
290
    1
  9
$INTERFERECOLOR
 62
    1
  9
$CSHADOW
280
    0
  9
$SHADOWPLANELOCATION
 40
0
  0
ENDSEC
  0
SECTION
  2
CLASSES
  0
ENDSEC
  0
SECTION
  2
TABLES
  0
TABLE
  2
VPORT
  5
8
330
0
100
AcDbSymbolTable
 70
    1
  0
VPORT
  5
31
330
2
100
AcDbSymbolTableRecord
100
AcDbViewportTableRecord
  2
*ACTIVE
 70
    0
 10
0
 20
0
 11
1
 21
1
 12
115.0000000000002
 22
61.25000000000011
 13
0
 23
0
 14
10
 24
10
 15
10
 25
10
 16
0
 26
0
 36
1
 17
0
 27
0
 37
0
 40
158.1250000000003
 41
1.984189723320158
 42
50
 43
0
 44
0
 50
0
 51
0
 71
    0
 72
  100
 73
    1
 74
    3
 75
    0
 76
    1
 77
    0
 78
    0
281
    0
 65
    1
110
0
120
0
130
0
111
1
121
0
131
0
112
0
122
1
132
0
 79
    0
146
0
348
10020
 60
    7
 61
    5
292
1
282
    1
141
0
142
0
 63
  250
421
3358443
  0
ENDTAB
  0
TABLE
  2
LTYPE
  5
5
330
0
100
AcDbSymbolTable
 70
    4
  0
LTYPE
  5
14
330
5
100
AcDbSymbolTableRecord
100
AcDbLinetypeTableRecord
  2
ByBlock
 70
    0
  3

 72
   65
 73
    0
 40
0
  0
LTYPE
  5
15
330
5
100
AcDbSymbolTableRecord
100
AcDbLinetypeTableRecord
  2
ByLayer
 70
    0
  3

 72
   65
 73
    0
 40
0
  0
LTYPE
  5
16
330
5
100
AcDbSymbolTableRecord
100
AcDbLinetypeTableRecord
  2
Continuous
 70
    0
  3
Solid line
 72
   65
 73
    0
 40
0
  0
LTYPE
  5
32
330
5
100
AcDbSymbolTableRecord
100
AcDbLinetypeTableRecord
  2
DOT
 70
    0
  3
Dot . . . . . . . . . . . . . . . . . . . . . .
 72
   65
 73
    2
 40
6.35
 49
0
 74
    0
 49
-6.35
 74
    0
  0
LTYPE
  5
33
330
5
100
AcDbSymbolTableRecord
100
AcDbLinetypeTableRecord
  2
DOTTINY
 70
    0
  3
Dot (.15x) .....................................
 72
   65
 73
    2
 40
0.9525
 49
0
 74
    0
 49
-0.9525
 74
    0
  0
LTYPE
  5
34
330
5
100
AcDbSymbolTableRecord
100
AcDbLinetypeTableRecord
  2
DOT2
 70
    0
  3
Dot (.5x) .....................................
 72
   65
 73
    2
 40
3.175
 49
0
 74
    0
 49
-3.175
 74
    0
  0
LTYPE
  5
35
330
5
100
AcDbSymbolTableRecord
100
AcDbLinetypeTableRecord
  2
DOTX2
 70
    0
  3
Dot (2x) .  .  .  .  .  .  .  .  .  .  .  .  .
 72
   65
 73
    2
 40
12.7
 49
0
 74
    0
 49
-12.7
 74
    0
  0
LTYPE
  5
36
330
5
100
AcDbSymbolTableRecord
100
AcDbLinetypeTableRecord
  2
DASHED
 70
    0
  3
Dashed _ _ _ _ _ _ _ _ _ _ _ _ _ _ _ _ _
 72
   65
 73
    2
 40
19.05
 49
12.7
 74
    0
 49
-6.35
 74
    0
  0
LTYPE
  5
37
330
5
100
AcDbSymbolTableRecord
100
AcDbLinetypeTableRecord
  2
DASHEDTINY
 70
    0
  3
Dashed (.15x) _ _ _ _ _ _ _ _ _ _ _ _ _ _ _ _ _
 72
   65
 73
    2
 40
2.8575
 49
1.905
 74
    0
 49
-0.9525
 74
    0
  0
LTYPE
  5
38
330
5
100
AcDbSymbolTableRecord
100
AcDbLinetypeTableRecord
  2
DASHED2
 70
    0
  3
Dashed (.5x) _ _ _ _ _ _ _ _ _ _ _ _ _ _ _ _ _
 72
   65
 73
    2
 40
9.524999999999999
 49
6.35
 74
    0
 49
-3.175
 74
    0
  0
LTYPE
  5
39
330
5
100
AcDbSymbolTableRecord
100
AcDbLinetypeTableRecord
  2
DASHEDX2
 70
    0
  3
Dashed (2x) ____  ____  ____  ____  ____  ___
 72
   65
 73
    2
 40
38.09999999999999
 49
25.4
 74
    0
 49
-12.7
 74
    0
  0
LTYPE
  5
3A
330
5
100
AcDbSymbolTableRecord
100
AcDbLinetypeTableRecord
  2
DASHDOT
 70
    0
  3
Dash dot __ . __ . __ . __ . __ . __ . __ . __
 72
   65
 73
    4
 40
25.4
 49
12.7
 74
    0
 49
-6.35
 74
    0
 49
0
 74
    0
 49
-6.35
 74
    0
  0
LTYPE
  5
3B
330
5
100
AcDbSymbolTableRecord
100
AcDbLinetypeTableRecord
  2
DASHDOTTINY
 70
    0
  3
Dash dot (.15x) _._._._._._._._._._._._._._._.
 72
   65
 73
    4
 40
3.81
 49
1.905
 74
    0
 49
-0.9525
 74
    0
 49
0
 74
    0
 49
-0.9525
 74
    0
  0
LTYPE
  5
3C
330
5
100
AcDbSymbolTableRecord
100
AcDbLinetypeTableRecord
  2
DASHDOT2
 70
    0
  3
Dash dot (.5x) _._._._._._._._._._._._._._._.
 72
   65
 73
    4
 40
12.7
 49
6.35
 74
    0
 49
-3.175
 74
    0
 49
0
 74
    0
 49
-3.175
 74
    0
  0
LTYPE
  5
3D
330
5
100
AcDbSymbolTableRecord
100
AcDbLinetypeTableRecord
  2
DASHDOTX2
 70
    0
  3
Dash dot (2x) ____  .  ____  .  ____  .  ___
 72
   65
 73
    4
 40
50.8
 49
25.4
 74
    0
 49
-12.7
 74
    0
 49
0
 74
    0
 49
-12.7
 74
    0
  0
LTYPE
  5
3E
330
5
100
AcDbSymbolTableRecord
100
AcDbLinetypeTableRecord
  2
DIVIDE
 70
    0
  3
Divide ____ . . ____ . . ____ . . ____ . . ____
 72
   65
 73
    6
 40
31.75
 49
12.7
 74
    0
 49
-6.35
 74
    0
 49
0
 74
    0
 49
-6.35
 74
    0
 49
0
 74
    0
 49
-6.35
 74
    0
  0
LTYPE
  5
3F
330
5
100
AcDbSymbolTableRecord
100
AcDbLinetypeTableRecord
  2
DIVIDETINY
 70
    0
  3
Divide (.15x) __..__..__..__..__..__..__..__.._
 72
   65
 73
    6
 40
4.7625
 49
1.905
 74
    0
 49
-0.9525
 74
    0
 49
0
 74
    0
 49
-0.9525
 74
    0
 49
0
 74
    0
 49
-0.9525
 74
    0
  0
LTYPE
  5
40
330
5
100
AcDbSymbolTableRecord
100
AcDbLinetypeTableRecord
  2
DIVIDE2
 70
    0
  3
Divide (.5x) __..__..__..__..__..__..__..__.._
 72
   65
 73
    6
 40
15.875
 49
6.35
 74
    0
 49
-3.175
 74
    0
 49
0
 74
    0
 49
-3.175
 74
    0
 49
0
 74
    0
 49
-3.175
 74
    0
  0
LTYPE
  5
41
330
5
100
AcDbSymbolTableRecord
100
AcDbLinetypeTableRecord
  2
DIVIDEX2
 70
    0
  3
Divide (2x) ________  .  .  ________  .  .  _
 72
   65
 73
    6
 40
63.5
 49
25.4
 74
    0
 49
-12.7
 74
    0
 49
0
 74
    0
 49
-12.7
 74
    0
 49
0
 74
    0
 49
-12.7
 74
    0
  0
LTYPE
  5
42
330
5
100
AcDbSymbolTableRecord
100
AcDbLinetypeTableRecord
  2
BORDER
 70
    0
  3
Border __ __ . __ __ . __ __ . __ __ . __ __ .
 72
   65
 73
    6
 40
44.45
 49
12.7
 74
    0
 49
-6.35
 74
    0
 49
12.7
 74
    0
 49
-6.35
 74
    0
 49
0
 74
    0
 49
-6.35
 74
    0
  0
LTYPE
  5
43
330
5
100
AcDbSymbolTableRecord
100
AcDbLinetypeTableRecord
  2
BORDERTINY
 70
    0
  3
Border (.15x) __.__.__.__.__.__.__.__.__.__.__.
 72
   65
 73
    6
 40
6.6675
 49
1.905
 74
    0
 49
-0.9525
 74
    0
 49
1.905
 74
    0
 49
-0.9525
 74
    0
 49
0
 74
    0
 49
-0.9525
 74
    0
  0
LTYPE
  5
44
330
5
100
AcDbSymbolTableRecord
100
AcDbLinetypeTableRecord
  2
BORDER2
 70
    0
  3
Border (.5x) __.__.__.__.__.__.__.__.__.__.__.
 72
   65
 73
    6
 40
22.225
 49
6.35
 74
    0
 49
-3.175
 74
    0
 49
6.35
 74
    0
 49
-3.175
 74
    0
 49
0
 74
    0
 49
-3.175
 74
    0
  0
LTYPE
  5
45
330
5
100
AcDbSymbolTableRecord
100
AcDbLinetypeTableRecord
  2
BORDERX2
 70
    0
  3
Border (2x) ____  ____  .  ____  ____  .  ___
 72
   65
 73
    6
 40
88.89999999999999
 49
25.4
 74
    0
 49
-12.7
 74
    0
 49
25.4
 74
    0
 49
-12.7
 74
    0
 49
0
 74
    0
 49
-12.7
 74
    0
  0
LTYPE
  5
46
330
5
100
AcDbSymbolTableRecord
100
AcDbLinetypeTableRecord
  2
CENTER
 70
    0
  3
Center ____ _ ____ _ ____ _ ____ _ ____ _ ____
 72
   65
 73
    4
 40
50.8
 49
31.75
 74
    0
 49
-6.35
 74
    0
 49
6.35
 74
    0
 49
-6.35
 74
    0
  0
LTYPE
  5
47
330
5
100
AcDbSymbolTableRecord
100
AcDbLinetypeTableRecord
  2
CENTERTINY
 70
    0
  3
Center (.15x) ___ _ ___ _ ___ _ ___ _ ___ _ ___
 72
   65
 73
    4
 40
7.619999999999999
 49
4.7625
 74
    0
 49
-0.9525
 74
    0
 49
0.9525
 74
    0
 49
-0.9525
 74
    0
  0
LTYPE
  5
48
330
5
100
AcDbSymbolTableRecord
100
AcDbLinetypeTableRecord
  2
CENTER2
 70
    0
  3
Center (.5x) ___ _ ___ _ ___ _ ___ _ ___ _ ___
 72
   65
 73
    4
 40
28.575
 49
19.05
 74
    0
 49
-3.175
 74
    0
 49
3.175
 74
    0
 49
-3.175
 74
    0
  0
LTYPE
  5
49
330
5
100
AcDbSymbolTableRecord
100
AcDbLinetypeTableRecord
  2
CENTERX2
 70
    0
  3
Center (2x) ________  __  ________  __  _____
 72
   65
 73
    4
 40
101.6
 49
63.5
 74
    0
 49
-12.7
 74
    0
 49
12.7
 74
    0
 49
-12.7
 74
    0
  0
ENDTAB
  0
TABLE
  2
LAYER
  5
2
330
0
100
AcDbSymbolTable
 70
    1
  0
LAYER
  5
10
330
2
100
AcDbSymbolTableRecord
100
AcDbLayerTableRecord
  2
0
 70
    0
 62
    7
  6
CONTINUOUS
370
   -3
390
F
  0
ENDTAB
  0
TABLE
  2
STYLE
  5
3
330
0
100
AcDbSymbolTable
 70
    3
  0
STYLE
  5
4A
330
2
100
AcDbSymbolTableRecord
100
AcDbTextStyleTableRecord
  2
Standard
 70
    0
 40
0
 41
1
 50
0
 71
    0
 42
1
  3
txt
  4

  0
ENDTAB
  0
TABLE
  2
VIEW
  5
6
330
0
100
AcDbSymbolTable
 70
    0
  0
ENDTAB
  0
TABLE
  2
UCS
  5
7
330
0
100
AcDbSymbolTable
 70
    0
  0
ENDTAB
  0
TABLE
  2
APPID
  5
9
330
0
100
AcDbSymbolTable
 70
    1
  0
APPID
  5
12
330
9
100
AcDbSymbolTableRecord
100
AcDbRegAppTableRecord
  2
ACAD
 70
    0
  0
APPID
  5
4B
330
9
100
AcDbSymbolTableRecord
100
AcDbRegAppTableRecord
  2
LibreCad
 70
    0
  0
ENDTAB
  0
TABLE
  2
DIMSTYLE
  5
A
330
0
100
AcDbSymbolTable
 70
    1
100
AcDbDimStyleTable
 71
    1
  0
DIMSTYLE
105
4C
330
A
100
AcDbSymbolTableRecord
100
AcDbDimStyleTableRecord
  2
Standard
 70
    0
 40
1
 41
2.5
 42
0.625
 43
0.38
 44
1.25
 45
0
 46
0
 47
0
 48
0
 49
1
140
2.5
141
0.09
142
0
143
25.4
144
1
145
0
146
1
147
0.625
148
0
 71
    0
 72
    0
 73
    0
 74
    1
 75
    0
 76
    0
 77
    0
 78
    1
 79
    0
170
    0
171
    2
172
    0
173
    0
174
    0
175
    0
176
    0
177
    0
178
    0
179
    0
271
    2
272
    4
273
    2
274
    2
275
    0
276
    0
277
    2
278
    0
279
    0
280
    0
281
    0
282
    0
283
    1
284
    0
285
    0
286
    0
288
    0
289
    3
340
standard
341

371
   -2
372
   -2
  0
ENDTAB
  0
TABLE
  2
BLOCK_RECORD
  5
1
330
0
100
AcDbSymbolTable
 70
    2
  0
BLOCK_RECORD
  5
1F
330
1
100
AcDbSymbolTableRecord
100
AcDbBlockTableRecord
  2
*Model_Space
 70
    0
280
    1
281
    0
  0
BLOCK_RECORD
  5
1E
330
1
100
AcDbSymbolTableRecord
100
AcDbBlockTableRecord
  2
*Paper_Space
 70
    0
280
    1
281
    0
  0
ENDTAB
  0
ENDSEC
  0
SECTION
  2
BLOCKS
  0
BLOCK
  5
20
330
1F
100
AcDbEntity
  8
0
100
AcDbBlockBegin
  2
*Model_Space
 70
    0
 10
0
 20
0
 30
0
  3
*Model_Space
  1

  0
ENDBLK
  5
21
330
1F
100
AcDbEntity
  8
0
100
AcDbBlockEnd
  0
BLOCK
  5
1C
330
1B
100
AcDbEntity
  8
0
100
AcDbBlockBegin
  2
*Paper_Space
 70
    0
 10
0
 20
0
 30
0
  3
*Paper_Space
  1

  0
ENDBLK
  5
1D
330
1F
100
AcDbEntity
  8
0
100
AcDbBlockEnd
  0
ENDSEC
  0
SECTION
  2
ENTITIES
  0
LWPOLYLINE
  5
4D
100
AcDbEntity
  8
0
  6
ByLayer
 62
    0
370
   -1
100
AcDbPolyline
 90
    2
 70
    0
 43
0
 10
0
 20
103.811093577
 10
0
 20
6.021052182000001
  0
LWPOLYLINE
  5
4E
100
AcDbEntity
  8
0
  6
ByLayer
 62
    0
370
   -1
100
AcDbPolyline
 90
   49
 70
    0
 43
0
 10
0
 20
6.021052182000001
 10
0.013338522
 20
5.619842847000001
 10
0.05291856899999998
 20
5.223500487000001
 10
0.1181410515
 20
4.833259407000002
 10
0.208408887
 20
4.450082967000001
 10
0.3229574085
 20
4.075125192000001
 10
0.4612979115
 20
3.709489932
 10
0.622723932
 20
3.354301107
 10
0.80663337
 20
3.010552182000001
 10
1.012318758
 20
2.679477462
 10
1.239240213
 20
2.362070412
 10
1.486733418
 20
2.059414812
 10
1.754166168
 20
1.772714862
 10
2.040856083
 20
1.503014202
 10
2.346231168
 20
1.251316332
 10
2.669679288
 20
1.018895697
 10
3.010508028
 20
0.806677524
 10
3.364603038
 20
0.6176502360000001
 10
3.727629198
 20
0.4537756755000001
 10
4.098231783
 20
0.315161217
 10
4.475186523000001
 20
0.201701493
 10
4.857229008000001
 20
0.113503878
 10
5.243004513000002
 20
0.05045899050000002
 10
5.631359013000001
 20
0.01267420500000003
 10
6.020947818000001
 20
4.415400000004416e-05
 10
6.410546658000001
 20
0.01267420500000003
 10
6.798881088000001
 20
0.05045899050000002
 10
7.184726838000001
 20
0.113503878
 10
7.566759288000001
 20
0.201701493
 10
7.943673888000001
 20
0.315161217
 10
8.314326648
 20
0.4537756755000001
 10
8.677302633
 20
0.6176502360000001
 10
9.031508027999999
 20
0.806677524
 10
9.372266523
 20
1.018895697
 10
9.695714642999999
 20
1.251316332
 10
10.001059623
 20
1.503014202
 10
10.287759573
 20
1.772714862
 10
10.555192323
 20
2.059414812
 10
10.802655423
 20
2.362070412
 10
11.029546773
 20
2.679477462
 10
11.235364623
 20
3.010552182000001
 10
11.419205823
 20
3.354301107
 10
11.580668973
 20
3.709489932
 10
11.718951273
 20
4.075125192000001
 10
11.833550973
 20
4.450082967000001
 10
11.923765623
 20
4.833259407000002
 10
11.988993123
 20
5.223500487000001
 10
12.028631373
 20
5.619842847000001
 10
12.041977923
 20
6.021052182000001
  0
LWPOLYLINE
  5
4F
100
AcDbEntity
  8
0
  6
ByLayer
 62
    0
370
   -1
100
AcDbPolyline
 90
    2
 70
    0
 43
0
 10
12.041977923
 20
6.021052182000001
 10
12.041977923
 20
103.811093577
  0
LWPOLYLINE
  5
50
100
AcDbEntity
  8
0
  6
ByLayer
 62
    0
370
   -1
100
AcDbPolyline
 90
   49
 70
    0
 43
0
 10
12.041977923
 20
103.811093577
 10
12.028631373
 20
104.212493577
 10
11.988993123
 20
104.608876077
 10
11.923765623
 20
104.999237577
 10
11.833550973
 20
105.382574577
 10
11.718951273
 20
105.756880077
 10
11.580668973
 20
106.123157577
 10
11.419205823
 20
106.478396577
 10
11.235364623
 20
106.821593577
 10
11.029546773
 20
107.152748577
 10
10.802655423
 20
107.470858077
 10
10.555192323
 20
107.772911577
 10
10.287759573
 20
108.059912577
 10
10.001059623
 20
108.329854077
 10
9.695714642999999
 20
108.581732577
 10
9.372266523
 20
108.813541077
 10
9.031508027999999
 20
109.025279577
 10
8.677302633
 20
109.214941077
 10
8.314326648
 20
109.378511577
 10
7.943673888000001
 20
109.516994577
 10
7.566759288000001
 20
109.630390077
 10
7.184726838000001
 20
109.718698077
 10
6.798881088000001
 20
109.781918577
 10
6.410546658000001
 20
109.820051577
 10
6.020947818000001
 20
109.832093577
 10
5.631359013000001
 20
109.820051577
 10
5.243004513000002
 20
109.781918577
 10
4.857229008000001
 20
109.718698077
 10
4.475186523000001
 20
109.630390077
 10
4.098231783
 20
109.516994577
 10
3.727629198
 20
109.378511577
 10
3.364603038
 20
109.214941077
 10
3.010508028
 20
109.025279577
 10
2.669679288
 20
108.813541077
 10
2.346231168
 20
108.581732577
 10
2.040856083
 20
108.329854077
 10
1.754166168
 20
108.059912577
 10
1.486733418
 20
107.772911577
 10
1.239240213
 20
107.470858077
 10
1.012318758
 20
107.152748577
 10
0.80663337
 20
106.821593577
 10
0.622723932
 20
106.478396577
 10
0.4612979115
 20
106.123157577
 10
0.3229574085
 20
105.756880077
 10
0.208408887
 20
105.382574577
 10
0.1181410515
 20
104.999237577
 10
0.05291856899999998
 20
104.608876077
 10
0.013338522
 20
104.212493577
 10
0
 20
103.811093577
  0
LWPOLYLINE
  5
51
100
AcDbEntity
  8
0
  6
ByLayer
 62
    0
370
   -1
100
AcDbPolyline
 90
   33
 70
    1
 43
0
 10
6.021008028000001
 20
104.312843577
 10
5.919845193000001
 20
104.302808577
 10
5.825656683000001
 20
104.273707077
 10
5.740459533000001
 20
104.227546077
 10
5.666200533000001
 20
104.166332577
 10
5.604886683000001
 20
104.092073577
 10
5.558675508000001
 20
104.006776077
 10
5.529433518000001
 20
103.912447077
 10
5.519258028
 20
103.811093577
 10
5.529433518000001
 20
103.710743577
 10
5.558675508000001
 20
103.616414577
 10
5.604886683000001
 20
103.531117077
 10
5.666200533000001
 20
103.456858077
 10
5.740459533000001
 20
103.395644577
 10
5.825656683000001
 20
103.349483577
 10
5.919845193000001
 20
103.319378577
 10
6.021008028000001
 20
103.309343577
 10
6.122090583000001
 20
103.319378577
 10
6.216228918000001
 20
103.349483577
 10
6.301496313
 20
103.395644577
 10
6.375755313000001
 20
103.456858077
 10
6.436998918000001
 20
103.531117077
 10
6.483280338000001
 20
103.616414577
 10
6.512512293
 20
103.710743577
 10
6.522758028000001
 20
103.811093577
 10
6.512512293
 20
103.912447077
 10
6.483280338000001
 20
104.006776077
 10
6.436998918000001
 20
104.092073577
 10
6.375755313000001
 20
104.166332577
 10
6.301496313
 20
104.227546077
 10
6.216228918000001
 20
104.273707077
 10
6.122090583000001
 20
104.302808577
 10
6.021008028000001
 20
104.312843577
  0
LWPOLYLINE
  5
52
100
AcDbEntity
  8
0
  6
ByLayer
 62
    0
370
   -1
100
AcDbPolyline
 90
   33
 70
    1
 43
0
 10
6.021008028000001
 20
6.522802182
 10
5.919845193000001
 20
6.512616657000001
 10
5.825656683000001
 20
6.483374667000001
 10
5.740459533000001
 20
6.437153457000002
 10
5.666200533000001
 20
6.375859677000001
 10
5.604886683000001
 20
6.301580607000001
 10
5.558675508000001
 20
6.216383457000001
 10
5.529433518000001
 20
6.122194947000001
 10
5.519258028
 20
6.021052182000001
 10
5.529433518000001
 20
5.919949557000001
 10
5.558675508000001
 20
5.825761047
 10
5.604886683000001
 20
5.740553862000001
 10
5.666200533000001
 20
5.666284827000001
 10
5.740459533000001
 20
5.604991047
 10
5.825656683000001
 20
5.558769837000001
 10
5.919845193000001
 20
5.529527847000001
 10
6.021008028000001
 20
5.519302182000001
 10
6.122090583000001
 20
5.529527847000001
 10
6.216228918000001
 20
5.558769837000001
 10
6.301496313
 20
5.604991047
 10
6.375755313000001
 20
5.666284827000001
 10
6.436998918000001
 20
5.740553862000001
 10
6.483280338000001
 20
5.825761047
 10
6.512512293
 20
5.919949557000001
 10
6.522758028000001
 20
6.021052182000001
 10
6.512512293
 20
6.122194947000001
 10
6.483280338000001
 20
6.216383457000001
 10
6.436998918000001
 20
6.301580607000001
 10
6.375755313000001
 20
6.375859677000001
 10
6.301496313
 20
6.437153457000002
 10
6.216228918000001
 20
6.483374667000001
 10
6.122090583000001
 20
6.512616657000001
 10
6.021008028000001
 20
6.522802182
  0
LWPOLYLINE
  5
53
100
AcDbEntity
  8
0
  6
ByLayer
 62
    0
370
   -1
100
AcDbPolyline
 90
    2
 70
    0
 43
0
 10
88.30797792300001
 20
103.811093577
 10
88.30797792300001
 20
6.021052182000001
  0
LWPOLYLINE
  5
54
100
AcDbEntity
  8
0
  6
ByLayer
 62
    0
370
   -1
100
AcDbPolyline
 90
   49
 70
    0
 43
0
 10
88.30797792300001
 20
6.021052182000001
 10
88.321324473
 20
5.619842847000001
 10
88.36096272300001
 20
5.223500487000001
 10
88.42619022300001
 20
4.833259407000002
 10
88.516304523
 20
4.450082967000001
 10
88.630904223
 20
4.075125192000001
 10
88.769286873
 20
3.709489932
 10
88.930750023
 20
3.354301107
 10
89.114691573
 20
3.010552182000001
 10
89.32030872300001
 20
2.679477462
 10
89.54730042300001
 20
2.362070412
 10
89.794663173
 20
2.059414812
 10
90.06219627300001
 20
1.772714862
 10
90.348795873
 20
1.503014202
 10
90.654261273
 20
1.251316332
 10
90.97768932300001
 20
1.018895697
 10
91.318477923
 20
0.806677524
 10
91.67261307300001
 20
0.6176502360000001
 10
92.03557902300001
 20
0.4537756755000001
 10
92.40617157300001
 20
0.315161217
 10
92.78318652300001
 20
0.201701493
 10
93.16521897300001
 20
0.113503878
 10
93.550964373
 20
0.05045899050000002
 10
93.939318873
 20
0.01267420500000003
 10
94.32897792300001
 20
4.415400000004416e-05
 10
94.71853662300001
 20
0.01267420500000003
 10
95.10679077300001
 20
0.05045899050000002
 10
95.492736873
 20
0.113503878
 10
95.87476932300001
 20
0.201701493
 10
96.251683923
 20
0.315161217
 10
96.62227647300001
 20
0.4537756755000001
 10
96.98534277300001
 20
0.6176502360000001
 10
97.339477923
 20
0.806677524
 10
97.68026652300001
 20
1.018895697
 10
98.003694573
 20
1.251316332
 10
98.30905962300001
 20
1.503014202
 10
98.59575957300001
 20
1.772714862
 10
98.863292673
 20
2.059414812
 10
99.11065542300001
 20
2.362070412
 10
99.33754677300001
 20
2.679477462
 10
99.54326427300001
 20
3.010552182000001
 10
99.72720582300001
 20
3.354301107
 10
99.88866897300001
 20
3.709489932
 10
100.026951273
 20
4.075125192000001
 10
100.141450623
 20
4.450082967000001
 10
100.231564923
 20
4.833259407000002
 10
100.296792423
 20
5.223500487000001
 10
100.336932423
 20
5.619842847000001
 10
100.349977923
 20
6.021052182000001
  0
LWPOLYLINE
  5
55
100
AcDbEntity
  8
0
  6
ByLayer
 62
    0
370
   -1
100
AcDbPolyline
 90
    2
 70
    0
 43
0
 10
100.349977923
 20
6.021052182000001
 10
100.349977923
 20
103.811093577
  0
LWPOLYLINE
  5
56
100
AcDbEntity
  8
0
  6
ByLayer
 62
    0
370
   -1
100
AcDbPolyline
 90
   49
 70
    0
 43
0
 10
100.349977923
 20
103.811093577
 10
100.336932423
 20
104.212493577
 10
100.296792423
 20
104.608876077
 10
100.231564923
 20
104.999237577
 10
100.141450623
 20
105.382574577
 10
100.026951273
 20
105.756880077
 10
99.88866897300001
 20
106.123157577
 10
99.72720582300001
 20
106.478396577
 10
99.54326427300001
 20
106.821593577
 10
99.33754677300001
 20
107.152748577
 10
99.11065542300001
 20
107.470858077
 10
98.863292673
 20
107.772911577
 10
98.59575957300001
 20
108.059912577
 10
98.30905962300001
 20
108.329854077
 10
98.003694573
 20
108.581732577
 10
97.68026652300001
 20
108.813541077
 10
97.339477923
 20
109.025279577
 10
96.98534277300001
 20
109.214941077
 10
96.62227647300001
 20
109.378511577
 10
96.251683923
 20
109.516994577
 10
95.87476932300001
 20
109.630390077
 10
95.492736873
 20
109.718698077
 10
95.10679077300001
 20
109.781918577
 10
94.71853662300001
 20
109.820051577
 10
94.32897792300001
 20
109.832093577
 10
93.939318873
 20
109.820051577
 10
93.550964373
 20
109.781918577
 10
93.16521897300001
 20
109.718698077
 10
92.78318652300001
 20
109.630390077
 10
92.40617157300001
 20
109.516994577
 10
92.03557902300001
 20
109.378511577
 10
91.67261307300001
 20
109.214941077
 10
91.318477923
 20
109.025279577
 10
90.97768932300001
 20
108.813541077
 10
90.654261273
 20
108.581732577
 10
90.348795873
 20
108.329854077
 10
90.06219627300001
 20
108.059912577
 10
89.794663173
 20
107.772911577
 10
89.54730042300001
 20
107.470858077
 10
89.32030872300001
 20
107.152748577
 10
89.114691573
 20
106.821593577
 10
88.930750023
 20
106.478396577
 10
88.769286873
 20
106.123157577
 10
88.630904223
 20
105.756880077
 10
88.516304523
 20
105.382574577
 10
88.42619022300001
 20
104.999237577
 10
88.36096272300001
 20
104.608876077
 10
88.321324473
 20
104.212493577
 10
88.30797792300001
 20
103.811093577
  0
LWPOLYLINE
  5
57
100
AcDbEntity
  8
0
  6
ByLayer
 62
    0
370
   -1
100
AcDbPolyline
 90
   33
 70
    1
 43
0
 10
94.32897792300001
 20
104.312843577
 10
94.22782512300002
 20
104.302808577
 10
94.13369682300001
 20
104.273707077
 10
94.048399323
 20
104.227546077
 10
93.974140323
 20
104.166332577
 10
93.91292682300001
 20
104.092073577
 10
93.866665473
 20
104.006776077
 10
93.83736327300001
 20
103.912447077
 10
93.82722792300001
 20
103.811093577
 10
93.83736327300001
 20
103.710743577
 10
93.866665473
 20
103.616414577
 10
93.91292682300001
 20
103.531117077
 10
93.974140323
 20
103.456858077
 10
94.048399323
 20
103.395644577
 10
94.13369682300001
 20
103.349483577
 10
94.22782512300002
 20
103.319378577
 10
94.32897792300001
 20
103.309343577
 10
94.430130723
 20
103.319378577
 10
94.52425902300001
 20
103.349483577
 10
94.60955652300001
 20
103.395644577
 10
94.683715173
 20
103.456858077
 10
94.74502902300001
 20
103.531117077
 10
94.79129037300001
 20
103.616414577
 10
94.82059257300001
 20
103.710743577
 10
94.830727923
 20
103.811093577
 10
94.82059257300001
 20
103.912447077
 10
94.79129037300001
 20
104.006776077
 10
94.74502902300001
 20
104.092073577
 10
94.683715173
 20
104.166332577
 10
94.60955652300001
 20
104.227546077
 10
94.52425902300001
 20
104.273707077
 10
94.430130723
 20
104.302808577
 10
94.32897792300001
 20
104.312843577
  0
LWPOLYLINE
  5
58
100
AcDbEntity
  8
0
  6
ByLayer
 62
    0
370
   -1
100
AcDbPolyline
 90
   33
 70
    1
 43
0
 10
94.32897792300001
 20
6.522802182
 10
94.22782512300002
 20
6.512616657000001
 10
94.13369682300001
 20
6.483374667000001
 10
94.048399323
 20
6.437153457000002
 10
93.974140323
 20
6.375859677000001
 10
93.91292682300001
 20
6.301580607000001
 10
93.866665473
 20
6.216383457000001
 10
93.83736327300001
 20
6.122194947000001
 10
93.82722792300001
 20
6.021052182000001
 10
93.83736327300001
 20
5.919949557000001
 10
93.866665473
 20
5.825761047
 10
93.91292682300001
 20
5.740553862000001
 10
93.974140323
 20
5.666284827000001
 10
94.048399323
 20
5.604991047
 10
94.13369682300001
 20
5.558769837000001
 10
94.22782512300002
 20
5.529527847000001
 10
94.32897792300001
 20
5.519302182000001
 10
94.430130723
 20
5.529527847000001
 10
94.52425902300001
 20
5.558769837000001
 10
94.60955652300001
 20
5.604991047
 10
94.683715173
 20
5.666284827000001
 10
94.74502902300001
 20
5.740553862000001
 10
94.79129037300001
 20
5.825761047
 10
94.82059257300001
 20
5.919949557000001
 10
94.830727923
 20
6.021052182000001
 10
94.82059257300001
 20
6.122194947000001
 10
94.79129037300001
 20
6.216383457000001
 10
94.74502902300001
 20
6.301580607000001
 10
94.683715173
 20
6.375859677000001
 10
94.60955652300001
 20
6.437153457000002
 10
94.52425902300001
 20
6.483374667000001
 10
94.430130723
 20
6.512616657000001
 10
94.32897792300001
 20
6.522802182
  0
ENDSEC
  0
SECTION
  2
OBJECTS
  0
DICTIONARY
  5
C
330
0
100
AcDbDictionary
281
    1
  3
ACAD_GROUP
350
D
  0
DICTIONARY
  5
D
330
C
100
AcDbDictionary
281
    1
  0
ENDSEC
  0
EOF
