<?xml version="1.0" encoding="UTF-8" standalone="no"?>
<svg
   xmlns:dc="http://purl.org/dc/elements/1.1/"
   xmlns:cc="http://creativecommons.org/ns#"
   xmlns:rdf="http://www.w3.org/1999/02/22-rdf-syntax-ns#"
   xmlns:svg="http://www.w3.org/2000/svg"
   xmlns="http://www.w3.org/2000/svg"
   version="1.1"
   width="2138.175mm"
   height="3003.4868mm"
   viewBox="0 0 2138.175 3003.4868"
   id="svg140">
  <metadata
     id="metadata144">
    <rdf:RDF>
      <cc:Work
         rdf:about="">
        <dc:format>image/svg+xml</dc:format>
        <dc:type
           rdf:resource="http://purl.org/dc/dcmitype/StillImage" />
        <dc:title></dc:title>
      </cc:Work>
    </rdf:RDF>
  </metadata>
  <!-- Working space 0 0 210 297 -->
  <defs
     id="defs12">
    <radialGradient
       id="radialGradient3661"
       gradientUnits="userSpaceOnUse"
       cy="29.149"
       cx="282.64999"
       gradientTransform="matrix(0.14777,0.23089,-0.2468,0.15795,-26.318,-62.617)"
       r="19.570999">
      <stop
         stop-color="#71b2f8"
         offset="0"
         id="stop2" />
      <stop
         stop-color="#002795"
         offset="1"
         id="stop4" />
    </radialGradient>
    <radialGradient
       id="radialGradient3817"
       gradientUnits="userSpaceOnUse"
       cy="33.900002"
       cx="270.57999"
       gradientTransform="matrix(0.26631,0.065024,-0.17931,0.73438,-60.668,-36.938)"
       r="19.570999">
      <stop
         stop-color="#ff6d0f"
         offset="0"
         id="stop7" />
      <stop
         stop-color="#ff1000"
         offset="1"
         id="stop9" />
    </radialGradient>
  </defs>
  <!-- Set display:none to hide FreeCAD Logo -->
  <g
     id="Ortho_1_0"
     transform="matrix(0,-25.499999,25.499999,0,1202.9625,1494.5243)">
    <g
       transform="scale(1,-1)"
       id="g137"
       style="fill:none;stroke:#000000;stroke-width:0.34999999;stroke-linecap:butt;stroke-linejoin:miter">
      <path
         id="path56"
         d="m 55.4338,-18.5 v -15" />
      <path
         id="path58"
         d="M 55.4338,-33.5 H 39" />
      <path
         id="path60"
         d="m 39,-33.5 v -3" />
      <path
         id="path62"
         d="M 39,-36.5 H 24" />
      <path
         id="path64"
         d="m 24,-36.5 v 3" />
      <path
         id="path66"
         d="M 24,-33.5 H 9" />
      <path
         id="path68"
         d="m 9,-33.5 v -3" />
      <path
         id="path70"
         d="M 9,-36.5 H -6" />
      <path
         id="path72"
         d="m -6,-36.5 -10,10" />
      <path
         id="path74"
         d="m -16,-26.5 h -8" />
      <path
         id="path76"
         d="m -24,-26.5 v 3" />
      <path
         id="path78"
         d="M -24,-23.5 H -44" />
      <path
         id="path80"
         d="m -44,-23.5 v -3" />
      <path
         id="path82"
         d="M -44,-26.5 H -56" />
      <path
         id="path84"
         d="M -56,-26.5 V -15" />
      <path
         id="path86"
         d="m -56,-15 h -3" />
      <path
         id="path88"
         d="M -59,-15 V 0" />
      <path
         id="path90"
         d="m -59,0 11,11" />
      <path
         id="path92"
         d="M -48,11 V 44" />
      <path
         id="path94"
         d="m -48,44 3,3" />
      <path
         id="path96"
         d="m -45,47 h 14" />
      <path
         id="path98"
         d="M -31,47 -16.5662,22" />
      <path
         id="path100"
         d="m -16.5662,22 h 30" />
      <path
         id="path102"
         d="m 13.4338,22 25,25" />
      <path
         id="path104"
         d="m 38.4338,47 h 17" />
      <path
         id="path106"
         d="M 55.4338,47 V 26.5" />
      <path
         id="path108"
         d="m 58.4338,26.5 h -3" />
      <path
         id="28"
         d="m 58.4338,11.5 v 15" />
      <path
         id="29"
         d="m 55.4338,11.5 h 3" />
      <path
         id="30"
         d="m 55.4338,11.5 v -15" />
      <path
         id="path113"
         d="m 58.4338,-3.5 h -3" />
      <path
         id="32"
         d="m 58.4338,-18.5 v 15" />
      <path
         id="33"
         d="m 55.4338,-18.5 h 3" />
      <circle
         cx="21.4338"
         cy="-8"
         r="18"
         id="circle117" />
      <circle
         cx="-13.5662"
         cy="-8"
         r="9"
         id="circle119" />
      <path
         id="36"
         d="m -5,10 v 3" />
      <path
         id="37"
         d="m -5,13 h -5" />
      <path
         id="38"
         d="M -10,13 V 10" />
      <path
         id="39"
         d="m -10,10 h 5" />
      <path
         id="40"
         d="m -38.4,-18.3 v 5" />
      <path
         id="41"
         d="m -38.4,-13.3 h -3" />
      <path
         id="42"
         d="m -41.4,-13.3 v -5" />
      <path
         id="43"
         d="m -41.4,-18.3 h 3" />
      <path
         id="44"
         d="m -38.4,37.1 v 5" />
      <path
         id="45"
         d="m -38.4,42.1 h -3" />
      <path
         id="46"
         d="m -41.4,42.1 v -5" />
      <path
         id="47"
         d="m -41.4,37.1 h 3" />
      <path
         id="48"
         d="m 50.4,10 v 3" />
      <path
         id="49"
         d="m 50.4,13 h -5" />
      <path
         id="50"
         d="M 45.4,13 V 10" />
      <path
         id="51"
         d="m 45.4,10 h 5" />
    </g>
  </g>
</svg>
