<?xml version="1.0" encoding="UTF-8" standalone="no"?>
<svg
   xmlns:dc="http://purl.org/dc/elements/1.1/"
   xmlns:cc="http://creativecommons.org/ns#"
   xmlns:rdf="http://www.w3.org/1999/02/22-rdf-syntax-ns#"
   xmlns:svg="http://www.w3.org/2000/svg"
   xmlns="http://www.w3.org/2000/svg"
   id="svg54"
   viewBox="0 0 669.29303 1797.0581"
   height="6792.0308"
   width="2529.6116"
   version="1.1">
  <metadata
     id="metadata58">
    <rdf:RDF>
      <cc:Work
         rdf:about="">
        <dc:format>image/svg+xml</dc:format>
        <dc:type
           rdf:resource="http://purl.org/dc/dcmitype/StillImage" />
        <dc:title></dc:title>
      </cc:Work>
    </rdf:RDF>
  </metadata>
  <!-- Working space 0 0 210 297 -->
  <defs
     id="defs12">
    <radialGradient
       r="19.570999"
       gradientTransform="matrix(0.14777,0.23089,-0.2468,0.15795,-26.318,-62.617)"
       cx="282.64999"
       cy="29.149"
       gradientUnits="userSpaceOnUse"
       id="radialGradient3661">
      <stop
         id="stop2"
         offset="0"
         stop-color="#71b2f8" />
      <stop
         id="stop4"
         offset="1"
         stop-color="#002795" />
    </radialGradient>
    <radialGradient
       r="19.570999"
       gradientTransform="matrix(0.26631,0.065024,-0.17931,0.73438,-60.668,-36.938)"
       cx="270.57999"
       cy="33.900002"
       gradientUnits="userSpaceOnUse"
       id="radialGradient3817">
      <stop
         id="stop7"
         offset="0"
         stop-color="#ff6d0f" />
      <stop
         id="stop9"
         offset="1"
         stop-color="#ff1000" />
    </radialGradient>
  </defs>
  <!-- Set display:none to hide FreeCAD Logo -->
  <g
     transform="matrix(0,-25.400115,25.400115,0,334.64652,1411.6114)"
     id="Ortho_0_0">
    <g
       style="fill:none;stroke:#000000;stroke-width:0.34999999;stroke-linecap:butt;stroke-linejoin:miter"
       id="g51"
       transform="scale(1,-1)">
      <path
         d="M 40.4,10 V -10"
         id="1" />
      <path
         d="m 40.4,-10 h 5"
         id="2" />
      <path
         d="m 45.4,-10 v -3"
         id="3" />
      <path
         d="m 45.4,-13 h 5"
         id="4" />
      <path
         d="m 50.4,-13 v 3"
         id="5" />
      <path
         d="m 50.4,-10 h 5"
         id="6" />
      <path
         d="M 55.4,-10 V 10"
         id="7" />
      <path
         d="m 50.4,10 h 5"
         id="8" />
      <path
         d="m 50.4,10 v 3"
         id="9" />
      <path
         d="m 50.4,13 h -5"
         id="10" />
      <path
         d="M 45.4,13 V 10"
         id="11" />
      <path
         d="m 40.4,10 h 5"
         id="12" />
      <circle
         id="circle31"
         r="1.5"
         cy="-5.6399999"
         cx="43" />
      <circle
         id="circle33"
         r="1.5"
         cy="5.5"
         cx="43" />
      <path
         d="m -15,-10 h 5"
         id="15" />
      <path
         d="M -15,-10 V 10"
         id="16" />
      <path
         d="m -15,10 h 5"
         id="17" />
      <path
         d="m -10,10 v 3"
         id="18" />
      <path
         d="m -10,13 h 5"
         id="19" />
      <path
         d="M -5,13 V 10"
         id="20" />
      <path
         d="M -5,10 H 0"
         id="21" />
      <path
         d="M 0,10 V -10"
         id="22" />
      <path
         d="M -5,-10 H 0"
         id="23" />
      <path
         d="m -5,-13 v 3"
         id="24" />
      <path
         d="m -10,-13 h 5"
         id="25" />
      <path
         d="m -10,-10 v -3"
         id="26" />
      <circle
         id="circle47"
         r="1.5"
         cy="5.5"
         cx="-3" />
      <circle
         id="circle49"
         r="1.5"
         cy="-5.5"
         cx="-3" />
    </g>
  </g>
</svg>
