<?xml version="1.0" encoding="UTF-8"?>

<svg xmlns="http://www.w3.org/2000/svg" version="1.1"
	width="210mm"
	height="297mm"
	viewBox="0 0 210 297">
	<!-- Working space 0 0 210 297 -->
	<defs>
		<radialGradient
			id="radialGradient3661"
			gradientUnits="userSpaceOnUse"
			cy="29.149"
			cx="282.65"
			gradientTransform="matrix(.14777 .23089 -.24680 .15795 -26.318 -62.617)"
			r="19.571">
				<stop stop-color="#71b2f8" offset="0"/>
				<stop stop-color="#002795" offset="1"/>
		</radialGradient>
		<radialGradient
			id="radialGradient3817"
			gradientUnits="userSpaceOnUse"
			cy="33.9"
			cx="270.58"
			gradientTransform="matrix(.26631 .065024 -.17931 .73438 -60.668 -36.938)"
			r="19.571">
				<stop stop-color="#ff6d0f" offset="0"/>
				<stop stop-color="#ff1000" offset="1"/>
		</radialGradient>
	</defs>
	<!-- Set display:none to hide FreeCAD Logo -->
	<g
		style="display:inline"
		id="freecad-logo"
		transform="translate(184, 272) scale(1)"
		fill-rule="evenodd"
		stroke-width=".45621">
		<path d="m0.22811 0.22835v13.256h2.9558v-5.1876h2.09v-2.0452h-2.09v-2.2075h5.1486v-3.8087l-8.1044-0.0075z"
			stroke="#370700"
			fill="url(#radialGradient3817)"/>
		<path d="m13.386 4.1792-1.7193 0.98645-0.75925-0.26348-0.72439-1.8513-1.1395 0.05988-0.51976 1.9144-0.72743 0.34835-1.8143-0.79367-0.76632 0.85156 0.98645 1.7193-0.26957 0.75702-1.8513 0.72439 0.065967 1.1417 1.9144 0.51976 0.34835 0.72743-0.79976 1.8121 0.85156 0.76632 1.7193-0.98645 0.76311 0.27179 0.7183 1.8491 1.1478-0.06375 0.51367-1.9166 0.72743-0.34835 1.8182 0.80198 0.76632-0.85156-0.98645-1.7193 0.2657-0.76533 1.8491-0.7183-0.05766-1.1456-1.9166-0.51367-0.34835-0.72743 0.7959-1.8204-0.85156-0.76632zm-2.5751 2.8195 0.35295 0.20478 0.30579 0.27725 0.24481 0.33087 0.17611 0.36787 0.10354 0.39656 0.01715 0.4064-0.0587 0.4063-0.13396 0.38571-0.2131 0.35681-0.26894 0.30192-0.33087 0.24481-0.36787 0.17611-0.39656 0.10354-0.40863 0.02325-0.4063-0.0587-0.38571-0.13396-0.35681-0.2131-0.2997-0.27503-0.24703-0.32478-0.17611-0.36787-0.10132-0.40264-0.02324-0.40863 0.05869-0.4063 0.13396-0.38571 0.21087-0.35072 0.27116-0.30801 0.33087-0.24481 0.36787-0.17611 0.40264-0.10132 0.40641-0.01715 0.4063 0.05869 0.38571 0.13396z" 
		stroke="#000137"
		fill="url(#radialGradient3661)"/>
	</g>
<g id="Ortho_0_0"
   transform="rotate(-90,18.5,150.217) translate(18.5,150.217) scale(1,1)"
  >
<g   stroke="rgb(0, 0, 0)"
   stroke-width="0.35"
   stroke-linecap="butt"
   stroke-linejoin="miter"
   fill="none"
   transform="scale(1,-1)"
  >
<path id= "1" d=" M -59 -10 L -59 -13 " />
<path id= "2" d=" M -59 -10 L -48 -10 " />
<path id= "3" d=" M -59 -13 L -48 -13 " />
<path id= "4" d=" M -48 -10 L -48 -13 " />
<path id= "5" d=" M -45 -10 L -45 -13 " />
<path id= "6" d=" M -48 -10 L -45 -10 " />
<path id= "7" d=" M -48 -13 L -45 -13 " />
<path id= "8" d=" M -31 -10 L -31 -13 " />
<path id= "9" d=" M -45 -10 L -31 -10 " />
<path id= "10" d=" M -45 -13 L -31 -13 " />
<path id= "11" d=" M -16.5662 -10 L -16.5662 -13 " />
<path id= "12" d=" M -31 -10 L -16.5662 -10 " />
<path id= "13" d=" M -31 -13 L -16.5662 -13 " />
<path id= "14" d=" M 13.4338 -10 L 13.4338 -13 " />
<path id= "15" d=" M -16.5662 -10 L 13.4338 -10 " />
<path id= "16" d=" M -16.5662 -13 L 13.4338 -13 " />
<path id= "17" d=" M 38.4338 -10 L 38.4338 -13 " />
<path id= "18" d=" M 13.4338 -10 L 38.4338 -10 " />
<path id= "19" d=" M 13.4338 -13 L 38.4338 -13 " />
<path id= "20" d=" M 55.4338 -10 L 55.4338 -13 " />
<path id= "21" d=" M 38.4338 -10 L 55.4338 -10 " />
<path id= "22" d=" M 38.4338 -13 L 55.4338 -13 " />
<path id= "23" d=" M 55.4338 -10 L 55.4338 -13 " />
<path id= "24" d=" M 58.4338 -10 L 58.4338 -13 " />
<path id= "25" d=" M 58.4338 -10 L 55.4338 -10 " />
<path id= "26" d=" M 58.4338 -13 L 55.4338 -13 " />
<path id= "27" d=" M 58.4338 -10 L 55.4338 -10 " />
<path d="M21.4338,-10 L23.0207,-10  L24.5953,-10  L26.1453,-10  L27.6585,-10  L29.1233,-10  L30.5283,-10  L31.8623,-10  L33.1152,-10  L34.2771,-10  L35.339,-10  L36.2925,-10  L37.1304,-10  L37.846,-10  L38.4338,-10 " /><path d="M3.43376,-10 L3.54694,-10  L3.88505,-10  L4.44386,-10  L5.21632,-10  L6.19272,-10  L7.36079,-10  L8.70583,-10  L10.2109,-10  L11.8572,-10  L13.6238,-10  L15.4887,-10  L17.4284,-10  L19.4184,-10  L21.4338,-10 " /><path d="M-13.5662,-10 L-13.3044,-10  L-13.0427,-10  L-12.7815,-10  L-12.5209,-10  L-12.2613,-10  L-12.0027,-10  L-11.7455,-10  L-11.4898,-10  L-11.2358,-10  L-10.9839,-10  L-10.7341,-10  L-10.4867,-10  L-10.242,-10  L-10,-10 " /><path d="M-5,-10 L-4.94067,-10  L-4.88561,-10  L-4.83485,-10  L-4.78843,-10  L-4.74635,-10  L-4.70865,-10  L-4.67534,-10  L-4.64644,-10  L-4.62196,-10  L-4.60192,-10  L-4.58632,-10  L-4.57517,-10  L-4.56847,-10  L-4.56624,-10 " /><path d="M-22.5662,-10 L-22.5315,-10  L-22.4274,-10  L-22.255,-10  L-22.0153,-10  L-21.7104,-10  L-21.3426,-10  L-20.9147,-10  L-20.43,-10  L-19.8923,-10  L-19.3058,-10  L-18.6748,-10  L-18.0044,-10  L-17.2998,-10  L-16.5662,-10 " /><path id= "33" d=" M -10 -10 L -5 -10 " />
<path id= "34" d=" M -41.4 -13 L -38.4 -13 " />
<path id= "35" d=" M 45.4 -10 L 50.4 -10 " />
</g>
</g>



<g id="Ortho_1_0"
   transform="rotate(-90,135.25,150.217) translate(135.25,150.217) scale(1,1)"
  >
<g   stroke="rgb(0, 0, 0)"
   stroke-width="0.35"
   stroke-linecap="butt"
   stroke-linejoin="miter"
   fill="none"
   transform="scale(1,-1)"
  >
<path id= "1" d=" M 55.4338 -18.5 L 55.4338 -33.5 " />
<path id= "2" d=" M 55.4338 -33.5 L 39 -33.5 " />
<path id= "3" d=" M 39 -33.5 L 39 -36.5 " />
<path id= "4" d=" M 39 -36.5 L 24 -36.5 " />
<path id= "5" d=" M 24 -36.5 L 24 -33.5 " />
<path id= "6" d=" M 24 -33.5 L 9 -33.5 " />
<path id= "7" d=" M 9 -33.5 L 9 -36.5 " />
<path id= "8" d=" M 9 -36.5 L -6 -36.5 " />
<path id= "9" d=" M -6 -36.5 L -16 -26.5 " />
<path id= "10" d=" M -16 -26.5 L -24 -26.5 " />
<path id= "11" d=" M -24 -26.5 L -24 -23.5 " />
<path id= "12" d=" M -24 -23.5 L -44 -23.5 " />
<path id= "13" d=" M -44 -23.5 L -44 -26.5 " />
<path id= "14" d=" M -44 -26.5 L -56 -26.5 " />
<path id= "15" d=" M -56 -26.5 L -56 -15 " />
<path id= "16" d=" M -56 -15 L -59 -15 " />
<path id= "17" d=" M -59 -15 L -59 3.55271e-15 " />
<path id= "18" d=" M -59 0 L -48 11 " />
<path id= "19" d=" M -48 11 L -48 44 " />
<path id= "20" d=" M -48 44 L -45 47 " />
<path id= "21" d=" M -45 47 L -31 47 " />
<path id= "22" d=" M -31 47 L -16.5662 22 " />
<path id= "23" d=" M -16.5662 22 L 13.4338 22 " />
<path id= "24" d=" M 13.4338 22 L 38.4338 47 " />
<path id= "25" d=" M 38.4338 47 L 55.4338 47 " />
<path id= "26" d=" M 55.4338 47 L 55.4338 26.5 " />
<path id= "27" d=" M 58.4338 26.5 L 55.4338 26.5 " />
<path id= "28" d=" M 58.4338 11.5 L 58.4338 26.5 " />
<path id= "29" d=" M 55.4338 11.5 L 58.4338 11.5 " />
<path id= "30" d=" M 55.4338 11.5 L 55.4338 -3.5 " />
<path id= "31" d=" M 58.4338 -3.5 L 55.4338 -3.5 " />
<path id= "32" d=" M 58.4338 -18.5 L 58.4338 -3.5 " />
<path id= "33" d=" M 55.4338 -18.5 L 58.4338 -18.5 " />
<circle cx ="21.4338" cy ="-8" r ="18" /><circle cx ="-13.5662" cy ="-8" r ="9" /><path id= "36" d=" M -5 10 L -5 13 " />
<path id= "37" d=" M -5 13 L -10 13 " />
<path id= "38" d=" M -10 13 L -10 10 " />
<path id= "39" d=" M -10 10 L -5 10 " />
<path id= "40" d=" M -38.4 -18.3 L -38.4 -13.3 " />
<path id= "41" d=" M -38.4 -13.3 L -41.4 -13.3 " />
<path id= "42" d=" M -41.4 -13.3 L -41.4 -18.3 " />
<path id= "43" d=" M -41.4 -18.3 L -38.4 -18.3 " />
<path id= "44" d=" M -38.4 37.1 L -38.4 42.1 " />
<path id= "45" d=" M -38.4 42.1 L -41.4 42.1 " />
<path id= "46" d=" M -41.4 42.1 L -41.4 37.1 " />
<path id= "47" d=" M -41.4 37.1 L -38.4 37.1 " />
<path id= "48" d=" M 50.4 10 L 50.4 13 " />
<path id= "49" d=" M 50.4 13 L 45.4 13 " />
<path id= "50" d=" M 45.4 13 L 45.4 10 " />
<path id= "51" d=" M 45.4 10 L 50.4 10 " />
</g>
</g>



</svg>

