<?xml version="1.0" encoding="UTF-8" standalone="no"?>
<svg
   xmlns:dc="http://purl.org/dc/elements/1.1/"
   xmlns:cc="http://creativecommons.org/ns#"
   xmlns:rdf="http://www.w3.org/1999/02/22-rdf-syntax-ns#"
   xmlns:svg="http://www.w3.org/2000/svg"
   xmlns="http://www.w3.org/2000/svg"
   id="svg112"
   viewBox="0 0 1686.3314 1723.3822"
   height="1723.3822mm"
   width="1686.3314mm"
   version="1.1">
  <metadata
     id="metadata116">
    <rdf:RDF>
      <cc:Work
         rdf:about="">
        <dc:format>image/svg+xml</dc:format>
        <dc:type
           rdf:resource="http://purl.org/dc/dcmitype/StillImage" />
        <dc:title></dc:title>
      </cc:Work>
    </rdf:RDF>
  </metadata>
  <!-- Working space 0 0 210 297 -->
  <defs
     id="defs12">
    <radialGradient
       r="19.570999"
       gradientTransform="matrix(0.14777,0.23089,-0.2468,0.15795,-26.318,-62.617)"
       cx="282.64999"
       cy="29.149"
       gradientUnits="userSpaceOnUse"
       id="radialGradient3661">
      <stop
         id="stop2"
         offset="0"
         stop-color="#71b2f8" />
      <stop
         id="stop4"
         offset="1"
         stop-color="#002795" />
    </radialGradient>
    <radialGradient
       r="19.570999"
       gradientTransform="matrix(0.26631,0.065024,-0.17931,0.73438,-60.668,-36.938)"
       cx="270.57999"
       cy="33.900002"
       gradientUnits="userSpaceOnUse"
       id="radialGradient3817">
      <stop
         id="stop7"
         offset="0"
         stop-color="#ff6d0f" />
      <stop
         id="stop9"
         offset="1"
         stop-color="#ff1000" />
    </radialGradient>
  </defs>
  <!-- Set display:none to hide FreeCAD Logo -->
  <g
     transform="matrix(0,25.399887,-25.399887,0,843.69012,753.74165)"
     id="Ortho_0_1">
    <g
       style="fill:none;stroke:#000000;stroke-width:0.34999999;stroke-linecap:butt;stroke-linejoin:miter"
       id="g109"
       transform="scale(1,-1)">
      <path
         d="m 21.7657,-11.4335 5.6095,-14.7938"
         id="path58" />
      <path
         id="path60"
         d="m 27.3752,-26.2273 a 5,5 0 1 0 -9.3504,-3.5454" />
      <path
         d="M 18.0248,-29.7727 8.51722,-4.88352"
         id="path62" />
      <path
         id="path64"
         d="m 8.51722,-4.88352 a 15,15 0 0 0 0,9.76704" />
      <path
         d="M 8.51722,4.88352 18.0248,29.7727"
         id="5" />
      <path
         id="path67"
         d="m 18.0248,29.7727 a 5,5 0 0 0 9.3504,-3.5454" />
      <path
         d="m 21.7657,11.4335 5.6095,14.7938"
         id="7" />
      <path
         id="path70"
         d="m 25.5,6 a 4,4 0 0 0 -3.7343,5.4335" />
      <path
         d="M 32,6 H 25.5"
         id="path72" />
      <path
         id="path74"
         d="M 32,6 A 6,6 0 0 0 32,-6" />
      <path
         d="M 32,-6 H 25.5"
         id="11" />
      <path
         id="path77"
         d="M 21.7657,-11.4335 A 4,4 0 0 0 25.5,-6" />
      <circle
         id="circle79"
         r="0.5"
         cy="28"
         cx="22.700001" />
      <circle
         id="circle81"
         r="0.5"
         cy="-28"
         cx="22.700001" />
      <circle
         id="circle83"
         r="0.5"
         cy="0"
         cx="22.700001" />
      <path
         d="M -29.5,6 V 30"
         id="16" />
      <path
         d="m -29.5,30 3,3"
         id="17" />
      <path
         d="m -26.5,33 h 4"
         id="18" />
      <path
         d="m -22.5,33 3,-3"
         id="path88" />
      <path
         d="M -19.5,30 V 6"
         id="path90" />
      <path
         id="path92"
         d="m -19.5,6 a 5,5 0 0 0 -10,0" />
      <circle
         id="circle94"
         r="0.5"
         cy="28"
         cx="-24.5" />
      <circle
         id="circle96"
         r="0.5"
         cy="6"
         cx="-24.5" />
      <path
         d="M -29.5,-6 V -30"
         id="24" />
      <path
         d="m -29.5,-30 3,-3"
         id="25" />
      <path
         d="m -26.5,-33 h 4"
         id="26" />
      <path
         d="m -22.5,-33 3,3"
         id="27" />
      <path
         d="M -19.5,-30 V -6"
         id="28" />
      <path
         id="path103"
         d="m -29.5,-6 a 5,5 0 0 0 10,0" />
      <circle
         id="circle105"
         r="0.5"
         cy="-28"
         cx="-24.5" />
      <circle
         id="circle107"
         r="0.5"
         cy="-6"
         cx="-24.5" />
    </g>
  </g>
</svg>
