<?xml version="1.0" encoding="UTF-8"?>

<svg xmlns="http://www.w3.org/2000/svg" version="1.1"
	width="210mm"
	height="297mm"
	viewBox="0 0 210 297">
	<!-- Working space 0 0 210 297 -->
	<defs>
		<radialGradient
			id="radialGradient3661"
			gradientUnits="userSpaceOnUse"
			cy="29.149"
			cx="282.65"
			gradientTransform="matrix(.14777 .23089 -.24680 .15795 -26.318 -62.617)"
			r="19.571">
				<stop stop-color="#71b2f8" offset="0"/>
				<stop stop-color="#002795" offset="1"/>
		</radialGradient>
		<radialGradient
			id="radialGradient3817"
			gradientUnits="userSpaceOnUse"
			cy="33.9"
			cx="270.58"
			gradientTransform="matrix(.26631 .065024 -.17931 .73438 -60.668 -36.938)"
			r="19.571">
				<stop stop-color="#ff6d0f" offset="0"/>
				<stop stop-color="#ff1000" offset="1"/>
		</radialGradient>
	</defs>
	<!-- Set display:none to hide FreeCAD Logo -->
	<g
		style="display:inline"
		id="freecad-logo"
		transform="translate(184, 272) scale(1)"
		fill-rule="evenodd"
		stroke-width=".45621">
		<path d="m0.22811 0.22835v13.256h2.9558v-5.1876h2.09v-2.0452h-2.09v-2.2075h5.1486v-3.8087l-8.1044-0.0075z"
			stroke="#370700"
			fill="url(#radialGradient3817)"/>
		<path d="m13.386 4.1792-1.7193 0.98645-0.75925-0.26348-0.72439-1.8513-1.1395 0.05988-0.51976 1.9144-0.72743 0.34835-1.8143-0.79367-0.76632 0.85156 0.98645 1.7193-0.26957 0.75702-1.8513 0.72439 0.065967 1.1417 1.9144 0.51976 0.34835 0.72743-0.79976 1.8121 0.85156 0.76632 1.7193-0.98645 0.76311 0.27179 0.7183 1.8491 1.1478-0.06375 0.51367-1.9166 0.72743-0.34835 1.8182 0.80198 0.76632-0.85156-0.98645-1.7193 0.2657-0.76533 1.8491-0.7183-0.05766-1.1456-1.9166-0.51367-0.34835-0.72743 0.7959-1.8204-0.85156-0.76632zm-2.5751 2.8195 0.35295 0.20478 0.30579 0.27725 0.24481 0.33087 0.17611 0.36787 0.10354 0.39656 0.01715 0.4064-0.0587 0.4063-0.13396 0.38571-0.2131 0.35681-0.26894 0.30192-0.33087 0.24481-0.36787 0.17611-0.39656 0.10354-0.40863 0.02325-0.4063-0.0587-0.38571-0.13396-0.35681-0.2131-0.2997-0.27503-0.24703-0.32478-0.17611-0.36787-0.10132-0.40264-0.02324-0.40863 0.05869-0.4063 0.13396-0.38571 0.21087-0.35072 0.27116-0.30801 0.33087-0.24481 0.36787-0.17611 0.40264-0.10132 0.40641-0.01715 0.4063 0.05869 0.38571 0.13396z" 
		stroke="#000137"
		fill="url(#radialGradient3661)"/>
	</g>
<g id="Ortho_0_0"
   transform="rotate(-90,105,139.25) translate(105,139.25) scale(1,1)"
  >
<g   stroke="rgb(0, 0, 0)"
   stroke-width="0.35"
   stroke-linecap="butt"
   stroke-linejoin="miter"
   fill="none"
   transform="scale(1,-1)"
  >
<path id= "1" d=" M -93 -12 L -96 -12 " />
<path id= "2" d=" M -93 -17 L -96 -17 " />
<path id= "3" d=" M -93 -12 L -93 -17 " />
<path id= "4" d=" M -96 -12 L -96 -17 " />
<path id= "5" d=" M -93 -47 L -96 -47 " />
<path id= "6" d=" M -93 -17 L -93 -47 " />
<path id= "7" d=" M -96 -17 L -96 -47 " />
<path id= "8" d=" M -93 -52 L -96 -52 " />
<path id= "9" d=" M -93 -47 L -93 -52 " />
<path id= "10" d=" M -96 -47 L -96 -52 " />
<path id= "11" d=" M -93 52 L -96 52 " />
<path id= "12" d=" M -93 47 L -96 47 " />
<path id= "13" d=" M -93 52 L -93 47 " />
<path id= "14" d=" M -96 52 L -96 47 " />
<path id= "15" d=" M -93 17 L -96 17 " />
<path id= "16" d=" M -93 47 L -93 17 " />
<path id= "17" d=" M -96 47 L -96 17 " />
<path id= "18" d=" M -93 12 L -96 12 " />
<path id= "19" d=" M -93 17 L -93 12 " />
<path id= "20" d=" M -96 17 L -96 12 " />
</g>
</g>



<g id="Ortho_0_1"
   transform="rotate(90,105,116.75) translate(105,116.75) scale(1,1)"
  >
<g   stroke="rgb(0, 0, 0)"
   stroke-width="0.35"
   stroke-linecap="butt"
   stroke-linejoin="miter"
   fill="none"
   transform="scale(1,-1)"
  >
<path id= "1" d=" M -32.5 12 L 30.5 12 " />
<path id= "2" d=" M 30.5 12 L 35.5 17 " />
<path id= "3" d=" M 35.5 17 L 35.5 47 " />
<path id= "4" d=" M 35.5 47 L 30.5 52 " />
<path id= "5" d=" M 30.5 52 L -32.5 52 " />
<path id= "6" d=" M -32.5 52 L -37.5 47 " />
<path id= "7" d=" M -37.5 47 L -37.5 17 " />
<path id= "8" d=" M -37.5 17 L -32.5 12 " />
<path id= "9" d=" M 27.5 36 L 30.5 36 " />
<path id= "10" d=" M 30.5 36 L 30.5 44 " />
<path id= "11" d=" M 30.5 44 L 27.5 44 " />
<path id= "12" d=" M 27.5 44 L 27.5 36 " />
<path id= "13" d=" M 27.5 20 L 30.5 20 " />
<path id= "14" d=" M 30.5 20 L 30.5 28 " />
<path id= "15" d=" M 30.5 28 L 27.5 28 " />
<path id= "16" d=" M 27.5 28 L 27.5 20 " />
<path id= "17" d=" M -32.5 36 L -29.5 36 " />
<path id= "18" d=" M -29.5 36 L -29.5 44 " />
<path id= "19" d=" M -29.5 44 L -32.5 44 " />
<path id= "20" d=" M -32.5 44 L -32.5 36 " />
<path id= "21" d=" M -32.5 20 L -29.5 20 " />
<path id= "22" d=" M -29.5 20 L -29.5 28 " />
<path id= "23" d=" M -29.5 28 L -32.5 28 " />
<path id= "24" d=" M -32.5 28 L -32.5 20 " />
<path id= "25" d=" M -32.5 -52 L 30.5 -52 " />
<path id= "26" d=" M 30.5 -52 L 35.5 -47 " />
<path id= "27" d=" M 35.5 -47 L 35.5 -17 " />
<path id= "28" d=" M 35.5 -17 L 30.5 -12 " />
<path id= "29" d=" M 30.5 -12 L -32.5 -12 " />
<path id= "30" d=" M -32.5 -12 L -37.5 -17 " />
<path id= "31" d=" M -37.5 -17 L -37.5 -47 " />
<path id= "32" d=" M -37.5 -47 L -32.5 -52 " />
<path id= "33" d=" M 27.5 -28 L 30.5 -28 " />
<path id= "34" d=" M 30.5 -28 L 30.5 -20 " />
<path id= "35" d=" M 30.5 -20 L 27.5 -20 " />
<path id= "36" d=" M 27.5 -20 L 27.5 -28 " />
<path id= "37" d=" M 27.5 -44 L 30.5 -44 " />
<path id= "38" d=" M 30.5 -44 L 30.5 -36 " />
<path id= "39" d=" M 30.5 -36 L 27.5 -36 " />
<path id= "40" d=" M 27.5 -36 L 27.5 -44 " />
<path id= "41" d=" M -32.5 -28 L -29.5 -28 " />
<path id= "42" d=" M -29.5 -28 L -29.5 -20 " />
<path id= "43" d=" M -29.5 -20 L -32.5 -20 " />
<path id= "44" d=" M -32.5 -20 L -32.5 -28 " />
<path id= "45" d=" M -32.5 -44 L -29.5 -44 " />
<path id= "46" d=" M -29.5 -44 L -29.5 -36 " />
<path id= "47" d=" M -29.5 -36 L -32.5 -36 " />
<path id= "48" d=" M -32.5 -36 L -32.5 -44 " />
</g>
</g>



</svg>

