<?xml version="1.0" encoding="UTF-8" standalone="no"?>
<svg
   xmlns:dc="http://purl.org/dc/elements/1.1/"
   xmlns:cc="http://creativecommons.org/ns#"
   xmlns:rdf="http://www.w3.org/1999/02/22-rdf-syntax-ns#"
   xmlns:svg="http://www.w3.org/2000/svg"
   xmlns="http://www.w3.org/2000/svg"
   id="svg113"
   viewBox="0 0 2650.49 1863.09"
   height="1863.09mm"
   width="2650.49mm"
   version="1.1">
  <metadata
     id="metadata117">
    <rdf:RDF>
      <cc:Work
         rdf:about="">
        <dc:format>image/svg+xml</dc:format>
        <dc:type
           rdf:resource="http://purl.org/dc/dcmitype/StillImage" />
        <dc:title></dc:title>
      </cc:Work>
    </rdf:RDF>
  </metadata>
  <!-- Working space 0 0 210 297 -->
  <defs
     id="defs12">
    <radialGradient
       r="19.570999"
       gradientTransform="matrix(0.14777,0.23089,-0.2468,0.15795,-26.318,-62.617)"
       cx="282.64999"
       cy="29.149"
       gradientUnits="userSpaceOnUse"
       id="radialGradient3661">
      <stop
         id="stop2"
         offset="0"
         stop-color="#71b2f8" />
      <stop
         id="stop4"
         offset="1"
         stop-color="#002795" />
    </radialGradient>
    <radialGradient
       r="19.570999"
       gradientTransform="matrix(0.26631,0.065024,-0.17931,0.73438,-60.668,-36.938)"
       cx="270.57999"
       cy="33.900002"
       gradientUnits="userSpaceOnUse"
       id="radialGradient3817">
      <stop
         id="stop7"
         offset="0"
         stop-color="#ff6d0f" />
      <stop
         id="stop9"
         offset="1"
         stop-color="#ff1000" />
    </radialGradient>
  </defs>
  <!-- Set display:none to hide FreeCAD Logo -->
  <g
     transform="matrix(0,25.4,-25.4,0,1325.245,956.945)"
     id="Ortho_0_1">
    <g
       style="fill:none;stroke:#000000;stroke-width:0.34999999;stroke-linecap:butt;stroke-linejoin:miter"
       id="g110"
       transform="scale(1,-1)">
      <path
         d="m -32.5,12 h 63"
         id="path42" />
      <path
         d="m 30.5,12 5,5"
         id="path44" />
      <path
         d="M 35.5,17 V 47"
         id="path46" />
      <path
         d="m 35.5,47 -5,5"
         id="path48" />
      <path
         d="m 30.5,52 h -63"
         id="path50" />
      <path
         d="m -32.5,52 -5,-5"
         id="path52" />
      <path
         d="M -37.5,47 V 17"
         id="path54" />
      <path
         d="m -37.5,17 5,-5"
         id="path56" />
      <path
         d="m 27.5,36 h 3"
         id="path58" />
      <path
         d="m 30.5,36 v 8"
         id="path60" />
      <path
         d="m 30.5,44 h -3"
         id="path62" />
      <path
         d="M 27.5,44 V 36"
         id="path64" />
      <path
         d="m 27.5,20 h 3"
         id="path66" />
      <path
         d="m 30.5,20 v 8"
         id="path68" />
      <path
         d="m 30.5,28 h -3"
         id="path70" />
      <path
         d="M 27.5,28 V 20"
         id="path72" />
      <path
         d="m -32.5,36 h 3"
         id="path74" />
      <path
         d="m -29.5,36 v 8"
         id="path76" />
      <path
         d="m -29.5,44 h -3"
         id="path78" />
      <path
         d="M -32.5,44 V 36"
         id="path80" />
      <path
         d="m -32.5,20 h 3"
         id="21" />
      <path
         d="m -29.5,20 v 8"
         id="22" />
      <path
         d="m -29.5,28 h -3"
         id="23" />
      <path
         d="M -32.5,28 V 20"
         id="24" />
      <path
         d="m -32.5,-52 h 63"
         id="25" />
      <path
         d="m 30.5,-52 5,5"
         id="26" />
      <path
         d="m 35.5,-47 v 30"
         id="27" />
      <path
         d="m 35.5,-17 -5,5"
         id="28" />
      <path
         d="m 30.5,-12 h -63"
         id="29" />
      <path
         d="m -32.5,-12 -5,-5"
         id="30" />
      <path
         d="M -37.5,-17 V -47"
         id="31" />
      <path
         d="m -37.5,-47 5,-5"
         id="32" />
      <path
         d="m 27.5,-28 h 3"
         id="33" />
      <path
         d="m 30.5,-28 v 8"
         id="34" />
      <path
         d="m 30.5,-20 h -3"
         id="35" />
      <path
         d="m 27.5,-20 v -8"
         id="36" />
      <path
         d="m 27.5,-44 h 3"
         id="37" />
      <path
         d="m 30.5,-44 v 8"
         id="38" />
      <path
         d="m 30.5,-36 h -3"
         id="39" />
      <path
         d="m 27.5,-36 v -8"
         id="40" />
      <path
         d="m -32.5,-28 h 3"
         id="41" />
      <path
         d="m -29.5,-28 v 8"
         id="42" />
      <path
         d="m -29.5,-20 h -3"
         id="43" />
      <path
         d="m -32.5,-20 v -8"
         id="44" />
      <path
         d="m -32.5,-44 h 3"
         id="45" />
      <path
         d="m -29.5,-44 v 8"
         id="46" />
      <path
         d="m -29.5,-36 h -3"
         id="47" />
      <path
         d="m -32.5,-36 v -8"
         id="48" />
    </g>
  </g>
</svg>
