<?xml version="1.0" encoding="UTF-8"?>

<svg xmlns="http://www.w3.org/2000/svg" version="1.1"
	width="210mm"
	height="297mm"
	viewBox="0 0 210 297">
	<!-- Working space 0 0 210 297 -->
	<defs>
		<radialGradient
			id="radialGradient3661"
			gradientUnits="userSpaceOnUse"
			cy="29.149"
			cx="282.65"
			gradientTransform="matrix(.14777 .23089 -.24680 .15795 -26.318 -62.617)"
			r="19.571">
				<stop stop-color="#71b2f8" offset="0"/>
				<stop stop-color="#002795" offset="1"/>
		</radialGradient>
		<radialGradient
			id="radialGradient3817"
			gradientUnits="userSpaceOnUse"
			cy="33.9"
			cx="270.58"
			gradientTransform="matrix(.26631 .065024 -.17931 .73438 -60.668 -36.938)"
			r="19.571">
				<stop stop-color="#ff6d0f" offset="0"/>
				<stop stop-color="#ff1000" offset="1"/>
		</radialGradient>
	</defs>
	<!-- Set display:none to hide FreeCAD Logo -->
	<g
		style="display:inline"
		id="freecad-logo"
		transform="translate(184, 272) scale(1)"
		fill-rule="evenodd"
		stroke-width=".45621">
		<path d="m0.22811 0.22835v13.256h2.9558v-5.1876h2.09v-2.0452h-2.09v-2.2075h5.1486v-3.8087l-8.1044-0.0075z"
			stroke="#370700"
			fill="url(#radialGradient3817)"/>
		<path d="m13.386 4.1792-1.7193 0.98645-0.75925-0.26348-0.72439-1.8513-1.1395 0.05988-0.51976 1.9144-0.72743 0.34835-1.8143-0.79367-0.76632 0.85156 0.98645 1.7193-0.26957 0.75702-1.8513 0.72439 0.065967 1.1417 1.9144 0.51976 0.34835 0.72743-0.79976 1.8121 0.85156 0.76632 1.7193-0.98645 0.76311 0.27179 0.7183 1.8491 1.1478-0.06375 0.51367-1.9166 0.72743-0.34835 1.8182 0.80198 0.76632-0.85156-0.98645-1.7193 0.2657-0.76533 1.8491-0.7183-0.05766-1.1456-1.9166-0.51367-0.34835-0.72743 0.7959-1.8204-0.85156-0.76632zm-2.5751 2.8195 0.35295 0.20478 0.30579 0.27725 0.24481 0.33087 0.17611 0.36787 0.10354 0.39656 0.01715 0.4064-0.0587 0.4063-0.13396 0.38571-0.2131 0.35681-0.26894 0.30192-0.33087 0.24481-0.36787 0.17611-0.39656 0.10354-0.40863 0.02325-0.4063-0.0587-0.38571-0.13396-0.35681-0.2131-0.2997-0.27503-0.24703-0.32478-0.17611-0.36787-0.10132-0.40264-0.02324-0.40863 0.05869-0.4063 0.13396-0.38571 0.21087-0.35072 0.27116-0.30801 0.33087-0.24481 0.36787-0.17611 0.40264-0.10132 0.40641-0.01715 0.4063 0.05869 0.38571 0.13396z" 
		stroke="#000137"
		fill="url(#radialGradient3661)"/>
	</g>
<g id="Ortho_0_0"
   transform="rotate(-90,100,139.5) translate(100,139.5) scale(1,1)"
  >
<g   stroke="rgb(0, 0, 0)"
   stroke-width="0.35"
   stroke-linecap="butt"
   stroke-linejoin="miter"
   fill="none"
   transform="scale(1,-1)"
  >
<path id= "1" d=" M -62 33 L -59 33 " />
<path id= "2" d=" M -62 -33 L -59 -33 " />
</g>
<g   stroke="rgb(0, 0, 0)"
   stroke-width="0.35"
   stroke-linecap="butt"
   stroke-linejoin="miter"
   fill="none"
   transform="scale(1,-1)"
  >
<path id= "1" d=" M -59 11.4335 L -62 11.4335 " />
<path id= "2" d=" M -59 11.4335 L -59 26.2273 " />
<path id= "3" d=" M -62 11.4335 L -62 26.2273 " />
<path d="M-59,26.2273 L-59,26.8877  L-59,27.5693  L-59,28.2591  L-59,28.9439  L-59,29.6108  L-59,30.247  L-59,30.8405  L-59,31.3798  L-59,31.8548  L-59,32.2565  L-59,32.5771  L-59,32.8105  L-59,32.9524  L-59,33 " /><path d="M-62,26.2273 L-62,26.8877  L-62,27.5693  L-62,28.2591  L-62,28.9439  L-62,29.6108  L-62,30.247  L-62,30.8405  L-62,31.3798  L-62,31.8548  L-62,32.2565  L-62,32.5771  L-62,32.8105  L-62,32.9524  L-62,33 " /><path d="M-59,-33 L-59,-32.9524  L-59,-32.8105  L-59,-32.5771  L-59,-32.2565  L-59,-31.8548  L-59,-31.3798  L-59,-30.8405  L-59,-30.247  L-59,-29.6108  L-59,-28.9439  L-59,-28.2591  L-59,-27.5693  L-59,-26.8877  L-59,-26.2273 " /><path d="M-62,-33 L-62,-32.9524  L-62,-32.8105  L-62,-32.5771  L-62,-32.2565  L-62,-31.8548  L-62,-31.3798  L-62,-30.8405  L-62,-30.247  L-62,-29.6108  L-62,-28.9439  L-62,-28.2591  L-62,-27.5693  L-62,-26.8877  L-62,-26.2273 " /><path id= "8" d=" M -59 -11.4335 L -62 -11.4335 " />
<path id= "9" d=" M -59 -11.4335 L -59 -26.2273 " />
<path id= "10" d=" M -62 -11.4335 L -62 -26.2273 " />
<path d="M-59,-6 L-59,-6.03824  L-59,-6.15222  L-59,-6.33976  L-59,-6.59728  L-59,-6.91986  L-59,-7.30132  L-59,-7.73438  L-59,-8.21075  L-59,-8.72133  L-59,-9.25635  L-59,-9.8056  L-59,-10.3586  L-59,-10.9047  L-59,-11.4335 " /><path d="M-62,-6 L-62,-6.03824  L-62,-6.15222  L-62,-6.33976  L-62,-6.59728  L-62,-6.91986  L-62,-7.30132  L-62,-7.73438  L-62,-8.21075  L-62,-8.72133  L-62,-9.25635  L-62,-9.8056  L-62,-10.3586  L-62,-10.9047  L-62,-11.4335 " /><path id= "13" d=" M -59 -6 L -62 -6 " />
<path id= "14" d=" M -59 6 L -62 6 " />
<path d="M-59,-6 L-59,-5.84957  L-59,-5.40581  L-59,-4.69099  L-59,-3.74094  L-59,-2.6033  L-59,-1.33513  L-59,-1.46958e-15  L-59,1.33513  L-59,2.6033  L-59,3.74094  L-59,4.69099  L-59,5.40581  L-59,5.84957  L-59,6 " /><path d="M-62,-6 L-62,-5.84957  L-62,-5.40581  L-62,-4.69099  L-62,-3.74094  L-62,-2.6033  L-62,-1.33513  L-62,-1.83697e-15  L-62,1.33513  L-62,2.6033  L-62,3.74094  L-62,4.69099  L-62,5.40581  L-62,5.84957  L-62,6 " /><path d="M-59,11.4335 L-59,10.9047  L-59,10.3586  L-59,9.8056  L-59,9.25635  L-59,8.72133  L-59,8.21075  L-59,7.73438  L-59,7.30132  L-59,6.91986  L-59,6.59728  L-59,6.33976  L-59,6.15222  L-59,6.03824  L-59,6 " /><path d="M-62,11.4335 L-62,10.9047  L-62,10.3586  L-62,9.8056  L-62,9.25635  L-62,8.72133  L-62,8.21075  L-62,7.73438  L-62,7.30132  L-62,6.91986  L-62,6.59728  L-62,6.33976  L-62,6.15222  L-62,6.03824  L-62,6 " /><path id= "19" d=" M -59 -26.2273 L -59 -11.4335 " />
<path id= "20" d=" M -62 26.2273 L -62 11.4335 " />
</g>
</g>



<g id="Ortho_0_1"
   transform="rotate(90,100,95.75) translate(100,95.75) scale(1,1)"
  >
<g   stroke="rgb(0, 0, 0)"
   stroke-width="0.35"
   stroke-linecap="butt"
   stroke-linejoin="miter"
   fill="none"
   transform="scale(1,-1)"
  >
<path id= "1" d=" M 21.7657 -11.4335 L 27.3752 -26.2273 " />
<path d="M27.3752 -26.2273 A5 5 0 1 0 18.0248 -29.7727" /><path id= "3" d=" M 18.0248 -29.7727 L 8.51722 -4.88352 " />
<path d="M8.51722 -4.88352 A15 15 0 0 0 8.51722 4.88352" /><path id= "5" d=" M 8.51722 4.88352 L 18.0248 29.7727 " />
<path d="M18.0248 29.7727 A5 5 0 0 0 27.3752 26.2273" /><path id= "7" d=" M 21.7657 11.4335 L 27.3752 26.2273 " />
<path d="M25.5 6 A4 4 0 0 0 21.7657 11.4335" /><path id= "9" d=" M 32 6 L 25.5 6 " />
<path d="M32 6 A6 6 0 0 0 32 -6" /><path id= "11" d=" M 32 -6 L 25.5 -6 " />
<path d="M21.7657 -11.4335 A4 4 0 0 0 25.5 -6" /><circle cx ="22.7" cy ="28" r ="0.5" /><circle cx ="22.7" cy ="-28" r ="0.5" /><circle cx ="22.7" cy ="0" r ="0.5" /><path id= "16" d=" M -29.5 6 L -29.5 30 " />
<path id= "17" d=" M -29.5 30 L -26.5 33 " />
<path id= "18" d=" M -26.5 33 L -22.5 33 " />
<path id= "19" d=" M -22.5 33 L -19.5 30 " />
<path id= "20" d=" M -19.5 30 L -19.5 6 " />
<path d="M-19.5 6 A5 5 0 0 0 -29.5 6" /><circle cx ="-24.5" cy ="28" r ="0.5" /><circle cx ="-24.5" cy ="6" r ="0.5" /><path id= "24" d=" M -29.5 -6 L -29.5 -30 " />
<path id= "25" d=" M -29.5 -30 L -26.5 -33 " />
<path id= "26" d=" M -26.5 -33 L -22.5 -33 " />
<path id= "27" d=" M -22.5 -33 L -19.5 -30 " />
<path id= "28" d=" M -19.5 -30 L -19.5 -6 " />
<path d="M-29.5 -6 A5 5 0 0 0 -19.5 -6" /><circle cx ="-24.5" cy ="-28" r ="0.5" /><circle cx ="-24.5" cy ="-6" r ="0.5" /></g>
</g>



</svg>

