<?xml version="1.0" encoding="UTF-8"?>

<svg xmlns="http://www.w3.org/2000/svg" version="1.1"
	width="210mm"
	height="297mm"
	viewBox="0 0 210 297">
	<!-- Working space 0 0 210 297 -->
	<defs>
		<radialGradient
			id="radialGradient3661"
			gradientUnits="userSpaceOnUse"
			cy="29.149"
			cx="282.65"
			gradientTransform="matrix(.14777 .23089 -.24680 .15795 -26.318 -62.617)"
			r="19.571">
				<stop stop-color="#71b2f8" offset="0"/>
				<stop stop-color="#002795" offset="1"/>
		</radialGradient>
		<radialGradient
			id="radialGradient3817"
			gradientUnits="userSpaceOnUse"
			cy="33.9"
			cx="270.58"
			gradientTransform="matrix(.26631 .065024 -.17931 .73438 -60.668 -36.938)"
			r="19.571">
				<stop stop-color="#ff6d0f" offset="0"/>
				<stop stop-color="#ff1000" offset="1"/>
		</radialGradient>
	</defs>
	<!-- Set display:none to hide FreeCAD Logo -->
	<g
		style="display:inline"
		id="freecad-logo"
		transform="translate(184, 272) scale(1)"
		fill-rule="evenodd"
		stroke-width=".45621">
		<path d="m0.22811 0.22835v13.256h2.9558v-5.1876h2.09v-2.0452h-2.09v-2.2075h5.1486v-3.8087l-8.1044-0.0075z"
			stroke="#370700"
			fill="url(#radialGradient3817)"/>
		<path d="m13.386 4.1792-1.7193 0.98645-0.75925-0.26348-0.72439-1.8513-1.1395 0.05988-0.51976 1.9144-0.72743 0.34835-1.8143-0.79367-0.76632 0.85156 0.98645 1.7193-0.26957 0.75702-1.8513 0.72439 0.065967 1.1417 1.9144 0.51976 0.34835 0.72743-0.79976 1.8121 0.85156 0.76632 1.7193-0.98645 0.76311 0.27179 0.7183 1.8491 1.1478-0.06375 0.51367-1.9166 0.72743-0.34835 1.8182 0.80198 0.76632-0.85156-0.98645-1.7193 0.2657-0.76533 1.8491-0.7183-0.05766-1.1456-1.9166-0.51367-0.34835-0.72743 0.7959-1.8204-0.85156-0.76632zm-2.5751 2.8195 0.35295 0.20478 0.30579 0.27725 0.24481 0.33087 0.17611 0.36787 0.10354 0.39656 0.01715 0.4064-0.0587 0.4063-0.13396 0.38571-0.2131 0.35681-0.26894 0.30192-0.33087 0.24481-0.36787 0.17611-0.39656 0.10354-0.40863 0.02325-0.4063-0.0587-0.38571-0.13396-0.35681-0.2131-0.2997-0.27503-0.24703-0.32478-0.17611-0.36787-0.10132-0.40264-0.02324-0.40863 0.05869-0.4063 0.13396-0.38571 0.21087-0.35072 0.27116-0.30801 0.33087-0.24481 0.36787-0.17611 0.40264-0.10132 0.40641-0.01715 0.4063 0.05869 0.38571 0.13396z" 
		stroke="#000137"
		fill="url(#radialGradient3661)"/>
	</g>
<g id="Ortho_0_0"
   transform="rotate(-90,100,142.5) translate(100,142.5) scale(1,1)"
  >
<g   stroke="rgb(0, 0, 0)"
   stroke-width="0.35"
   stroke-linecap="butt"
   stroke-linejoin="miter"
   fill="none"
   transform="scale(1,-1)"
  >
<path id= "1" d=" M -59 6.5 L -56 6.5 " />
</g>
<g   stroke="rgb(0, 0, 0)"
   stroke-width="0.35"
   stroke-linecap="butt"
   stroke-linejoin="miter"
   fill="none"
   transform="scale(1,-1)"
  >
<path id= "1" d=" M -56 13 L -59 13 " />
<path id= "2" d=" M -56 10 L -59 10 " />
<path id= "3" d=" M -56 13 L -56 10 " />
<path id= "4" d=" M -59 13 L -59 10 " />
<path id= "5" d=" M -56 10 L -59 10 " />
<path id= "6" d=" M -56 6.5 L -59 6.5 " />
<path id= "7" d=" M -56 10 L -56 6.5 " />
<path id= "8" d=" M -59 10 L -59 6.5 " />
<path id= "9" d=" M -56 2.5 L -59 2.5 " />
<path id= "10" d=" M -56 6.5 L -56 2.5 " />
<path id= "11" d=" M -59 6.5 L -59 2.5 " />
<path id= "12" d=" M -56 -2.5 L -59 -2.5 " />
<path id= "13" d=" M -56 2.5 L -56 -2.5 " />
<path id= "14" d=" M -59 2.5 L -59 -2.5 " />
<path id= "15" d=" M -56 -6.5 L -59 -6.5 " />
<path id= "16" d=" M -56 -2.5 L -56 -6.5 " />
<path id= "17" d=" M -59 -2.5 L -59 -6.5 " />
<path id= "18" d=" M -56 -10 L -59 -10 " />
<path id= "19" d=" M -56 -6.5 L -56 -10 " />
<path id= "20" d=" M -59 -6.5 L -59 -10 " />
<path id= "21" d=" M -56 -10 L -59 -10 " />
<path id= "22" d=" M -56 -13 L -59 -13 " />
<path id= "23" d=" M -56 -10 L -56 -13 " />
<path id= "24" d=" M -59 -10 L -59 -13 " />
<path d="M-56,-6 L-56,-5.94402  L-56,-5.88874  L-56,-5.83486  L-56,-5.78306  L-56,-5.73398  L-56,-5.68826  L-56,-5.64645  L-56,-5.60908  L-56,-5.57664  L-56,-5.54952  L-56,-5.52806  L-56,-5.51254  L-56,-5.50314  L-56,-5.5 " /><path d="M-56,-6.5 L-56,-6.49686  L-56,-6.48746  L-56,-6.47194  L-56,-6.45048  L-56,-6.42336  L-56,-6.39092  L-56,-6.35355  L-56,-6.31174  L-56,-6.26602  L-56,-6.21694  L-56,-6.16514  L-56,-6.11126  L-56,-6.05598  L-56,-6 " /><path d="M-59,6 L-59,6.05598  L-59,6.11126  L-59,6.16514  L-59,6.21694  L-59,6.26602  L-59,6.31174  L-59,6.35355  L-59,6.39092  L-59,6.42336  L-59,6.45048  L-59,6.47194  L-59,6.48746  L-59,6.49686  L-59,6.5 " /><path d="M-59,5.5 L-59,5.50314  L-59,5.51254  L-59,5.52806  L-59,5.54952  L-59,5.57664  L-59,5.60908  L-59,5.64645  L-59,5.68826  L-59,5.73398  L-59,5.78306  L-59,5.83486  L-59,5.88874  L-59,5.94402  L-59,6 " /></g>
</g>



<g id="Ortho_0_1"
   transform="rotate(90,100,114.75) translate(100,114.75) scale(1,1)"
  >
<g   stroke="rgb(0, 0, 0)"
   stroke-width="0.35"
   stroke-linecap="butt"
   stroke-linejoin="miter"
   fill="none"
   transform="scale(1,-1)"
  >
<path id= "1" d=" M -26.5 -13 L -15 -13 " />
<path id= "2" d=" M -15 -13 L -15 -10 " />
<path id= "3" d=" M -15 -10 L 0 -10 " />
<path id= "4" d=" M 0 -10 L 0 -6.5 " />
<path id= "5" d=" M 0 -6.5 L -4 -2.5 " />
<path id= "6" d=" M -4 -2.5 L -4 2.5 " />
<path id= "7" d=" M -4 2.5 L 0 6.5 " />
<path id= "8" d=" M 0 6.5 L 0 10 " />
<path id= "9" d=" M 0 10 L -15 10 " />
<path id= "10" d=" M -15 10 L -15 13 " />
<path id= "11" d=" M -15 13 L -26.5 13 " />
<path id= "12" d=" M -26.5 13 L -29.5 10 " />
<path id= "13" d=" M -29.5 10 L -29.5 -10 " />
<path id= "14" d=" M -29.5 -10 L -26.5 -13 " />
<circle cx ="-24.5" cy ="6" r ="0.5" /><circle cx ="-24.5" cy ="-6" r ="0.5" /></g>
</g>



</svg>

