999
dxfrw 0.6.3
  0
SECTION
  2
HEADER
  9
$ACADVER
  1
AC1021
  9
$DWGCODEPAGE
  3
ANSI_1252
  9
$INSBASE
 10
0
 20
0
 30
0
  9
$EXTMIN
 10
-2.821302974020945e-15
 20
-3.25
 30
0
  9
$EXTMAX
 10
210.001143537983
 20
290.007260577149
 30
0
  9
$LIMMIN
 10
0
 20
0
  9
$LIMMAX
 10
420
 20
297
  9
$ORTHOMODE
 70
    0
  9
$REGENMODE
 70
    1
  9
$FILLMODE
 70
    0
  9
$QTEXTMODE
 70
    0
  9
$MIRRTEXT
 70
    0
  9
$LTSCALE
 40
1
  9
$ATTMODE
 70
    0
  9
$TEXTSIZE
 40
2.5
  9
$TRACEWID
 40
15.68
  9
$TEXTSTYLE
  7
STANDARD
  9
$CLAYER
  8
0
  9
$CELTYPE
  6
BYLAYER
  9
$CECOLOR
 62
  256
  9
$CELTSCALE
 40
1
  9
$DISPSILH
 70
    0
  9
$DIMSCALE
 40
1
  9
$DIMASZ
 40
2.5
  9
$DIMEXO
 40
0.625
  9
$DIMDLI
 40
3.75
  9
$DIMRND
 40
0
  9
$DIMDLE
 40
0
  9
$DIMEXE
 40
1.25
  9
$DIMTP
 40
0
  9
$DIMTM
 40
0
  9
$DIMTXT
 40
2.5
  9
$DIMCEN
 40
2.5
  9
$DIMTSZ
 40
0
  9
$DIMTOL
 70
    0
  9
$DIMLIM
 70
    0
  9
$DIMTIH
 70
    0
  9
$DIMTOH
 70
    0
  9
$DIMSE1
 70
    0
  9
$DIMSE2
 70
    0
  9
$DIMTAD
 70
    1
  9
$DIMZIN
 70
    8
  9
$DIMBLK
  1

  9
$DIMASO
 70
    1
  9
$DIMSHO
 70
    1
  9
$DIMPOST
  1

  9
$DIMAPOST
  1

  9
$DIMALT
 70
    0
  9
$DIMALTD
 70
    3
  9
$DIMALTF
 40
0.03937
  9
$DIMLFAC
 40
1
  9
$DIMTOFL
 70
    1
  9
$DIMTVP
 40
0
  9
$DIMTIX
 70
    0
  9
$DIMSOXD
 70
    0
  9
$DIMSAH
 70
    0
  9
$DIMBLK1
  1

  9
$DIMBLK2
  1

  9
$DIMSTYLE
  2
Standard
  9
$DIMCLRD
 70
    0
  9
$DIMCLRE
 70
    0
  9
$DIMCLRT
 70
    0
  9
$DIMTFAC
 40
1
  9
$DIMGAP
 40
0.625
  9
$DIMJUST
 70
    0
  9
$DIMSD1
 70
    0
  9
$DIMSD2
 70
    0
  9
$DIMTOLJ
 70
    0
  9
$DIMTZIN
 70
    8
  9
$DIMALTZ
 70
    0
  9
$DIMALTTZ
 70
    0
  9
$DIMUPT
 70
    0
  9
$DIMDEC
 70
    2
  9
$DIMTDEC
 70
    2
  9
$DIMALTU
 70
    2
  9
$DIMALTTD
 70
    3
  9
$DIMTXSTY
  7
STANDARD
  9
$DIMAUNIT
 70
    0
  9
$DIMADEC
 70
    0
  9
$DIMALTRND
 40
0
  9
$DIMAZIN
 70
    0
  9
$DIMDSEP
 70
   44
  9
$DIMATFIT
 70
    3
  9
$DIMFRAC
 70
    0
  9
$DIMLDRBLK
  1
STANDARD
  9
$DIMLUNIT
 70
    2
  9
$DIMLWD
 70
   -2
  9
$DIMLWE
 70
   -2
  9
$DIMTMOVE
 70
    0
  9
$DIMFXL
 40
1
  9
$DIMFXLON
 70
    0
  9
$DIMJOGANG
 40
0.7854
  9
$DIMTFILL
 70
    0
  9
$DIMTFILLCLR
 70
    0
  9
$DIMARCSYM
 70
    0
  9
$DIMLTYPE
  6

  9
$DIMLTEX1
  6

  9
$DIMLTEX2
  6

  9
$LUNITS
 70
    2
  9
$LUPREC
 70
    4
  9
$SKETCHINC
 40
1
  9
$FILLETRAD
 40
0
  9
$AUNITS
 70
    0
  9
$AUPREC
 70
    2
  9
$MENU
  1
.
  9
$ELEVATION
 40
0
  9
$PELEVATION
 40
0
  9
$THICKNESS
 40
0
  9
$LIMCHECK
 70
    0
  9
$CHAMFERA
 40
0
  9
$CHAMFERB
 40
0
  9
$CHAMFERC
 40
0
  9
$CHAMFERD
 40
0
  9
$SKPOLY
 70
    0
  9
$USRTIMER
 70
    1
  9
$ANGBASE
 50
0
  9
$ANGDIR
 70
    0
  9
$PDMODE
 70
   34
  9
$PDSIZE
 40
0
  9
$PLINEWID
 40
0
  9
$SPLFRAME
 70
    1
  9
$SPLINETYPE
 70
    2
  9
$SPLINESEGS
 70
    8
  9
$HANDSEED
  5
20000
  9
$SURFTAB1
 70
    6
  9
$SURFTAB2
 70
    6
  9
$SURFTYPE
 70
    6
  9
$SURFU
 70
    6
  9
$SURFV
 70
    6
  9
$UCSBASE
  2

  9
$UCSNAME
  2

  9
$UCSORG
 10
0
 20
0
 30
0
  9
$UCSXDIR
 10
1
 20
0
 30
0
  9
$UCSYDIR
 10
0
 20
1
 30
0
  9
$UCSORTHOREF
  2

  9
$UCSORTHOVIEW
 70
    0
  9
$UCSORGTOP
 10
0
 20
0
 30
0
  9
$UCSORGBOTTOM
 10
0
 20
0
 30
0
  9
$UCSORGLEFT
 10
0
 20
0
 30
0
  9
$UCSORGRIGHT
 10
0
 20
0
 30
0
  9
$UCSORGFRONT
 10
0
 20
0
 30
0
  9
$UCSORGBACK
 10
0
 20
0
 30
0
  9
$PUCSBASE
  2

  9
$PUCSNAME
  2

  9
$PUCSORG
 10
0
 20
0
 30
0
  9
$PUCSXDIR
 10
1
 20
0
 30
0
  9
$PUCSYDIR
 10
0
 20
1
 30
0
  9
$PUCSORTHOREF
  2

  9
$PUCSORTHOVIEW
 70
    0
  9
$PUCSORGTOP
 10
0
 20
0
 30
0
  9
$PUCSORGBOTTOM
 10
0
 20
0
 30
0
  9
$PUCSORGLEFT
 10
0
 20
0
 30
0
  9
$PUCSORGRIGHT
 10
0
 20
0
 30
0
  9
$PUCSORGFRONT
 10
0
 20
0
 30
0
  9
$PUCSORGBACK
 10
0
 20
0
 30
0
  9
$USERI1
 70
    0
  9
$USERI2
 70
    0
  9
$USERI3
 70
    0
  9
$USERI4
 70
    0
  9
$USERI5
 70
    0
  9
$USERR1
 40
0
  9
$USERR2
 40
0
  9
$USERR3
 40
0
  9
$USERR4
 40
0
  9
$USERR5
 40
0
  9
$WORLDVIEW
 70
    1
  9
$SHADEDGE
 70
    3
  9
$SHADEDIF
 70
   70
  9
$TILEMODE
 70
    1
  9
$MAXACTVP
 70
   64
  9
$PINSBASE
 10
0
 20
0
 30
0
  9
$PLIMCHECK
 70
    0
  9
$PEXTMIN
 10
0
 20
0
 30
0
  9
$PEXTMAX
 10
0
 20
0
 30
0
  9
$SNAPSTYLE
 70
    0
  9
$PLIMMIN
 10
0
 20
0
  9
$PLIMMAX
 10
8.26771653543307
 20
11.6929133858268
  9
$UNITMODE
 70
    0
  9
$VISRETAIN
 70
    1
  9
$PLINEGEN
 70
    0
  9
$PSLTSCALE
 70
    1
  9
$TREEDEPTH
 70
 3020
  9
$CMLSTYLE
  2
Standard
  9
$CMLJUST
 70
    0
  9
$CMLSCALE
 40
20
  9
$PROXYGRAPHICS
 70
    1
  9
$MEASUREMENT
 70
    1
  9
$CELWEIGHT
370
   -1
  9
$ENDCAPS
280
    0
  9
$JOINSTYLE
280
    0
  9
$LWDISPLAY
290
    0
  9
$INSUNITS
 70
    4
  9
$HYPERLINKBASE
  1

  9
$STYLESHEET
  1

  9
$XEDIT
290
    1
  9
$CEPSNTYPE
380
    0
  9
$PSTYLEMODE
290
    1
  9
$EXTNAMES
290
    1
  9
$PSVPSCALE
 40
1
  9
$OLESTARTUP
290
    0
  9
$SORTENTS
280
  127
  9
$INDEXCTL
280
    0
  9
$HIDETEXT
280
    1
  9
$XCLIPFRAME
290
    0
  9
$HALOGAP
280
    0
  9
$OBSCOLOR
 70
  257
  9
$OBSLTYPE
280
    0
  9
$INTERSECTIONDISPLAY
280
    0
  9
$INTERSECTIONCOLOR
 70
  257
  9
$DIMASSOC
280
    1
  9
$PROJECTNAME
  1

  9
$CAMERADISPLAY
290
    0
  9
$LENSLENGTH
 40
50
  9
$CAMERAHEIGHT
 40
0
  9
$STEPSPERSEC
 40
2
  9
$STEPSIZE
 40
50
  9
$3DDWFPREC
 40
2
  9
$PSOLWIDTH
 40
5
  9
$PSOLHEIGHT
 40
80
  9
$LOFTANG1
 40
1.570796326794897
  9
$LOFTANG2
 40
1.570796326794897
  9
$LOFTMAG1
 40
0
  9
$LOFTMAG2
 40
0
  9
$LOFTPARAM
 70
    7
  9
$LOFTNORMALS
280
    1
  9
$LATITUDE
 40
1
  9
$LONGITUDE
 40
1
  9
$NORTHDIRECTION
 40
0
  9
$TIMEZONE
 70
-8000
  9
$LIGHTGLYPHDISPLAY
280
    1
  9
$TILEMODELIGHTSYNCH
280
    1
  9
$SOLIDHIST
280
    1
  9
$SHOWHIST
280
    1
  9
$DWFFRAME
280
    2
  9
$DGNFRAME
280
    0
  9
$REALWORLDSCALE
290
    1
  9
$INTERFERECOLOR
 62
    1
  9
$CSHADOW
280
    0
  9
$SHADOWPLANELOCATION
 40
0
  0
ENDSEC
  0
SECTION
  2
CLASSES
  0
ENDSEC
  0
SECTION
  2
TABLES
  0
TABLE
  2
VPORT
  5
8
330
0
100
AcDbSymbolTable
 70
    1
  0
VPORT
  5
31
330
2
100
AcDbSymbolTableRecord
100
AcDbViewportTableRecord
  2
*ACTIVE
 70
    0
 10
0
 20
0
 11
1
 21
1
 12
213.9282226562518
 22
152.5878906250013
 13
0
 23
0
 14
10
 24
10
 15
10
 25
10
 16
0
 26
0
 36
1
 17
0
 27
0
 37
0
 40
308.8378906250026
 41
1.984189723320158
 42
50
 43
0
 44
0
 50
0
 51
0
 71
    0
 72
  100
 73
    1
 74
    3
 75
    0
 76
    1
 77
    0
 78
    0
281
    0
 65
    1
110
0
120
0
130
0
111
1
121
0
131
0
112
0
122
1
132
0
 79
    0
146
0
348
10020
 60
    7
 61
    5
292
1
282
    1
141
0
142
0
 63
  250
421
3358443
  0
ENDTAB
  0
TABLE
  2
LTYPE
  5
5
330
0
100
AcDbSymbolTable
 70
    4
  0
LTYPE
  5
14
330
5
100
AcDbSymbolTableRecord
100
AcDbLinetypeTableRecord
  2
ByBlock
 70
    0
  3

 72
   65
 73
    0
 40
0
  0
LTYPE
  5
15
330
5
100
AcDbSymbolTableRecord
100
AcDbLinetypeTableRecord
  2
ByLayer
 70
    0
  3

 72
   65
 73
    0
 40
0
  0
LTYPE
  5
16
330
5
100
AcDbSymbolTableRecord
100
AcDbLinetypeTableRecord
  2
Continuous
 70
    0
  3
Solid line
 72
   65
 73
    0
 40
0
  0
LTYPE
  5
32
330
5
100
AcDbSymbolTableRecord
100
AcDbLinetypeTableRecord
  2
DOT
 70
    0
  3
Dot . . . . . . . . . . . . . . . . . . . . . .
 72
   65
 73
    2
 40
6.35
 49
0
 74
    0
 49
-6.35
 74
    0
  0
LTYPE
  5
33
330
5
100
AcDbSymbolTableRecord
100
AcDbLinetypeTableRecord
  2
DOTTINY
 70
    0
  3
Dot (.15x) .....................................
 72
   65
 73
    2
 40
0.9525
 49
0
 74
    0
 49
-0.9525
 74
    0
  0
LTYPE
  5
34
330
5
100
AcDbSymbolTableRecord
100
AcDbLinetypeTableRecord
  2
DOT2
 70
    0
  3
Dot (.5x) .....................................
 72
   65
 73
    2
 40
3.175
 49
0
 74
    0
 49
-3.175
 74
    0
  0
LTYPE
  5
35
330
5
100
AcDbSymbolTableRecord
100
AcDbLinetypeTableRecord
  2
DOTX2
 70
    0
  3
Dot (2x) .  .  .  .  .  .  .  .  .  .  .  .  .
 72
   65
 73
    2
 40
12.7
 49
0
 74
    0
 49
-12.7
 74
    0
  0
LTYPE
  5
36
330
5
100
AcDbSymbolTableRecord
100
AcDbLinetypeTableRecord
  2
DASHED
 70
    0
  3
Dashed _ _ _ _ _ _ _ _ _ _ _ _ _ _ _ _ _
 72
   65
 73
    2
 40
19.05
 49
12.7
 74
    0
 49
-6.35
 74
    0
  0
LTYPE
  5
37
330
5
100
AcDbSymbolTableRecord
100
AcDbLinetypeTableRecord
  2
DASHEDTINY
 70
    0
  3
Dashed (.15x) _ _ _ _ _ _ _ _ _ _ _ _ _ _ _ _ _
 72
   65
 73
    2
 40
2.8575
 49
1.905
 74
    0
 49
-0.9525
 74
    0
  0
LTYPE
  5
38
330
5
100
AcDbSymbolTableRecord
100
AcDbLinetypeTableRecord
  2
DASHED2
 70
    0
  3
Dashed (.5x) _ _ _ _ _ _ _ _ _ _ _ _ _ _ _ _ _
 72
   65
 73
    2
 40
9.524999999999999
 49
6.35
 74
    0
 49
-3.175
 74
    0
  0
LTYPE
  5
39
330
5
100
AcDbSymbolTableRecord
100
AcDbLinetypeTableRecord
  2
DASHEDX2
 70
    0
  3
Dashed (2x) ____  ____  ____  ____  ____  ___
 72
   65
 73
    2
 40
38.09999999999999
 49
25.4
 74
    0
 49
-12.7
 74
    0
  0
LTYPE
  5
3A
330
5
100
AcDbSymbolTableRecord
100
AcDbLinetypeTableRecord
  2
DASHDOT
 70
    0
  3
Dash dot __ . __ . __ . __ . __ . __ . __ . __
 72
   65
 73
    4
 40
25.4
 49
12.7
 74
    0
 49
-6.35
 74
    0
 49
0
 74
    0
 49
-6.35
 74
    0
  0
LTYPE
  5
3B
330
5
100
AcDbSymbolTableRecord
100
AcDbLinetypeTableRecord
  2
DASHDOTTINY
 70
    0
  3
Dash dot (.15x) _._._._._._._._._._._._._._._.
 72
   65
 73
    4
 40
3.81
 49
1.905
 74
    0
 49
-0.9525
 74
    0
 49
0
 74
    0
 49
-0.9525
 74
    0
  0
LTYPE
  5
3C
330
5
100
AcDbSymbolTableRecord
100
AcDbLinetypeTableRecord
  2
DASHDOT2
 70
    0
  3
Dash dot (.5x) _._._._._._._._._._._._._._._.
 72
   65
 73
    4
 40
12.7
 49
6.35
 74
    0
 49
-3.175
 74
    0
 49
0
 74
    0
 49
-3.175
 74
    0
  0
LTYPE
  5
3D
330
5
100
AcDbSymbolTableRecord
100
AcDbLinetypeTableRecord
  2
DASHDOTX2
 70
    0
  3
Dash dot (2x) ____  .  ____  .  ____  .  ___
 72
   65
 73
    4
 40
50.8
 49
25.4
 74
    0
 49
-12.7
 74
    0
 49
0
 74
    0
 49
-12.7
 74
    0
  0
LTYPE
  5
3E
330
5
100
AcDbSymbolTableRecord
100
AcDbLinetypeTableRecord
  2
DIVIDE
 70
    0
  3
Divide ____ . . ____ . . ____ . . ____ . . ____
 72
   65
 73
    6
 40
31.75
 49
12.7
 74
    0
 49
-6.35
 74
    0
 49
0
 74
    0
 49
-6.35
 74
    0
 49
0
 74
    0
 49
-6.35
 74
    0
  0
LTYPE
  5
3F
330
5
100
AcDbSymbolTableRecord
100
AcDbLinetypeTableRecord
  2
DIVIDETINY
 70
    0
  3
Divide (.15x) __..__..__..__..__..__..__..__.._
 72
   65
 73
    6
 40
4.7625
 49
1.905
 74
    0
 49
-0.9525
 74
    0
 49
0
 74
    0
 49
-0.9525
 74
    0
 49
0
 74
    0
 49
-0.9525
 74
    0
  0
LTYPE
  5
40
330
5
100
AcDbSymbolTableRecord
100
AcDbLinetypeTableRecord
  2
DIVIDE2
 70
    0
  3
Divide (.5x) __..__..__..__..__..__..__..__.._
 72
   65
 73
    6
 40
15.875
 49
6.35
 74
    0
 49
-3.175
 74
    0
 49
0
 74
    0
 49
-3.175
 74
    0
 49
0
 74
    0
 49
-3.175
 74
    0
  0
LTYPE
  5
41
330
5
100
AcDbSymbolTableRecord
100
AcDbLinetypeTableRecord
  2
DIVIDEX2
 70
    0
  3
Divide (2x) ________  .  .  ________  .  .  _
 72
   65
 73
    6
 40
63.5
 49
25.4
 74
    0
 49
-12.7
 74
    0
 49
0
 74
    0
 49
-12.7
 74
    0
 49
0
 74
    0
 49
-12.7
 74
    0
  0
LTYPE
  5
42
330
5
100
AcDbSymbolTableRecord
100
AcDbLinetypeTableRecord
  2
BORDER
 70
    0
  3
Border __ __ . __ __ . __ __ . __ __ . __ __ .
 72
   65
 73
    6
 40
44.45
 49
12.7
 74
    0
 49
-6.35
 74
    0
 49
12.7
 74
    0
 49
-6.35
 74
    0
 49
0
 74
    0
 49
-6.35
 74
    0
  0
LTYPE
  5
43
330
5
100
AcDbSymbolTableRecord
100
AcDbLinetypeTableRecord
  2
BORDERTINY
 70
    0
  3
Border (.15x) __.__.__.__.__.__.__.__.__.__.__.
 72
   65
 73
    6
 40
6.6675
 49
1.905
 74
    0
 49
-0.9525
 74
    0
 49
1.905
 74
    0
 49
-0.9525
 74
    0
 49
0
 74
    0
 49
-0.9525
 74
    0
  0
LTYPE
  5
44
330
5
100
AcDbSymbolTableRecord
100
AcDbLinetypeTableRecord
  2
BORDER2
 70
    0
  3
Border (.5x) __.__.__.__.__.__.__.__.__.__.__.
 72
   65
 73
    6
 40
22.225
 49
6.35
 74
    0
 49
-3.175
 74
    0
 49
6.35
 74
    0
 49
-3.175
 74
    0
 49
0
 74
    0
 49
-3.175
 74
    0
  0
LTYPE
  5
45
330
5
100
AcDbSymbolTableRecord
100
AcDbLinetypeTableRecord
  2
BORDERX2
 70
    0
  3
Border (2x) ____  ____  .  ____  ____  .  ___
 72
   65
 73
    6
 40
88.89999999999999
 49
25.4
 74
    0
 49
-12.7
 74
    0
 49
25.4
 74
    0
 49
-12.7
 74
    0
 49
0
 74
    0
 49
-12.7
 74
    0
  0
LTYPE
  5
46
330
5
100
AcDbSymbolTableRecord
100
AcDbLinetypeTableRecord
  2
CENTER
 70
    0
  3
Center ____ _ ____ _ ____ _ ____ _ ____ _ ____
 72
   65
 73
    4
 40
50.8
 49
31.75
 74
    0
 49
-6.35
 74
    0
 49
6.35
 74
    0
 49
-6.35
 74
    0
  0
LTYPE
  5
47
330
5
100
AcDbSymbolTableRecord
100
AcDbLinetypeTableRecord
  2
CENTERTINY
 70
    0
  3
Center (.15x) ___ _ ___ _ ___ _ ___ _ ___ _ ___
 72
   65
 73
    4
 40
7.619999999999999
 49
4.7625
 74
    0
 49
-0.9525
 74
    0
 49
0.9525
 74
    0
 49
-0.9525
 74
    0
  0
LTYPE
  5
48
330
5
100
AcDbSymbolTableRecord
100
AcDbLinetypeTableRecord
  2
CENTER2
 70
    0
  3
Center (.5x) ___ _ ___ _ ___ _ ___ _ ___ _ ___
 72
   65
 73
    4
 40
28.575
 49
19.05
 74
    0
 49
-3.175
 74
    0
 49
3.175
 74
    0
 49
-3.175
 74
    0
  0
LTYPE
  5
49
330
5
100
AcDbSymbolTableRecord
100
AcDbLinetypeTableRecord
  2
CENTERX2
 70
    0
  3
Center (2x) ________  __  ________  __  _____
 72
   65
 73
    4
 40
101.6
 49
63.5
 74
    0
 49
-12.7
 74
    0
 49
12.7
 74
    0
 49
-12.7
 74
    0
  0
ENDTAB
  0
TABLE
  2
LAYER
  5
2
330
0
100
AcDbSymbolTable
 70
    1
  0
LAYER
  5
10
330
2
100
AcDbSymbolTableRecord
100
AcDbLayerTableRecord
  2
0
 70
    0
 62
    7
  6
CONTINUOUS
370
   -3
390
F
  0
ENDTAB
  0
TABLE
  2
STYLE
  5
3
330
0
100
AcDbSymbolTable
 70
    3
  0
STYLE
  5
4A
330
2
100
AcDbSymbolTableRecord
100
AcDbTextStyleTableRecord
  2
Standard
 70
    0
 40
0
 41
1
 50
0
 71
    0
 42
1
  3
txt
  4

  0
ENDTAB
  0
TABLE
  2
VIEW
  5
6
330
0
100
AcDbSymbolTable
 70
    0
  0
ENDTAB
  0
TABLE
  2
UCS
  5
7
330
0
100
AcDbSymbolTable
 70
    0
  0
ENDTAB
  0
TABLE
  2
APPID
  5
9
330
0
100
AcDbSymbolTable
 70
    1
  0
APPID
  5
12
330
9
100
AcDbSymbolTableRecord
100
AcDbRegAppTableRecord
  2
ACAD
 70
    0
  0
APPID
  5
4B
330
9
100
AcDbSymbolTableRecord
100
AcDbRegAppTableRecord
  2
LibreCad
 70
    0
  0
ENDTAB
  0
TABLE
  2
DIMSTYLE
  5
A
330
0
100
AcDbSymbolTable
 70
    1
100
AcDbDimStyleTable
 71
    1
  0
DIMSTYLE
105
4C
330
A
100
AcDbSymbolTableRecord
100
AcDbDimStyleTableRecord
  2
Standard
 70
    0
 40
1
 41
2.5
 42
0.625
 43
0.38
 44
1.25
 45
0
 46
0
 47
0
 48
0
 49
1
140
2.5
141
0.09
142
0
143
25.4
144
1
145
0
146
1
147
0.625
148
0
 71
    0
 72
    0
 73
    0
 74
    1
 75
    0
 76
    0
 77
    0
 78
    1
 79
    0
170
    0
171
    2
172
    0
173
    0
174
    0
175
    0
176
    0
177
    0
178
    0
179
    0
271
    2
272
    4
273
    2
274
    2
275
    0
276
    0
277
    2
278
    0
279
    0
280
    0
281
    0
282
    0
283
    1
284
    0
285
    0
286
    0
288
    0
289
    3
340
standard
341

371
   -2
372
   -2
  0
ENDTAB
  0
TABLE
  2
BLOCK_RECORD
  5
1
330
0
100
AcDbSymbolTable
 70
    2
  0
BLOCK_RECORD
  5
1F
330
1
100
AcDbSymbolTableRecord
100
AcDbBlockTableRecord
  2
*Model_Space
 70
    0
280
    1
281
    0
  0
BLOCK_RECORD
  5
1E
330
1
100
AcDbSymbolTableRecord
100
AcDbBlockTableRecord
  2
*Paper_Space
 70
    0
280
    1
281
    0
  0
ENDTAB
  0
ENDSEC
  0
SECTION
  2
BLOCKS
  0
BLOCK
  5
20
330
1F
100
AcDbEntity
  8
0
100
AcDbBlockBegin
  2
*Model_Space
 70
    0
 10
0
 20
0
 30
0
  3
*Model_Space
  1

  0
ENDBLK
  5
21
330
1F
100
AcDbEntity
  8
0
100
AcDbBlockEnd
  0
BLOCK
  5
1C
330
1B
100
AcDbEntity
  8
0
100
AcDbBlockBegin
  2
*Paper_Space
 70
    0
 10
0
 20
0
 30
0
  3
*Paper_Space
  1

  0
ENDBLK
  5
1D
330
1F
100
AcDbEntity
  8
0
100
AcDbBlockEnd
  0
ENDSEC
  0
SECTION
  2
ENTITIES
  0
LWPOLYLINE
  5
4D
100
AcDbEntity
  8
0
  6
ByLayer
 62
    0
370
   -1
100
AcDbPolyline
 90
    2
 70
    0
 43
0
 10
189.4501742506111
 20
246.4141799128538
 10
204.4572533180858
 20
246.4141799128538
  0
LWPOLYLINE
  5
4E
100
AcDbEntity
  8
0
  6
ByLayer
 62
    0
370
   -1
100
AcDbPolyline
 90
    2
 70
    0
 43
0
 10
204.4572533180858
 20
246.4141799128538
 10
204.4572533180858
 20
229.9718289365974
  0
LWPOLYLINE
  5
4F
100
AcDbEntity
  8
0
  6
ByLayer
 62
    0
370
   -1
100
AcDbPolyline
 90
    2
 70
    0
 43
0
 10
204.4572533180858
 20
229.9718289365974
 10
207.4584150112003
 20
229.9718289365974
  0
LWPOLYLINE
  5
50
100
AcDbEntity
  8
0
  6
ByLayer
 62
    0
370
   -1
100
AcDbPolyline
 90
    2
 70
    0
 43
0
 10
207.4584150112003
 20
229.9718289365974
 10
207.4584150112003
 20
214.9650039895031
  0
LWPOLYLINE
  5
51
100
AcDbEntity
  8
0
  6
ByLayer
 62
    0
370
   -1
100
AcDbPolyline
 90
    2
 70
    0
 43
0
 10
207.4584150112003
 20
214.9650039895031
 10
204.4572533180858
 20
214.9650039895031
  0
LWPOLYLINE
  5
52
100
AcDbEntity
  8
0
  6
ByLayer
 62
    0
370
   -1
100
AcDbPolyline
 90
    2
 70
    0
 43
0
 10
204.4572533180858
 20
214.9650039895031
 10
204.4572533180858
 20
199.9576708016479
  0
LWPOLYLINE
  5
53
100
AcDbEntity
  8
0
  6
ByLayer
 62
    0
370
   -1
100
AcDbPolyline
 90
    2
 70
    0
 43
0
 10
204.4572533180858
 20
199.9576708016479
 10
207.4584150112003
 20
199.9576708016479
  0
LWPOLYLINE
  5
54
100
AcDbEntity
  8
0
  6
ByLayer
 62
    0
370
   -1
100
AcDbPolyline
 90
    2
 70
    0
 43
0
 10
207.4584150112003
 20
199.9576708016479
 10
207.4584150112003
 20
184.9508458545536
  0
LWPOLYLINE
  5
55
100
AcDbEntity
  8
0
  6
ByLayer
 62
    0
370
   -1
100
AcDbPolyline
 90
    2
 70
    0
 43
0
 10
207.4584150112003
 20
184.9508458545536
 10
197.4534415125034
 20
174.9456182354762
  0
LWPOLYLINE
  5
56
100
AcDbEntity
  8
0
  6
ByLayer
 62
    0
370
   -1
100
AcDbPolyline
 90
    2
 70
    0
 43
0
 10
197.4534415125034
 20
174.9456182354762
 10
197.4534415125034
 20
166.9423509735839
  0
LWPOLYLINE
  5
57
100
AcDbEntity
  8
0
  6
ByLayer
 62
    0
370
   -1
100
AcDbPolyline
 90
    2
 70
    0
 43
0
 10
197.4534415125034
 20
166.9423509735839
 10
194.4520256990084
 20
166.9423509735839
  0
LWPOLYLINE
  5
58
100
AcDbEntity
  8
0
  6
ByLayer
 62
    0
370
   -1
100
AcDbPolyline
 90
    2
 70
    0
 43
0
 10
194.4520256990084
 20
166.9423509735839
 10
194.4520256990084
 20
146.9334204577118
  0
LWPOLYLINE
  5
59
100
AcDbEntity
  8
0
  6
ByLayer
 62
    0
370
   -1
100
AcDbPolyline
 90
    2
 70
    0
 43
0
 10
194.4520256990084
 20
146.9334204577118
 10
197.4534415125034
 20
146.9334204577118
  0
LWPOLYLINE
  5
5A
100
AcDbEntity
  8
0
  6
ByLayer
 62
    0
370
   -1
100
AcDbPolyline
 90
    2
 70
    0
 43
0
 10
197.4534415125034
 20
146.9334204577118
 10
197.4534415125034
 20
134.927757203732
  0
LWPOLYLINE
  5
5B
100
AcDbEntity
  8
0
  6
ByLayer
 62
    0
370
   -1
100
AcDbPolyline
 90
    2
 70
    0
 43
0
 10
197.4534415125034
 20
134.927757203732
 10
185.9481412876296
 20
134.927757203732
  0
LWPOLYLINE
  5
5C
100
AcDbEntity
  8
0
  6
ByLayer
 62
    0
370
   -1
100
AcDbPolyline
 90
    2
 70
    0
 43
0
 10
185.9481412876296
 20
134.927757203732
 10
185.9481412876296
 20
131.9265955106175
  0
LWPOLYLINE
  5
5D
100
AcDbEntity
  8
0
  6
ByLayer
 62
    0
370
   -1
100
AcDbPolyline
 90
    2
 70
    0
 43
0
 10
185.9481412876296
 20
131.9265955106175
 10
170.9413163405353
 20
131.9265955106175
  0
LWPOLYLINE
  5
5E
100
AcDbEntity
  8
0
  6
ByLayer
 62
    0
370
   -1
100
AcDbPolyline
 90
    2
 70
    0
 43
0
 10
170.9413163405353
 20
131.9265955106175
 10
159.9363791447676
 20
142.9310244656243
  0
LWPOLYLINE
  5
5F
100
AcDbEntity
  8
0
  6
ByLayer
 62
    0
370
   -1
100
AcDbPolyline
 90
    2
 70
    0
 43
0
 10
159.9363791447676
 20
142.9310244656243
 10
126.9210593167036
 20
142.9310244656243
  0
LWPOLYLINE
  5
60
100
AcDbEntity
  8
0
  6
ByLayer
 62
    0
370
   -1
100
AcDbPolyline
 90
    2
 70
    0
 43
0
 10
126.9210593167036
 20
142.9310244656243
 10
123.9193893828282
 20
145.9324402791192
  0
LWPOLYLINE
  5
61
100
AcDbEntity
  8
0
  6
ByLayer
 62
    0
370
   -1
100
AcDbPolyline
 90
    2
 70
    0
 43
0
 10
123.9193893828282
 20
145.9324402791192
 10
123.9193893828282
 20
159.9387932883819
  0
LWPOLYLINE
  5
62
100
AcDbEntity
  8
0
  6
ByLayer
 62
    0
370
   -1
100
AcDbPolyline
 90
    2
 70
    0
 43
0
 10
123.9193893828282
 20
159.9387932883819
 10
148.9301713470977
 20
174.3791839074532
  0
LWPOLYLINE
  5
63
100
AcDbEntity
  8
0
  6
ByLayer
 62
    0
370
   -1
100
AcDbPolyline
 90
    2
 70
    0
 43
0
 10
148.9301713470977
 20
174.3791839074532
 10
148.9301713470977
 20
204.3946126443049
  0
LWPOLYLINE
  5
64
100
AcDbEntity
  8
0
  6
ByLayer
 62
    0
370
   -1
100
AcDbPolyline
 90
    2
 70
    0
 43
0
 10
148.9301713470977
 20
204.3946126443049
 10
123.9193893828282
 20
229.4053946085744
  0
LWPOLYLINE
  5
65
100
AcDbEntity
  8
0
  6
ByLayer
 62
    0
370
   -1
100
AcDbPolyline
 90
    2
 70
    0
 43
0
 10
123.9193893828282
 20
229.4053946085744
 10
123.9193893828282
 20
246.4141799128538
  0
LWPOLYLINE
  5
66
100
AcDbEntity
  8
0
  6
ByLayer
 62
    0
370
   -1
100
AcDbPolyline
 90
    2
 70
    0
 43
0
 10
123.9193893828282
 20
246.4141799128538
 10
144.4286829278064
 20
246.4141799128538
  0
LWPOLYLINE
  5
67
100
AcDbEntity
  8
0
  6
ByLayer
 62
    0
370
   -1
100
AcDbPolyline
 90
    2
 70
    0
 43
0
 10
144.4286829278064
 20
249.4166122078705
 10
144.4286829278064
 20
246.4141799128538
  0
LWPOLYLINE
  5
68
100
AcDbEntity
  8
0
  6
ByLayer
 62
    0
370
   -1
100
AcDbPolyline
 90
    2
 70
    0
 43
0
 10
159.4360161156616
 20
249.4166122078705
 10
144.4286829278064
 20
249.4166122078705
  0
LWPOLYLINE
  5
69
100
AcDbEntity
  8
0
  6
ByLayer
 62
    0
370
   -1
100
AcDbPolyline
 90
    2
 70
    0
 43
0
 10
159.4360161156616
 20
246.4141799128538
 10
159.4360161156616
 20
249.4166122078705
  0
LWPOLYLINE
  5
6A
100
AcDbEntity
  8
0
  6
ByLayer
 62
    0
370
   -1
100
AcDbPolyline
 90
    2
 70
    0
 43
0
 10
159.4360161156616
 20
246.4141799128538
 10
174.4430951831363
 20
246.4141799128538
  0
LWPOLYLINE
  5
6B
100
AcDbEntity
  8
0
  6
ByLayer
 62
    0
370
   -1
100
AcDbPolyline
 90
    2
 70
    0
 43
0
 10
174.4430951831363
 20
249.4166122078705
 10
174.4430951831363
 20
246.4141799128538
  0
LWPOLYLINE
  5
6C
100
AcDbEntity
  8
0
  6
ByLayer
 62
    0
370
   -1
100
AcDbPolyline
 90
    2
 70
    0
 43
0
 10
189.4501742506111
 20
249.4166122078705
 10
174.4430951831363
 20
249.4166122078705
  0
LWPOLYLINE
  5
6D
100
AcDbEntity
  8
0
  6
ByLayer
 62
    0
370
   -1
100
AcDbPolyline
 90
    2
 70
    0
 43
0
 10
189.4501742506111
 20
246.4141799128538
 10
189.4501742506111
 20
249.4166122078705
  0
LWPOLYLINE
  5
6E
100
AcDbEntity
  8
0
  6
ByLayer
 62
    0
370
   -1
100
AcDbPolyline
 90
   33
 70
    1
 43
0
 10
178.9443294820472
 20
230.4063747871669
 10
175.3142198473189
 20
230.0409496800798
 10
171.933910546573
 20
228.9916866292018
 10
168.8745552863355
 20
227.3317723041024
 10
166.2093407361758
 20
225.133122772449
 10
164.010437084142
 20
222.4679082222894
 10
162.3505227590426
 20
219.4085529620518
 10
161.3012597081646
 20
216.0279895409255
 10
160.9360887214579
 20
212.3981340265777
 10
161.3012597081646
 20
208.7690408733712
 10
162.3505227590426
 20
205.3884774522449
 10
164.010437084142
 20
202.3291221920073
 10
166.2093407361758
 20
199.6641617622281
 10
168.8745552863355
 20
197.4652581101943
 10
171.933910546573
 20
195.8053437850949
 10
175.3142198473189
 20
194.7560807342168
 10
178.9443294820472
 20
194.3893850252275
 10
182.5734226352536
 20
194.7560807342168
 10
185.9537319359995
 20
195.8053437850949
 10
189.0130871962371
 20
197.4652581101943
 10
191.6783017463967
 20
199.6641617622281
 10
193.8772053984305
 20
202.3291221920073
 10
195.5368656031495
 20
205.3884774522449
 10
196.586382774408
 20
208.7690408733712
 10
196.9530784833973
 20
212.3981340265777
 10
196.586382774408
 20
216.0279895409255
 10
195.5368656031495
 20
219.4085529620518
 10
193.8772053984305
 20
222.4679082222894
 10
191.6783017463967
 20
225.133122772449
 10
189.0130871962371
 20
227.3317723041024
 10
185.9537319359995
 20
228.9916866292018
 10
182.5734226352536
 20
230.0409496800798
 10
178.9443294820472
 20
230.4063747871669
  0
LWPOLYLINE
  5
6F
100
AcDbEntity
  8
0
  6
ByLayer
 62
    0
370
   -1
100
AcDbPolyline
 90
   33
 70
    1
 43
0
 10
178.9443294820472
 20
186.3845930410525
 10
177.1288934841124
 20
186.2028969690307
 10
175.438484713359
 20
185.6773760222601
 10
173.9094423841913
 20
184.8474188597104
 10
172.5760727479702
 20
183.7488564550251
 10
171.4775103432848
 20
182.4154868188039
 10
170.6475531807351
 20
180.8864444896363
 10
170.1220322339645
 20
179.1962898392633
 10
169.9403361619428
 20
177.3805997209481
 10
170.1220322339645
 20
175.5661802045351
 10
170.6475531807351
 20
173.8757714337817
 10
171.4775103432848
 20
172.3469832249945
 10
172.5760727479702
 20
171.0138677091538
 10
173.9094423841913
 20
169.9147970637075
 10
175.438484713359
 20
169.0850940215383
 10
177.1288934841124
 20
168.5595730747677
 10
178.9443294820472
 20
168.3763522804632
 10
180.7587489984602
 20
168.5595730747677
 10
182.4491577692136
 20
169.0850940215383
 10
183.9779459780008
 20
169.9147970637075
 10
185.3110614938415
 20
171.0138677091538
 10
186.4101321392877
 20
172.3469832249945
 10
187.239835181457
 20
173.8757714337817
 10
187.765610248608
 20
175.5661802045351
 10
187.948576922532
 20
177.3805997209481
 10
187.765610248608
 20
179.1962898392633
 10
187.239835181457
 20
180.8864444896363
 10
186.4101321392877
 20
182.4154868188039
 10
185.3110614938415
 20
183.7488564550251
 10
183.9779459780008
 20
184.8474188597104
 10
182.4491577692136
 20
185.6773760222601
 10
180.7587489984602
 20
186.2028969690307
 10
178.9443294820472
 20
186.3845930410525
  0
LWPOLYLINE
  5
70
100
AcDbEntity
  8
0
  6
ByLayer
 62
    0
370
   -1
100
AcDbPolyline
 90
    2
 70
    0
 43
0
 10
160.9360887214579
 20
185.9518260331461
 10
157.934672907963
 20
185.9518260331461
  0
LWPOLYLINE
  5
71
100
AcDbEntity
  8
0
  6
ByLayer
 62
    0
370
   -1
100
AcDbPolyline
 90
    2
 70
    0
 43
0
 10
157.934672907963
 20
185.9518260331461
 10
157.934672907963
 20
180.9484498624661
  0
LWPOLYLINE
  5
72
100
AcDbEntity
  8
0
  6
ByLayer
 62
    0
370
   -1
100
AcDbPolyline
 90
    2
 70
    0
 43
0
 10
157.934672907963
 20
180.9484498624661
 10
160.9360887214579
 20
180.9484498624661
  0
LWPOLYLINE
  5
73
100
AcDbEntity
  8
0
  6
ByLayer
 62
    0
370
   -1
100
AcDbPolyline
 90
    2
 70
    0
 43
0
 10
160.9360887214579
 20
180.9484498624661
 10
160.9360887214579
 20
185.9518260331461
  0
LWPOLYLINE
  5
74
100
AcDbEntity
  8
0
  6
ByLayer
 62
    0
370
   -1
100
AcDbPolyline
 90
    2
 70
    0
 43
0
 10
189.2504356315774
 20
152.5349960039711
 10
184.2470594608973
 20
152.5349960039711
  0
LWPOLYLINE
  5
75
100
AcDbEntity
  8
0
  6
ByLayer
 62
    0
370
   -1
100
AcDbPolyline
 90
    2
 70
    0
 43
0
 10
184.2470594608973
 20
152.5349960039711
 10
184.2470594608973
 20
149.5335801904762
  0
LWPOLYLINE
  5
76
100
AcDbEntity
  8
0
  6
ByLayer
 62
    0
370
   -1
100
AcDbPolyline
 90
    2
 70
    0
 43
0
 10
184.2470594608973
 20
149.5335801904762
 10
189.2504356315774
 20
149.5335801904762
  0
LWPOLYLINE
  5
77
100
AcDbEntity
  8
0
  6
ByLayer
 62
    0
370
   -1
100
AcDbPolyline
 90
    2
 70
    0
 43
0
 10
189.2504356315774
 20
149.5335801904762
 10
189.2504356315774
 20
152.5349960039711
  0
LWPOLYLINE
  5
78
100
AcDbEntity
  8
0
  6
ByLayer
 62
    0
370
   -1
100
AcDbPolyline
 90
    2
 70
    0
 43
0
 10
133.8242394516278
 20
152.5349960039711
 10
128.8208632809478
 20
152.5349960039711
  0
LWPOLYLINE
  5
79
100
AcDbEntity
  8
0
  6
ByLayer
 62
    0
370
   -1
100
AcDbPolyline
 90
    2
 70
    0
 43
0
 10
128.8208632809478
 20
152.5349960039711
 10
128.8208632809478
 20
149.5335801904762
  0
LWPOLYLINE
  5
7A
100
AcDbEntity
  8
0
  6
ByLayer
 62
    0
370
   -1
100
AcDbPolyline
 90
    2
 70
    0
 43
0
 10
128.8208632809478
 20
149.5335801904762
 10
133.8242394516278
 20
149.5335801904762
  0
LWPOLYLINE
  5
7B
100
AcDbEntity
  8
0
  6
ByLayer
 62
    0
370
   -1
100
AcDbPolyline
 90
    2
 70
    0
 43
0
 10
133.8242394516278
 20
149.5335801904762
 10
133.8242394516278
 20
152.5349960039711
  0
LWPOLYLINE
  5
7C
100
AcDbEntity
  8
0
  6
ByLayer
 62
    0
370
   -1
100
AcDbPolyline
 90
    2
 70
    0
 43
0
 10
160.9360887214579
 20
241.3780222130957
 10
157.934672907963
 20
241.3780222130957
  0
LWPOLYLINE
  5
7D
100
AcDbEntity
  8
0
  6
ByLayer
 62
    0
370
   -1
100
AcDbPolyline
 90
    2
 70
    0
 43
0
 10
157.934672907963
 20
241.3780222130957
 10
157.934672907963
 20
236.3746460424156
  0
LWPOLYLINE
  5
7E
100
AcDbEntity
  8
0
  6
ByLayer
 62
    0
370
   -1
100
AcDbPolyline
 90
    2
 70
    0
 43
0
 10
157.934672907963
 20
236.3746460424156
 10
160.9360887214579
 20
236.3746460424156
  0
LWPOLYLINE
  5
7F
100
AcDbEntity
  8
0
  6
ByLayer
 62
    0
370
   -1
100
AcDbPolyline
 90
    2
 70
    0
 43
0
 10
160.9360887214579
 20
236.3746460424156
 10
160.9360887214579
 20
241.3780222130957
  0
LWPOLYLINE
  5
80
100
AcDbEntity
  8
0
  6
ByLayer
 62
    0
370
   -1
100
AcDbPolyline
 90
    2
 70
    0
 43
0
 10
53.51533797915572
 20
246.4141799128538
 10
38.50825891168098
 20
246.4141799128538
  0
LWPOLYLINE
  5
81
100
AcDbEntity
  8
0
  6
ByLayer
 62
    0
370
   -1
100
AcDbPolyline
 90
    2
 70
    0
 43
0
 10
38.50825891168098
 20
246.4141799128538
 10
38.50825891168098
 20
229.9718289365974
  0
LWPOLYLINE
  5
82
100
AcDbEntity
  8
0
  6
ByLayer
 62
    0
370
   -1
100
AcDbPolyline
 90
    2
 70
    0
 43
0
 10
38.50825891168098
 20
229.9718289365974
 10
35.50684309818602
 20
229.9718289365974
  0
LWPOLYLINE
  5
83
100
AcDbEntity
  8
0
  6
ByLayer
 62
    0
370
   -1
100
AcDbPolyline
 90
    2
 70
    0
 43
0
 10
35.50684309818602
 20
229.9718289365974
 10
35.50684309818602
 20
214.9650039895031
  0
LWPOLYLINE
  5
84
100
AcDbEntity
  8
0
  6
ByLayer
 62
    0
370
   -1
100
AcDbPolyline
 90
    2
 70
    0
 43
0
 10
35.50684309818602
 20
214.9650039895031
 10
38.50825891168098
 20
214.9650039895031
  0
LWPOLYLINE
  5
85
100
AcDbEntity
  8
0
  6
ByLayer
 62
    0
370
   -1
100
AcDbPolyline
 90
    2
 70
    0
 43
0
 10
38.50825891168098
 20
214.9650039895031
 10
38.50825891168098
 20
199.9576708016479
  0
LWPOLYLINE
  5
86
100
AcDbEntity
  8
0
  6
ByLayer
 62
    0
370
   -1
100
AcDbPolyline
 90
    2
 70
    0
 43
0
 10
38.50825891168098
 20
199.9576708016479
 10
35.50684309818602
 20
199.9576708016479
  0
LWPOLYLINE
  5
87
100
AcDbEntity
  8
0
  6
ByLayer
 62
    0
370
   -1
100
AcDbPolyline
 90
    2
 70
    0
 43
0
 10
35.50684309818602
 20
199.9576708016479
 10
35.50684309818602
 20
184.9508458545536
  0
LWPOLYLINE
  5
88
100
AcDbEntity
  8
0
  6
ByLayer
 62
    0
370
   -1
100
AcDbPolyline
 90
    2
 70
    0
 43
0
 10
35.50684309818602
 20
184.9508458545536
 10
45.51054599498072
 20
174.9456182354762
  0
LWPOLYLINE
  5
89
100
AcDbEntity
  8
0
  6
ByLayer
 62
    0
370
   -1
100
AcDbPolyline
 90
    2
 70
    0
 43
0
 10
45.51054599498072
 20
174.9456182354762
 10
45.51054599498072
 20
166.9423509735839
  0
LWPOLYLINE
  5
8A
100
AcDbEntity
  8
0
  6
ByLayer
 62
    0
370
   -1
100
AcDbPolyline
 90
    2
 70
    0
 43
0
 10
45.51054599498072
 20
166.9423509735839
 10
48.51221592885613
 20
166.9423509735839
  0
LWPOLYLINE
  5
8B
100
AcDbEntity
  8
0
  6
ByLayer
 62
    0
370
   -1
100
AcDbPolyline
 90
    2
 70
    0
 43
0
 10
48.51221592885613
 20
166.9423509735839
 10
48.51221592885613
 20
146.9334204577118
  0
LWPOLYLINE
  5
8C
100
AcDbEntity
  8
0
  6
ByLayer
 62
    0
370
   -1
100
AcDbPolyline
 90
    2
 70
    0
 43
0
 10
48.51221592885613
 20
146.9334204577118
 10
45.51054599498072
 20
146.9334204577118
  0
LWPOLYLINE
  5
8D
100
AcDbEntity
  8
0
  6
ByLayer
 62
    0
370
   -1
100
AcDbPolyline
 90
    2
 70
    0
 43
0
 10
45.51054599498072
 20
146.9334204577118
 10
45.51054599498072
 20
134.927757203732
  0
LWPOLYLINE
  5
8E
100
AcDbEntity
  8
0
  6
ByLayer
 62
    0
370
   -1
100
AcDbPolyline
 90
    2
 70
    0
 43
0
 10
45.51054599498072
 20
134.927757203732
 10
57.01711682175672
 20
134.927757203732
  0
LWPOLYLINE
  5
8F
100
AcDbEntity
  8
0
  6
ByLayer
 62
    0
370
   -1
100
AcDbPolyline
 90
    2
 70
    0
 43
0
 10
57.01711682175672
 20
134.927757203732
 10
57.01711682175672
 20
131.9265955106175
  0
LWPOLYLINE
  5
90
100
AcDbEntity
  8
0
  6
ByLayer
 62
    0
370
   -1
100
AcDbPolyline
 90
    2
 70
    0
 43
0
 10
57.01711682175672
 20
131.9265955106175
 10
72.02419588923148
 20
131.9265955106175
  0
LWPOLYLINE
  5
91
100
AcDbEntity
  8
0
  6
ByLayer
 62
    0
370
   -1
100
AcDbPolyline
 90
    2
 70
    0
 43
0
 10
72.02419588923148
 20
131.9265955106175
 10
83.02913308499917
 20
142.9310244656243
  0
LWPOLYLINE
  5
92
100
AcDbEntity
  8
0
  6
ByLayer
 62
    0
370
   -1
100
AcDbPolyline
 90
    2
 70
    0
 43
0
 10
83.02913308499917
 20
142.9310244656243
 10
116.0447070334436
 20
142.9310244656243
  0
LWPOLYLINE
  5
93
100
AcDbEntity
  8
0
  6
ByLayer
 62
    0
370
   -1
100
AcDbPolyline
 90
    2
 70
    0
 43
0
 10
116.0447070334436
 20
142.9310244656243
 10
119.0456146061777
 20
145.9324402791192
  0
LWPOLYLINE
  5
94
100
AcDbEntity
  8
0
  6
ByLayer
 62
    0
370
   -1
100
AcDbPolyline
 90
    2
 70
    0
 43
0
 10
119.0456146061777
 20
145.9324402791192
 10
119.0456146061777
 20
159.9387932883819
  0
LWPOLYLINE
  5
95
100
AcDbEntity
  8
0
  6
ByLayer
 62
    0
370
   -1
100
AcDbPolyline
 90
    2
 70
    0
 43
0
 10
119.0456146061777
 20
159.9387932883819
 10
94.03356204000598
 20
174.3791839074532
  0
LWPOLYLINE
  5
96
100
AcDbEntity
  8
0
  6
ByLayer
 62
    0
370
   -1
100
AcDbPolyline
 90
    2
 70
    0
 43
0
 10
94.03356204000598
 20
174.3791839074532
 10
94.03356204000598
 20
204.3946126443049
  0
LWPOLYLINE
  5
97
100
AcDbEntity
  8
0
  6
ByLayer
 62
    0
370
   -1
100
AcDbPolyline
 90
    2
 70
    0
 43
0
 10
94.03356204000598
 20
204.3946126443049
 10
119.0456146061777
 20
229.4053946085744
  0
LWPOLYLINE
  5
98
100
AcDbEntity
  8
0
  6
ByLayer
 62
    0
370
   -1
100
AcDbPolyline
 90
    2
 70
    0
 43
0
 10
119.0456146061777
 20
229.4053946085744
 10
119.0456146061777
 20
246.4141799128538
  0
LWPOLYLINE
  5
99
100
AcDbEntity
  8
0
  6
ByLayer
 62
    0
370
   -1
100
AcDbPolyline
 90
    2
 70
    0
 43
0
 10
119.0456146061777
 20
246.4141799128538
 10
98.53632106119952
 20
246.4141799128538
  0
LWPOLYLINE
  5
9A
100
AcDbEntity
  8
0
  6
ByLayer
 62
    0
370
   -1
100
AcDbPolyline
 90
    2
 70
    0
 43
0
 10
98.53632106119952
 20
249.4166122078705
 10
98.53632106119952
 20
246.4141799128538
  0
LWPOLYLINE
  5
9B
100
AcDbEntity
  8
0
  6
ByLayer
 62
    0
370
   -1
100
AcDbPolyline
 90
    2
 70
    0
 43
0
 10
83.52949611410523
 20
249.4166122078705
 10
98.53632106119952
 20
249.4166122078705
  0
LWPOLYLINE
  5
9C
100
AcDbEntity
  8
0
  6
ByLayer
 62
    0
370
   -1
100
AcDbPolyline
 90
    2
 70
    0
 43
0
 10
83.52949611410523
 20
246.4141799128538
 10
83.52949611410523
 20
249.4166122078705
  0
LWPOLYLINE
  5
9D
100
AcDbEntity
  8
0
  6
ByLayer
 62
    0
370
   -1
100
AcDbPolyline
 90
    2
 70
    0
 43
0
 10
83.52949611410523
 20
246.4141799128538
 10
68.52241704663047
 20
246.4141799128538
  0
LWPOLYLINE
  5
9E
100
AcDbEntity
  8
0
  6
ByLayer
 62
    0
370
   -1
100
AcDbPolyline
 90
    2
 70
    0
 43
0
 10
68.52241704663047
 20
249.4166122078705
 10
68.52241704663047
 20
246.4141799128538
  0
LWPOLYLINE
  5
9F
100
AcDbEntity
  8
0
  6
ByLayer
 62
    0
370
   -1
100
AcDbPolyline
 90
    2
 70
    0
 43
0
 10
53.51533797915572
 20
249.4166122078705
 10
68.52241704663047
 20
249.4166122078705
  0
LWPOLYLINE
  5
A0
100
AcDbEntity
  8
0
  6
ByLayer
 62
    0
370
   -1
100
AcDbPolyline
 90
    2
 70
    0
 43
0
 10
53.51533797915572
 20
246.4141799128538
 10
53.51533797915572
 20
249.4166122078705
  0
LWPOLYLINE
  5
A1
100
AcDbEntity
  8
0
  6
ByLayer
 62
    0
370
   -1
100
AcDbPolyline
 90
   33
 70
    1
 43
0
 10
64.01940390505646
 20
230.4063747871669
 10
67.64798881750202
 20
230.0409496800798
 10
71.02906047938927
 20
228.9916866292018
 10
74.08816161924636
 20
227.3317723041024
 10
76.75286792864507
 20
225.133122772449
 10
78.95227982143983
 20
222.4679082222894
 10
80.61219414653922
 20
219.4085529620518
 10
81.66145719741728
 20
216.0279895409255
 10
82.02815290640662
 20
212.3981340265777
 10
81.66145719741728
 20
208.7690408733712
 10
80.61219414653922
 20
205.3884774522449
 10
78.95227982143983
 20
202.3291221920073
 10
76.75286792864507
 20
199.6641617622281
 10
74.08816161924636
 20
197.4652581101943
 10
71.02906047938927
 20
195.8053437850949
 10
67.64798881750202
 20
194.7560807342168
 10
64.01940390505646
 20
194.3893850252275
 10
60.38929427032823
 20
194.7560807342168
 10
57.00898496958232
 20
195.8053437850949
 10
53.94962970934477
 20
197.4652581101943
 10
51.28441515918517
 20
199.6641617622281
 10
49.08551150715132
 20
202.3291221920073
 10
47.42585130243237
 20
205.3884774522449
 10
46.37633413117387
 20
208.7690408733712
 10
46.01116314446722
 20
212.3981340265777
 10
46.37633413117387
 20
216.0279895409255
 10
47.42585130243237
 20
219.4085529620518
 10
49.08551150715132
 20
222.4679082222894
 10
51.28441515918517
 20
225.133122772449
 10
53.94962970934477
 20
227.3317723041024
 10
57.00898496958232
 20
228.9916866292018
 10
60.38929427032823
 20
230.0409496800798
 10
64.01940390505646
 20
230.4063747871669
  0
LWPOLYLINE
  5
A2
100
AcDbEntity
  8
0
  6
ByLayer
 62
    0
370
   -1
100
AcDbPolyline
 90
   33
 70
    1
 43
0
 10
64.01940390505646
 20
186.3845930410525
 10
65.83382342146948
 20
186.2028969690307
 10
67.52423219222287
 20
185.6773760222601
 10
69.05327452139052
 20
184.8474188597104
 10
70.38613591685078
 20
183.7488564550251
 10
71.48520656229702
 20
182.4154868188039
 10
72.31516372484673
 20
180.8864444896363
 10
72.84017643085643
 20
179.1962898392633
 10
73.02390546592177
 20
177.3805997209481
 10
72.84017643085643
 20
175.5661802045351
 10
72.31516372484673
 20
173.8757714337817
 10
71.48520656229702
 20
172.3469832249945
 10
70.38613591685078
 20
171.0138677091538
 10
69.05327452139052
 20
169.9147970637075
 10
67.52423219222287
 20
169.0850940215383
 10
65.83382342146948
 20
168.5595730747677
 10
64.01940390505646
 20
168.3763522804632
 10
62.20396790712167
 20
168.5595730747677
 10
60.51355913636828
 20
169.0850940215383
 10
58.98477092758107
 20
169.9147970637075
 10
57.65114717097947
 20
171.0138677091538
 10
56.55258476629412
 20
172.3469832249945
 10
55.72237348336397
 20
173.8757714337817
 10
55.19736077735428
 20
175.5661802045351
 10
55.01541058495207
 20
177.3805997209481
 10
55.19736077735428
 20
179.1962898392633
 10
55.72237348336397
 20
180.8864444896363
 10
56.55258476629412
 20
182.4154868188039
 10
57.65114717097947
 20
183.7488564550251
 10
58.98477092758107
 20
184.8474188597104
 10
60.51355913636828
 20
185.6773760222601
 10
62.20396790712167
 20
186.2028969690307
 10
64.01940390505646
 20
186.3845930410525
  0
LWPOLYLINE
  5
A3
100
AcDbEntity
  8
0
  6
ByLayer
 62
    0
370
   -1
100
AcDbPolyline
 90
    2
 70
    0
 43
0
 10
82.02815290640662
 20
185.9518260331461
 10
85.02956871990158
 20
185.9518260331461
  0
LWPOLYLINE
  5
A4
100
AcDbEntity
  8
0
  6
ByLayer
 62
    0
370
   -1
100
AcDbPolyline
 90
    2
 70
    0
 43
0
 10
85.02956871990158
 20
185.9518260331461
 10
85.02956871990158
 20
180.9484498624661
  0
LWPOLYLINE
  5
A5
100
AcDbEntity
  8
0
  6
ByLayer
 62
    0
370
   -1
100
AcDbPolyline
 90
    2
 70
    0
 43
0
 10
85.02956871990158
 20
180.9484498624661
 10
82.02815290640662
 20
180.9484498624661
  0
LWPOLYLINE
  5
A6
100
AcDbEntity
  8
0
  6
ByLayer
 62
    0
370
   -1
100
AcDbPolyline
 90
    2
 70
    0
 43
0
 10
82.02815290640662
 20
180.9484498624661
 10
82.02815290640662
 20
185.9518260331461
  0
LWPOLYLINE
  5
A7
100
AcDbEntity
  8
0
  6
ByLayer
 62
    0
370
   -1
100
AcDbPolyline
 90
    2
 70
    0
 43
0
 10
53.71533071856987
 20
152.5349960039711
 10
58.71718216696722
 20
152.5349960039711
  0
LWPOLYLINE
  5
A8
100
AcDbEntity
  8
0
  6
ByLayer
 62
    0
370
   -1
100
AcDbPolyline
 90
    2
 70
    0
 43
0
 10
58.71718216696722
 20
152.5349960039711
 10
58.71718216696722
 20
149.5335801904762
  0
LWPOLYLINE
  5
A9
100
AcDbEntity
  8
0
  6
ByLayer
 62
    0
370
   -1
100
AcDbPolyline
 90
    2
 70
    0
 43
0
 10
58.71718216696722
 20
149.5335801904762
 10
53.71533071856987
 20
149.5335801904762
  0
LWPOLYLINE
  5
AA
100
AcDbEntity
  8
0
  6
ByLayer
 62
    0
370
   -1
100
AcDbPolyline
 90
    2
 70
    0
 43
0
 10
53.71533071856987
 20
149.5335801904762
 10
53.71533071856987
 20
152.5349960039711
  0
LWPOLYLINE
  5
AB
100
AcDbEntity
  8
0
  6
ByLayer
 62
    0
370
   -1
100
AcDbPolyline
 90
    2
 70
    0
 43
0
 10
109.1412727781389
 20
152.5349960039711
 10
114.1433783469167
 20
152.5349960039711
  0
LWPOLYLINE
  5
AC
100
AcDbEntity
  8
0
  6
ByLayer
 62
    0
370
   -1
100
AcDbPolyline
 90
    2
 70
    0
 43
0
 10
114.1433783469167
 20
152.5349960039711
 10
114.1433783469167
 20
149.5335801904762
  0
LWPOLYLINE
  5
AD
100
AcDbEntity
  8
0
  6
ByLayer
 62
    0
370
   -1
100
AcDbPolyline
 90
    2
 70
    0
 43
0
 10
114.1433783469167
 20
149.5335801904762
 10
109.1412727781389
 20
149.5335801904762
  0
LWPOLYLINE
  5
AE
100
AcDbEntity
  8
0
  6
ByLayer
 62
    0
370
   -1
100
AcDbPolyline
 90
    2
 70
    0
 43
0
 10
109.1412727781389
 20
149.5335801904762
 10
109.1412727781389
 20
152.5349960039711
  0
LWPOLYLINE
  5
AF
100
AcDbEntity
  8
0
  6
ByLayer
 62
    0
370
   -1
100
AcDbPolyline
 90
    2
 70
    0
 43
0
 10
82.02815290640662
 20
241.3780222130957
 10
85.02956871990158
 20
241.3780222130957
  0
LWPOLYLINE
  5
B0
100
AcDbEntity
  8
0
  6
ByLayer
 62
    0
370
   -1
100
AcDbPolyline
 90
    2
 70
    0
 43
0
 10
85.02956871990158
 20
241.3780222130957
 10
85.02956871990158
 20
236.3746460424156
  0
LWPOLYLINE
  5
B1
100
AcDbEntity
  8
0
  6
ByLayer
 62
    0
370
   -1
100
AcDbPolyline
 90
    2
 70
    0
 43
0
 10
85.02956871990158
 20
236.3746460424156
 10
82.02815290640662
 20
236.3746460424156
  0
LWPOLYLINE
  5
B2
100
AcDbEntity
  8
0
  6
ByLayer
 62
    0
370
   -1
100
AcDbPolyline
 90
    2
 70
    0
 43
0
 10
82.02815290640662
 20
236.3746460424156
 10
82.02815290640662
 20
241.3780222130957
  0
LWPOLYLINE
  5
B3
100
AcDbEntity
  8
0
  6
ByLayer
 62
    0
370
   -1
100
AcDbPolyline
 90
    2
 70
    0
 43
0
 10
99.96905176617663
 20
129.4585783756871
 10
51.94614462987697
 20
129.4585783756871
  0
LWPOLYLINE
  5
B4
100
AcDbEntity
  8
0
  6
ByLayer
 62
    0
370
   -1
100
AcDbPolyline
 90
    2
 70
    0
 43
0
 10
51.94614462987697
 20
129.4585783756871
 10
48.94472881638203
 20
126.4569084418117
  0
LWPOLYLINE
  5
B5
100
AcDbEntity
  8
0
  6
ByLayer
 62
    0
370
   -1
100
AcDbPolyline
 90
    2
 70
    0
 43
0
 10
48.94472881638203
 20
126.4569084418117
 10
48.94472881638203
 20
48.9196979589077
  0
LWPOLYLINE
  5
B6
100
AcDbEntity
  8
0
  6
ByLayer
 62
    0
370
   -1
100
AcDbPolyline
 90
    2
 70
    0
 43
0
 10
48.94472881638203
 20
48.9196979589077
 10
51.94614462987697
 20
45.91802802503231
  0
LWPOLYLINE
  5
B7
100
AcDbEntity
  8
0
  6
ByLayer
 62
    0
370
   -1
100
AcDbPolyline
 90
    2
 70
    0
 43
0
 10
51.94614462987697
 20
45.91802802503231
 10
65.95249763913962
 20
45.91802802503231
  0
LWPOLYLINE
  5
B8
100
AcDbEntity
  8
0
  6
ByLayer
 62
    0
370
   -1
100
AcDbPolyline
 90
    2
 70
    0
 43
0
 10
65.95249763913962
 20
45.91802802503231
 10
65.95249763913962
 20
48.9196979589077
  0
LWPOLYLINE
  5
B9
100
AcDbEntity
  8
0
  6
ByLayer
 62
    0
370
   -1
100
AcDbPolyline
 90
    2
 70
    0
 43
0
 10
65.95249763913962
 20
48.9196979589077
 10
85.96269875691397
 20
48.9196979589077
  0
LWPOLYLINE
  5
BA
100
AcDbEntity
  8
0
  6
ByLayer
 62
    0
370
   -1
100
AcDbPolyline
 90
    2
 70
    0
 43
0
 10
85.96269875691397
 20
48.9196979589077
 10
85.96269875691397
 20
45.91802802503231
  0
LWPOLYLINE
  5
BB
100
AcDbEntity
  8
0
  6
ByLayer
 62
    0
370
   -1
100
AcDbPolyline
 90
    2
 70
    0
 43
0
 10
85.96269875691397
 20
45.91802802503231
 10
99.96905176617663
 20
45.91802802503231
  0
LWPOLYLINE
  5
BC
100
AcDbEntity
  8
0
  6
ByLayer
 62
    0
370
   -1
100
AcDbPolyline
 90
    2
 70
    0
 43
0
 10
99.96905176617663
 20
45.91802802503231
 10
102.9704675796716
 20
48.9196979589077
  0
LWPOLYLINE
  5
BD
100
AcDbEntity
  8
0
  6
ByLayer
 62
    0
370
   -1
100
AcDbPolyline
 90
    2
 70
    0
 43
0
 10
102.9704675796716
 20
48.9196979589077
 10
102.9704675796716
 20
126.4569084418117
  0
LWPOLYLINE
  5
BE
100
AcDbEntity
  8
0
  6
ByLayer
 62
    0
370
   -1
100
AcDbPolyline
 90
    2
 70
    0
 43
0
 10
102.9704675796716
 20
126.4569084418117
 10
99.96905176617663
 20
129.4585783756871
  0
LWPOLYLINE
  5
BF
100
AcDbEntity
  8
0
  6
ByLayer
 62
    0
370
   -1
100
AcDbPolyline
 90
    2
 70
    0
 43
0
 10
65.95249763913962
 20
81.43592535976789
 10
65.95249763913962
 20
66.42732157001045
  0
LWPOLYLINE
  5
C0
100
AcDbEntity
  8
0
  6
ByLayer
 62
    0
370
   -1
100
AcDbPolyline
 90
    2
 70
    0
 43
0
 10
65.95249763913962
 20
66.42732157001045
 10
62.95108182564468
 20
66.42732157001045
  0
LWPOLYLINE
  5
C1
100
AcDbEntity
  8
0
  6
ByLayer
 62
    0
370
   -1
100
AcDbPolyline
 90
    2
 70
    0
 43
0
 10
62.95108182564468
 20
66.42732157001045
 10
62.95108182564468
 20
81.43592535976789
  0
LWPOLYLINE
  5
C2
100
AcDbEntity
  8
0
  6
ByLayer
 62
    0
370
   -1
100
AcDbPolyline
 90
    2
 70
    0
 43
0
 10
62.95108182564468
 20
81.43592535976789
 10
65.95249763913962
 20
81.43592535976789
  0
LWPOLYLINE
  5
C3
100
AcDbEntity
  8
0
  6
ByLayer
 62
    0
370
   -1
100
AcDbPolyline
 90
    2
 70
    0
 43
0
 10
65.95249763913962
 20
111.4500834947174
 10
65.95249763913962
 20
96.44300442724264
  0
LWPOLYLINE
  5
C4
100
AcDbEntity
  8
0
  6
ByLayer
 62
    0
370
   -1
100
AcDbPolyline
 90
    2
 70
    0
 43
0
 10
65.95249763913962
 20
96.44300442724264
 10
62.95108182564468
 20
96.44300442724264
  0
LWPOLYLINE
  5
C5
100
AcDbEntity
  8
0
  6
ByLayer
 62
    0
370
   -1
100
AcDbPolyline
 90
    2
 70
    0
 43
0
 10
62.95108182564468
 20
96.44300442724264
 10
62.95108182564468
 20
111.4500834947174
  0
LWPOLYLINE
  5
C6
100
AcDbEntity
  8
0
  6
ByLayer
 62
    0
370
   -1
100
AcDbPolyline
 90
    2
 70
    0
 43
0
 10
62.95108182564468
 20
111.4500834947174
 10
65.95249763913962
 20
111.4500834947174
  0
LWPOLYLINE
  5
C7
100
AcDbEntity
  8
0
  6
ByLayer
 62
    0
370
   -1
100
AcDbPolyline
 90
    2
 70
    0
 43
0
 10
88.96411457040892
 20
81.43592535976789
 10
88.96411457040892
 20
66.42732157001045
  0
LWPOLYLINE
  5
C8
100
AcDbEntity
  8
0
  6
ByLayer
 62
    0
370
   -1
100
AcDbPolyline
 90
    2
 70
    0
 43
0
 10
88.96411457040892
 20
66.42732157001045
 10
85.96269875691397
 20
66.42732157001045
  0
LWPOLYLINE
  5
C9
100
AcDbEntity
  8
0
  6
ByLayer
 62
    0
370
   -1
100
AcDbPolyline
 90
    2
 70
    0
 43
0
 10
85.96269875691397
 20
66.42732157001045
 10
85.96269875691397
 20
81.43592535976789
  0
LWPOLYLINE
  5
CA
100
AcDbEntity
  8
0
  6
ByLayer
 62
    0
370
   -1
100
AcDbPolyline
 90
    2
 70
    0
 43
0
 10
85.96269875691397
 20
81.43592535976789
 10
88.96411457040892
 20
81.43592535976789
  0
LWPOLYLINE
  5
CB
100
AcDbEntity
  8
0
  6
ByLayer
 62
    0
370
   -1
100
AcDbPolyline
 90
    2
 70
    0
 43
0
 10
88.96411457040892
 20
111.4500834947174
 10
88.96411457040892
 20
96.44300442724264
  0
LWPOLYLINE
  5
CC
100
AcDbEntity
  8
0
  6
ByLayer
 62
    0
370
   -1
100
AcDbPolyline
 90
    2
 70
    0
 43
0
 10
88.96411457040892
 20
96.44300442724264
 10
85.96269875691397
 20
96.44300442724264
  0
LWPOLYLINE
  5
CD
100
AcDbEntity
  8
0
  6
ByLayer
 62
    0
370
   -1
100
AcDbPolyline
 90
    2
 70
    0
 43
0
 10
85.96269875691397
 20
96.44300442724264
 10
85.96269875691397
 20
111.4500834947174
  0
LWPOLYLINE
  5
CE
100
AcDbEntity
  8
0
  6
ByLayer
 62
    0
370
   -1
100
AcDbPolyline
 90
    2
 70
    0
 43
0
 10
85.96269875691397
 20
111.4500834947174
 10
88.96411457040892
 20
111.4500834947174
  0
LWPOLYLINE
  5
CF
100
AcDbEntity
  8
0
  6
ByLayer
 62
    0
370
   -1
100
AcDbPolyline
 90
    2
 70
    0
 43
0
 10
180.0586473503204
 20
260.8876061813835
 10
180.0586473503204
 20
286.8993683242455
  0
LWPOLYLINE
  5
D0
100
AcDbEntity
  8
0
  6
ByLayer
 62
    0
370
   -1
100
AcDbPolyline
 90
    2
 70
    0
 43
0
 10
180.0586473503204
 20
286.8993683242455
 10
163.4508640063911
 20
286.8993683242455
  0
LWPOLYLINE
  5
D1
100
AcDbEntity
  8
0
  6
ByLayer
 62
    0
370
   -1
100
AcDbPolyline
 90
    2
 70
    0
 43
0
 10
163.4508640063911
 20
286.8993683242455
 10
163.4508640063911
 20
283.898206631131
  0
LWPOLYLINE
  5
D2
100
AcDbEntity
  8
0
  6
ByLayer
 62
    0
370
   -1
100
AcDbPolyline
 90
    2
 70
    0
 43
0
 10
163.4508640063911
 20
283.898206631131
 10
148.4435308185359
 20
283.898206631131
  0
LWPOLYLINE
  5
D3
100
AcDbEntity
  8
0
  6
ByLayer
 62
    0
370
   -1
100
AcDbPolyline
 90
    2
 70
    0
 43
0
 10
148.4435308185359
 20
283.898206631131
 10
148.4435308185359
 20
286.8993683242455
  0
LWPOLYLINE
  5
D4
100
AcDbEntity
  8
0
  6
ByLayer
 62
    0
370
   -1
100
AcDbPolyline
 90
    2
 70
    0
 43
0
 10
148.4435308185359
 20
286.8993683242455
 10
133.4367058714416
 20
286.8993683242455
  0
LWPOLYLINE
  5
D5
100
AcDbEntity
  8
0
  6
ByLayer
 62
    0
370
   -1
100
AcDbPolyline
 90
    2
 70
    0
 43
0
 10
133.4367058714416
 20
286.8993683242455
 10
133.4367058714416
 20
283.898206631131
  0
LWPOLYLINE
  5
D6
100
AcDbEntity
  8
0
  6
ByLayer
 62
    0
370
   -1
100
AcDbPolyline
 90
    2
 70
    0
 43
0
 10
133.4367058714416
 20
283.898206631131
 10
118.4293726835864
 20
283.898206631131
  0
LWPOLYLINE
  5
D7
100
AcDbEntity
  8
0
  6
ByLayer
 62
    0
370
   -1
100
AcDbPolyline
 90
    2
 70
    0
 43
0
 10
118.4293726835864
 20
283.898206631131
 10
118.4293726835864
 20
263.888767874498
  0
LWPOLYLINE
  5
D8
100
AcDbEntity
  8
0
  6
ByLayer
 62
    0
370
   -1
100
AcDbPolyline
 90
    2
 70
    0
 43
0
 10
118.4293726835864
 20
263.888767874498
 10
133.4367058714416
 20
263.888767874498
  0
LWPOLYLINE
  5
D9
100
AcDbEntity
  8
0
  6
ByLayer
 62
    0
370
   -1
100
AcDbPolyline
 90
    2
 70
    0
 43
0
 10
133.4367058714416
 20
263.888767874498
 10
133.4367058714416
 20
260.8876061813835
  0
LWPOLYLINE
  5
DA
100
AcDbEntity
  8
0
  6
ByLayer
 62
    0
370
   -1
100
AcDbPolyline
 90
    2
 70
    0
 43
0
 10
133.4367058714416
 20
260.8876061813835
 10
148.4435308185359
 20
260.8876061813835
  0
LWPOLYLINE
  5
DB
100
AcDbEntity
  8
0
  6
ByLayer
 62
    0
370
   -1
100
AcDbPolyline
 90
    2
 70
    0
 43
0
 10
148.4435308185359
 20
260.8876061813835
 10
148.4435308185359
 20
263.888767874498
  0
LWPOLYLINE
  5
DC
100
AcDbEntity
  8
0
  6
ByLayer
 62
    0
370
   -1
100
AcDbPolyline
 90
    2
 70
    0
 43
0
 10
148.4435308185359
 20
263.888767874498
 10
163.4508640063911
 20
263.888767874498
  0
LWPOLYLINE
  5
DD
100
AcDbEntity
  8
0
  6
ByLayer
 62
    0
370
   -1
100
AcDbPolyline
 90
    2
 70
    0
 43
0
 10
163.4508640063911
 20
263.888767874498
 10
163.4508640063911
 20
260.8876061813835
  0
LWPOLYLINE
  5
DE
100
AcDbEntity
  8
0
  6
ByLayer
 62
    0
370
   -1
100
AcDbPolyline
 90
    2
 70
    0
 43
0
 10
163.4508640063911
 20
260.8876061813835
 10
180.0586473503204
 20
260.8876061813835
  0
LWPOLYLINE
  5
DF
100
AcDbEntity
  8
0
  6
ByLayer
 62
    0
370
   -1
100
AcDbPolyline
 90
   17
 70
    1
 43
0
 10
148.0425288581858
 20
273.8934872528145
 10
147.4125644350503
 20
277.011544320936
 10
145.6972518670128
 20
279.552748125436
 10
143.1535068587083
 20
281.2680606934735
 10
140.0392615962935
 20
281.8982792369895
 10
136.9234916115961
 20
281.2680606934735
 10
134.3797466032916
 20
279.552748125436
 10
132.6644340352541
 20
277.011544320936
 10
132.0357402140208
 20
273.8934872528145
 10
132.6644340352541
 20
270.7779713884975
 10
134.3797466032916
 20
268.234226380193
 10
136.9234916115961
 20
266.5189138121555
 10
140.0392615962935
 20
265.8886952686395
 10
143.1535068587083
 20
266.5189138121555
 10
145.6972518670128
 20
268.234226380193
 10
147.4125644350503
 20
270.7779713884975
 10
148.0425288581858
 20
273.8934872528145
  0
LWPOLYLINE
  5
E0
100
AcDbEntity
  8
0
  6
ByLayer
 62
    0
370
   -1
100
AcDbPolyline
 90
   17
 70
    1
 43
0
 10
178.0566869931353
 20
273.8934872528145
 10
177.4267225699998
 20
277.011544320936
 10
175.7114100019623
 20
279.552748125436
 10
173.1676649936578
 20
281.2680606934735
 10
170.053419731243
 20
281.8982792369895
 10
166.9373956261651
 20
281.2680606934735
 10
164.393904738241
 20
279.552748125436
 10
162.6785921702036
 20
277.011544320936
 10
162.0498983489703
 20
273.8934872528145
 10
162.6785921702036
 20
270.7779713884975
 10
164.393904738241
 20
268.234226380193
 10
166.9373956261651
 20
266.5189138121555
 10
170.053419731243
 20
265.8886952686395
 10
173.1676649936578
 20
266.5189138121555
 10
175.7114100019623
 20
268.234226380193
 10
177.4267225699998
 20
270.7779713884975
 10
178.0566869931353
 20
273.8934872528145
  0
LWPOLYLINE
  5
E1
100
AcDbEntity
  8
0
  6
ByLayer
 62
    0
370
   -1
100
AcDbPolyline
 90
    2
 70
    0
 43
0
 10
162.8150548145052
 20
110.7067813819011
 10
140.8044180618285
 20
110.7067813819011
  0
LWPOLYLINE
  5
E2
100
AcDbEntity
  8
0
  6
ByLayer
 62
    0
370
   -1
100
AcDbPolyline
 90
    2
 70
    0
 43
0
 10
140.8044180618285
 20
110.7067813819011
 10
140.8044180618285
 20
113.7081971953961
  0
LWPOLYLINE
  5
E3
100
AcDbEntity
  8
0
  6
ByLayer
 62
    0
370
   -1
100
AcDbPolyline
 90
    2
 70
    0
 43
0
 10
140.8044180618285
 20
113.7081971953961
 10
125.7970848739733
 20
113.7081971953961
  0
LWPOLYLINE
  5
E4
100
AcDbEntity
  8
0
  6
ByLayer
 62
    0
370
   -1
100
AcDbPolyline
 90
    2
 70
    0
 43
0
 10
125.7970848739733
 20
113.7081971953961
 10
125.7970848739733
 20
110.7067813819011
  0
LWPOLYLINE
  5
E5
100
AcDbEntity
  8
0
  6
ByLayer
 62
    0
370
   -1
100
AcDbPolyline
 90
    2
 70
    0
 43
0
 10
125.7970848739733
 20
110.7067813819011
 10
105.7868837561989
 20
110.7067813819011
  0
LWPOLYLINE
  5
E6
100
AcDbEntity
  8
0
  6
ByLayer
 62
    0
370
   -1
100
AcDbPolyline
 90
    2
 70
    0
 43
0
 10
105.7868837561989
 20
110.7067813819011
 10
105.7868837561989
 20
105.7051840538843
  0
LWPOLYLINE
  5
E7
100
AcDbEntity
  8
0
  6
ByLayer
 62
    0
370
   -1
100
AcDbPolyline
 90
    2
 70
    0
 43
0
 10
105.7868837561989
 20
105.7051840538843
 10
108.7882995696939
 20
105.7051840538843
  0
LWPOLYLINE
  5
E8
100
AcDbEntity
  8
0
  6
ByLayer
 62
    0
370
   -1
100
AcDbPolyline
 90
    2
 70
    0
 43
0
 10
108.7882995696939
 20
105.7051840538843
 10
108.7882995696939
 20
100.7033326054869
  0
LWPOLYLINE
  5
E9
100
AcDbEntity
  8
0
  6
ByLayer
 62
    0
370
   -1
100
AcDbPolyline
 90
    2
 70
    0
 43
0
 10
108.7882995696939
 20
100.7033326054869
 10
105.7868837561989
 20
100.7033326054869
  0
LWPOLYLINE
  5
EA
100
AcDbEntity
  8
0
  6
ByLayer
 62
    0
370
   -1
100
AcDbPolyline
 90
    2
 70
    0
 43
0
 10
105.7868837561989
 20
100.7033326054869
 10
105.7868837561989
 20
95.69995643480685
  0
LWPOLYLINE
  5
EB
100
AcDbEntity
  8
0
  6
ByLayer
 62
    0
370
   -1
100
AcDbPolyline
 90
    2
 70
    0
 43
0
 10
105.7868837561989
 20
95.69995643480685
 10
108.7882995696939
 20
95.69995643480685
  0
LWPOLYLINE
  5
EC
100
AcDbEntity
  8
0
  6
ByLayer
 62
    0
370
   -1
100
AcDbPolyline
 90
    2
 70
    0
 43
0
 10
108.7882995696939
 20
95.69995643480685
 10
108.7882995696939
 20
90.69810498640949
  0
LWPOLYLINE
  5
ED
100
AcDbEntity
  8
0
  6
ByLayer
 62
    0
370
   -1
100
AcDbPolyline
 90
    2
 70
    0
 43
0
 10
108.7882995696939
 20
90.69810498640949
 10
159.8136390010103
 20
90.69810498640949
  0
LWPOLYLINE
  5
EE
100
AcDbEntity
  8
0
  6
ByLayer
 62
    0
370
   -1
100
AcDbPolyline
 90
    2
 70
    0
 43
0
 10
159.8136390010103
 20
90.69810498640949
 10
159.8136390010103
 20
95.69995643480685
  0
LWPOLYLINE
  5
EF
100
AcDbEntity
  8
0
  6
ByLayer
 62
    0
370
   -1
100
AcDbPolyline
 90
    2
 70
    0
 43
0
 10
159.8136390010103
 20
95.69995643480685
 10
162.8150548145052
 20
95.69995643480685
  0
LWPOLYLINE
  5
F0
100
AcDbEntity
  8
0
  6
ByLayer
 62
    0
370
   -1
100
AcDbPolyline
 90
    2
 70
    0
 43
0
 10
162.8150548145052
 20
95.69995643480685
 10
162.8150548145052
 20
100.7033326054869
  0
LWPOLYLINE
  5
F1
100
AcDbEntity
  8
0
  6
ByLayer
 62
    0
370
   -1
100
AcDbPolyline
 90
    2
 70
    0
 43
0
 10
162.8150548145052
 20
100.7033326054869
 10
159.8136390010103
 20
100.7033326054869
  0
LWPOLYLINE
  5
F2
100
AcDbEntity
  8
0
  6
ByLayer
 62
    0
370
   -1
100
AcDbPolyline
 90
    2
 70
    0
 43
0
 10
159.8136390010103
 20
100.7033326054869
 10
159.8136390010103
 20
105.7051840538843
  0
LWPOLYLINE
  5
F3
100
AcDbEntity
  8
0
  6
ByLayer
 62
    0
370
   -1
100
AcDbPolyline
 90
    2
 70
    0
 43
0
 10
159.8136390010103
 20
105.7051840538843
 10
162.8150548145052
 20
105.7051840538843
  0
LWPOLYLINE
  5
F4
100
AcDbEntity
  8
0
  6
ByLayer
 62
    0
370
   -1
100
AcDbPolyline
 90
    2
 70
    0
 43
0
 10
162.8150548145052
 20
105.7051840538843
 10
162.8150548145052
 20
110.7067813819011
  0
LWPOLYLINE
  5
F5
100
AcDbEntity
  8
0
  6
ByLayer
 62
    0
370
   -1
100
AcDbPolyline
 90
   33
 70
    1
 43
0
 10
118.2931641596652
 20
105.7051840538843
 10
117.2837980085178
 20
105.6042982628456
 10
116.3450773231355
 20
105.3120598253281
 10
115.4958070116716
 20
104.8518478163331
 10
114.7553002230403
 20
104.2409424217313
 10
114.144648948819
 20
103.5004356331001
 10
113.6841828194436
 20
102.6498947197339
 10
113.3919443819261
 20
101.7109199139711
 10
113.2913127112679
 20
100.7033326054869
 10
113.3919443819261
 20
99.69523705624174
 10
113.6841828194436
 20
98.75651637085944
 10
114.144648948819
 20
97.90724605939553
 10
114.7553002230403
 20
97.16546866886199
 10
115.4958070116716
 20
96.55481739464064
 10
116.3450773231355
 20
96.0940971448848
 10
117.2837980085178
 20
95.80185870736729
 10
118.2931641596652
 20
95.69995643480685
 10
119.3007514681495
 20
95.80185870736729
 10
120.2397262739122
 20
96.0940971448848
 10
121.0892507057566
 20
96.55481739464064
 10
121.8307739759097
 20
97.16546866886199
 10
122.4416793705115
 20
97.90724605939553
 10
122.9018913795064
 20
98.75651637085944
 10
123.1941298170239
 20
99.69523705624174
 10
123.2962862099648
 20
100.7033326054869
 10
123.1941298170239
 20
101.7109199139711
 10
122.9018913795064
 20
102.6498947197339
 10
122.4416793705115
 20
103.5004356331001
 10
121.8307739759097
 20
104.2409424217313
 10
121.0892507057566
 20
104.8518478163331
 10
120.2397262739122
 20
105.3120598253281
 10
119.3007514681495
 20
105.6042982628456
 10
118.2931641596652
 20
105.7051840538843
  0
LWPOLYLINE
  5
F6
100
AcDbEntity
  8
0
  6
ByLayer
 62
    0
370
   -1
100
AcDbPolyline
 90
   33
 70
    1
 43
0
 10
148.3073222946147
 20
105.7051840538843
 10
147.2979561434673
 20
105.6042982628456
 10
146.3589813377046
 20
105.3120598253281
 10
145.5099651466211
 20
104.8518478163331
 10
144.7694583579898
 20
104.2409424217313
 10
144.1588070837685
 20
103.5004356331001
 10
143.6980868340126
 20
102.6498947197339
 10
143.4058483964951
 20
101.7109199139711
 10
143.3054708462174
 20
100.7033326054869
 10
143.4058483964951
 20
99.69523705624174
 10
143.6980868340126
 20
98.75651637085944
 10
144.1588070837685
 20
97.90724605939553
 10
144.7694583579898
 20
97.16546866886199
 10
145.5099651466211
 20
96.55481739464064
 10
146.3589813377046
 20
96.0940971448848
 10
147.2979561434673
 20
95.80185870736729
 10
148.3073222946147
 20
95.69995643480685
 10
149.314909603099
 20
95.80185870736729
 10
150.2538844088617
 20
96.0940971448848
 10
151.1034088407061
 20
96.55481739464064
 10
151.8449321108592
 20
97.16546866886199
 10
152.455837505461
 20
97.90724605939553
 10
152.9160495144559
 20
98.75651637085944
 10
153.2082879519734
 20
99.69523705624174
 10
153.3106984652948
 20
100.7033326054869
 10
153.2082879519734
 20
101.7109199139711
 10
152.9160495144559
 20
102.6498947197339
 10
152.455837505461
 20
103.5004356331001
 10
151.8449321108592
 20
104.2409424217313
 10
151.1034088407061
 20
104.8518478163331
 10
150.2538844088617
 20
105.3120598253281
 10
149.314909603099
 20
105.6042982628456
 10
148.3073222946147
 20
105.7051840538843
  0
LWPOLYLINE
  5
F7
100
AcDbEntity
  8
0
  6
ByLayer
 62
    0
370
   -1
100
AcDbPolyline
 90
    2
 70
    0
 43
0
 10
162.8150548145052
 20
136.1188194269012
 10
140.8044180618285
 20
136.1188194269012
  0
LWPOLYLINE
  5
F8
100
AcDbEntity
  8
0
  6
ByLayer
 62
    0
370
   -1
100
AcDbPolyline
 90
    2
 70
    0
 43
0
 10
140.8044180618285
 20
136.1188194269012
 10
140.8044180618285
 20
139.1202352403961
  0
LWPOLYLINE
  5
F9
100
AcDbEntity
  8
0
  6
ByLayer
 62
    0
370
   -1
100
AcDbPolyline
 90
    2
 70
    0
 43
0
 10
140.8044180618285
 20
139.1202352403961
 10
125.7970848739733
 20
139.1202352403961
  0
LWPOLYLINE
  5
FA
100
AcDbEntity
  8
0
  6
ByLayer
 62
    0
370
   -1
100
AcDbPolyline
 90
    2
 70
    0
 43
0
 10
125.7970848739733
 20
139.1202352403961
 10
125.7970848739733
 20
136.1188194269012
  0
LWPOLYLINE
  5
FB
100
AcDbEntity
  8
0
  6
ByLayer
 62
    0
370
   -1
100
AcDbPolyline
 90
    2
 70
    0
 43
0
 10
125.7970848739733
 20
136.1188194269012
 10
105.7884084784816
 20
136.1188194269012
  0
LWPOLYLINE
  5
FC
100
AcDbEntity
  8
0
  6
ByLayer
 62
    0
370
   -1
100
AcDbPolyline
 90
    2
 70
    0
 43
0
 10
105.7884084784816
 20
136.1188194269012
 10
105.7884084784816
 20
131.1172220988842
  0
LWPOLYLINE
  5
FD
100
AcDbEntity
  8
0
  6
ByLayer
 62
    0
370
   -1
100
AcDbPolyline
 90
    2
 70
    0
 43
0
 10
105.7884084784816
 20
131.1172220988842
 10
108.7898242919766
 20
131.1172220988842
  0
LWPOLYLINE
  5
FE
100
AcDbEntity
  8
0
  6
ByLayer
 62
    0
370
   -1
100
AcDbPolyline
 90
    2
 70
    0
 43
0
 10
108.7898242919766
 20
131.1172220988842
 10
108.7898242919766
 20
126.1138459282042
  0
LWPOLYLINE
  5
FF
100
AcDbEntity
  8
0
  6
ByLayer
 62
    0
370
   -1
100
AcDbPolyline
 90
    2
 70
    0
 43
0
 10
108.7898242919766
 20
126.1138459282042
 10
105.7884084784816
 20
126.1138459282042
  0
LWPOLYLINE
  5
100
100
AcDbEntity
  8
0
  6
ByLayer
 62
    0
370
   -1
100
AcDbPolyline
 90
    2
 70
    0
 43
0
 10
105.7884084784816
 20
126.1138459282042
 10
105.7884084784816
 20
121.1119944798069
  0
LWPOLYLINE
  5
101
100
AcDbEntity
  8
0
  6
ByLayer
 62
    0
370
   -1
100
AcDbPolyline
 90
    2
 70
    0
 43
0
 10
105.7884084784816
 20
121.1119944798069
 10
108.7898242919766
 20
121.1119944798069
  0
LWPOLYLINE
  5
102
100
AcDbEntity
  8
0
  6
ByLayer
 62
    0
370
   -1
100
AcDbPolyline
 90
    2
 70
    0
 43
0
 10
108.7898242919766
 20
121.1119944798069
 10
108.7898242919766
 20
116.1101430314095
  0
LWPOLYLINE
  5
103
100
AcDbEntity
  8
0
  6
ByLayer
 62
    0
370
   -1
100
AcDbPolyline
 90
    2
 70
    0
 43
0
 10
108.7898242919766
 20
116.1101430314095
 10
159.8136390010103
 20
116.1101430314095
  0
LWPOLYLINE
  5
104
100
AcDbEntity
  8
0
  6
ByLayer
 62
    0
370
   -1
100
AcDbPolyline
 90
    2
 70
    0
 43
0
 10
159.8136390010103
 20
116.1101430314095
 10
159.8136390010103
 20
121.1119944798069
  0
LWPOLYLINE
  5
105
100
AcDbEntity
  8
0
  6
ByLayer
 62
    0
370
   -1
100
AcDbPolyline
 90
    2
 70
    0
 43
0
 10
159.8136390010103
 20
121.1119944798069
 10
162.8150548145052
 20
121.1119944798069
  0
LWPOLYLINE
  5
106
100
AcDbEntity
  8
0
  6
ByLayer
 62
    0
370
   -1
100
AcDbPolyline
 90
    2
 70
    0
 43
0
 10
162.8150548145052
 20
121.1119944798069
 10
162.8150548145052
 20
126.1138459282042
  0
LWPOLYLINE
  5
107
100
AcDbEntity
  8
0
  6
ByLayer
 62
    0
370
   -1
100
AcDbPolyline
 90
    2
 70
    0
 43
0
 10
162.8150548145052
 20
126.1138459282042
 10
159.8136390010103
 20
126.1138459282042
  0
LWPOLYLINE
  5
108
100
AcDbEntity
  8
0
  6
ByLayer
 62
    0
370
   -1
100
AcDbPolyline
 90
    2
 70
    0
 43
0
 10
159.8136390010103
 20
126.1138459282042
 10
159.8136390010103
 20
131.1172220988842
  0
LWPOLYLINE
  5
109
100
AcDbEntity
  8
0
  6
ByLayer
 62
    0
370
   -1
100
AcDbPolyline
 90
    2
 70
    0
 43
0
 10
159.8136390010103
 20
131.1172220988842
 10
162.8150548145052
 20
131.1172220988842
  0
LWPOLYLINE
  5
10A
100
AcDbEntity
  8
0
  6
ByLayer
 62
    0
370
   -1
100
AcDbPolyline
 90
    2
 70
    0
 43
0
 10
162.8150548145052
 20
131.1172220988842
 10
162.8150548145052
 20
136.1188194269012
  0
LWPOLYLINE
  5
10B
100
AcDbEntity
  8
0
  6
ByLayer
 62
    0
370
   -1
100
AcDbPolyline
 90
   33
 70
    1
 43
0
 10
118.2931641596652
 20
131.1172220988842
 10
117.2837980085178
 20
131.0163363078456
 10
116.3450773231355
 20
130.7240978703281
 10
115.4958070116716
 20
130.2638858613331
 10
114.7553002230403
 20
129.6514557444486
 10
114.144648948819
 20
128.9114571965783
 10
113.6841828194436
 20
128.0619327647339
 10
113.3919443819261
 20
127.1229579589711
 10
113.2913127112679
 20
126.1138459282042
 10
113.3919443819261
 20
125.1072751012417
 10
113.6841828194436
 20
124.1685544158594
 10
114.144648948819
 20
123.3180135024933
 10
114.7553002230403
 20
122.577506713862
 10
115.4958070116716
 20
121.9668554396407
 10
116.3450773231355
 20
121.5061351898848
 10
117.2837980085178
 20
121.2138967523673
 10
118.2931641596652
 20
121.1119944798069
 10
119.3007514681495
 20
121.2138967523673
 10
120.2397262739122
 20
121.5061351898848
 10
121.0892507057566
 20
121.9668554396407
 10
121.8307739759097
 20
122.577506713862
 10
122.4416793705115
 20
123.3180135024933
 10
122.9018913795064
 20
124.1685544158594
 10
123.1941298170239
 20
125.1072751012417
 10
123.2962862099648
 20
126.1138459282042
 10
123.1941298170239
 20
127.1229579589711
 10
122.9018913795064
 20
128.0619327647339
 10
122.4416793705115
 20
128.9114571965783
 10
121.8307739759097
 20
129.6514557444486
 10
121.0892507057566
 20
130.2638858613331
 10
120.2397262739122
 20
130.7240978703281
 10
119.3007514681495
 20
131.0163363078456
 10
118.2931641596652
 20
131.1172220988842
  0
LWPOLYLINE
  5
10C
100
AcDbEntity
  8
0
  6
ByLayer
 62
    0
370
   -1
100
AcDbPolyline
 90
   33
 70
    1
 43
0
 10
148.3073222946147
 20
131.1172220988842
 10
147.2992267453696
 20
131.0163363078456
 10
146.3605060599873
 20
130.7240978703281
 10
145.5099651466211
 20
130.2638858613331
 10
144.7694583579898
 20
129.6514557444486
 10
144.1588070837685
 20
128.9114571965783
 10
143.6980868340126
 20
128.0619327647339
 10
143.4058483964951
 20
127.1229579589711
 10
143.3054708462174
 20
126.1138459282042
 10
143.4058483964951
 20
125.1072751012417
 10
143.6980868340126
 20
124.1685544158594
 10
144.1588070837685
 20
123.3180135024933
 10
144.7694583579898
 20
122.577506713862
 10
145.5099651466211
 20
121.9668554396407
 10
146.3605060599873
 20
121.5061351898848
 10
147.2992267453696
 20
121.2138967523673
 10
148.3073222946147
 20
121.1119944798069
 10
149.314909603099
 20
121.2138967523673
 10
150.2538844088617
 20
121.5061351898848
 10
151.1034088407061
 20
121.9668554396407
 10
151.8449321108592
 20
122.577506713862
 10
152.455837505461
 20
123.3180135024933
 10
152.9160495144559
 20
124.1685544158594
 10
153.2082879519734
 20
125.1072751012417
 10
153.3106984652948
 20
126.1138459282042
 10
153.2082879519734
 20
127.1229579589711
 10
152.9160495144559
 20
128.0619327647339
 10
152.455837505461
 20
128.9114571965783
 10
151.8449321108592
 20
129.6514557444486
 10
151.1034088407061
 20
130.2638858613331
 10
150.2538844088617
 20
130.7240978703281
 10
149.314909603099
 20
131.0163363078456
 10
148.3073222946147
 20
131.1172220988842
  0
LWPOLYLINE
  5
10D
100
AcDbEntity
  8
0
  6
ByLayer
 62
    0
370
   -1
100
AcDbPolyline
 90
    2
 70
    0
 43
0
 10
201.7590031184677
 20
43.55801205179315
 10
138.7295251554542
 20
43.55801205179315
  0
LWPOLYLINE
  5
10E
100
AcDbEntity
  8
0
  6
ByLayer
 62
    0
370
   -1
100
AcDbPolyline
 90
    2
 70
    0
 43
0
 10
138.7295251554542
 20
43.55801205179315
 10
133.7261489847742
 20
38.5546358811131
  0
LWPOLYLINE
  5
10F
100
AcDbEntity
  8
0
  6
ByLayer
 62
    0
370
   -1
100
AcDbPolyline
 90
    2
 70
    0
 43
0
 10
133.7261489847742
 20
38.5546358811131
 10
133.7261489847742
 20
8.540452334125554
  0
LWPOLYLINE
  5
110
100
AcDbEntity
  8
0
  6
ByLayer
 62
    0
370
   -1
100
AcDbPolyline
 90
    2
 70
    0
 43
0
 10
133.7261489847742
 20
8.540452334125554
 10
138.7295251554542
 20
3.538550061652115
  0
LWPOLYLINE
  5
111
100
AcDbEntity
  8
0
  6
ByLayer
 62
    0
370
   -1
100
AcDbPolyline
 90
    2
 70
    0
 43
0
 10
138.7295251554542
 20
3.538550061652115
 10
201.7590031184677
 20
3.538550061652115
  0
LWPOLYLINE
  5
112
100
AcDbEntity
  8
0
  6
ByLayer
 62
    0
370
   -1
100
AcDbPolyline
 90
    2
 70
    0
 43
0
 10
201.7590031184677
 20
3.538550061652115
 10
206.7611086872455
 20
8.540452334125554
  0
LWPOLYLINE
  5
113
100
AcDbEntity
  8
0
  6
ByLayer
 62
    0
370
   -1
100
AcDbPolyline
 90
    2
 70
    0
 43
0
 10
206.7611086872455
 20
8.540452334125554
 10
206.7611086872455
 20
38.5546358811131
  0
LWPOLYLINE
  5
114
100
AcDbEntity
  8
0
  6
ByLayer
 62
    0
370
   -1
100
AcDbPolyline
 90
    2
 70
    0
 43
0
 10
206.7611086872455
 20
38.5546358811131
 10
201.7590031184677
 20
43.55801205179315
  0
LWPOLYLINE
  5
115
100
AcDbEntity
  8
0
  6
ByLayer
 62
    0
370
   -1
100
AcDbPolyline
 90
    2
 70
    0
 43
0
 10
141.7309409689492
 20
19.54655848364332
 10
138.7295251554542
 20
19.54655848364332
  0
LWPOLYLINE
  5
116
100
AcDbEntity
  8
0
  6
ByLayer
 62
    0
370
   -1
100
AcDbPolyline
 90
    2
 70
    0
 43
0
 10
138.7295251554542
 20
19.54655848364332
 10
138.7295251554542
 20
11.54186814762051
  0
LWPOLYLINE
  5
117
100
AcDbEntity
  8
0
  6
ByLayer
 62
    0
370
   -1
100
AcDbPolyline
 90
    2
 70
    0
 43
0
 10
138.7295251554542
 20
11.54186814762051
 10
141.7309409689492
 20
11.54186814762051
  0
LWPOLYLINE
  5
118
100
AcDbEntity
  8
0
  6
ByLayer
 62
    0
370
   -1
100
AcDbPolyline
 90
    2
 70
    0
 43
0
 10
141.7309409689492
 20
11.54186814762051
 10
141.7309409689492
 20
19.54655848364332
  0
LWPOLYLINE
  5
119
100
AcDbEntity
  8
0
  6
ByLayer
 62
    0
370
   -1
100
AcDbPolyline
 90
    2
 70
    0
 43
0
 10
141.7309409689492
 20
35.55322006761815
 10
138.7295251554542
 20
35.55322006761815
  0
LWPOLYLINE
  5
11A
100
AcDbEntity
  8
0
  6
ByLayer
 62
    0
370
   -1
100
AcDbPolyline
 90
    2
 70
    0
 43
0
 10
138.7295251554542
 20
35.55322006761815
 10
138.7295251554542
 20
27.54995280572585
  0
LWPOLYLINE
  5
11B
100
AcDbEntity
  8
0
  6
ByLayer
 62
    0
370
   -1
100
AcDbPolyline
 90
    2
 70
    0
 43
0
 10
138.7295251554542
 20
27.54995280572585
 10
141.7309409689492
 20
27.54995280572585
  0
LWPOLYLINE
  5
11C
100
AcDbEntity
  8
0
  6
ByLayer
 62
    0
370
   -1
100
AcDbPolyline
 90
    2
 70
    0
 43
0
 10
141.7309409689492
 20
27.54995280572585
 10
141.7309409689492
 20
35.55322006761815
  0
LWPOLYLINE
  5
11D
100
AcDbEntity
  8
0
  6
ByLayer
 62
    0
370
   -1
100
AcDbPolyline
 90
    2
 70
    0
 43
0
 10
201.7590031184677
 20
19.54655848364332
 10
198.7575873049728
 20
19.54655848364332
  0
LWPOLYLINE
  5
11E
100
AcDbEntity
  8
0
  6
ByLayer
 62
    0
370
   -1
100
AcDbPolyline
 90
    2
 70
    0
 43
0
 10
198.7575873049728
 20
19.54655848364332
 10
198.7575873049728
 20
11.54186814762051
  0
LWPOLYLINE
  5
11F
100
AcDbEntity
  8
0
  6
ByLayer
 62
    0
370
   -1
100
AcDbPolyline
 90
    2
 70
    0
 43
0
 10
198.7575873049728
 20
11.54186814762051
 10
201.7590031184677
 20
11.54186814762051
  0
LWPOLYLINE
  5
120
100
AcDbEntity
  8
0
  6
ByLayer
 62
    0
370
   -1
100
AcDbPolyline
 90
    2
 70
    0
 43
0
 10
201.7590031184677
 20
11.54186814762051
 10
201.7590031184677
 20
19.54655848364332
  0
LWPOLYLINE
  5
121
100
AcDbEntity
  8
0
  6
ByLayer
 62
    0
370
   -1
100
AcDbPolyline
 90
    2
 70
    0
 43
0
 10
201.7590031184677
 20
35.55322006761815
 10
198.7575873049728
 20
35.55322006761815
  0
LWPOLYLINE
  5
122
100
AcDbEntity
  8
0
  6
ByLayer
 62
    0
370
   -1
100
AcDbPolyline
 90
    2
 70
    0
 43
0
 10
198.7575873049728
 20
35.55322006761815
 10
198.7575873049728
 20
27.54995280572585
  0
LWPOLYLINE
  5
123
100
AcDbEntity
  8
0
  6
ByLayer
 62
    0
370
   -1
100
AcDbPolyline
 90
    2
 70
    0
 43
0
 10
198.7575873049728
 20
27.54995280572585
 10
201.7590031184677
 20
27.54995280572585
  0
LWPOLYLINE
  5
124
100
AcDbEntity
  8
0
  6
ByLayer
 62
    0
370
   -1
100
AcDbPolyline
 90
    2
 70
    0
 43
0
 10
201.7590031184677
 20
27.54995280572585
 10
201.7590031184677
 20
35.55322006761815
  0
LWPOLYLINE
  5
125
100
AcDbEntity
  8
0
  6
ByLayer
 62
    0
370
   -1
100
AcDbPolyline
 90
    2
 70
    0
 43
0
 10
126.0524758563255
 20
43.5277717265196
 10
63.02274377293157
 20
43.5277717265196
  0
LWPOLYLINE
  5
126
100
AcDbEntity
  8
0
  6
ByLayer
 62
    0
370
   -1
100
AcDbPolyline
 90
    2
 70
    0
 43
0
 10
63.02274377293157
 20
43.5277717265196
 10
58.01936760225153
 20
38.5256661577418
  0
LWPOLYLINE
  5
127
100
AcDbEntity
  8
0
  6
ByLayer
 62
    0
370
   -1
100
AcDbPolyline
 90
    2
 70
    0
 43
0
 10
58.01936760225153
 20
38.5256661577418
 10
58.01936760225153
 20
8.511482610754255
  0
LWPOLYLINE
  5
128
100
AcDbEntity
  8
0
  6
ByLayer
 62
    0
370
   -1
100
AcDbPolyline
 90
    2
 70
    0
 43
0
 10
58.01936760225153
 20
8.511482610754255
 10
63.02274377293157
 20
3.50960575031886
  0
LWPOLYLINE
  5
129
100
AcDbEntity
  8
0
  6
ByLayer
 62
    0
370
   -1
100
AcDbPolyline
 90
    2
 70
    0
 43
0
 10
63.02274377293157
 20
3.50960575031886
 10
126.0524758563255
 20
3.50960575031886
  0
LWPOLYLINE
  5
12A
100
AcDbEntity
  8
0
  6
ByLayer
 62
    0
370
   -1
100
AcDbPolyline
 90
    2
 70
    0
 43
0
 10
126.0524758563255
 20
3.50960575031886
 10
131.0543273047229
 20
8.511482610754255
  0
LWPOLYLINE
  5
12B
100
AcDbEntity
  8
0
  6
ByLayer
 62
    0
370
   -1
100
AcDbPolyline
 90
    2
 70
    0
 43
0
 10
131.0543273047229
 20
8.511482610754255
 10
131.0543273047229
 20
38.5256661577418
  0
LWPOLYLINE
  5
12C
100
AcDbEntity
  8
0
  6
ByLayer
 62
    0
370
   -1
100
AcDbPolyline
 90
    2
 70
    0
 43
0
 10
131.0543273047229
 20
38.5256661577418
 10
126.0524758563255
 20
43.5277717265196
  0
LWPOLYLINE
  5
12D
100
AcDbEntity
  8
0
  6
ByLayer
 62
    0
370
   -1
100
AcDbPolyline
 90
    2
 70
    0
 43
0
 10
66.02415958642652
 20
19.51619109817955
 10
63.02274377293157
 20
19.51619109817955
  0
LWPOLYLINE
  5
12E
100
AcDbEntity
  8
0
  6
ByLayer
 62
    0
370
   -1
100
AcDbPolyline
 90
    2
 70
    0
 43
0
 10
63.02274377293157
 20
19.51619109817955
 10
63.02274377293157
 20
11.5128984242492
  0
LWPOLYLINE
  5
12F
100
AcDbEntity
  8
0
  6
ByLayer
 62
    0
370
   -1
100
AcDbPolyline
 90
    2
 70
    0
 43
0
 10
63.02274377293157
 20
11.5128984242492
 10
66.02415958642652
 20
11.5128984242492
  0
LWPOLYLINE
  5
130
100
AcDbEntity
  8
0
  6
ByLayer
 62
    0
370
   -1
100
AcDbPolyline
 90
    2
 70
    0
 43
0
 10
66.02415958642652
 20
11.5128984242492
 10
66.02415958642652
 20
19.51619109817955
  0
LWPOLYLINE
  5
131
100
AcDbEntity
  8
0
  6
ByLayer
 62
    0
370
   -1
100
AcDbPolyline
 90
    2
 70
    0
 43
0
 10
66.02415958642652
 20
35.52425034424685
 10
63.02274377293157
 20
35.52425034424685
  0
LWPOLYLINE
  5
132
100
AcDbEntity
  8
0
  6
ByLayer
 62
    0
370
   -1
100
AcDbPolyline
 90
    2
 70
    0
 43
0
 10
63.02274377293157
 20
35.52425034424685
 10
63.02274377293157
 20
27.52098308235455
  0
LWPOLYLINE
  5
133
100
AcDbEntity
  8
0
  6
ByLayer
 62
    0
370
   -1
100
AcDbPolyline
 90
    2
 70
    0
 43
0
 10
63.02274377293157
 20
27.52098308235455
 10
66.02415958642652
 20
27.52098308235455
  0
LWPOLYLINE
  5
134
100
AcDbEntity
  8
0
  6
ByLayer
 62
    0
370
   -1
100
AcDbPolyline
 90
    2
 70
    0
 43
0
 10
66.02415958642652
 20
27.52098308235455
 10
66.02415958642652
 20
35.52425034424685
  0
LWPOLYLINE
  5
135
100
AcDbEntity
  8
0
  6
ByLayer
 62
    0
370
   -1
100
AcDbPolyline
 90
    2
 70
    0
 43
0
 10
126.0524758563255
 20
19.51619109817955
 10
123.0508059224501
 20
19.51619109817955
  0
LWPOLYLINE
  5
136
100
AcDbEntity
  8
0
  6
ByLayer
 62
    0
370
   -1
100
AcDbPolyline
 90
    2
 70
    0
 43
0
 10
123.0508059224501
 20
19.51619109817955
 10
123.0508059224501
 20
11.5128984242492
  0
LWPOLYLINE
  5
137
100
AcDbEntity
  8
0
  6
ByLayer
 62
    0
370
   -1
100
AcDbPolyline
 90
    2
 70
    0
 43
0
 10
123.0508059224501
 20
11.5128984242492
 10
126.0524758563255
 20
11.5128984242492
  0
LWPOLYLINE
  5
138
100
AcDbEntity
  8
0
  6
ByLayer
 62
    0
370
   -1
100
AcDbPolyline
 90
    2
 70
    0
 43
0
 10
126.0524758563255
 20
11.5128984242492
 10
126.0524758563255
 20
19.51619109817955
  0
LWPOLYLINE
  5
139
100
AcDbEntity
  8
0
  6
ByLayer
 62
    0
370
   -1
100
AcDbPolyline
 90
    2
 70
    0
 43
0
 10
126.0524758563255
 20
35.52425034424685
 10
123.0508059224501
 20
35.52425034424685
  0
LWPOLYLINE
  5
13A
100
AcDbEntity
  8
0
  6
ByLayer
 62
    0
370
   -1
100
AcDbPolyline
 90
    2
 70
    0
 43
0
 10
123.0508059224501
 20
35.52425034424685
 10
123.0508059224501
 20
27.52098308235455
  0
LWPOLYLINE
  5
13B
100
AcDbEntity
  8
0
  6
ByLayer
 62
    0
370
   -1
100
AcDbPolyline
 90
    2
 70
    0
 43
0
 10
123.0508059224501
 20
27.52098308235455
 10
126.0524758563255
 20
27.52098308235455
  0
LWPOLYLINE
  5
13C
100
AcDbEntity
  8
0
  6
ByLayer
 62
    0
370
   -1
100
AcDbPolyline
 90
    2
 70
    0
 43
0
 10
126.0524758563255
 20
27.52098308235455
 10
126.0524758563255
 20
35.52425034424685
  0
LWPOLYLINE
  5
13D
100
AcDbEntity
  8
0
  6
ByLayer
 62
    0
370
   -1
100
AcDbPolyline
 90
    9
 70
    0
 43
0
 10
139.1221411432495
 20
201.4206418318985
 10
139.7289806117641
 20
201.6920423982191
 10
140.2034233620642
 20
202.1334494990608
 10
140.512179624311
 20
202.7029332716492
 10
140.6237384713285
 20
203.3578014920689
 10
140.512179624311
 20
204.0141944347712
 10
140.2034233620642
 20
204.5834240869793
 10
139.7289806117641
 20
205.0245770674405
 10
139.1221411432495
 20
205.2949611522393
  0
LWPOLYLINE
  5
13E
100
AcDbEntity
  8
0
  6
ByLayer
 62
    0
370
   -1
100
AcDbPolyline
 90
    2
 70
    0
 43
0
 10
139.1221411432495
 20
205.2949611522393
 10
124.0685580461524
 20
209.1827488527438
  0
LWPOLYLINE
  5
13F
100
AcDbEntity
  8
0
  6
ByLayer
 62
    0
370
   -1
100
AcDbPolyline
 90
    3
 70
    0
 43
0
 10
124.0685580461524
 20
209.1827488527438
 10
122.6139729884566
 20
209.3606331190588
 10
121.1609126530435
 20
209.1827488527438
  0
LWPOLYLINE
  5
140
100
AcDbEntity
  8
0
  6
ByLayer
 62
    0
370
   -1
100
AcDbPolyline
 90
    2
 70
    0
 43
0
 10
106.1068213151855
 20
205.2949611522393
 10
121.1609126530435
 20
209.1827488527438
  0
LWPOLYLINE
  5
141
100
AcDbEntity
  8
0
  6
ByLayer
 62
    0
370
   -1
100
AcDbPolyline
 90
    9
 70
    0
 43
0
 10
106.1068213151855
 20
205.2949611522393
 10
105.4989653651491
 20
205.0245770674405
 10
105.0245226148489
 20
204.5834240869793
 10
104.7157663526022
 20
204.0141944347712
 10
104.6067487093891
 20
203.3578014920689
 10
104.7157663526022
 20
202.7029332716492
 10
105.0245226148489
 20
202.1334494990608
 10
105.4989653651491
 20
201.6920423982191
 10
106.1068213151855
 20
201.4206418318985
  0
LWPOLYLINE
  5
142
100
AcDbEntity
  8
0
  6
ByLayer
 62
    0
370
   -1
100
AcDbPolyline
 90
    2
 70
    0
 43
0
 10
121.1609126530435
 20
197.5341247332962
 10
106.1068213151855
 20
201.4206418318985
  0
LWPOLYLINE
  5
143
100
AcDbEntity
  8
0
  6
ByLayer
 62
    0
370
   -1
100
AcDbPolyline
 90
    3
 70
    0
 43
0
 10
121.1609126530435
 20
197.5341247332962
 10
122.6139729884566
 20
197.3562404669812
 10
124.0685580461524
 20
197.5341247332962
  0
LWPOLYLINE
  5
144
100
AcDbEntity
  8
0
  6
ByLayer
 62
    0
370
   -1
100
AcDbPolyline
 90
    2
 70
    0
 43
0
 10
139.1221411432495
 20
201.4206418318985
 10
124.0685580461524
 20
197.5341247332962
  0
LWPOLYLINE
  5
145
100
AcDbEntity
  8
0
  6
ByLayer
 62
    0
370
   -1
100
AcDbPolyline
 90
    9
 70
    1
 43
0
 10
138.6217781141434
 20
202.8571843425824
 10
138.9747513225884
 20
203.0048282836239
 10
139.1221411432495
 20
203.3578014920689
 10
138.9747513225884
 20
203.7120453024162
 10
138.6217781141434
 20
203.858164521175
 10
138.2688049056984
 20
203.7120453024162
 10
138.1226856869396
 20
203.3578014920689
 10
138.2688049056984
 20
203.0048282836239
 10
138.6217781141434
 20
202.8571843425824
  0
LWPOLYLINE
  5
146
100
AcDbEntity
  8
0
  6
ByLayer
 62
    0
370
   -1
100
AcDbPolyline
 90
    9
 70
    1
 43
0
 10
106.6071843442915
 20
202.8571843425824
 10
106.9601575527366
 20
203.0048282836239
 10
107.107801493778
 20
203.3578014920689
 10
106.9601575527366
 20
203.7120453024162
 10
106.6071843442915
 20
203.858164521175
 10
106.2529405339442
 20
203.7120453024162
 10
106.1068213151855
 20
203.3578014920689
 10
106.2529405339442
 20
203.0048282836239
 10
106.6071843442915
 20
202.8571843425824
  0
LWPOLYLINE
  5
147
100
AcDbEntity
  8
0
  6
ByLayer
 62
    0
370
   -1
100
AcDbPolyline
 90
    2
 70
    0
 43
0
 10
10.81582080863681
 20
271.4895084537575
 10
30.82467508839477
 20
271.4895084537575
  0
LWPOLYLINE
  5
148
100
AcDbEntity
  8
0
  6
ByLayer
 62
    0
370
   -1
100
AcDbPolyline
 90
    2
 70
    0
 43
0
 10
30.82467508839477
 20
271.4895084537575
 10
30.82467508839477
 20
276.4905975410135
  0
LWPOLYLINE
  5
149
100
AcDbEntity
  8
0
  6
ByLayer
 62
    0
370
   -1
100
AcDbPolyline
 90
    2
 70
    0
 43
0
 10
30.82467508839477
 20
276.4905975410135
 10
33.82609090188972
 20
276.4905975410135
  0
LWPOLYLINE
  5
14A
100
AcDbEntity
  8
0
  6
ByLayer
 62
    0
370
   -1
100
AcDbPolyline
 90
    2
 70
    0
 43
0
 10
33.82609090188972
 20
276.4905975410135
 10
33.82609090188972
 20
281.4916866282695
  0
LWPOLYLINE
  5
14B
100
AcDbEntity
  8
0
  6
ByLayer
 62
    0
370
   -1
100
AcDbPolyline
 90
    2
 70
    0
 43
0
 10
33.82609090188972
 20
281.4916866282695
 10
30.82467508839477
 20
281.4916866282695
  0
LWPOLYLINE
  5
14C
100
AcDbEntity
  8
0
  6
ByLayer
 62
    0
370
   -1
100
AcDbPolyline
 90
    2
 70
    0
 43
0
 10
30.82467508839477
 20
281.4916866282695
 10
30.82467508839477
 20
286.49531691933
  0
LWPOLYLINE
  5
14D
100
AcDbEntity
  8
0
  6
ByLayer
 62
    0
370
   -1
100
AcDbPolyline
 90
    2
 70
    0
 43
0
 10
30.82467508839477
 20
286.49531691933
 10
10.81582080863681
 20
286.49531691933
  0
LWPOLYLINE
  5
14E
100
AcDbEntity
  8
0
  6
ByLayer
 62
    0
370
   -1
100
AcDbPolyline
 90
    2
 70
    0
 43
0
 10
10.81582080863681
 20
281.4916866282695
 10
10.81582080863681
 20
286.49531691933
  0
LWPOLYLINE
  5
14F
100
AcDbEntity
  8
0
  6
ByLayer
 62
    0
370
   -1
100
AcDbPolyline
 90
    2
 70
    0
 43
0
 10
10.81582080863681
 20
281.4916866282695
 10
7.814404995141857
 20
281.4916866282695
  0
LWPOLYLINE
  5
150
100
AcDbEntity
  8
0
  6
ByLayer
 62
    0
370
   -1
100
AcDbPolyline
 90
    2
 70
    0
 43
0
 10
7.814404995141857
 20
281.4916866282695
 10
7.814404995141857
 20
276.4905975410135
  0
LWPOLYLINE
  5
151
100
AcDbEntity
  8
0
  6
ByLayer
 62
    0
370
   -1
100
AcDbPolyline
 90
    2
 70
    0
 43
0
 10
7.814404995141857
 20
276.4905975410135
 10
10.81582080863681
 20
276.4905975410135
  0
LWPOLYLINE
  5
152
100
AcDbEntity
  8
0
  6
ByLayer
 62
    0
370
   -1
100
AcDbPolyline
 90
    2
 70
    0
 43
0
 10
10.81582080863681
 20
271.4895084537575
 10
10.81582080863681
 20
276.4905975410135
  0
LWPOLYLINE
  5
153
100
AcDbEntity
  8
0
  6
ByLayer
 62
    0
370
   -1
100
AcDbPolyline
 90
   17
 70
    1
 43
0
 10
26.46269875797052
 20
275.5910113942205
 10
25.87796776255507
 20
275.4741160192135
 10
25.40098380845042
 20
275.151383136042
 10
25.07977564756162
 20
274.673636820796
 10
24.96262615217417
 20
274.089159945761
 10
25.07977564756162
 20
273.504683070726
 10
25.40098380845042
 20
273.0294779592845
 10
25.87796776255507
 20
272.706745076113
 10
26.46269875797052
 20
272.589849701106
 10
27.04565091072282
 20
272.706745076113
 10
27.52288898520792
 20
273.0294779592845
 10
27.84536774799897
 20
273.504683070726
 10
27.96404196566913
 20
274.089159945761
 10
27.84536774799897
 20
274.673636820796
 10
27.52288898520792
 20
275.151383136042
 10
27.04565091072282
 20
275.4741160192135
 10
26.46269875797052
 20
275.5910113942205
  0
LWPOLYLINE
  5
154
100
AcDbEntity
  8
0
  6
ByLayer
 62
    0
370
   -1
100
AcDbPolyline
 90
   17
 70
    1
 43
0
 10
15.31723299181397
 20
275.5910113942205
 10
14.73267988066484
 20
275.4741160192135
 10
14.2556451024841
 20
275.151383136042
 10
13.9344369415953
 20
274.673636820796
 10
13.81721121009371
 20
274.089159945761
 10
13.9344369415953
 20
273.504683070726
 10
14.2556451024841
 20
273.0294779592845
 10
14.73267988066484
 20
272.706745076113
 10
15.31723299181397
 20
272.589849701106
 10
15.90043926494672
 20
272.706745076113
 10
16.37744863108942
 20
273.0294779592845
 10
16.70007986610874
 20
273.504683070726
 10
16.81862702358866
 20
274.089159945761
 10
16.70007986610874
 20
274.673636820796
 10
16.37744863108942
 20
275.151383136042
 10
15.90043926494672
 20
275.4741160192135
 10
15.31723299181397
 20
275.5910113942205
  0
LWPOLYLINE
  5
155
100
AcDbEntity
  8
0
  6
ByLayer
 62
    0
370
   -1
100
AcDbPolyline
 90
    2
 70
    0
 43
0
 10
30.82467508839477
 20
254.181369341308
 10
30.82467508839477
 20
259.182458428564
  0
LWPOLYLINE
  5
156
100
AcDbEntity
  8
0
  6
ByLayer
 62
    0
370
   -1
100
AcDbPolyline
 90
    2
 70
    0
 43
0
 10
30.82467508839477
 20
254.181369341308
 10
10.81582080863681
 20
254.181369341308
  0
LWPOLYLINE
  5
157
100
AcDbEntity
  8
0
  6
ByLayer
 62
    0
370
   -1
100
AcDbPolyline
 90
    2
 70
    0
 43
0
 10
10.81582080863681
 20
254.181369341308
 10
10.81582080863681
 20
259.182458428564
  0
LWPOLYLINE
  5
158
100
AcDbEntity
  8
0
  6
ByLayer
 62
    0
370
   -1
100
AcDbPolyline
 90
    2
 70
    0
 43
0
 10
10.81582080863681
 20
259.182458428564
 10
7.814404995141857
 20
259.182458428564
  0
LWPOLYLINE
  5
159
100
AcDbEntity
  8
0
  6
ByLayer
 62
    0
370
   -1
100
AcDbPolyline
 90
    2
 70
    0
 43
0
 10
7.814404995141857
 20
259.182458428564
 10
7.814404995141857
 20
264.18354751582
  0
LWPOLYLINE
  5
15A
100
AcDbEntity
  8
0
  6
ByLayer
 62
    0
370
   -1
100
AcDbPolyline
 90
    2
 70
    0
 43
0
 10
7.814404995141857
 20
264.18354751582
 10
10.81582080863681
 20
264.18354751582
  0
LWPOLYLINE
  5
15B
100
AcDbEntity
  8
0
  6
ByLayer
 62
    0
370
   -1
100
AcDbPolyline
 90
    2
 70
    0
 43
0
 10
10.81582080863681
 20
264.18354751582
 10
10.81582080863681
 20
269.1871778068805
  0
LWPOLYLINE
  5
15C
100
AcDbEntity
  8
0
  6
ByLayer
 62
    0
370
   -1
100
AcDbPolyline
 90
    2
 70
    0
 43
0
 10
10.81582080863681
 20
269.1871778068805
 10
30.82467508839477
 20
269.1871778068805
  0
LWPOLYLINE
  5
15D
100
AcDbEntity
  8
0
  6
ByLayer
 62
    0
370
   -1
100
AcDbPolyline
 90
    2
 70
    0
 43
0
 10
30.82467508839477
 20
264.18354751582
 10
30.82467508839477
 20
269.1871778068805
  0
LWPOLYLINE
  5
15E
100
AcDbEntity
  8
0
  6
ByLayer
 62
    0
370
   -1
100
AcDbPolyline
 90
    2
 70
    0
 43
0
 10
33.82609090188972
 20
264.18354751582
 10
30.82467508839477
 20
264.18354751582
  0
LWPOLYLINE
  5
15F
100
AcDbEntity
  8
0
  6
ByLayer
 62
    0
370
   -1
100
AcDbPolyline
 90
    2
 70
    0
 43
0
 10
33.82609090188972
 20
259.182458428564
 10
33.82609090188972
 20
264.18354751582
  0
LWPOLYLINE
  5
160
100
AcDbEntity
  8
0
  6
ByLayer
 62
    0
370
   -1
100
AcDbPolyline
 90
    2
 70
    0
 43
0
 10
30.82467508839477
 20
259.182458428564
 10
33.82609090188972
 20
259.182458428564
  0
LWPOLYLINE
  5
161
100
AcDbEntity
  8
0
  6
ByLayer
 62
    0
370
   -1
100
AcDbPolyline
 90
   17
 70
    1
 43
0
 10
15.31723299181397
 20
267.685326358421
 10
14.73267988066484
 20
267.568430983414
 10
14.2556451024841
 20
267.248239304047
 10
13.9344369415953
 20
266.770492988801
 10
13.81721121009371
 20
266.186016113766
 10
13.9344369415953
 20
265.601539238731
 10
14.2556451024841
 20
265.123792923485
 10
14.73267988066484
 20
264.803601244118
 10
15.31723299181397
 20
264.6841646653065
 10
15.90043926494672
 20
264.803601244118
 10
16.37744863108942
 20
265.123792923485
 10
16.70007986610874
 20
265.601539238731
 10
16.81862702358866
 20
266.186016113766
 10
16.70007986610874
 20
266.770492988801
 10
16.37744863108942
 20
267.248239304047
 10
15.90043926494672
 20
267.568430983414
 10
15.31723299181397
 20
267.685326358421
  0
LWPOLYLINE
  5
162
100
AcDbEntity
  8
0
  6
ByLayer
 62
    0
370
   -1
100
AcDbPolyline
 90
   17
 70
    1
 43
0
 10
26.32344078948392
 20
267.685326358421
 10
25.73743919216622
 20
267.568430983414
 10
25.26045523806157
 20
267.248239304047
 10
24.93924707717277
 20
266.770492988801
 10
24.82184346140487
 20
266.186016113766
 10
24.93924707717277
 20
265.601539238731
 10
25.26045523806157
 20
265.123792923485
 10
25.73743919216622
 20
264.803601244118
 10
26.32344078948392
 20
264.6841646653065
 10
26.90664706261667
 20
264.803601244118
 10
27.38363101672132
 20
265.123792923485
 10
27.70483917761012
 20
265.601539238731
 10
27.82325927489983
 20
266.186016113766
 10
27.70483917761012
 20
266.770492988801
 10
27.38363101672132
 20
267.248239304047
 10
26.90664706261667
 20
267.568430983414
 10
26.32344078948392
 20
267.685326358421
  0
LWPOLYLINE
  5
163
100
AcDbEntity
  8
0
  6
ByLayer
 62
    0
370
   -1
100
AcDbPolyline
 90
    2
 70
    0
 43
0
 10
39.40428737314767
 20
271.4895084537575
 10
59.41321788901977
 20
271.4895084537575
  0
LWPOLYLINE
  5
164
100
AcDbEntity
  8
0
  6
ByLayer
 62
    0
370
   -1
100
AcDbPolyline
 90
    2
 70
    0
 43
0
 10
59.41321788901977
 20
271.4895084537575
 10
59.41321788901977
 20
276.4905975410135
  0
LWPOLYLINE
  5
165
100
AcDbEntity
  8
0
  6
ByLayer
 62
    0
370
   -1
100
AcDbPolyline
 90
    2
 70
    0
 43
0
 10
59.41321788901977
 20
276.4905975410135
 10
62.41463370251472
 20
276.4905975410135
  0
LWPOLYLINE
  5
166
100
AcDbEntity
  8
0
  6
ByLayer
 62
    0
370
   -1
100
AcDbPolyline
 90
    2
 70
    0
 43
0
 10
62.41463370251472
 20
276.4905975410135
 10
62.41463370251472
 20
281.4916866282695
  0
LWPOLYLINE
  5
167
100
AcDbEntity
  8
0
  6
ByLayer
 62
    0
370
   -1
100
AcDbPolyline
 90
    2
 70
    0
 43
0
 10
62.41463370251472
 20
281.4916866282695
 10
59.41321788901977
 20
281.4916866282695
  0
LWPOLYLINE
  5
168
100
AcDbEntity
  8
0
  6
ByLayer
 62
    0
370
   -1
100
AcDbPolyline
 90
    2
 70
    0
 43
0
 10
59.41321788901977
 20
281.4916866282695
 10
59.41321788901977
 20
286.49531691933
  0
LWPOLYLINE
  5
169
100
AcDbEntity
  8
0
  6
ByLayer
 62
    0
370
   -1
100
AcDbPolyline
 90
    2
 70
    0
 43
0
 10
59.41321788901977
 20
286.49531691933
 10
39.40428737314767
 20
286.49531691933
  0
LWPOLYLINE
  5
16A
100
AcDbEntity
  8
0
  6
ByLayer
 62
    0
370
   -1
100
AcDbPolyline
 90
    2
 70
    0
 43
0
 10
39.40428737314767
 20
281.4916866282695
 10
39.40428737314767
 20
286.49531691933
  0
LWPOLYLINE
  5
16B
100
AcDbEntity
  8
0
  6
ByLayer
 62
    0
370
   -1
100
AcDbPolyline
 90
    2
 70
    0
 43
0
 10
39.40428737314767
 20
281.4916866282695
 10
36.40287155965272
 20
281.4916866282695
  0
LWPOLYLINE
  5
16C
100
AcDbEntity
  8
0
  6
ByLayer
 62
    0
370
   -1
100
AcDbPolyline
 90
    2
 70
    0
 43
0
 10
36.40287155965272
 20
281.4916866282695
 10
36.40287155965272
 20
276.4905975410135
  0
LWPOLYLINE
  5
16D
100
AcDbEntity
  8
0
  6
ByLayer
 62
    0
370
   -1
100
AcDbPolyline
 90
    2
 70
    0
 43
0
 10
36.40287155965272
 20
276.4905975410135
 10
39.40428737314767
 20
276.4905975410135
  0
LWPOLYLINE
  5
16E
100
AcDbEntity
  8
0
  6
ByLayer
 62
    0
370
   -1
100
AcDbPolyline
 90
    2
 70
    0
 43
0
 10
39.40428737314767
 20
271.4895084537575
 10
39.40428737314767
 20
276.4905975410135
  0
LWPOLYLINE
  5
16F
100
AcDbEntity
  8
0
  6
ByLayer
 62
    0
370
   -1
100
AcDbPolyline
 90
   17
 70
    1
 43
0
 10
55.05124155859553
 20
275.5910113942205
 10
54.46651056318007
 20
275.4741160192135
 10
53.98952660907543
 20
275.151383136042
 10
53.66831844818662
 20
274.673636820796
 10
53.55116895279917
 20
274.089159945761
 10
53.66831844818662
 20
273.504683070726
 10
53.98952660907543
 20
273.0294779592845
 10
54.46651056318007
 20
272.706745076113
 10
55.05124155859553
 20
272.589849701106
 10
55.63419371134782
 20
272.706745076113
 10
56.11143178583292
 20
273.0294779592845
 10
56.43391054862398
 20
273.504683070726
 10
56.55258476629412
 20
274.089159945761
 10
56.43391054862398
 20
274.673636820796
 10
56.11143178583292
 20
275.151383136042
 10
55.63419371134782
 20
275.4741160192135
 10
55.05124155859553
 20
275.5910113942205
  0
LWPOLYLINE
  5
170
100
AcDbEntity
  8
0
  6
ByLayer
 62
    0
370
   -1
100
AcDbPolyline
 90
   17
 70
    1
 43
0
 10
43.90577579243897
 20
275.5910113942205
 10
43.32129891740397
 20
275.4741160192135
 10
42.84406084291887
 20
275.151383136042
 10
42.52310680241052
 20
274.673636820796
 10
42.40570318664262
 20
274.089159945761
 10
42.52310680241052
 20
273.504683070726
 10
42.84406084291887
 20
273.0294779592845
 10
43.32129891740397
 20
272.706745076113
 10
43.90577579243897
 20
272.589849701106
 10
44.48898206557173
 20
272.706745076113
 10
44.96596601967637
 20
273.0294779592845
 10
45.28869890284788
 20
273.504683070726
 10
45.40711900013757
 20
274.089159945761
 10
45.28869890284788
 20
274.673636820796
 10
44.96596601967637
 20
275.151383136042
 10
44.48898206557173
 20
275.4741160192135
 10
43.90577579243897
 20
275.5910113942205
  0
LWPOLYLINE
  5
171
100
AcDbEntity
  8
0
  6
ByLayer
 62
    0
370
   -1
100
AcDbPolyline
 90
    2
 70
    0
 43
0
 10
59.41321788901977
 20
254.181369341308
 10
59.41321788901977
 20
259.182458428564
  0
LWPOLYLINE
  5
172
100
AcDbEntity
  8
0
  6
ByLayer
 62
    0
370
   -1
100
AcDbPolyline
 90
    2
 70
    0
 43
0
 10
59.41321788901977
 20
254.181369341308
 10
39.40428737314767
 20
254.181369341308
  0
LWPOLYLINE
  5
173
100
AcDbEntity
  8
0
  6
ByLayer
 62
    0
370
   -1
100
AcDbPolyline
 90
    2
 70
    0
 43
0
 10
39.40428737314767
 20
254.181369341308
 10
39.40428737314767
 20
259.182458428564
  0
LWPOLYLINE
  5
174
100
AcDbEntity
  8
0
  6
ByLayer
 62
    0
370
   -1
100
AcDbPolyline
 90
    2
 70
    0
 43
0
 10
39.40428737314767
 20
259.182458428564
 10
36.40287155965272
 20
259.182458428564
  0
LWPOLYLINE
  5
175
100
AcDbEntity
  8
0
  6
ByLayer
 62
    0
370
   -1
100
AcDbPolyline
 90
    2
 70
    0
 43
0
 10
36.40287155965272
 20
259.182458428564
 10
36.40287155965272
 20
264.18354751582
  0
LWPOLYLINE
  5
176
100
AcDbEntity
  8
0
  6
ByLayer
 62
    0
370
   -1
100
AcDbPolyline
 90
    2
 70
    0
 43
0
 10
36.40287155965272
 20
264.18354751582
 10
39.40428737314767
 20
264.18354751582
  0
LWPOLYLINE
  5
177
100
AcDbEntity
  8
0
  6
ByLayer
 62
    0
370
   -1
100
AcDbPolyline
 90
    2
 70
    0
 43
0
 10
39.40428737314767
 20
264.18354751582
 10
39.40428737314767
 20
269.1871778068805
  0
LWPOLYLINE
  5
178
100
AcDbEntity
  8
0
  6
ByLayer
 62
    0
370
   -1
100
AcDbPolyline
 90
    2
 70
    0
 43
0
 10
39.40428737314767
 20
269.1871778068805
 10
59.41321788901977
 20
269.1871778068805
  0
LWPOLYLINE
  5
179
100
AcDbEntity
  8
0
  6
ByLayer
 62
    0
370
   -1
100
AcDbPolyline
 90
    2
 70
    0
 43
0
 10
59.41321788901977
 20
264.18354751582
 10
59.41321788901977
 20
269.1871778068805
  0
LWPOLYLINE
  5
17A
100
AcDbEntity
  8
0
  6
ByLayer
 62
    0
370
   -1
100
AcDbPolyline
 90
    2
 70
    0
 43
0
 10
62.41463370251472
 20
264.18354751582
 10
59.41321788901977
 20
264.18354751582
  0
LWPOLYLINE
  5
17B
100
AcDbEntity
  8
0
  6
ByLayer
 62
    0
370
   -1
100
AcDbPolyline
 90
    2
 70
    0
 43
0
 10
62.41463370251472
 20
259.182458428564
 10
62.41463370251472
 20
264.18354751582
  0
LWPOLYLINE
  5
17C
100
AcDbEntity
  8
0
  6
ByLayer
 62
    0
370
   -1
100
AcDbPolyline
 90
    2
 70
    0
 43
0
 10
59.41321788901977
 20
259.182458428564
 10
62.41463370251472
 20
259.182458428564
  0
LWPOLYLINE
  5
17D
100
AcDbEntity
  8
0
  6
ByLayer
 62
    0
370
   -1
100
AcDbPolyline
 90
   17
 70
    1
 43
0
 10
43.90577579243897
 20
267.685326358421
 10
43.32129891740397
 20
267.568430983414
 10
42.84406084291887
 20
267.248239304047
 10
42.52310680241052
 20
266.770492988801
 10
42.40570318664262
 20
266.186016113766
 10
42.52310680241052
 20
265.601539238731
 10
42.84406084291887
 20
265.123792923485
 10
43.32129891740397
 20
264.803601244118
 10
43.90577579243897
 20
264.6841646653065
 10
44.48898206557173
 20
264.803601244118
 10
44.96596601967637
 20
265.123792923485
 10
45.28869890284788
 20
265.601539238731
 10
45.40711900013757
 20
266.186016113766
 10
45.28869890284788
 20
266.770492988801
 10
44.96596601967637
 20
267.248239304047
 10
44.48898206557173
 20
267.568430983414
 10
43.90577579243897
 20
267.685326358421
  0
LWPOLYLINE
  5
17E
100
AcDbEntity
  8
0
  6
ByLayer
 62
    0
370
   -1
100
AcDbPolyline
 90
   17
 70
    1
 43
0
 10
54.91198359010892
 20
267.685326358421
 10
54.32572787241077
 20
267.568430983414
 10
53.84899803868658
 20
267.248239304047
 10
53.52778987779777
 20
266.770492988801
 10
53.41064038241032
 20
266.186016113766
 10
53.52778987779777
 20
265.601539238731
 10
53.84899803868658
 20
265.123792923485
 10
54.32572787241077
 20
264.803601244118
 10
54.91198359010892
 20
264.6841646653065
 10
55.49518986324168
 20
264.803601244118
 10
55.97191969696587
 20
265.123792923485
 10
56.29338197823513
 20
265.601539238731
 10
56.41205619590528
 20
266.186016113766
 10
56.29338197823513
 20
266.770492988801
 10
55.97191969696587
 20
267.248239304047
 10
55.49518986324168
 20
267.568430983414
 10
54.91198359010892
 20
267.685326358421
  0
LWPOLYLINE
  5
17F
100
AcDbEntity
  8
0
  6
ByLayer
 62
    0
370
   -1
100
AcDbPolyline
 90
    5
 70
    1
 43
0
 10
-2.821302974020945e-15
 20
290.007260577149
 10
210.001143537983
 20
290.007260577149
 10
210.001143537983
 20
-0.03087562622467555
 10
-2.821302974020945e-15
 20
-0.03087562622467555
 10
-2.821302974020945e-15
 20
290.007260577149
  0
LWPOLYLINE
  5
180
100
AcDbEntity
  8
0
  6
ByLayer
 62
    0
370
   -1
100
AcDbPolyline
 90
    2
 70
    0
 43
0
 10
103.3714695400217
 20
280.076236109163
 10
77.35970739715967
 20
280.076236109163
  0
LWPOLYLINE
  5
181
100
AcDbEntity
  8
0
  6
ByLayer
 62
    0
370
   -1
100
AcDbPolyline
 90
    2
 70
    0
 43
0
 10
77.35970739715967
 20
280.076236109163
 10
77.35970739715967
 20
288.0784868895335
  0
LWPOLYLINE
  5
182
100
AcDbEntity
  8
0
  6
ByLayer
 62
    0
370
   -1
100
AcDbPolyline
 90
    2
 70
    0
 43
0
 10
77.35970739715967
 20
288.0784868895335
 10
69.35491541298467
 20
288.0784868895335
  0
LWPOLYLINE
  5
183
100
AcDbEntity
  8
0
  6
ByLayer
 62
    0
370
   -1
100
AcDbPolyline
 90
    2
 70
    0
 43
0
 10
69.35491541298467
 20
288.0784868895335
 10
66.35375371987017
 20
285.077325196419
  0
LWPOLYLINE
  5
184
100
AcDbEntity
  8
0
  6
ByLayer
 62
    0
370
   -1
100
AcDbPolyline
 90
    2
 70
    0
 43
0
 10
66.35375371987017
 20
285.077325196419
 10
66.35375371987017
 20
255.0631670614695
  0
LWPOLYLINE
  5
185
100
AcDbEntity
  8
0
  6
ByLayer
 62
    0
370
   -1
100
AcDbPolyline
 90
    2
 70
    0
 43
0
 10
66.35375371987017
 20
255.0631670614695
 10
69.35491541298467
 20
252.062005368355
  0
LWPOLYLINE
  5
186
100
AcDbEntity
  8
0
  6
ByLayer
 62
    0
370
   -1
100
AcDbPolyline
 90
    2
 70
    0
 43
0
 10
69.35491541298467
 20
252.062005368355
 10
77.35970739715967
 20
252.062005368355
  0
LWPOLYLINE
  5
187
100
AcDbEntity
  8
0
  6
ByLayer
 62
    0
370
   -1
100
AcDbPolyline
 90
    2
 70
    0
 43
0
 10
77.35970739715967
 20
252.062005368355
 10
77.35970739715967
 20
260.06679735253
  0
LWPOLYLINE
  5
188
100
AcDbEntity
  8
0
  6
ByLayer
 62
    0
370
   -1
100
AcDbPolyline
 90
    2
 70
    0
 43
0
 10
77.35970739715967
 20
260.06679735253
 10
103.3714695400217
 20
260.06679735253
  0
LWPOLYLINE
  5
189
100
AcDbEntity
  8
0
  6
ByLayer
 62
    0
370
   -1
100
AcDbPolyline
 90
    2
 70
    0
 43
0
 10
103.3714695400217
 20
260.06679735253
 10
103.3714695400217
 20
252.062005368355
  0
LWPOLYLINE
  5
18A
100
AcDbEntity
  8
0
  6
ByLayer
 62
    0
370
   -1
100
AcDbPolyline
 90
    2
 70
    0
 43
0
 10
103.3714695400217
 20
252.062005368355
 10
111.3762615241967
 20
252.062005368355
  0
LWPOLYLINE
  5
18B
100
AcDbEntity
  8
0
  6
ByLayer
 62
    0
370
   -1
100
AcDbPolyline
 90
    2
 70
    0
 43
0
 10
111.3762615241967
 20
252.062005368355
 10
114.3776773376916
 20
255.0631670614695
  0
LWPOLYLINE
  5
18C
100
AcDbEntity
  8
0
  6
ByLayer
 62
    0
370
   -1
100
AcDbPolyline
 90
    2
 70
    0
 43
0
 10
114.3776773376916
 20
255.0631670614695
 10
114.3776773376916
 20
285.077325196419
  0
LWPOLYLINE
  5
18D
100
AcDbEntity
  8
0
  6
ByLayer
 62
    0
370
   -1
100
AcDbPolyline
 90
    2
 70
    0
 43
0
 10
114.3776773376916
 20
285.077325196419
 10
111.3762615241967
 20
288.0784868895335
  0
LWPOLYLINE
  5
18E
100
AcDbEntity
  8
0
  6
ByLayer
 62
    0
370
   -1
100
AcDbPolyline
 90
    2
 70
    0
 43
0
 10
111.3762615241967
 20
288.0784868895335
 10
103.3714695400217
 20
288.0784868895335
  0
LWPOLYLINE
  5
18F
100
AcDbEntity
  8
0
  6
ByLayer
 62
    0
370
   -1
100
AcDbPolyline
 90
    2
 70
    0
 43
0
 10
103.3714695400217
 20
288.0784868895335
 10
103.3714695400217
 20
280.076236109163
  0
LWPOLYLINE
  5
190
100
AcDbEntity
  8
0
  6
ByLayer
 62
    0
370
   -1
100
AcDbPolyline
 90
    2
 70
    0
 43
0
 10
100.170315107493
 20
275.0726058181025
 10
80.56086182968832
 20
275.0726058181025
  0
LWPOLYLINE
  5
191
100
AcDbEntity
  8
0
  6
ByLayer
 62
    0
370
   -1
100
AcDbPolyline
 90
    2
 70
    0
 43
0
 10
80.56086182968832
 20
275.0726058181025
 10
80.56086182968832
 20
265.5685035892725
  0
LWPOLYLINE
  5
192
100
AcDbEntity
  8
0
  6
ByLayer
 62
    0
370
   -1
100
AcDbPolyline
 90
    2
 70
    0
 43
0
 10
80.56086182968832
 20
265.5685035892725
 10
100.170315107493
 20
265.5685035892725
  0
LWPOLYLINE
  5
193
100
AcDbEntity
  8
0
  6
ByLayer
 62
    0
370
   -1
100
AcDbPolyline
 90
    2
 70
    0
 43
0
 10
100.170315107493
 20
265.5685035892725
 10
100.170315107493
 20
275.0726058181025
  0
LWPOLYLINE
  5
194
100
AcDbEntity
  8
0
  6
ByLayer
 62
    0
370
   -1
100
AcDbPolyline
 90
    9
 70
    1
 43
0
 10
109.3743011670116
 20
283.578014951764
 10
109.0200573566643
 20
283.430625131103
 10
108.8739381379055
 20
283.0773978022775
 10
109.0200573566643
 20
282.724170473452
 10
109.3743011670116
 20
282.576780652791
 10
109.7272743754566
 20
282.724170473452
 10
109.8746641961176
 20
283.0773978022775
 10
109.7272743754566
 20
283.430625131103
 10
109.3743011670116
 20
283.578014951764
  0
LWPOLYLINE
  5
195
100
AcDbEntity
  8
0
  6
ByLayer
 62
    0
370
   -1
100
AcDbPolyline
 90
    9
 70
    1
 43
0
 10
71.35687577016978
 20
283.578014951764
 10
71.00237783944202
 20
283.430625131103
 10
70.85625862068328
 20
283.0773978022775
 10
71.00237783944202
 20
282.724170473452
 10
71.35687577016978
 20
282.576780652791
 10
71.70984897861483
 20
282.724170473452
 10
71.85723879927583
 20
283.0773978022775
 10
71.70984897861483
 20
283.430625131103
 10
71.35687577016978
 20
283.578014951764
  0
LWPOLYLINE
  5
196
100
AcDbEntity
  8
0
  6
ByLayer
 62
    0
370
   -1
100
AcDbPolyline
 90
    9
 70
    1
 43
0
 10
109.3743011670116
 20
257.566252808902
 10
109.0200573566643
 20
257.418862988241
 10
108.8739381379055
 20
257.0656356594155
 10
109.0200573566643
 20
256.71240833059
 10
109.3743011670116
 20
256.565018509929
 10
109.7272743754566
 20
256.71240833059
 10
109.8746641961176
 20
257.0656356594155
 10
109.7272743754566
 20
257.418862988241
 10
109.3743011670116
 20
257.566252808902
  0
LWPOLYLINE
  5
197
100
AcDbEntity
  8
0
  6
ByLayer
 62
    0
370
   -1
100
AcDbPolyline
 90
    9
 70
    1
 43
0
 10
71.35687577016978
 20
257.566252808902
 10
71.00237783944202
 20
257.418862988241
 10
70.85625862068328
 20
257.0656356594155
 10
71.00237783944202
 20
256.71240833059
 10
71.35687577016978
 20
256.565018509929
 10
71.70984897861483
 20
256.71240833059
 10
71.85723879927583
 20
257.0656356594155
 10
71.70984897861483
 20
257.418862988241
 10
71.35687577016978
 20
257.566252808902
  0
LWPOLYLINE
  5
198
100
AcDbEntity
  8
0
  6
ByLayer
 62
    0
370
   -1
100
AcDbPolyline
 90
    2
 70
    0
 43
0
 10
132.4110760159454
 20
171.2026791518281
 10
132.4110760159454
 20
191.2128802696025
  0
LWPOLYLINE
  5
199
100
AcDbEntity
  8
0
  6
ByLayer
 62
    0
370
   -1
100
AcDbPolyline
 90
    2
 70
    0
 43
0
 10
132.4110760159454
 20
191.2128802696025
 10
122.9062114259741
 20
191.2128802696025
  0
LWPOLYLINE
  5
19A
100
AcDbEntity
  8
0
  6
ByLayer
 62
    0
370
   -1
100
AcDbPolyline
 90
    2
 70
    0
 43
0
 10
122.9062114259741
 20
191.2128802696025
 10
122.9062114259741
 20
186.2110288212051
  0
LWPOLYLINE
  5
19B
100
AcDbEntity
  8
0
  6
ByLayer
 62
    0
370
   -1
100
AcDbPolyline
 90
    2
 70
    0
 43
0
 10
122.9062114259741
 20
186.2110288212051
 10
125.907627239469
 20
186.2110288212051
  0
LWPOLYLINE
  5
19C
100
AcDbEntity
  8
0
  6
ByLayer
 62
    0
370
   -1
100
AcDbPolyline
 90
    2
 70
    0
 43
0
 10
125.907627239469
 20
186.2110288212051
 10
125.907627239469
 20
181.2076526505251
  0
LWPOLYLINE
  5
19D
100
AcDbEntity
  8
0
  6
ByLayer
 62
    0
370
   -1
100
AcDbPolyline
 90
    2
 70
    0
 43
0
 10
125.907627239469
 20
181.2076526505251
 10
122.9062114259741
 20
181.2076526505251
  0
LWPOLYLINE
  5
19E
100
AcDbEntity
  8
0
  6
ByLayer
 62
    0
370
   -1
100
AcDbPolyline
 90
    2
 70
    0
 43
0
 10
122.9062114259741
 20
181.2076526505251
 10
122.9062114259741
 20
176.2060553225082
  0
LWPOLYLINE
  5
19F
100
AcDbEntity
  8
0
  6
ByLayer
 62
    0
370
   -1
100
AcDbPolyline
 90
    2
 70
    0
 43
0
 10
122.9062114259741
 20
176.2060553225082
 10
125.907627239469
 20
176.2060553225082
  0
LWPOLYLINE
  5
1A0
100
AcDbEntity
  8
0
  6
ByLayer
 62
    0
370
   -1
100
AcDbPolyline
 90
    2
 70
    0
 43
0
 10
125.907627239469
 20
176.2060553225082
 10
125.907627239469
 20
171.2026791518281
  0
LWPOLYLINE
  5
1A1
100
AcDbEntity
  8
0
  6
ByLayer
 62
    0
370
   -1
100
AcDbPolyline
 90
    2
 70
    0
 43
0
 10
125.907627239469
 20
171.2026791518281
 10
132.4110760159454
 20
171.2026791518281
  0
LWPOLYLINE
  5
1A2
100
AcDbEntity
  8
0
  6
ByLayer
 62
    0
370
   -1
100
AcDbPolyline
 90
    9
 70
    1
 43
0
 10
129.4096602024505
 20
187.710847306621
 10
129.7623792905151
 20
187.8584912476625
 10
129.9100232315565
 20
188.2114644561075
 10
129.7623792905151
 20
188.5657082664548
 10
129.4096602024505
 20
188.7118274852136
 10
129.0551622717227
 20
188.5657082664548
 10
128.909043052964
 20
188.2114644561075
 10
129.0551622717227
 20
187.8584912476625
 10
129.4096602024505
 20
187.710847306621
  0
LWPOLYLINE
  5
1A3
100
AcDbEntity
  8
0
  6
ByLayer
 62
    0
370
   -1
100
AcDbPolyline
 90
    2
 70
    0
 43
0
 10
140.1053328952105
 20
171.2026791518281
 10
140.1053328952105
 20
176.2060553225082
  0
LWPOLYLINE
  5
1A4
100
AcDbEntity
  8
0
  6
ByLayer
 62
    0
370
   -1
100
AcDbPolyline
 90
    2
 70
    0
 43
0
 10
140.1053328952105
 20
176.2060553225082
 10
143.1067487087055
 20
176.2060553225082
  0
LWPOLYLINE
  5
1A5
100
AcDbEntity
  8
0
  6
ByLayer
 62
    0
370
   -1
100
AcDbPolyline
 90
    2
 70
    0
 43
0
 10
143.1067487087055
 20
176.2060553225082
 10
143.1067487087055
 20
181.2076526505251
  0
LWPOLYLINE
  5
1A6
100
AcDbEntity
  8
0
  6
ByLayer
 62
    0
370
   -1
100
AcDbPolyline
 90
    2
 70
    0
 43
0
 10
143.1067487087055
 20
181.2076526505251
 10
140.1053328952105
 20
181.2076526505251
  0
LWPOLYLINE
  5
1A7
100
AcDbEntity
  8
0
  6
ByLayer
 62
    0
370
   -1
100
AcDbPolyline
 90
    2
 70
    0
 43
0
 10
140.1053328952105
 20
181.2076526505251
 10
140.1053328952105
 20
186.2110288212051
  0
LWPOLYLINE
  5
1A8
100
AcDbEntity
  8
0
  6
ByLayer
 62
    0
370
   -1
100
AcDbPolyline
 90
    2
 70
    0
 43
0
 10
140.1053328952105
 20
186.2110288212051
 10
143.1067487087055
 20
186.2110288212051
  0
LWPOLYLINE
  5
1A9
100
AcDbEntity
  8
0
  6
ByLayer
 62
    0
370
   -1
100
AcDbPolyline
 90
    2
 70
    0
 43
0
 10
143.1067487087055
 20
186.2110288212051
 10
143.1067487087055
 20
191.2128802696025
  0
LWPOLYLINE
  5
1AA
100
AcDbEntity
  8
0
  6
ByLayer
 62
    0
370
   -1
100
AcDbPolyline
 90
    2
 70
    0
 43
0
 10
143.1067487087055
 20
191.2128802696025
 10
133.6021382391146
 20
191.2128802696025
  0
LWPOLYLINE
  5
1AB
100
AcDbEntity
  8
0
  6
ByLayer
 62
    0
370
   -1
100
AcDbPolyline
 90
    2
 70
    0
 43
0
 10
133.6021382391146
 20
191.2128802696025
 10
133.6021382391146
 20
171.2026791518281
  0
LWPOLYLINE
  5
1AC
100
AcDbEntity
  8
0
  6
ByLayer
 62
    0
370
   -1
100
AcDbPolyline
 90
    2
 70
    0
 43
0
 10
133.6021382391146
 20
171.2026791518281
 10
140.1053328952105
 20
171.2026791518281
  0
LWPOLYLINE
  5
1AD
100
AcDbEntity
  8
0
  6
ByLayer
 62
    0
370
   -1
100
AcDbPolyline
 90
    9
 70
    1
 43
0
 10
136.6035540526095
 20
187.710847306621
 10
136.9565272610546
 20
187.8584912476625
 10
137.104171202096
 20
188.2114644561075
 10
136.9565272610546
 20
188.5657082664548
 10
136.6035540526095
 20
188.7118274852136
 10
136.2505808441645
 20
188.5657082664548
 10
136.1044616254057
 20
188.2114644561075
 10
136.2505808441645
 20
187.8584912476625
 10
136.6035540526095
 20
187.710847306621
  0
LWPOLYLINE
  5
1AE
100
AcDbEntity
  8
0
  6
ByLayer
 62
    0
370
   -1
100
AcDbPolyline
 90
    2
 70
    0
 43
0
 10
110.7048754790478
 20
171.2026791518281
 10
110.7048754790478
 20
191.2128802696025
  0
LWPOLYLINE
  5
1AF
100
AcDbEntity
  8
0
  6
ByLayer
 62
    0
370
   -1
100
AcDbPolyline
 90
    2
 70
    0
 43
0
 10
110.7048754790478
 20
191.2128802696025
 10
101.2000108890764
 20
191.2128802696025
  0
LWPOLYLINE
  5
1B0
100
AcDbEntity
  8
0
  6
ByLayer
 62
    0
370
   -1
100
AcDbPolyline
 90
    2
 70
    0
 43
0
 10
101.2000108890764
 20
191.2128802696025
 10
101.2000108890764
 20
186.2110288212051
  0
LWPOLYLINE
  5
1B1
100
AcDbEntity
  8
0
  6
ByLayer
 62
    0
370
   -1
100
AcDbPolyline
 90
    2
 70
    0
 43
0
 10
101.2000108890764
 20
186.2110288212051
 10
104.2014267025714
 20
186.2110288212051
  0
LWPOLYLINE
  5
1B2
100
AcDbEntity
  8
0
  6
ByLayer
 62
    0
370
   -1
100
AcDbPolyline
 90
    2
 70
    0
 43
0
 10
104.2014267025714
 20
186.2110288212051
 10
104.2014267025714
 20
181.2076526505251
  0
LWPOLYLINE
  5
1B3
100
AcDbEntity
  8
0
  6
ByLayer
 62
    0
370
   -1
100
AcDbPolyline
 90
    2
 70
    0
 43
0
 10
104.2014267025714
 20
181.2076526505251
 10
101.2000108890764
 20
181.2076526505251
  0
LWPOLYLINE
  5
1B4
100
AcDbEntity
  8
0
  6
ByLayer
 62
    0
370
   -1
100
AcDbPolyline
 90
    2
 70
    0
 43
0
 10
101.2000108890764
 20
181.2076526505251
 10
101.2000108890764
 20
176.2060553225082
  0
LWPOLYLINE
  5
1B5
100
AcDbEntity
  8
0
  6
ByLayer
 62
    0
370
   -1
100
AcDbPolyline
 90
    2
 70
    0
 43
0
 10
101.2000108890764
 20
176.2060553225082
 10
104.2014267025714
 20
176.2060553225082
  0
LWPOLYLINE
  5
1B6
100
AcDbEntity
  8
0
  6
ByLayer
 62
    0
370
   -1
100
AcDbPolyline
 90
    2
 70
    0
 43
0
 10
104.2014267025714
 20
176.2060553225082
 10
104.2014267025714
 20
171.2026791518281
  0
LWPOLYLINE
  5
1B7
100
AcDbEntity
  8
0
  6
ByLayer
 62
    0
370
   -1
100
AcDbPolyline
 90
    2
 70
    0
 43
0
 10
104.2014267025714
 20
171.2026791518281
 10
110.7048754790478
 20
171.2026791518281
  0
LWPOLYLINE
  5
1B8
100
AcDbEntity
  8
0
  6
ByLayer
 62
    0
370
   -1
100
AcDbPolyline
 90
    9
 70
    1
 43
0
 10
107.7034596655528
 20
187.710847306621
 10
108.0564328739979
 20
187.8584912476625
 10
108.2038226946589
 20
188.2114644561075
 10
108.0564328739979
 20
188.5657082664548
 10
107.7034596655528
 20
188.7118274852136
 10
107.3489617348251
 20
188.5657082664548
 10
107.2028425160663
 20
188.2114644561075
 10
107.3489617348251
 20
187.8584912476625
 10
107.7034596655528
 20
187.710847306621
  0
LWPOLYLINE
  5
1B9
100
AcDbEntity
  8
0
  6
ByLayer
 62
    0
370
   -1
100
AcDbPolyline
 90
    2
 70
    0
 43
0
 10
118.3991323583129
 20
171.2026791518281
 10
118.3991323583129
 20
176.2060553225082
  0
LWPOLYLINE
  5
1BA
100
AcDbEntity
  8
0
  6
ByLayer
 62
    0
370
   -1
100
AcDbPolyline
 90
    2
 70
    0
 43
0
 10
118.3991323583129
 20
176.2060553225082
 10
121.4005481718078
 20
176.2060553225082
  0
LWPOLYLINE
  5
1BB
100
AcDbEntity
  8
0
  6
ByLayer
 62
    0
370
   -1
100
AcDbPolyline
 90
    2
 70
    0
 43
0
 10
121.4005481718078
 20
176.2060553225082
 10
121.4005481718078
 20
181.2076526505251
  0
LWPOLYLINE
  5
1BC
100
AcDbEntity
  8
0
  6
ByLayer
 62
    0
370
   -1
100
AcDbPolyline
 90
    2
 70
    0
 43
0
 10
121.4005481718078
 20
181.2076526505251
 10
118.3991323583129
 20
181.2076526505251
  0
LWPOLYLINE
  5
1BD
100
AcDbEntity
  8
0
  6
ByLayer
 62
    0
370
   -1
100
AcDbPolyline
 90
    2
 70
    0
 43
0
 10
118.3991323583129
 20
181.2076526505251
 10
118.3991323583129
 20
186.2110288212051
  0
LWPOLYLINE
  5
1BE
100
AcDbEntity
  8
0
  6
ByLayer
 62
    0
370
   -1
100
AcDbPolyline
 90
    2
 70
    0
 43
0
 10
118.3991323583129
 20
186.2110288212051
 10
121.4005481718078
 20
186.2110288212051
  0
LWPOLYLINE
  5
1BF
100
AcDbEntity
  8
0
  6
ByLayer
 62
    0
370
   -1
100
AcDbPolyline
 90
    2
 70
    0
 43
0
 10
121.4005481718078
 20
186.2110288212051
 10
121.4005481718078
 20
191.2128802696025
  0
LWPOLYLINE
  5
1C0
100
AcDbEntity
  8
0
  6
ByLayer
 62
    0
370
   -1
100
AcDbPolyline
 90
    2
 70
    0
 43
0
 10
121.4005481718078
 20
191.2128802696025
 10
111.8961918225974
 20
191.2128802696025
  0
LWPOLYLINE
  5
1C1
100
AcDbEntity
  8
0
  6
ByLayer
 62
    0
370
   -1
100
AcDbPolyline
 90
    2
 70
    0
 43
0
 10
111.8961918225974
 20
191.2128802696025
 10
111.8961918225974
 20
171.2026791518281
  0
LWPOLYLINE
  5
1C2
100
AcDbEntity
  8
0
  6
ByLayer
 62
    0
370
   -1
100
AcDbPolyline
 90
    2
 70
    0
 43
0
 10
111.8961918225974
 20
171.2026791518281
 10
118.3991323583129
 20
171.2026791518281
  0
LWPOLYLINE
  5
1C3
100
AcDbEntity
  8
0
  6
ByLayer
 62
    0
370
   -1
100
AcDbPolyline
 90
    9
 70
    1
 43
0
 10
114.8976076360923
 20
187.710847306621
 10
115.2505808445374
 20
187.8584912476625
 10
115.3979706651984
 20
188.2114644561075
 10
115.2505808445374
 20
188.5657082664548
 10
114.8976076360923
 20
188.7118274852136
 10
114.5446344276473
 20
188.5657082664548
 10
114.3985152088885
 20
188.2114644561075
 10
114.5446344276473
 20
187.8584912476625
 10
114.8976076360923
 20
187.710847306621
  0
LWPOLYLINE
  5
1C4
100
AcDbEntity
  8
0
  6
ByLayer
 62
    0
370
   -1
100
AcDbPolyline
 90
    2
 70
    0
 43
0
 10
183.6071843429242
 20
284.7190154599845
 10
183.6071843429242
 20
270.135046825959
  0
LWPOLYLINE
  5
1C5
100
AcDbEntity
  8
0
  6
ByLayer
 62
    0
370
   -1
100
AcDbPolyline
 90
    2
 70
    0
 43
0
 10
183.6071843429242
 20
270.135046825959
 10
186.6086001564192
 20
270.135046825959
  0
LWPOLYLINE
  5
1C6
100
AcDbEntity
  8
0
  6
ByLayer
 62
    0
370
   -1
100
AcDbPolyline
 90
    2
 70
    0
 43
0
 10
186.6086001564192
 20
270.135046825959
 10
186.6086001564192
 20
251.1141363492765
  0
LWPOLYLINE
  5
1C7
100
AcDbEntity
  8
0
  6
ByLayer
 62
    0
370
   -1
100
AcDbPolyline
 90
    2
 70
    0
 43
0
 10
186.6086001564192
 20
251.1141363492765
 10
190.1103789990202
 20
251.1141363492765
  0
LWPOLYLINE
  5
1C8
100
AcDbEntity
  8
0
  6
ByLayer
 62
    0
370
   -1
100
AcDbPolyline
 90
    2
 70
    0
 43
0
 10
190.1103789990202
 20
251.1141363492765
 10
194.1127749911077
 20
256.188920346863
  0
LWPOLYLINE
  5
1C9
100
AcDbEntity
  8
0
  6
ByLayer
 62
    0
370
   -1
100
AcDbPolyline
 90
    2
 70
    0
 43
0
 10
194.1127749911077
 20
256.188920346863
 10
199.1148805598855
 20
256.188920346863
  0
LWPOLYLINE
  5
1CA
100
AcDbEntity
  8
0
  6
ByLayer
 62
    0
370
   -1
100
AcDbPolyline
 90
    2
 70
    0
 43
0
 10
199.1148805598855
 20
256.188920346863
 10
203.117276551973
 20
251.1141363492765
  0
LWPOLYLINE
  5
1CB
100
AcDbEntity
  8
0
  6
ByLayer
 62
    0
370
   -1
100
AcDbPolyline
 90
    2
 70
    0
 43
0
 10
203.117276551973
 20
251.1141363492765
 10
206.6190553945739
 20
251.1141363492765
  0
LWPOLYLINE
  5
1CC
100
AcDbEntity
  8
0
  6
ByLayer
 62
    0
370
   -1
100
AcDbPolyline
 90
    2
 70
    0
 43
0
 10
206.6190553945739
 20
251.1141363492765
 10
206.6190553945739
 20
270.135046825959
  0
LWPOLYLINE
  5
1CD
100
AcDbEntity
  8
0
  6
ByLayer
 62
    0
370
   -1
100
AcDbPolyline
 90
    2
 70
    0
 43
0
 10
206.6190553945739
 20
270.135046825959
 10
209.6202170876884
 20
270.135046825959
  0
LWPOLYLINE
  5
1CE
100
AcDbEntity
  8
0
  6
ByLayer
 62
    0
370
   -1
100
AcDbPolyline
 90
    2
 70
    0
 43
0
 10
209.6202170876884
 20
270.135046825959
 10
209.6202170876884
 20
284.7190154599845
  0
LWPOLYLINE
  5
1CF
100
AcDbEntity
  8
0
  6
ByLayer
 62
    0
370
   -1
100
AcDbPolyline
 90
    2
 70
    0
 43
0
 10
209.6202170876884
 20
284.7190154599845
 10
206.6190553945739
 20
288.523197555321
  0
LWPOLYLINE
  5
1D0
100
AcDbEntity
  8
0
  6
ByLayer
 62
    0
370
   -1
100
AcDbPolyline
 90
    2
 70
    0
 43
0
 10
206.6190553945739
 20
288.523197555321
 10
186.6086001564192
 20
288.523197555321
  0
LWPOLYLINE
  5
1D1
100
AcDbEntity
  8
0
  6
ByLayer
 62
    0
370
   -1
100
AcDbPolyline
 90
    2
 70
    0
 43
0
 10
186.6086001564192
 20
288.523197555321
 10
183.6071843429242
 20
284.7190154599845
  0
LWPOLYLINE
  5
1D2
100
AcDbEntity
  8
0
  6
ByLayer
 62
    0
370
   -1
100
AcDbPolyline
 90
    9
 70
    1
 43
0
 10
202.6166594024865
 20
281.5475931119685
 10
202.9696326109315
 20
281.7356421935015
 10
203.117276551973
 20
282.1828940630935
 10
202.9696326109315
 20
282.63268713649
 10
202.6166594024865
 20
282.8181950142185
 10
202.2624155921391
 20
282.63268713649
 10
202.1162963733804
 20
282.1828940630935
 10
202.2624155921391
 20
281.7356421935015
 10
202.6166594024865
 20
281.5475931119685
  0
LWPOLYLINE
  5
1D3
100
AcDbEntity
  8
0
  6
ByLayer
 62
    0
370
   -1
100
AcDbPolyline
 90
    9
 70
    1
 43
0
 10
190.6109961485067
 20
281.5475931119685
 10
190.9639693569517
 20
281.7356421935015
 10
191.1113591776127
 20
282.1828940630935
 10
190.9639693569517
 20
282.63268713649
 10
190.6109961485067
 20
282.8181950142185
 10
190.2564982177789
 20
282.63268713649
 10
190.1103789990202
 20
282.1828940630935
 10
190.2564982177789
 20
281.7356421935015
 10
190.6109961485067
 20
281.5475931119685
  0
LWPOLYLINE
  5
1D4
100
AcDbEntity
  8
0
  6
ByLayer
 62
    0
370
   -1
100
AcDbPolyline
 90
    2
 70
    0
 43
0
 10
18.11736005195448
 20
87.98892761043204
 10
12.50473026914555
 20
102.7906774105032
  0
LWPOLYLINE
  5
1D5
100
AcDbEntity
  8
0
  6
ByLayer
 62
    0
370
   -1
100
AcDbPolyline
 90
    9
 70
    0
 43
0
 10
12.50473026914555
 20
102.7906774105032
 10
12.17935453401737
 20
104.7166557739338
 10
12.61778842640776
 20
106.6205256642651
 10
13.75103826302453
 20
108.2115733662626
 10
15.40686124999869
 20
109.2471139165963
 10
17.33291584954337
 20
109.5711174016701
 10
19.23686197598891
 20
109.1299644212089
 10
20.82503811768727
 20
107.9950628021192
 10
21.86057866802102
 20
106.3381979215852
  0
LWPOLYLINE
  5
1D6
100
AcDbEntity
  8
0
  6
ByLayer
 62
    0
370
   -1
100
AcDbPolyline
 90
    2
 70
    0
 43
0
 10
21.86057866802102
 20
106.3381979215852
 10
31.37205038788407
 20
81.43592535976789
  0
LWPOLYLINE
  5
1D7
100
AcDbEntity
  8
0
  6
ByLayer
 62
    0
370
   -1
100
AcDbPolyline
 90
    3
 70
    0
 43
0
 10
31.37205038788407
 20
81.43592535976789
 10
32.18980977217218
 20
76.551223406758
 10
31.37205038788407
 20
71.66525085184584
  0
LWPOLYLINE
  5
1D8
100
AcDbEntity
  8
0
  6
ByLayer
 62
    0
370
   -1
100
AcDbPolyline
 90
    2
 70
    0
 43
0
 10
31.37205038788407
 20
71.66525085184584
 10
21.86057866802102
 20
46.76348653078945
  0
LWPOLYLINE
  5
1D9
100
AcDbEntity
  8
0
  6
ByLayer
 62
    0
370
   -1
100
AcDbPolyline
 90
    9
 70
    0
 43
0
 10
21.86057866802102
 20
46.76348653078945
 10
20.80038844078362
 20
45.0855296586781
 10
19.23548972593448
 20
43.9811224852424
 10
17.36872141114878
 20
43.54378131048795
 10
15.41102882423807
 20
43.86549771213765
 10
13.7303528640559
 20
44.9228926151901
 10
12.62327742662548
 20
46.48751179762075
 10
12.18347128418066
 20
48.35275539012375
 10
12.50473026914555
 20
50.31049880111055
  0
LWPOLYLINE
  5
1DA
100
AcDbEntity
  8
0
  6
ByLayer
 62
    0
370
   -1
100
AcDbPolyline
 90
    2
 70
    0
 43
0
 10
18.11736005195448
 20
65.11224860118169
 10
12.50473026914555
 20
50.31049880111055
  0
LWPOLYLINE
  5
1DB
100
AcDbEntity
  8
0
  6
ByLayer
 62
    0
370
   -1
100
AcDbPolyline
 90
    7
 70
    0
 43
0
 10
14.38112974635031
 20
70.54712117786585
 10
15.34622812722332
 20
70.42971756209793
 10
16.24373048689663
 20
70.08792565039269
 10
17.03371451360154
 20
69.5420750731861
 10
17.67892615956409
 20
68.8127495812946
 10
18.35450519099042
 20
67.0161184915131
 10
18.11736005195448
 20
65.11224860118169
  0
LWPOLYLINE
  5
1DC
100
AcDbEntity
  8
0
  6
ByLayer
 62
    0
370
   -1
100
AcDbPolyline
 90
    2
 70
    0
 43
0
 10
7.877833442102179
 20
70.54712117786585
 10
14.38112974635031
 20
70.54712117786585
  0
LWPOLYLINE
  5
1DD
100
AcDbEntity
  8
0
  6
ByLayer
 62
    0
370
   -1
100
AcDbPolyline
 90
    9
 70
    0
 43
0
 10
7.877833442102179
 20
70.54712117786585
 10
5.540942423483977
 20
71.02003920588329
 10
3.632854134837108
 20
72.30639657172119
 10
2.346522181037252
 20
74.21433238813979
 10
1.875001815112278
 20
76.54995280485574
 10
2.346522181037252
 20
78.88684382347394
 10
3.632854134837108
 20
80.79477963989254
 10
5.540942423483977
 20
82.08113700573044
 10
7.877833442102179
 20
82.55278443184565
  0
LWPOLYLINE
  5
1DE
100
AcDbEntity
  8
0
  6
ByLayer
 62
    0
370
   -1
100
AcDbPolyline
 90
    2
 70
    0
 43
0
 10
7.877833442102179
 20
82.55278443184565
 10
14.38112974635031
 20
82.55278443184565
  0
LWPOLYLINE
  5
1DF
100
AcDbEntity
  8
0
  6
ByLayer
 62
    0
370
   -1
100
AcDbPolyline
 90
    7
 70
    0
 43
0
 10
18.11736005195448
 20
87.98892761043204
 10
18.35450519099042
 20
86.08505772010064
 10
17.67892615956409
 20
84.28842663031914
 10
17.03371451360154
 20
83.55910113842765
 10
16.24373048689663
 20
83.01452116312329
 10
15.34622812722332
 20
82.67272925141805
 10
14.38112974635031
 20
82.55278443184565
  0
LWPOLYLINE
  5
1E0
100
AcDbEntity
  8
0
  6
ByLayer
 62
    0
370
   -1
100
AcDbPolyline
 90
    9
 70
    1
 43
0
 10
16.68213896724897
 20
48.53775502709135
 10
16.82830901008381
 20
48.1847818186463
 10
17.18262905654524
 20
48.03713787760484
 10
17.53557685295225
 20
48.1847818186463
 10
17.68309373380347
 20
48.53775502709135
 10
17.53557685295225
 20
48.89199883743865
 10
17.18262905654524
 20
49.0381180561974
 10
16.82830901008381
 20
48.89199883743865
 10
16.68213896724897
 20
48.53775502709135
  0
LWPOLYLINE
  5
1E1
100
AcDbEntity
  8
0
  6
ByLayer
 62
    0
370
   -1
100
AcDbPolyline
 90
    9
 70
    1
 43
0
 10
16.68213896724897
 20
104.5634211845224
 10
16.82830901008381
 20
104.2104479760773
 10
17.18262905654524
 20
104.0630581554163
 10
17.53557685295225
 20
104.2104479760773
 10
17.68309373380347
 20
104.5634211845224
 10
17.53557685295225
 20
104.9179191152501
 10
17.18262905654524
 20
105.0640383340089
 10
16.82830901008381
 20
104.9179191152501
 10
16.68213896724897
 20
104.5634211845224
  0
LWPOLYLINE
  5
1E2
100
AcDbEntity
  8
0
  6
ByLayer
 62
    0
370
   -1
100
AcDbPolyline
 90
    9
 70
    1
 43
0
 10
16.68213896724897
 20
76.54995280485574
 10
16.82830901008381
 20
76.19697959641069
 10
17.18262905654524
 20
76.05086037765194
 10
17.53557685295225
 20
76.19697959641069
 10
17.68309373380347
 20
76.54995280485574
 10
17.53557685295225
 20
76.90419661520305
 10
17.18262905654524
 20
77.05031583396179
 10
16.82830901008381
 20
76.90419661520305
 10
16.68213896724897
 20
76.54995280485574
  0
LWPOLYLINE
  5
1E3
100
AcDbEntity
  8
0
  6
ByLayer
 62
    0
370
   -1
100
AcDbPolyline
 90
    2
 70
    0
 43
0
 10
45.58373266455032
 20
70.54712117786585
 10
45.58373266455032
 20
46.53579466990625
  0
LWPOLYLINE
  5
1E4
100
AcDbEntity
  8
0
  6
ByLayer
 62
    0
370
   -1
100
AcDbPolyline
 90
    2
 70
    0
 43
0
 10
45.58373266455032
 20
46.53579466990625
 10
42.58231685105537
 20
43.5343788564113
  0
LWPOLYLINE
  5
1E5
100
AcDbEntity
  8
0
  6
ByLayer
 62
    0
370
   -1
100
AcDbPolyline
 90
    2
 70
    0
 43
0
 10
42.58231685105537
 20
43.5343788564113
 10
38.57992085896787
 20
43.5343788564113
  0
LWPOLYLINE
  5
1E6
100
AcDbEntity
  8
0
  6
ByLayer
 62
    0
370
   -1
100
AcDbPolyline
 90
    2
 70
    0
 43
0
 10
38.57992085896787
 20
43.5343788564113
 10
35.57850504547293
 20
46.53579466990625
  0
LWPOLYLINE
  5
1E7
100
AcDbEntity
  8
0
  6
ByLayer
 62
    0
370
   -1
100
AcDbPolyline
 90
    2
 70
    0
 43
0
 10
35.57850504547293
 20
46.53579466990625
 10
35.57850504547293
 20
70.54712117786585
  0
LWPOLYLINE
  5
1E8
100
AcDbEntity
  8
0
  6
ByLayer
 62
    0
370
   -1
100
AcDbPolyline
 90
   17
 70
    0
 43
0
 10
35.57850504547293
 20
70.54712117786585
 10
35.67913671613112
 20
71.55648732901324
 10
35.97137515364862
 20
72.49520801439554
 10
36.43184128302402
 20
73.34447832585944
 10
37.04427139990852
 20
74.08498511449073
 10
37.78426994777892
 20
74.69690699061434
 10
38.63354025924282
 20
75.1576272403702
 10
39.57276918538602
 20
75.44986567788769
 10
40.58188121615297
 20
75.55024322816544
 10
41.58946852463722
 20
75.44986567788769
 10
42.52869745078042
 20
75.1576272403702
 10
43.37771364186387
 20
74.69690699061434
 10
44.11822043049517
 20
74.08498511449073
 10
44.72887170471652
 20
73.34447832585944
 10
45.18959195447237
 20
72.49520801439554
 10
45.48183039198987
 20
71.55648732901324
 10
45.58373266455032
 20
70.54712117786585
  0
LWPOLYLINE
  5
1E9
100
AcDbEntity
  8
0
  6
ByLayer
 62
    0
370
   -1
100
AcDbPolyline
 90
    9
 70
    1
 43
0
 10
40.08126406666648
 20
48.53775502709135
 10
40.22738328542523
 20
48.1847818186463
 10
40.58188121615297
 20
48.03713787760484
 10
40.93485442459802
 20
48.1847818186463
 10
41.08224424525903
 20
48.53775502709135
 10
40.93485442459802
 20
48.89199883743865
 10
40.58188121615297
 20
49.0381180561974
 10
40.22738328542523
 20
48.89199883743865
 10
40.08126406666648
 20
48.53775502709135
  0
LWPOLYLINE
  5
1EA
100
AcDbEntity
  8
0
  6
ByLayer
 62
    0
370
   -1
100
AcDbPolyline
 90
    9
 70
    1
 43
0
 10
40.08126406666648
 20
70.54712117786585
 10
40.22738328542523
 20
70.1941479694208
 10
40.58188121615297
 20
70.04802875066204
 10
40.93485442459802
 20
70.1941479694208
 10
41.08224424525903
 20
70.54712117786585
 10
40.93485442459802
 20
70.90136498821313
 10
40.58188121615297
 20
71.0474842069719
 10
40.22738328542523
 20
70.90136498821313
 10
40.08126406666648
 20
70.54712117786585
  0
LWPOLYLINE
  5
1EB
100
AcDbEntity
  8
0
  6
ByLayer
 62
    0
370
   -1
100
AcDbPolyline
 90
    2
 70
    0
 43
0
 10
45.58373266455032
 20
82.55278443184565
 10
45.58373266455032
 20
106.5653815417075
  0
LWPOLYLINE
  5
1EC
100
AcDbEntity
  8
0
  6
ByLayer
 62
    0
370
   -1
100
AcDbPolyline
 90
    2
 70
    0
 43
0
 10
45.58373266455032
 20
106.5653815417075
 10
42.58231685105537
 20
109.5667973552024
  0
LWPOLYLINE
  5
1ED
100
AcDbEntity
  8
0
  6
ByLayer
 62
    0
370
   -1
100
AcDbPolyline
 90
    2
 70
    0
 43
0
 10
42.58231685105537
 20
109.5667973552024
 10
38.57992085896787
 20
109.5667973552024
  0
LWPOLYLINE
  5
1EE
100
AcDbEntity
  8
0
  6
ByLayer
 62
    0
370
   -1
100
AcDbPolyline
 90
    2
 70
    0
 43
0
 10
38.57992085896787
 20
109.5667973552024
 10
35.57850504547293
 20
106.5653815417075
  0
LWPOLYLINE
  5
1EF
100
AcDbEntity
  8
0
  6
ByLayer
 62
    0
370
   -1
100
AcDbPolyline
 90
    2
 70
    0
 43
0
 10
35.57850504547293
 20
106.5653815417075
 10
35.57850504547293
 20
82.55278443184565
  0
LWPOLYLINE
  5
1F0
100
AcDbEntity
  8
0
  6
ByLayer
 62
    0
370
   -1
100
AcDbPolyline
 90
   17
 70
    0
 43
0
 10
45.58373266455032
 20
82.55278443184565
 10
45.48183039198987
 20
81.54621360488319
 10
45.18959195447237
 20
80.60723879912044
 10
44.72887170471652
 20
79.75669788575429
 10
44.11822043049517
 20
79.016191097123
 10
43.37771364186387
 20
78.40553982290164
 10
42.52869745078042
 20
77.94507369352625
 10
41.58946852463722
 20
77.65283525600874
 10
40.58188121615297
 20
77.55093298344829
 10
39.57276918538602
 20
77.65283525600874
 10
38.63354025924282
 20
77.94507369352625
 10
37.78426994777892
 20
78.40553982290164
 10
37.04427139990852
 20
79.016191097123
 10
36.43184128302402
 20
79.75669788575429
 10
35.97137515364862
 20
80.60723879912044
 10
35.67913671613112
 20
81.54621360488319
 10
35.57850504547293
 20
82.55278443184565
  0
LWPOLYLINE
  5
1F1
100
AcDbEntity
  8
0
  6
ByLayer
 62
    0
370
   -1
100
AcDbPolyline
 90
    9
 70
    1
 43
0
 10
40.08126406666648
 20
104.5634211845224
 10
40.22738328542523
 20
104.2104479760773
 10
40.58188121615297
 20
104.0630581554163
 10
40.93485442459802
 20
104.2104479760773
 10
41.08224424525903
 20
104.5634211845224
 10
40.93485442459802
 20
104.9179191152501
 10
40.58188121615297
 20
105.0640383340089
 10
40.22738328542523
 20
104.9179191152501
 10
40.08126406666648
 20
104.5634211845224
  0
LWPOLYLINE
  5
1F2
100
AcDbEntity
  8
0
  6
ByLayer
 62
    0
370
   -1
100
AcDbPolyline
 90
    9
 70
    1
 43
0
 10
40.08126406666648
 20
82.55278443184565
 10
40.22738328542523
 20
82.1998112234006
 10
40.58188121615297
 20
82.05369200464183
 10
40.93485442459802
 20
82.1998112234006
 10
41.08224424525903
 20
82.55278443184565
 10
40.93485442459802
 20
82.90702824219294
 10
40.58188121615297
 20
83.05314746095169
 10
40.22738328542523
 20
82.90702824219294
 10
40.08126406666648
 20
82.55278443184565
  0
LWPOLYLINE
  5
1F3
100
AcDbEntity
  8
0
  6
ByLayer
 62
    0
370
   -1
100
AcDbPolyline
 90
    2
 70
    0
 43
0
 10
164.7273106773915
 20
68.52610179214699
 10
160.7264394075867
 20
68.52610179214699
  0
LWPOLYLINE
  5
1F4
100
AcDbEntity
  8
0
  6
ByLayer
 62
    0
370
   -1
100
AcDbPolyline
 90
    2
 70
    0
 43
0
 10
160.7264394075867
 20
68.52610179214699
 10
157.7250235940917
 20
65.52468597865204
  0
LWPOLYLINE
  5
1F5
100
AcDbEntity
  8
0
  6
ByLayer
 62
    0
370
   -1
100
AcDbPolyline
 90
    2
 70
    0
 43
0
 10
157.7250235940917
 20
65.52468597865204
 10
120.7073077739402
 20
65.52468597865204
  0
LWPOLYLINE
  5
1F6
100
AcDbEntity
  8
0
  6
ByLayer
 62
    0
370
   -1
100
AcDbPolyline
 90
    2
 70
    0
 43
0
 10
120.7073077739402
 20
65.52468597865204
 10
117.7058919604453
 20
68.52610179214699
  0
LWPOLYLINE
  5
1F7
100
AcDbEntity
  8
0
  6
ByLayer
 62
    0
370
   -1
100
AcDbPolyline
 90
    2
 70
    0
 43
0
 10
117.7058919604453
 20
68.52610179214699
 10
113.7034959683578
 20
68.52610179214699
  0
LWPOLYLINE
  5
1F8
100
AcDbEntity
  8
0
  6
ByLayer
 62
    0
370
   -1
100
AcDbPolyline
 90
    2
 70
    0
 43
0
 10
113.7034959683578
 20
68.52610179214699
 10
110.7020801548628
 20
68.52610179214699
  0
LWPOLYLINE
  5
1F9
100
AcDbEntity
  8
0
  6
ByLayer
 62
    0
370
   -1
100
AcDbPolyline
 90
    2
 70
    0
 43
0
 10
110.7020801548628
 20
68.52610179214699
 10
110.7020801548628
 20
65.52468597865204
  0
LWPOLYLINE
  5
1FA
100
AcDbEntity
  8
0
  6
ByLayer
 62
    0
370
   -1
100
AcDbPolyline
 90
    2
 70
    0
 43
0
 10
110.7020801548628
 20
65.52468597865204
 10
110.7020801548628
 20
55.5192042391942
  0
LWPOLYLINE
  5
1FB
100
AcDbEntity
  8
0
  6
ByLayer
 62
    0
370
   -1
100
AcDbPolyline
 90
    2
 70
    0
 43
0
 10
110.7020801548628
 20
55.5192042391942
 10
113.7034959683578
 20
52.51778842569924
  0
LWPOLYLINE
  5
1FC
100
AcDbEntity
  8
0
  6
ByLayer
 62
    0
370
   -1
100
AcDbPolyline
 90
    2
 70
    0
 43
0
 10
113.7034959683578
 20
52.51778842569924
 10
117.7058919604453
 20
52.51778842569924
  0
LWPOLYLINE
  5
1FD
100
AcDbEntity
  8
0
  6
ByLayer
 62
    0
370
   -1
100
AcDbPolyline
 90
    2
 70
    0
 43
0
 10
117.7058919604453
 20
52.51778842569924
 10
120.7073077739402
 20
55.5192042391942
  0
LWPOLYLINE
  5
1FE
100
AcDbEntity
  8
0
  6
ByLayer
 62
    0
370
   -1
100
AcDbPolyline
 90
    2
 70
    0
 43
0
 10
120.7073077739402
 20
55.5192042391942
 10
157.7250235940917
 20
55.5192042391942
  0
LWPOLYLINE
  5
1FF
100
AcDbEntity
  8
0
  6
ByLayer
 62
    0
370
   -1
100
AcDbPolyline
 90
    2
 70
    0
 43
0
 10
157.7250235940917
 20
55.5192042391942
 10
160.7264394075867
 20
52.51778842569924
  0
LWPOLYLINE
  5
200
100
AcDbEntity
  8
0
  6
ByLayer
 62
    0
370
   -1
100
AcDbPolyline
 90
    2
 70
    0
 43
0
 10
160.7264394075867
 20
52.51778842569924
 10
164.7273106773915
 20
52.51778842569924
  0
LWPOLYLINE
  5
201
100
AcDbEntity
  8
0
  6
ByLayer
 62
    0
370
   -1
100
AcDbPolyline
 90
    2
 70
    0
 43
0
 10
164.7273106773915
 20
52.51778842569924
 10
167.7287264908864
 20
55.5192042391942
  0
LWPOLYLINE
  5
202
100
AcDbEntity
  8
0
  6
ByLayer
 62
    0
370
   -1
100
AcDbPolyline
 90
    2
 70
    0
 43
0
 10
167.7287264908864
 20
55.5192042391942
 10
167.7287264908864
 20
65.52468597865204
  0
LWPOLYLINE
  5
203
100
AcDbEntity
  8
0
  6
ByLayer
 62
    0
370
   -1
100
AcDbPolyline
 90
    2
 70
    0
 43
0
 10
167.7287264908864
 20
68.52610179214699
 10
167.7287264908864
 20
65.52468597865204
  0
LWPOLYLINE
  5
204
100
AcDbEntity
  8
0
  6
ByLayer
 62
    0
370
   -1
100
AcDbPolyline
 90
    2
 70
    0
 43
0
 10
164.7273106773915
 20
68.52610179214699
 10
167.7287264908864
 20
68.52610179214699
  0
LWPOLYLINE
  5
205
100
AcDbEntity
  8
0
  6
ByLayer
 62
    0
370
   -1
100
AcDbPolyline
 90
    2
 70
    0
 43
0
 10
145.7180897382097
 20
62.0226530156706
 10
130.7107565503545
 20
62.0226530156706
  0
LWPOLYLINE
  5
206
100
AcDbEntity
  8
0
  6
ByLayer
 62
    0
370
   -1
100
AcDbPolyline
 90
    2
 70
    0
 43
0
 10
130.7107565503545
 20
62.0226530156706
 10
130.7107565503545
 20
59.02123720217564
  0
LWPOLYLINE
  5
207
100
AcDbEntity
  8
0
  6
ByLayer
 62
    0
370
   -1
100
AcDbPolyline
 90
    2
 70
    0
 43
0
 10
130.7107565503545
 20
59.02123720217564
 10
145.7180897382097
 20
59.02123720217564
  0
LWPOLYLINE
  5
208
100
AcDbEntity
  8
0
  6
ByLayer
 62
    0
370
   -1
100
AcDbPolyline
 90
    2
 70
    0
 43
0
 10
145.7180897382097
 20
59.02123720217564
 10
145.7180897382097
 20
62.0226530156706
  0
LWPOLYLINE
  5
209
100
AcDbEntity
  8
0
  6
ByLayer
 62
    0
370
   -1
100
AcDbPolyline
 90
    9
 70
    1
 43
0
 10
115.0033217143595
 20
57.52116459637929
 10
115.1494409331183
 20
57.16819138793424
 10
115.503938863846
 20
57.02080156727324
 10
115.8569120722911
 20
57.16819138793424
 10
116.0043018929521
 20
57.52116459637929
 10
115.8569120722911
 20
57.87413780482434
 10
115.503938863846
 20
58.02025702358309
 10
115.1494409331183
 20
57.87413780482434
 10
115.0033217143595
 20
57.52116459637929
  0
LWPOLYLINE
  5
20A
100
AcDbEntity
  8
0
  6
ByLayer
 62
    0
370
   -1
100
AcDbPolyline
 90
    9
 70
    1
 43
0
 10
162.226512013383
 20
57.52116459637929
 10
162.3726312321418
 20
57.16819138793424
 10
162.7268750424891
 20
57.02080156727324
 10
163.0798482509341
 20
57.16819138793424
 10
163.2272380715951
 20
57.52116459637929
 10
163.0798482509341
 20
57.87413780482434
 10
162.7268750424891
 20
58.02025702358309
 10
162.3726312321418
 20
57.87413780482434
 10
162.226512013383
 20
57.52116459637929
  0
LWPOLYLINE
  5
20B
100
AcDbEntity
  8
0
  6
ByLayer
 62
    0
370
   -1
100
AcDbPolyline
 90
    2
 70
    0
 43
0
 10
113.7034959683578
 20
70.2480214900762
 10
117.7058919604453
 20
70.2480214900762
  0
LWPOLYLINE
  5
20C
100
AcDbEntity
  8
0
  6
ByLayer
 62
    0
370
   -1
100
AcDbPolyline
 90
    2
 70
    0
 43
0
 10
117.7058919604453
 20
70.2480214900762
 10
120.7073077739402
 20
73.24943730357114
  0
LWPOLYLINE
  5
20D
100
AcDbEntity
  8
0
  6
ByLayer
 62
    0
370
   -1
100
AcDbPolyline
 90
    2
 70
    0
 43
0
 10
120.7073077739402
 20
73.24943730357114
 10
157.7250235940917
 20
73.24943730357114
  0
LWPOLYLINE
  5
20E
100
AcDbEntity
  8
0
  6
ByLayer
 62
    0
370
   -1
100
AcDbPolyline
 90
    2
 70
    0
 43
0
 10
157.7250235940917
 20
73.24943730357114
 10
160.7264394075867
 20
70.2480214900762
  0
LWPOLYLINE
  5
20F
100
AcDbEntity
  8
0
  6
ByLayer
 62
    0
370
   -1
100
AcDbPolyline
 90
    2
 70
    0
 43
0
 10
160.7264394075867
 20
70.2480214900762
 10
164.7273106773915
 20
70.2480214900762
  0
LWPOLYLINE
  5
210
100
AcDbEntity
  8
0
  6
ByLayer
 62
    0
370
   -1
100
AcDbPolyline
 90
    2
 70
    0
 43
0
 10
164.7273106773915
 20
70.2480214900762
 10
167.7287264908864
 20
70.2480214900762
  0
LWPOLYLINE
  5
211
100
AcDbEntity
  8
0
  6
ByLayer
 62
    0
370
   -1
100
AcDbPolyline
 90
    2
 70
    0
 43
0
 10
167.7287264908864
 20
70.2480214900762
 10
167.7287264908864
 20
73.24943730357114
  0
LWPOLYLINE
  5
212
100
AcDbEntity
  8
0
  6
ByLayer
 62
    0
370
   -1
100
AcDbPolyline
 90
    2
 70
    0
 43
0
 10
167.7287264908864
 20
73.24943730357114
 10
167.7287264908864
 20
83.25314020036583
  0
LWPOLYLINE
  5
213
100
AcDbEntity
  8
0
  6
ByLayer
 62
    0
370
   -1
100
AcDbPolyline
 90
    2
 70
    0
 43
0
 10
167.7287264908864
 20
83.25314020036583
 10
164.7273106773915
 20
86.25455601386079
  0
LWPOLYLINE
  5
214
100
AcDbEntity
  8
0
  6
ByLayer
 62
    0
370
   -1
100
AcDbPolyline
 90
    2
 70
    0
 43
0
 10
164.7273106773915
 20
86.25455601386079
 10
160.7264394075867
 20
86.25455601386079
  0
LWPOLYLINE
  5
215
100
AcDbEntity
  8
0
  6
ByLayer
 62
    0
370
   -1
100
AcDbPolyline
 90
    2
 70
    0
 43
0
 10
160.7264394075867
 20
86.25455601386079
 10
157.7250235940917
 20
83.25314020036583
  0
LWPOLYLINE
  5
216
100
AcDbEntity
  8
0
  6
ByLayer
 62
    0
370
   -1
100
AcDbPolyline
 90
    2
 70
    0
 43
0
 10
157.7250235940917
 20
83.25314020036583
 10
120.7073077739402
 20
83.25314020036583
  0
LWPOLYLINE
  5
217
100
AcDbEntity
  8
0
  6
ByLayer
 62
    0
370
   -1
100
AcDbPolyline
 90
    2
 70
    0
 43
0
 10
120.7073077739402
 20
83.25314020036583
 10
117.7058919604453
 20
86.25455601386079
  0
LWPOLYLINE
  5
218
100
AcDbEntity
  8
0
  6
ByLayer
 62
    0
370
   -1
100
AcDbPolyline
 90
    2
 70
    0
 43
0
 10
117.7058919604453
 20
86.25455601386079
 10
113.7034959683578
 20
86.25455601386079
  0
LWPOLYLINE
  5
219
100
AcDbEntity
  8
0
  6
ByLayer
 62
    0
370
   -1
100
AcDbPolyline
 90
    2
 70
    0
 43
0
 10
113.7034959683578
 20
86.25455601386079
 10
110.7020801548628
 20
83.25314020036583
  0
LWPOLYLINE
  5
21A
100
AcDbEntity
  8
0
  6
ByLayer
 62
    0
370
   -1
100
AcDbPolyline
 90
    2
 70
    0
 43
0
 10
110.7020801548628
 20
83.25314020036583
 10
110.7020801548628
 20
73.24943730357114
  0
LWPOLYLINE
  5
21B
100
AcDbEntity
  8
0
  6
ByLayer
 62
    0
370
   -1
100
AcDbPolyline
 90
    2
 70
    0
 43
0
 10
110.7020801548628
 20
73.24943730357114
 10
110.7020801548628
 20
70.2480214900762
  0
LWPOLYLINE
  5
21C
100
AcDbEntity
  8
0
  6
ByLayer
 62
    0
370
   -1
100
AcDbPolyline
 90
    2
 70
    0
 43
0
 10
113.7034959683578
 20
70.2480214900762
 10
110.7020801548628
 20
70.2480214900762
  0
LWPOLYLINE
  5
21D
100
AcDbEntity
  8
0
  6
ByLayer
 62
    0
370
   -1
100
AcDbPolyline
 90
    2
 70
    0
 43
0
 10
145.7180897382097
 20
79.75263195966708
 10
130.7107565503545
 20
79.75263195966708
  0
LWPOLYLINE
  5
21E
100
AcDbEntity
  8
0
  6
ByLayer
 62
    0
370
   -1
100
AcDbPolyline
 90
    2
 70
    0
 43
0
 10
130.7107565503545
 20
79.75263195966708
 10
130.7107565503545
 20
76.75096202579169
  0
LWPOLYLINE
  5
21F
100
AcDbEntity
  8
0
  6
ByLayer
 62
    0
370
   -1
100
AcDbPolyline
 90
    2
 70
    0
 43
0
 10
130.7107565503545
 20
76.75096202579169
 10
145.7180897382097
 20
76.75096202579169
  0
LWPOLYLINE
  5
220
100
AcDbEntity
  8
0
  6
ByLayer
 62
    0
370
   -1
100
AcDbPolyline
 90
    2
 70
    0
 43
0
 10
145.7180897382097
 20
76.75096202579169
 10
145.7180897382097
 20
79.75263195966708
  0
LWPOLYLINE
  5
221
100
AcDbEntity
  8
0
  6
ByLayer
 62
    0
370
   -1
100
AcDbPolyline
 90
    9
 70
    1
 43
0
 10
115.0033217143595
 20
81.252450445083
 10
115.1494409331183
 20
80.89947723663794
 10
115.503938863846
 20
80.75208741597694
 10
115.8569120722911
 20
80.89947723663794
 10
116.0043018929521
 20
81.252450445083
 10
115.8569120722911
 20
81.60694837581075
 10
115.503938863846
 20
81.75306759456949
 10
115.1494409331183
 20
81.60694837581075
 10
115.0033217143595
 20
81.252450445083
  0
LWPOLYLINE
  5
222
100
AcDbEntity
  8
0
  6
ByLayer
 62
    0
370
   -1
100
AcDbPolyline
 90
    9
 70
    1
 43
0
 10
162.226512013383
 20
81.252450445083
 10
162.3726312321418
 20
80.89947723663794
 10
162.7268750424891
 20
80.75208741597694
 10
163.0798482509341
 20
80.89947723663794
 10
163.2272380715951
 20
81.252450445083
 10
163.0798482509341
 20
81.60694837581075
 10
162.7268750424891
 20
81.75306759456949
 10
162.3726312321418
 20
81.60694837581075
 10
162.226512013383
 20
81.252450445083
  0
LWPOLYLINE
  5
223
100
AcDbEntity
  8
0
  6
ByLayer
 62
    0
370
   -1
100
AcDbPolyline
 90
    2
 70
    0
 43
0
 10
206.1832389421022
 20
83.0104552370361
 10
201.1798627714222
 20
88.01383140771614
  0
LWPOLYLINE
  5
224
100
AcDbEntity
  8
0
  6
ByLayer
 62
    0
370
   -1
100
AcDbPolyline
 90
    2
 70
    0
 43
0
 10
201.1798627714222
 20
88.01383140771614
 10
193.1768496299103
 20
88.01383140771614
  0
LWPOLYLINE
  5
225
100
AcDbEntity
  8
0
  6
ByLayer
 62
    0
370
   -1
100
AcDbPolyline
 90
    2
 70
    0
 43
0
 10
193.1768496299103
 20
88.01383140771614
 10
193.1768496299103
 20
80.00903942354114
  0
LWPOLYLINE
  5
226
100
AcDbEntity
  8
0
  6
ByLayer
 62
    0
370
   -1
100
AcDbPolyline
 90
    2
 70
    0
 43
0
 10
193.1768496299103
 20
80.00903942354114
 10
190.1754338164154
 20
80.00903942354114
  0
LWPOLYLINE
  5
227
100
AcDbEntity
  8
0
  6
ByLayer
 62
    0
370
   -1
100
AcDbPolyline
 90
    2
 70
    0
 43
0
 10
190.1754338164154
 20
80.00903942354114
 10
190.1754338164154
 20
72.00577216164884
  0
LWPOLYLINE
  5
228
100
AcDbEntity
  8
0
  6
ByLayer
 62
    0
370
   -1
100
AcDbPolyline
 90
    2
 70
    0
 43
0
 10
190.1754338164154
 20
72.00577216164884
 10
193.1768496299103
 20
72.00577216164884
  0
LWPOLYLINE
  5
229
100
AcDbEntity
  8
0
  6
ByLayer
 62
    0
370
   -1
100
AcDbPolyline
 90
    2
 70
    0
 43
0
 10
193.1768496299103
 20
72.00577216164884
 10
193.1768496299103
 20
64.0022507793761
  0
LWPOLYLINE
  5
22A
100
AcDbEntity
  8
0
  6
ByLayer
 62
    0
370
   -1
100
AcDbPolyline
 90
    2
 70
    0
 43
0
 10
193.1768496299103
 20
64.0022507793761
 10
190.1754338164154
 20
64.0022507793761
  0
LWPOLYLINE
  5
22B
100
AcDbEntity
  8
0
  6
ByLayer
 62
    0
370
   -1
100
AcDbPolyline
 90
    2
 70
    0
 43
0
 10
190.1754338164154
 20
64.0022507793761
 10
190.1754338164154
 20
55.99796703596199
  0
LWPOLYLINE
  5
22C
100
AcDbEntity
  8
0
  6
ByLayer
 62
    0
370
   -1
100
AcDbPolyline
 90
    2
 70
    0
 43
0
 10
190.1754338164154
 20
55.99796703596199
 10
193.1768496299103
 20
55.99796703596199
  0
LWPOLYLINE
  5
22D
100
AcDbEntity
  8
0
  6
ByLayer
 62
    0
370
   -1
100
AcDbPolyline
 90
    2
 70
    0
 43
0
 10
193.1768496299103
 20
55.99796703596199
 10
193.1768496299103
 20
47.99444565368925
  0
LWPOLYLINE
  5
22E
100
AcDbEntity
  8
0
  6
ByLayer
 62
    0
370
   -1
100
AcDbPolyline
 90
    2
 70
    0
 43
0
 10
193.1768496299103
 20
47.99444565368925
 10
201.1798627714222
 20
47.99444565368925
  0
LWPOLYLINE
  5
22F
100
AcDbEntity
  8
0
  6
ByLayer
 62
    0
370
   -1
100
AcDbPolyline
 90
    2
 70
    0
 43
0
 10
201.1798627714222
 20
47.99444565368925
 10
206.1832389421022
 20
52.99655122246704
  0
LWPOLYLINE
  5
230
100
AcDbEntity
  8
0
  6
ByLayer
 62
    0
370
   -1
100
AcDbPolyline
 90
    2
 70
    0
 43
0
 10
206.1832389421022
 20
52.99655122246704
 10
206.1832389421022
 20
83.0104552370361
  0
LWPOLYLINE
  5
231
100
AcDbEntity
  8
0
  6
ByLayer
 62
    0
370
   -1
100
AcDbPolyline
 90
    9
 70
    1
 43
0
 10
204.6818957344036
 20
80.00903942354114
 10
204.5342517933622
 20
80.3635373542689
 10
204.1812785849171
 20
80.50965657302764
 10
203.8283053764721
 20
80.3635373542689
 10
203.6821861577133
 20
80.00903942354114
 10
203.8283053764721
 20
79.65606621509609
 10
204.1812785849171
 20
79.50994699633735
 10
204.5342517933622
 20
79.65606621509609
 10
204.6818957344036
 20
80.00903942354114
  0
LWPOLYLINE
  5
232
100
AcDbEntity
  8
0
  6
ByLayer
 62
    0
370
   -1
100
AcDbPolyline
 90
    9
 70
    1
 43
0
 10
204.6818957344036
 20
55.99796703596199
 10
204.5342517933622
 20
56.35221084630929
 10
204.1812785849171
 20
56.49833006506805
 10
203.8283053764721
 20
56.35221084630929
 10
203.6821861577133
 20
55.99796703596199
 10
203.8283053764721
 20
55.64499382751694
 10
204.1812785849171
 20
55.4973498864755
 10
204.5342517933622
 20
55.64499382751694
 10
204.6818957344036
 20
55.99796703596199
  0
LWPOLYLINE
  5
233
100
AcDbEntity
  8
0
  6
ByLayer
 62
    0
370
   -1
100
AcDbPolyline
 90
    2
 70
    0
 43
0
 10
206.1832389421022
 20
94.7914760746981
 10
201.1798627714222
 20
89.78962462630075
  0
LWPOLYLINE
  5
234
100
AcDbEntity
  8
0
  6
ByLayer
 62
    0
370
   -1
100
AcDbPolyline
 90
    2
 70
    0
 43
0
 10
201.1798627714222
 20
89.78962462630075
 10
193.1768496299103
 20
89.78962462630075
  0
LWPOLYLINE
  5
235
100
AcDbEntity
  8
0
  6
ByLayer
 62
    0
370
   -1
100
AcDbPolyline
 90
    2
 70
    0
 43
0
 10
193.1768496299103
 20
89.78962462630075
 10
193.1768496299103
 20
97.79289188819304
  0
LWPOLYLINE
  5
236
100
AcDbEntity
  8
0
  6
ByLayer
 62
    0
370
   -1
100
AcDbPolyline
 90
    2
 70
    0
 43
0
 10
193.1768496299103
 20
97.79289188819304
 10
190.1754338164154
 20
97.79289188819304
  0
LWPOLYLINE
  5
237
100
AcDbEntity
  8
0
  6
ByLayer
 62
    0
370
   -1
100
AcDbPolyline
 90
    2
 70
    0
 43
0
 10
190.1754338164154
 20
97.79289188819304
 10
190.1754338164154
 20
105.7959050297049
  0
LWPOLYLINE
  5
238
100
AcDbEntity
  8
0
  6
ByLayer
 62
    0
370
   -1
100
AcDbPolyline
 90
    2
 70
    0
 43
0
 10
190.1754338164154
 20
105.7959050297049
 10
193.1768496299103
 20
105.7959050297049
  0
LWPOLYLINE
  5
239
100
AcDbEntity
  8
0
  6
ByLayer
 62
    0
370
   -1
100
AcDbPolyline
 90
    2
 70
    0
 43
0
 10
193.1768496299103
 20
105.7959050297049
 10
193.1768496299103
 20
113.8006970138799
  0
LWPOLYLINE
  5
23A
100
AcDbEntity
  8
0
  6
ByLayer
 62
    0
370
   -1
100
AcDbPolyline
 90
    2
 70
    0
 43
0
 10
193.1768496299103
 20
113.8006970138799
 10
190.1754338164154
 20
113.8006970138799
  0
LWPOLYLINE
  5
23B
100
AcDbEntity
  8
0
  6
ByLayer
 62
    0
370
   -1
100
AcDbPolyline
 90
    2
 70
    0
 43
0
 10
190.1754338164154
 20
113.8006970138799
 10
190.1754338164154
 20
121.8042183961526
  0
LWPOLYLINE
  5
23C
100
AcDbEntity
  8
0
  6
ByLayer
 62
    0
370
   -1
100
AcDbPolyline
 90
    2
 70
    0
 43
0
 10
190.1754338164154
 20
121.8042183961526
 10
193.1768496299103
 20
121.8042183961526
  0
LWPOLYLINE
  5
23D
100
AcDbEntity
  8
0
  6
ByLayer
 62
    0
370
   -1
100
AcDbPolyline
 90
    2
 70
    0
 43
0
 10
193.1768496299103
 20
121.8042183961526
 10
193.1768496299103
 20
129.8090103803276
  0
LWPOLYLINE
  5
23E
100
AcDbEntity
  8
0
  6
ByLayer
 62
    0
370
   -1
100
AcDbPolyline
 90
    2
 70
    0
 43
0
 10
193.1768496299103
 20
129.8090103803276
 10
201.1798627714222
 20
129.8090103803276
  0
LWPOLYLINE
  5
23F
100
AcDbEntity
  8
0
  6
ByLayer
 62
    0
370
   -1
100
AcDbPolyline
 90
    2
 70
    0
 43
0
 10
201.1798627714222
 20
129.8090103803276
 10
206.1832389421022
 20
124.8056342096476
  0
LWPOLYLINE
  5
240
100
AcDbEntity
  8
0
  6
ByLayer
 62
    0
370
   -1
100
AcDbPolyline
 90
    2
 70
    0
 43
0
 10
206.1832389421022
 20
124.8056342096476
 10
206.1832389421022
 20
94.7914760746981
  0
LWPOLYLINE
  5
241
100
AcDbEntity
  8
0
  6
ByLayer
 62
    0
370
   -1
100
AcDbPolyline
 90
    9
 70
    1
 43
0
 10
204.6818957344036
 20
97.79289188819304
 10
204.5342517933622
 20
98.14688157815989
 10
204.1812785849171
 20
98.29350903767954
 10
203.8283053764721
 20
98.14688157815989
 10
203.6821861577133
 20
97.79289188819304
 10
203.8283053764721
 20
97.43991867974799
 10
204.1812785849171
 20
97.29252885908699
 10
204.5342517933622
 20
97.43991867974799
 10
204.6818957344036
 20
97.79289188819304
  0
LWPOLYLINE
  5
242
100
AcDbEntity
  8
0
  6
ByLayer
 62
    0
370
   -1
100
AcDbPolyline
 90
    9
 70
    1
 43
0
 10
204.6818957344036
 20
121.8042183961526
 10
204.5342517933622
 20
122.1584622064999
 10
204.1812785849171
 20
122.3045814252587
 10
203.8283053764721
 20
122.1584622064999
 10
203.6821861577133
 20
121.8042183961526
 10
203.8283053764721
 20
121.4512451877076
 10
204.1812785849171
 20
121.3036012466661
 10
204.5342517933622
 20
121.4512451877076
 10
204.6818957344036
 20
121.8042183961526
  0
LWPOLYLINE
  5
243
100
AcDbEntity
  8
0
  6
ByLayer
 62
    0
370
   -1
100
AcDbPolyline
 90
    2
 70
    0
 43
0
 10
186.5948776558749
 20
83.0104552370361
 10
181.5915014851948
 20
88.01383140771614
  0
LWPOLYLINE
  5
244
100
AcDbEntity
  8
0
  6
ByLayer
 62
    0
370
   -1
100
AcDbPolyline
 90
    2
 70
    0
 43
0
 10
181.5915014851948
 20
88.01383140771614
 10
173.588488343683
 20
88.01383140771614
  0
LWPOLYLINE
  5
245
100
AcDbEntity
  8
0
  6
ByLayer
 62
    0
370
   -1
100
AcDbPolyline
 90
    2
 70
    0
 43
0
 10
173.588488343683
 20
88.01383140771614
 10
173.588488343683
 20
80.00903942354114
  0
LWPOLYLINE
  5
246
100
AcDbEntity
  8
0
  6
ByLayer
 62
    0
370
   -1
100
AcDbPolyline
 90
    2
 70
    0
 43
0
 10
173.588488343683
 20
80.00903942354114
 10
170.5868184098076
 20
80.00903942354114
  0
LWPOLYLINE
  5
247
100
AcDbEntity
  8
0
  6
ByLayer
 62
    0
370
   -1
100
AcDbPolyline
 90
    2
 70
    0
 43
0
 10
170.5868184098076
 20
80.00903942354114
 10
170.5868184098076
 20
72.00577216164884
  0
LWPOLYLINE
  5
248
100
AcDbEntity
  8
0
  6
ByLayer
 62
    0
370
   -1
100
AcDbPolyline
 90
    2
 70
    0
 43
0
 10
170.5868184098076
 20
72.00577216164884
 10
173.588488343683
 20
72.00577216164884
  0
LWPOLYLINE
  5
249
100
AcDbEntity
  8
0
  6
ByLayer
 62
    0
370
   -1
100
AcDbPolyline
 90
    2
 70
    0
 43
0
 10
173.588488343683
 20
72.00577216164884
 10
173.588488343683
 20
64.0022507793761
  0
LWPOLYLINE
  5
24A
100
AcDbEntity
  8
0
  6
ByLayer
 62
    0
370
   -1
100
AcDbPolyline
 90
    2
 70
    0
 43
0
 10
173.588488343683
 20
64.0022507793761
 10
170.5868184098076
 20
64.0022507793761
  0
LWPOLYLINE
  5
24B
100
AcDbEntity
  8
0
  6
ByLayer
 62
    0
370
   -1
100
AcDbPolyline
 90
    2
 70
    0
 43
0
 10
170.5868184098076
 20
64.0022507793761
 10
170.5868184098076
 20
55.99796703596199
  0
LWPOLYLINE
  5
24C
100
AcDbEntity
  8
0
  6
ByLayer
 62
    0
370
   -1
100
AcDbPolyline
 90
    2
 70
    0
 43
0
 10
170.5868184098076
 20
55.99796703596199
 10
173.588488343683
 20
55.99796703596199
  0
LWPOLYLINE
  5
24D
100
AcDbEntity
  8
0
  6
ByLayer
 62
    0
370
   -1
100
AcDbPolyline
 90
    2
 70
    0
 43
0
 10
173.588488343683
 20
55.99796703596199
 10
173.588488343683
 20
47.99444565368925
  0
LWPOLYLINE
  5
24E
100
AcDbEntity
  8
0
  6
ByLayer
 62
    0
370
   -1
100
AcDbPolyline
 90
    2
 70
    0
 43
0
 10
173.588488343683
 20
47.99444565368925
 10
181.5915014851948
 20
47.99444565368925
  0
LWPOLYLINE
  5
24F
100
AcDbEntity
  8
0
  6
ByLayer
 62
    0
370
   -1
100
AcDbPolyline
 90
    2
 70
    0
 43
0
 10
181.5915014851948
 20
47.99444565368925
 10
186.5948776558749
 20
52.99655122246704
  0
LWPOLYLINE
  5
250
100
AcDbEntity
  8
0
  6
ByLayer
 62
    0
370
   -1
100
AcDbPolyline
 90
    2
 70
    0
 43
0
 10
186.5948776558749
 20
52.99655122246704
 10
186.5948776558749
 20
83.0104552370361
  0
LWPOLYLINE
  5
251
100
AcDbEntity
  8
0
  6
ByLayer
 62
    0
370
   -1
100
AcDbPolyline
 90
    9
 70
    1
 43
0
 10
185.0932803277958
 20
80.00903942354114
 10
184.9458905071348
 20
80.3635373542689
 10
184.5929172986898
 20
80.50965657302764
 10
184.2399440902447
 20
80.3635373542689
 10
184.093824871486
 20
80.00903942354114
 10
184.2399440902447
 20
79.65606621509609
 10
184.5929172986898
 20
79.50994699633735
 10
184.9458905071348
 20
79.65606621509609
 10
185.0932803277958
 20
80.00903942354114
  0
LWPOLYLINE
  5
252
100
AcDbEntity
  8
0
  6
ByLayer
 62
    0
370
   -1
100
AcDbPolyline
 90
    9
 70
    1
 43
0
 10
185.0932803277958
 20
55.99796703596199
 10
184.9458905071348
 20
56.35221084630929
 10
184.5929172986898
 20
56.49833006506805
 10
184.2399440902447
 20
56.35221084630929
 10
184.093824871486
 20
55.99796703596199
 10
184.2399440902447
 20
55.64499382751694
 10
184.5929172986898
 20
55.4973498864755
 10
184.9458905071348
 20
55.64499382751694
 10
185.0932803277958
 20
55.99796703596199
  0
LWPOLYLINE
  5
253
100
AcDbEntity
  8
0
  6
ByLayer
 62
    0
370
   -1
100
AcDbPolyline
 90
    2
 70
    0
 43
0
 10
186.5948776558749
 20
94.7914760746981
 10
181.5915014851948
 20
89.78962462630075
  0
LWPOLYLINE
  5
254
100
AcDbEntity
  8
0
  6
ByLayer
 62
    0
370
   -1
100
AcDbPolyline
 90
    2
 70
    0
 43
0
 10
181.5915014851948
 20
89.78962462630075
 10
173.588488343683
 20
89.78962462630075
  0
LWPOLYLINE
  5
255
100
AcDbEntity
  8
0
  6
ByLayer
 62
    0
370
   -1
100
AcDbPolyline
 90
    2
 70
    0
 43
0
 10
173.588488343683
 20
89.78962462630075
 10
173.588488343683
 20
97.79289188819304
  0
LWPOLYLINE
  5
256
100
AcDbEntity
  8
0
  6
ByLayer
 62
    0
370
   -1
100
AcDbPolyline
 90
    2
 70
    0
 43
0
 10
173.588488343683
 20
97.79289188819304
 10
170.5868184098076
 20
97.79289188819304
  0
LWPOLYLINE
  5
257
100
AcDbEntity
  8
0
  6
ByLayer
 62
    0
370
   -1
100
AcDbPolyline
 90
    2
 70
    0
 43
0
 10
170.5868184098076
 20
97.79289188819304
 10
170.5868184098076
 20
105.7959050297049
  0
LWPOLYLINE
  5
258
100
AcDbEntity
  8
0
  6
ByLayer
 62
    0
370
   -1
100
AcDbPolyline
 90
    2
 70
    0
 43
0
 10
170.5868184098076
 20
105.7959050297049
 10
173.588488343683
 20
105.7959050297049
  0
LWPOLYLINE
  5
259
100
AcDbEntity
  8
0
  6
ByLayer
 62
    0
370
   -1
100
AcDbPolyline
 90
    2
 70
    0
 43
0
 10
173.588488343683
 20
105.7959050297049
 10
173.588488343683
 20
113.8006970138799
  0
LWPOLYLINE
  5
25A
100
AcDbEntity
  8
0
  6
ByLayer
 62
    0
370
   -1
100
AcDbPolyline
 90
    2
 70
    0
 43
0
 10
173.588488343683
 20
113.8006970138799
 10
170.5868184098076
 20
113.8006970138799
  0
LWPOLYLINE
  5
25B
100
AcDbEntity
  8
0
  6
ByLayer
 62
    0
370
   -1
100
AcDbPolyline
 90
    2
 70
    0
 43
0
 10
170.5868184098076
 20
113.8006970138799
 10
170.5868184098076
 20
121.8042183961526
  0
LWPOLYLINE
  5
25C
100
AcDbEntity
  8
0
  6
ByLayer
 62
    0
370
   -1
100
AcDbPolyline
 90
    2
 70
    0
 43
0
 10
170.5868184098076
 20
121.8042183961526
 10
173.588488343683
 20
121.8042183961526
  0
LWPOLYLINE
  5
25D
100
AcDbEntity
  8
0
  6
ByLayer
 62
    0
370
   -1
100
AcDbPolyline
 90
    2
 70
    0
 43
0
 10
173.588488343683
 20
121.8042183961526
 10
173.588488343683
 20
129.8090103803276
  0
LWPOLYLINE
  5
25E
100
AcDbEntity
  8
0
  6
ByLayer
 62
    0
370
   -1
100
AcDbPolyline
 90
    2
 70
    0
 43
0
 10
173.588488343683
 20
129.8090103803276
 10
181.5915014851948
 20
129.8090103803276
  0
LWPOLYLINE
  5
25F
100
AcDbEntity
  8
0
  6
ByLayer
 62
    0
370
   -1
100
AcDbPolyline
 90
    2
 70
    0
 43
0
 10
181.5915014851948
 20
129.8090103803276
 10
186.5948776558749
 20
124.8056342096476
  0
LWPOLYLINE
  5
260
100
AcDbEntity
  8
0
  6
ByLayer
 62
    0
370
   -1
100
AcDbPolyline
 90
    2
 70
    0
 43
0
 10
186.5948776558749
 20
124.8056342096476
 10
186.5948776558749
 20
94.7914760746981
  0
LWPOLYLINE
  5
261
100
AcDbEntity
  8
0
  6
ByLayer
 62
    0
370
   -1
100
AcDbPolyline
 90
    9
 70
    1
 43
0
 10
185.0932803277958
 20
97.79289188819304
 10
184.9458905071348
 20
98.14688157815989
 10
184.5929172986898
 20
98.29350903767954
 10
184.2399440902447
 20
98.14688157815989
 10
184.093824871486
 20
97.79289188819304
 10
184.2399440902447
 20
97.43991867974799
 10
184.5929172986898
 20
97.29252885908699
 10
184.9458905071348
 20
97.43991867974799
 10
185.0932803277958
 20
97.79289188819304
  0
LWPOLYLINE
  5
262
100
AcDbEntity
  8
0
  6
ByLayer
 62
    0
370
   -1
100
AcDbPolyline
 90
    9
 70
    1
 43
0
 10
185.0932803277958
 20
121.8042183961526
 10
184.9458905071348
 20
122.1584622064999
 10
184.5929172986898
 20
122.3045814252587
 10
184.2399440902447
 20
122.1584622064999
 10
184.093824871486
 20
121.8042183961526
 10
184.2399440902447
 20
121.4512451877076
 10
184.5929172986898
 20
121.3036012466661
 10
184.9458905071348
 20
121.4512451877076
 10
185.0932803277958
 20
121.8042183961526
  0
LWPOLYLINE
  5
263
100
AcDbEntity
  8
0
  6
ByLayer
 62
    0
370
   -1
100
AcDbPolyline
 90
    2
 70
    0
 43
0
 10
5.642971756234652
 20
215.9575981955408
 10
5.642971756234652
 20
118.4620271524742
  0
LWPOLYLINE
  5
264
100
AcDbEntity
  8
0
  6
ByLayer
 62
    0
370
   -1
100
AcDbPolyline
 90
    9
 70
    0
 43
0
 10
5.642971756234652
 20
118.4620271524742
 10
6.114492122159627
 20
116.1266608561387
 10
7.400824075959482
 20
114.2187250397202
 10
9.308912364606353
 20
112.9321135535018
 10
11.64580338322455
 20
112.4591955254843
 10
13.98129673975028
 20
112.9321135535018
 10
15.88941044043519
 20
114.2187250397202
 10
17.17574239423505
 20
116.1266608561387
 10
17.64860959817641
 20
118.4620271524742
  0
LWPOLYLINE
  5
265
100
AcDbEntity
  8
0
  6
ByLayer
 62
    0
370
   -1
100
AcDbPolyline
 90
    2
 70
    0
 43
0
 10
17.64860959817641
 20
118.4620271524742
 10
17.64860959817641
 20
215.9575981955408
  0
LWPOLYLINE
  5
266
100
AcDbEntity
  8
0
  6
ByLayer
 62
    0
370
   -1
100
AcDbPolyline
 90
    9
 70
    0
 43
0
 10
17.64860959817641
 20
215.9575981955408
 10
17.17574239423505
 20
218.2947433345395
 10
15.88941044043519
 20
220.2026791509581
 10
13.98129673975028
 20
221.4887823964155
 10
11.64580338322455
 20
221.9604298225307
 10
9.308912364606353
 20
221.4887823964155
 10
7.400824075959482
 20
220.2026791509581
 10
6.114492122159627
 20
218.2947433345395
 10
5.642971756234652
 20
215.9575981955408
  0
LWPOLYLINE
  5
267
100
AcDbEntity
  8
0
  6
ByLayer
 62
    0
370
   -1
100
AcDbPolyline
 90
    9
 70
    1
 43
0
 10
11.64580338322455
 20
216.4569447431251
 10
11.29148333676312
 20
216.3105714039859
 10
11.14531329392828
 20
215.9575981955408
 10
11.29148333676312
 20
215.6046249870958
 10
11.64580338322455
 20
215.4569810460543
 10
11.99875117963156
 20
215.6046249870958
 10
12.14626806048278
 20
215.9575981955408
 10
11.99875117963156
 20
216.3105714039859
 10
11.64580338322455
 20
216.4569447431251
  0
LWPOLYLINE
  5
268
100
AcDbEntity
  8
0
  6
ByLayer
 62
    0
370
   -1
100
AcDbPolyline
 90
    9
 70
    1
 43
0
 10
11.64580338322455
 20
118.961119579678
 10
11.29148333676312
 20
118.8150003609193
 10
11.14531329392828
 20
118.4620271524742
 10
11.29148333676312
 20
118.1090539440292
 10
11.64580338322455
 20
117.9616641233682
 10
11.99875117963156
 20
118.1090539440292
 10
12.14626806048278
 20
118.4620271524742
 10
11.99875117963156
 20
118.8150003609193
 10
11.64580338322455
 20
118.961119579678
  0
LWPOLYLINE
  5
269
100
AcDbEntity
  8
0
  6
ByLayer
 62
    0
370
   -1
100
AcDbPolyline
 90
    2
 70
    0
 43
0
 10
20.62529949865358
 20
215.9575981955408
 10
20.62529949865358
 20
118.4620271524742
  0
LWPOLYLINE
  5
26A
100
AcDbEntity
  8
0
  6
ByLayer
 62
    0
370
   -1
100
AcDbPolyline
 90
    9
 70
    0
 43
0
 10
20.62529949865358
 20
118.4620271524742
 10
21.09669280438832
 20
116.1266608561387
 10
22.38305017022622
 20
114.2187250397202
 10
24.29124010702527
 20
112.9321135535018
 10
26.62813112564347
 20
112.4591955254843
 10
28.96349742197897
 20
112.9321135535018
 10
30.87143323839757
 20
114.2187250397202
 10
32.15804472461592
 20
116.1266608561387
 10
32.63096275263337
 20
118.4620271524742
  0
LWPOLYLINE
  5
26B
100
AcDbEntity
  8
0
  6
ByLayer
 62
    0
370
   -1
100
AcDbPolyline
 90
    2
 70
    0
 43
0
 10
32.63096275263337
 20
118.4620271524742
 10
32.63096275263337
 20
215.9575981955408
  0
LWPOLYLINE
  5
26C
100
AcDbEntity
  8
0
  6
ByLayer
 62
    0
370
   -1
100
AcDbPolyline
 90
    9
 70
    0
 43
0
 10
32.63096275263337
 20
215.9575981955408
 10
32.15804472461592
 20
218.2947433345395
 10
30.87143323839757
 20
220.2026791509581
 10
28.96349742197897
 20
221.4887823964155
 10
26.62813112564347
 20
221.9604298225307
 10
24.29124010702527
 20
221.4887823964155
 10
22.38305017022622
 20
220.2026791509581
 10
21.09669280438832
 20
218.2947433345395
 10
20.62529949865358
 20
215.9575981955408
  0
LWPOLYLINE
  5
26D
100
AcDbEntity
  8
0
  6
ByLayer
 62
    0
370
   -1
100
AcDbPolyline
 90
    9
 70
    1
 43
0
 10
26.62813112564347
 20
216.4569447431251
 10
26.27363319491572
 20
216.3105714039859
 10
26.12751397615697
 20
215.9575981955408
 10
26.27363319491572
 20
215.6046249870958
 10
26.62813112564347
 20
215.4569810460543
 10
26.98085021370808
 20
215.6046249870958
 10
27.12849415474952
 20
215.9575981955408
 10
26.98085021370808
 20
216.3105714039859
 10
26.62813112564347
 20
216.4569447431251
  0
LWPOLYLINE
  5
26E
100
AcDbEntity
  8
0
  6
ByLayer
 62
    0
370
   -1
100
AcDbPolyline
 90
    9
 70
    1
 43
0
 10
26.62813112564347
 20
118.961119579678
 10
26.27363319491572
 20
118.8150003609193
 10
26.12751397615697
 20
118.4620271524742
 10
26.27363319491572
 20
118.1090539440292
 10
26.62813112564347
 20
117.9616641233682
 10
26.98085021370808
 20
118.1090539440292
 10
27.12849415474952
 20
118.4620271524742
 10
26.98085021370808
 20
118.8150003609193
 10
26.62813112564347
 20
118.961119579678
  0
ENDSEC
  0
SECTION
  2
OBJECTS
  0
DICTIONARY
  5
C
330
0
100
AcDbDictionary
281
    1
  3
ACAD_GROUP
350
D
  0
DICTIONARY
  5
D
330
C
100
AcDbDictionary
281
    1
  0
ENDSEC
  0
EOF
