<?xml version="1.0" encoding="UTF-8" standalone="no"?>
<svg
   xmlns:dc="http://purl.org/dc/elements/1.1/"
   xmlns:cc="http://creativecommons.org/ns#"
   xmlns:rdf="http://www.w3.org/1999/02/22-rdf-syntax-ns#"
   xmlns:svg="http://www.w3.org/2000/svg"
   xmlns="http://www.w3.org/2000/svg"
   id="svg87"
   viewBox="0 0 1385.925 2138.175"
   height="2138.175mm"
   width="1385.925mm"
   version="1.1">
  <metadata
     id="metadata91">
    <rdf:RDF>
      <cc:Work
         rdf:about="">
        <dc:format>image/svg+xml</dc:format>
        <dc:type
           rdf:resource="http://purl.org/dc/dcmitype/StillImage" />
        <dc:title></dc:title>
      </cc:Work>
    </rdf:RDF>
  </metadata>
  <!-- Working space 0 0 210 297 -->
  <defs
     id="defs12">
    <radialGradient
       r="19.570999"
       gradientTransform="matrix(0.14777,0.23089,-0.2468,0.15795,-26.318,-62.617)"
       cx="282.64999"
       cy="29.149"
       gradientUnits="userSpaceOnUse"
       id="radialGradient3661">
      <stop
         id="stop2"
         offset="0"
         stop-color="#71b2f8" />
      <stop
         id="stop4"
         offset="1"
         stop-color="#002795" />
    </radialGradient>
    <radialGradient
       r="19.570999"
       gradientTransform="matrix(0.26631,0.065024,-0.17931,0.73438,-60.668,-36.938)"
       cx="270.57999"
       cy="33.900002"
       gradientUnits="userSpaceOnUse"
       id="radialGradient3817">
      <stop
         id="stop7"
         offset="0"
         stop-color="#ff6d0f" />
      <stop
         id="stop9"
         offset="1"
         stop-color="#ff1000" />
    </radialGradient>
  </defs>
  <!-- Set display:none to hide FreeCAD Logo -->
  <g
     transform="matrix(0,25.5,-25.5,0,692.9625,935.2125)"
     id="Ortho_0_1">
    <g
       style="fill:none;stroke:#000000;stroke-width:0.34999999;stroke-linecap:butt;stroke-linejoin:miter"
       id="g84"
       transform="scale(1,-1)">
      <path
         d="M -36.5,24 V -24"
         id="path39" />
      <path
         d="m -36.5,-24 3,-3"
         id="path41" />
      <path
         d="M -33.5,-27 H 44"
         id="path43" />
      <path
         d="m 44,-27 3,3"
         id="path45" />
      <path
         d="m 47,-24 v 14"
         id="path47" />
      <path
         d="M 47,-10 H 44"
         id="path49" />
      <path
         d="M 44,-10 V 10"
         id="path51" />
      <path
         d="m 44,10 h 3"
         id="path53" />
      <path
         d="M 47,10 V 24"
         id="path55" />
      <path
         d="m 47,24 -3,3"
         id="path57" />
      <path
         d="M 44,27 H -33.5"
         id="path59" />
      <path
         d="m -33.5,27 -3,-3"
         id="path61" />
      <path
         d="m 11.5,-10 h 15"
         id="path63" />
      <path
         d="m 26.5,-10 v -3"
         id="path65" />
      <path
         d="m 26.5,-13 h -15"
         id="path67" />
      <path
         d="m 11.5,-13 v 3"
         id="path69" />
      <path
         d="m -18.5,-10 h 15"
         id="path71" />
      <path
         d="m -3.5,-10 v -3"
         id="18" />
      <path
         d="m -3.5,-13 h -15"
         id="19" />
      <path
         d="m -18.5,-13 v 3"
         id="20" />
      <path
         d="m 11.5,13 h 15"
         id="21" />
      <path
         d="M 26.5,13 V 10"
         id="22" />
      <path
         d="m 26.5,10 h -15"
         id="23" />
      <path
         d="m 11.5,10 v 3"
         id="24" />
      <path
         d="m -18.5,13 h 15"
         id="25" />
      <path
         d="M -3.5,13 V 10"
         id="26" />
      <path
         d="m -3.5,10 h -15"
         id="27" />
      <path
         d="m -18.5,10 v 3"
         id="28" />
    </g>
  </g>
</svg>
