<?xml version="1.0" encoding="UTF-8" standalone="no"?>
<svg
   xmlns:dc="http://purl.org/dc/elements/1.1/"
   xmlns:cc="http://creativecommons.org/ns#"
   xmlns:rdf="http://www.w3.org/1999/02/22-rdf-syntax-ns#"
   xmlns:svg="http://www.w3.org/2000/svg"
   xmlns="http://www.w3.org/2000/svg"
   id="svg58"
   viewBox="0 0 2650.49 415.28998"
   height="415.28998mm"
   width="2650.49mm"
   version="1.1">
  <metadata
     id="metadata62">
    <rdf:RDF>
      <cc:Work
         rdf:about="">
        <dc:format>image/svg+xml</dc:format>
        <dc:type
           rdf:resource="http://purl.org/dc/dcmitype/StillImage" />
        <dc:title></dc:title>
      </cc:Work>
    </rdf:RDF>
  </metadata>
  <!-- Working space 0 0 210 297 -->
  <defs
     id="defs12">
    <radialGradient
       r="19.570999"
       gradientTransform="matrix(0.14777,0.23089,-0.2468,0.15795,-26.318,-62.617)"
       cx="282.64999"
       cy="29.149"
       gradientUnits="userSpaceOnUse"
       id="radialGradient3661">
      <stop
         id="stop2"
         offset="0"
         stop-color="#71b2f8" />
      <stop
         id="stop4"
         offset="1"
         stop-color="#002795" />
    </radialGradient>
    <radialGradient
       r="19.570999"
       gradientTransform="matrix(0.26631,0.065024,-0.17931,0.73438,-60.668,-36.938)"
       cx="270.57999"
       cy="33.900002"
       gradientUnits="userSpaceOnUse"
       id="radialGradient3817">
      <stop
         id="stop7"
         offset="0"
         stop-color="#ff6d0f" />
      <stop
         id="stop9"
         offset="1"
         stop-color="#ff1000" />
    </radialGradient>
  </defs>
  <!-- Set display:none to hide FreeCAD Logo -->
  <g
     transform="matrix(0,-25.4,25.4,0,1325.245,-2027.555)"
     id="Ortho_0_0">
    <g
       style="fill:none;stroke:#000000;stroke-width:0.34999999;stroke-linecap:butt;stroke-linejoin:miter"
       id="g55"
       transform="scale(1,-1)">
      <path
         d="m -80,-17 -5,5"
         id="1" />
      <path
         d="m -85,-12 h -8"
         id="2" />
      <path
         d="m -93,-12 v -8"
         id="3" />
      <path
         d="m -93,-20 h -3"
         id="4" />
      <path
         d="m -96,-20 v -8"
         id="5" />
      <path
         d="m -96,-28 h 3"
         id="6" />
      <path
         d="m -93,-28 v -8"
         id="7" />
      <path
         d="m -93,-36 h -3"
         id="8" />
      <path
         d="m -96,-36 v -8"
         id="9" />
      <path
         d="m -96,-44 h 3"
         id="10" />
      <path
         d="m -93,-44 v -8"
         id="11" />
      <path
         d="m -93,-52 h 8"
         id="12" />
      <path
         d="m -85,-52 5,5"
         id="13" />
      <path
         d="m -80,-47 v 30"
         id="14" />
      <circle
         id="circle33"
         r="0.5"
         cy="-20"
         cx="-82" />
      <circle
         id="circle35"
         r="0.5"
         cy="-44"
         cx="-82" />
      <path
         d="m -80,17 -5,-5"
         id="17" />
      <path
         d="m -85,12 h -8"
         id="18" />
      <path
         d="m -93,12 v 8"
         id="19" />
      <path
         d="m -93,20 h -3"
         id="20" />
      <path
         d="m -96,20 v 8"
         id="21" />
      <path
         d="m -96,28 h 3"
         id="22" />
      <path
         d="m -93,28 v 8"
         id="23" />
      <path
         d="m -93,36 h -3"
         id="24" />
      <path
         d="m -96,36 v 8"
         id="25" />
      <path
         d="m -96,44 h 3"
         id="26" />
      <path
         d="m -93,44 v 8"
         id="27" />
      <path
         d="m -93,52 h 8"
         id="28" />
      <path
         d="m -85,52 5,-5"
         id="29" />
      <path
         d="M -80,47 V 17"
         id="30" />
      <circle
         id="circle51"
         r="0.5"
         cy="20"
         cx="-82" />
      <circle
         id="circle53"
         r="0.5"
         cy="44"
         cx="-82" />
    </g>
  </g>
</svg>
