999
dxfrw 0.6.3
  0
SECTION
  2
HEADER
  9
$ACADVER
  1
AC1021
  9
$DWGCODEPAGE
  3
ANSI_1252
  9
$INSBASE
 10
0
 20
0
 30
0
  9
$EXTMIN
 10
-8.107692304233142e-06
 20
-2.812920835149057e-17
 30
0
  9
$EXTMAX
 10
26.35007093030766
 20
71.34797401750757
 30
0
  9
$LIMMIN
 10
0
 20
0
  9
$LIMMAX
 10
420
 20
297
  9
$ORTHOMODE
 70
    0
  9
$REGENMODE
 70
    1
  9
$FILLMODE
 70
    0
  9
$QTEXTMODE
 70
    0
  9
$MIRRTEXT
 70
    0
  9
$LTSCALE
 40
1
  9
$ATTMODE
 70
    0
  9
$TEXTSIZE
 40
2.5
  9
$TRACEWID
 40
15.68
  9
$TEXTSTYLE
  7
STANDARD
  9
$CLAYER
  8
0
  9
$CELTYPE
  6
BYLAYER
  9
$CECOLOR
 62
  256
  9
$CELTSCALE
 40
1
  9
$DISPSILH
 70
    0
  9
$DIMSCALE
 40
1
  9
$DIMASZ
 40
2.5
  9
$DIMEXO
 40
0.625
  9
$DIMDLI
 40
3.75
  9
$DIMRND
 40
0
  9
$DIMDLE
 40
0
  9
$DIMEXE
 40
1.25
  9
$DIMTP
 40
0
  9
$DIMTM
 40
0
  9
$DIMTXT
 40
2.5
  9
$DIMCEN
 40
2.5
  9
$DIMTSZ
 40
0
  9
$DIMTOL
 70
    0
  9
$DIMLIM
 70
    0
  9
$DIMTIH
 70
    0
  9
$DIMTOH
 70
    0
  9
$DIMSE1
 70
    0
  9
$DIMSE2
 70
    0
  9
$DIMTAD
 70
    1
  9
$DIMZIN
 70
    8
  9
$DIMBLK
  1

  9
$DIMASO
 70
    1
  9
$DIMSHO
 70
    1
  9
$DIMPOST
  1

  9
$DIMAPOST
  1

  9
$DIMALT
 70
    0
  9
$DIMALTD
 70
    3
  9
$DIMALTF
 40
0.03937
  9
$DIMLFAC
 40
1
  9
$DIMTOFL
 70
    1
  9
$DIMTVP
 40
0
  9
$DIMTIX
 70
    0
  9
$DIMSOXD
 70
    0
  9
$DIMSAH
 70
    0
  9
$DIMBLK1
  1

  9
$DIMBLK2
  1

  9
$DIMSTYLE
  2
Standard
  9
$DIMCLRD
 70
    0
  9
$DIMCLRE
 70
    0
  9
$DIMCLRT
 70
    0
  9
$DIMTFAC
 40
1
  9
$DIMGAP
 40
0.625
  9
$DIMJUST
 70
    0
  9
$DIMSD1
 70
    0
  9
$DIMSD2
 70
    0
  9
$DIMTOLJ
 70
    0
  9
$DIMTZIN
 70
    8
  9
$DIMALTZ
 70
    0
  9
$DIMALTTZ
 70
    0
  9
$DIMUPT
 70
    0
  9
$DIMDEC
 70
    2
  9
$DIMTDEC
 70
    2
  9
$DIMALTU
 70
    2
  9
$DIMALTTD
 70
    3
  9
$DIMTXSTY
  7
STANDARD
  9
$DIMAUNIT
 70
    0
  9
$DIMADEC
 70
    0
  9
$DIMALTRND
 40
0
  9
$DIMAZIN
 70
    0
  9
$DIMDSEP
 70
   44
  9
$DIMATFIT
 70
    3
  9
$DIMFRAC
 70
    0
  9
$DIMLDRBLK
  1
STANDARD
  9
$DIMLUNIT
 70
    2
  9
$DIMLWD
 70
   -2
  9
$DIMLWE
 70
   -2
  9
$DIMTMOVE
 70
    0
  9
$DIMFXL
 40
1
  9
$DIMFXLON
 70
    0
  9
$DIMJOGANG
 40
0.7854
  9
$DIMTFILL
 70
    0
  9
$DIMTFILLCLR
 70
    0
  9
$DIMARCSYM
 70
    0
  9
$DIMLTYPE
  6

  9
$DIMLTEX1
  6

  9
$DIMLTEX2
  6

  9
$LUNITS
 70
    2
  9
$LUPREC
 70
    4
  9
$SKETCHINC
 40
1
  9
$FILLETRAD
 40
0
  9
$AUNITS
 70
    0
  9
$AUPREC
 70
    2
  9
$MENU
  1
.
  9
$ELEVATION
 40
0
  9
$PELEVATION
 40
0
  9
$THICKNESS
 40
0
  9
$LIMCHECK
 70
    0
  9
$CHAMFERA
 40
0
  9
$CHAMFERB
 40
0
  9
$CHAMFERC
 40
0
  9
$CHAMFERD
 40
0
  9
$SKPOLY
 70
    0
  9
$USRTIMER
 70
    1
  9
$ANGBASE
 50
0
  9
$ANGDIR
 70
    0
  9
$PDMODE
 70
   34
  9
$PDSIZE
 40
0
  9
$PLINEWID
 40
0
  9
$SPLFRAME
 70
    1
  9
$SPLINETYPE
 70
    2
  9
$SPLINESEGS
 70
    8
  9
$HANDSEED
  5
20000
  9
$SURFTAB1
 70
    6
  9
$SURFTAB2
 70
    6
  9
$SURFTYPE
 70
    6
  9
$SURFU
 70
    6
  9
$SURFV
 70
    6
  9
$UCSBASE
  2

  9
$UCSNAME
  2

  9
$UCSORG
 10
0
 20
0
 30
0
  9
$UCSXDIR
 10
1
 20
0
 30
0
  9
$UCSYDIR
 10
0
 20
1
 30
0
  9
$UCSORTHOREF
  2

  9
$UCSORTHOVIEW
 70
    0
  9
$UCSORGTOP
 10
0
 20
0
 30
0
  9
$UCSORGBOTTOM
 10
0
 20
0
 30
0
  9
$UCSORGLEFT
 10
0
 20
0
 30
0
  9
$UCSORGRIGHT
 10
0
 20
0
 30
0
  9
$UCSORGFRONT
 10
0
 20
0
 30
0
  9
$UCSORGBACK
 10
0
 20
0
 30
0
  9
$PUCSBASE
  2

  9
$PUCSNAME
  2

  9
$PUCSORG
 10
0
 20
0
 30
0
  9
$PUCSXDIR
 10
1
 20
0
 30
0
  9
$PUCSYDIR
 10
0
 20
1
 30
0
  9
$PUCSORTHOREF
  2

  9
$PUCSORTHOVIEW
 70
    0
  9
$PUCSORGTOP
 10
0
 20
0
 30
0
  9
$PUCSORGBOTTOM
 10
0
 20
0
 30
0
  9
$PUCSORGLEFT
 10
0
 20
0
 30
0
  9
$PUCSORGRIGHT
 10
0
 20
0
 30
0
  9
$PUCSORGFRONT
 10
0
 20
0
 30
0
  9
$PUCSORGBACK
 10
0
 20
0
 30
0
  9
$USERI1
 70
    0
  9
$USERI2
 70
    0
  9
$USERI3
 70
    0
  9
$USERI4
 70
    0
  9
$USERI5
 70
    0
  9
$USERR1
 40
0
  9
$USERR2
 40
0
  9
$USERR3
 40
0
  9
$USERR4
 40
0
  9
$USERR5
 40
0
  9
$WORLDVIEW
 70
    1
  9
$SHADEDGE
 70
    3
  9
$SHADEDIF
 70
   70
  9
$TILEMODE
 70
    1
  9
$MAXACTVP
 70
   64
  9
$PINSBASE
 10
0
 20
0
 30
0
  9
$PLIMCHECK
 70
    0
  9
$PEXTMIN
 10
0
 20
0
 30
0
  9
$PEXTMAX
 10
0
 20
0
 30
0
  9
$GRIDMODE
 70
    1
  9
$SNAPSTYLE
 70
    0
  9
$PLIMMIN
 10
0
 20
0
  9
$PLIMMAX
 10
8.26771653543307
 20
11.6929133858268
  9
$UNITMODE
 70
    0
  9
$VISRETAIN
 70
    1
  9
$PLINEGEN
 70
    0
  9
$PSLTSCALE
 70
    1
  9
$TREEDEPTH
 70
 3020
  9
$CMLSTYLE
  2
Standard
  9
$CMLJUST
 70
    0
  9
$CMLSCALE
 40
20
  9
$PROXYGRAPHICS
 70
    1
  9
$MEASUREMENT
 70
    1
  9
$CELWEIGHT
370
   -1
  9
$ENDCAPS
280
    0
  9
$JOINSTYLE
280
    0
  9
$LWDISPLAY
290
    0
  9
$INSUNITS
 70
    4
  9
$HYPERLINKBASE
  1

  9
$STYLESHEET
  1

  9
$XEDIT
290
    1
  9
$CEPSNTYPE
380
    0
  9
$PSTYLEMODE
290
    1
  9
$EXTNAMES
290
    1
  9
$PSVPSCALE
 40
1
  9
$OLESTARTUP
290
    0
  9
$SORTENTS
280
  127
  9
$INDEXCTL
280
    0
  9
$HIDETEXT
280
    1
  9
$XCLIPFRAME
290
    0
  9
$HALOGAP
280
    0
  9
$OBSCOLOR
 70
  257
  9
$OBSLTYPE
280
    0
  9
$INTERSECTIONDISPLAY
280
    0
  9
$INTERSECTIONCOLOR
 70
  257
  9
$DIMASSOC
280
    1
  9
$PROJECTNAME
  1

  9
$CAMERADISPLAY
290
    0
  9
$LENSLENGTH
 40
50
  9
$CAMERAHEIGHT
 40
0
  9
$STEPSPERSEC
 40
2
  9
$STEPSIZE
 40
50
  9
$3DDWFPREC
 40
2
  9
$PSOLWIDTH
 40
5
  9
$PSOLHEIGHT
 40
80
  9
$LOFTANG1
 40
1.570796326794897
  9
$LOFTANG2
 40
1.570796326794897
  9
$LOFTMAG1
 40
0
  9
$LOFTMAG2
 40
0
  9
$LOFTPARAM
 70
    7
  9
$LOFTNORMALS
280
    1
  9
$LATITUDE
 40
1
  9
$LONGITUDE
 40
1
  9
$NORTHDIRECTION
 40
0
  9
$TIMEZONE
 70
-8000
  9
$LIGHTGLYPHDISPLAY
280
    1
  9
$TILEMODELIGHTSYNCH
280
    1
  9
$SOLIDHIST
280
    1
  9
$SHOWHIST
280
    1
  9
$DWFFRAME
280
    2
  9
$DGNFRAME
280
    0
  9
$REALWORLDSCALE
290
    1
  9
$INTERFERECOLOR
 62
    1
  9
$CSHADOW
280
    0
  9
$SHADOWPLANELOCATION
 40
0
  0
ENDSEC
  0
SECTION
  2
CLASSES
  0
ENDSEC
  0
SECTION
  2
TABLES
  0
TABLE
  2
VPORT
  5
8
330
0
100
AcDbSymbolTable
 70
    1
  0
VPORT
  5
31
330
2
100
AcDbSymbolTableRecord
100
AcDbViewportTableRecord
  2
*ACTIVE
 70
    0
 10
0
 20
0
 11
1
 21
1
 12
43.45473314646551
 22
36.40801966325489
 13
0
 23
0
 14
10
 24
10
 15
10
 25
10
 16
0
 26
0
 36
1
 17
0
 27
0
 37
0
 40
74.28410463551199
 41
1.984189723320158
 42
50
 43
0
 44
0
 50
0
 51
0
 71
    0
 72
  100
 73
    1
 74
    3
 75
    0
 76
    1
 77
    0
 78
    0
281
    0
 65
    1
110
0
120
0
130
0
111
1
121
0
131
0
112
0
122
1
132
0
 79
    0
146
0
348
10020
 60
    7
 61
    5
292
1
282
    1
141
0
142
0
 63
  250
421
3358443
  0
ENDTAB
  0
TABLE
  2
LTYPE
  5
5
330
0
100
AcDbSymbolTable
 70
    4
  0
LTYPE
  5
14
330
5
100
AcDbSymbolTableRecord
100
AcDbLinetypeTableRecord
  2
ByBlock
 70
    0
  3

 72
   65
 73
    0
 40
0
  0
LTYPE
  5
15
330
5
100
AcDbSymbolTableRecord
100
AcDbLinetypeTableRecord
  2
ByLayer
 70
    0
  3

 72
   65
 73
    0
 40
0
  0
LTYPE
  5
16
330
5
100
AcDbSymbolTableRecord
100
AcDbLinetypeTableRecord
  2
Continuous
 70
    0
  3
Solid line
 72
   65
 73
    0
 40
0
  0
LTYPE
  5
32
330
5
100
AcDbSymbolTableRecord
100
AcDbLinetypeTableRecord
  2
DOT
 70
    0
  3
Dot . . . . . . . . . . . . . . . . . . . . . .
 72
   65
 73
    2
 40
6.35
 49
0
 74
    0
 49
-6.35
 74
    0
  0
LTYPE
  5
33
330
5
100
AcDbSymbolTableRecord
100
AcDbLinetypeTableRecord
  2
DOTTINY
 70
    0
  3
Dot (.15x) .....................................
 72
   65
 73
    2
 40
0.9525
 49
0
 74
    0
 49
-0.9525
 74
    0
  0
LTYPE
  5
34
330
5
100
AcDbSymbolTableRecord
100
AcDbLinetypeTableRecord
  2
DOT2
 70
    0
  3
Dot (.5x) .....................................
 72
   65
 73
    2
 40
3.175
 49
0
 74
    0
 49
-3.175
 74
    0
  0
LTYPE
  5
35
330
5
100
AcDbSymbolTableRecord
100
AcDbLinetypeTableRecord
  2
DOTX2
 70
    0
  3
Dot (2x) .  .  .  .  .  .  .  .  .  .  .  .  .
 72
   65
 73
    2
 40
12.7
 49
0
 74
    0
 49
-12.7
 74
    0
  0
LTYPE
  5
36
330
5
100
AcDbSymbolTableRecord
100
AcDbLinetypeTableRecord
  2
DASHED
 70
    0
  3
Dashed _ _ _ _ _ _ _ _ _ _ _ _ _ _ _ _ _
 72
   65
 73
    2
 40
19.05
 49
12.7
 74
    0
 49
-6.35
 74
    0
  0
LTYPE
  5
37
330
5
100
AcDbSymbolTableRecord
100
AcDbLinetypeTableRecord
  2
DASHEDTINY
 70
    0
  3
Dashed (.15x) _ _ _ _ _ _ _ _ _ _ _ _ _ _ _ _ _
 72
   65
 73
    2
 40
2.8575
 49
1.905
 74
    0
 49
-0.9525
 74
    0
  0
LTYPE
  5
38
330
5
100
AcDbSymbolTableRecord
100
AcDbLinetypeTableRecord
  2
DASHED2
 70
    0
  3
Dashed (.5x) _ _ _ _ _ _ _ _ _ _ _ _ _ _ _ _ _
 72
   65
 73
    2
 40
9.524999999999999
 49
6.35
 74
    0
 49
-3.175
 74
    0
  0
LTYPE
  5
39
330
5
100
AcDbSymbolTableRecord
100
AcDbLinetypeTableRecord
  2
DASHEDX2
 70
    0
  3
Dashed (2x) ____  ____  ____  ____  ____  ___
 72
   65
 73
    2
 40
38.09999999999999
 49
25.4
 74
    0
 49
-12.7
 74
    0
  0
LTYPE
  5
3A
330
5
100
AcDbSymbolTableRecord
100
AcDbLinetypeTableRecord
  2
DASHDOT
 70
    0
  3
Dash dot __ . __ . __ . __ . __ . __ . __ . __
 72
   65
 73
    4
 40
25.4
 49
12.7
 74
    0
 49
-6.35
 74
    0
 49
0
 74
    0
 49
-6.35
 74
    0
  0
LTYPE
  5
3B
330
5
100
AcDbSymbolTableRecord
100
AcDbLinetypeTableRecord
  2
DASHDOTTINY
 70
    0
  3
Dash dot (.15x) _._._._._._._._._._._._._._._.
 72
   65
 73
    4
 40
3.81
 49
1.905
 74
    0
 49
-0.9525
 74
    0
 49
0
 74
    0
 49
-0.9525
 74
    0
  0
LTYPE
  5
3C
330
5
100
AcDbSymbolTableRecord
100
AcDbLinetypeTableRecord
  2
DASHDOT2
 70
    0
  3
Dash dot (.5x) _._._._._._._._._._._._._._._.
 72
   65
 73
    4
 40
12.7
 49
6.35
 74
    0
 49
-3.175
 74
    0
 49
0
 74
    0
 49
-3.175
 74
    0
  0
LTYPE
  5
3D
330
5
100
AcDbSymbolTableRecord
100
AcDbLinetypeTableRecord
  2
DASHDOTX2
 70
    0
  3
Dash dot (2x) ____  .  ____  .  ____  .  ___
 72
   65
 73
    4
 40
50.8
 49
25.4
 74
    0
 49
-12.7
 74
    0
 49
0
 74
    0
 49
-12.7
 74
    0
  0
LTYPE
  5
3E
330
5
100
AcDbSymbolTableRecord
100
AcDbLinetypeTableRecord
  2
DIVIDE
 70
    0
  3
Divide ____ . . ____ . . ____ . . ____ . . ____
 72
   65
 73
    6
 40
31.75
 49
12.7
 74
    0
 49
-6.35
 74
    0
 49
0
 74
    0
 49
-6.35
 74
    0
 49
0
 74
    0
 49
-6.35
 74
    0
  0
LTYPE
  5
3F
330
5
100
AcDbSymbolTableRecord
100
AcDbLinetypeTableRecord
  2
DIVIDETINY
 70
    0
  3
Divide (.15x) __..__..__..__..__..__..__..__.._
 72
   65
 73
    6
 40
4.7625
 49
1.905
 74
    0
 49
-0.9525
 74
    0
 49
0
 74
    0
 49
-0.9525
 74
    0
 49
0
 74
    0
 49
-0.9525
 74
    0
  0
LTYPE
  5
40
330
5
100
AcDbSymbolTableRecord
100
AcDbLinetypeTableRecord
  2
DIVIDE2
 70
    0
  3
Divide (.5x) __..__..__..__..__..__..__..__.._
 72
   65
 73
    6
 40
15.875
 49
6.35
 74
    0
 49
-3.175
 74
    0
 49
0
 74
    0
 49
-3.175
 74
    0
 49
0
 74
    0
 49
-3.175
 74
    0
  0
LTYPE
  5
41
330
5
100
AcDbSymbolTableRecord
100
AcDbLinetypeTableRecord
  2
DIVIDEX2
 70
    0
  3
Divide (2x) ________  .  .  ________  .  .  _
 72
   65
 73
    6
 40
63.5
 49
25.4
 74
    0
 49
-12.7
 74
    0
 49
0
 74
    0
 49
-12.7
 74
    0
 49
0
 74
    0
 49
-12.7
 74
    0
  0
LTYPE
  5
42
330
5
100
AcDbSymbolTableRecord
100
AcDbLinetypeTableRecord
  2
BORDER
 70
    0
  3
Border __ __ . __ __ . __ __ . __ __ . __ __ .
 72
   65
 73
    6
 40
44.45
 49
12.7
 74
    0
 49
-6.35
 74
    0
 49
12.7
 74
    0
 49
-6.35
 74
    0
 49
0
 74
    0
 49
-6.35
 74
    0
  0
LTYPE
  5
43
330
5
100
AcDbSymbolTableRecord
100
AcDbLinetypeTableRecord
  2
BORDERTINY
 70
    0
  3
Border (.15x) __.__.__.__.__.__.__.__.__.__.__.
 72
   65
 73
    6
 40
6.6675
 49
1.905
 74
    0
 49
-0.9525
 74
    0
 49
1.905
 74
    0
 49
-0.9525
 74
    0
 49
0
 74
    0
 49
-0.9525
 74
    0
  0
LTYPE
  5
44
330
5
100
AcDbSymbolTableRecord
100
AcDbLinetypeTableRecord
  2
BORDER2
 70
    0
  3
Border (.5x) __.__.__.__.__.__.__.__.__.__.__.
 72
   65
 73
    6
 40
22.225
 49
6.35
 74
    0
 49
-3.175
 74
    0
 49
6.35
 74
    0
 49
-3.175
 74
    0
 49
0
 74
    0
 49
-3.175
 74
    0
  0
LTYPE
  5
45
330
5
100
AcDbSymbolTableRecord
100
AcDbLinetypeTableRecord
  2
BORDERX2
 70
    0
  3
Border (2x) ____  ____  .  ____  ____  .  ___
 72
   65
 73
    6
 40
88.89999999999999
 49
25.4
 74
    0
 49
-12.7
 74
    0
 49
25.4
 74
    0
 49
-12.7
 74
    0
 49
0
 74
    0
 49
-12.7
 74
    0
  0
LTYPE
  5
46
330
5
100
AcDbSymbolTableRecord
100
AcDbLinetypeTableRecord
  2
CENTER
 70
    0
  3
Center ____ _ ____ _ ____ _ ____ _ ____ _ ____
 72
   65
 73
    4
 40
50.8
 49
31.75
 74
    0
 49
-6.35
 74
    0
 49
6.35
 74
    0
 49
-6.35
 74
    0
  0
LTYPE
  5
47
330
5
100
AcDbSymbolTableRecord
100
AcDbLinetypeTableRecord
  2
CENTERTINY
 70
    0
  3
Center (.15x) ___ _ ___ _ ___ _ ___ _ ___ _ ___
 72
   65
 73
    4
 40
7.619999999999999
 49
4.7625
 74
    0
 49
-0.9525
 74
    0
 49
0.9525
 74
    0
 49
-0.9525
 74
    0
  0
LTYPE
  5
48
330
5
100
AcDbSymbolTableRecord
100
AcDbLinetypeTableRecord
  2
CENTER2
 70
    0
  3
Center (.5x) ___ _ ___ _ ___ _ ___ _ ___ _ ___
 72
   65
 73
    4
 40
28.575
 49
19.05
 74
    0
 49
-3.175
 74
    0
 49
3.175
 74
    0
 49
-3.175
 74
    0
  0
LTYPE
  5
49
330
5
100
AcDbSymbolTableRecord
100
AcDbLinetypeTableRecord
  2
CENTERX2
 70
    0
  3
Center (2x) ________  __  ________  __  _____
 72
   65
 73
    4
 40
101.6
 49
63.5
 74
    0
 49
-12.7
 74
    0
 49
12.7
 74
    0
 49
-12.7
 74
    0
  0
ENDTAB
  0
TABLE
  2
LAYER
  5
2
330
0
100
AcDbSymbolTable
 70
    1
  0
LAYER
  5
10
330
2
100
AcDbSymbolTableRecord
100
AcDbLayerTableRecord
  2
0
 70
    0
 62
    7
  6
CONTINUOUS
370
   -3
390
F
  0
ENDTAB
  0
TABLE
  2
STYLE
  5
3
330
0
100
AcDbSymbolTable
 70
    3
  0
STYLE
  5
4A
330
2
100
AcDbSymbolTableRecord
100
AcDbTextStyleTableRecord
  2
Standard
 70
    0
 40
0
 41
1
 50
0
 71
    0
 42
1
  3
txt
  4

  0
ENDTAB
  0
TABLE
  2
VIEW
  5
6
330
0
100
AcDbSymbolTable
 70
    0
  0
ENDTAB
  0
TABLE
  2
UCS
  5
7
330
0
100
AcDbSymbolTable
 70
    0
  0
ENDTAB
  0
TABLE
  2
APPID
  5
9
330
0
100
AcDbSymbolTable
 70
    1
  0
APPID
  5
12
330
9
100
AcDbSymbolTableRecord
100
AcDbRegAppTableRecord
  2
ACAD
 70
    0
  0
APPID
  5
4B
330
9
100
AcDbSymbolTableRecord
100
AcDbRegAppTableRecord
  2
LibreCad
 70
    0
  0
ENDTAB
  0
TABLE
  2
DIMSTYLE
  5
A
330
0
100
AcDbSymbolTable
 70
    1
100
AcDbDimStyleTable
 71
    1
  0
DIMSTYLE
105
4C
330
A
100
AcDbSymbolTableRecord
100
AcDbDimStyleTableRecord
  2
Standard
 70
    0
 40
1
 41
2.5
 42
0.625
 43
0.38
 44
1.25
 45
0
 46
0
 47
0
 48
0
 49
1
140
2.5
141
0.09
142
0
143
25.4
144
1
145
0
146
1
147
0.625
148
0
 71
    0
 72
    0
 73
    0
 74
    1
 75
    0
 76
    0
 77
    0
 78
    8
 79
    0
170
    0
171
    2
172
    0
173
    0
174
    0
175
    0
176
    0
177
    0
178
    0
179
    0
271
    2
272
    4
273
    2
274
    2
275
    0
276
    0
277
    2
278
   44
279
    0
280
    0
281
    0
282
    0
283
    1
284
    0
285
    0
286
    0
288
    0
289
    3
340
STANDARD
341

371
   -2
372
   -2
  0
ENDTAB
  0
TABLE
  2
BLOCK_RECORD
  5
1
330
0
100
AcDbSymbolTable
 70
    2
  0
BLOCK_RECORD
  5
1F
330
1
100
AcDbSymbolTableRecord
100
AcDbBlockTableRecord
  2
*Model_Space
 70
    0
280
    1
281
    0
  0
BLOCK_RECORD
  5
1E
330
1
100
AcDbSymbolTableRecord
100
AcDbBlockTableRecord
  2
*Paper_Space
 70
    0
280
    1
281
    0
  0
ENDTAB
  0
ENDSEC
  0
SECTION
  2
BLOCKS
  0
BLOCK
  5
20
330
1F
100
AcDbEntity
  8
0
100
AcDbBlockBegin
  2
*Model_Space
 70
    0
 10
0
 20
0
 30
0
  3
*Model_Space
  1

  0
ENDBLK
  5
21
330
1F
100
AcDbEntity
  8
0
100
AcDbBlockEnd
  0
BLOCK
  5
1C
330
1B
100
AcDbEntity
  8
0
100
AcDbBlockBegin
  2
*Paper_Space
 70
    0
 10
0
 20
0
 30
0
  3
*Paper_Space
  1

  0
ENDBLK
  5
1D
330
1F
100
AcDbEntity
  8
0
100
AcDbBlockEnd
  0
ENDSEC
  0
SECTION
  2
ENTITIES
  0
LWPOLYLINE
  5
4D
100
AcDbEntity
  8
0
  6
ByLayer
 62
    0
370
   -1
100
AcDbPolyline
 90
    2
 70
    0
 43
0
 10
3.040384614
 20
56.14605094750757
 10
23.30968631630766
 20
56.14605094750757
  0
LWPOLYLINE
  5
4E
100
AcDbEntity
  8
0
  6
ByLayer
 62
    0
370
   -1
100
AcDbPolyline
 90
    2
 70
    0
 43
0
 10
23.30968631630766
 20
56.14605094750757
 10
23.30968631630766
 20
61.21335863750757
  0
LWPOLYLINE
  5
4F
100
AcDbEntity
  8
0
  6
ByLayer
 62
    0
370
   -1
100
AcDbPolyline
 90
    2
 70
    0
 43
0
 10
23.30968631630766
 20
61.21335863750757
 10
26.35007093030766
 20
61.21335863750757
  0
LWPOLYLINE
  5
50
100
AcDbEntity
  8
0
  6
ByLayer
 62
    0
370
   -1
100
AcDbPolyline
 90
    2
 70
    0
 43
0
 10
26.35007093030766
 20
61.21335863750757
 10
26.35007093030766
 20
66.28066632750756
  0
LWPOLYLINE
  5
51
100
AcDbEntity
  8
0
  6
ByLayer
 62
    0
370
   -1
100
AcDbPolyline
 90
    2
 70
    0
 43
0
 10
26.35007093030766
 20
66.28066632750756
 10
23.30968631630766
 20
66.28066632750756
  0
LWPOLYLINE
  5
52
100
AcDbEntity
  8
0
  6
ByLayer
 62
    0
370
   -1
100
AcDbPolyline
 90
    2
 70
    0
 43
0
 10
23.30968631630766
 20
66.28066632750756
 10
23.30968631630766
 20
71.34797401750757
  0
LWPOLYLINE
  5
53
100
AcDbEntity
  8
0
  6
ByLayer
 62
    0
370
   -1
100
AcDbPolyline
 90
    2
 70
    0
 43
0
 10
23.30968631630766
 20
71.34797401750757
 10
3.040384614
 20
71.34797401750757
  0
LWPOLYLINE
  5
54
100
AcDbEntity
  8
0
  6
ByLayer
 62
    0
370
   -1
100
AcDbPolyline
 90
    2
 70
    0
 43
0
 10
3.040384614
 20
66.28066632750756
 10
3.040384614
 20
71.34797401750757
  0
LWPOLYLINE
  5
55
100
AcDbEntity
  8
0
  6
ByLayer
 62
    0
370
   -1
100
AcDbPolyline
 90
    2
 70
    0
 43
0
 10
3.040384614
 20
66.28066632750756
 10
-8.107692304233142e-06
 20
66.28066632750756
  0
LWPOLYLINE
  5
56
100
AcDbEntity
  8
0
  6
ByLayer
 62
    0
370
   -1
100
AcDbPolyline
 90
    2
 70
    0
 43
0
 10
-8.107692304233142e-06
 20
66.28066632750756
 10
-8.107692304233142e-06
 20
61.21335863750757
  0
LWPOLYLINE
  5
57
100
AcDbEntity
  8
0
  6
ByLayer
 62
    0
370
   -1
100
AcDbPolyline
 90
    2
 70
    0
 43
0
 10
-8.107692304233142e-06
 20
61.21335863750757
 10
3.040384614
 20
61.21335863750757
  0
LWPOLYLINE
  5
58
100
AcDbEntity
  8
0
  6
ByLayer
 62
    0
370
   -1
100
AcDbPolyline
 90
    2
 70
    0
 43
0
 10
3.040384614
 20
56.14605094750757
 10
3.040384614
 20
61.21335863750757
  0
LWPOLYLINE
  5
59
100
AcDbEntity
  8
0
  6
ByLayer
 62
    0
370
   -1
100
AcDbPolyline
 90
   65
 70
    1
 43
0
 10
18.89099401062766
 20
60.30124325330757
 10
18.73552901069846
 20
60.29343959946497
 10
18.58462458769026
 20
60.27043402255237
 10
18.43888881852586
 20
60.23293594564637
 10
18.29913247243566
 20
60.18185748413116
 10
18.16636901095766
 20
60.11780671492956
 10
18.04100381870706
 20
60.04169575342576
 10
17.92405035722186
 20
59.95413267654257
 10
17.81601535727106
 20
59.85602959966417
 10
17.71791228039266
 20
59.74799459971337
 10
17.63045054966326
 20
59.63104113822816
 10
17.55423824200566
 20
59.50567594597756
 10
17.49018747280406
 20
59.37281113834577
 10
17.43910901128886
 20
59.23315613840937
 10
17.40171228053666
 20
59.08742036924497
 10
17.37860535747026
 20
58.93641460008297
 10
17.37080170362766
 20
58.78105094630757
 10
17.37860535747026
 20
58.62558594637837
 10
17.40171228053666
 20
58.47478286952397
 10
17.43910901128886
 20
58.32904710035956
 10
17.49018747280406
 20
58.18929075426937
 10
17.55423824200566
 20
58.05642594663757
 10
17.63045054966326
 20
57.93116210054077
 10
17.71791228039266
 20
57.81400594674797
 10
17.81601535727106
 20
57.70607229295096
 10
17.92405035722186
 20
57.60796921607257
 10
18.04100381870706
 20
57.52050748534317
 10
18.16636901095766
 20
57.44439652383937
 10
18.29913247243566
 20
57.38034575463777
 10
18.43888881852586
 20
57.32926729312256
 10
18.58462458769026
 20
57.29166787006277
 10
18.73552901069846
 20
57.26876363930396
 10
18.89099401062766
 20
57.26085863930757
 10
19.04645901055686
 20
57.26876363930396
 10
19.19736343356506
 20
57.29166787006277
 10
19.34299785657566
 20
57.32926729312256
 10
19.48265285651206
 20
57.38034575463777
 10
19.61551766414386
 20
57.44439652383937
 10
19.74088285639446
 20
57.52050748534317
 10
19.85793766403346
 20
57.60796921607257
 10
19.96587131783046
 20
57.70607229295096
 10
20.06397439470886
 20
57.81400594674797
 10
20.15153747159206
 20
57.93116210054077
 10
20.22764843309586
 20
58.05642594663757
 10
20.29169920229746
 20
58.18929075426937
 10
20.34277766381266
 20
58.32904710035956
 10
20.38027574071866
 20
58.47478286952397
 10
20.40338266378506
 20
58.62558594637837
 10
20.41118631762766
 20
58.78105094630757
 10
20.40338266378506
 20
58.93641460008297
 10
20.38027574071866
 20
59.08742036924497
 10
20.34277766381266
 20
59.23315613840937
 10
20.29169920229746
 20
59.37281113834577
 10
20.22764843309586
 20
59.50567594597756
 10
20.15153747159206
 20
59.63104113822816
 10
20.06397439470886
 20
59.74799459971337
 10
19.96587131783046
 20
59.85602959966417
 10
19.85793766403346
 20
59.95413267654257
 10
19.74088285639446
 20
60.04169575342576
 10
19.61551766414386
 20
60.11780671492956
 10
19.48265285651206
 20
60.18185748413116
 10
19.34299785657566
 20
60.23293594564637
 10
19.19736343356506
 20
60.27043402255237
 10
19.04645901055686
 20
60.29343959946497
 10
18.89099401062766
 20
60.30124325330757
  0
LWPOLYLINE
  5
5A
100
AcDbEntity
  8
0
  6
ByLayer
 62
    0
370
   -1
100
AcDbPolyline
 90
   65
 70
    1
 43
0
 10
7.600961535
 20
60.30124325330757
 10
7.44551680430156
 20
60.29343959946497
 10
7.29458197744722
 20
60.27043402255237
 10
7.14886647751358
 20
60.23293594564637
 10
7.00922161219256
 20
60.18185748413116
 10
6.87631626609924
 20
60.11780671492956
 10
6.75096120846402
 20
60.04169575342576
 10
6.63394693928654
 20
59.95413267654257
 10
6.526013285489539
 20
59.85602959966417
 10
6.427879804764999
 20
59.74799459971337
 10
6.340336997112559
 20
59.63104113822816
 10
6.26424630483952
 20
59.50567594597756
 10
6.20018540102254
 20
59.37281113834577
 10
6.14910693950734
 20
59.23315613840937
 10
6.11160886260134
 20
59.08742036924497
 10
6.088562747227219
 20
58.93641460008297
 10
6.080769227999999
 20
58.78105094630757
 10
6.088562747227219
 20
58.62558594637837
 10
6.11160886260134
 20
58.47478286952397
 10
6.14910693950734
 20
58.32904710035956
 10
6.20018540102254
 20
58.18929075426937
 10
6.26424630483952
 20
58.05642594663757
 10
6.340336997112559
 20
57.93116210054077
 10
6.427879804764999
 20
57.81400594674797
 10
6.526013285489539
 20
57.70607229295096
 10
6.63394693928654
 20
57.60796921607257
 10
6.75096120846402
 20
57.52050748534317
 10
6.87631626609924
 20
57.44439652383937
 10
7.00922161219256
 20
57.38034575463777
 10
7.14886647751358
 20
57.32926729312256
 10
7.29458197744722
 20
57.29166787006277
 10
7.44551680430156
 20
57.26876363930396
 10
7.600961535
 20
57.26085863930757
 10
7.756345458006161
 20
57.26876363930396
 10
7.90732082332202
 20
57.29166787006277
 10
8.05297551556338
 20
57.32926729312256
 10
8.192691323192062
 20
57.38034575463777
 10
8.32552572697772
 20
57.44439652383937
 10
8.450890919228318
 20
57.52050748534317
 10
8.567905188405801
 20
57.60796921607257
 10
8.6758895152797
 20
57.70607229295096
 10
8.773982457542722
 20
57.81400594674797
 10
8.861504995964401
 20
57.93116210054077
 10
8.937656495929717
 20
58.05642594663757
 10
9.001656592054418
 20
58.18929075426937
 10
9.052795861261899
 20
58.32904710035956
 10
9.090243265091001
 20
58.47478286952397
 10
9.113279245849739
 20
58.62558594637837
 10
9.121153842
 20
58.78105094630757
 10
9.113279245849739
 20
58.93641460008297
 10
9.090243265091001
 20
59.08742036924497
 10
9.052795861261899
 20
59.23315613840937
 10
9.001656592054418
 20
59.37281113834577
 10
8.937656495929717
 20
59.50567594597756
 10
8.861504995964401
 20
59.63104113822816
 10
8.773982457542722
 20
59.74799459971337
 10
8.6758895152797
 20
59.85602959966417
 10
8.567905188405801
 20
59.95413267654257
 10
8.450890919228318
 20
60.04169575342576
 10
8.32552572697772
 20
60.11780671492956
 10
8.192691323192062
 20
60.18185748413116
 10
8.05297551556338
 20
60.23293594564637
 10
7.90732082332202
 20
60.27043402255237
 10
7.756345458006161
 20
60.29343959946497
 10
7.600961535
 20
60.30124325330757
  0
LWPOLYLINE
  5
5B
100
AcDbEntity
  8
0
  6
ByLayer
 62
    0
370
   -1
100
AcDbPolyline
 90
    2
 70
    0
 43
0
 10
23.30968631630766
 20
-2.812920835149057e-17
 10
23.30968631630766
 20
5.067315797692304
  0
LWPOLYLINE
  5
5C
100
AcDbEntity
  8
0
  6
ByLayer
 62
    0
370
   -1
100
AcDbPolyline
 90
    2
 70
    0
 43
0
 10
23.30968631630766
 20
-2.812920835149057e-17
 10
3.040384614
 20
-2.812920835149057e-17
  0
LWPOLYLINE
  5
5D
100
AcDbEntity
  8
0
  6
ByLayer
 62
    0
370
   -1
100
AcDbPolyline
 90
    2
 70
    0
 43
0
 10
3.040384614
 20
-2.812920835149057e-17
 10
3.040384614
 20
5.067315797692304
  0
LWPOLYLINE
  5
5E
100
AcDbEntity
  8
0
  6
ByLayer
 62
    0
370
   -1
100
AcDbPolyline
 90
    2
 70
    0
 43
0
 10
3.040384614
 20
5.067315797692304
 10
-8.107692304233142e-06
 20
5.067315797692304
  0
LWPOLYLINE
  5
5F
100
AcDbEntity
  8
0
  6
ByLayer
 62
    0
370
   -1
100
AcDbPolyline
 90
    2
 70
    0
 43
0
 10
-8.107692304233142e-06
 20
5.067315797692304
 10
-8.107692304233142e-06
 20
10.13459308384616
  0
LWPOLYLINE
  5
60
100
AcDbEntity
  8
0
  6
ByLayer
 62
    0
370
   -1
100
AcDbPolyline
 90
    2
 70
    0
 43
0
 10
-8.107692304233142e-06
 20
10.13459308384616
 10
3.040384614
 20
10.13459308384616
  0
LWPOLYLINE
  5
61
100
AcDbEntity
  8
0
  6
ByLayer
 62
    0
370
   -1
100
AcDbPolyline
 90
    2
 70
    0
 43
0
 10
3.040384614
 20
10.13459308384616
 10
3.040384614
 20
15.20200211999997
  0
LWPOLYLINE
  5
62
100
AcDbEntity
  8
0
  6
ByLayer
 62
    0
370
   -1
100
AcDbPolyline
 90
    2
 70
    0
 43
0
 10
3.040384614
 20
15.20200211999997
 10
23.30968631630766
 20
15.20200211999997
  0
LWPOLYLINE
  5
63
100
AcDbEntity
  8
0
  6
ByLayer
 62
    0
370
   -1
100
AcDbPolyline
 90
    2
 70
    0
 43
0
 10
23.30968631630766
 20
10.13459308384616
 10
23.30968631630766
 20
15.20200211999997
  0
LWPOLYLINE
  5
64
100
AcDbEntity
  8
0
  6
ByLayer
 62
    0
370
   -1
100
AcDbPolyline
 90
    2
 70
    0
 43
0
 10
26.35007093030766
 20
10.13459308384616
 10
23.30968631630766
 20
10.13459308384616
  0
LWPOLYLINE
  5
65
100
AcDbEntity
  8
0
  6
ByLayer
 62
    0
370
   -1
100
AcDbPolyline
 90
    2
 70
    0
 43
0
 10
26.35007093030766
 20
5.067315797692304
 10
26.35007093030766
 20
10.13459308384616
  0
LWPOLYLINE
  5
66
100
AcDbEntity
  8
0
  6
ByLayer
 62
    0
370
   -1
100
AcDbPolyline
 90
    2
 70
    0
 43
0
 10
23.30968631630766
 20
5.067315797692304
 10
26.35007093030766
 20
5.067315797692304
  0
LWPOLYLINE
  5
67
100
AcDbEntity
  8
0
  6
ByLayer
 62
    0
370
   -1
100
AcDbPolyline
 90
   65
 70
    1
 43
0
 10
7.600961535
 20
13.68180981299997
 10
7.44551680430156
 20
13.67400615915736
 10
7.29458197744722
 20
13.65089923609096
 10
7.14886647751358
 20
13.61340115918496
 10
7.00922161219256
 20
13.56232269766976
 10
6.87631626609924
 20
13.49827192846816
 10
6.75096120846402
 20
13.42216096696436
 10
6.63394693928654
 20
13.33469923623497
 10
6.526013285489539
 20
13.23649481320276
 10
6.427879804764999
 20
13.12856115940576
 10
6.340336997112559
 20
13.01160769792056
 10
6.26424630483952
 20
12.88624250566996
 10
6.20018540102254
 20
12.75337769803816
 10
6.14910693950734
 20
12.61372269810176
 10
6.11160886260134
 20
12.46798692893736
 10
6.088562747227219
 20
12.31698115977536
 10
6.080769227999999
 20
12.16161750599997
 10
6.088562747227219
 20
12.00615250607077
 10
6.11160886260134
 20
11.85524808306256
 10
6.14910693950734
 20
11.70961366005196
 10
6.20018540102254
 20
11.56985731396177
 10
6.26424630483952
 20
11.43699250632996
 10
6.340336997112559
 20
11.31162731407936
 10
6.427879804764999
 20
11.19467385259416
 10
6.526013285489539
 20
11.08663885264336
 10
6.63394693928654
 20
10.98853577576496
 10
6.75096120846402
 20
10.90107404503556
 10
6.87631626609924
 20
10.82486173737796
 10
7.00922161219256
 20
10.76091231433016
 10
7.14886647751358
 20
10.70973250666116
 10
7.29458197744722
 20
10.67233577590896
 10
7.44551680430156
 20
10.64922885284257
 10
7.600961535
 20
10.64142519899996
 10
7.756345458006161
 20
10.64922885284257
 10
7.90732082332202
 20
10.67233577590896
 10
8.05297551556338
 20
10.70973250666116
 10
8.192691323192062
 20
10.76091231433016
 10
8.32552572697772
 20
10.82486173737796
 10
8.450890919228318
 20
10.90107404503556
 10
8.567905188405801
 20
10.98853577576496
 10
8.6758895152797
 20
11.08663885264336
 10
8.773982457542722
 20
11.19467385259416
 10
8.861504995964401
 20
11.31162731407936
 10
8.937656495929717
 20
11.43699250632996
 10
9.001656592054418
 20
11.56985731396177
 10
9.052795861261899
 20
11.70961366005196
 10
9.090243265091001
 20
11.85524808306256
 10
9.113279245849739
 20
12.00615250607077
 10
9.121153842
 20
12.16161750599997
 10
9.113279245849739
 20
12.31698115977536
 10
9.090243265091001
 20
12.46798692893736
 10
9.052795861261899
 20
12.61372269810176
 10
9.001656592054418
 20
12.75337769803816
 10
8.937656495929717
 20
12.88624250566996
 10
8.861504995964401
 20
13.01160769792056
 10
8.773982457542722
 20
13.12856115940576
 10
8.6758895152797
 20
13.23649481320276
 10
8.567905188405801
 20
13.33469923623497
 10
8.450890919228318
 20
13.42216096696436
 10
8.32552572697772
 20
13.49827192846816
 10
8.192691323192062
 20
13.56232269766976
 10
8.05297551556338
 20
13.61340115918496
 10
7.90732082332202
 20
13.65089923609096
 10
7.756345458006161
 20
13.67400615915736
 10
7.600961535
 20
13.68180981299997
  0
LWPOLYLINE
  5
68
100
AcDbEntity
  8
0
  6
ByLayer
 62
    0
370
   -1
100
AcDbPolyline
 90
   65
 70
    1
 43
0
 10
18.74910939530766
 20
13.68180981299997
 10
18.59364439537846
 20
13.67400615915736
 10
18.44273997237026
 20
13.65089923609096
 10
18.29700420320586
 20
13.61340115918496
 10
18.15734920326946
 20
13.56232269766976
 10
18.02448439563766
 20
13.49827192846816
 10
17.89911920338706
 20
13.42216096696436
 10
17.78216574190186
 20
13.33469923623497
 10
17.67413074195106
 20
13.23649481320276
 10
17.57602766507266
 20
13.12856115940576
 10
17.48856593434326
 20
13.01160769792056
 10
17.41235362668566
 20
12.88624250566996
 10
17.34830285748406
 20
12.75337769803816
 10
17.29722439596886
 20
12.61372269810176
 10
17.25982766521666
 20
12.46798692893736
 10
17.23672074215026
 20
12.31698115977536
 10
17.22891708830766
 20
12.16161750599997
 10
17.23672074215026
 20
12.00615250607077
 10
17.25982766521666
 20
11.85524808306256
 10
17.29722439596886
 20
11.70961366005196
 10
17.34830285748406
 20
11.56985731396177
 10
17.41235362668566
 20
11.43699250632996
 10
17.48856593434326
 20
11.31162731407936
 10
17.57602766507266
 20
11.19467385259416
 10
17.67413074195106
 20
11.08663885264336
 10
17.78216574190186
 20
10.98853577576496
 10
17.89911920338706
 20
10.90107404503556
 10
18.02448439563766
 20
10.82486173737796
 10
18.15734920326946
 20
10.76091231433016
 10
18.29700420320586
 20
10.70973250666116
 10
18.44273997237026
 20
10.67233577590896
 10
18.59364439537846
 20
10.64922885284257
 10
18.74910939530766
 20
10.64142519899996
 10
18.90437170292926
 20
10.64922885284257
 10
19.05547881824506
 20
10.67233577590896
 10
19.20111324125566
 20
10.70973250666116
 10
19.34076824119206
 20
10.76091231433016
 10
19.47363304882386
 20
10.82486173737796
 10
19.59909958722826
 20
10.90107404503556
 10
19.71605304871346
 20
10.98853577576496
 10
19.82398670251046
 20
11.08663885264336
 10
19.92208977938886
 20
11.19467385259416
 10
20.00965285627206
 20
11.31162731407936
 10
20.08576381777586
 20
11.43699250632996
 10
20.14981458697746
 20
11.56985731396177
 10
20.20089304849266
 20
11.70961366005196
 10
20.23839112539866
 20
11.85524808306256
 10
20.26149804846506
 20
12.00615250607077
 10
20.26930170230766
 20
12.16161750599997
 10
20.26149804846506
 20
12.31698115977536
 10
20.23839112539866
 20
12.46798692893736
 10
20.20089304849266
 20
12.61372269810176
 10
20.14981458697746
 20
12.75337769803816
 10
20.08576381777586
 20
12.88624250566996
 10
20.00965285627206
 20
13.01160769792056
 10
19.92208977938886
 20
13.12856115940576
 10
19.82398670251046
 20
13.23649481320276
 10
19.71605304871346
 20
13.33469923623497
 10
19.59909958722826
 20
13.42216096696436
 10
19.47363304882386
 20
13.49827192846816
 10
19.34076824119206
 20
13.56232269766976
 10
19.20111324125566
 20
13.61340115918496
 10
19.05547881824506
 20
13.65089923609096
 10
18.90437170292926
 20
13.67400615915736
 10
18.74910939530766
 20
13.68180981299997
  0
ENDSEC
  0
SECTION
  2
OBJECTS
  0
DICTIONARY
  5
C
330
0
100
AcDbDictionary
281
    1
  3
ACAD_GROUP
350
D
  0
DICTIONARY
  5
D
330
C
100
AcDbDictionary
281
    1
  0
ENDSEC
  0
EOF
