999
dxfrw 0.6.3
  0
SECTION
  2
HEADER
  9
$ACADVER
  1
AC1021
  9
$DWGCODEPAGE
  3
ANSI_1252
  9
$INSBASE
 10
0
 20
0
 30
0
  9
$EXTMIN
 10
-5.89946696563648e-17
 20
5.551115123125783e-17
 30
0
  9
$EXTMAX
 10
83.84872769026879
 20
117.9244554701416
 30
0
  9
$LIMMIN
 10
0
 20
0
  9
$LIMMAX
 10
420
 20
297
  9
$ORTHOMODE
 70
    0
  9
$REGENMODE
 70
    1
  9
$FILLMODE
 70
    0
  9
$QTEXTMODE
 70
    0
  9
$MIRRTEXT
 70
    0
  9
$LTSCALE
 40
1
  9
$ATTMODE
 70
    0
  9
$TEXTSIZE
 40
2.5
  9
$TRACEWID
 40
15.68
  9
$TEXTSTYLE
  7
STANDARD
  9
$CLAYER
  8
0
  9
$CELTYPE
  6
BYLAYER
  9
$CECOLOR
 62
  256
  9
$CELTSCALE
 40
1
  9
$DISPSILH
 70
    0
  9
$DIMSCALE
 40
1
  9
$DIMASZ
 40
2.5
  9
$DIMEXO
 40
0.625
  9
$DIMDLI
 40
3.75
  9
$DIMRND
 40
0
  9
$DIMDLE
 40
0
  9
$DIMEXE
 40
1.25
  9
$DIMTP
 40
0
  9
$DIMTM
 40
0
  9
$DIMTXT
 40
2.5
  9
$DIMCEN
 40
2.5
  9
$DIMTSZ
 40
0
  9
$DIMTOL
 70
    0
  9
$DIMLIM
 70
    0
  9
$DIMTIH
 70
    0
  9
$DIMTOH
 70
    0
  9
$DIMSE1
 70
    0
  9
$DIMSE2
 70
    0
  9
$DIMTAD
 70
    1
  9
$DIMZIN
 70
    8
  9
$DIMBLK
  1

  9
$DIMASO
 70
    1
  9
$DIMSHO
 70
    1
  9
$DIMPOST
  1

  9
$DIMAPOST
  1

  9
$DIMALT
 70
    0
  9
$DIMALTD
 70
    3
  9
$DIMALTF
 40
0.03937
  9
$DIMLFAC
 40
1
  9
$DIMTOFL
 70
    1
  9
$DIMTVP
 40
0
  9
$DIMTIX
 70
    0
  9
$DIMSOXD
 70
    0
  9
$DIMSAH
 70
    0
  9
$DIMBLK1
  1

  9
$DIMBLK2
  1

  9
$DIMSTYLE
  2
Standard
  9
$DIMCLRD
 70
    0
  9
$DIMCLRE
 70
    0
  9
$DIMCLRT
 70
    0
  9
$DIMTFAC
 40
1
  9
$DIMGAP
 40
0.625
  9
$DIMJUST
 70
    0
  9
$DIMSD1
 70
    0
  9
$DIMSD2
 70
    0
  9
$DIMTOLJ
 70
    0
  9
$DIMTZIN
 70
    8
  9
$DIMALTZ
 70
    0
  9
$DIMALTTZ
 70
    0
  9
$DIMUPT
 70
    0
  9
$DIMDEC
 70
    2
  9
$DIMTDEC
 70
    2
  9
$DIMALTU
 70
    2
  9
$DIMALTTD
 70
    3
  9
$DIMTXSTY
  7
STANDARD
  9
$DIMAUNIT
 70
    0
  9
$DIMADEC
 70
    0
  9
$DIMALTRND
 40
0
  9
$DIMAZIN
 70
    0
  9
$DIMDSEP
 70
   44
  9
$DIMATFIT
 70
    3
  9
$DIMFRAC
 70
    0
  9
$DIMLDRBLK
  1
STANDARD
  9
$DIMLUNIT
 70
    2
  9
$DIMLWD
 70
   -2
  9
$DIMLWE
 70
   -2
  9
$DIMTMOVE
 70
    0
  9
$DIMFXL
 40
1
  9
$DIMFXLON
 70
    0
  9
$DIMJOGANG
 40
0.7854
  9
$DIMTFILL
 70
    0
  9
$DIMTFILLCLR
 70
    0
  9
$DIMARCSYM
 70
    0
  9
$DIMLTYPE
  6

  9
$DIMLTEX1
  6

  9
$DIMLTEX2
  6

  9
$LUNITS
 70
    2
  9
$LUPREC
 70
    4
  9
$SKETCHINC
 40
1
  9
$FILLETRAD
 40
0
  9
$AUNITS
 70
    0
  9
$AUPREC
 70
    2
  9
$MENU
  1
.
  9
$ELEVATION
 40
0
  9
$PELEVATION
 40
0
  9
$THICKNESS
 40
0
  9
$LIMCHECK
 70
    0
  9
$CHAMFERA
 40
0
  9
$CHAMFERB
 40
0
  9
$CHAMFERC
 40
0
  9
$CHAMFERD
 40
0
  9
$SKPOLY
 70
    0
  9
$USRTIMER
 70
    1
  9
$ANGBASE
 50
0
  9
$ANGDIR
 70
    0
  9
$PDMODE
 70
   34
  9
$PDSIZE
 40
0
  9
$PLINEWID
 40
0
  9
$SPLFRAME
 70
    1
  9
$SPLINETYPE
 70
    2
  9
$SPLINESEGS
 70
    8
  9
$HANDSEED
  5
20000
  9
$SURFTAB1
 70
    6
  9
$SURFTAB2
 70
    6
  9
$SURFTYPE
 70
    6
  9
$SURFU
 70
    6
  9
$SURFV
 70
    6
  9
$UCSBASE
  2

  9
$UCSNAME
  2

  9
$UCSORG
 10
0
 20
0
 30
0
  9
$UCSXDIR
 10
1
 20
0
 30
0
  9
$UCSYDIR
 10
0
 20
1
 30
0
  9
$UCSORTHOREF
  2

  9
$UCSORTHOVIEW
 70
    0
  9
$UCSORGTOP
 10
0
 20
0
 30
0
  9
$UCSORGBOTTOM
 10
0
 20
0
 30
0
  9
$UCSORGLEFT
 10
0
 20
0
 30
0
  9
$UCSORGRIGHT
 10
0
 20
0
 30
0
  9
$UCSORGFRONT
 10
0
 20
0
 30
0
  9
$UCSORGBACK
 10
0
 20
0
 30
0
  9
$PUCSBASE
  2

  9
$PUCSNAME
  2

  9
$PUCSORG
 10
0
 20
0
 30
0
  9
$PUCSXDIR
 10
1
 20
0
 30
0
  9
$PUCSYDIR
 10
0
 20
1
 30
0
  9
$PUCSORTHOREF
  2

  9
$PUCSORTHOVIEW
 70
    0
  9
$PUCSORGTOP
 10
0
 20
0
 30
0
  9
$PUCSORGBOTTOM
 10
0
 20
0
 30
0
  9
$PUCSORGLEFT
 10
0
 20
0
 30
0
  9
$PUCSORGRIGHT
 10
0
 20
0
 30
0
  9
$PUCSORGFRONT
 10
0
 20
0
 30
0
  9
$PUCSORGBACK
 10
0
 20
0
 30
0
  9
$USERI1
 70
    0
  9
$USERI2
 70
    0
  9
$USERI3
 70
    0
  9
$USERI4
 70
    0
  9
$USERI5
 70
    0
  9
$USERR1
 40
0
  9
$USERR2
 40
0
  9
$USERR3
 40
0
  9
$USERR4
 40
0
  9
$USERR5
 40
0
  9
$WORLDVIEW
 70
    1
  9
$SHADEDGE
 70
    3
  9
$SHADEDIF
 70
   70
  9
$TILEMODE
 70
    1
  9
$MAXACTVP
 70
   64
  9
$PINSBASE
 10
0
 20
0
 30
0
  9
$PLIMCHECK
 70
    0
  9
$PEXTMIN
 10
0
 20
0
 30
0
  9
$PEXTMAX
 10
0
 20
0
 30
0
  9
$GRIDMODE
 70
    1
  9
$SNAPSTYLE
 70
    0
  9
$PLIMMIN
 10
0
 20
0
  9
$PLIMMAX
 10
8.26771653543307
 20
11.6929133858268
  9
$UNITMODE
 70
    0
  9
$VISRETAIN
 70
    1
  9
$PLINEGEN
 70
    0
  9
$PSLTSCALE
 70
    1
  9
$TREEDEPTH
 70
 3020
  9
$CMLSTYLE
  2
Standard
  9
$CMLJUST
 70
    0
  9
$CMLSCALE
 40
20
  9
$PROXYGRAPHICS
 70
    1
  9
$MEASUREMENT
 70
    1
  9
$CELWEIGHT
370
   -1
  9
$ENDCAPS
280
    0
  9
$JOINSTYLE
280
    0
  9
$LWDISPLAY
290
    0
  9
$INSUNITS
 70
    4
  9
$HYPERLINKBASE
  1

  9
$STYLESHEET
  1

  9
$XEDIT
290
    1
  9
$CEPSNTYPE
380
    0
  9
$PSTYLEMODE
290
    1
  9
$EXTNAMES
290
    1
  9
$PSVPSCALE
 40
1
  9
$OLESTARTUP
290
    0
  9
$SORTENTS
280
  127
  9
$INDEXCTL
280
    0
  9
$HIDETEXT
280
    1
  9
$XCLIPFRAME
290
    0
  9
$HALOGAP
280
    0
  9
$OBSCOLOR
 70
  257
  9
$OBSLTYPE
280
    0
  9
$INTERSECTIONDISPLAY
280
    0
  9
$INTERSECTIONCOLOR
 70
  257
  9
$DIMASSOC
280
    1
  9
$PROJECTNAME
  1

  9
$CAMERADISPLAY
290
    0
  9
$LENSLENGTH
 40
50
  9
$CAMERAHEIGHT
 40
0
  9
$STEPSPERSEC
 40
2
  9
$STEPSIZE
 40
50
  9
$3DDWFPREC
 40
2
  9
$PSOLWIDTH
 40
5
  9
$PSOLHEIGHT
 40
80
  9
$LOFTANG1
 40
1.570796326794897
  9
$LOFTANG2
 40
1.570796326794897
  9
$LOFTMAG1
 40
0
  9
$LOFTMAG2
 40
0
  9
$LOFTPARAM
 70
    7
  9
$LOFTNORMALS
280
    1
  9
$LATITUDE
 40
1
  9
$LONGITUDE
 40
1
  9
$NORTHDIRECTION
 40
0
  9
$TIMEZONE
 70
-8000
  9
$LIGHTGLYPHDISPLAY
280
    1
  9
$TILEMODELIGHTSYNCH
280
    1
  9
$SOLIDHIST
280
    1
  9
$SHOWHIST
280
    1
  9
$DWFFRAME
280
    2
  9
$DGNFRAME
280
    0
  9
$REALWORLDSCALE
290
    1
  9
$INTERFERECOLOR
 62
    1
  9
$CSHADOW
280
    0
  9
$SHADOWPLANELOCATION
 40
0
  0
ENDSEC
  0
SECTION
  2
CLASSES
  0
ENDSEC
  0
SECTION
  2
TABLES
  0
TABLE
  2
VPORT
  5
8
330
0
100
AcDbSymbolTable
 70
    1
  0
VPORT
  5
31
330
2
100
AcDbSymbolTableRecord
100
AcDbViewportTableRecord
  2
*ACTIVE
 70
    0
 10
0
 20
0
 11
1
 21
1
 12
65.12500000001087
 22
62.50000000001043
 13
0
 23
0
 14
10
 24
10
 15
10
 25
10
 16
0
 26
0
 36
1
 17
0
 27
0
 37
0
 40
126.5000000000211
 41
1.984189723320158
 42
50
 43
0
 44
0
 50
0
 51
0
 71
    0
 72
  100
 73
    1
 74
    3
 75
    0
 76
    1
 77
    0
 78
    0
281
    0
 65
    1
110
0
120
0
130
0
111
1
121
0
131
0
112
0
122
1
132
0
 79
    0
146
0
348
10020
 60
    7
 61
    5
292
1
282
    1
141
0
142
0
 63
  250
421
3358443
  0
ENDTAB
  0
TABLE
  2
LTYPE
  5
5
330
0
100
AcDbSymbolTable
 70
    4
  0
LTYPE
  5
14
330
5
100
AcDbSymbolTableRecord
100
AcDbLinetypeTableRecord
  2
ByBlock
 70
    0
  3

 72
   65
 73
    0
 40
0
  0
LTYPE
  5
15
330
5
100
AcDbSymbolTableRecord
100
AcDbLinetypeTableRecord
  2
ByLayer
 70
    0
  3

 72
   65
 73
    0
 40
0
  0
LTYPE
  5
16
330
5
100
AcDbSymbolTableRecord
100
AcDbLinetypeTableRecord
  2
Continuous
 70
    0
  3
Solid line
 72
   65
 73
    0
 40
0
  0
LTYPE
  5
32
330
5
100
AcDbSymbolTableRecord
100
AcDbLinetypeTableRecord
  2
DOT
 70
    0
  3
Dot . . . . . . . . . . . . . . . . . . . . . .
 72
   65
 73
    2
 40
6.35
 49
0
 74
    0
 49
-6.35
 74
    0
  0
LTYPE
  5
33
330
5
100
AcDbSymbolTableRecord
100
AcDbLinetypeTableRecord
  2
DOTTINY
 70
    0
  3
Dot (.15x) .....................................
 72
   65
 73
    2
 40
0.9525
 49
0
 74
    0
 49
-0.9525
 74
    0
  0
LTYPE
  5
34
330
5
100
AcDbSymbolTableRecord
100
AcDbLinetypeTableRecord
  2
DOT2
 70
    0
  3
Dot (.5x) .....................................
 72
   65
 73
    2
 40
3.175
 49
0
 74
    0
 49
-3.175
 74
    0
  0
LTYPE
  5
35
330
5
100
AcDbSymbolTableRecord
100
AcDbLinetypeTableRecord
  2
DOTX2
 70
    0
  3
Dot (2x) .  .  .  .  .  .  .  .  .  .  .  .  .
 72
   65
 73
    2
 40
12.7
 49
0
 74
    0
 49
-12.7
 74
    0
  0
LTYPE
  5
36
330
5
100
AcDbSymbolTableRecord
100
AcDbLinetypeTableRecord
  2
DASHED
 70
    0
  3
Dashed _ _ _ _ _ _ _ _ _ _ _ _ _ _ _ _ _
 72
   65
 73
    2
 40
19.05
 49
12.7
 74
    0
 49
-6.35
 74
    0
  0
LTYPE
  5
37
330
5
100
AcDbSymbolTableRecord
100
AcDbLinetypeTableRecord
  2
DASHEDTINY
 70
    0
  3
Dashed (.15x) _ _ _ _ _ _ _ _ _ _ _ _ _ _ _ _ _
 72
   65
 73
    2
 40
2.8575
 49
1.905
 74
    0
 49
-0.9525
 74
    0
  0
LTYPE
  5
38
330
5
100
AcDbSymbolTableRecord
100
AcDbLinetypeTableRecord
  2
DASHED2
 70
    0
  3
Dashed (.5x) _ _ _ _ _ _ _ _ _ _ _ _ _ _ _ _ _
 72
   65
 73
    2
 40
9.524999999999999
 49
6.35
 74
    0
 49
-3.175
 74
    0
  0
LTYPE
  5
39
330
5
100
AcDbSymbolTableRecord
100
AcDbLinetypeTableRecord
  2
DASHEDX2
 70
    0
  3
Dashed (2x) ____  ____  ____  ____  ____  ___
 72
   65
 73
    2
 40
38.09999999999999
 49
25.4
 74
    0
 49
-12.7
 74
    0
  0
LTYPE
  5
3A
330
5
100
AcDbSymbolTableRecord
100
AcDbLinetypeTableRecord
  2
DASHDOT
 70
    0
  3
Dash dot __ . __ . __ . __ . __ . __ . __ . __
 72
   65
 73
    4
 40
25.4
 49
12.7
 74
    0
 49
-6.35
 74
    0
 49
0
 74
    0
 49
-6.35
 74
    0
  0
LTYPE
  5
3B
330
5
100
AcDbSymbolTableRecord
100
AcDbLinetypeTableRecord
  2
DASHDOTTINY
 70
    0
  3
Dash dot (.15x) _._._._._._._._._._._._._._._.
 72
   65
 73
    4
 40
3.81
 49
1.905
 74
    0
 49
-0.9525
 74
    0
 49
0
 74
    0
 49
-0.9525
 74
    0
  0
LTYPE
  5
3C
330
5
100
AcDbSymbolTableRecord
100
AcDbLinetypeTableRecord
  2
DASHDOT2
 70
    0
  3
Dash dot (.5x) _._._._._._._._._._._._._._._.
 72
   65
 73
    4
 40
12.7
 49
6.35
 74
    0
 49
-3.175
 74
    0
 49
0
 74
    0
 49
-3.175
 74
    0
  0
LTYPE
  5
3D
330
5
100
AcDbSymbolTableRecord
100
AcDbLinetypeTableRecord
  2
DASHDOTX2
 70
    0
  3
Dash dot (2x) ____  .  ____  .  ____  .  ___
 72
   65
 73
    4
 40
50.8
 49
25.4
 74
    0
 49
-12.7
 74
    0
 49
0
 74
    0
 49
-12.7
 74
    0
  0
LTYPE
  5
3E
330
5
100
AcDbSymbolTableRecord
100
AcDbLinetypeTableRecord
  2
DIVIDE
 70
    0
  3
Divide ____ . . ____ . . ____ . . ____ . . ____
 72
   65
 73
    6
 40
31.75
 49
12.7
 74
    0
 49
-6.35
 74
    0
 49
0
 74
    0
 49
-6.35
 74
    0
 49
0
 74
    0
 49
-6.35
 74
    0
  0
LTYPE
  5
3F
330
5
100
AcDbSymbolTableRecord
100
AcDbLinetypeTableRecord
  2
DIVIDETINY
 70
    0
  3
Divide (.15x) __..__..__..__..__..__..__..__.._
 72
   65
 73
    6
 40
4.7625
 49
1.905
 74
    0
 49
-0.9525
 74
    0
 49
0
 74
    0
 49
-0.9525
 74
    0
 49
0
 74
    0
 49
-0.9525
 74
    0
  0
LTYPE
  5
40
330
5
100
AcDbSymbolTableRecord
100
AcDbLinetypeTableRecord
  2
DIVIDE2
 70
    0
  3
Divide (.5x) __..__..__..__..__..__..__..__.._
 72
   65
 73
    6
 40
15.875
 49
6.35
 74
    0
 49
-3.175
 74
    0
 49
0
 74
    0
 49
-3.175
 74
    0
 49
0
 74
    0
 49
-3.175
 74
    0
  0
LTYPE
  5
41
330
5
100
AcDbSymbolTableRecord
100
AcDbLinetypeTableRecord
  2
DIVIDEX2
 70
    0
  3
Divide (2x) ________  .  .  ________  .  .  _
 72
   65
 73
    6
 40
63.5
 49
25.4
 74
    0
 49
-12.7
 74
    0
 49
0
 74
    0
 49
-12.7
 74
    0
 49
0
 74
    0
 49
-12.7
 74
    0
  0
LTYPE
  5
42
330
5
100
AcDbSymbolTableRecord
100
AcDbLinetypeTableRecord
  2
BORDER
 70
    0
  3
Border __ __ . __ __ . __ __ . __ __ . __ __ .
 72
   65
 73
    6
 40
44.45
 49
12.7
 74
    0
 49
-6.35
 74
    0
 49
12.7
 74
    0
 49
-6.35
 74
    0
 49
0
 74
    0
 49
-6.35
 74
    0
  0
LTYPE
  5
43
330
5
100
AcDbSymbolTableRecord
100
AcDbLinetypeTableRecord
  2
BORDERTINY
 70
    0
  3
Border (.15x) __.__.__.__.__.__.__.__.__.__.__.
 72
   65
 73
    6
 40
6.6675
 49
1.905
 74
    0
 49
-0.9525
 74
    0
 49
1.905
 74
    0
 49
-0.9525
 74
    0
 49
0
 74
    0
 49
-0.9525
 74
    0
  0
LTYPE
  5
44
330
5
100
AcDbSymbolTableRecord
100
AcDbLinetypeTableRecord
  2
BORDER2
 70
    0
  3
Border (.5x) __.__.__.__.__.__.__.__.__.__.__.
 72
   65
 73
    6
 40
22.225
 49
6.35
 74
    0
 49
-3.175
 74
    0
 49
6.35
 74
    0
 49
-3.175
 74
    0
 49
0
 74
    0
 49
-3.175
 74
    0
  0
LTYPE
  5
45
330
5
100
AcDbSymbolTableRecord
100
AcDbLinetypeTableRecord
  2
BORDERX2
 70
    0
  3
Border (2x) ____  ____  .  ____  ____  .  ___
 72
   65
 73
    6
 40
88.89999999999999
 49
25.4
 74
    0
 49
-12.7
 74
    0
 49
25.4
 74
    0
 49
-12.7
 74
    0
 49
0
 74
    0
 49
-12.7
 74
    0
  0
LTYPE
  5
46
330
5
100
AcDbSymbolTableRecord
100
AcDbLinetypeTableRecord
  2
CENTER
 70
    0
  3
Center ____ _ ____ _ ____ _ ____ _ ____ _ ____
 72
   65
 73
    4
 40
50.8
 49
31.75
 74
    0
 49
-6.35
 74
    0
 49
6.35
 74
    0
 49
-6.35
 74
    0
  0
LTYPE
  5
47
330
5
100
AcDbSymbolTableRecord
100
AcDbLinetypeTableRecord
  2
CENTERTINY
 70
    0
  3
Center (.15x) ___ _ ___ _ ___ _ ___ _ ___ _ ___
 72
   65
 73
    4
 40
7.619999999999999
 49
4.7625
 74
    0
 49
-0.9525
 74
    0
 49
0.9525
 74
    0
 49
-0.9525
 74
    0
  0
LTYPE
  5
48
330
5
100
AcDbSymbolTableRecord
100
AcDbLinetypeTableRecord
  2
CENTER2
 70
    0
  3
Center (.5x) ___ _ ___ _ ___ _ ___ _ ___ _ ___
 72
   65
 73
    4
 40
28.575
 49
19.05
 74
    0
 49
-3.175
 74
    0
 49
3.175
 74
    0
 49
-3.175
 74
    0
  0
LTYPE
  5
49
330
5
100
AcDbSymbolTableRecord
100
AcDbLinetypeTableRecord
  2
CENTERX2
 70
    0
  3
Center (2x) ________  __  ________  __  _____
 72
   65
 73
    4
 40
101.6
 49
63.5
 74
    0
 49
-12.7
 74
    0
 49
12.7
 74
    0
 49
-12.7
 74
    0
  0
ENDTAB
  0
TABLE
  2
LAYER
  5
2
330
0
100
AcDbSymbolTable
 70
    1
  0
LAYER
  5
10
330
2
100
AcDbSymbolTableRecord
100
AcDbLayerTableRecord
  2
0
 70
    0
 62
    7
  6
CONTINUOUS
370
   -3
390
F
  0
ENDTAB
  0
TABLE
  2
STYLE
  5
3
330
0
100
AcDbSymbolTable
 70
    3
  0
STYLE
  5
4A
330
2
100
AcDbSymbolTableRecord
100
AcDbTextStyleTableRecord
  2
Standard
 70
    0
 40
0
 41
1
 50
0
 71
    0
 42
1
  3
txt
  4

  0
ENDTAB
  0
TABLE
  2
VIEW
  5
6
330
0
100
AcDbSymbolTable
 70
    0
  0
ENDTAB
  0
TABLE
  2
UCS
  5
7
330
0
100
AcDbSymbolTable
 70
    0
  0
ENDTAB
  0
TABLE
  2
APPID
  5
9
330
0
100
AcDbSymbolTable
 70
    1
  0
APPID
  5
12
330
9
100
AcDbSymbolTableRecord
100
AcDbRegAppTableRecord
  2
ACAD
 70
    0
  0
APPID
  5
4B
330
9
100
AcDbSymbolTableRecord
100
AcDbRegAppTableRecord
  2
LibreCad
 70
    0
  0
ENDTAB
  0
TABLE
  2
DIMSTYLE
  5
A
330
0
100
AcDbSymbolTable
 70
    1
100
AcDbDimStyleTable
 71
    1
  0
DIMSTYLE
105
4C
330
A
100
AcDbSymbolTableRecord
100
AcDbDimStyleTableRecord
  2
Standard
 70
    0
 40
1
 41
2.5
 42
0.625
 43
0.38
 44
1.25
 45
0
 46
0
 47
0
 48
0
 49
1
140
2.5
141
0.09
142
0
143
25.4
144
1
145
0
146
1
147
0.625
148
0
 71
    0
 72
    0
 73
    0
 74
    1
 75
    0
 76
    0
 77
    0
 78
    8
 79
    0
170
    0
171
    2
172
    0
173
    0
174
    0
175
    0
176
    0
177
    0
178
    0
179
    0
271
    2
272
    4
273
    2
274
    2
275
    0
276
    0
277
    2
278
   44
279
    0
280
    0
281
    0
282
    0
283
    1
284
    0
285
    0
286
    0
288
    0
289
    3
340
STANDARD
341

371
   -2
372
   -2
  0
ENDTAB
  0
TABLE
  2
BLOCK_RECORD
  5
1
330
0
100
AcDbSymbolTable
 70
    2
  0
BLOCK_RECORD
  5
1F
330
1
100
AcDbSymbolTableRecord
100
AcDbBlockTableRecord
  2
*Model_Space
 70
    0
280
    1
281
    0
  0
BLOCK_RECORD
  5
1E
330
1
100
AcDbSymbolTableRecord
100
AcDbBlockTableRecord
  2
*Paper_Space
 70
    0
280
    1
281
    0
  0
ENDTAB
  0
ENDSEC
  0
SECTION
  2
BLOCKS
  0
BLOCK
  5
20
330
1F
100
AcDbEntity
  8
0
100
AcDbBlockBegin
  2
*Model_Space
 70
    0
 10
0
 20
0
 30
0
  3
*Model_Space
  1

  0
ENDBLK
  5
21
330
1F
100
AcDbEntity
  8
0
100
AcDbBlockEnd
  0
BLOCK
  5
1C
330
1B
100
AcDbEntity
  8
0
100
AcDbBlockBegin
  2
*Paper_Space
 70
    0
 10
0
 20
0
 30
0
  3
*Paper_Space
  1

  0
ENDBLK
  5
1D
330
1F
100
AcDbEntity
  8
0
100
AcDbBlockEnd
  0
ENDSEC
  0
SECTION
  2
ENTITIES
  0
LWPOLYLINE
  5
4D
100
AcDbEntity
  8
0
  6
ByLayer
 62
    0
370
   -1
100
AcDbPolyline
 90
    2
 70
    0
 43
0
 10
65.77351637108858
 20
114.9117368732056
 10
80.83620914104837
 20
114.9117368732056
  0
LWPOLYLINE
  5
4E
100
AcDbEntity
  8
0
  6
ByLayer
 62
    0
370
   -1
100
AcDbPolyline
 90
    2
 70
    0
 43
0
 10
80.83620914104837
 20
114.9117368732056
 10
80.83620914104837
 20
98.40930069407258
  0
LWPOLYLINE
  5
4F
100
AcDbEntity
  8
0
  6
ByLayer
 62
    0
370
   -1
100
AcDbPolyline
 90
    2
 70
    0
 43
0
 10
80.83620914104837
 20
98.40930069407258
 10
83.84872769026879
 20
98.40930069407258
  0
LWPOLYLINE
  5
50
100
AcDbEntity
  8
0
  6
ByLayer
 62
    0
370
   -1
100
AcDbPolyline
 90
    2
 70
    0
 43
0
 10
83.84872769026879
 20
98.40930069407258
 10
83.84872769026879
 20
83.34670794797059
  0
LWPOLYLINE
  5
51
100
AcDbEntity
  8
0
  6
ByLayer
 62
    0
370
   -1
100
AcDbPolyline
 90
    2
 70
    0
 43
0
 10
83.84872769026879
 20
83.34670794797059
 10
80.83620914104837
 20
83.34670794797059
  0
LWPOLYLINE
  5
52
100
AcDbEntity
  8
0
  6
ByLayer
 62
    0
370
   -1
100
AcDbPolyline
 90
    2
 70
    0
 43
0
 10
80.83620914104837
 20
83.34670794797059
 10
80.83620914104837
 20
68.28411520186859
  0
LWPOLYLINE
  5
53
100
AcDbEntity
  8
0
  6
ByLayer
 62
    0
370
   -1
100
AcDbPolyline
 90
    2
 70
    0
 43
0
 10
80.83620914104837
 20
68.28411520186859
 10
83.84872769026879
 20
68.28411520186859
  0
LWPOLYLINE
  5
54
100
AcDbEntity
  8
0
  6
ByLayer
 62
    0
370
   -1
100
AcDbPolyline
 90
    2
 70
    0
 43
0
 10
83.84872769026879
 20
68.28411520186859
 10
83.84872769026879
 20
53.22132240805099
  0
LWPOLYLINE
  5
55
100
AcDbEntity
  8
0
  6
ByLayer
 62
    0
370
   -1
100
AcDbPolyline
 90
    2
 70
    0
 43
0
 10
83.84872769026879
 20
53.22132240805099
 10
73.80693251029558
 20
43.17962725193559
  0
LWPOLYLINE
  5
56
100
AcDbEntity
  8
0
  6
ByLayer
 62
    0
370
   -1
100
AcDbPolyline
 90
    2
 70
    0
 43
0
 10
73.80693251029558
 20
43.17962725193559
 10
73.80693251029558
 20
35.1462111127286
  0
LWPOLYLINE
  5
57
100
AcDbEntity
  8
0
  6
ByLayer
 62
    0
370
   -1
100
AcDbPolyline
 90
    2
 70
    0
 43
0
 10
73.80693251029558
 20
35.1462111127286
 10
70.79441396107518
 20
35.1462111127286
  0
LWPOLYLINE
  5
58
100
AcDbEntity
  8
0
  6
ByLayer
 62
    0
370
   -1
100
AcDbPolyline
 90
    2
 70
    0
 43
0
 10
70.79441396107518
 20
35.1462111127286
 10
70.79441396107518
 20
15.06262075278218
  0
LWPOLYLINE
  5
59
100
AcDbEntity
  8
0
  6
ByLayer
 62
    0
370
   -1
100
AcDbPolyline
 90
    2
 70
    0
 43
0
 10
70.79441396107518
 20
15.06262075278218
 10
73.80693251029558
 20
15.06262075278218
  0
LWPOLYLINE
  5
5A
100
AcDbEntity
  8
0
  6
ByLayer
 62
    0
370
   -1
100
AcDbPolyline
 90
    2
 70
    0
 43
0
 10
73.80693251029558
 20
15.06262075278218
 10
73.80693251029558
 20
3.012546555900584
  0
LWPOLYLINE
  5
5B
100
AcDbEntity
  8
0
  6
ByLayer
 62
    0
370
   -1
100
AcDbPolyline
 90
    2
 70
    0
 43
0
 10
73.80693251029558
 20
3.012546555900584
 10
62.25887805571219
 20
3.012546555900584
  0
LWPOLYLINE
  5
5C
100
AcDbEntity
  8
0
  6
ByLayer
 62
    0
370
   -1
100
AcDbPolyline
 90
    2
 70
    0
 43
0
 10
62.25887805571219
 20
3.012546555900584
 10
62.25887805571219
 20
5.552439497069628e-17
  0
LWPOLYLINE
  5
5D
100
AcDbEntity
  8
0
  6
ByLayer
 62
    0
370
   -1
100
AcDbPolyline
 90
    2
 70
    0
 43
0
 10
62.25887805571219
 20
5.552439497069628e-17
 10
47.19628530961019
 20
5.552439497069628e-17
  0
LWPOLYLINE
  5
5E
100
AcDbEntity
  8
0
  6
ByLayer
 62
    0
370
   -1
100
AcDbPolyline
 90
    2
 70
    0
 43
0
 10
47.19628530961019
 20
5.552439497069628e-17
 10
36.15045064504059
 20
11.04596269510759
  0
LWPOLYLINE
  5
5F
100
AcDbEntity
  8
0
  6
ByLayer
 62
    0
370
   -1
100
AcDbPolyline
 90
    2
 70
    0
 43
0
 10
36.15045064504059
 20
11.04596269510759
 10
3.012546555900584
 20
11.04596269510759
  0
LWPOLYLINE
  5
60
100
AcDbEntity
  8
0
  6
ByLayer
 62
    0
370
   -1
100
AcDbPolyline
 90
    2
 70
    0
 43
0
 10
3.012546555900584
 20
11.04596269510759
 10
-5.89946696563648e-17
 20
14.05848124432798
  0
LWPOLYLINE
  5
61
100
AcDbEntity
  8
0
  6
ByLayer
 62
    0
370
   -1
100
AcDbPolyline
 90
    2
 70
    0
 43
0
 10
-5.89946696563648e-17
 20
14.05848124432798
 10
-5.89946696563648e-17
 20
28.11703450583358
  0
LWPOLYLINE
  5
62
100
AcDbEntity
  8
0
  6
ByLayer
 62
    0
370
   -1
100
AcDbPolyline
 90
    2
 70
    0
 43
0
 10
-5.89946696563648e-17
 20
28.11703450583358
 10
25.10431590889758
 20
42.61099162034259
  0
LWPOLYLINE
  5
63
100
AcDbEntity
  8
0
  6
ByLayer
 62
    0
370
   -1
100
AcDbPolyline
 90
    2
 70
    0
 43
0
 10
25.10431590889758
 20
42.61099162034259
 10
25.10431590889758
 20
72.73627713640438
  0
LWPOLYLINE
  5
64
100
AcDbEntity
  8
0
  6
ByLayer
 62
    0
370
   -1
100
AcDbPolyline
 90
    2
 70
    0
 43
0
 10
25.10431590889758
 20
72.73627713640438
 10
-5.89946696563648e-17
 20
97.84076508633738
  0
LWPOLYLINE
  5
65
100
AcDbEntity
  8
0
  6
ByLayer
 62
    0
370
   -1
100
AcDbPolyline
 90
    2
 70
    0
 43
0
 10
-5.89946696563648e-17
 20
97.84076508633738
 10
-5.89946696563648e-17
 20
114.9117368732056
  0
LWPOLYLINE
  5
66
100
AcDbEntity
  8
0
  6
ByLayer
 62
    0
370
   -1
100
AcDbPolyline
 90
    2
 70
    0
 43
0
 10
-5.89946696563648e-17
 20
114.9117368732056
 10
20.58563810892479
 20
114.9117368732056
  0
LWPOLYLINE
  5
67
100
AcDbEntity
  8
0
  6
ByLayer
 62
    0
370
   -1
100
AcDbPolyline
 90
    2
 70
    0
 43
0
 10
20.58563810892479
 20
117.9244554701416
 10
20.58563810892479
 20
114.9117368732056
  0
LWPOLYLINE
  5
68
100
AcDbEntity
  8
0
  6
ByLayer
 62
    0
370
   -1
100
AcDbPolyline
 90
    2
 70
    0
 43
0
 10
35.64823085502678
 20
117.9244554701416
 10
20.58563810892479
 20
117.9244554701416
  0
LWPOLYLINE
  5
69
100
AcDbEntity
  8
0
  6
ByLayer
 62
    0
370
   -1
100
AcDbPolyline
 90
    2
 70
    0
 43
0
 10
35.64823085502678
 20
114.9117368732056
 10
35.64823085502678
 20
117.9244554701416
  0
LWPOLYLINE
  5
6A
100
AcDbEntity
  8
0
  6
ByLayer
 62
    0
370
   -1
100
AcDbPolyline
 90
    2
 70
    0
 43
0
 10
35.64823085502678
 20
114.9117368732056
 10
50.71082360112879
 20
114.9117368732056
  0
LWPOLYLINE
  5
6B
100
AcDbEntity
  8
0
  6
ByLayer
 62
    0
370
   -1
100
AcDbPolyline
 90
    2
 70
    0
 43
0
 10
50.71082360112879
 20
117.9244554701416
 10
50.71082360112879
 20
114.9117368732056
  0
LWPOLYLINE
  5
6C
100
AcDbEntity
  8
0
  6
ByLayer
 62
    0
370
   -1
100
AcDbPolyline
 90
    2
 70
    0
 43
0
 10
65.77351637108858
 20
117.9244554701416
 10
50.71082360112879
 20
117.9244554701416
  0
LWPOLYLINE
  5
6D
100
AcDbEntity
  8
0
  6
ByLayer
 62
    0
370
   -1
100
AcDbPolyline
 90
    2
 70
    0
 43
0
 10
65.77351637108858
 20
114.9117368732056
 10
65.77351637108858
 20
117.9244554701416
  0
LWPOLYLINE
  5
6E
100
AcDbEntity
  8
0
  6
ByLayer
 62
    0
370
   -1
100
AcDbPolyline
 90
  129
 70
    1
 43
0
 10
55.22970144881718
 20
98.84500461864938
 10
54.33338765907138
 20
98.82279932221779
 10
53.44317532465138
 20
98.75648350449639
 10
52.56066482728198
 20
98.6468573563476
 10
51.68695642939898
 20
98.49432097320259
 10
50.82385056044279
 20
98.29987459363939
 10
49.97274755442258
 20
98.06371826537358
 10
49.13524779306319
 20
97.78655215540978
 10
48.31265158651598
 20
97.46907643075258
 10
47.50645929264799
 20
97.11189123454878
 10
46.71827129318398
 20
96.71559670994519
 10
45.94948792213319
 20
96.28079300008858
 10
45.20160953736259
 20
95.80798022426799
 10
44.47603647288139
 20
95.29815862106138
 10
43.77446913427219
 20
94.75152823818438
 10
43.09810780782859
 20
94.16888926649939
 10
42.44865289913319
 20
93.55084184915319
 10
41.83060548178698
 20
92.90138694045778
 10
41.24796651010199
 20
92.22512563787198
 10
40.70143615108278
 20
91.52335825154718
 10
40.19141450016059
 20
90.79788521092378
 10
39.71870174819779
 20
90.05000682615318
 10
39.28379801448339
 20
89.28122345510238
 10
38.88760351373759
 20
88.49303545563838
 10
38.53041831753379
 20
87.68674313791257
 10
38.21284256901878
 20
86.86424695522318
 10
37.93587650677058
 20
86.02664717000597
 10
37.69972017850478
 20
85.17564418784359
 10
37.50507375122599
 20
84.31253831888739
 10
37.35253736808099
 20
83.43892994486218
 10
37.24291121993219
 20
82.55641944749279
 10
37.17669542606858
 20
81.66600706535718
 10
37.15459015349479
 20
80.76969327561139
 10
37.17669542606858
 20
79.87347950972338
 10
37.24291121993219
 20
78.98326717530338
 10
37.35253736808099
 20
78.10055663021838
 10
37.50507375122599
 20
77.22704828005098
 10
37.69972017850478
 20
76.36394241109478
 10
37.93587650677058
 20
75.51293942893237
 10
38.21284256901878
 20
74.67533964371519
 10
38.53041831753379
 20
73.85264341331018
 10
38.88760351373759
 20
73.04665116715778
 10
39.28379801448339
 20
72.25836314383598
 10
39.71870174819779
 20
71.48957977278518
 10
40.19141450016059
 20
70.74160136415679
 10
40.70143615108278
 20
70.01612832353338
 10
41.24796651010199
 20
69.31446096106639
 10
41.83060548178698
 20
68.63819965848059
 10
42.44865289913319
 20
67.98864472592739
 10
43.09810780782859
 20
67.37069733243898
 10
43.77446913427219
 20
66.78785831303837
 10
44.47603647288139
 20
66.24142797787698
 10
45.20160953736259
 20
65.73140632695478
 10
45.94948792213319
 20
65.25879359884978
 10
46.71827129318398
 20
64.82398988899318
 10
47.50645929264799
 20
64.42779538824738
 10
48.31265158651598
 20
64.07061019204357
 10
49.13524779306319
 20
63.75303444352858
 10
49.97274755442258
 20
63.4758683335648
 10
50.82385056044279
 20
63.23971200529899
 10
51.68695642939898
 20
63.045165601878
 10
52.56066482728198
 20
62.89262921873299
 10
53.44317532465138
 20
62.783103094442
 10
54.33338765907138
 20
62.71678727672059
 10
55.22970144881718
 20
62.69458198028899
 10
56.12591521470518
 20
62.71678727672059
 10
57.01622757298299
 20
62.783103094442
 10
57.89883809421018
 20
62.89262921873299
 10
58.77234644437758
 20
63.045165601878
 10
59.63545231333379
 20
63.23971200529899
 10
60.48655531935398
 20
63.4758683335648
 10
61.3240550807134
 20
63.75303444352858
 10
62.14675131111839
 20
64.07061019204357
 10
62.95294360498639
 20
64.42779538824738
 10
63.74103158059258
 20
64.82398988899318
 10
64.50981495164339
 20
65.25879359884978
 10
65.25779336027179
 20
65.73140632695478
 10
65.98326640089518
 20
66.24142797787698
 10
66.68493376336218
 20
66.78785831303837
 10
67.36119506594798
 20
67.37069733243898
 10
68.01085002235898
 20
67.98864472592739
 10
68.62889743970518
 20
68.63819965848059
 10
69.21153641139018
 20
69.31446096106639
 10
69.75806677040939
 20
70.01612832353338
 10
70.26798839747379
 20
70.74160136415679
 10
70.74080117329439
 20
71.48957977278518
 10
71.17550485929317
 20
72.25836314383598
 10
71.57179938389679
 20
73.04665116715778
 10
71.92898458010059
 20
73.85264341331018
 10
72.24646030475778
 20
74.67533964371519
 10
72.52352639086378
 20
75.51293942893237
 10
72.75978274298738
 20
76.36394241109478
 10
72.95432914640838
 20
77.22704828005098
 10
73.10676550569558
 20
78.10055663021838
 10
73.21649167770218
 20
78.98326717530338
 10
73.28260744770797
 20
79.87347950972338
 10
73.30491276799738
 20
80.76969327561139
 10
73.28260744770797
 20
81.66600706535718
 10
73.21649167770218
 20
82.55641944749279
 10
73.10676550569558
 20
83.43892994486218
 10
72.95432914640838
 20
84.31253831888739
 10
72.75978274298738
 20
85.17564418784359
 10
72.52352639086378
 20
86.02664717000597
 10
72.24646030475778
 20
86.86424695522318
 10
71.92898458010059
 20
87.68674313791257
 10
71.57179938389679
 20
88.49303545563838
 10
71.17550485929317
 20
89.28122345510238
 10
70.74080117329439
 20
90.05000682615318
 10
70.26798839747379
 20
90.79788521092378
 10
69.75806677040939
 20
91.52335825154718
 10
69.21153641139018
 20
92.22512563787198
 10
68.62889743970518
 20
92.90138694045778
 10
68.01085002235898
 20
93.55084184915319
 10
67.36119506594798
 20
94.16888926649939
 10
66.68493376336218
 20
94.75152823818438
 10
65.98326640089518
 20
95.29815862106138
 10
65.25779336027179
 20
95.80798022426799
 10
64.50981495164339
 20
96.28079300008858
 10
63.74103158059258
 20
96.71559670994519
 10
62.95294360498639
 20
97.11189123454878
 10
62.14675131111839
 20
97.46907643075258
 10
61.3240550807134
 20
97.78655215540978
 10
60.48655531935398
 20
98.06371826537358
 10
59.63545231333379
 20
98.29987459363939
 10
58.77234644437758
 20
98.49432097320259
 10
57.89883809421018
 20
98.6468573563476
 10
57.01622757298299
 20
98.75648350449639
 10
56.12591521470518
 20
98.82279932221779
 10
55.22970144881718
 20
98.84500461864938
  0
LWPOLYLINE
  5
6F
100
AcDbEntity
  8
0
  6
ByLayer
 62
    0
370
   -1
100
AcDbPolyline
 90
  129
 70
    1
 43
0
 10
55.22970144881718
 20
54.661165841082
 10
54.78159456587319
 20
54.650163216724
 10
54.33648839866319
 20
54.61695529593439
 10
53.89508311419178
 20
54.56204219800219
 10
53.45837895103698
 20
54.48592404221639
 10
53.02667598077219
 20
54.38870085243479
 10
52.60127451354879
 20
54.27057267637299
 10
52.18247462094019
 20
54.13193960946219
 10
51.77127654152439
 20
53.9732017471336
 10
51.36808037073259
 20
53.7946591609606
 10
50.97398637100058
 20
53.59651189865879
 10
50.58959468547518
 20
53.3791600556594
 10
50.21560548116098
 20
53.142803679678
 10
49.85291897277819
 20
52.887742842288
 10
49.50213530347359
 20
52.61447766277839
 10
49.16395464025179
 20
52.32320818886478
 10
48.83917717397519
 20
52.0141344682628
 10
48.53010345337319
 20
51.6892569781284
 10
48.23893400331739
 20
51.35117633876439
 10
47.96546877609219
 20
51.00039266945979
 10
47.71060798641778
 20
50.63760613721919
 10
47.47425161043638
 20
50.26371695676279
 10
47.25689976743699
 20
49.8793252712374
 10
47.05865248127738
 20
49.48513124764759
 10
46.88010989510438
 20
49.08213512457139
 10
46.72127200891799
 20
48.6708370212978
 10
46.58263894200719
 20
48.25193710483138
 10
46.46461078980318
 20
47.826535637608
 10
46.36728757616379
 20
47.39493269120099
 10
46.29116942037798
 20
46.95812850418839
 10
46.23635634630358
 20
46.51682324357478
 10
46.20314842551398
 20
46.07171707636478
 10
46.19214580115599
 20
45.62351016956299
 10
46.20314842551398
 20
45.17540328661899
 10
46.23635634630358
 20
44.73029711940899
 10
46.29116942037798
 20
44.28909188265319
 10
46.36728757616379
 20
43.85218767178279
 10
46.46461078980318
 20
43.42068474923359
 10
46.58263894200719
 20
42.99518325815238
 10
46.72127200891799
 20
42.57628334168599
 10
46.88010989510438
 20
42.1650852622702
 10
47.05865248127738
 20
41.76188909147839
 10
47.25689976743699
 20
41.3678951156042
 10
47.47425161043638
 20
40.98340340622099
 10
47.71060798641778
 20
40.60961424962238
 10
47.96546877609219
 20
40.2468277173818
 10
48.23893400331739
 20
39.89594402421939
 10
48.53010345337319
 20
39.5577633609976
 10
48.83917717397519
 20
39.23298589472098
 10
49.16395464025179
 20
38.92401219797678
 10
49.50213530347359
 20
38.63274272406318
 10
49.85291897277819
 20
38.3594775445536
 10
50.21560548116098
 20
38.10441670716359
 10
50.58959468547518
 20
37.86806033118219
 10
50.97398637100058
 20
37.65070848818279
 10
51.36808037073259
 20
37.452561225881
 10
51.77127654152439
 20
37.27391861585019
 10
52.18247462094019
 20
37.11528077737939
 10
52.60127451354879
 20
36.97664771046858
 10
53.02667598077219
 20
36.8585195344068
 10
53.45837895103698
 20
36.7612963446252
 10
53.89508311419178
 20
36.68497814112379
 10
54.33648839866319
 20
36.63016506704939
 10
54.78159456587319
 20
36.59705717011759
 10
55.22970144881718
 20
36.58595452190178
 10
55.67790835561899
 20
36.59705717011759
 10
56.12301452282899
 20
36.63016506704939
 10
56.56421975958479
 20
36.68497814112379
 10
57.00112397045518
 20
36.7612963446252
 10
57.43262689300439
 20
36.8585195344068
 10
57.85812838408558
 20
36.97664771046858
 10
58.27692827669419
 20
37.11528077737939
 10
58.68822637996779
 20
37.27391861585019
 10
59.09132252690178
 20
37.452561225881
 10
59.48531650277599
 20
37.65070848818279
 10
59.86990823601699
 20
37.86806033118219
 10
60.24369739261559
 20
38.10441670716359
 10
60.60658394871399
 20
38.3594775445536
 10
60.95736761801859
 20
38.63274272406318
 10
61.29544825738259
 20
38.92401219797678
 10
61.62032574751699
 20
39.23298589472098
 10
61.92919942040339
 20
39.5577633609976
 10
62.22056891817479
 20
39.89594402421939
 10
62.49393412154219
 20
40.2468277173818
 10
62.7488949350744
 20
40.60961424962238
 10
62.98515128719799
 20
40.98340340622099
 10
63.20260315405519
 20
41.3678951156042
 10
63.400750416357
 20
41.76188909147839
 10
63.57939302638778
 20
42.1650852622702
 10
63.7381308887164
 20
42.57628334168599
 10
63.87666393176939
 20
42.99518325815238
 10
63.99469208397338
 20
43.42068474923359
 10
64.09211532147057
 20
43.85218767178279
 10
64.16823347725638
 20
44.28909188265319
 10
64.22314657518858
 20
44.73029711940899
 10
64.25615444826258
 20
45.17540328661899
 10
64.26725709647837
 20
45.62351016956299
 10
64.25615444826258
 20
46.07171707636478
 10
64.22314657518858
 20
46.51682324357478
 10
64.16823347725638
 20
46.95812850418839
 10
64.09211532147057
 20
47.39493269120099
 10
63.99469208397338
 20
47.826535637608
 10
63.87666393176939
 20
48.25193710483138
 10
63.7381308887164
 20
48.6708370212978
 10
63.57939302638778
 20
49.08213512457139
 10
63.400750416357
 20
49.48513124764759
 10
63.20260315405519
 20
49.8793252712374
 10
62.98515128719799
 20
50.26371695676279
 10
62.7488949350744
 20
50.63760613721919
 10
62.49393412154219
 20
51.00039266945979
 10
62.22056891817479
 20
51.35117633876439
 10
61.92919942040339
 20
51.6892569781284
 10
61.62032574751699
 20
52.0141344682628
 10
61.29544825738259
 20
52.32320818886478
 10
60.95736761801859
 20
52.61447766277839
 10
60.60658394871399
 20
52.887742842288
 10
60.24369739261559
 20
53.142803679678
 10
59.86990823601699
 20
53.3791600556594
 10
59.48531650277599
 20
53.59651189865879
 10
59.09132252690178
 20
53.7946591609606
 10
58.68822637996779
 20
53.9732017471336
 10
58.27692827669419
 20
54.13193960946219
 10
57.85812838408558
 20
54.27057267637299
 10
57.43262689300439
 20
54.38870085243479
 10
57.00112397045518
 20
54.48592404221639
 10
56.56421975958479
 20
54.56204219800219
 10
56.12301452282899
 20
54.61695529593439
 10
55.67790835561899
 20
54.650163216724
 10
55.22970144881718
 20
54.661165841082
  0
LWPOLYLINE
  5
70
100
AcDbEntity
  8
0
  6
ByLayer
 62
    0
370
   -1
100
AcDbPolyline
 90
    2
 70
    0
 43
0
 10
37.15459015349479
 20
54.22556194036299
 10
34.14207160427438
 20
54.22556194036299
  0
LWPOLYLINE
  5
71
100
AcDbEntity
  8
0
  6
ByLayer
 62
    0
370
   -1
100
AcDbPolyline
 90
    2
 70
    0
 43
0
 10
34.14207160427438
 20
54.22556194036299
 10
34.14207160427438
 20
49.20466435037639
  0
LWPOLYLINE
  5
72
100
AcDbEntity
  8
0
  6
ByLayer
 62
    0
370
   -1
100
AcDbPolyline
 90
    2
 70
    0
 43
0
 10
34.14207160427438
 20
49.20466435037639
 10
37.15459015349479
 20
49.20466435037639
  0
LWPOLYLINE
  5
73
100
AcDbEntity
  8
0
  6
ByLayer
 62
    0
370
   -1
100
AcDbPolyline
 90
    2
 70
    0
 43
0
 10
37.15459015349479
 20
49.20466435037639
 10
37.15459015349479
 20
54.22556194036299
  0
LWPOLYLINE
  5
74
100
AcDbEntity
  8
0
  6
ByLayer
 62
    0
370
   -1
100
AcDbPolyline
 90
    2
 70
    0
 43
0
 10
65.57276848848397
 20
20.68606206215599
 10
60.55187089849738
 20
20.68606206215599
  0
LWPOLYLINE
  5
75
100
AcDbEntity
  8
0
  6
ByLayer
 62
    0
370
   -1
100
AcDbPolyline
 90
    2
 70
    0
 43
0
 10
60.55187089849738
 20
20.68606206215599
 10
60.55187089849738
 20
17.67354351293558
  0
LWPOLYLINE
  5
76
100
AcDbEntity
  8
0
  6
ByLayer
 62
    0
370
   -1
100
AcDbPolyline
 90
    2
 70
    0
 43
0
 10
60.55187089849738
 20
17.67354351293558
 10
65.57276848848397
 20
17.67354351293558
  0
LWPOLYLINE
  5
77
100
AcDbEntity
  8
0
  6
ByLayer
 62
    0
370
   -1
100
AcDbPolyline
 90
    2
 70
    0
 43
0
 10
65.57276848848397
 20
17.67354351293558
 10
65.57276848848397
 20
20.68606206215599
  0
LWPOLYLINE
  5
78
100
AcDbEntity
  8
0
  6
ByLayer
 62
    0
370
   -1
100
AcDbPolyline
 90
    2
 70
    0
 43
0
 10
9.941399233422183
 20
20.68606206215599
 10
4.920501643435584
 20
20.68606206215599
  0
LWPOLYLINE
  5
79
100
AcDbEntity
  8
0
  6
ByLayer
 62
    0
370
   -1
100
AcDbPolyline
 90
    2
 70
    0
 43
0
 10
4.920501643435584
 20
20.68606206215599
 10
4.920501643435584
 20
17.67354351293558
  0
LWPOLYLINE
  5
7A
100
AcDbEntity
  8
0
  6
ByLayer
 62
    0
370
   -1
100
AcDbPolyline
 90
    2
 70
    0
 43
0
 10
4.920501643435584
 20
17.67354351293558
 10
9.941399233422183
 20
17.67354351293558
  0
LWPOLYLINE
  5
7B
100
AcDbEntity
  8
0
  6
ByLayer
 62
    0
370
   -1
100
AcDbPolyline
 90
    2
 70
    0
 43
0
 10
9.941399233422183
 20
17.67354351293558
 10
9.941399233422183
 20
20.68606206215599
  0
LWPOLYLINE
  5
7C
100
AcDbEntity
  8
0
  6
ByLayer
 62
    0
370
   -1
100
AcDbPolyline
 90
    2
 70
    0
 43
0
 10
37.15459015349479
 20
109.8565310999936
 10
34.14207160427438
 20
109.8565310999936
  0
LWPOLYLINE
  5
7D
100
AcDbEntity
  8
0
  6
ByLayer
 62
    0
370
   -1
100
AcDbPolyline
 90
    2
 70
    0
 43
0
 10
34.14207160427438
 20
109.8565310999936
 10
34.14207160427438
 20
104.8363336770116
  0
LWPOLYLINE
  5
7E
100
AcDbEntity
  8
0
  6
ByLayer
 62
    0
370
   -1
100
AcDbPolyline
 90
    2
 70
    0
 43
0
 10
34.14207160427438
 20
104.8363336770116
 10
37.15459015349479
 20
104.8363336770116
  0
LWPOLYLINE
  5
7F
100
AcDbEntity
  8
0
  6
ByLayer
 62
    0
370
   -1
100
AcDbPolyline
 90
    2
 70
    0
 43
0
 10
37.15459015349479
 20
104.8363336770116
 10
37.15459015349479
 20
109.8565310999936
  0
ENDSEC
  0
SECTION
  2
OBJECTS
  0
DICTIONARY
  5
C
330
0
100
AcDbDictionary
281
    1
  3
ACAD_GROUP
350
D
  0
DICTIONARY
  5
D
330
C
100
AcDbDictionary
281
    1
  0
ENDSEC
  0
EOF
