999
dxfrw 0.6.3
  0
SECTION
  2
HEADER
  9
$ACADVER
  1
AC1021
  9
$DWGCODEPAGE
  3
ANSI_1252
  9
$INSBASE
 10
0
 20
0
 30
0
  9
$EXTMIN
 10
-0.003601225157700363
 20
0
 30
0
  9
$EXTMAX
 10
66.39099196392498
 20
67.89982483069608
 30
0
  9
$LIMMIN
 10
0
 20
0
  9
$LIMMAX
 10
420
 20
297
  9
$ORTHOMODE
 70
    0
  9
$REGENMODE
 70
    1
  9
$FILLMODE
 70
    0
  9
$QTEXTMODE
 70
    0
  9
$MIRRTEXT
 70
    0
  9
$LTSCALE
 40
1
  9
$ATTMODE
 70
    0
  9
$TEXTSIZE
 40
2.5
  9
$TRACEWID
 40
15.68
  9
$TEXTSTYLE
  7
STANDARD
  9
$CLAYER
  8
0
  9
$CELTYPE
  6
BYLAYER
  9
$CECOLOR
 62
  256
  9
$CELTSCALE
 40
1
  9
$DISPSILH
 70
    0
  9
$DIMSCALE
 40
1
  9
$DIMASZ
 40
2.5
  9
$DIMEXO
 40
0.625
  9
$DIMDLI
 40
3.75
  9
$DIMRND
 40
0
  9
$DIMDLE
 40
0
  9
$DIMEXE
 40
1.25
  9
$DIMTP
 40
0
  9
$DIMTM
 40
0
  9
$DIMTXT
 40
2.5
  9
$DIMCEN
 40
2.5
  9
$DIMTSZ
 40
0
  9
$DIMTOL
 70
    0
  9
$DIMLIM
 70
    0
  9
$DIMTIH
 70
    0
  9
$DIMTOH
 70
    0
  9
$DIMSE1
 70
    0
  9
$DIMSE2
 70
    0
  9
$DIMTAD
 70
    1
  9
$DIMZIN
 70
    8
  9
$DIMBLK
  1

  9
$DIMASO
 70
    1
  9
$DIMSHO
 70
    1
  9
$DIMPOST
  1

  9
$DIMAPOST
  1

  9
$DIMALT
 70
    0
  9
$DIMALTD
 70
    3
  9
$DIMALTF
 40
0.03937
  9
$DIMLFAC
 40
1
  9
$DIMTOFL
 70
    1
  9
$DIMTVP
 40
0
  9
$DIMTIX
 70
    0
  9
$DIMSOXD
 70
    0
  9
$DIMSAH
 70
    0
  9
$DIMBLK1
  1

  9
$DIMBLK2
  1

  9
$DIMSTYLE
  2
Standard
  9
$DIMCLRD
 70
    0
  9
$DIMCLRE
 70
    0
  9
$DIMCLRT
 70
    0
  9
$DIMTFAC
 40
1
  9
$DIMGAP
 40
0.625
  9
$DIMJUST
 70
    0
  9
$DIMSD1
 70
    0
  9
$DIMSD2
 70
    0
  9
$DIMTOLJ
 70
    0
  9
$DIMTZIN
 70
    8
  9
$DIMALTZ
 70
    0
  9
$DIMALTTZ
 70
    0
  9
$DIMUPT
 70
    0
  9
$DIMDEC
 70
    2
  9
$DIMTDEC
 70
    2
  9
$DIMALTU
 70
    2
  9
$DIMALTTD
 70
    3
  9
$DIMTXSTY
  7
STANDARD
  9
$DIMAUNIT
 70
    0
  9
$DIMADEC
 70
    0
  9
$DIMALTRND
 40
0
  9
$DIMAZIN
 70
    0
  9
$DIMDSEP
 70
   44
  9
$DIMATFIT
 70
    3
  9
$DIMFRAC
 70
    0
  9
$DIMLDRBLK
  1
STANDARD
  9
$DIMLUNIT
 70
    2
  9
$DIMLWD
 70
   -2
  9
$DIMLWE
 70
   -2
  9
$DIMTMOVE
 70
    0
  9
$DIMFXL
 40
1
  9
$DIMFXLON
 70
    0
  9
$DIMJOGANG
 40
0.7854
  9
$DIMTFILL
 70
    0
  9
$DIMTFILLCLR
 70
    0
  9
$DIMARCSYM
 70
    0
  9
$DIMLTYPE
  6

  9
$DIMLTEX1
  6

  9
$DIMLTEX2
  6

  9
$LUNITS
 70
    2
  9
$LUPREC
 70
    4
  9
$SKETCHINC
 40
1
  9
$FILLETRAD
 40
0
  9
$AUNITS
 70
    0
  9
$AUPREC
 70
    2
  9
$MENU
  1
.
  9
$ELEVATION
 40
0
  9
$PELEVATION
 40
0
  9
$THICKNESS
 40
0
  9
$LIMCHECK
 70
    0
  9
$CHAMFERA
 40
0
  9
$CHAMFERB
 40
0
  9
$CHAMFERC
 40
0
  9
$CHAMFERD
 40
0
  9
$SKPOLY
 70
    0
  9
$USRTIMER
 70
    1
  9
$ANGBASE
 50
0
  9
$ANGDIR
 70
    0
  9
$PDMODE
 70
   34
  9
$PDSIZE
 40
0
  9
$PLINEWID
 40
0
  9
$SPLFRAME
 70
    1
  9
$SPLINETYPE
 70
    2
  9
$SPLINESEGS
 70
    8
  9
$HANDSEED
  5
20000
  9
$SURFTAB1
 70
    6
  9
$SURFTAB2
 70
    6
  9
$SURFTYPE
 70
    6
  9
$SURFU
 70
    6
  9
$SURFV
 70
    6
  9
$UCSBASE
  2

  9
$UCSNAME
  2

  9
$UCSORG
 10
0
 20
0
 30
0
  9
$UCSXDIR
 10
1
 20
0
 30
0
  9
$UCSYDIR
 10
0
 20
1
 30
0
  9
$UCSORTHOREF
  2

  9
$UCSORTHOVIEW
 70
    0
  9
$UCSORGTOP
 10
0
 20
0
 30
0
  9
$UCSORGBOTTOM
 10
0
 20
0
 30
0
  9
$UCSORGLEFT
 10
0
 20
0
 30
0
  9
$UCSORGRIGHT
 10
0
 20
0
 30
0
  9
$UCSORGFRONT
 10
0
 20
0
 30
0
  9
$UCSORGBACK
 10
0
 20
0
 30
0
  9
$PUCSBASE
  2

  9
$PUCSNAME
  2

  9
$PUCSORG
 10
0
 20
0
 30
0
  9
$PUCSXDIR
 10
1
 20
0
 30
0
  9
$PUCSYDIR
 10
0
 20
1
 30
0
  9
$PUCSORTHOREF
  2

  9
$PUCSORTHOVIEW
 70
    0
  9
$PUCSORGTOP
 10
0
 20
0
 30
0
  9
$PUCSORGBOTTOM
 10
0
 20
0
 30
0
  9
$PUCSORGLEFT
 10
0
 20
0
 30
0
  9
$PUCSORGRIGHT
 10
0
 20
0
 30
0
  9
$PUCSORGFRONT
 10
0
 20
0
 30
0
  9
$PUCSORGBACK
 10
0
 20
0
 30
0
  9
$USERI1
 70
    0
  9
$USERI2
 70
    0
  9
$USERI3
 70
    0
  9
$USERI4
 70
    0
  9
$USERI5
 70
    0
  9
$USERR1
 40
0
  9
$USERR2
 40
0
  9
$USERR3
 40
0
  9
$USERR4
 40
0
  9
$USERR5
 40
0
  9
$WORLDVIEW
 70
    1
  9
$SHADEDGE
 70
    3
  9
$SHADEDIF
 70
   70
  9
$TILEMODE
 70
    1
  9
$MAXACTVP
 70
   64
  9
$PINSBASE
 10
0
 20
0
 30
0
  9
$PLIMCHECK
 70
    0
  9
$PEXTMIN
 10
0
 20
0
 30
0
  9
$PEXTMAX
 10
0
 20
0
 30
0
  9
$SNAPSTYLE
 70
    0
  9
$PLIMMIN
 10
0
 20
0
  9
$PLIMMAX
 10
8.26771653543307
 20
11.6929133858268
  9
$UNITMODE
 70
    0
  9
$VISRETAIN
 70
    1
  9
$PLINEGEN
 70
    0
  9
$PSLTSCALE
 70
    1
  9
$TREEDEPTH
 70
 3020
  9
$CMLSTYLE
  2
Standard
  9
$CMLJUST
 70
    0
  9
$CMLSCALE
 40
20
  9
$PROXYGRAPHICS
 70
    1
  9
$MEASUREMENT
 70
    1
  9
$CELWEIGHT
370
   -1
  9
$ENDCAPS
280
    0
  9
$JOINSTYLE
280
    0
  9
$LWDISPLAY
290
    0
  9
$INSUNITS
 70
    4
  9
$HYPERLINKBASE
  1

  9
$STYLESHEET
  1

  9
$XEDIT
290
    1
  9
$CEPSNTYPE
380
    0
  9
$PSTYLEMODE
290
    1
  9
$EXTNAMES
290
    1
  9
$PSVPSCALE
 40
1
  9
$OLESTARTUP
290
    0
  9
$SORTENTS
280
  127
  9
$INDEXCTL
280
    0
  9
$HIDETEXT
280
    1
  9
$XCLIPFRAME
290
    0
  9
$HALOGAP
280
    0
  9
$OBSCOLOR
 70
  257
  9
$OBSLTYPE
280
    0
  9
$INTERSECTIONDISPLAY
280
    0
  9
$INTERSECTIONCOLOR
 70
  257
  9
$DIMASSOC
280
    1
  9
$PROJECTNAME
  1

  9
$CAMERADISPLAY
290
    0
  9
$LENSLENGTH
 40
50
  9
$CAMERAHEIGHT
 40
0
  9
$STEPSPERSEC
 40
2
  9
$STEPSIZE
 40
50
  9
$3DDWFPREC
 40
2
  9
$PSOLWIDTH
 40
5
  9
$PSOLHEIGHT
 40
80
  9
$LOFTANG1
 40
1.570796326794897
  9
$LOFTANG2
 40
1.570796326794897
  9
$LOFTMAG1
 40
0
  9
$LOFTMAG2
 40
0
  9
$LOFTPARAM
 70
    7
  9
$LOFTNORMALS
280
    1
  9
$LATITUDE
 40
1
  9
$LONGITUDE
 40
1
  9
$NORTHDIRECTION
 40
0
  9
$TIMEZONE
 70
-8000
  9
$LIGHTGLYPHDISPLAY
280
    1
  9
$TILEMODELIGHTSYNCH
280
    1
  9
$SOLIDHIST
280
    1
  9
$SHOWHIST
280
    1
  9
$DWFFRAME
280
    2
  9
$DGNFRAME
280
    0
  9
$REALWORLDSCALE
290
    1
  9
$INTERFERECOLOR
 62
    1
  9
$CSHADOW
280
    0
  9
$SHADOWPLANELOCATION
 40
0
  0
ENDSEC
  0
SECTION
  2
CLASSES
  0
ENDSEC
  0
SECTION
  2
TABLES
  0
TABLE
  2
VPORT
  5
8
330
0
100
AcDbSymbolTable
 70
    1
  0
VPORT
  5
31
330
2
100
AcDbSymbolTableRecord
100
AcDbViewportTableRecord
  2
*ACTIVE
 70
    0
 10
0
 20
0
 11
1
 21
1
 12
58.00000000000051
 22
47.52000000000042
 13
0
 23
0
 14
10
 24
10
 15
10
 25
10
 16
0
 26
0
 36
1
 17
0
 27
0
 37
0
 40
80.96000000000072
 41
1.984189723320158
 42
50
 43
0
 44
0
 50
0
 51
0
 71
    0
 72
  100
 73
    1
 74
    3
 75
    0
 76
    1
 77
    0
 78
    0
281
    0
 65
    1
110
0
120
0
130
0
111
1
121
0
131
0
112
0
122
1
132
0
 79
    0
146
0
348
10020
 60
    7
 61
    5
292
1
282
    1
141
0
142
0
 63
  250
421
3358443
  0
ENDTAB
  0
TABLE
  2
LTYPE
  5
5
330
0
100
AcDbSymbolTable
 70
    4
  0
LTYPE
  5
14
330
5
100
AcDbSymbolTableRecord
100
AcDbLinetypeTableRecord
  2
ByBlock
 70
    0
  3

 72
   65
 73
    0
 40
0
  0
LTYPE
  5
15
330
5
100
AcDbSymbolTableRecord
100
AcDbLinetypeTableRecord
  2
ByLayer
 70
    0
  3

 72
   65
 73
    0
 40
0
  0
LTYPE
  5
16
330
5
100
AcDbSymbolTableRecord
100
AcDbLinetypeTableRecord
  2
Continuous
 70
    0
  3
Solid line
 72
   65
 73
    0
 40
0
  0
LTYPE
  5
32
330
5
100
AcDbSymbolTableRecord
100
AcDbLinetypeTableRecord
  2
DOT
 70
    0
  3
Dot . . . . . . . . . . . . . . . . . . . . . .
 72
   65
 73
    2
 40
6.35
 49
0
 74
    0
 49
-6.35
 74
    0
  0
LTYPE
  5
33
330
5
100
AcDbSymbolTableRecord
100
AcDbLinetypeTableRecord
  2
DOTTINY
 70
    0
  3
Dot (.15x) .....................................
 72
   65
 73
    2
 40
0.9525
 49
0
 74
    0
 49
-0.9525
 74
    0
  0
LTYPE
  5
34
330
5
100
AcDbSymbolTableRecord
100
AcDbLinetypeTableRecord
  2
DOT2
 70
    0
  3
Dot (.5x) .....................................
 72
   65
 73
    2
 40
3.175
 49
0
 74
    0
 49
-3.175
 74
    0
  0
LTYPE
  5
35
330
5
100
AcDbSymbolTableRecord
100
AcDbLinetypeTableRecord
  2
DOTX2
 70
    0
  3
Dot (2x) .  .  .  .  .  .  .  .  .  .  .  .  .
 72
   65
 73
    2
 40
12.7
 49
0
 74
    0
 49
-12.7
 74
    0
  0
LTYPE
  5
36
330
5
100
AcDbSymbolTableRecord
100
AcDbLinetypeTableRecord
  2
DASHED
 70
    0
  3
Dashed _ _ _ _ _ _ _ _ _ _ _ _ _ _ _ _ _
 72
   65
 73
    2
 40
19.05
 49
12.7
 74
    0
 49
-6.35
 74
    0
  0
LTYPE
  5
37
330
5
100
AcDbSymbolTableRecord
100
AcDbLinetypeTableRecord
  2
DASHEDTINY
 70
    0
  3
Dashed (.15x) _ _ _ _ _ _ _ _ _ _ _ _ _ _ _ _ _
 72
   65
 73
    2
 40
2.8575
 49
1.905
 74
    0
 49
-0.9525
 74
    0
  0
LTYPE
  5
38
330
5
100
AcDbSymbolTableRecord
100
AcDbLinetypeTableRecord
  2
DASHED2
 70
    0
  3
Dashed (.5x) _ _ _ _ _ _ _ _ _ _ _ _ _ _ _ _ _
 72
   65
 73
    2
 40
9.524999999999999
 49
6.35
 74
    0
 49
-3.175
 74
    0
  0
LTYPE
  5
39
330
5
100
AcDbSymbolTableRecord
100
AcDbLinetypeTableRecord
  2
DASHEDX2
 70
    0
  3
Dashed (2x) ____  ____  ____  ____  ____  ___
 72
   65
 73
    2
 40
38.09999999999999
 49
25.4
 74
    0
 49
-12.7
 74
    0
  0
LTYPE
  5
3A
330
5
100
AcDbSymbolTableRecord
100
AcDbLinetypeTableRecord
  2
DASHDOT
 70
    0
  3
Dash dot __ . __ . __ . __ . __ . __ . __ . __
 72
   65
 73
    4
 40
25.4
 49
12.7
 74
    0
 49
-6.35
 74
    0
 49
0
 74
    0
 49
-6.35
 74
    0
  0
LTYPE
  5
3B
330
5
100
AcDbSymbolTableRecord
100
AcDbLinetypeTableRecord
  2
DASHDOTTINY
 70
    0
  3
Dash dot (.15x) _._._._._._._._._._._._._._._.
 72
   65
 73
    4
 40
3.81
 49
1.905
 74
    0
 49
-0.9525
 74
    0
 49
0
 74
    0
 49
-0.9525
 74
    0
  0
LTYPE
  5
3C
330
5
100
AcDbSymbolTableRecord
100
AcDbLinetypeTableRecord
  2
DASHDOT2
 70
    0
  3
Dash dot (.5x) _._._._._._._._._._._._._._._.
 72
   65
 73
    4
 40
12.7
 49
6.35
 74
    0
 49
-3.175
 74
    0
 49
0
 74
    0
 49
-3.175
 74
    0
  0
LTYPE
  5
3D
330
5
100
AcDbSymbolTableRecord
100
AcDbLinetypeTableRecord
  2
DASHDOTX2
 70
    0
  3
Dash dot (2x) ____  .  ____  .  ____  .  ___
 72
   65
 73
    4
 40
50.8
 49
25.4
 74
    0
 49
-12.7
 74
    0
 49
0
 74
    0
 49
-12.7
 74
    0
  0
LTYPE
  5
3E
330
5
100
AcDbSymbolTableRecord
100
AcDbLinetypeTableRecord
  2
DIVIDE
 70
    0
  3
Divide ____ . . ____ . . ____ . . ____ . . ____
 72
   65
 73
    6
 40
31.75
 49
12.7
 74
    0
 49
-6.35
 74
    0
 49
0
 74
    0
 49
-6.35
 74
    0
 49
0
 74
    0
 49
-6.35
 74
    0
  0
LTYPE
  5
3F
330
5
100
AcDbSymbolTableRecord
100
AcDbLinetypeTableRecord
  2
DIVIDETINY
 70
    0
  3
Divide (.15x) __..__..__..__..__..__..__..__.._
 72
   65
 73
    6
 40
4.7625
 49
1.905
 74
    0
 49
-0.9525
 74
    0
 49
0
 74
    0
 49
-0.9525
 74
    0
 49
0
 74
    0
 49
-0.9525
 74
    0
  0
LTYPE
  5
40
330
5
100
AcDbSymbolTableRecord
100
AcDbLinetypeTableRecord
  2
DIVIDE2
 70
    0
  3
Divide (.5x) __..__..__..__..__..__..__..__.._
 72
   65
 73
    6
 40
15.875
 49
6.35
 74
    0
 49
-3.175
 74
    0
 49
0
 74
    0
 49
-3.175
 74
    0
 49
0
 74
    0
 49
-3.175
 74
    0
  0
LTYPE
  5
41
330
5
100
AcDbSymbolTableRecord
100
AcDbLinetypeTableRecord
  2
DIVIDEX2
 70
    0
  3
Divide (2x) ________  .  .  ________  .  .  _
 72
   65
 73
    6
 40
63.5
 49
25.4
 74
    0
 49
-12.7
 74
    0
 49
0
 74
    0
 49
-12.7
 74
    0
 49
0
 74
    0
 49
-12.7
 74
    0
  0
LTYPE
  5
42
330
5
100
AcDbSymbolTableRecord
100
AcDbLinetypeTableRecord
  2
BORDER
 70
    0
  3
Border __ __ . __ __ . __ __ . __ __ . __ __ .
 72
   65
 73
    6
 40
44.45
 49
12.7
 74
    0
 49
-6.35
 74
    0
 49
12.7
 74
    0
 49
-6.35
 74
    0
 49
0
 74
    0
 49
-6.35
 74
    0
  0
LTYPE
  5
43
330
5
100
AcDbSymbolTableRecord
100
AcDbLinetypeTableRecord
  2
BORDERTINY
 70
    0
  3
Border (.15x) __.__.__.__.__.__.__.__.__.__.__.
 72
   65
 73
    6
 40
6.6675
 49
1.905
 74
    0
 49
-0.9525
 74
    0
 49
1.905
 74
    0
 49
-0.9525
 74
    0
 49
0
 74
    0
 49
-0.9525
 74
    0
  0
LTYPE
  5
44
330
5
100
AcDbSymbolTableRecord
100
AcDbLinetypeTableRecord
  2
BORDER2
 70
    0
  3
Border (.5x) __.__.__.__.__.__.__.__.__.__.__.
 72
   65
 73
    6
 40
22.225
 49
6.35
 74
    0
 49
-3.175
 74
    0
 49
6.35
 74
    0
 49
-3.175
 74
    0
 49
0
 74
    0
 49
-3.175
 74
    0
  0
LTYPE
  5
45
330
5
100
AcDbSymbolTableRecord
100
AcDbLinetypeTableRecord
  2
BORDERX2
 70
    0
  3
Border (2x) ____  ____  .  ____  ____  .  ___
 72
   65
 73
    6
 40
88.89999999999999
 49
25.4
 74
    0
 49
-12.7
 74
    0
 49
25.4
 74
    0
 49
-12.7
 74
    0
 49
0
 74
    0
 49
-12.7
 74
    0
  0
LTYPE
  5
46
330
5
100
AcDbSymbolTableRecord
100
AcDbLinetypeTableRecord
  2
CENTER
 70
    0
  3
Center ____ _ ____ _ ____ _ ____ _ ____ _ ____
 72
   65
 73
    4
 40
50.8
 49
31.75
 74
    0
 49
-6.35
 74
    0
 49
6.35
 74
    0
 49
-6.35
 74
    0
  0
LTYPE
  5
47
330
5
100
AcDbSymbolTableRecord
100
AcDbLinetypeTableRecord
  2
CENTERTINY
 70
    0
  3
Center (.15x) ___ _ ___ _ ___ _ ___ _ ___ _ ___
 72
   65
 73
    4
 40
7.619999999999999
 49
4.7625
 74
    0
 49
-0.9525
 74
    0
 49
0.9525
 74
    0
 49
-0.9525
 74
    0
  0
LTYPE
  5
48
330
5
100
AcDbSymbolTableRecord
100
AcDbLinetypeTableRecord
  2
CENTER2
 70
    0
  3
Center (.5x) ___ _ ___ _ ___ _ ___ _ ___ _ ___
 72
   65
 73
    4
 40
28.575
 49
19.05
 74
    0
 49
-3.175
 74
    0
 49
3.175
 74
    0
 49
-3.175
 74
    0
  0
LTYPE
  5
49
330
5
100
AcDbSymbolTableRecord
100
AcDbLinetypeTableRecord
  2
CENTERX2
 70
    0
  3
Center (2x) ________  __  ________  __  _____
 72
   65
 73
    4
 40
101.6
 49
63.5
 74
    0
 49
-12.7
 74
    0
 49
12.7
 74
    0
 49
-12.7
 74
    0
  0
ENDTAB
  0
TABLE
  2
LAYER
  5
2
330
0
100
AcDbSymbolTable
 70
    1
  0
LAYER
  5
10
330
2
100
AcDbSymbolTableRecord
100
AcDbLayerTableRecord
  2
0
 70
    0
 62
    7
  6
CONTINUOUS
370
   -3
390
F
  0
ENDTAB
  0
TABLE
  2
STYLE
  5
3
330
0
100
AcDbSymbolTable
 70
    3
  0
STYLE
  5
4A
330
2
100
AcDbSymbolTableRecord
100
AcDbTextStyleTableRecord
  2
Standard
 70
    0
 40
0
 41
1
 50
0
 71
    0
 42
1
  3
txt
  4

  0
ENDTAB
  0
TABLE
  2
VIEW
  5
6
330
0
100
AcDbSymbolTable
 70
    0
  0
ENDTAB
  0
TABLE
  2
UCS
  5
7
330
0
100
AcDbSymbolTable
 70
    0
  0
ENDTAB
  0
TABLE
  2
APPID
  5
9
330
0
100
AcDbSymbolTable
 70
    1
  0
APPID
  5
12
330
9
100
AcDbSymbolTableRecord
100
AcDbRegAppTableRecord
  2
ACAD
 70
    0
  0
APPID
  5
4B
330
9
100
AcDbSymbolTableRecord
100
AcDbRegAppTableRecord
  2
LibreCad
 70
    0
  0
ENDTAB
  0
TABLE
  2
DIMSTYLE
  5
A
330
0
100
AcDbSymbolTable
 70
    1
100
AcDbDimStyleTable
 71
    1
  0
DIMSTYLE
105
4C
330
A
100
AcDbSymbolTableRecord
100
AcDbDimStyleTableRecord
  2
Standard
 70
    0
 40
1
 41
2.5
 42
0.625
 43
0.38
 44
1.25
 45
0
 46
0
 47
0
 48
0
 49
1
140
2.5
141
0.09
142
0
143
25.4
144
1
145
0
146
1
147
0.625
148
0
 71
    0
 72
    0
 73
    0
 74
    1
 75
    0
 76
    0
 77
    0
 78
    1
 79
    0
170
    0
171
    2
172
    0
173
    0
174
    0
175
    0
176
    0
177
    0
178
    0
179
    0
271
    2
272
    4
273
    2
274
    2
275
    0
276
    0
277
    2
278
    0
279
    0
280
    0
281
    0
282
    0
283
    1
284
    0
285
    0
286
    0
288
    0
289
    3
340
standard
341

371
   -2
372
   -2
  0
ENDTAB
  0
TABLE
  2
BLOCK_RECORD
  5
1
330
0
100
AcDbSymbolTable
 70
    2
  0
BLOCK_RECORD
  5
1F
330
1
100
AcDbSymbolTableRecord
100
AcDbBlockTableRecord
  2
*Model_Space
 70
    0
280
    1
281
    0
  0
BLOCK_RECORD
  5
1E
330
1
100
AcDbSymbolTableRecord
100
AcDbBlockTableRecord
  2
*Paper_Space
 70
    0
280
    1
281
    0
  0
ENDTAB
  0
ENDSEC
  0
SECTION
  2
BLOCKS
  0
BLOCK
  5
20
330
1F
100
AcDbEntity
  8
0
100
AcDbBlockBegin
  2
*Model_Space
 70
    0
 10
0
 20
0
 30
0
  3
*Model_Space
  1

  0
ENDBLK
  5
21
330
1F
100
AcDbEntity
  8
0
100
AcDbBlockEnd
  0
BLOCK
  5
1C
330
1B
100
AcDbEntity
  8
0
100
AcDbBlockBegin
  2
*Paper_Space
 70
    0
 10
0
 20
0
 30
0
  3
*Paper_Space
  1

  0
ENDBLK
  5
1D
330
1F
100
AcDbEntity
  8
0
100
AcDbBlockEnd
  0
ENDSEC
  0
SECTION
  2
ENTITIES
  0
LWPOLYLINE
  5
4D
100
AcDbEntity
  8
0
  6
ByLayer
 62
    0
370
   -1
100
AcDbPolyline
 90
    2
 70
    0
 43
0
 10
21.69435574126698
 20
16.33048175819508
 10
6.812835978631832
 20
10.68772407045258
  0
LWPOLYLINE
  5
4E
100
AcDbEntity
  8
0
  6
ByLayer
 62
    0
370
   -1
100
AcDbPolyline
 90
   33
 70
    0
 43
0
 10
6.812835978631832
 20
10.68772407045258
 10
6.339063625343131
 20
10.53381696175758
 10
5.85596631193938
 20
10.42809384330108
 10
5.367135204290131
 20
10.37055471508308
 10
4.87612123111233
 20
10.36099839134058
 10
4.386535676851831
 20
10.39932427919208
 10
3.90194958880188
 20
10.48543178575608
 10
3.42589377710313
 20
10.61932091103258
 10
2.962009704065879
 20
10.80079046925858
 10
2.51831462234568
 20
11.02722504551508
 10
2.102121634427579
 20
11.29429914589758
 10
1.71595562163723
 20
11.59949794836858
 10
1.36225093170693
 20
11.94010544512758
 10
1.04342179379268
 20
12.31360681413708
 10
0.76192468606071
 20
12.71738664047808
 10
0.5202110570331748
 20
13.14872891635008
 10
0.3207937168899447
 20
13.60521941259708
 10
0.1674368512567498
 20
14.07911247734358
 10
0.06232634344858488
 20
14.56236068006958
 10
0.005348523509354794
 20
15.05124208415958
 10
-0.003601225157700363
 20
15.54233653164258
 10
0.03536543934895488
 20
16.03192208590308
 10
0.1221398767172996
 20
16.51627681032558
 10
0.2565581205504897
 20
16.99208113982058
 10
0.4386211767773401
 20
17.45581432353558
 10
0.6655436285091149
 20
17.89932833806908
 10
0.9331820549568299
 20
18.31507871730858
 10
1.23885364397088
 20
18.70095301074258
 10
1.57994398656108
 20
19.05413461768908
 10
1.95384772709658
 20
19.37251108763658
 10
2.35797962852283
 20
19.65346700566608
 10
2.78966392019193
 20
19.89468873550308
 10
3.24640589864268
 20
20.09346026934708
  0
LWPOLYLINE
  5
4F
100
AcDbEntity
  8
0
  6
ByLayer
 62
    0
370
   -1
100
AcDbPolyline
 90
    2
 70
    0
 43
0
 10
3.24640589864268
 20
20.09346026934708
 10
28.28298829375398
 20
29.65742907084108
  0
LWPOLYLINE
  5
50
100
AcDbEntity
  8
0
  6
ByLayer
 62
    0
370
   -1
100
AcDbPolyline
 90
   17
 70
    0
 43
0
 10
28.28298829375398
 20
29.65742907084108
 10
28.88292423901998
 20
29.85016503179508
 10
29.48849338564998
 20
30.01704862220358
 10
30.09899158347348
 20
30.15848221359258
 10
30.71341290367548
 20
30.27406343443608
 10
31.33115378896698
 20
30.36399347049708
 10
31.95120831053298
 20
30.42817172889408
 10
32.57287231820298
 20
30.46669880250858
 10
33.19544166180648
 20
30.47957469134058
 10
33.81801100540999
 20
30.46669880250858
 10
34.43977560596149
 20
30.42817172889408
 10
35.05972953464599
 20
30.36399347049708
 10
35.67747041993749
 20
30.27406343443608
 10
36.29199233302099
 20
30.15848221359258
 10
36.90238993796299
 20
30.01704862220358
 10
37.50795908459298
 20
29.85016503179508
 10
38.10799562274048
 20
29.65742907084108
  0
LWPOLYLINE
  5
51
100
AcDbEntity
  8
0
  6
ByLayer
 62
    0
370
   -1
100
AcDbPolyline
 90
    2
 70
    0
 43
0
 10
38.10799562274048
 20
29.65742907084108
 10
63.14455789927548
 20
20.09346026934708
  0
LWPOLYLINE
  5
52
100
AcDbEntity
  8
0
  6
ByLayer
 62
    0
370
   -1
100
AcDbPolyline
 90
   33
 70
    0
 43
0
 10
63.14455789927548
 20
20.09346026934708
 10
63.61543317757699
 20
19.88654071210158
 10
64.05482288396898
 20
19.63797570191508
 10
64.46101693946598
 20
19.35098421099558
 10
64.8325064508455
 20
19.02898639731408
 10
65.16788311776649
 20
18.67500004731558
 10
65.4658392327695
 20
18.29244531897108
 10
65.72466471686899
 20
17.88464177737008
 10
65.94305186260549
 20
17.45460720895758
 10
66.119592369638
 20
17.00586236458608
 10
66.2526767518625
 20
16.54132443781908
 10
66.3409973018195
 20
16.06461477239058
 10
66.38284394052349
 20
15.57875115474558
 10
66.37700955339649
 20
15.08715374285508
 10
66.32198524721599
 20
14.59284032316408
 10
66.21616153587799
 20
14.09943223940658
 10
66.05833130480448
 20
13.60964549938308
 10
65.85191471196649
 20
13.13846844243708
 10
65.60385266618748
 20
12.69887755028208
 10
65.31736413967549
 20
12.29238171614058
 10
64.99576869751998
 20
11.92048983323508
 10
64.64228531192899
 20
11.58461020190658
 10
64.26023354799199
 20
11.28625171537758
 10
63.85253059927248
 20
11.02682267398908
 10
63.42289840238599
 20
10.80793256384508
 10
62.97425415089599
 20
10.63078849952358
 10
62.51001800277349
 20
10.49710056001008
 10
62.03330833734499
 20
10.40827704564558
 10
61.54754531258148
 20
10.36562566388958
 10
61.05594790069099
 20
10.37085649372758
 10
60.56163448099998
 20
10.42527724261908
 10
60.06802521147949
 20
10.53039680378658
 10
59.57813787857449
 20
10.68772407045258
  0
LWPOLYLINE
  5
53
100
AcDbEntity
  8
0
  6
ByLayer
 62
    0
370
   -1
100
AcDbPolyline
 90
    2
 70
    0
 43
0
 10
44.69672876810898
 20
16.33048175819508
 10
59.57813787857449
 20
10.68772407045258
  0
LWPOLYLINE
  5
54
100
AcDbEntity
  8
0
  6
ByLayer
 62
    0
370
   -1
100
AcDbPolyline
 90
   17
 70
    0
 43
0
 10
39.23101455180648
 20
12.57404178434058
 10
39.26119241625648
 20
13.06624275352008
 10
39.35001593062099
 20
13.54576901963058
 10
39.49507086574398
 20
14.00769153147858
 10
39.69374180670648
 20
14.44758420227808
 10
39.94371511723399
 20
14.86051798083558
 10
40.24237538240749
 20
15.24166440883908
 10
40.58720778018949
 20
15.58649680662108
 10
40.97579808142399
 20
15.89018671586958
 10
41.39838877660549
 20
16.14408314877558
 10
41.84381405588748
 20
16.34235171821208
 10
42.30674249655048
 20
16.48459005265308
 10
42.78184267587499
 20
16.56989281616508
 10
43.26368257825999
 20
16.59775704434058
 10
43.74693078098598
 20
16.56757917989058
 10
44.22645704709648
 20
16.47865507264458
 10
44.69672876810898
 20
16.33048175819508
  0
LWPOLYLINE
  5
55
100
AcDbEntity
  8
0
  6
ByLayer
 62
    0
370
   -1
100
AcDbPolyline
 90
    2
 70
    0
 43
0
 10
39.23101455180648
 20
6.035524605416881
 10
39.23101455180648
 20
12.57404178434058
  0
LWPOLYLINE
  5
56
100
AcDbEntity
  8
0
  6
ByLayer
 62
    0
370
   -1
100
AcDbPolyline
 90
   49
 70
    0
 43
0
 10
39.23101455180648
 20
6.035524605416881
 10
39.21763569856699
 20
5.633354265179881
 10
39.17790151037448
 20
5.236102916848231
 10
39.11251613739949
 20
4.844846904253981
 10
39.02218372981248
 20
4.460813460551431
 10
38.90720606625798
 20
4.08493809953853
 10
38.76858907555098
 20
3.71841787650513
 10
38.60683572209899
 20
3.362379431724031
 10
38.42234837742799
 20
3.01784881258653
 10
38.21613297035299
 20
2.685922481500981
 10
37.98869246528148
 20
2.36773713802833
 10
37.74073101238399
 20
2.06440936315323
 10
37.47265098318648
 20
1.77696520426698
 10
37.18525712074099
 20
1.50660171665943
 10
36.87915298233649
 20
1.25435500701003
 10
36.55484153238049
 20
1.02132153772713
 10
36.21322810680648
 20
0.8085857000733
 10
35.85823582799298
 20
0.6190998951205651
 10
35.49439137560748
 20
0.454827695915805
 10
35.12290186422798
 20
0.31587975462867
 10
34.74497440843249
 20
0.20214541908951
 10
34.36201730856198
 20
0.11373433553916
 10
33.97533827207598
 20
0.05053585180796998
 10
33.58604382067098
 20
0.01266062006558999
 10
33.19544166180648
 20
0
 10
32.80494009582348
 20
0.01266062006558999
 10
32.41554505153699
 20
0.05053585180796998
 10
32.02886601505098
 20
0.11373433553916
 10
31.64590891518048
 20
0.20214541908951
 10
31.26808205226648
 20
0.31587975462867
 10
30.89659254088699
 20
0.454827695915805
 10
30.53264749561998
 20
0.6190998951205651
 10
30.17765521680648
 20
0.8085857000733
 10
29.83604179123248
 20
1.02132153772713
 10
29.51193152703948
 20
1.25435500701003
 10
29.20582738863498
 20
1.50660171665943
 10
28.91833293330798
 20
1.77696520426698
 10
28.65035349699198
 20
2.06440936315323
 10
28.40219085833148
 20
2.36773713802833
 10
28.17475035325998
 20
2.685922481500981
 10
27.96853494618498
 20
3.01784881258653
 10
27.78424878727698
 20
3.362379431724031
 10
27.62229424806198
 20
3.71841787650513
 10
27.48377785023648
 20
4.08493809953853
 10
27.36890077956348
 20
4.460813460551431
 10
27.27836718621348
 20
4.844846904253981
 10
27.21298181323848
 20
5.236102916848231
 10
27.17324762504598
 20
5.633354265179881
 10
27.15996936468798
 20
6.035524605416881
  0
LWPOLYLINE
  5
57
100
AcDbEntity
  8
0
  6
ByLayer
 62
    0
370
   -1
100
AcDbPolyline
 90
    2
 70
    0
 43
0
 10
27.15996936468798
 20
6.035524605416881
 10
27.15996936468798
 20
12.57404178434058
  0
LWPOLYLINE
  5
58
100
AcDbEntity
  8
0
  6
ByLayer
 62
    0
370
   -1
100
AcDbPolyline
 90
   17
 70
    0
 43
0
 10
21.69435574126698
 20
16.33048175819508
 10
22.16462746227948
 20
16.47865507264458
 10
22.64395254262698
 20
16.56757917989058
 10
23.12740193111598
 20
16.59775704434058
 10
23.60914124061948
 20
16.56989281616508
 10
24.08414082706248
 20
16.48459005265308
 10
24.54716986060698
 20
16.34235171821208
 10
24.99249454700748
 20
16.14408314877558
 10
25.41528642795198
 20
15.89018671586958
 10
25.80387672918648
 20
15.58649680662108
 10
26.14860853408698
 20
15.24166440883908
 10
26.44716820637898
 20
14.86051798083558
 10
26.69714151690648
 20
14.44758420227808
 10
26.89581245786898
 20
14.00769153147858
 10
27.04086739299198
 20
13.54576901963058
 10
27.12969090735648
 20
13.06624275352008
 10
27.15996936468798
 20
12.57404178434058
  0
LWPOLYLINE
  5
59
100
AcDbEntity
  8
0
  6
ByLayer
 62
    0
370
   -1
100
AcDbPolyline
 90
   33
 70
    1
 43
0
 10
61.36134788892499
 20
14.88777865172208
 10
61.46274551347699
 20
14.89793853275358
 10
61.55720222920549
 20
14.92731165415158
 10
61.64260558559899
 20
14.97358437964158
 10
61.71704431790899
 20
15.03504663023808
 10
61.77850656850548
 20
15.10948536254808
 10
61.82477929399548
 20
15.19488871894158
 10
61.85405182251199
 20
15.28934543467008
 10
61.86431229642499
 20
15.39074305922208
 10
61.85405182251199
 20
15.49204009089258
 10
61.82477929399548
 20
15.58649680662108
 10
61.77850656850548
 20
15.67179957013308
 10
61.71704431790899
 20
15.74633889532458
 10
61.64260558559899
 20
15.80780114592108
 10
61.55720222920549
 20
15.85417446429258
 10
61.46274551347699
 20
15.88334639992758
 10
61.36134788892499
 20
15.89370746672208
 10
61.26005085725448
 20
15.88334639992758
 10
61.16559414152599
 20
15.85417446429258
 10
61.08019078513249
 20
15.80780114592108
 10
61.00575205282249
 20
15.74633889532458
 10
60.94428980222599
 20
15.67179957013308
 10
60.89791648385449
 20
15.58649680662108
 10
60.86874454821949
 20
15.49204009089258
 10
60.85838348142499
 20
15.39074305922208
 10
60.86874454821949
 20
15.28934543467008
 10
60.89791648385449
 20
15.19488871894158
 10
60.94428980222599
 20
15.10948536254808
 10
61.00575205282249
 20
15.03504663023808
 10
61.08019078513249
 20
14.97358437964158
 10
61.16559414152599
 20
14.92731165415158
 10
61.26005085725448
 20
14.89793853275358
 10
61.36134788892499
 20
14.88777865172208
  0
LWPOLYLINE
  5
5A
100
AcDbEntity
  8
0
  6
ByLayer
 62
    0
370
   -1
100
AcDbPolyline
 90
   33
 70
    1
 43
0
 10
5.029585731128729
 20
14.88777865172208
 10
5.130933059239981
 20
14.89793853275358
 10
5.22534953781588
 20
14.92731165415158
 10
5.310752894209379
 20
14.97358437964158
 10
5.385191626519379
 20
15.03504663023808
 10
5.446653877115881
 20
15.10948536254808
 10
5.49298695833478
 20
15.19488871894158
 10
5.522299724003879
 20
15.28934543467008
 10
5.532550138628729
 20
15.39074305922208
 10
5.522299724003879
 20
15.49204009089258
 10
5.49298695833478
 20
15.58649680662108
 10
5.446653877115881
 20
15.67179957013308
 10
5.385191626519379
 20
15.74633889532458
 10
5.310752894209379
 20
15.80780114592108
 10
5.22534953781588
 20
15.85417446429258
 10
5.130933059239981
 20
15.88334639992758
 10
5.029585731128729
 20
15.89370746672208
 10
4.928198165864879
 20
15.88334639992758
 10
4.83378168728898
 20
15.85417446429258
 10
4.74835821231918
 20
15.80780114592108
 10
4.67391948000918
 20
15.74633889532458
 10
4.612477347988979
 20
15.67179957013308
 10
4.566134207481931
 20
15.58649680662108
 10
4.536831501100981
 20
15.49204009089258
 10
4.52662132362873
 20
15.39074305922208
 10
4.536831501100981
 20
15.28934543467008
 10
4.566134207481931
 20
15.19488871894158
 10
4.612477347988979
 20
15.10948536254808
 10
4.67391948000918
 20
15.03504663023808
 10
4.74835821231918
 20
14.97358437964158
 10
4.83378168728898
 20
14.92731165415158
 10
4.928198165864879
 20
14.89793853275358
 10
5.029585731128729
 20
14.88777865172208
  0
LWPOLYLINE
  5
5B
100
AcDbEntity
  8
0
  6
ByLayer
 62
    0
370
   -1
100
AcDbPolyline
 90
   33
 70
    1
 43
0
 10
33.19544166180648
 20
14.88777865172208
 10
33.29683928635848
 20
14.89793853275358
 10
33.39119540920549
 20
14.92731165415158
 10
33.47669935848048
 20
14.97358437964158
 10
33.55113809079048
 20
15.03504663023808
 10
33.61249974850548
 20
15.10948536254808
 10
33.65887306687699
 20
15.19488871894158
 10
33.68824618827499
 20
15.28934543467008
 10
33.69840606930648
 20
15.39074305922208
 10
33.68824618827499
 20
15.49204009089258
 10
33.65887306687699
 20
15.58649680662108
 10
33.61249974850548
 20
15.67179957013308
 10
33.55113809079048
 20
15.74633889532458
 10
33.47669935848048
 20
15.80780114592108
 10
33.39119540920549
 20
15.85417446429258
 10
33.29683928635848
 20
15.88334639992758
 10
33.19544166180648
 20
15.89370746672208
 10
33.09404403725448
 20
15.88334639992758
 10
32.99968791440749
 20
15.85417446429258
 10
32.91418396513249
 20
15.80780114592108
 10
32.83984582570398
 20
15.74633889532458
 10
32.77838357510748
 20
15.67179957013308
 10
32.73201025673599
 20
15.58649680662108
 10
32.70273772821949
 20
15.49204009089258
 10
32.69247725430648
 20
15.39074305922208
 10
32.70273772821949
 20
15.28934543467008
 10
32.73201025673599
 20
15.19488871894158
 10
32.77838357510748
 20
15.10948536254808
 10
32.83984582570398
 20
15.03504663023808
 10
32.91418396513249
 20
14.97358437964158
 10
32.99968791440749
 20
14.92731165415158
 10
33.09404403725448
 20
14.89793853275358
 10
33.19544166180648
 20
14.88777865172208
  0
LWPOLYLINE
  5
5C
100
AcDbEntity
  8
0
  6
ByLayer
 62
    0
370
   -1
100
AcDbPolyline
 90
    2
 70
    0
 43
0
 10
39.23101455180648
 20
67.89982483069608
 10
63.373205518925
 20
67.89982483069608
  0
LWPOLYLINE
  5
5D
100
AcDbEntity
  8
0
  6
ByLayer
 62
    0
370
   -1
100
AcDbPolyline
 90
    2
 70
    0
 43
0
 10
63.373205518925
 20
67.89982483069608
 10
66.39099196392498
 20
64.88213897857759
  0
LWPOLYLINE
  5
5E
100
AcDbEntity
  8
0
  6
ByLayer
 62
    0
370
   -1
100
AcDbPolyline
 90
    2
 70
    0
 43
0
 10
66.39099196392498
 20
64.88213897857759
 10
66.39099196392498
 20
60.85842371857758
  0
LWPOLYLINE
  5
5F
100
AcDbEntity
  8
0
  6
ByLayer
 62
    0
370
   -1
100
AcDbPolyline
 90
    2
 70
    0
 43
0
 10
66.39099196392498
 20
60.85842371857758
 10
63.373205518925
 20
57.84063727357758
  0
LWPOLYLINE
  5
60
100
AcDbEntity
  8
0
  6
ByLayer
 62
    0
370
   -1
100
AcDbPolyline
 90
    2
 70
    0
 43
0
 10
63.373205518925
 20
57.84063727357758
 10
39.23101455180648
 20
57.84063727357758
  0
LWPOLYLINE
  5
61
100
AcDbEntity
  8
0
  6
ByLayer
 62
    0
370
   -1
100
AcDbPolyline
 90
   33
 70
    0
 43
0
 10
39.23101455180648
 20
57.84063727357758
 10
38.71678374157849
 20
57.86669082988609
 10
38.21744067781248
 20
57.94283964118159
 10
37.73539958966449
 20
58.06687066407108
 10
37.27327589205348
 20
58.23586670499108
 10
36.83358440701699
 20
58.44771531343008
 10
36.41894054947399
 20
58.69959988870608
 10
36.03175854858048
 20
58.98920679454459
 10
35.67455322637398
 20
59.31382002314509
 10
35.34993999777348
 20
59.67102534535159
 10
35.06033309193499
 20
60.05820734624508
 10
34.80844851665898
 20
60.47285120378809
 10
34.59659990821999
 20
60.91254268882458
 10
34.42760386729999
 20
61.37466638643559
 10
34.30367343729198
 20
61.85670747458359
 10
34.22732344023348
 20
62.35605053834959
 10
34.20137047680648
 20
62.87028134857758
 10
34.22732344023348
 20
63.38461275168709
 10
34.30367343729198
 20
63.88395581545308
 10
34.42760386729999
 20
64.36589631071959
 10
34.59659990821999
 20
64.82812060121208
 10
34.80844851665898
 20
65.26781208624857
 10
35.06033309193499
 20
65.68245594379157
 10
35.34993999777348
 20
66.06953735180358
 10
35.67455322637398
 20
66.42684326689158
 10
36.03175854858048
 20
66.75135590261058
 10
36.41894054947399
 20
67.04086221556759
 10
36.83358440701699
 20
67.29284738372509
 10
37.27327589205348
 20
67.50469599216409
 10
37.73539958966449
 20
67.67379262596558
 10
38.21744067781248
 20
67.79772305597358
 10
38.71678374157849
 20
67.87397246015058
 10
39.23101455180648
 20
67.89982483069608
  0
LWPOLYLINE
  5
62
100
AcDbEntity
  8
0
  6
ByLayer
 62
    0
370
   -1
100
AcDbPolyline
 90
   33
 70
    1
 43
0
 10
61.36134788892499
 20
62.36731694107759
 10
61.46274551347699
 20
62.37757741499058
 10
61.55720222920549
 20
62.40684994350708
 10
61.64260558559899
 20
62.45322326187858
 10
61.71704431790899
 20
62.51468551247508
 10
61.77850656850548
 20
62.58902365190359
 10
61.82477929399548
 20
62.67452760117859
 10
61.85405182251199
 20
62.76888372402559
 10
61.86431229642499
 20
62.87028134857758
 10
61.85405182251199
 20
62.97177956601108
 10
61.82477929399548
 20
63.06603509597659
 10
61.77850656850548
 20
63.15153904525159
 10
61.71704431790899
 20
63.22597777756159
 10
61.64260558559899
 20
63.28733943527659
 10
61.55720222920549
 20
63.33371275364808
 10
61.46274551347699
 20
63.36308587504609
 10
61.36134788892499
 20
63.37324575607759
 10
61.26005085725448
 20
63.36308587504609
 10
61.16559414152599
 20
63.33371275364808
 10
61.08019078513249
 20
63.28733943527659
 10
61.00575205282249
 20
63.22597777756159
 10
60.94428980222599
 20
63.15153904525159
 10
60.89791648385449
 20
63.06603509597659
 10
60.86874454821949
 20
62.97177956601108
 10
60.85838348142499
 20
62.87028134857758
 10
60.86874454821949
 20
62.76888372402559
 10
60.89791648385449
 20
62.67452760117859
 10
60.94428980222599
 20
62.58902365190359
 10
61.00575205282249
 20
62.51468551247508
 10
61.08019078513249
 20
62.45322326187858
 10
61.16559414152599
 20
62.40684994350708
 10
61.26005085725448
 20
62.37757741499058
 10
61.36134788892499
 20
62.36731694107759
  0
LWPOLYLINE
  5
63
100
AcDbEntity
  8
0
  6
ByLayer
 62
    0
370
   -1
100
AcDbPolyline
 90
   33
 70
    1
 43
0
 10
39.23101455180648
 20
62.36731694107759
 10
39.33241217635848
 20
62.37757741499058
 10
39.42676829920548
 20
62.40684994350708
 10
39.51227224848049
 20
62.45322326187858
 10
39.58661038790898
 20
62.51468551247508
 10
39.64807263850548
 20
62.58902365190359
 10
39.69444595687698
 20
62.67452760117859
 10
39.72361789251199
 20
62.76888372402559
 10
39.73397895930648
 20
62.87028134857758
 10
39.72361789251199
 20
62.97177956601108
 10
39.69444595687698
 20
63.06603509597659
 10
39.64807263850548
 20
63.15153904525159
 10
39.58661038790898
 20
63.22597777756159
 10
39.51227224848049
 20
63.28733943527659
 10
39.42676829920548
 20
63.33371275364808
 10
39.33241217635848
 20
63.36308587504609
 10
39.23101455180648
 20
63.37324575607759
 10
39.12961692725448
 20
63.36308587504609
 10
39.03526080440749
 20
63.33371275364808
 10
38.94975685513248
 20
63.28733943527659
 10
38.87541871570399
 20
63.22597777756159
 10
38.81395646510748
 20
63.15153904525159
 10
38.76758314673599
 20
63.06603509597659
 10
38.73831061821949
 20
62.97177956601108
 10
38.72805014430648
 20
62.87028134857758
 10
38.73831061821949
 20
62.76888372402559
 10
38.76758314673599
 20
62.67452760117859
 10
38.81395646510748
 20
62.58902365190359
 10
38.87541871570399
 20
62.51468551247508
 10
38.94975685513248
 20
62.45322326187858
 10
39.03526080440749
 20
62.40684994350708
 10
39.12961692725448
 20
62.37757741499058
 10
39.23101455180648
 20
62.36731694107759
  0
LWPOLYLINE
  5
64
100
AcDbEntity
  8
0
  6
ByLayer
 62
    0
370
   -1
100
AcDbPolyline
 90
    2
 70
    0
 43
0
 10
27.15996936468798
 20
67.89982483069608
 10
3.017728101128731
 20
67.89982483069608
  0
LWPOLYLINE
  5
65
100
AcDbEntity
  8
0
  6
ByLayer
 62
    0
370
   -1
100
AcDbPolyline
 90
    2
 70
    0
 43
0
 10
3.017728101128731
 20
67.89982483069608
 10
0
 20
64.88213897857759
  0
LWPOLYLINE
  5
66
100
AcDbEntity
  8
0
  6
ByLayer
 62
    0
370
   -1
100
AcDbPolyline
 90
    2
 70
    0
 43
0
 10
0
 20
64.88213897857759
 10
0
 20
60.85842371857758
  0
LWPOLYLINE
  5
67
100
AcDbEntity
  8
0
  6
ByLayer
 62
    0
370
   -1
100
AcDbPolyline
 90
    2
 70
    0
 43
0
 10
0
 20
60.85842371857758
 10
3.017728101128731
 20
57.84063727357758
  0
LWPOLYLINE
  5
68
100
AcDbEntity
  8
0
  6
ByLayer
 62
    0
370
   -1
100
AcDbPolyline
 90
    2
 70
    0
 43
0
 10
3.017728101128731
 20
57.84063727357758
 10
27.15996936468798
 20
57.84063727357758
  0
LWPOLYLINE
  5
69
100
AcDbEntity
  8
0
  6
ByLayer
 62
    0
370
   -1
100
AcDbPolyline
 90
   33
 70
    0
 43
0
 10
27.15996936468798
 20
67.89982483069608
 10
27.67420017491598
 20
67.87397246015058
 10
28.17364383156348
 20
67.79772305597358
 10
28.65568491971148
 20
67.67379262596558
 10
29.11770802444098
 20
67.50469599216409
 10
29.55729891659598
 20
67.29284738372509
 10
29.97204336702049
 20
67.04086221556759
 10
30.35912477503248
 20
66.75135590261058
 10
30.71643069012048
 20
66.42684326689158
 10
31.04104391872098
 20
66.06953735180358
 10
31.33055023167798
 20
65.68245594379157
 10
31.58243480695398
 20
65.26781208624857
 10
31.79428341539298
 20
64.82812060121208
 10
31.96348064207598
 20
64.36589631071959
 10
32.08741107208398
 20
63.88395581545308
 10
32.16355988337948
 20
63.38461275168709
 10
32.18951284680648
 20
62.87028134857758
 10
32.16355988337948
 20
62.35605053834959
 10
32.08741107208398
 20
61.85670747458359
 10
31.96348064207598
 20
61.37466638643559
 10
31.79428341539298
 20
60.91254268882458
 10
31.58243480695398
 20
60.47285120378809
 10
31.33055023167798
 20
60.05820734624508
 10
31.04104391872098
 20
59.67102534535159
 10
30.71643069012048
 20
59.31382002314509
 10
30.35912477503248
 20
58.98920679454459
 10
29.97204336702049
 20
58.69959988870608
 10
29.55729891659598
 20
58.44771531343008
 10
29.11770802444098
 20
58.23586670499108
 10
28.65568491971148
 20
58.06687066407108
 10
28.17364383156348
 20
57.94283964118159
 10
27.67420017491598
 20
57.86669082988609
 10
27.15996936468798
 20
57.84063727357758
  0
LWPOLYLINE
  5
6A
100
AcDbEntity
  8
0
  6
ByLayer
 62
    0
370
   -1
100
AcDbPolyline
 90
   33
 70
    1
 43
0
 10
5.029585731128729
 20
62.36731694107759
 10
5.130933059239981
 20
62.37757741499058
 10
5.22534953781588
 20
62.40684994350708
 10
5.310752894209379
 20
62.45322326187858
 10
5.385191626519379
 20
62.51468551247508
 10
5.446653877115881
 20
62.58902365190359
 10
5.49298695833478
 20
62.67452760117859
 10
5.522299724003879
 20
62.76888372402559
 10
5.532550138628729
 20
62.87028134857758
 10
5.522299724003879
 20
62.97177956601108
 10
5.49298695833478
 20
63.06603509597659
 10
5.446653877115881
 20
63.15153904525159
 10
5.385191626519379
 20
63.22597777756159
 10
5.310752894209379
 20
63.28733943527659
 10
5.22534953781588
 20
63.33371275364808
 10
5.130933059239981
 20
63.36308587504609
 10
5.029585731128729
 20
63.37324575607759
 10
4.928198165864879
 20
63.36308587504609
 10
4.83378168728898
 20
63.33371275364808
 10
4.74835821231918
 20
63.28733943527659
 10
4.67391948000918
 20
63.22597777756159
 10
4.612477347988979
 20
63.15153904525159
 10
4.566134207481931
 20
63.06603509597659
 10
4.536831501100981
 20
62.97177956601108
 10
4.52662132362873
 20
62.87028134857758
 10
4.536831501100981
 20
62.76888372402559
 10
4.566134207481931
 20
62.67452760117859
 10
4.612477347988979
 20
62.58902365190359
 10
4.67391948000918
 20
62.51468551247508
 10
4.74835821231918
 20
62.45322326187858
 10
4.83378168728898
 20
62.40684994350708
 10
4.928198165864879
 20
62.37757741499058
 10
5.029585731128729
 20
62.36731694107759
  0
LWPOLYLINE
  5
6B
100
AcDbEntity
  8
0
  6
ByLayer
 62
    0
370
   -1
100
AcDbPolyline
 90
   33
 70
    1
 43
0
 10
27.15996936468798
 20
62.36731694107759
 10
27.26126639635848
 20
62.37757741499058
 10
27.35562251920548
 20
62.40684994350708
 10
27.44112646848048
 20
62.45322326187858
 10
27.51556520079048
 20
62.51468551247508
 10
27.57692685850548
 20
62.58902365190359
 10
27.62330017687698
 20
62.67452760117859
 10
27.65267329827498
 20
62.76888372402559
 10
27.66283317930648
 20
62.87028134857758
 10
27.65267329827498
 20
62.97177956601108
 10
27.62330017687698
 20
63.06603509597659
 10
27.57692685850548
 20
63.15153904525159
 10
27.51556520079048
 20
63.22597777756159
 10
27.44112646848048
 20
63.28733943527659
 10
27.35562251920548
 20
63.33371275364808
 10
27.26126639635848
 20
63.36308587504609
 10
27.15996936468798
 20
63.37324575607759
 10
27.05857174013598
 20
63.36308587504609
 10
26.96411502440748
 20
63.33371275364808
 10
26.87881226089548
 20
63.28733943527659
 10
26.80427293570398
 20
63.22597777756159
 10
26.74281068510748
 20
63.15153904525159
 10
26.69643736673598
 20
63.06603509597659
 10
26.66726543110098
 20
62.97177956601108
 10
26.65700495718798
 20
62.87028134857758
 10
26.66726543110098
 20
62.76888372402559
 10
26.69643736673598
 20
62.67452760117859
 10
26.74281068510748
 20
62.58902365190359
 10
26.80427293570398
 20
62.51468551247508
 10
26.87881226089548
 20
62.45322326187858
 10
26.96411502440748
 20
62.40684994350708
 10
27.05857174013598
 20
62.37757741499058
 10
27.15996936468798
 20
62.36731694107759
  0
ENDSEC
  0
SECTION
  2
OBJECTS
  0
DICTIONARY
  5
C
330
0
100
AcDbDictionary
281
    1
  3
ACAD_GROUP
350
D
  0
DICTIONARY
  5
D
330
C
100
AcDbDictionary
281
    1
  0
ENDSEC
  0
EOF
